<svg xmlns="http://www.w3.org/2000/svg" width="2000" height="2000" fill="none"><path fill="#3F9896" d="M641 711.133S618.832 600.869 488 579c-.001 0 40.662 162.897 153 132.133Z"/><path fill="#7FC6A6" d="M714.63 764s43.718-188.789-145.39-329c0 0-52.207 285.336 145.39 329Z"/><path fill="#FEEFDC" d="m1887.07 1770.01-351.32-2.24-24.83-.08h-1.85l-3.15-.02-26.04-.08-23.45-.08h-1.37l-1.38-.01-55.42-.17h-1.33l-1.42-.01-23.41-.07-31.04-.11-23.45-.07-1.38-.01h-1.37l-725.745-2.32-384.007 6.26s-291.449-197.79-179.51-694.49C59.371 926.649 253.98 699.074 492.864 682.143c291.425-20.652 262.613-346.076 809.725-324.077 583.99 23.476 872.91 932.584 584.48 1411.944Z"/><path fill="#3AA1C9" d="m1536 1768-25.08-.08h-1.87l-3.18-.02-26.31-.08-23.69-.08h-1.38l-1.45-616.09-.04-15.43h1.5l23.58-.07 31.35-.09 25.09-.06v.03l.34 146.37 1 426.19.14 59.41Z"/><path fill="#1F82A0" d="M1510 1774h-1.88l-3.2-.02-26.43-.08-1.45-623.74v-1.41l-.04-15.63v-.03l31.51-.09v.02l.04 15.65v1.4l1.37 590.69.01 2.98.05 20.77.01 5.99.01 3.5Z"/><path fill="#F7D6B2" d="m1493.24 1027 40.76 109.71c.02 7.24-5.55 13.12-12.43 13.14-6.88.02-12.48-5.84-12.49-13.08.01 7.24-6.95 13.13-15.55 13.15-8.6.03-15.59-5.82-15.61-13.06.02 7.24-5.55 13.12-12.43 13.14-6.88.02-12.47-5.84-12.49-13.08l40.24-109.92Z"/><path fill="#3AA1C9" d="M1533.96 1136s-13.98 11.62-24.91.07l.04 15.78 24.91-.07-.04-15.78Zm-56.05.15s-13.99 11.63-24.91.07l.04 15.78 24.91-.07-.04-15.78Z"/><path fill="#1F82A0" d="M1508.96 1138.75s-13.82 14.86-31.96.08l.04 17.17 31.96-.08-.04-17.17Zm-2.36-74.66s-12.61 10.55-27.6.08l13.72-37.17 13.88 37.09Z"/><path fill="#000" d="m1518.8 1093.82-1.28.55-1.28.55-11.3-30.52-12.35-33.34-12.17 33.36-26.56 72.8-.11.27v1.04l.02 4.69.02 9.51 1.44 619.09h-1.38l-1.38-.01-1.47-634.87.09-.26 41.49-113.68 26.22 70.82Zm13.21 190.33 2.75-.01 1.24 428.28-2.76.01-1.23-428.28Zm-38.63 482.91 15.24-28.61 2.4 1.47-15.25 28.61-2.39-1.47Zm23.05-10.86-6.56 12.33-1.85 3.47-3.16-.02 4.99-9.38 4.19-7.87 2.39 1.47Z"/><path fill="#7FC6A6" d="m1397 1766-1.4-.01-23.17-.07-30.7-.1-23.21-.08h-1.36l-1.12-488.13-.04-15.39h1.47l23.1-.07 30.7-.09 24.56-.06v.03l.04 15.37.3 130.65.83 357.95Z"/><path fill="#3F9896" d="m1372 1756-29.87-.1-1.09-477.36-.04-16.42v-.03l29.87-.09v.02l.03 15.08v1.35L1372 1756Z"/><path fill="#F7D6B2" d="m1355.75 1153 40.25 109.71c.02 7.24-5.48 13.12-12.28 13.14-6.79.02-12.32-5.84-12.34-13.08.02 7.24-6.85 13.13-15.35 13.16-8.5.02-15.4-5.83-15.41-13.07.01 7.24-5.48 13.12-12.28 13.14-6.8.02-12.32-5.84-12.34-13.08l39.75-109.92Z"/><path fill="#7FC6A6" d="M1394.96 1262s-13.64 11.62-24.29.07l.03 15.78 24.3-.07-.04-15.78Zm-54.66.15s-13.64 11.63-24.3.07l.04 15.78 24.29-.07-.03-15.78Z"/><path fill="#3F9896" d="M1370.96 1260.42s-12.95 14.28-29.96.08l.04 16.5 29.96-.08-.04-16.5Zm-2.21-71.77s-11.82 10.15-25.87.07l12.86-35.72 13.01 35.65Z"/><path fill="#000" d="m1381.34 1219.83-1.25.54-1.26.54-11.05-30.09-12.08-32.87-11.9 32.89-25.99 71.78-.11.27v1.02l.02 4.63.02 9.37 1.12 484.84-1.35-.01h-1.35l-1.16-500.4.1-.25 40.58-112.09 25.66 69.83ZM1398 1763h-1.31l-1.39-.01-1.02-355.52h1.59l1.1-.01L1398 1763Z"/><path fill="#53A07C" d="m315.477 1360.57 122.671-166.59 328.211 277.17-122.672 166.59-328.21-277.17Z"/><path fill="#B9EDD6" d="M585.872 1465.38c28.34-30.35 28.339-79.56-.002-109.91-28.34-30.34-74.289-30.34-102.629.01-28.339 30.35-28.339 79.55.002 109.9 28.341 30.35 74.29 30.35 102.629 0Z"/><path fill="#7FC6A6" d="M313.729 1332.05 436.4 1165.46l328.211 277.18-122.672 166.58-328.21-277.17Z"/><path fill="#B9EDD6" d="M619.131 1400.28c3.326-42.77-26.356-80.33-66.296-83.9-39.941-3.56-75.016 28.23-78.343 71-3.327 42.77 26.355 80.33 66.296 83.9 39.941 3.56 75.016-28.23 78.343-71Z"/><path fill="#B9EDD6" d="M473.914 1334.33c21.393-29.08 55.069-41.66 86.898-35.95L443.24 1199 344 1333.91l117.571 99.38c-12.601-31.84-9.049-69.88 12.343-98.96Zm143.472 121.28c-21.392 29.08-55.068 41.65-86.897 35.94L632.76 1578 732 1443.09l-102.271-86.45c12.602 31.85 9.05 69.89-12.343 98.97Z"/><path fill="#53A07C" d="M314.754 1359.98 313 1331l30.482 26.08-28.728 2.9Zm450.492 83.41 1.754 28.98-26.907 5.63 25.153-34.61Z"/><path fill="#4B8C6B" d="M643.744 1638 642 1609.35 764.257 1442l1.743 28.65L643.744 1638Z"/><path fill="#217F7A" d="m471.443 1465.24 122.672-166.59 20.416 17.24-122.672 166.59-20.416-17.24Z"/><path fill="#E23E3D" d="M471.043 1464 465 1487l19.837 17 7.163-22.04-20.957-17.96Z"/><path fill="#53A07C" d="m266.182 1622.75 40.509-213.3 420.25 91.53-40.509 213.3-420.25-91.53Z"/><path fill="#B9EDD6" d="M556.886 1591.36c16.217-40.47-1.27-87.35-39.058-104.72-37.789-17.37-81.569 1.36-97.786 41.83-16.218 40.47 1.269 87.35 39.058 104.72 37.788 17.36 81.568-1.36 97.786-41.83Z"/><path fill="#7FC6A6" d="m252.271 1597.49 40.51-213.3 420.25 91.53-40.509 213.3-420.251-91.53Z"/><path fill="#B9EDD6" d="M493.73 1618.35c41.115-.77 73.865-37.09 73.15-81.11-.716-44.03-34.626-79.11-75.741-78.34-41.115.77-73.866 37.08-73.15 81.11.715 44.03 34.626 79.1 75.741 78.34Z"/><path fill="#B9EDD6" d="M401.342 1519.07c7.071-37.34 32.535-65.61 64.193-76.17L314.807 1410 282 1583.2l150.728 32.9c-25.302-23-38.458-59.7-31.386-97.03Zm183.932 40.14c-7.071 37.34-32.535 65.61-64.192 76.17L652.194 1664 685 1490.8l-131.111-28.61c25.301 22.99 38.457 59.69 31.385 97.02Z"/><path fill="#53A07C" d="M265.945 1622 252 1596.75l39.022 8.47-25.077 16.78Zm448.11-147L728 1500.25l-22.248 18.34 8.303-43.59Z"/><path fill="#4B8C6B" d="M686.058 1717 672 1691.38 712.943 1475 727 1500.62 686.058 1717Z"/><path fill="#3F9896" d="m454.215 1641.48 40.509-213.3 26.141 5.69-40.509 213.3-26.141-5.69Z"/><path fill="#3F9896" d="m454 1641 4.146 23.52L483 1670l-2.744-23.21L454 1641Z"/><path fill="#4B8C6B" d="m360.952 1398.91 352.095 76.66 13.906 25.26-6.093 32.09 45.523-61.82-452.774-113.9 47.343 41.71Z" opacity=".3"/><path fill="#000" d="M698.175 1652.96c-.258.06-.526.05-.78-.03a1.483 1.483 0 0 1-.675-.42c-.189-.2-.328-.44-.406-.71-.077-.27-.09-.56-.038-.84l28.373-149.53-13.241-24.07-418.076-91.09-40.192 211.81c-.084.44-.329.83-.679 1.08-.351.25-.779.34-1.191.25a1.576 1.576 0 0 1-1.006-.73c-.232-.37-.316-.83-.232-1.28l40.823-215.14 422.568 92.07 14.577 26.5-28.616 150.81a1.72 1.72 0 0 1-.422.85c-.214.24-.488.4-.787.47ZM474.511 1271.8c-.401.09-.82.01-1.168-.22-.348-.24-.598-.6-.699-1.03-.1-.43-.043-.88.16-1.26s.536-.66.93-.79l27.76-8.44c.83-.24 1.719.27 1.958 1.17.057.22.074.44.05.66a1.769 1.769 0 0 1-.592 1.14 1.5 1.5 0 0 1-.551.3l-27.76 8.44-.088.03Zm6.165 7.62c-.403.1-.827.03-1.181-.2-.353-.23-.608-.6-.709-1.04-.102-.43-.042-.88.166-1.27.208-.38.548-.66.947-.78l27.76-8.44c.846-.24 1.719.27 1.958 1.17a1.807 1.807 0 0 1-.141 1.29 1.688 1.688 0 0 1-.952.81l-27.759 8.44a.286.286 0 0 1-.089.02Z"/><path fill="#000" d="M764.76 1443.96c-.23.05-.468.05-.698 0-.23-.06-.445-.17-.63-.32l-326.903-275.87-121.285 164.59 1.663 27.09 44.888 37.88c.331.28.544.69.594 1.14.049.44-.069.89-.329 1.25a1.56 1.56 0 0 1-1.059.63c-.418.05-.838-.07-1.168-.35l-45.998-38.82-1.835-29.9.377-.51L436.002 1163l329.393 277.97c.236.2.414.47.514.77a1.778 1.778 0 0 1-.376 1.77c-.212.22-.481.38-.773.45Z"/><path fill="#FFD469" d="m505 1769.94-.051-185.29-26.888.01-.006-22.33h-.061l-.001-.82-11.62.01-.005-22.35h11.68l-.006-23.17h-.062l-80.281.03h-.002l-94.783.03.006 22.34-11.681.01.001 1.63.005 22.35h11.682l.001.82.005 21.53H281v1.64l.006 22.35 21.934-.01v.82l.006 21.53h-14.654v.82l.006 23.17 20.3-.01v.8l.007 21.53v.8h-20.301l.006 23.17.001.82 14.654-.01.007 21.54h-17.629v1.64l.007 22.34 41.472-.01.007 22.33 178.171-.06Z"/><path fill="#FFC23B" d="M291.086 1538.78h186.32v23.83h-186.32v-23.83Z" opacity=".3"/><path fill="#FFC23B" d="M281 1585h185.912v23.8H281V1585Zm4.194 46.02h185.912v23H285.194v-23Zm1.894 46.01H473V1700H287.088v-22.97Zm-1.868 45.98h185.911V1746H285.22v-22.99Z"/><path fill="#FFC931" d="m618 1771-191.994-1.84-.006-23.1 172.339-.06L618 1771ZM442 1722h178v24H442v-24ZM428 1699h178v23H428v-23ZM449 1677h177v22H449v-22ZM428 1654h173.488v23H428v-23Zm14.512-23H616v23H442.512v-23Z"/><path fill="#FFC931" d="M420 1608.5h174.191v23.5H420v-23.5Zm21.809-23.5H616v23.5H441.809V1585ZM431 1561.5h175.313v22.5H431v-22.5Zm11.687-22.5H618v22.5H442.687V1539Z"/><path fill="#F99247" d="m623.271 1699.89-.007-23.03h-20.281l-.006-23.01h14.641l-.007-23.04-21.912.01-.006-23.03 21.912-.01-.007-23.03h-11.67l-.006-23.03h11.67l-.006-23.03-80.204.02c-3.223 0-5.834 2.97-5.833 6.63l.002 9.79c.001 3.65-2.61 6.62-5.833 6.62-3.222 0-5.834 2.96-5.833 6.62l.003 9.79c0 3.66 2.614 6.62 5.837 6.62 3.222 0 5.835 2.96 5.837 6.62l.002 9.79c.001 3.66-2.61 6.62-5.833 6.62h-10.242c-3.222.01-5.834 2.97-5.833 6.63l.003 9.79c0 3.65 2.614 6.62 5.837 6.62l10.242-.01c3.223 0 5.836 2.97 5.837 6.62l.003 9.79c.001 3.66-2.611 6.62-5.833 6.62l-2.971.01c-3.223 0-5.834 2.96-5.833 6.62l.002 9.77c.001 3.66 2.615 6.62 5.837 6.62l8.612-.01c3.222 0 5.836 2.97 5.837 6.62l.003 9.79c.001 3.66-2.611 6.63-5.833 6.63h-8.612c-3.222 0-5.833 2.97-5.833 6.62l.003 9.77c.001 3.66 2.614 6.62 5.837 6.62h2.971c3.222 0 5.836 2.96 5.837 6.62l.002 9.79c.001 3.66-2.61 6.62-5.833 6.62h-5.941c-3.222 0-5.835 2.97-5.833 6.63l.001 2.28.002 7.51c.001 3.65 2.615 6.62 5.837 6.61l99.627 2.54-19.427-16.68-.003-8.91 17.612-.01-.007-23.03-14.64.01-.006-23.02h20.278Z" opacity=".5"/><path fill="#000" d="M430.256 1560h175.35v1.63h-175.35V1560Zm11.706 23.05h175.351v1.63H441.962v-1.63ZM420 1606.11h175.351v1.62H420v-1.62Zm21.975 23.04h175.351v1.63H441.975v-1.63Zm-14.672 23.06h175.35v1.62h-175.35v-1.62Zm20.34 23.02h175.351v1.63H447.643v-1.63Zm.006 23.05H623v1.63H447.649v-1.63Zm-20.327 23.04h175.35v1.63h-175.35v-1.63Zm-2.972 23.05H599.7v1.63H424.35v-1.63Z"/><path fill="#FFC931" d="M213 1745.5h177.172v23.5H213v-23.5Zm17.828-23.5H408v23.5H230.828V1722ZM216 1700h172v22H216v-22ZM236 1677h180v22H236v-22ZM216 1654h179.949v23H216v-23Zm15.052-23H411v23H231.052v-23ZM209 1608h174v23H209v-23Z"/><path fill="#F99247" d="m304.092 1607.88 81.125-.02.006 23.03 22.163-.01.007 23.03-14.808.01.006 23.01 20.513-.01.007 23.04h-20.514l.007 23.01h14.808l.006 23.03-17.812.01.002 8.9.004 14.13-81.122.02c-3.259 0-5.902-2.96-5.903-6.62l-.003-7.5v-2.29c-.001-3.65 2.64-6.62 5.9-6.62h6.009c3.259 0 5.901-2.97 5.9-6.62l-.002-9.79c-.002-3.66-2.645-6.62-5.905-6.62h-3.004c-3.259 0-5.903-2.96-5.903-6.62l-.003-9.77c-.001-3.66 2.641-6.62 5.9-6.62h8.71c3.259-.01 5.901-2.97 5.9-6.63l-.002-9.79c-.001-3.65-2.644-6.62-5.904-6.62l-8.71.01c-3.259 0-5.903-2.97-5.903-6.62l-.003-9.77c-.001-3.66 2.64-6.62 5.9-6.63h3.005c3.259 0 5.901-2.96 5.9-6.62l-.002-9.79c-.001-3.66-2.644-6.62-5.904-6.62l-10.359.01c-3.26 0-5.903-2.97-5.904-6.62l-.003-9.79c-.003-3.66 2.637-6.62 5.895-6.63Z" opacity=".5"/><path fill="#000" d="M209 1606h177.077v1.63H209V1606Zm22.192 23.06H408.27v1.63H231.192v-1.63Zm-14.816 23.08h177.077v1.62H216.376v-1.62Zm20.54 23.04h177.078v1.63H236.916v-1.63Zm.007 23.07H414v1.62H236.923v-1.62Zm-20.529 23.05h177.077v1.63H216.394v-1.63Zm-3.001 23.07h177.078v1.63H213.393v-1.63Z"/><path fill="#fff" d="M230.241 1640.42c-1.014 10.05-9.241 12.75-9.241 12.75s8.229 2.69 9.248 12.73c1.014-10.04 9.241-12.74 9.241-12.74s-8.229-2.69-9.248-12.74Zm125.002-44.01c-1.014 10.05-9.241 12.74-9.241 12.74s8.229 2.7 9.248 12.74c1.014-10.04 9.241-12.74 9.241-12.74s-8.228-2.69-9.248-12.74Zm-36.381-67.23c-1.014 10.04-9.241 12.74-9.241 12.74s8.228 2.69 9.248 12.74c1.014-10.05 9.241-12.75 9.241-12.75s-8.228-2.69-9.248-12.73Zm81.738 42.28c-.381 3.77-3.472 4.78-3.472 4.78s3.092 1.02 3.475 4.79c.381-3.77 3.473-4.79 3.473-4.79s-3.092-1.01-3.476-4.78ZM598.53 1508c-.71 7.03-6.463 8.91-6.463 8.91s5.755 1.89 6.469 8.91c.709-7.02 6.464-8.91 6.464-8.91s-5.756-1.88-6.47-8.91Zm-307.726 173.46c-.622 6.15-5.657 7.8-5.657 7.8s5.037 1.65 5.661 7.8c.621-6.15 5.657-7.8 5.657-7.8s-5.037-1.65-5.661-7.8Zm198.667-111.54c-.456 4.51-4.151 5.72-4.151 5.72s3.696 1.21 4.154 5.72c.455-4.51 4.151-5.72 4.151-5.72s-3.696-1.21-4.154-5.72Zm-5.404 135.01c-.639 6.34-5.828 8.04-5.828 8.04s5.189 1.69 5.833 8.03c.639-6.34 5.828-8.04 5.828-8.04s-5.19-1.69-5.833-8.03Z"/><path fill="#F7952E" d="m1505 1768.94-.05-184.56-26.89.01v-22.24h-.07v-.81h-11.62v-22.26l11.62-.01h.06l-.01-23.07h-.06l-80.28.03-94.79.03.01 22.26h-11.68v1.63l.01 22.26h11.68V1584.47H1281v1.63l.01 22.26h21.93v.81l.01 21.45h-14.66v.82l.01 23.07h20.3V1677.54l-20.3.01.01 23.07v.82l14.66-.01v21.45h-17.63v1.63l.01 22.26 41.47-.01.01 22.24 178.17-.06Z"/><path fill="#E87813" d="M1291.25 1539H1478v23.8h-186.75V1539Zm-10.25 46h186.75v23.8H1281V1585Zm4.21 46.02h186.75v23h-186.75v-23Zm1.91 46.01h186.74V1700h-186.74v-22.97Zm-1.88 45.98h186.75V1746h-186.75v-22.99Z"/><path fill="#FFC931" d="M1432 1745.5h175.36v23.5H1432v-23.5Zm17.64-23.5H1625v23.5h-175.36V1722ZM1437 1699h177v23h-177v-23ZM1456 1677h178v22h-178v-22ZM1437 1653.5h173.49v22.5H1437v-22.5Zm14.51-22.5H1625v22.5h-173.49V1631Z"/><path fill="#FFC931" d="M1428 1608.5h174.19v23.5H1428v-23.5Zm21.81-23.5H1624v23.5h-174.19V1585ZM1439 1561.5h174.38v22.5H1439v-22.5Zm11.62-22.5H1625v22.5h-174.38V1539Z"/><path fill="#F99247" d="m1631.06 1699.89-.01-23.03h-20.28l-.01-23.01h14.64v-23.04l-21.92.01v-23.03l21.91-.01-.01-23.03h-11.67v-23.03h11.67l-.01-23.03-80.2.02c-3.23 0-5.84 2.97-5.84 6.63l.01 9.79c0 3.65-2.61 6.62-5.84 6.62-3.22 0-5.83 2.96-5.83 6.62v9.79c0 3.66 2.62 6.62 5.84 6.62 3.22 0 5.84 2.96 5.84 6.62v9.79c0 3.66-2.61 6.62-5.83 6.62h-10.25c-3.22.01-5.83 2.97-5.83 6.63v9.79c0 3.65 2.62 6.62 5.84 6.62l10.24-.01c3.23 0 5.84 2.97 5.84 6.62v9.79c0 3.66-2.61 6.62-5.83 6.62l-2.97.01c-3.22 0-5.84 2.96-5.83 6.62v9.77c0 3.66 2.61 6.62 5.83 6.62l8.62-.01c3.22 0 5.83 2.97 5.83 6.62l.01 9.79c0 3.66-2.61 6.63-5.84 6.63h-8.61c-3.22 0-5.83 2.97-5.83 6.62v9.77c0 3.66 2.61 6.62 5.84 6.62h2.97c3.22 0 5.83 2.96 5.84 6.62v9.79c0 3.66-2.61 6.62-5.84 6.62h-5.94c-3.22 0-5.83 2.97-5.83 6.63v9.79c0 3.65 2.62 6.62 5.84 6.61l80.2-.02v-23.03l17.61-.01-.01-23.03-14.64.01v-23.02h20.28Z" opacity=".5"/><path fill="#000" d="M1438.26 1560h175.35v1.63h-175.35V1560Zm11.7 23.05h175.35v1.63h-175.35v-1.63Zm-21.96 23.06h175.35v1.62H1428v-1.62Zm21.98 23.04h175.35v1.63h-175.35v-1.63Zm-14.68 23.06h175.35v1.62H1435.3v-1.62Zm20.34 23.02h175.35v1.63h-175.35v-1.63Zm.01 23.05H1631v1.63h-175.35v-1.63Zm-20.33 23.04h175.35v1.63h-175.35v-1.63Zm-2.97 23.05h175.35v1.63h-175.35v-1.63Z"/><path fill="#FFC931" d="M1212 1746h179.9v24H1212v-24Zm18.1-24H1410v24h-179.9v-24ZM1215 1700h173v22h-173v-22ZM1236 1677h181v22h-181v-22Z"/><path fill="#FFC931" d="M1215 1654.5h180.87v23.5H1215v-23.5Zm15.13-23.5H1411v23.5h-180.87V1631ZM1208 1608h175v23h-175v-23Z"/><path fill="#F99247" d="m1304.34 1607.88 81.12-.02.01 23.03 22.16-.01.01 23.03-14.81.01.01 23.01 20.51-.01.01 23.04h-20.52l.01 23.01h14.81V1746l-17.81.01v8.9l.01 14.13-81.13.02c-3.25 0-5.9-2.96-5.9-6.62v-9.79c0-3.65 2.64-6.62 5.9-6.62h6.01c3.26 0 5.9-2.97 5.9-6.62v-9.79c-.01-3.66-2.65-6.62-5.91-6.62h-3c-3.26 0-5.91-2.96-5.91-6.62v-9.77c0-3.66 2.64-6.62 5.9-6.62h8.71c3.26-.01 5.9-2.97 5.9-6.63v-9.79c0-3.65-2.64-6.62-5.9-6.62l-8.71.01c-3.26 0-5.91-2.97-5.91-6.62v-9.77c0-3.66 2.64-6.62 5.9-6.63h3c3.26 0 5.91-2.96 5.91-6.62l-.01-9.79c0-3.66-2.64-6.62-5.9-6.62l-10.36.01c-3.26 0-5.9-2.97-5.9-6.62l-.01-9.79c0-3.66 2.64-6.62 5.9-6.63Z" opacity=".5"/><path fill="#000" d="M1208 1606h177.94v1.63H1208V1606Zm22.3 23.06h177.94v1.63H1230.3v-1.63Zm-14.89 23.08h177.94v1.62h-177.94v-1.62Zm20.64 23.04h177.94v1.63h-177.94v-1.63Zm.01 23.07H1414v1.62h-177.94v-1.62Zm-20.63 23.05h177.94v1.63h-177.94v-1.63Zm-3.02 23.07h177.95v1.63h-177.95v-1.63Z"/><path fill="#fff" d="M1231.24 1640.42c-1.01 10.05-9.24 12.75-9.24 12.75s8.23 2.69 9.25 12.73c1.01-10.04 9.24-12.74 9.24-12.74s-8.23-2.69-9.25-12.74Zm125-44.01c-1.01 10.05-9.24 12.74-9.24 12.74s8.23 2.7 9.25 12.74c1.01-10.04 9.24-12.74 9.24-12.74s-8.23-2.69-9.25-12.74Zm-36.38-67.23c-1.01 10.04-9.24 12.74-9.24 12.74s8.23 2.69 9.25 12.74c1.01-10.05 9.24-12.75 9.24-12.75s-8.23-2.69-9.25-12.73Zm81.74 42.28c-.38 3.77-3.47 4.78-3.47 4.78s3.09 1.02 3.47 4.79c.38-3.77 3.48-4.79 3.48-4.79s-3.1-1.01-3.48-4.78Zm197.93-63.46c-.71 7.03-6.46 8.91-6.46 8.91s5.75 1.89 6.47 8.91c.71-7.02 6.46-8.91 6.46-8.91s-5.76-1.88-6.47-8.91ZM1538 1666.2c-.88 8.68-7.99 11.01-7.99 11.01s7.11 2.33 7.99 11.01c.88-8.68 7.99-11.01 7.99-11.01s-7.11-2.33-7.99-11.01Zm-246.2 15.26c-.62 6.15-5.65 7.8-5.65 7.8s5.03 1.65 5.66 7.8c.62-6.15 5.65-7.8 5.65-7.8s-5.03-1.65-5.66-7.8Zm198.67-111.54c-.45 4.51-4.15 5.72-4.15 5.72s3.7 1.21 4.15 5.72c.46-4.51 4.15-5.72 4.15-5.72s-3.69-1.21-4.15-5.72Zm-5.4 135.01c-.64 6.34-5.83 8.04-5.83 8.04s5.19 1.69 5.83 8.03c.64-6.34 5.83-8.04 5.83-8.04s-5.19-1.69-5.83-8.03Z"/><path fill="#54B5D3" d="M608 1114.07 967 977v269l-359-131.93Z"/><path fill="#1F82A0" d="M1325 1113.56 967 977v268l358-131.44Z"/><path fill="#3AA1C9" d="M1178.74 1170.47c-5.47-42.58-98.17-76.47-211.74-76.47-113.568 0-206.273 33.89-211.74 76.47H755v119.08c0 44.43 94.916 80.45 212 80.45 117.08 0 212-36.02 212-80.45v-119.08h-.26Z"/><path fill="#1D1D1B" d="M967 1371c-56.696 0-110.017-8.37-150.139-23.58-40.537-15.36-62.861-35.97-62.861-58.02v-120.13h.444c3.42-20.68 26.759-39.81 65.928-53.99C860.06 1100.91 912.135 1093 967 1093c54.87 0 106.94 7.91 146.63 22.28 39.17 14.18 62.51 33.31 65.93 53.99h.44v120.13c0 22.05-22.32 42.66-62.86 58.02-40.12 15.21-93.44 23.58-150.14 23.58Zm-210.464-199.01v117.41c0 10.41 5.446 20.57 16.184 30.19 10.548 9.45 25.683 17.95 44.985 25.27 39.859 15.1 92.879 23.42 149.295 23.42 56.41 0 109.44-8.32 149.29-23.42 19.31-7.32 34.44-15.82 44.99-25.27 10.74-9.62 16.18-19.78 16.18-30.19v-117.41h-.09l-.15-1.17c-2.58-20.05-25.45-38.86-64.4-52.96-39.44-14.28-91.22-22.14-145.821-22.14-54.597 0-106.382 7.86-145.817 22.14-38.95 14.1-61.821 32.91-64.399 52.96l-.151 1.17h-.096Z"/><path fill="#4C222E" d="M1856.86 1772h4.14l-9.09-160h-10.25l15.2 160Zm-144.72 0H1708l9.09-160h10.25l-15.2 160Z"/><path fill="#FEC786" d="M1890 1390h-88.95L1754 1615l101.93-11.67L1890 1390Z"/><path fill="#F99247" d="M1684.99 1587.49s117.44 3.17 152.36 3.17c5.64 0 10.47-4.4 11.49-10.46l31.05-183.91c.84-4.94 5.25-8.17 9.77-7.08 4.31 1.05 7 5.77 6.2 10.52l-35.18 208.34c-.26 1.55-.89 3-1.85 4.2-2.26 4.6-6.7 7.73-11.81 7.73h-161.61c-7.41 0-13.41-6.57-13.41-14.67s5.58-17.84 12.99-17.84Z"/><path fill="#21111D" d="M1837.93 1593.35c5.97 0 11.08-4.67 12.16-11.11l31.11-185.06c.37-2.21 1.52-4.12 3.23-5.37a7.11 7.11 0 0 1 2.77-1.23c1-.21 2.02-.18 3 .06.09.02.17.02.26 0 .09-.01.17-.05.24-.1.07-.05.13-.11.18-.19a.64.64 0 0 0 .1-.26.78.78 0 0 0-.08-.54.689.689 0 0 0-.41-.32c-2.36-.57-4.77-.08-6.78 1.38-2.01 1.47-3.36 3.71-3.8 6.31l-31.11 185.05c-.97 5.76-5.54 9.94-10.87 9.94-.08 0-.17.02-.25.06-.08.04-.15.09-.21.16-.06.06-.11.14-.14.23-.04.09-.05.18-.05.27 0 .4.29.72.65.72Zm-58.27 29.65 63.51-.13c17.1 1.7 19.14-14.39 19.24-15.27l3.77-22.46c.04-.18 0-.38-.1-.53a.683.683 0 0 0-.42-.31.748.748 0 0 0-.26.01c-.08.02-.17.06-.24.11-.07.05-.13.12-.17.2-.05.08-.08.17-.1.26l-3.78 22.54c-.06.64-1.64 15.64-17.86 14.02l-.06-.01-63.54.13c-.08 0-.17.02-.25.06-.08.03-.15.09-.21.15-.06.07-.11.15-.14.24-.04.08-.05.18-.05.27 0 .4.29.72.66.72ZM1855.5 1390l24-.03a.5.5 0 0 0 .5-.49.5.5 0 0 0-.5-.48l-24 .03a.61.61 0 0 0-.36.15c-.09.09-.14.21-.14.34 0 .26.23.48.5.48Z"/><path fill="#FE9F73" d="m1590 1752.45 37.72.55.65-44.83-37.68 2.16-.69 42.12ZM1818.93 1463l-10.17 4.7-11.31 5.73s-17.56 3.26-17.81 3.2c-.04-.01 1.45 2.79 1.45 2.79-21.78 2.88-90.46 5.89-101.74 7.24-6.79.81-13.32 9.84-17.44 16.89l5.58 4.04s59.97-2.83 59.85-1.48c-.03.43-1.73 6.79-4.35 15.12 37.04 2.64 88.91 2.39 98.55-13.93 7.9-13.39.19-32.6-2.61-44.3Z"/><path fill="#7FC6A6" d="M1726.57 1587.77s39.19.68 66.65-.31c8.82-.32 16.66.34 21.31-.75 19.11-4.48 23.82-67.42 2.12-105.99-21.71-38.56-97.65 79.84-97.65 79.84l7.57 27.21Z"/><path fill="#FE9F73" d="m1659 1754.46 37.37.54.63-43-37.32 1.39-.68 41.07Z"/><path fill="#5FB28A" d="M1685.98 1503.14s-95.73 6.6-98.5 18.52c-2.76 11.93-11.37 157.46-5.44 211.55 0 0 36.32 2.69 53.69-1.85l4.91-150.64 28.68-3.55L1735 1492l-49.02 11.14Z"/><path fill="#7FC6A6" d="M1731.12 1502s-74.57 22.47-77.36 34.4c-2.79 11.93-10.53 142.87-4.55 196.96 0 0 39.45 2.41 56.99-2.13l4.53-142.21 17.01.64 41.26-77.54-37.88-10.12Z"/><path fill="#21111D" d="M1682.27 1733c17.33 0 23.5-2.78 23.8-2.92l.38-.17L1711 1588l-7.16 3.6.57 1.28 5.17-2.59-4.43 138.64c-1.88.69-10.86 3.45-32.09 2.41l-.06 1.42c3.39.17 6.48.24 9.27.24Z"/><path fill="#21111D" d="M1700.59 1689c1.86-7.69 2.39-82.68 2.41-85.87l-1.34-.01c-.01.78-.55 78-2.37 85.52l1.3.36Zm-69.18-106.03c8.83-3.06 20.98-3.52 21.1-3.53l-.04-1.44c-.13 0-12.46.47-21.47 3.6l.41 1.37Z"/><path fill="#21111D" d="M1610.27 1734c14.36 0 24.28-2.59 24.38-2.61l.48-.13L1640 1580l-5.32 4.7.82 1.11 3.1-2.75-4.74 147.06c-2.2.52-11.78 2.6-24.85 2.45l-.01 1.42c.43.01.85.01 1.27.01Z"/><path fill="#21111D" d="M1629.33 1692c1.84-11.6.09-90.14.01-93.47l-1.34.03c.02.82 1.83 81.73.01 93.2l1.32.24Zm127.97-102.08c17.12 0 37.63-.62 60.7-2.49l-.1-1.43c-68.73 5.56-114.82.06-115.27 0l-.15 1.43c.3.04 20.84 2.49 54.82 2.49Z"/><path fill="#FD7583" d="M1733 1461c-1.31-.02-54 25.3-54 25.3l10.62 22.7 29.57-7.25L1733 1461Z"/><path fill="#21111D" d="M1813.67 1481.95c-.02.01-.04.02-.07.02l-13.98 3.02c-.13.03-.27 0-.38-.07a.486.486 0 0 1-.23-.3c-.03-.13 0-.26.07-.37a.5.5 0 0 1 .31-.22l13.98-3.02c.13-.02.26 0 .37.06a.473.473 0 0 1 .21.64c-.06.11-.16.2-.28.24Z"/><path fill="#F9B59D" d="m1824.93 1471-10.16 4.58-11.3 5.59s-17.55 3.18-17.81 3.12c-.04-.01 1.46 2.73 1.46 2.73-21.78 2.8-90.41 5.74-101.68 7.05-6.8.79-13.32 9.6-17.44 16.47l5.58 3.94s59.94-2.76 59.82-1.44c-.04.41-1.73 6.62-4.36 14.74 37.02 2.58 88.87 2.33 98.5-13.58 7.9-13.05.2-31.79-2.61-43.2Z"/><path fill="#FD7583" d="M1833.05 1362.24c-12.81-1.92-46.6-3.24-46.6-3.24s-4.48 1.27-3.06.55c-37.32 7.12-41.45 37.03-41.45 37.03l-18.22 86.41-20.27 1.18c-6.56 13.44-1.74 49.67-1.74 49.67l98.2 11.95s21.23 3.79 39.18-21.09c11.88-16.46 15.92-66.98 15.91-103.9 0 0-2.04-55.58-21.95-58.56Z"/><path fill="#49263E" d="M1556 1431h92.68l32.32 88h-92.68l-32.32-88Z"/><path fill="#33122B" d="M1682 1520h-4.95l-33.05-89h4.95l33.05 89Z"/><path fill="#E2F2F1" d="M1617.43 1471.68c1.28 4.58.34 9.11-2.11 10.12-2.44 1.01-5.46-1.89-6.75-6.48-1.28-4.58-.34-9.11 2.11-10.12 2.44-1.01 5.46 1.89 6.75 6.48Z"/><path fill="#33122B" d="M1711.91 1513H1679v7h32.91c.82-.02 1.61-.4 2.19-1.05.58-.66.9-1.53.9-2.45a3.7 3.7 0 0 0-.9-2.45c-.58-.65-1.37-1.03-2.19-1.05Z"/><path fill="#49263E" d="M1682 1515h24v1h-24v-1Z"/><path fill="#21111D" d="M1799.4 1485.96a.66.66 0 0 1-.34.03.587.587 0 0 1-.3-.16.672.672 0 0 1-.2-.66c.11-.47 10.54-47.88 14.97-77.71.03-.18.12-.33.25-.44.14-.1.31-.15.47-.12.17.03.32.13.42.27.09.14.13.33.11.5-4.45 29.88-14.89 77.33-14.99 77.81-.03.11-.07.21-.14.29-.07.08-.16.15-.25.19Zm-64.55-.78a.66.66 0 0 1-.34.03.672.672 0 0 1-.31-.17.699.699 0 0 1-.17-.7c.16-.52 15.63-53.02 18.86-71.17.04-.17.14-.31.27-.4.14-.1.3-.13.46-.1.16.03.3.13.39.27.1.14.14.31.12.48-3.25 18.23-18.74 70.8-18.9 71.33-.03.1-.08.19-.14.26-.07.07-.15.13-.24.17Zm62.91-99.95c-.5.05-.99.1-1.49.14-.14 0-.27-.05-.37-.15a.558.558 0 0 1-.17-.37c-.01-.15.03-.29.12-.4.09-.11.21-.18.35-.2 21.7-1.63 25.73-18.62 25.76-18.79.02-.14.1-.27.21-.36.12-.08.26-.12.39-.09.14.02.26.1.34.21.08.12.11.27.09.41-.02.18-4.03 17.25-25.23 19.6Z"/><path fill="#21111D" d="M1731.89 1471.96c-.13.05-.28.05-.42 0a.664.664 0 0 1-.33-.29l-4.14-7.71.05-.26 13.96-66.54c.09-.6 1.3-8.35 7.35-16.9 5.68-8.02 16.87-18.21 37.95-21.26.16-.02.33.03.45.14.13.11.21.27.23.44.03.18-.02.35-.11.49-.1.14-.24.24-.4.26-20.63 2.98-31.56 12.89-37.1 20.69-5.99 8.44-7.14 16.29-7.15 16.37l-.01.05-13.91 66.3 3.9 7.25a.9.9 0 0 1 .08.28c.01.09 0 .19-.03.28-.03.1-.08.18-.14.25-.07.07-.14.12-.23.16ZM1708.84 1472.95a.52.52 0 0 1-.47-.01.72.72 0 0 1-.33-.41.925.925 0 0 1 .01-.57c.07-.18.19-.32.34-.39l17.77-8.52c.32-.14.67.03.8.41.06.18.05.39-.01.57-.06.18-.19.32-.34.39l-17.76 8.53h-.01Z"/><path fill="#FD7583" d="M1703.28 1485s-6.12 15.97-1.64 48l22.36-13.28-6.64-23.92-14.08-10.8Z"/><path fill="#21111D" d="M1820.44 1485.93c-.07.03-.16.04-.24.04-.9-.03-89.66-2.85-118.71-.31-.71 2.02-3.99 12.45-3.07 31.53 0 .17-.06.34-.17.46-.11.12-.27.2-.43.21-.16 0-.32-.05-.44-.16a.678.678 0 0 1-.21-.44c-1.04-21.63 3.13-32.06 3.31-32.49l.15-.37.37-.03c28.7-2.6 118.34.24 119.24.27.14.01.28.07.39.17.11.1.18.24.21.39.02.15 0 .31-.08.44-.07.13-.18.23-.32.29Zm-4.49 58.22c-1.36.55-2.74 1.02-4.14 1.41-7.68 2.16-13.05 1.26-13.27 1.22a.605.605 0 0 1-.41-.27.655.655 0 0 1-.11-.49.7.7 0 0 1 .25-.43c.14-.11.31-.15.47-.12.05.01 5.37.89 12.81-1.21 6.86-1.94 16.98-6.89 26.23-19.46 11.62-15.77 15.86-64.34 15.97-101.14 0-.17.06-.34.18-.47.12-.12.28-.19.44-.19.17 0 .33.07.45.2.12.12.18.29.18.47-.1 37-4.42 85.91-16.23 101.95-7.77 10.55-16.16 15.87-22.82 18.53Z"/><path fill="#FE9F73" d="M1812.86 1303.61s-10.52-4.82-19.86-1.36c-5.41 2.01-9 7.55-9 13.72v6.03l28.79-13.26s4.55 2.32 4.19 1.62c-.37-.71-4.12-6.75-4.12-6.75Z"/><path fill="#FE9F73" d="M1784 1314.79v25.47s-.35 9.1 7.14 10.23l-1.4 12.14c-.52 4.52 2.03 8.84 6.11 10.21 2.29.77 4.68 1.16 7.08 1.16 8.57 0 13.21-6.82 13.92-10.24.72-3.41-1.42-19.71-1.42-19.71l.26-8.01-.98-31.04-30.71 9.79Z"/><path fill="#21111D" d="M1805.62 1327c.07 0 .15-.02.21-.06.06-.05.11-.11.14-.18.03-.07.04-.15.02-.22a.298.298 0 0 0-.1-.2c-.05-.06-5.28-5.55-10.05-1.6a.402.402 0 0 0-.06.55c.06.08.16.14.26.15.1.01.2-.02.27-.09 4.24-3.5 8.84 1.32 9.03 1.53a.38.38 0 0 0 .28.12Zm-15.67-2.34c.08 0 .16-.03.22-.07a.45.45 0 0 0 .14-.19.36.36 0 0 0 .01-.23.374.374 0 0 0-.12-.2c-.15-.14-3.78-3.32-6.07-1.3-.07.07-.12.16-.13.27-.01.1.03.2.09.28.07.08.16.13.26.13.1.01.2-.02.28-.09 1.79-1.58 5.04 1.27 5.08 1.3.06.06.15.1.24.1Z"/><path fill="#000" d="M1796.78 1327.98c0 .13.02.27.08.39.05.12.13.24.24.33.1.1.22.17.36.22.14.05.28.08.43.08a1.252 1.252 0 0 0 .8-.3c.1-.1.18-.21.23-.33a.88.88 0 0 0 .08-.39.938.938 0 0 0-.34-.68c-.2-.18-.48-.28-.77-.28-.29 0-.57.1-.77.28-.21.18-.33.42-.34.68Zm-11.78-.99c0 .13.03.26.08.38.06.12.14.23.24.32.11.09.23.17.36.22.14.05.28.07.43.07.14 0 .29-.02.42-.07.14-.05.26-.13.36-.22.11-.09.19-.2.24-.32.06-.12.09-.25.09-.38 0-.26-.12-.51-.33-.7a1.16 1.16 0 0 0-.78-.29c-.3 0-.58.1-.79.29-.2.19-.32.44-.32.7Z"/><path fill="#21111D" d="M1813 1302s9-.46 11.28 8.04c2.29 8.51-1.6 13-1.68 15.54-.08 2.53 1.51 19.63-9.6 18.35l-3-28.23 3.87-11.25-.87-2.45Z"/><path fill="#FE9F73" d="M1812 1333c3.31 0 6-2.69 6-6s-2.69-6-6-6-6 2.69-6 6 2.69 6 6 6Z"/><path fill="#F07162" d="M1812.36 1332.6c1.34 0 2.22-1.07 2.52-2.14.34-1.26-.05-2.49-1.01-3.13-1.42-.94-2.71-.33-3.37.13.28-.78.71-1.34 1.3-1.69 1.26-.74 2.82-.2 2.84-.19.04.01.09.01.13-.01.05-.02.08-.06.09-.11a.16.16 0 0 0-.01-.15c-.02-.04-.05-.08-.1-.09-.07-.03-1.72-.6-3.12.22-.81.47-1.36 1.31-1.64 2.49l-.15.67.45-.49c.06-.06 1.59-1.65 3.39-.45.99.66 1.08 1.86.85 2.69-.23.87-.94 1.87-2.16 1.87h-.04a.21.21 0 0 0-.13.05c-.03.04-.05.08-.05.14 0 .05.02.09.05.13.03.04.08.06.13.06h.03Zm-4.67 10.67s-.5 15.27-18.36 16.73l1.03-8.98s11.58 2.49 17.33-7.75Zm-14.79-6.78c.05 0 .09-.01.12-.04s.05-.07.06-.12a.2.2 0 0 0-.02-.13.254.254 0 0 0-.1-.08l-3.57-1.26 1.13-8.97a.18.18 0 0 0-.04-.14c-.02-.04-.07-.06-.11-.07h-.07c-.03.01-.05.02-.07.04-.01.01-.03.03-.04.05-.01.02-.02.05-.02.07l-1.17 9.28 3.85 1.36c.02.01.03.01.05.01Z"/><path fill="#FE9F73" d="m1814 1346.61-1.17-13.61-2.83.37V1347l4-.39Z"/><path fill="#21111D" d="M1810.86 1302.23s2 5.43-1.28 14.47c-3.28 9.04 8.42-3.37 8.42-3.37s-.81-13.24-7.14-11.1Z"/><path fill="#21111D" d="M1809.79 1317s-26.86-1.73-28.51-8.58c-1.66-6.85 4.66-7.03 4.66-7.03s-1.19-9.74 6.93-6.86c8.11 2.89 23.14 2.51 27.37 10.7 4.22 8.19-10.45 11.77-10.45 11.77Z"/><path fill="#21111D" d="m1810.81 1321.75-1.23 5.25-1.23-1.57s-2.44-7.53-.76-11.15 8.41 1.58 8.41 1.58l-5.19 5.89Z"/><path fill="#FBFDFC" d="M1788 1339.8c.11-.04 7-.8 7-.8s-.69 3.69-3.25 3.98c-2.56.29-3.75-3.18-3.75-3.18Z"/><path fill="#E23E3D" d="M1627.52 1761.84h-32.8l-13.29-15.84-24.32 15.84h-5.24c-1.8 0-3.46 1.33-3.8 3.27-.11.59-.09 1.2.04 1.79.13.59.39 1.13.74 1.6.35.47.79.85 1.29 1.11.5.26 1.04.39 1.59.39h76.26c.26 0 .52-.12.71-.32.19-.21.3-.49.3-.79v-5.43c0-.21-.04-.42-.11-.62-.08-.2-.19-.38-.32-.53-.14-.15-.3-.27-.48-.35-.18-.08-.38-.12-.57-.12Z"/><path fill="#223749" d="M1627 1763v-14.88s-5.49-8.22-13.86-4.02c0 0-12.65 9.97-23.8-2.1l-27.69 13.65s-7.59 2.82-9.65 7.35h75Z"/><path fill="#000" d="M1627.41 1747.48h.59V1763h-.59v-15.52Zm-26.58.17c-1.13 0-1.81-.1-1.83-.11l.09-.64c.07.01 7.04 1.08 13.67-3.9l.33.53a20.518 20.518 0 0 1-12.26 4.12Zm19.28 11.97 3.77-2.78.33.54-3.77 2.78-.33-.54Zm-2.58-.65 3.77-2.77.33.53-3.77 2.78-.33-.54ZM1549.32 1769c-.41-.32-.75-.72-.97-1.17-.23-.44-.35-.93-.35-1.43 0-.9.4-1.76 1.1-2.4.7-.64 1.65-1 2.64-1H1622c.53 0 1.04.19 1.41.54.38.34.59.8.59 1.29v3.15h-.52v-3.15c0-.36-.16-.71-.44-.96-.27-.25-.65-.4-1.04-.4h-70.26c-.86 0-1.67.31-2.28.86-.6.55-.94 1.3-.94 2.07 0 .87.41 1.68 1.14 2.24l-.34.36Z"/><path fill="#000" d="m1552.5 1763-.5-.26c.06-.14 1.59-3.54 7.29-6.18 5.6-2.59 30.24-14.44 30.48-14.56l.23.55c-.25.12-24.89 11.98-30.49 14.57-5.49 2.54-6.99 5.85-7.01 5.88Z"/><path fill="#FF424D" d="M1697.52 1761.84h-32.8l-13.29-15.84-24.32 15.84h-5.24c-1.8 0-3.46 1.33-3.8 3.27-.11.59-.09 1.2.04 1.79.13.59.39 1.13.74 1.6.35.47.79.85 1.29 1.11.5.26 1.04.39 1.59.39h76.26c.26 0 .52-.12.71-.32.19-.21.3-.49.3-.79v-5.43c0-.21-.04-.42-.11-.62-.08-.2-.19-.38-.32-.53-.14-.15-.3-.27-.48-.35-.18-.08-.38-.12-.57-.12Z"/><path fill="#223749" d="M1697 1763v-14.88s-5.49-8.22-13.86-4.02c0 0-12.65 9.97-23.8-2.1l-27.69 13.65s-7.59 2.82-9.65 7.35h75Z"/><path fill="#000" d="M1697.41 1747.48h.59V1763h-.59v-15.52Zm-26.58.17c-1.13 0-1.81-.1-1.83-.11l.09-.64c.07.01 7.04 1.08 13.67-3.9l.33.53a20.518 20.518 0 0 1-12.26 4.12Zm19.4 12.09 3.77-2.77.33.53-3.77 2.78-.33-.54Zm-2.7-.76 3.78-2.78.33.53-3.78 2.78-.33-.53ZM1619.32 1769c-.41-.32-.75-.72-.97-1.17-.23-.44-.35-.93-.35-1.43 0-.9.4-1.76 1.1-2.4.7-.64 1.65-1 2.64-1H1692c.53 0 1.04.19 1.41.54.38.34.59.8.59 1.29v3.15h-.52v-3.15c0-.36-.16-.71-.44-.96-.27-.25-.65-.4-1.04-.4h-70.26c-.86 0-1.67.31-2.28.86-.6.55-.94 1.3-.94 2.07 0 .87.41 1.68 1.14 2.24l-.34.36Z"/><path fill="#000" d="m1622.5 1763-.5-.26c.06-.14 1.59-3.54 7.29-6.18 5.6-2.59 30.23-14.44 30.48-14.56l.23.55c-.25.12-24.89 11.98-30.49 14.57-5.49 2.54-6.99 5.85-7.01 5.88Z"/><g opacity=".8"><path fill="#FEC786" d="M1730.07 1020.26c114.89 0 208.03-99.736 208.03-222.771 0-123.035-93.14-222.774-208.03-222.774s-208.03 99.739-208.03 222.774 93.14 222.771 208.03 222.771Z"/><path fill="#fff" d="M1863 939.859c73.42-78.628 73.42-206.107 0-284.733-73.42-78.625-192.47-78.623-265.89.005-73.42 78.628-73.41 206.108.01 284.733 73.42 78.626 192.46 78.626 265.88-.005Z"/><path fill="#FEC786" d="M1872.08 740.87c-132.62 18.272-142.15 57.587-142.15 57.587 44.27 21.386 142.15-57.587 142.15-57.587Zm-196.32-35.1s61.03 67.103 50.88 102.598c0 0-26.85-3.687-50.88-102.598Z"/><path fill="#EFA04B" d="M1734.75 808.468c5.16-2.851 7.19-9.644 4.53-15.173-2.67-5.528-9.01-7.7-14.17-4.849s-7.19 9.645-4.53 15.173c2.66 5.53 9.01 7.7 14.17 4.849ZM1758.95 643.551l8.64-43.381 3.34.763-8.64 43.381-3.34-.763ZM1689.15 993.971l8.64-43.381 3.34.763-8.64 43.381-3.34-.763ZM1873.04 831.988l.71-3.58 40.51 9.252-.71 3.581-40.51-9.253ZM1545.97 757.279l.71-3.58 40.51 9.257-.71 3.58-40.51-9.257ZM1869.6 698.527l17.38-12.064 1.86 3.072-17.38 12.064-1.86-3.072ZM1571.46 905.518l17.38-12.065 1.86 3.072-17.38 12.064-1.86-3.071ZM1754.03 974.76l3.38-.561 3.17 21.916-3.38.561-3.17-21.916ZM1699.64 598.76l3.37-.561 3.18 21.916-3.38.561-3.17-21.916ZM1617.69 958.891l12.23-17.898 2.75 2.161-12.23 17.898-2.75-2.161ZM1827.57 651.846l12.23-17.897 2.76 2.162-12.23 17.897-2.76-2.162ZM1544.06 826.418l20.47-3.397.52 3.617-20.47 3.398-.52-3.618ZM1895.18 768.172l20.46-3.397.53 3.617-20.47 3.398-.52-3.618ZM1577.41 680.072l2.02-2.954 16.71 13.098-2.02 2.954-16.71-13.098ZM1864.09 904.779l2.02-2.954 16.71 13.096-2.02 2.955-16.71-13.097ZM1629.01 627.641l2.9-1.94 10.97 18.808-2.9 1.94-10.97-18.808ZM1817.34 950.508l2.89-1.94 10.98 18.808-2.9 1.94-10.97-18.808Z"/></g><path fill="#fff" d="M171.258 1138h153.687c2.816-3.73 2.797-9.77-1.699-13.07-7.074-5.17-17.279-2.86-17.279-2.86s11.184-50.14-20.439-56.18c-31.622-6.03-42.033 28.44-42.033 28.44.494-22.89-51.006-65.97-80.633-20.86-7.694 11.71-10.668 22.05-10.853 30.94-.309 14.81 7.711 27.56 19.249 33.59ZM1458.79 769.59h-121.41c-2.22-2.945-2.21-7.722 1.35-10.321 5.58-4.089 13.64-2.263 13.64-2.263s-8.83-39.609 16.15-44.377c24.98-4.768 33.2 22.467 33.2 22.467-.39-18.087 40.3-52.115 63.7-16.484 6.08 9.254 8.43 17.421 8.57 24.44.25 11.705-6.09 21.776-15.2 26.538ZM619.271 900.255c.169-2.448-.54-5.006-2.406-7.137-3.394-3.877-9.185-7.036-18.925-7.767 0 0 3.355-64.731-42.257-69.019-52.313-4.918-52.946 58.678-52.946 58.678s-23.777-24.197-40.926 6.48c0 0-29.636-18.362-44.585 15.552a5.664 5.664 0 0 0-.406 3.213h202.451Zm524.009 57.057c.4-.873.91-1.676 1.54-2.383 3.32-3.802 9-6.898 18.55-7.615 0 0-3.29-63.459 41.43-67.663 51.28-4.821 51.9 57.525 51.9 57.525s23.31-23.722 40.12 6.353c0 0 28.19-17.463 43.04 13.783h-196.58Zm137.33 646.608s-32.4 87.38-5.23 153.48l-622.847 5.6-57.478-5.6-50.659-33.65v-51.49l14.083-42.57 45.982-25.77h676.149Z"/><path fill="#4CB7D8" d="M958.24 1599.97s-67.731 59.12-18.61 162.8l-348.111-5.48-39.549-35.19-7.136-70.48 27.715-35.52 39.957-17.08 345.734.95Z" opacity=".3"/><path fill="#FD7583" d="M623.374 1770h671.706c4.37 0 7.92-3.82 7.92-8.53 0-4.71-3.55-8.52-7.92-8.52H623.374c-40.546 0-73.531-32.95-73.531-73.45s32.985-73.45 73.531-73.45h671.706c4.37 0 7.92-3.81 7.92-8.52 0-4.71-3.55-8.53-7.92-8.53H623.374c-49.28 0-89.374 40.6-89.374 90.5s40.094 90.5 89.374 90.5Z"/><path fill="#AAC9F8" d="M1275.23 1681.72H943.626c-.233 0-.464-.05-.679-.15a1.75 1.75 0 0 1-.574-.4 1.877 1.877 0 0 1-.518-1.31c0-1.03.791-1.86 1.771-1.86h331.604c.47 0 .92.2 1.25.54.33.35.52.83.52 1.32 0 .49-.19.96-.52 1.31-.33.35-.78.55-1.25.55Zm-378.301 0H574.771c-.233 0-.463-.05-.678-.15-.215-.09-.41-.23-.575-.4a1.894 1.894 0 0 1-.518-1.31c0-1.03.792-1.86 1.771-1.86h322.158c.47 0 .92.2 1.252.54a1.93 1.93 0 0 1 0 2.63c-.332.35-.782.55-1.252.55ZM748.721 1715H583.428c-.979 0-1.771-.83-1.771-1.86 0-1.02.792-1.86 1.771-1.86h165.293c.47 0 .92.2 1.253.55a1.928 1.928 0 0 1 0 2.63c-.333.34-.783.54-1.253.54Zm526.509 0H772.971c-.979 0-1.771-.83-1.771-1.86 0-1.02.792-1.86 1.771-1.86h502.259c.98 0 1.77.84 1.77 1.86 0 1.03-.79 1.86-1.77 1.86Z"/><path fill="#3F9896" d="M891.328 1646s21.028 56.44 8.908 98l-17.084-28.45s-11.663 15.08-18.816 28.45c0 0-13.046-92.81-38.336-98h65.328Z"/><path fill="#AAC9F8" d="M1225.35 1648H582.645c-.909 0-1.645-1.12-1.645-2.5s.736-2.5 1.645-2.5h642.705c.91 0 1.65 1.12 1.65 2.5s-.74 2.5-1.65 2.5Z"/><path fill="#fff" d="M678 1433s30.099 81.3 4.855 142.79l578.675 5.21 53.4-5.21 47.07-31.31v-47.9l-13.08-39.61-42.72-23.97H678Z"/><path fill="#4CB7D8" d="m1003.1 1573.46 278.29 5.93 33.19-3.23 46.98-31.18v-47.71l-13.06-39.44-42.65-23.87H998.412l4.688 3.73s28.87 72.71 0 135.77Z" opacity=".3"/><path fill="#3AA1C9" d="M1291.44 1589H663.406c-1.964 0-3.848-.83-5.237-2.3-1.389-1.48-2.169-3.48-2.169-5.57 0-2.08.78-4.08 2.169-5.56 1.389-1.48 3.273-2.3 5.237-2.3h628.034c37.91 0 68.75-30.4 68.75-67.77s-30.84-67.77-68.75-67.77H663.406c-1.964 0-3.848-.82-5.237-2.3-1.389-1.47-2.169-3.48-2.169-5.56 0-2.09.78-4.09 2.169-5.57 1.389-1.47 3.273-2.3 5.237-2.3h628.034c46.07 0 83.56 37.46 83.56 83.5s-37.49 83.5-83.56 83.5Z"/><path fill="#AAC9F8" d="M993.229 1508.41h-307.46c-.232 0-.462-.05-.677-.14-.215-.1-.41-.24-.574-.42a1.817 1.817 0 0 1-.384-.61 2.032 2.032 0 0 1-.134-.73c0-1.05.791-1.9 1.769-1.9h307.46c.46.01.897.22 1.217.58.321.35.5.83.5 1.32 0 .49-.18.97-.5 1.32-.321.36-.757.57-1.217.58Zm342.001 0h-298.7c-.23 0-.46-.05-.68-.14-.21-.1-.41-.24-.57-.42-.17-.17-.3-.38-.39-.61-.09-.23-.13-.48-.13-.73 0-1.05.79-1.9 1.77-1.9h298.7c.47 0 .92.2 1.25.56.33.35.52.84.52 1.34 0 .5-.19.99-.52 1.34-.33.36-.78.56-1.25.56Zm-8.03 31.59h-153.26c-.23 0-.46-.05-.67-.14-.22-.1-.41-.24-.58-.42-.16-.17-.29-.38-.38-.61-.09-.23-.14-.48-.13-.73 0-1.05.79-1.9 1.76-1.9h153.26c.47 0 .92.2 1.25.56.34.35.52.84.52 1.34 0 .5-.18.99-.52 1.34-.33.36-.78.56-1.25.56Zm.04-63.2H700.092c-.956 0-1.73-.85-1.73-1.9 0-1.05.773-1.9 1.73-1.9h627.148c.96 0 1.73.85 1.73 1.9 0 1.05-.77 1.9-1.73 1.9Z"/><path fill="#21111D" d="M1290.85 1591H664.159c-5.05 0-9.159-4.41-9.159-9.82 0-5.42 4.109-9.82 9.159-9.82.978 0 1.77.84 1.77 1.89 0 .25-.046.5-.134.73-.089.23-.22.44-.384.61-.164.18-.36.32-.574.42-.215.09-.445.14-.678.14-3.099 0-5.62 2.7-5.62 6.03 0 3.32 2.522 6.03 5.62 6.03h626.691c45 0 81.61-36.88 81.61-82.21 0-45.33-36.61-82.2-81.61-82.2H664.159c-1.49 0-2.918.63-3.972 1.76-1.053 1.13-1.646 2.66-1.648 4.26 0 3.33 2.522 6.03 5.62 6.03.978 0 1.77.85 1.77 1.9a1.985 1.985 0 0 1-.518 1.34c-.164.17-.36.31-.574.41-.215.09-.445.14-.678.14-5.05 0-9.159-4.4-9.159-9.82 0-5.41 4.109-9.82 9.159-9.82h626.691c46.95 0 85.15 38.58 85.15 86s-38.2 86-85.15 86Z"/><path fill="#AAC9F8" d="M1119.35 1539H685.648c-.217 0-.431-.04-.631-.11-.2-.08-.382-.19-.535-.33a1.44 1.44 0 0 1-.357-.49 1.346 1.346 0 0 1-.125-.57c0-.83.737-1.5 1.648-1.5h433.702c.91 0 1.65.67 1.65 1.5 0 .2-.04.39-.13.57-.08.19-.2.35-.35.49-.16.14-.34.25-.54.33-.2.07-.41.11-.63.11Z"/><path fill="#258D8C" d="M656.873 1429.81c0 2.09.775 4.1 2.156 5.57 1.38 1.48 3.252 2.31 5.204 2.31h325.93c.966 0 1.924-.2 2.817-.6a7.15 7.15 0 0 0 2.387-1.71 7.95 7.95 0 0 0 1.596-2.55c.369-.96.56-1.98.56-3.02 0-2.09-.776-4.09-2.156-5.57-1.38-1.48-3.252-2.31-5.204-2.31h-325.93c-1.952 0-3.824.83-5.204 2.31-1.381 1.48-2.156 3.48-2.156 5.57Z" opacity=".5"/><path fill="#258D8C" d="M1012 1581.5c0-.98-.2-1.96-.59-2.87-.38-.91-.95-1.74-1.66-2.43a7.772 7.772 0 0 0-5.44-2.2H663.691c-2.04 0-3.996.79-5.438 2.2a7.384 7.384 0 0 0-2.253 5.3c0 1.99.81 3.9 2.253 5.3a7.778 7.778 0 0 0 5.438 2.2h340.619a7.772 7.772 0 0 0 5.44-2.2c.71-.69 1.28-1.52 1.66-2.43.39-.91.59-1.88.59-2.87Z"/><path fill="#fff" d="M1229 1295s-24.51 65.91-3.95 115.77L753.814 1415l-43.486-4.23L672 1385.39v-38.84l10.655-32.11 34.789-19.44H1229Z"/><path fill="#FC4963" d="M731.059 1422h504.001c1.57 0 3.08-.68 4.2-1.88 1.11-1.2 1.74-2.83 1.74-4.53 0-1.7-.63-3.33-1.74-4.53-1.12-1.2-2.63-1.87-4.2-1.87H731.059c-30.422 0-55.172-24.76-55.172-55.19 0-30.43 24.75-55.19 55.172-55.19h504.001c1.57 0 3.08-.67 4.2-1.87 1.11-1.2 1.74-2.83 1.74-4.53 0-1.7-.63-3.33-1.74-4.53-1.12-1.2-2.63-1.88-4.2-1.88H731.059c-36.976 0-67.059 30.51-67.059 68 0 37.49 30.083 68 67.059 68Z"/><path fill="#AAC9F8" d="M968.168 1355.54h247.412c.37 0 .74-.16 1-.45.27-.29.42-.68.42-1.08 0-.41-.15-.8-.42-1.08-.26-.29-.63-.45-1-.45H968.168c-.377 0-.739.16-1.006.45-.267.28-.417.67-.417 1.08 0 .4.15.79.417 1.08.267.29.629.45 1.006.45Zm-252.685 0h217.976c.714 0 1.291-.69 1.291-1.53 0-.85-.577-1.53-1.291-1.53H715.483c-.714 0-1.291.68-1.291 1.53 0 .84.577 1.53 1.291 1.53Zm-16.06 25.46h123.326c.377 0 .739-.16 1.006-.45.267-.29.417-.67.417-1.08 0-.41-.15-.8-.417-1.08a1.365 1.365 0 0 0-1.006-.45H699.423c-.377 0-.739.16-1.006.45-.267.28-.417.67-.417 1.08 0 .41.15.79.417 1.08.267.29.629.45 1.006.45Zm0-50.94h516.157c.37 0 .74-.16 1-.45.27-.28.42-.67.42-1.08 0-.41-.15-.79-.42-1.08-.26-.29-.63-.45-1-.45H699.423c-.377 0-.739.16-1.006.45-.267.29-.417.67-.417 1.08 0 .41.15.8.417 1.08.267.29.629.45 1.006.45ZM840.841 1381h374.739c.37 0 .74-.16 1-.45.27-.29.42-.67.42-1.08 0-.41-.15-.8-.42-1.08-.26-.29-.63-.45-1-.45H840.841c-.377 0-.739.16-1.006.45-.267.28-.417.67-.417 1.08 0 .41.15.79.417 1.08.267.29.629.45 1.006.45Z"/><path fill="#F99247" d="M1241.53 1292.69c0 1.69-.63 3.31-1.75 4.51-1.12 1.2-2.63 1.87-4.21 1.87H971.653c-1.581 0-3.097-.67-4.214-1.87-1.118-1.2-1.746-2.82-1.746-4.51s.628-3.32 1.746-4.51c1.117-1.2 2.633-1.87 4.214-1.87h263.917c1.58 0 3.09.67 4.21 1.87 1.12 1.19 1.75 2.82 1.75 4.51Z" opacity=".5"/><path fill="#F99247" d="M966 1415.5c0-1.72.619-3.38 1.721-4.6 1.102-1.22 2.597-1.9 4.156-1.9h260.243c1.56 0 3.06.68 4.16 1.9 1.1 1.22 1.72 2.88 1.72 4.6 0 1.72-.62 3.38-1.72 4.6-1.1 1.22-2.6 1.9-4.16 1.9H971.877c-1.559 0-3.054-.68-4.156-1.9-1.102-1.22-1.721-2.88-1.721-4.6Z"/><path fill="#FFB357" d="M803.793 1330s-17.667 28.97-7.795 63l13.914-23.29s9.499 12.35 15.325 23.29c0 0 11.166-58.75 31.763-63h-53.207Z"/><path fill="#21111D" d="M728.619 1424h505.001c4.07 0 7.38-3.56 7.38-7.94 0-4.37-3.31-7.94-7.38-7.94-.38 0-.74.17-1.01.45-.27.29-.42.68-.42 1.09 0 .4.15.79.42 1.08.27.29.63.45 1.01.45 2.5 0 4.53 2.19 4.53 4.87 0 2.69-2.03 4.87-4.53 4.87H728.619c-36.264 0-65.768-29.8-65.768-66.43 0-36.63 29.504-66.43 65.768-66.43h505.001c1.2 0 2.35.51 3.2 1.43.85.91 1.33 2.15 1.33 3.44s-.48 2.53-1.33 3.44c-.85.91-2 1.43-3.2 1.43-.38 0-.74.16-1.01.45-.27.28-.42.67-.42 1.08 0 .41.15.8.42 1.09.27.28.63.44 1.01.44 4.07 0 7.38-3.56 7.38-7.93 0-4.38-3.31-7.94-7.38-7.94H728.619c-37.836 0-68.619 31.18-68.619 69.5-.001 38.32 30.783 69.5 68.619 69.5Z"/><path fill="#F49D75" d="M766.789 715.759c30.265-2.574 62.33-40.784 95.949-53.38C896.357 649.791 891.792 594 891.792 594s-61.928 19.889-72.917 29.796c-6.905 6.228-36.988 31.99-58.632 51.094-9.475 8.359-17.331 15.435-20.915 19.045a34.021 34.021 0 0 0-1.511 1.596c-.34.402-.537.677-.581.83-.905 3.209-.705 21.97 29.553 19.398Z"/><path fill="#F07162" d="M739.236 693.894c-.443.454-.874.922-1.293 1.403a60.13 60.13 0 0 0 5.253 5.479c1.989 1.82 5.054 1.573 7.147-.493.106-.102.204-.201.3-.309l10.785-12.098s1.382-2.525-.151-8.091c-.474-1.727-1.204-3.362-1.987-4.785-9.084 8.293-16.617 15.313-20.054 18.894ZM736 692.887l.002.008c.023-.064.047-.128.077-.194-.032.059-.055.122-.079.186Z"/><path fill="#FDC9BC" d="M737.98 695.288a8.761 8.761 0 0 1-.15.176 49.003 49.003 0 0 0 4.932 5.313c1.692 1.574 5.142 1.748 6.847-.182l.391-.442c-.007.001-.019.013-.026.015-1.608.982-4.345.451-5.686-.796a50.34 50.34 0 0 1-5.057-5.458c-.428.445-.845.903-1.251 1.374Zm-.98-4.165c.027-.047.047-.085.077-.117l-.008-.006c-.022.038-.05.078-.069.123Z"/><path fill="#000" d="m755.473 716 .329-2.222c-8.034-1.357-13.425-4.292-16.022-8.724-2.223-3.792-1.659-7.623-1.434-8.705 5.012-4.458 78.454-69.748 87.566-76.229 9.308-6.618 64.532-24.788 65.088-24.97l-.617-2.15c-2.286.75-56.075 18.449-65.635 25.248-9.481 6.743-84.807 73.756-88.01 76.606l-.239.213-.092.317c-.065.221-1.541 5.48 1.566 10.822 2.926 5.033 8.814 8.328 17.5 9.794Z"/><path fill="#F49D75" d="M771.904 792.976c37.654-11.28 69.285-68.056 108.848-92.893C920.318 675.254 901.554 606 901.554 606s-73.652 41.552-85.229 56.992c-6.989 9.322-36.838 47.109-59.497 76.552-11.036 14.351-20.373 26.72-24.515 32.843a57.79 57.79 0 0 0-1.471 2.267c-.087.139-.161.266-.234.393-.37.628-.565 1.061-.587 1.276-.387 4.3 4.231 27.942 41.883 16.653Z"/><path fill="#F07162" d="M732.916 771.702a59.545 59.545 0 0 0-1.503 2.327 83.738 83.738 0 0 0 3.379 3.183c2.985 2.665 7.603 2.293 10.75-.733l.007-.001c.145-.14.281-.286.417-.432l16.173-17.606s2.076-3.681-.219-11.784c-.91-3.225-2.456-6.221-3.975-8.656-11.268 14.725-20.801 27.419-25.029 33.702ZM724 765.737l.002.008c.052-.159.122-.314.186-.458-.063.144-.126.297-.188.45Z"/><path fill="#FDC9BC" d="M730.675 773.92c-.084.139-.155.267-.226.394a74.014 74.014 0 0 0 2.97 2.91c2.476 2.285 7.537 2.54 10.024-.267l.557-.641c-2.343 1.461-6.369.682-8.347-1.138a71.902 71.902 0 0 1-3.562-3.533c-.488.746-.96 1.504-1.416 2.275ZM725 763.169c.035-.052.067-.11.102-.161L725.1 763c-.035.051-.068.11-.1.169Z"/><path fill="#000" d="m763.187 795.028-.42-2.236c-14.667 3.141-22.792-2.102-27.024-7.053-3.975-4.65-4.86-9.481-4.544-10.621.635-1.631 12.472-18.254 84.481-110.827l2.995-3.853c6.994-9.008 52.863-37.177 53.325-37.461L870.938 621c-1.903 1.166-46.669 28.66-53.907 37.984l-2.994 3.851c-83.796 107.728-84.615 110.668-84.884 111.633-.702 2.519 1.015 8.132 5.012 12.807 3.77 4.41 12.552 11.279 29.022 7.753Z"/><path fill="#F49D75" d="M862.755 897.819s.09.162.299.435c1.844 2.479 12.75 13.904 42.236-11.182 32.685-27.801 14.837-139.786 22.375-153.913 7.54-14.12 22.468-87.952 86.095-75.514 0 0 37.16 16.681 40.61 42.69 0 0-34.05 66.439-40.62 74.618-5.77 7.189-42.389 50.483-24.66 87.351 3.027 6.288 9.48 9.142 15.42 7.808.21-.043.4-.092.6-.15 1.18-.315 2.31-.802 3.37-1.447.89-.518 1.71-1.139 2.46-1.852 9.58-9.013 23.64-22.495 35.4-34.844 7.92-8.328 14.8-16.146 18.54-21.718 5.04-7.508 15.94-23.278 27.48-39.897 21.52-31.033 46.62-59.009 74.48-83.592 26.92-23.761 62.86-61.913 84.55-110.997 32.59-73.794 45.61-158.974 45.61-158.974L1118.02 347l-28.77 96.27S893.172 587.098 878.979 602.095c-14.203 14.992-16.041 120.538-18.322 130.895-1.444 6.564-.214 71.085.881 117.417.486 20.776.954 37.892 1.135 44.49.045 1.587.074 2.567.079 2.841.005.056.003.081.003.081Z"/><path fill="#F49D75" d="M752.017 883.252c1.022 4.643 13.707 27.584 49.139 1.463 35.424-26.118 49.451-97.48 82.363-138.488C916.43 705.219 873.845 640 873.845 640s-62.817 71.447-69.735 91.993c-4.148 12.319-22.432 62.619-36.179 101.903-6.164 17.604-11.413 32.996-14.072 41.758-.282.94-.557 1.883-.826 2.828-.048.137-.081.272-.114.406-.675 2.411-.999 3.928-.902 4.364Z"/><path fill="#000" d="m1053.94 703 2.06-.569c-.09-.355-9.38-35.642-46.58-43.431l-.42 2.186c35.86 7.509 44.86 41.472 44.94 41.814Z"/><path fill="#F07162" d="M999.728 865.511a129.557 129.557 0 0 0 4.702 6.489 13.58 13.58 0 0 0 3.49-1.431c.91-.512 1.76-1.126 2.54-1.831 9.89-8.914 24.41-22.247 36.54-34.458-1.72-1.098-3.57-2.099-5.51-2.902-9.94-4.113-14.82-1.642-14.82-1.642l-24.14 20.41c-.2.174-.4.351-.59.533l-.01.01c-4.189 4.018-5.201 10.385-2.202 14.822Z"/><path fill="#FDC9BC" d="M999.842 866.83a112.34 112.34 0 0 0 4.738 6.17c.23-.043.44-.093.66-.152 1.32-.319 2.58-.813 3.76-1.467a105.762 105.762 0 0 1-6.01-7.668c-2.26-3.195-2.78-9.359-.45-12.713l-.96.764c-4.236 3.418-4.578 11.062-1.738 15.066Z"/><path fill="#F07162" d="M863.22 899.759c.59.076 1.196.15 1.797.207 3.936.394 7.624-2.696 8.651-7.084l.006-.009c.049-.203.09-.403.124-.602L878 867.977s-.209-4.296-6.471-9.6c-3.007-2.552-6.612-4.275-9.529-5.377.488 20.526.959 37.435 1.141 43.954.044 1.566.073 2.534.079 2.805Z"/><path fill="#FDC9BC" d="M863.078 900.449s.086.148.285.398c.383.045.767.09 1.148.128 3.282.322 7.696-2.471 8.344-6.143L873 894c-1.232 2.527-5.044 4.309-7.662 4.048a53.972 53.972 0 0 1-2.338-.276c.043 1.452.07 2.349.075 2.601.005.053.003.076.003.076Z"/><path fill="#F07162" d="M754.238 874.183c-.268.882-.531 1.767-.787 2.653a79.185 79.185 0 0 0 7.746 3.679c3.501 1.428 7.641-.398 9.656-4.143.007-.002.005-.01.012-.012.088-.172.177-.343.257-.521l9.811-21.127s.86-3.994-3.576-10.567c-2.873-4.262-7.095-7.44-9.703-9.145-5.876 16.518-10.881 30.961-13.416 39.183ZM748 873.64c.008.006.008.006.016.005.004-.183.022-.369.04-.554a6.3 6.3 0 0 0-.056.549Z"/><path fill="#FDC9BC" d="M753 878.275a68.762 68.762 0 0 0 8.118 5.099c3.336 1.784 8.753-.335 10.491-5.192l.391-1.114c-.007.002-.006.012-.013.015-2.014 3.027-6.508 3.97-9.164 2.555a70.87 70.87 0 0 1-8.851-5.638c-.291 1.244-.576 2.49-.854 3.739-.049.18-.083.358-.118.536Z"/><path fill="#000" d="M1005.33 873.226c2.57-.65 4.99-1.977 7.06-3.924 15.84-14.921 43.78-41.998 52.98-55.687 4.37-6.511 13.61-19.929 27.46-39.88 21.17-30.499 46.18-58.553 74.33-83.385 26.64-23.496 62.98-61.892 84.84-111.377l-1.92-.973c-21.7 49.105-57.8 87.246-84.27 110.595-28.28 24.948-53.41 53.137-74.68 83.783-13.86 19.962-23.11 33.389-27.49 39.91-9.07 13.506-36.89 40.447-52.66 55.306-3.42 3.227-7.95 4.493-12.43 3.474-4.365-.995-7.921-4.03-9.76-8.328-9.682-22.639-1.123-51.481 24.75-83.407l.63-.781c6.57-8.172 39.37-72.09 40.76-74.807 7.58-14.656 4.97-36.861 4.85-37.8l-2.1.296c.02.222 2.62 22.408-4.61 36.405-.35.667-34.09 66.43-40.51 74.423l-.63.774c-3.75 4.628-13.707 16.919-20.976 32.681-9.239 20.032-10.617 37.919-4.096 53.164 2.121 4.959 6.221 8.46 11.25 9.607 2.442.555 4.892.519 7.222-.069Zm-226.363 23.756c4.442-1.121 9.339-3.172 14.672-6.146l-.983-2.019c-12.745 7.109-22.731 8.746-29.682 4.863-6.879-3.842-8.534-12.057-8.792-13.629 2.487-7.142 49.933-143.345 54.105-153.541 4.209-10.285 59.344-76.984 59.9-77.656l-1.592-1.509c-2.281 2.757-55.914 67.643-60.257 78.252-4.287 10.476-52.208 148.088-54.247 153.939l-.091.264.034.279c.052.441 1.396 10.836 9.956 15.618 4.576 2.558 10.258 2.983 16.977 1.285Z"/><path fill="#000" d="M1216.71 618.828c10.35-12.65 9.29-31.051 9.24-31.828l-1.78.143c.01.182 1.05 18.336-8.77 30.343l1.31 1.342ZM1199.98 628c12.8-9.453 15.78-27.589 15.9-28.356l-1.76-.345c-.02.18-2.97 18.069-15.12 27.042l.98 1.659Z"/><path fill="#F49D75" d="m1319 290.518-21.79 132.391L1074 462l45.39-244A772.964 772.964 0 0 1 1319 290.518Z"/><path fill="#0D171E" d="m1082.58 404.18 32.37-173.053 2.69.577-32.37 173.053-2.69-.577ZM1277.46 510c14.89-35.793 34.7-180.433 35.54-186.573l-2.67-.427c-.21 1.499-20.6 150.377-35.33 185.799l2.46 1.201Z"/><path fill="#F49D75" d="m865 901.915 4.473-1.483 13.821-21.009 9.013-44.299s20.77-36.075 21.234-36.192C914.005 798.814 926 797 926 797l-1.863 41.962-3.738 22.305-5.53 16.019-13.118 14.878-10.865 7.323-8.276 4.268-8.369 1.245-9.241-3.085Z"/><path fill="#F97923" d="M982.5 946c52.74 0 95.5-45.667 95.5-102s-42.76-102-95.5-102c-52.743 0-95.5 45.667-95.5 102s42.757 102 95.5 102Z"/><path fill="#FFC931" d="M1041.01 907.062c32.29-34.581 32.29-90.646 0-125.226-32.3-34.58-84.649-34.579-116.94.002-32.29 34.58-32.289 90.646.003 125.225 32.292 34.58 84.647 34.579 116.937-.001Z"/><path fill="#F97923" d="M1011.94 848.999c-3.35-4.331-9.66-8.56-18.924-12.689-1.939-.861-4.614-1.994-8.016-3.4-11.078-4.577-16.621-9.451-16.638-14.619-.01-3.337 1.11-5.981 3.361-7.933 2.255-1.952 5.34-2.936 9.258-2.95 4.043-.014 7.448 1.014 10.207 3.083 2.763 2.074 5.161 5.39 7.2 9.955l16.382-6.439c-2.57-7.351-6.58-12.892-12.03-16.623-3.58-2.445-7.747-4.077-12.494-4.906L990.202 779l-15.983.058.044 13.522c-5.745 1.11-10.629 3.458-14.646 7.052-5.775 5.167-8.646 11.864-8.62 20.094.016 4.848.996 9.188 2.949 13.022 1.945 3.834 4.756 6.979 8.42 9.435 3.712 2.548 10.285 5.634 19.723 9.257 1.378.499 2.435.907 3.17 1.223 5.385 2.086 9.114 4.185 11.188 6.306 2.073 2.116 3.114 4.755 3.124 7.91.013 3.977-1.376 7.138-4.165 9.48-2.792 2.343-6.6 3.523-11.418 3.54-4.261.015-7.958-1.216-11.083-3.698-3.129-2.481-5.972-6.437-8.527-11.87L948 872.141c3.169 8.037 7.826 14.101 13.974 18.195 3.716 2.475 7.924 4.189 12.619 5.156L974.64 910l15.983-.058-.045-13.907c7.279-.926 13.212-3.517 17.782-7.788 5.79-5.417 8.67-12.835 8.64-22.256-.02-6.995-1.71-12.659-5.06-16.992Z"/><path fill="#F97923" d="M1041.83 782.715c-26.68 69.134-96.123 92.842-133.525 100.737 13.512 29.44 41.836 49.659 74.529 49.54 45.666-.167 82.556-39.946 82.406-88.849-.08-23.899-8.99-45.551-23.41-61.428Z" opacity=".2"/><path fill="#21111D" d="M934.832 934.108c14.605 9.124 31.269 13.956 48.621 13.891a.505.505 0 0 0 .21-.045.546.546 0 0 0 .178-.128.62.62 0 0 0-.002-.832.543.543 0 0 0-.179-.127.511.511 0 0 0-.211-.043c-25.381.091-49.278-10.412-67.289-29.579-18.009-19.166-27.974-44.7-28.062-71.899-.179-56.145 42.305-101.978 94.703-102.17a.526.526 0 0 0 .388-.174.588.588 0 0 0 .118-.191.64.64 0 0 0-.001-.45.595.595 0 0 0-.12-.19.539.539 0 0 0-.389-.171c-53.004.193-95.979 46.557-95.796 103.351.087 27.512 10.167 53.342 28.385 72.73 5.906 6.283 12.441 11.65 19.446 16.027Z"/><path fill="#21111D" d="M982.144 933.92a.52.52 0 0 0 .281.08c46.245-.168 83.735-40.454 83.575-89.804-.16-49.352-37.91-89.366-84.147-89.195a.516.516 0 0 0-.39.174.617.617 0 0 0 .003.834.527.527 0 0 0 .18.127c.067.03.139.045.211.045 22.103-.08 42.913 9.03 58.603 25.656 15.68 16.625 24.36 38.771 24.43 62.362.16 48.699-36.84 88.454-82.468 88.62a.536.536 0 0 0-.391.174.624.624 0 0 0-.16.418.612.612 0 0 0 .072.294.57.57 0 0 0 .201.215Zm-57.87-141.027a.528.528 0 0 0 .65-.071.602.602 0 0 0 .136-.2c.069-.168 7.127-16.85 22.317-22.767a.577.577 0 0 0 .312-.306.61.61 0 0 0 .018-.451.6.6 0 0 0-.112-.197.545.545 0 0 0-.384-.191.533.533 0 0 0-.213.035c-15.642 6.093-22.879 23.227-22.951 23.399a.625.625 0 0 0-.02.42.583.583 0 0 0 .247.329Zm7.622 6.507a.514.514 0 0 0 .449.052.575.575 0 0 0 .336-.323c.07-.167 7.127-16.849 22.317-22.766a.553.553 0 0 0 .312-.305.62.62 0 0 0-.094-.649.559.559 0 0 0-.174-.136.515.515 0 0 0-.423-.019c-15.641 6.092-22.878 23.226-22.95 23.398a.63.63 0 0 0-.021.42c.042.138.13.255.248.328Zm27.027.274a.525.525 0 0 0 .635-.059c3.942-3.543 8.812-5.897 14.474-6.996l.457-.088-.047-14.158a.618.618 0 0 0-.163-.417.533.533 0 0 0-.604-.126.564.564 0 0 0-.298.321.641.641 0 0 0-.041.226l.042 13.172c-5.661 1.173-10.549 3.581-14.533 7.164a.584.584 0 0 0-.154.226.631.631 0 0 0 .044.54c.047.08.112.147.188.195Z"/><path fill="#21111D" d="M967.721 818.76a.527.527 0 0 0 .275.08.528.528 0 0 0 .275-.078.56.56 0 0 0 .201-.214.605.605 0 0 0 .072-.293c-.009-3.164 1.02-5.596 3.148-7.438 2.137-1.846 5.124-2.79 8.88-2.803 3.893-.015 7.208.981 9.851 2.96 2.658 1.992 5.012 5.248 6.994 9.676l.215.481 17.298-6.79-.19-.547c-2.58-7.398-6.69-13.058-12.2-16.82-3.604-2.466-7.86-4.13-12.652-4.966a.515.515 0 0 0-.409.101.582.582 0 0 0-.221.378.618.618 0 0 0 .096.433.547.547 0 0 0 .357.235c4.642.811 8.763 2.421 12.239 4.797 5.17 3.53 9.06 8.811 11.57 15.703l-15.331 6.017c-2.02-4.369-4.418-7.613-7.135-9.648-2.838-2.124-6.361-3.189-10.486-3.173-4.013.014-7.233 1.045-9.568 3.065-2.368 2.049-3.563 4.856-3.551 8.343 0 .101.026.201.073.289a.572.572 0 0 0 .199.212Zm22.177 91.16a.518.518 0 0 0 .551.002.567.567 0 0 0 .201-.214.605.605 0 0 0 .072-.293l-.042-13.316c7.123-.988 13.02-3.618 17.52-7.823 5.87-5.481 8.83-13.076 8.8-22.575a.56.56 0 0 0-.04-.222.656.656 0 0 0-.12-.188.526.526 0 0 0-.78.003.469.469 0 0 0-.11.189.575.575 0 0 0-.05.223c.03 9.149-2.8 16.448-8.42 21.697-4.44 4.143-10.299 6.702-17.416 7.606l-.484.061.047 14.35c0 .214.11.4.271.5Zm-27.639-18.924c3.514 2.174 7.492 3.725 11.842 4.62a.532.532 0 0 0 .562-.25.607.607 0 0 0 .079-.438.576.576 0 0 0-.234-.368.55.55 0 0 0-.199-.086c-4.597-.944-8.752-2.632-12.384-5.051-5.864-3.898-10.404-9.719-13.498-17.307l15.348-7.308c2.514 5.208 5.345 9.081 8.42 11.516 3.204 2.529 7.023 3.809 11.372 3.791 4.904-.017 8.845-1.242 11.714-3.645 2.905-2.435 4.371-5.762 4.356-9.888-.011-3.288-1.113-6.076-3.279-8.286a.54.54 0 0 0-.392-.16.54.54 0 0 0-.385.176.607.607 0 0 0 .016.824c1.944 1.983 2.934 4.489 2.945 7.45.011 3.804-1.277 6.739-3.941 8.972-2.67 2.236-6.384 3.378-11.037 3.395-4.109.015-7.708-1.184-10.712-3.563-3.035-2.402-5.838-6.305-8.334-11.6l-.235-.499L947 871.519l.207.524c3.187 8.069 7.943 14.248 14.137 18.366.301.2.606.396.915.587Z"/><path fill="#F49D75" d="m913.192 745 12.483 9.245s1.596 78.652-2.287 96.432c-3.883 17.781-6.479 33.67-31.88 47.48-25.401 13.809 8.133-146.53 8.133-146.53L913.192 745Z"/><path fill="#000" d="M880.085 906.179c6.403-1.617 14.978-5.922 26.139-15.424 22.53-19.182 21.623-75.523 20.96-116.661-.293-18.243-.546-33.998 1.778-38.358l-1.854-1.134c-2.616 4.904-2.382 19.428-2.059 39.53.618 38.37 1.551 96.352-20.154 114.832-17.301 14.73-27.908 16.564-33.759 15.508-4.544-.818-6.679-3.394-7.241-4.189-.229-8.151-4.314-155.119-2.13-165.028.617-2.802 1.178-11.895 1.953-24.479 2.062-33.44 5.9-95.685 16.16-106.524 6.499-6.866 61.395-53.738 116.122-89.297L994.892 513c-54.87 35.652-109.981 82.722-116.515 89.624-10.836 11.449-14.563 71.89-16.79 108.001-.739 12.005-1.324 21.488-1.901 24.104-2.299 10.431 1.904 159.618 2.084 165.964l.009.307.151.26c.1.174 2.538 4.287 8.746 5.447 2.386.447 5.492.463 9.409-.528Z"/><path fill="#1D1D1B" d="M1323.94 1116 966 978.626 608.06 1116l-1.06-3.22L966 975l359 137.78-1.06 3.22Z"/><path fill="#10212D" d="M840 1162c-1.061 0-2.078-.47-2.828-1.31-.751-.85-1.172-1.99-1.172-3.18v-133.02c0-1.19.421-2.33 1.172-3.18.75-.84 1.767-1.31 2.828-1.31s2.078.47 2.828 1.31c.751.85 1.172 1.99 1.172 3.18v133.02c0 1.19-.421 2.33-1.172 3.18-.75.84-1.767 1.31-2.828 1.31Z"/><path fill="#F9DCBB" d="M860.843 1219.75 840 1163l-20.843 56.75c-.098.17-.152.36-.157.56 0 2.59 9.402 4.69 21 4.69s21-2.1 21-4.69c0-.19-.058-.38-.157-.56Z"/><path fill="#FEEFDC" d="M840 1188c9.389 0 17-8.06 17-18s-7.611-18-17-18-17 8.06-17 18 7.611 18 17 18Z"/><path fill="#1D1D1B" d="M840 1189c-9.925 0-18-8.3-18-18.5s8.075-18.5 18-18.5v.68c-9.56 0-17.337 7.99-17.337 17.82s7.777 17.82 17.337 17.82v.68Z"/><path fill="#1D1D1B" d="M842.996 1226c-17.962-.14-22.861-2.53-23.81-4.51-.299-.62-.178-1.17-.047-1.43l12.354-35.06.59.26-12.396 35.16c-.003 0-.159.31.071.76.599 1.19 4.065 3.97 23.242 4.11l-.004.71Z"/><path fill="#223749" d="M857 1546.6s7.212-23.41 83.959-19.06c87.741 4.97 147.511-11.28 163.041 19.06L982.409 1595 857 1546.6Z"/><path fill="#223749" d="M994.934 1590.04s-70.6-44.91-95.365-51.65c-24.763-6.75-41.91 2.15-44.601 10.02-2.692 7.87-5.223 29.11 11.243 41.63 7.126 5.42 88.565 30.99 110.098 36.96 0 0 19.983-8.88 18.625-36.96Z"/><path fill="#21111D" d="M980.378 1580c.136 0 .268-.05.377-.13a.693.693 0 0 0 .223-.34.695.695 0 0 0-.023-.42.62.62 0 0 0-.258-.31c-67.134-41.67-89.128-43.73-90.031-43.8-.082 0-.164 0-.242.03a.614.614 0 0 0-.212.13.55.55 0 0 0-.148.2.67.67 0 0 0 .087.71c.108.13.261.21.425.22.22.02 22.732 2.18 89.484 43.62.096.06.205.09.318.09Z"/><path fill="#FE9F73" d="M962.027 1634.45 993 1617.13 978.105 1585l-25.269 14.14s-41.773-.4-43.772 1.75c-1.998 2.15 43.256 38.99 52.963 33.56Z"/><path fill="#3AA1C9" d="M974 1627.41c-9.079-10.93-14.017-26.78-15.56-32.41l-4.683 2.6s-42.651-.39-44.691 1.78c-2.041 2.18 44.163 39.58 54.074 34.07l10.86-6.04Z"/><path fill="#223749" d="M966.091 1590.84s70.589-45.58 95.349-52.42c24.76-6.84 41.9 2.18 44.59 10.17 2.69 7.98 5.22 29.54-11.24 42.25-7.12 5.5-94.26 33.1-115.786 39.16 0 0-14.271-10.66-12.913-39.16Z"/><path fill="#21111D" d="M978.176 1629c.133 0 .262-.05.368-.13a.712.712 0 0 0 .222-.34.69.69 0 0 0-.249-.75c-11.755-8.35-12.428-34.46-12.464-37.91 4.877-3.05 65.397-40.83 89.527-50.58a.71.71 0 0 0 .22-.13c.06-.06.11-.13.14-.21.04-.08.06-.17.06-.26s-.01-.18-.04-.26a.611.611 0 0 0-.13-.22.481.481 0 0 0-.2-.15.503.503 0 0 0-.24-.06c-.08 0-.16.02-.24.05-25.13 10.14-89.381 50.46-90.027 50.86l-.303.2-.003.37c-.01 1.23-.072 30.11 13.02 39.41.101.07.219.11.339.11Zm-114.559-82.1a.69.69 0 0 0 .282-.07.639.639 0 0 0 .22-.21c.039-.06 2.487-3.47 10.462-3.37.356.02.621-.29.625-.65a.704.704 0 0 0-.176-.48.572.572 0 0 0-.199-.14.642.642 0 0 0-.235-.06c-8.717-.11-11.374 3.77-11.482 3.93a.707.707 0 0 0-.045.69c.052.11.13.2.227.26.097.07.208.1.321.1Zm3.963 3.32a.66.66 0 0 0 .24-.05.776.776 0 0 0 .202-.15c.049-.05 2.934-3.04 10.808-1.68.161.02.327-.02.459-.12a.69.69 0 0 0 .248-.44.692.692 0 0 0-.109-.49.636.636 0 0 0-.403-.27c-8.618-1.48-11.762 1.93-11.892 2.08a.66.66 0 0 0-.162.34.722.722 0 0 0 .04.38c.048.12.127.22.228.29a.6.6 0 0 0 .341.11Z"/><path fill="#000" d="M956.918 1330.72s-8.282 25.19-9.281 27.31c-1 2.11-6.065 11.88-4.246 23.38C945.209 1392.91 978 1397 978 1397l-.596-78.92s-14.646-1.88-20.486 12.64ZM998.479 1330.56s8.041 24.87 9.021 26.96c.97 2.09 5.89 11.74 4.12 23.09C1009.85 1391.97 978 1396 978 1396l.579-77.92s14.228-1.86 19.9 12.48Z"/><path fill="#FE9F73" d="m989 1385-21-.37 1.128-17.63h17.726l2.146 18Z"/><path fill="#F07162" d="M968 1374.44c2.028 1.77 4.8 3.19 7.414 3.54.444.01.889.02 1.334.02h.187c.456 0 .904-.01 1.334-.02 3.065-.41 6.465-2.24 8.731-4.53l-.757-6.45h-17.775l-.468 7.44Z"/><path fill="#FE9F73" d="M990.021 1336.03c-.836-1.86-1.927-3.1-2.995-3.92-2.168-1.11-5.719-2.55-10.244-3.11h-.563c-4.526.56-8.076 2-10.245 3.11-1.067.82-2.159 2.06-2.995 3.92-.397 3.43-.885 9.75-.976 16.06-.082 5.68 1.293 11.29 4.113 15.88 2.125 3.46 5.181 6.56 9.408 7.02.295.01.6.01.912.01h.128c.311 0 .617 0 .912-.01 4.227-.46 7.282-3.56 9.408-7.02 2.82-4.59 4.195-10.2 4.113-15.88-.091-6.31-.578-12.63-.976-16.06Z"/><path fill="#FE9F73" d="M988 1355.5c0 .59.117 1.18.343 1.72.226.55.557 1.04.975 1.46.418.42.914.75 1.46.98.546.22 1.131.34 1.722.34s1.176-.12 1.722-.34a4.542 4.542 0 0 0 2.436-2.44 4.494 4.494 0 0 0-.976-4.9 4.477 4.477 0 0 0-3.182-1.32c-1.194 0-2.338.47-3.182 1.32a4.494 4.494 0 0 0-1.318 3.18Z"/><path fill="#F07162" d="M993.458 1359c1.284 0 2.14-.99 2.423-1.97.334-1.17-.049-2.3-.976-2.89-1.319-.84-2.518-.35-3.17.07.263-.67.663-1.15 1.195-1.45 1.197-.68 2.676-.18 2.691-.18.047.01.097 0 .14-.02a.176.176 0 0 0 .09-.11.216.216 0 0 0-.006-.15.213.213 0 0 0-.099-.1c-.067-.02-1.657-.55-3.003.21-.778.43-1.307 1.21-1.573 2.29l-.17.7.499-.51c.061-.06 1.501-1.49 3.201-.41.939.6 1.021 1.68.806 2.44-.225.78-.903 1.69-2.077 1.68a.187.187 0 0 0-.139.06.18.18 0 0 0-.06.14c0 .05.02.1.056.14.036.04.085.06.137.06h.035Z"/><path fill="#FE9F73" d="M967 1355.5c0 1.19-.474 2.34-1.318 3.18a4.477 4.477 0 0 1-3.182 1.32 4.477 4.477 0 0 1-3.182-1.32 4.494 4.494 0 0 1 0-6.36 4.477 4.477 0 0 1 3.182-1.32c1.193 0 2.338.47 3.182 1.32a4.494 4.494 0 0 1 1.318 3.18Z"/><path fill="#F07162" d="M962.835 1357.49c-.927 0-1.546-.68-1.749-1.35-.241-.8.036-1.58.705-1.98.952-.57 1.818-.24 2.289.05-.189-.46-.479-.79-.863-.99-.865-.46-1.932-.13-1.943-.12a.199.199 0 0 1-.108-.01.175.175 0 0 1-.071-.08.146.146 0 0 1 .008-.11.13.13 0 0 1 .082-.06c.048-.02 1.196-.38 2.168.14.562.3.944.82 1.136 1.57l.123.47-.36-.34c-.044-.05-1.085-1.02-2.313-.29-.678.41-.737 1.16-.582 1.67.163.54.653 1.16 1.5 1.15.019 0 .037 0 .055.01a.46.46 0 0 1 .046.03c.013.01.024.03.031.04a.16.16 0 0 1 .012.06c0 .01-.003.03-.01.05a.079.079 0 0 1-.03.04c-.013.02-.028.03-.045.03a.115.115 0 0 1-.054.02h-.027Zm13.223 1.51c.039 0 .078-.01.107-.04a.16.16 0 0 0 .053-.1.152.152 0 0 0-.03-.11.175.175 0 0 0-.097-.06c-1.042-.22-1.698-1.46-1.888-1.87 1.48-.76 2.383-1.76 2.685-2.96.491-1.96-.788-3.72-.843-3.8a.194.194 0 0 0-.104-.06.235.235 0 0 0-.118.03.152.152 0 0 0-.066.1c-.007.04.001.08.025.11.012.02 1.248 1.73.79 3.55-.287 1.14-1.179 2.09-2.65 2.82l-.13.07.052.13c.031.08.767 1.89 2.179 2.19h.035Z"/><path fill="#000" d="M973.552 1350.77c0 .27-.103.54-.286.73a.961.961 0 0 1-.691.3.96.96 0 0 1-.69-.3 1.06 1.06 0 0 1 0-1.45c.183-.2.431-.31.69-.31.26 0 .508.11.691.31.183.19.286.45.286.72Zm10.08.2c0 .27.103.54.286.73.183.19.432.3.691.3.259 0 .508-.11.691-.3a1.064 1.064 0 0 0 0-1.45.935.935 0 0 0-.691-.31.935.935 0 0 0-.691.31 1.04 1.04 0 0 0-.286.72Zm-22.328-1.85s17.667-8.98 19.123-20.41l.757 2.59s6.126 16.84 13.7 17.75c0 0 6.616-25.24-12.376-30.26-18.993-5.01-22.722 14.76-21.204 30.33Z"/><path fill="#FBFDFC" d="M974 1361.18c.093-.02 6-.18 6-.18s-.746 2.93-2.94 3c-2.196.06-3.06-2.82-3.06-2.82Z"/><path fill="#000" d="M987.626 1349a.36.36 0 0 1-.242-.09c-2.394-1.97-5.791-.88-5.825-.87-.047.02-.096.02-.145.02a.34.34 0 0 1-.141-.03.976.976 0 0 1-.116-.09.455.455 0 0 1-.073-.12.362.362 0 0 1 .018-.28.375.375 0 0 1 .089-.11c.037-.04.08-.06.127-.07.156-.06 3.838-1.23 6.551 1 .058.05.1.11.119.19.019.07.015.14-.011.21a.353.353 0 0 1-.137.17.337.337 0 0 1-.214.07Zm-19.252-.07a.416.416 0 0 1-.216-.07.335.335 0 0 1-.136-.17.355.355 0 0 1-.008-.22.359.359 0 0 1 .124-.19c2.769-2.17 6.42-.9 6.574-.85a.363.363 0 0 1 .218.47.359.359 0 0 1-.192.2.353.353 0 0 1-.285.01c-.033-.01-3.41-1.17-5.845.74a.39.39 0 0 1-.234.08Z"/><path fill="#FE9F73" d="M964 1360s1.747 14.2 12.408 14L964 1360Zm27-.39s-1.748 14.59-12.408 14.39l7.823-20 4.585 5.61Z"/><path fill="#FF424D" d="m967 1427.49 27.117 14.46 32.593 21.48 8.31 10.53 15.82 26.04c54.83-13.06 41.69-46.25 38.42-52.09-8.88-15.94-28.89-34.37-39.92-47.97-2.56-3.15-5.21-5.99-7.74-8.48-7.55-7.41-17.46-11.46-27.71-11.46h-25.331L967 1427.49Zm64.71 7.5s3.13 2.93 3.27 3.09c7.27 7.75 16.76 17.87 16.76 17.87l1.18.43-17.95 9.5s-1.81.76-2 .35c-.09-.19-1.26-31.24-1.26-31.24Z"/><path fill="#FF424D" d="M965.442 1380h-25.33c-10.251 0-20.163 4.08-27.712 11.56a103.317 103.317 0 0 0-7.737 8.54c-11.032 13.72-31.044 32.3-39.927 48.37-3.261 5.9-16.406 39.36 38.42 52.53l15.827-26.25 8.303-10.63 32.597-21.66L987 1427.89 965.442 1380Zm-44.41 86.95c-.187.41-2.004-.36-2.004-.36l-17.943-9.57 1.177-.44s9.488-10.2 16.755-18.02c.145-.16 3.273-3.12 3.273-3.12s-1.172 31.32-1.258 31.51Z"/><path fill="#FF424D" d="m920.915 1467.17-.915 62.5s61.366 14.75 115.74-.78c1.33-.38-2.83-64.31-2.83-64.31s0-11.54-5.67-15.11c-5.67-3.56-51.614-65.47-52.721-65.47-1.107 0-53.604 83.17-53.604 83.17Z"/><path fill="#21111D" d="M978.612 1399a.591.591 0 0 1-.427-.19.686.686 0 0 1-.185-.46.686.686 0 0 1 .159-.46.582.582 0 0 1 .414-.22c18.98-1.27 25.177-15.14 25.237-15.28.07-.16.19-.29.35-.35.15-.06.33-.05.48.02.15.07.26.21.32.37.06.17.05.35-.02.51-.06.15-6.531 14.73-26.29 16.06h-.038Z"/><path fill="#FE9F73" d="M956 1380h44s-7.954 15.07-23.158 15c-6.974-.03-14.43-2.83-20.842-15Z"/><path fill="#4CB7D8" d="m992 1457 6.87 35s14.13-12.24 14.13-13.57-4.47-17.61-4.95-17.92c-.47-.32-16.05-3.51-16.05-3.51Z"/><path fill="#DCF4FF" d="M932 1436.08V1431l44.165 15.88L957.66 1467 932 1436.08Zm90 0V1431l-44.166 15.88L996.34 1467l25.66-30.92Z"/><path fill="#FEC786" d="M930 1432c0 1.84 3.433 74.75 3.433 74.75L977.5 1519v-71.68L930 1432Zm95 0c0 1.84-3.43 74.75-3.43 74.75L977.5 1519v-71.68L1025 1432Z"/><path fill="#F99247" d="M979.813 1518h-5.627c-.315 0-.616-.12-.839-.33-.222-.21-.347-.5-.347-.8v-69.89c0-.54.464-.98 1.037-.98h5.926c.572 0 1.037.44 1.037.98v69.89c0 .3-.126.59-.348.8-.223.21-.524.33-.839.33Z"/><path fill="#F99247" d="M973.564 1454.23h7.197v3.54h-7.197v-3.54ZM973.564 1509.85h7.197v3.54h-7.197v-3.54Z" opacity=".5"/><path fill="#F78C63" d="M954.716 1483.27c2.765-3.08.204-7 .204-7 .557-2.52.478-4.28.29-5.36a1.326 1.326 0 0 0-.184-.49 1.275 1.275 0 0 0-.35-.37 1.114 1.114 0 0 0-.934-.13c-3.027 1-11.77 3.94-17.165 6.13-3.728-.61-5.045-2.62-5.045-2.62l-.095.18c-.074-3.56-.163-8-.163-8.5 0-.85-1.233-2.21-3.159.47-1.927 2.69-5.651 9.89-5.651 9.89H911.2l-6.2 23.6s23.365 3.63 26.96 3.91c3.596.29 16.111-2.96 19.835-6.35 3.723-3.39 2.921-6.43 2.921-6.43 2.765-3.66 0-6.93 0-6.93Z"/><path fill="#F07162" d="M946.494 1480.05a.52.52 0 0 1-.32-.11.5.5 0 0 1-.166-.29.448.448 0 0 1 .067-.32c.061-.1.156-.17.268-.21 3.642-1.14 8.88-4.04 8.932-4.07a.52.52 0 0 1 .368-.03c.123.03.227.11.291.22.064.11.082.23.051.35a.461.461 0 0 1-.216.29c-.218.12-5.38 2.98-9.122 4.15-.049.02-.101.02-.153.02Zm0 6.05a.501.501 0 0 1-.333-.12.47.47 0 0 1-.159-.31.452.452 0 0 1 .099-.33c.074-.1.183-.16.304-.18 4.579-.83 8.595-3.07 8.636-3.1a.568.568 0 0 1 .364-.03c.122.03.225.11.289.22.064.1.084.23.055.35a.48.48 0 0 1-.208.29c-.17.09-4.201 2.35-8.955 3.2-.03.01-.061.01-.092.01Zm1.098 6.9a.503.503 0 0 1-.333-.12.478.478 0 0 1-.163-.31.474.474 0 0 1 .093-.33.495.495 0 0 1 .3-.18c3.931-.82 7.498-3.02 7.534-3.04a.578.578 0 0 1 .181-.08.657.657 0 0 1 .198 0c.065.01.127.04.182.08a.44.44 0 0 1 .209.31c.011.06.009.13-.006.19a.608.608 0 0 1-.084.18c-.04.05-.09.09-.147.12-.151.1-3.754 2.31-7.859 3.17-.034.01-.07.01-.105.01Z"/><path fill="#FF424D" d="m925 1469.79-2.695 33.13s-9.622 1.15-28.198-5.02c-18.575-6.16-3.172-39.29-2.033-39.8 1.139-.52 13.481 1.17 13.481 1.17L925 1469.79Z"/><path fill="#000" d="m923.18 1503-.545-.02c-2.049-.08-50.293-2.19-59.786-29.6-.148-.31-4.156-9.19.111-21.8 4.228-12.5 33.886-43.54 35.146-44.85.473-.59 12.38-15.13 18.194-19.62a.5.5 0 0 1 .201-.09.548.548 0 0 1 .428.07c.063.04.118.1.161.16a.669.669 0 0 1 .099.46.641.641 0 0 1-.229.4c-5.709 4.4-17.912 19.31-18.035 19.46-.339.35-30.763 32.19-34.902 44.43-4.092 12.09-.176 20.81-.136 20.89 8.722 25.18 52.814 28.53 58.243 28.84.585-8.47 2.39-29.2 2.67-32.4a2028.083 2028.083 0 0 0-37.1-19.62.582.582 0 0 1-.265-.35.649.649 0 0 1 .028-.45.552.552 0 0 1 .306-.3.508.508 0 0 1 .418 0c.184.09 18.683 9.6 37.468 19.82l.345.19-.036.41c-.022.25-2.167 24.72-2.744 33.38l-.04.59Z"/><path fill="#000" d="M901.611 1458a.595.595 0 0 1-.338-.11.66.66 0 0 1-.225-.28.701.701 0 0 1-.037-.38.669.669 0 0 1 .163-.33l21.777-23.7a.78.78 0 0 1 .196-.15.625.625 0 0 1 .234-.05c.08 0 .159.01.234.05.074.03.142.07.2.13a.676.676 0 0 1 .185.46.708.708 0 0 1-.043.25.748.748 0 0 1-.13.21l-21.777 23.7a.605.605 0 0 1-.2.15.655.655 0 0 1-.239.05Z"/><path fill="#000" d="M920.149 1469h-.023a.435.435 0 0 1-.219-.06.602.602 0 0 1-.299-.35.603.603 0 0 1-.035-.23l1.275-35.76c.012-.34.24-.62.598-.6.076 0 .15.02.219.06.069.03.131.08.182.14.051.06.091.13.118.21.026.07.038.15.035.24l-1.275 35.75a.657.657 0 0 1-.177.43.555.555 0 0 1-.399.17Zm-19.05-11.25a.472.472 0 0 1-.279-.08.587.587 0 0 1-.21-.21l-3.526-6.02a.677.677 0 0 1-.069-.47.62.62 0 0 1 .254-.38.51.51 0 0 1 .43-.08c.148.03.277.13.36.26l3.527 6.03c.055.09.085.2.088.31a.674.674 0 0 1-.071.32.63.63 0 0 1-.211.24.602.602 0 0 1-.293.08Z"/><path fill="#F78C63" d="M998.309 1483.27c-2.819-3.08-.208-7-.208-7-.416-1.85-.484-3.29-.416-4.35.083-1.27 1.257-2.12 2.385-1.75 3.61 1.18 11.64 3.85 16.73 5.88 3.8-.61 5.15-2.62 5.15-2.62l.09.18c.08-3.56.17-8 .17-8.5 0-.85 1.26-2.21 3.22.47 1.97 2.69 5.76 9.89 5.76 9.89h11.49l6.32 23.6s-23.82 3.63-27.49 3.91c-3.67.29-16.43-2.96-20.22-6.35-3.8-3.39-2.981-6.43-2.981-6.43-2.819-3.66 0-6.93 0-6.93Z"/><path fill="#F07162" d="M1007.51 1480.05c.11 0 .23-.04.32-.11.08-.08.14-.18.16-.29.02-.11 0-.23-.06-.32a.556.556 0 0 0-.27-.21c-3.64-1.14-8.883-4.04-8.936-4.07a.517.517 0 0 0-.367-.03.465.465 0 0 0-.291.22.455.455 0 0 0-.051.35c.03.12.108.23.216.29.218.12 5.379 2.98 9.119 4.15.05.02.1.02.16.02Zm0 6.05c.12 0 .24-.04.33-.12a.47.47 0 0 0 .16-.31.48.48 0 0 0-.41-.51c-4.57-.83-8.59-3.07-8.631-3.1a.568.568 0 0 0-.364-.03.464.464 0 0 0-.289.22.458.458 0 0 0-.055.35.48.48 0 0 0 .208.29c.17.09 4.201 2.35 8.951 3.2.03.01.06.01.1.01Zm-1.1 6.9c.12 0 .24-.04.33-.12.09-.08.14-.19.16-.31a.503.503 0 0 0-.09-.33.521.521 0 0 0-.3-.18c-3.93-.82-7.497-3.02-7.533-3.04a.578.578 0 0 0-.181-.08.657.657 0 0 0-.198 0 .424.424 0 0 0-.182.08.44.44 0 0 0-.209.31.468.468 0 0 0 .006.19c.016.06.044.12.084.18.04.05.09.09.147.12.151.1 3.756 2.31 7.856 3.17.04.01.07.01.11.01Z"/><path fill="#FF424D" d="m1029 1469.79 2.76 33.13s9.87 1.15 28.91-5.02c19.03-6.16 3.25-39.29 2.08-39.8-1.17-.52-13.82 1.17-13.82 1.17l-19.93 10.52Z"/><path fill="#000" d="m1031.82 1503-.04-.59c-.58-8.66-2.72-33.13-2.74-33.38l-.04-.41.34-.19c18.79-10.22 37.29-19.73 37.47-19.82.14-.07.3-.08.44-.03.14.06.25.17.32.32.06.14.07.31.02.46-.05.15-.15.28-.29.35-.18.09-18.45 9.48-37.1 19.62.28 3.2 2.08 23.93 2.67 32.4 5.43-.31 49.52-3.65 58.22-28.78.06-.14 3.98-8.87-.11-20.95-4.14-12.24-34.57-44.08-34.87-44.4-.16-.18-12.36-15.09-18.07-19.5a.625.625 0 0 1-.23-.39c-.02-.16.02-.32.1-.46.09-.13.22-.21.37-.24s.3.01.42.1c5.81 4.49 17.72 19.03 18.23 19.65 1.22 1.28 30.88 32.32 35.11 44.82 4.27 12.61.26 21.49.09 21.86-9.47 27.35-57.72 29.46-59.76 29.54l-.55.02Z"/><path fill="#000" d="M1052.44 1457c-.07 0-.15-.02-.22-.05a.586.586 0 0 1-.18-.14l-19.88-22.76a.637.637 0 0 1-.11-.67c.02-.08.07-.15.12-.2.05-.06.11-.11.18-.14a.538.538 0 0 1 .43.01c.07.03.13.08.18.14l19.88 22.76c.08.08.13.19.15.32.02.12.01.24-.03.35a.74.74 0 0 1-.21.28c-.09.06-.2.1-.31.1Z"/><path fill="#000" d="M1033.78 1468c-.15 0-.28-.06-.39-.17a.66.66 0 0 1-.17-.41l-1.22-34.79c-.01-.16.05-.32.15-.44.1-.11.23-.18.38-.19.35-.02.56.25.58.58l1.22 34.79c0 .08-.01.16-.03.24-.03.07-.07.14-.12.2a.7.7 0 0 1-.17.13.42.42 0 0 1-.21.06h-.02Zm18.28-10.94c-.1 0-.2-.03-.28-.09a.452.452 0 0 1-.2-.23.547.547 0 0 1-.07-.31c0-.1.03-.21.08-.3l3.39-5.86c.08-.14.2-.23.34-.27.15-.04.3-.01.42.08a.6.6 0 0 1 .25.38c.03.15 0 .32-.08.45l-3.38 5.87c-.05.08-.12.15-.2.2a.53.53 0 0 1-.27.08Z"/><path fill="#49263E" d="M147 1770h1713v4H147v-4Z"/></svg>