<svg xmlns="http://www.w3.org/2000/svg" width="2600" height="2600" fill="none"><path fill="#0098B3" d="M1301 1600c599.78 0 1086-69.17 1086-154.5S1900.78 1291 1301 1291c-599.781 0-1086 69.17-1086 154.5S701.219 1600 1301 1600Z"/><path fill="#D7E8F6" d="M416.942 1439H2236.65c22.56 0 39.7-15.72 38.27-35.11l-78.4-1060.779c-1.43-19.389-20.89-35.111-43.46-35.111H333.353c-22.567 0-39.7 15.722-38.27 35.111l78.394 1060.779c1.437 19.39 20.893 35.11 43.465 35.11Z"/><path fill="#FFC999" d="M2049.67 638 2020 664.499 2044.33 708l29.67-26.499L2049.67 638Z"/><path fill="#FFC999" d="M2055.54 579.502c-7.9-3.584-16.29 35.433-16.29 35.433s-1.13-3.63-3.51-7.926c-6.51-14.318-20.81-43.96-31.88-53.988-14.81-13.411-4.42 21.2 5.68 37.829 0 0-25.69-38.528-36.07-30.288-5.84 4.635 17.08 36.151 21.69 42.373l-.14.131c-4.89-4.962-27.1-26.782-32.84-20.253-4.91 5.582 19.23 32.508 20.93 34.388l-.04.052c-2.12-1.293-26.65-16.042-28.94-7.835-2.39 8.579 28.87 40.5 28.87 40.5 16.89 17.706 44.59 27.082 44.59 27.082l30.23-25.888c-.01-.006 8.49-66.719-2.28-71.61Z"/><path fill="#C27590" d="M2203.66 853c-66.68 0-118.48-45.713-174.66-151.978L2089.4 664c59.17 111.957 96.28 117.189 126.39 113.345l8.21 74.312c-6.75.881-13.54 1.329-20.34 1.343Z"/><path fill="#C27590" d="M2219.72 851c-8.85.003-17.38-3.587-23.82-10.035-6.44-6.448-10.32-15.267-10.84-24.65-.52-9.384 2.36-18.623 8.05-25.826 5.69-7.204 13.76-11.827 22.55-12.923 21.82-2.754 35.22-12.376 35.36-12.472 15.44-12.041 36.96-8.358 48.31 8.048 11.36 16.399 7.82 39.622-7.63 51.669-2.73 2.122-27.75 20.869-67.84 25.931-1.38.168-2.77.258-4.14.258Z"/><path fill="#0098B3" d="M1101.5 1682c586.25 0 1061.5-50.59 1061.5-113s-475.25-113-1061.5-113S40 1506.59 40 1569s475.25 113 1061.5 113ZM284.846 1859.93l-214.013-46.19a3.484 3.484 0 0 1-1.783-1.02 3.919 3.919 0 0 1-.971-1.91c-.145-.73-.09-1.49.158-2.18.248-.69.678-1.29 1.237-1.72l148.951-115.2c.392-.3.837-.51 1.307-.62.47-.11.956-.12 1.428-.02l214.007 46.19c.674.15 1.293.5 1.783 1.02.489.52.827 1.19.971 1.91.145.73.09 1.49-.158 2.18a3.776 3.776 0 0 1-1.237 1.72l-148.951 115.2c-.39.3-.834.52-1.303.62-.47.11-.955.12-1.426.02Z"/><path fill="#444B75" d="M283.919 1849 80 1805.18 223.081 1695 427 1738.82 283.919 1849Z"/><path fill="#0098B3" d="M2397 1703c112.11 0 203-27.53 203-61.5s-90.89-61.5-203-61.5-203 27.53-203 61.5 90.89 61.5 203 61.5ZM508 2100c112.114 0 203-27.98 203-62.5 0-34.52-90.886-62.5-203-62.5s-203 27.98-203 62.5c0 34.52 90.886 62.5 203 62.5ZM1616.5 2338c112.39 0 203.5-27.53 203.5-61.5s-91.11-61.5-203.5-61.5-203.5 27.53-203.5 61.5 91.11 61.5 203.5 61.5Z"/><path fill="#fff" d="M1992.22 1587H172.524c-22.566 0-38.803-17.83-36.262-39.83L275.319 343.831c2.541-21.997 22.9-39.831 45.466-39.831H2140.48c22.56 0 38.8 17.834 36.26 39.831L2037.68 1547.17c-2.54 22-22.89 39.83-45.46 39.83Z"/><path fill="#324E66" d="M482.61 303.11H501a10.472 10.472 0 0 0-.175-1.921C495.184 271.11 470.349 240 438.538 240 403.504 240 375 270.604 375 308.218c0 15.396 4.667 29.935 13.494 42.041a9.259 9.259 0 0 0 2.681 2.482 8.617 8.617 0 0 0 3.363 1.188 8.468 8.468 0 0 0 3.53-.288 8.832 8.832 0 0 0 3.157-1.721 9.563 9.563 0 0 0 2.307-2.881c.585-1.113.961-2.34 1.104-3.609a10.44 10.44 0 0 0-.266-3.789 10.038 10.038 0 0 0-1.597-3.39c-6.276-8.557-9.673-19.141-9.637-30.033 0-26.878 20.368-48.746 45.402-48.746 21.57.007 39.296 22.29 44.072 43.638Z"/><path fill="#406482" d="M557.61 303.11H576a10.472 10.472 0 0 0-.175-1.921C570.184 271.11 545.349 240 513.538 240 478.504 240 450 270.604 450 308.218c0 15.396 4.667 29.935 13.494 42.041a9.259 9.259 0 0 0 2.681 2.482 8.617 8.617 0 0 0 3.363 1.188 8.468 8.468 0 0 0 3.53-.288 8.832 8.832 0 0 0 3.157-1.721 9.563 9.563 0 0 0 2.307-2.881c.585-1.113.961-2.34 1.104-3.609a10.44 10.44 0 0 0-.266-3.789 10.038 10.038 0 0 0-1.597-3.39c-6.276-8.557-9.673-19.141-9.637-30.033 0-26.878 20.368-48.746 45.402-48.746 21.57.007 39.296 22.29 44.072 43.638Z"/><path fill="#324E66" d="M631.61 303.11H650a10.472 10.472 0 0 0-.175-1.921C644.184 271.11 619.349 240 587.538 240 552.504 240 524 270.604 524 308.218c0 15.396 4.667 29.935 13.494 42.041a9.259 9.259 0 0 0 2.681 2.482 8.617 8.617 0 0 0 3.363 1.188 8.468 8.468 0 0 0 3.53-.288 8.832 8.832 0 0 0 3.157-1.721 9.563 9.563 0 0 0 2.307-2.881c.585-1.113.961-2.34 1.104-3.609a10.44 10.44 0 0 0-.266-3.789 10.038 10.038 0 0 0-1.597-3.39c-6.276-8.557-9.672-19.141-9.637-30.033 0-26.878 20.368-48.746 45.402-48.746 21.576.007 39.302 22.29 44.072 43.638Z"/><path fill="#406482" d="M706.464 303.11H725a10.302 10.302 0 0 0-.177-1.921C719.138 271.11 694.106 240 662.042 240 626.731 240 598 270.604 598 308.218c0 15.396 4.704 29.935 13.601 42.041a9.308 9.308 0 0 0 2.702 2.482 8.739 8.739 0 0 0 3.39 1.188 8.6 8.6 0 0 0 3.558-.288 8.93 8.93 0 0 0 3.182-1.721 9.576 9.576 0 0 0 2.326-2.881c.589-1.113.968-2.34 1.112-3.609.145-1.27.054-2.557-.268-3.789a9.972 9.972 0 0 0-1.61-3.39c-6.326-8.557-9.749-19.141-9.713-30.033 0-26.878 20.529-48.746 45.762-48.746 21.742.007 39.608 22.29 44.422 43.638Z"/><path fill="#324E66" d="M780.464 303.11H799a10.302 10.302 0 0 0-.177-1.921C793.138 271.11 768.106 240 736.042 240 700.731 240 672 270.604 672 308.218c0 15.396 4.704 29.935 13.601 42.041a9.308 9.308 0 0 0 2.702 2.482 8.739 8.739 0 0 0 3.39 1.188 8.6 8.6 0 0 0 3.558-.288 8.93 8.93 0 0 0 3.182-1.721 9.576 9.576 0 0 0 2.326-2.881c.589-1.113.968-2.34 1.112-3.609.145-1.27.054-2.557-.268-3.789a9.972 9.972 0 0 0-1.61-3.39c-6.326-8.557-9.749-19.141-9.713-30.033 0-26.878 20.529-48.746 45.762-48.746 21.748.007 39.614 22.29 44.422 43.638Z"/><path fill="#406482" d="M854.464 303.11H873a10.302 10.302 0 0 0-.177-1.921C867.138 271.11 842.106 240 810.042 240 774.731 240 746 270.604 746 308.218c0 15.396 4.704 29.935 13.601 42.041a9.308 9.308 0 0 0 2.702 2.482 8.739 8.739 0 0 0 3.39 1.188 8.6 8.6 0 0 0 3.558-.288 8.93 8.93 0 0 0 3.182-1.721 9.576 9.576 0 0 0 2.326-2.881c.589-1.113.968-2.34 1.113-3.609.144-1.27.053-2.557-.269-3.789a9.972 9.972 0 0 0-1.61-3.39c-6.326-8.557-9.749-19.141-9.713-30.033 0-26.878 20.529-48.746 45.762-48.746 21.742.007 39.608 22.29 44.422 43.638Z"/><path fill="#324E66" d="M928.61 303.11H947a10.472 10.472 0 0 0-.175-1.921C941.184 271.11 916.349 240 884.538 240 849.505 240 821 270.604 821 308.218c0 15.396 4.667 29.935 13.494 42.041a9.259 9.259 0 0 0 2.681 2.482 8.617 8.617 0 0 0 3.363 1.188 8.468 8.468 0 0 0 3.53-.288 8.832 8.832 0 0 0 3.157-1.721 9.563 9.563 0 0 0 2.307-2.881c.585-1.113.961-2.34 1.104-3.609a10.44 10.44 0 0 0-.266-3.789 10.038 10.038 0 0 0-1.597-3.39c-6.276-8.557-9.673-19.141-9.637-30.033 0-26.878 20.368-48.746 45.402-48.746 21.57.007 39.296 22.29 44.072 43.638Z"/><path fill="#406482" d="M1003.46 303.11H1022c0-.645-.06-1.289-.18-1.921C1016.14 271.11 991.106 240 959.042 240 923.731 240 895 270.604 895 308.218c0 15.396 4.704 29.935 13.601 42.041a9.308 9.308 0 0 0 2.702 2.482 8.739 8.739 0 0 0 3.39 1.188 8.6 8.6 0 0 0 3.558-.288 8.93 8.93 0 0 0 3.182-1.721 9.576 9.576 0 0 0 2.326-2.881c.589-1.113.968-2.34 1.112-3.609.145-1.27.054-2.557-.268-3.789a9.972 9.972 0 0 0-1.61-3.39c-6.326-8.557-9.749-19.141-9.713-30.033 0-26.878 20.529-48.746 45.762-48.746 21.742.007 39.608 22.29 44.418 43.638Z"/><path fill="#324E66" d="M1077.61 303.11H1096c0-.645-.06-1.289-.18-1.921-5.64-30.079-30.47-61.189-62.28-61.189-35.036 0-63.54 30.604-63.54 68.218 0 15.396 4.667 29.935 13.493 42.041a9.275 9.275 0 0 0 2.682 2.482 8.617 8.617 0 0 0 3.363 1.188 8.468 8.468 0 0 0 3.53-.288 8.832 8.832 0 0 0 3.157-1.721 9.563 9.563 0 0 0 2.307-2.881c.585-1.113.961-2.34 1.104-3.609a10.44 10.44 0 0 0-.266-3.789 10.038 10.038 0 0 0-1.597-3.39c-6.276-8.557-9.673-19.141-9.637-30.033 0-26.878 20.364-48.746 45.404-48.746 21.57.007 39.29 22.29 44.07 43.638Z"/><path fill="#406482" d="M1151.46 303.11H1170c0-.645-.06-1.289-.18-1.921-5.68-30.079-30.71-61.189-62.78-61.189-35.31 0-64.04 30.604-64.04 68.218 0 15.396 4.7 29.935 13.6 42.041a9.39 9.39 0 0 0 2.7 2.482c1.05.63 2.2 1.034 3.39 1.188 1.2.154 2.4.056 3.56-.288a8.863 8.863 0 0 0 3.18-1.721 9.528 9.528 0 0 0 2.33-2.881c.59-1.113.97-2.34 1.11-3.609.15-1.27.06-2.557-.27-3.789a9.954 9.954 0 0 0-1.61-3.39c-6.32-8.557-9.75-19.141-9.71-30.033 0-26.878 20.53-48.746 45.76-48.746 21.75.007 39.62 22.29 44.42 43.638Z"/><path fill="#324E66" d="M1225.61 303.11H1244c0-.645-.06-1.289-.18-1.921-5.64-30.079-30.47-61.189-62.28-61.189-35.04 0-63.54 30.604-63.54 68.218 0 15.396 4.67 29.935 13.49 42.041a9.45 9.45 0 0 0 2.68 2.482 8.626 8.626 0 0 0 3.37 1.188c1.18.154 2.38.056 3.53-.288a8.862 8.862 0 0 0 3.16-1.721 9.588 9.588 0 0 0 2.3-2.881c.59-1.113.96-2.34 1.11-3.609.14-1.27.05-2.557-.27-3.789a9.932 9.932 0 0 0-1.6-3.39c-6.27-8.557-9.67-19.141-9.63-30.033 0-26.878 20.36-48.746 45.4-48.746 21.57.007 39.29 22.29 44.07 43.638Z"/><path fill="#406482" d="M1299.61 303.11H1318c0-.645-.06-1.289-.18-1.921-5.64-30.079-30.47-61.189-62.28-61.189-35.04 0-63.54 30.604-63.54 68.218 0 15.396 4.67 29.935 13.49 42.041a9.45 9.45 0 0 0 2.68 2.482 8.626 8.626 0 0 0 3.37 1.188c1.18.154 2.38.056 3.53-.288a8.862 8.862 0 0 0 3.16-1.721 9.588 9.588 0 0 0 2.3-2.881c.59-1.113.96-2.34 1.11-3.609.14-1.27.05-2.557-.27-3.789a9.932 9.932 0 0 0-1.6-3.39c-6.27-8.557-9.67-19.141-9.63-30.033 0-26.878 20.36-48.746 45.4-48.746 21.57.007 39.29 22.29 44.07 43.638Z"/><path fill="#324E66" d="M1374.61 303.11H1393c0-.645-.06-1.289-.18-1.921-5.64-30.079-30.47-61.189-62.28-61.189-35.04 0-63.54 30.604-63.54 68.218 0 15.396 4.67 29.935 13.49 42.041a9.45 9.45 0 0 0 2.68 2.482 8.626 8.626 0 0 0 3.37 1.188c1.18.154 2.38.056 3.53-.288a8.862 8.862 0 0 0 3.16-1.721 9.588 9.588 0 0 0 2.3-2.881c.59-1.113.96-2.34 1.11-3.609.14-1.27.05-2.557-.27-3.789a9.932 9.932 0 0 0-1.6-3.39c-6.27-8.557-9.67-19.141-9.63-30.033 0-26.878 20.36-48.746 45.4-48.746 21.57.007 39.29 22.29 44.07 43.638Z"/><path fill="#406482" d="M1448.61 303.11H1467c0-.645-.06-1.289-.18-1.921-5.64-30.079-30.47-61.189-62.28-61.189-35.04 0-63.54 30.604-63.54 68.218 0 15.396 4.67 29.935 13.49 42.041a9.45 9.45 0 0 0 2.68 2.482 8.626 8.626 0 0 0 3.37 1.188c1.18.154 2.38.056 3.53-.288a8.862 8.862 0 0 0 3.16-1.721 9.588 9.588 0 0 0 2.3-2.881c.59-1.113.96-2.34 1.11-3.609.14-1.27.05-2.557-.27-3.789a9.932 9.932 0 0 0-1.6-3.39c-6.27-8.557-9.67-19.141-9.63-30.033 0-26.878 20.36-48.746 45.4-48.746 21.57.007 39.29 22.29 44.07 43.638Z"/><path fill="#324E66" d="M1523.46 303.11H1542c0-.645-.06-1.289-.18-1.921-5.68-30.079-30.71-61.189-62.78-61.189-35.31 0-64.04 30.604-64.04 68.218 0 15.396 4.7 29.935 13.6 42.041a9.39 9.39 0 0 0 2.7 2.482c1.05.63 2.2 1.034 3.39 1.188 1.2.154 2.4.056 3.56-.288a8.863 8.863 0 0 0 3.18-1.721 9.528 9.528 0 0 0 2.33-2.881c.59-1.113.97-2.34 1.11-3.609.15-1.27.06-2.557-.27-3.789a9.954 9.954 0 0 0-1.61-3.39c-6.32-8.557-9.75-19.141-9.71-30.033 0-26.878 20.53-48.746 45.76-48.746 21.75.007 39.62 22.29 44.42 43.638Z"/><path fill="#406482" d="M1596.61 303.11H1615c0-.645-.06-1.289-.18-1.921-5.64-30.079-30.47-61.189-62.28-61.189-35.04 0-63.54 30.604-63.54 68.218 0 15.396 4.67 29.935 13.49 42.041a9.45 9.45 0 0 0 2.68 2.482 8.683 8.683 0 0 0 3.37 1.188c1.18.154 2.38.056 3.53-.288a8.862 8.862 0 0 0 3.16-1.721 9.588 9.588 0 0 0 2.3-2.881c.59-1.113.96-2.34 1.11-3.609.14-1.27.05-2.557-.27-3.789a9.932 9.932 0 0 0-1.6-3.39c-6.27-8.557-9.67-19.141-9.63-30.033 0-26.878 20.36-48.746 45.4-48.746 21.57.007 39.29 22.29 44.07 43.638Z"/><path fill="#324E66" d="M1671.61 303.11H1690c0-.645-.06-1.289-.18-1.921-5.64-30.079-30.47-61.189-62.28-61.189-35.04 0-63.54 30.604-63.54 68.218 0 15.396 4.67 29.935 13.49 42.041a9.45 9.45 0 0 0 2.68 2.482 8.683 8.683 0 0 0 3.37 1.188c1.18.154 2.38.056 3.53-.288a8.862 8.862 0 0 0 3.16-1.721 9.588 9.588 0 0 0 2.3-2.881c.59-1.113.96-2.34 1.11-3.609.14-1.27.05-2.557-.27-3.789a9.932 9.932 0 0 0-1.6-3.39c-6.27-8.557-9.67-19.141-9.63-30.033 0-26.878 20.36-48.746 45.4-48.746 21.57.007 39.3 22.29 44.07 43.638Z"/><path fill="#406482" d="M1745.61 303.11H1764c0-.645-.06-1.289-.18-1.921-5.64-30.079-30.47-61.189-62.28-61.189-35.04 0-63.54 30.604-63.54 68.218 0 15.396 4.67 29.935 13.49 42.041a9.45 9.45 0 0 0 2.68 2.482 8.683 8.683 0 0 0 3.37 1.188c1.18.154 2.38.056 3.53-.288a8.862 8.862 0 0 0 3.16-1.721 9.588 9.588 0 0 0 2.3-2.881c.59-1.113.96-2.34 1.11-3.609.14-1.27.05-2.557-.27-3.789a9.932 9.932 0 0 0-1.6-3.39c-6.27-8.557-9.67-19.141-9.63-30.033 0-26.878 20.36-48.746 45.4-48.746 21.57.007 39.29 22.29 44.07 43.638Z"/><path fill="#324E66" d="M1820.46 303.11H1839c0-.645-.06-1.289-.18-1.921-5.68-30.079-30.71-61.189-62.78-61.189-35.31 0-64.04 30.604-64.04 68.218 0 15.396 4.7 29.935 13.6 42.041a9.39 9.39 0 0 0 2.7 2.482c1.05.63 2.2 1.034 3.39 1.188 1.2.154 2.4.056 3.56-.288a8.863 8.863 0 0 0 3.18-1.721 9.528 9.528 0 0 0 2.33-2.881c.59-1.113.97-2.34 1.11-3.609.15-1.27.06-2.557-.27-3.789a9.954 9.954 0 0 0-1.61-3.39c-6.32-8.557-9.75-19.141-9.71-30.033 0-26.878 20.53-48.746 45.76-48.746 21.74.007 39.61 22.29 44.42 43.638Z"/><path fill="#406482" d="M1894.46 303.11H1913c0-.645-.06-1.289-.18-1.921-5.68-30.079-30.71-61.189-62.78-61.189-35.31 0-64.04 30.604-64.04 68.218 0 15.396 4.7 29.935 13.6 42.041a9.39 9.39 0 0 0 2.7 2.482c1.05.63 2.2 1.034 3.39 1.188 1.2.154 2.4.056 3.56-.288a8.863 8.863 0 0 0 3.18-1.721 9.528 9.528 0 0 0 2.33-2.881c.59-1.113.97-2.34 1.11-3.609.15-1.27.06-2.557-.27-3.789a9.954 9.954 0 0 0-1.61-3.39c-6.32-8.557-9.75-19.141-9.71-30.033 0-26.878 20.53-48.746 45.76-48.746 21.74.007 39.61 22.29 44.42 43.638Z"/><path fill="#324E66" d="M1968.46 303.11H1987c0-.645-.06-1.289-.18-1.921-5.68-30.079-30.71-61.189-62.78-61.189-35.31 0-64.04 30.604-64.04 68.218 0 15.396 4.7 29.935 13.6 42.041a9.39 9.39 0 0 0 2.7 2.482c1.05.63 2.2 1.034 3.39 1.188 1.2.154 2.4.056 3.56-.288a8.863 8.863 0 0 0 3.18-1.721 9.528 9.528 0 0 0 2.33-2.881c.59-1.113.97-2.34 1.11-3.609.15-1.27.06-2.557-.27-3.789a9.954 9.954 0 0 0-1.61-3.39c-6.32-8.557-9.75-19.141-9.71-30.033 0-26.878 20.53-48.746 45.76-48.746 21.74.007 39.61 22.29 44.42 43.638Z"/><path fill="#406482" d="M2042.61 303.11H2061c0-.645-.06-1.289-.18-1.921-5.64-30.079-30.47-61.189-62.28-61.189-35.04 0-63.54 30.604-63.54 68.218 0 15.396 4.67 29.935 13.49 42.041a9.45 9.45 0 0 0 2.68 2.482 8.626 8.626 0 0 0 3.37 1.188c1.18.154 2.38.056 3.53-.288a8.862 8.862 0 0 0 3.16-1.721 9.588 9.588 0 0 0 2.3-2.881c.59-1.113.96-2.34 1.11-3.609.14-1.27.05-2.557-.27-3.789a9.932 9.932 0 0 0-1.6-3.39c-6.27-8.557-9.67-19.141-9.63-30.033 0-26.878 20.36-48.746 45.4-48.746 21.57.007 39.3 22.29 44.07 43.638Z"/><path fill="#324E66" d="M2117.46 303.11H2136c0-.645-.06-1.289-.18-1.921-5.68-30.079-30.71-61.189-62.78-61.189-35.31 0-64.04 30.604-64.04 68.218 0 15.396 4.7 29.935 13.6 42.041a9.39 9.39 0 0 0 2.7 2.482c1.05.63 2.2 1.034 3.39 1.188 1.2.154 2.4.056 3.56-.288a8.863 8.863 0 0 0 3.18-1.721 9.528 9.528 0 0 0 2.33-2.881c.59-1.113.97-2.34 1.11-3.609.15-1.27.06-2.557-.27-3.789a9.954 9.954 0 0 0-1.61-3.39c-6.32-8.557-9.75-19.141-9.71-30.033 0-26.878 20.53-48.746 45.76-48.746 21.74.007 39.61 22.29 44.42 43.638Z"/><path fill="#406482" d="m2196.79 272.592-.03.026c-11.43-16.936-28.9-29.618-49.26-29.618-35.01 0-63.5 30.352-63.5 67.657 0 15.269 4.66 29.689 13.49 41.694a9.254 9.254 0 0 0 2.67 2.462 8.674 8.674 0 0 0 3.37 1.178c1.18.153 2.38.056 3.52-.286a8.856 8.856 0 0 0 3.16-1.706 9.387 9.387 0 0 0 2.3-2.857 10.14 10.14 0 0 0 1.11-3.58c.14-1.259.05-2.536-.27-3.757a9.977 9.977 0 0 0-1.59-3.363c-6.28-8.486-9.67-18.984-9.63-29.785 0-26.658 20.35-48.345 45.37-48.345 19.79 0 36.31 18.63 42.58 38.071 4.24 16.254.43 34.401-11.54 47.159a33.176 33.176 0 0 1-3.12 2.917L2172.69 374c6.99-2.821 13.35-7.184 18.66-12.804 22.84-24.333 27.21-60.035 5.44-88.604Z"/><path fill="#444B75" d="M536.951 453H391.194c-16.801 0-28.891-13.658-26.999-30.5 1.891-16.842 17.047-30.5 33.854-30.5h145.757c16.801 0 28.891 13.658 26.999 30.5-1.897 16.842-17.053 30.5-33.854 30.5Z"/><path fill="#FFD251" d="M786.787 453H640.325c-16.888 0-29.03-13.658-27.129-30.5 1.901-16.842 17.13-30.5 34.017-30.5h146.462c16.888 0 29.03 13.658 27.129 30.5-1.9 16.842-17.13 30.5-34.017 30.5Z"/><path fill="#00B7D7" d="M1036.79 453H890.325c-16.888 0-29.03-13.658-27.129-30.5 1.901-16.842 17.13-30.5 34.017-30.5h146.467c16.88 0 29.02 13.658 27.12 30.5-1.9 16.842-17.13 30.5-34.01 30.5Z"/><path fill="#444B75" d="M1285.79 453h-146.47c-16.88 0-29.02-13.658-27.12-30.5 1.9-16.842 17.13-30.5 34.01-30.5h146.47c16.88 0 29.02 13.658 27.12 30.5-1.9 16.842-17.13 30.5-34.01 30.5Z"/><path fill="#FFD251" d="M1535.79 453h-146.47c-16.88 0-29.02-13.658-27.12-30.5 1.9-16.842 17.13-30.5 34.01-30.5h146.46c16.89 0 29.03 13.658 27.13 30.5-1.9 16.842-17.13 30.5-34.01 30.5Z"/><path fill="#00B7D7" d="M1785.62 453h-147.16c-16.97 0-29.17-13.658-27.26-30.5 1.91-16.842 17.21-30.5 34.18-30.5h147.16c16.97 0 29.17 13.658 27.26 30.5-1.91 16.842-17.21 30.5-34.18 30.5Z"/><path fill="#444B75" d="M2035.62 453h-147.16c-16.97 0-29.17-13.658-27.26-30.5 1.91-16.842 17.21-30.5 34.18-30.5h147.16c16.97 0 29.17 13.658 27.26 30.5-1.91 16.842-17.21 30.5-34.18 30.5Z"/><path fill="#D7E8F6" d="M542.956 533.918H365.692c-8.455 0-14.534-6.697-13.582-14.959.951-8.262 8.576-14.959 17.03-14.959h177.265c8.454 0 14.533 6.697 13.582 14.959-.952 8.262-8.576 14.959-17.031 14.959Zm249.654 0H615.345c-8.454 0-14.533-6.697-13.582-14.959.952-8.262 8.576-14.959 17.031-14.959h177.264c8.455 0 14.534 6.697 13.582 14.959-.951 8.262-8.576 14.959-17.03 14.959Zm249.65 0H864.999c-8.455 0-14.534-6.697-13.582-14.959.951-8.262 8.576-14.959 17.03-14.959h177.263c8.46 0 14.54 6.697 13.58 14.959-.95 8.262-8.58 14.959-17.03 14.959Zm249.66 0h-177.27c-8.45 0-14.53-6.697-13.58-14.959.95-8.262 8.58-14.959 17.03-14.959h177.27c8.45 0 14.53 6.697 13.58 14.959-.96 8.262-8.58 14.959-17.03 14.959Zm249.64 0H1364.3c-8.45 0-14.53-6.697-13.58-14.959.95-8.262 8.57-14.959 17.03-14.959h177.26c8.46 0 14.54 6.697 13.58 14.959-.95 8.262-8.57 14.959-17.03 14.959Zm249.66 0h-177.27c-8.45 0-14.53-6.697-13.58-14.959.95-8.262 8.58-14.959 17.03-14.959h177.27c8.45 0 14.53 6.697 13.58 14.959-.95 8.262-8.58 14.959-17.03 14.959Zm249.65 0h-177.26c-8.46 0-14.54-6.697-13.58-14.959.95-8.262 8.57-14.959 17.03-14.959h177.26c8.45 0 14.53 6.697 13.58 14.959-.95 8.262-8.57 14.959-17.03 14.959ZM528.871 789H321l23.413-203.207h207.87L528.871 789Zm249.653 0H570.647l23.419-203.207h207.871L778.524 789Zm249.656 0H820.301l23.413-203.207h207.876L1028.18 789Z"/><path stroke="#fff" stroke-linecap="round" stroke-linejoin="round" stroke-miterlimit="10" stroke-width="3" d="m843.485 586 185.035 203M1052 586 820 789"/><path fill="#D7E8F6" d="M1278.34 788.542h-207.95L1093.81 586h207.96l-23.43 202.542Zm249.75 0h-207.95L1343.56 586h207.95l-23.42 202.542Zm249.75 0h-207.96L1593.31 586h207.95l-23.42 202.542Zm249.74 0h-207.95L1843.05 586H2051l-23.42 202.542ZM500.954 1032H293l23.421-202.536h207.955L500.954 1032Zm249.741 0H542.747l23.421-202.536h207.948L750.695 1032Zm249.745 0H792.493l23.422-202.536h207.945L1000.44 1032Zm249.75 0h-207.95l23.42-202.536h207.95L1250.19 1032Zm249.75 0h-207.95l23.42-202.536h207.95L1499.94 1032Z"/><path stroke="#fff" stroke-linecap="round" stroke-linejoin="round" stroke-miterlimit="10" stroke-width="3" d="m1314.49 830 185.03 202M1523 830l-232 202"/><path fill="#D7E8F6" d="M1749.7 1032.99h-208.05L1565.08 830h208.06l-23.44 202.99Zm249.87 0h-208.05L1814.95 830H2023l-23.43 202.99Zm-1527.354 244H264.17l23.432-202.98h208.047l-23.433 202.98Zm249.865 0H514.028l23.433-202.98h208.052l-23.432 202.98Zm249.865 0H763.893l23.432-202.98h208.053l-23.432 202.98Zm249.864 0h-208.05l23.43-202.98h208.05l-23.43 202.98Zm249.86 0h-208.05l23.43-202.98h208.06l-23.44 202.98Zm249.87 0h-208.05l23.43-202.98h208.05l-23.43 202.98Zm249.86 0h-208.05l23.43-202.98h208.05l-23.43 202.98ZM444.053 1521H236l23.432-202.99h208.053L444.053 1521Zm249.858 0H485.865l23.432-202.99h208.047L693.911 1521Zm249.865 0H735.729l23.433-202.99h208.046L943.776 1521Zm249.864 0H985.594l23.436-202.99h208.04L1193.64 1521Zm249.86 0h-208.04l23.43-202.99h208.05L1443.5 1521Zm249.87 0h-208.05l23.43-202.99h208.05L1693.37 1521Zm249.86 0h-208.05l23.43-202.99h208.06L1943.23 1521Z"/><path fill="#00B7D7" d="M389.231 334c-9 0-17.114 7.137-18.127 15.939-1.012 8.801 5.458 15.938 14.458 15.938 8.999 0 17.113-7.137 18.126-15.938 1.013-8.802-5.464-15.939-14.457-15.939Zm74.354 0c-9 0-17.114 7.137-18.126 15.939-1.013 8.801 5.457 15.938 14.457 15.938 8.999 0 17.113-7.137 18.126-15.938 1.013-8.802-5.458-15.939-14.457-15.939Zm74.36 0c-8.999 0-17.113 7.137-18.126 15.939-1.013 8.801 5.458 15.938 14.457 15.938 9 0 17.114-7.137 18.126-15.938 1.013-8.802-5.464-15.939-14.457-15.939Zm74.354 0c-8.999 0-17.113 7.137-18.126 15.939-1.013 8.801 5.458 15.938 14.457 15.938 9 0 17.114-7.137 18.126-15.938 1.013-8.802-5.457-15.939-14.457-15.939Zm74.361 0c-9 0-17.114 7.137-18.127 15.939-1.012 8.801 5.458 15.938 14.458 15.938 8.999 0 17.113-7.137 18.126-15.938C702.13 341.137 695.653 334 686.66 334Zm74.354 0c-9 0-17.114 7.137-18.126 15.939-1.013 8.801 5.458 15.938 14.457 15.938s17.113-7.137 18.126-15.938c1.013-8.802-5.458-15.939-14.457-15.939Zm74.36 0c-8.999 0-17.113 7.137-18.126 15.939-1.013 8.801 5.458 15.938 14.457 15.938 9 0 17.114-7.137 18.126-15.938 1.007-8.802-5.464-15.939-14.457-15.939Zm74.354 0c-8.999 0-17.113 7.137-18.126 15.939-1.013 8.801 5.458 15.938 14.457 15.938 9 0 17.114-7.137 18.127-15.938 1.012-8.802-5.458-15.939-14.458-15.939Zm74.355 0c-9 0-17.114 7.137-18.127 15.939-1.012 8.801 5.458 15.938 14.458 15.938 8.999 0 17.113-7.137 18.126-15.938 1.013-8.802-5.458-15.939-14.457-15.939Zm74.357 0c-9 0-17.11 7.137-18.12 15.939-1.02 8.801 5.45 15.938 14.45 15.938s17.12-7.137 18.13-15.938c1.01-8.802-5.46-15.939-14.46-15.939Zm74.36 0c-9 0-17.12 7.137-18.13 15.939-1.01 8.801 5.46 15.938 14.46 15.938s17.11-7.137 18.12-15.938c1.02-8.802-5.45-15.939-14.45-15.939Zm74.36 0c-9 0-17.12 7.137-18.13 15.939-1.01 8.801 5.46 15.938 14.46 15.938s17.11-7.137 18.12-15.938c1.02-8.802-5.46-15.939-14.45-15.939Zm74.35 0c-9 0-17.11 7.137-18.12 15.939-1.02 8.801 5.45 15.938 14.45 15.938s17.12-7.137 18.13-15.938c1.01-8.802-5.46-15.939-14.46-15.939Zm74.36 0c-9 0-17.11 7.137-18.12 15.939-1.02 8.801 5.45 15.938 14.45 15.938s17.12-7.137 18.13-15.938c1.01-8.802-5.46-15.939-14.46-15.939Zm74.36 0c-9 0-17.12 7.137-18.13 15.939-1.01 8.801 5.46 15.938 14.46 15.938s17.11-7.137 18.12-15.938c1.02-8.802-5.45-15.939-14.45-15.939Zm148.71 0c-9 0-17.11 7.137-18.13 15.939-1.01 8.801 5.46 15.938 14.46 15.938s17.12-7.137 18.13-15.938c1.01-8.802-5.46-15.939-14.46-15.939Zm-74.35 0c-9 0-17.12 7.137-18.13 15.939-1.01 8.801 5.46 15.938 14.46 15.938s17.11-7.137 18.12-15.938c1.02-8.802-5.46-15.939-14.45-15.939Zm148.71 0c-9 0-17.11 7.137-18.13 15.939-1.01 8.801 5.46 15.938 14.46 15.938s17.12-7.137 18.13-15.938c1-8.802-5.47-15.939-14.46-15.939Zm74.36 0c-9 0-17.12 7.137-18.13 15.939-1.01 8.801 5.46 15.938 14.46 15.938s17.11-7.137 18.12-15.938c1.02-8.802-5.46-15.939-14.45-15.939Zm74.36 0c-9 0-17.12 7.137-18.13 15.939-1.01 8.801 5.46 15.938 14.46 15.938s17.11-7.137 18.12-15.938c1.01-8.802-5.46-15.939-14.45-15.939Zm74.35 0c-9 0-17.11 7.137-18.13 15.939-1.01 8.801 5.46 15.938 14.46 15.938s17.11-7.137 18.13-15.938c1.01-8.802-5.46-15.939-14.46-15.939Zm74.36 0c-9 0-17.11 7.137-18.13 15.939-1.01 8.801 5.46 15.938 14.46 15.938s17.11-7.137 18.13-15.938c1-8.802-5.47-15.939-14.46-15.939Zm74.35 0c-9 0-17.11 7.137-18.12 15.939-1.01 8.801 5.46 15.938 14.46 15.938 8.99 0 17.11-7.137 18.12-15.938 1.01-8.802-5.46-15.939-14.46-15.939Zm74.36 0c-9 0-17.11 7.137-18.13 15.939-1.01 8.801 5.46 15.938 14.46 15.938s17.11-7.137 18.13-15.938c1.01-8.802-5.46-15.939-14.46-15.939Zm-431.13 517.159 18.03 53.274 53.58 8.541-44.49 41.469 2.3 58.557-45.52-27.646-52.15 27.646 16.35-58.557-34.54-41.469 55.63-8.541 30.81-53.274Z"/><path fill="#fff" d="M1732.03 741.94c33.24-32.817 39.27-83.868 13.47-114.025-25.81-30.157-73.67-28.001-106.91 4.816-33.24 32.818-39.27 83.869-13.47 114.026 25.8 30.157 73.67 28.001 106.91-4.817Z"/><path fill="#EB99B6" d="m1196.42 607 18.02 52.998L1268 668.5l-44.47 41.247 2.3 58.253-45.51-27.502L1128.18 768l16.35-58.253L1110 668.5l55.61-8.502L1196.42 607Z"/><path fill="#FFD251" d="M483.518 741.981c33.241-32.817 39.271-83.868 13.469-114.025-25.802-30.157-73.665-28.001-106.906 4.816-33.24 32.818-39.271 83.869-13.469 114.026 25.802 30.157 73.665 28.001 106.906-4.817ZM858.871 1338l17.904 53.33 53.225 8.55-44.194 41.51 2.289 58.61-45.225-27.67-51.809 27.67 16.248-58.61L773 1399.88l55.261-8.55 30.61-53.33Z"/><path fill="#00B7D7" d="M420.092 1229.81c33.241-32.82 39.271-83.87 13.47-114.03-25.802-30.15-73.666-28-106.907 4.82-33.24 32.82-39.271 83.87-13.469 114.03 25.802 30.15 73.666 28 106.906-4.82Z"/><path fill="#FFD251" d="M1176.34 1229.78c33.24-32.81 39.27-83.86 13.47-114.02-25.8-30.16-73.67-28-106.91 4.82-33.24 32.81-39.27 83.86-13.47 114.02 25.81 30.16 73.67 28 106.91-4.82Z"/><path fill="#343959" d="M2462.19 1506c-9.56-2.45-19.26-4.34-28.81-7.39-9.51-3.23-19.18-6.05-28.5-10.45-18.95-7.67-37.14-18.66-54.28-31.57-34.21-26.15-62.21-63.62-79.42-105.06-17.54-41.42-26.21-85.71-29.06-129.25a536.864 536.864 0 0 1-.25-65.3c.57-10.85 1.53-21.69 2.71-32.59.65-5.45 1.34-10.92 2.16-16.45l1.33-8.42c.54-3.03.9-5.35 1.82-9.52l100.22 30.65c-.29.55-1.02 2.98-1.55 4.7l-1.69 5.9c-1.12 4.03-2.15 8.17-3.17 12.33-1.98 8.44-3.73 16.95-5.24 25.5a429.875 429.875 0 0 0-6.06 51.89c-1.91 34.63.89 68.96 9.87 100.55 4.33 15.72 10.59 30.74 18.61 44.69 8.05 13.75 17.3 27 28.91 38.12 22.64 22.89 52.13 39.59 84.21 51.07l-11.81 50.6Z"/><path fill="#444B75" d="M2249.02 1088.55c.93 60.38 36.94 127.45 94.14 127.45 57.19 0 106.88-56.72 107.82-117.1.97-61.49-41.5-106.9-100.61-106.9-59.1 0-102.31 35.06-101.35 96.55Z"/><path fill="#63523B" d="M2498.18 1451.1c-3.14-.89-6.38-1.25-9.62-1.04-8.81.59-25.33 4.16-32.75 22.06-13.2 31.82-5.65 64.1-9.82 86.65-3.54 19.1 2.6 28.96 16.17 35.2 4.3 1.98 8.96 1.04 11.56-2.27 7.4-9.41 22.55-32.76 34.2-78.57 13.41-52.75 2.14-58.68-9.74-62.03Z"/><path fill="#444B75" d="M2387 1607c-5.75-81.5-13.7-163.14-22.22-244.7-8.59-81.53-17.85-162.97-27.78-244.33l104.49-7.97c.69 82.94.67 165.38 0 248.09-.77 82.67-2.1 165.34-5.64 248.28l-48.85.63Z"/><path fill="#E086A6" d="M2244.49 1081.57c-18.32-159.046 15.08-322.679 15.08-322.679L2347.98 711l108.48 47.891s17.48 163.633-.79 322.679c-.01 0-104.12 25.71-211.18 0Z"/><path fill="#343959" d="M2331.54 761s-22.06 87.209-28.54 237.647c0 0 12.05 45.053 26.12 63.353 0 0 12.94-44.35 23.88-64.766 0 0-9.86-167.887-2.51-232.939L2331.54 761Z"/><path fill="#B06982" d="M2301.47 769s18.03-17.387 29.61-30.341c0 0-4.21-3.69-7.38-14.916l-28.7 15.405c.49 5.789 2.11 15.112 6.47 29.852Zm74.74-46c-10.16 12.145-20.48 17.426-20.48 17.426 11.18 17.915 45.02 28.574 45.02 28.574 4.56-15.509 5.97-25.888 6.25-32.531L2376.21 723Z"/><path fill="#FFC999" d="m2321 722.182 3.62-28.182h56.63l3.55 27.661c1.34 10.475-4.12 14.86-13.15 18.289-6.09 2.313-27.58 26.05-27.58 26.05L2321 722.182Z"/><path fill="#B06982" d="m2343.58 766-12.82-32.413s-10.12-2.547-16.26 2.968c-6.14 5.522 7.13 24.658 29.08 29.445Zm11.86-30.271L2343.58 766s24.23-10.884 35.42-21.893l-7.66-6.88-15.9-1.498Z"/><path fill="#E6B58C" d="m2321 721 3.52-27h56.54l1.94 14.888c-17.83 7.263-39.17 11.783-62 12.112Z"/><path fill="#E086A6" d="m2383.37 710 18.99 14.992s3.33 9.185-5.17 36.008c0 0-31.01-9.083-41.24-24.343 0 0 16.54-7.706 27.42-26.657Zm-60.68 1.517-23.25 16.541s-2.76 5.903 5.57 31.807c0 0 16.21-14.418 26.63-25.152 0 0-6.61-5.176-8.95-23.196Z"/><path fill="#FFC999" d="M2455 551.655s16.1-31.891 37.81-16.419c19.49 13.889-3.35 92.816-35.98 67.954l-1.83-51.535Z"/><path fill="#E6B58C" d="M2461 556.38s11.25-25.159 26.16-13.116c13.38 10.811-2.9 67.081-25.29 47.712l-.87-34.596Z"/><path fill="#FFC999" d="M2476.99 568.517c-.21 4.411-4.18 7.753-8.87 7.466-4.7-.288-8.32-4.089-8.11-8.5.21-4.411 4.18-7.753 8.87-7.466 4.7.288 8.32 4.089 8.11 8.5Z"/><path fill="#C79C79" d="M2484.18 544.968c8.14 6.354 6.22 29.533-2.17 42.032 9.96-11.617 13.88-37.072 5.18-43.865-6.22-4.861-11.8-3.411-16.19-.098 3.83-1.808 8.31-1.882 13.18 1.931Z"/><path fill="#E6B58C" d="M2226.19 535.236c21.71-15.473 37.81 16.42 37.81 16.42l-1.83 51.531c-32.63 24.87-55.47-54.054-35.98-67.951Z"/><path fill="#FFC999" d="M2256.71 467.995c-6.63 20.617-5.82 55.88-10.61 82.592-4.64 25.871-18.58 111.727 56.47 143.197 75.06 31.471 143.9-14.769 158.33-70.629 16.28-63 8.35-101.937-5.32-142.772-17.99-53.726-59.5-71.876-103.13-72.372-42.03-.477-81.64 14.671-95.74 59.984Z"/><path fill="#C79C79" d="M2316 644.712c17.95 3.402 35.93 3.924 53.05-.307 8.52-1.948 16.65-5.546 23.99-10.618a50.925 50.925 0 0 0 9.85-9.089c1.35-1.652 2.27-3.65 2.42-5.936.13-2.259-.36-4.662-1.18-6.961 1.38 1.953 2.49 4.277 2.78 6.915.34 2.625-.32 5.472-1.57 7.804-1.26 2.285-2.84 4.074-4.29 6.144-1.7 1.75-3.28 3.722-5.2 5.217-7.38 6.485-16.3 10.625-25.43 12.884-18.31 4.375-37.82 2.311-54.42-6.053ZM2342.88 553s-4.71 38.395-23.16 47.302c0 0 3.2 18.865 23.16 15.326 0 0-8.96-2.991-14.46-12.825 0 0 21.14-18.27 14.46-49.803Z"/><path fill="#A36C56" d="M2368.72 498.84c3.96-4.368 8.78-6.791 13.75-8.297 5-1.585 10.27-1.821 15.56-1.284 5.24.891 10.53 2.692 15.09 6.025 4.57 3.268 8.32 8.127 9.88 13.897l-.57.641c-3.54-3.346-7.48-6.182-11.84-8.087a51.67 51.67 0 0 0-13.6-3.635 73.906 73.906 0 0 0-28.06 1.585l-.21-.845Zm-52.22 6.11a89.73 89.73 0 0 1-12.97 2.312c-3.93.557-7.59.733-11.18 1.146-3.63.092-7.14.583-10.94.792-3.87.184-7.74.825-12.92.799l-.49-.72c3.5-2.633 7.14-5.16 11.21-6.68a42.06 42.06 0 0 1 12.52-3.091c8.58-.511 17.16 1.069 25.1 4.624l-.33.818Z"/><path fill="#2E1E18" d="M2368.29 564c-.55-8.427 1.43-16.82 5.62-23.912 2.22-3.67 5.38-6.765 9.02-9.082 3.73-2.231 7.95-3.115 12.05-3.366 4.09.119 8.36.667 12.18 2.911 3.74 2.178 7.08 5.319 9.14 9.167 4.24 7.59 5.39 16.243 4.33 24.275-2.05-7.741-4.88-15.035-9.09-20.447-4.27-5.339-10.05-7.88-16.41-7.629-6.35.02-12.06 2.851-16.58 8.131-4.41 5.372-7.68 12.388-10.26 19.952Zm-96.09-3.293c-.8-7.712.8-15.492 4.54-22.091 1.98-3.439 4.89-6.343 8.25-8.501 3.45-2.118 7.37-2.858 11.15-3.115 3.77.145 7.72.653 11.24 2.765 3.45 2.053 6.5 4.983 8.38 8.547 3.83 7.03 4.8 14.976 3.69 22.315-2.01-7.049-4.65-13.642-8.47-18.506-3.9-4.785-9.01-7.029-14.72-6.845-5.71.007-10.78 2.469-14.83 7.234-3.96 4.858-6.89 11.267-9.23 18.197Z"/><path fill="#826B4E" d="M2462.23 1620.78c-.62-3.57-1.74-7.01-3.32-10.2-4.34-8.67-14.54-23.85-32.74-23.58-32.37.49-56.07 22.2-76.74 27.79-17.51 4.74-23.08 15.25-22.37 31.72.22 5.21 3.04 9.52 6.95 10.72 11.09 3.38 37.23 8.57 80.62.42 49.94-9.38 49.98-23.38 47.6-36.87Z"/><path fill="#444B75" d="M1874 830h206v221h-206V830Z"/><path fill="#FFC999" d="m2103 918.77.97 41.23 56.03-.77-.97-41.23-56.03.77Z"/><path fill="#FFC999" d="M2117.04 917.868s-29.49-17.36-36.49-23.868v17.751s-4.91-.992-9.53-1.534c-14.55-3.063-45.16-8.677-59.28-5.133-18.88 4.736 13.06 16.786 31.48 18.128 0 0-44.07-1.104-44.22 12.969-.08 7.923 37.11 7.169 44.51 6.938l.02.205c-6.63 1.243-36.21 7.295-34.84 16.283 1.18 7.691 35.71 3.062 38.13 2.731l.02.073c-2.24 1.058-27.98 13.452-23.28 20.455 4.92 7.315 47.46-.469 47.46-.469 23.32-3.929 46.98-22.354 46.98-22.354l-.96-42.175Z"/><path fill="#EB99B6" d="M2217.72 980c-24.28 0-50.79-1.634-79.72-5.198l7.8-74.815c129.9 16.017 219.86-9.56 253.36-71.987l59.84 37.924C2429.76 920.412 2364.26 980 2217.72 980Z"/><path fill="#EB99B6" d="M2429.27 884c-6.03-.002-11.96-1.727-17.17-5.001-5.22-3.275-9.55-7.982-12.55-13.647s-4.57-12.088-4.55-18.62c.02-6.532 1.64-12.942 4.68-18.583 10.93-20.307 11.75-37.578 11.76-37.747.23-20.353 15.53-36.402 34.26-36.402h.44c18.94.254 34.09 17.369 33.86 37.877-.04 3.615-.99 36.37-21.09 73.688-3.02 5.614-7.34 10.272-12.54 13.507-5.21 3.235-11.1 4.934-17.1 4.928Z"/><path fill="#444B75" d="M2363 753c0 5.57-2.11 10.911-5.86 14.849-3.75 3.939-8.84 6.151-14.14 6.151-5.3 0-10.39-2.212-14.14-6.151-3.75-3.938-5.86-9.279-5.86-14.849s2.11-10.911 5.86-14.849c3.75-3.938 8.84-6.151 14.14-6.151 5.3 0 10.39 2.213 14.14 6.151 3.75 3.938 5.86 9.279 5.86 14.849Z"/><path fill="#A36C56" d="M2323.69 453.374s59.34 92.47 148.69 106.626c0 0 31.04-168-120.4-168-147.26 0-109.69 159.293-109.69 159.293s33.15-65.142 81.4-97.919Z"/><path fill="#A36C56" d="M2426.58 381c2.11 2.765 3.68 5.931 4.94 9.194a56.538 56.538 0 0 1 2.75 10.158c.59 3.46.95 6.966 1.05 10.472-.04 3.545.04 6.927-.56 10.682l-9.73-4.175c1.75-2.326 2.99-3.217 4.61-4.417 1.52-1.133 3.21-1.834 4.86-2.464a23.268 23.268 0 0 1 9.96-1.297c3.25.098 6.3 1.127 9.18 2.189 2.85 1.258 5.52 2.811 7.92 4.803l-.19.623a63.208 63.208 0 0 0-8.24-2.182c-2.79-.4-5.61-.741-8.42-.485-2.8.147-5.55.789-8.16 1.9-2.53 1.147-5 2.838-6.66 5.059l-1.27 1.717.22-2.169c1.32-13.107.94-26.737-2.85-39.398l.59-.21Zm25.88 157.921s-.31 38.042 12.27 62.079c0 0 9.26-27.694 10.27-68.646l-22.54 6.567ZM2238 513.324s2.45 62.007 3.95 81.732c0 0 10.71-51.797 19.66-74.189l-23.61-7.543Z"/><path fill="#FFC999" d="m268.62 1478.08 38.536 3.21-2.262 31.3-38.536-3.21 2.262-31.3Z"/><path fill="#FFC999" d="M306.222 1498.23s14.233 32.56 19.778 40.41l-16.43.71s.939 3.69 1.192 8.68c2.017 15.78 5.515 48.94 1.553 63.91-5.292 20.02-14.575-14.9-14.822-34.74 0 0-1.307 47.37-14.113 46.79-7.206-.31-4.563-40.21-3.967-48.14l-.181-.02c-1.475 7.05-8.531 38.49-16.628 36.54-6.93-1.66-.91-38.49-.482-41.08l-.066-.02c-1.084 2.35-13.703 29.34-19.814 23.92-6.394-5.66 2.92-50.92 2.92-50.92 4.792-24.83 22.788-49.27 22.788-49.27l38.272 3.23Z"/><path fill="#E086A6" d="m212.628 1778.26-26.445-220.11 204.9-28.41 26.445 220.11-204.9 28.41Z"/><path fill="#FFC999" d="M325.666 1537.87s7.502 14.06 0 21.16S302 1532 302 1532l23.666 5.87Z"/><path fill="#BFE0E6" d="m266.781 1454.04 49.469 4.12-2.262 31.3-49.469-4.12 2.262-31.3Z"/><path fill="#17284C" d="M324.54 1484 257 1468.45c27.101-136.55 35.453-175.29 66.023-248.45L386 1250.52c-27.753 66.44-35.042 100.39-61.46 233.48Z"/><path fill="#17284C" d="M354.149 1273c-5.821 0-11.544-1.62-16.627-4.7-5.083-3.09-9.357-7.53-12.418-12.91-3.06-5.37-4.805-11.51-5.069-17.83-.264-6.32.962-12.6 3.561-18.26 20.277-44.2 34.585-59.69 39.794-64.3l43.156 57.58s.527-.37 1.454-1.38c-.108.12-8.835 9.84-23.232 41.22-2.836 6.19-7.204 11.39-12.613 15.02-5.41 3.64-11.645 5.56-18.006 5.56Z"/><path fill="#406482" d="M398.148 2001.37c-3.543-82.76-4.876-165.28-5.637-247.78a15002.9 15002.9 0 0 1 0-247.59L497 1513.96c-9.93 81.19-19.191 162.47-27.781 243.84-8.516 81.39-16.459 162.86-22.217 244.2l-48.854-.63Z"/><path fill="#17284C" d="M387.132 2020.23c.21-3.56.931-7.05 2.137-10.37 3.318-9.01 11.71-25.14 29.765-27.31 32.126-3.88 58.058 14.04 79.171 16.7 17.885 2.25 24.588 11.72 25.756 27.83.37 5.1-1.937 9.67-5.667 11.36-10.614 4.78-35.916 13.33-79.819 11.23-50.55-2.41-52.179-16.01-51.343-29.44Z"/><path fill="#466E8F" d="M576.987 1512.17c-.836 60.38-36.476 111.83-87.547 111.83s-99.585-51.45-100.427-111.83c-.86-61.49 41.214-112.17 93.981-112.17 52.767 0 94.847 50.68 93.993 112.17Z"/><path fill="#466E8F" d="M510.131 2014.12c1.736-39.73 1.162-80.13-.049-120.49-1.204-40.39-3.563-80.91-6.241-121.4A5644.62 5644.62 0 0 0 482 1529.87l105-6.87a5754.079 5754.079 0 0 1-6.033 248.38c-1.993 41.35-4.31 82.68-7.819 124.11-3.508 41.43-7.641 82.86-14.273 124.51l-48.744-5.88Z"/><path fill="#444B75" d="M498.014 2040.63c-.097-3.59.305-7.14 1.22-10.52 2.525-9.3 9.501-26.18 27.413-30.2 31.864-7.15 59.46 8.01 80.866 8.48 18.131.4 25.699 9.13 28.297 25.01.823 5.03-1.08 9.81-4.678 11.87-10.215 5.84-34.822 16.94-79.03 19.36-50.892 2.79-53.728-10.56-54.088-24Z"/><path fill="#FFC999" d="m513 1117.01-3.616-27.01h-56.632l-3.55 26.51c-1.344 10.04 4.122 14.24 13.15 17.53 6.087 2.21 27.578 24.96 27.578 24.96l23.07-41.99Z"/><path fill="#E6B58C" d="m513 1116-3.528-26.78h-56.765l-1.946 14.77c17.899 7.2 39.314 11.68 62.239 12.01ZM365.459 966.04s-20.345-28.462-39.006-9.559c-16.751 16.978 17.174 90.359 44.974 60.359l-5.968-50.8Z"/><path fill="#FFC999" d="M548.693 848.969c9.698 19.15 14.258 54.033 23.051 79.511 8.519 24.677 35.365 106.81-34.127 151.02-69.485 44.2-144.624 10.74-167.395-41.76-25.68-59.209-23.755-98.968-16.426-141.608 9.643-56.099 47.959-81.277 91.054-89.438 41.517-7.86 83.015.105 103.843 42.275Z"/><path fill="#A67A46" d="M337.921 891.29s-15.776 195.49 83.257 175.24 77.556-149.76 105.207-146.41c27.651 3.349 117.372-48.692 59.604-138.12 0 0 8.246 27.793-57.344 10.212-65.59-17.589-182.787 10.98-190.724 99.078Z"/><path fill="#E6B58C" d="M511.449 927.613c11.633-17.156 29.177-7.235 36.771-1.627 2.368 1.745 4.106 4.274 5.006 7.195l11.1 36.161c2.142 6.974-.955 14.836-7.374 17.457-23.694 9.672-57.337-41.723-45.503-59.186Z"/><path fill="#B8C9DE" d="M490 1159c3.706 24.59 5.854 49.4 7.607 74.22 1.739 24.83 2.49 49.72 3.247 74.59.128 24.9.391 49.79-.409 74.67-.317 12.44-.94 24.86-1.447 37.29-.787 12.42-1.538 24.84-2.6 37.23l-.763-74.58c-.196-24.83-.409-49.66-1.026-74.48-.232-24.82-1.08-49.63-1.783-74.45-.319-12.41-.755-24.82-1.306-37.23-.342-12.42-.983-24.83-1.52-37.26Z"/><path fill="#444B75" d="M573.831 1154.09S545.758 1125 481.542 1125c-79.636 0-113.923 29.09-113.923 29.09s-4.654 234.81-6.619 408.87c0 0 116.915 35.85 248-3.15-3.953-180.82-14.623-336.63-35.169-405.72Z"/><path fill="#D9E4F1" d="m438 1127.46 11.87-19.46s42.913 6.76 62.442 0L526 1129.3c-.006 0-38.598 9.44-88-1.84Z"/><path fill="#FFC999" d="m603.856 907.053-26.951 29.76-20.948-21.891 26.952-29.76 20.947 21.891Z"/><path fill="#FFC999" d="M499.474 915.99c-2.512-9.017 34.244-14.204 34.244-14.204s-3.231-1.605-6.945-4.655c-12.526-8.59-38.375-27.269-46.498-40.414-10.866-17.58 19.954-2.671 34.244 10.082 0 0-32.892-32.051-24.267-42.559 4.85-5.92 31.562 22.382 36.829 28.068l.133-.139c-4.077-5.86-21.936-32.397-15.359-38.011 5.629-4.807 27.994 24.366 29.558 26.417l.054-.047c-.978-2.457-12.097-30.805-4.318-32.469 8.135-1.738 34.383 35.739 34.383 35.739C586.136 864.088 592 895.36 592 895.36l-26.852 30.438s-62.255 2.478-65.674-9.808Z"/><path fill="#BFE0E6" d="m622.245 920.881-34.598 38.204-20.948-21.891 34.598-38.204 20.948 21.891Z"/><path fill="#444B75" d="m622.308 1220-4.793-73.98c14.685-1.11 23.578-8.47 27.997-23.19 11.632-38.8-10.916-108.91-76.512-167.872L613.054 898c93.689 84.204 116.682 185.06 97.916 247.64-12.999 43.37-46.149 71.17-88.662 74.36Z"/><path fill="#444B75" d="M585.311 1222c-16.427 0-27.057-1.31-27.77-1.4-9.091-1.15-17.393-6.16-23.077-13.95-5.685-7.78-8.287-17.7-7.235-27.57 1.052-9.87 5.673-18.88 12.846-25.05 7.173-6.17 16.311-9 25.402-7.85.272.03 21.888 2.56 50.092-.95 18.892-2.27 36.038 12.4 38.206 32.95.517 4.89.141 9.84-1.105 14.57s-3.338 9.14-6.157 13c-2.819 3.85-6.309 7.06-10.271 9.45-3.962 2.38-8.319 3.9-12.821 4.46a311.394 311.394 0 0 1-38.11 2.34Z"/><path fill="#FFC999" d="m1861.95 1731 40.05-8.14-5.95-43.86-40.05 14.4 5.95 37.6Z"/><path fill="#FFC999" d="M1859.23 1717.43s-11.29 35.93-16.23 44.88l17.37-1.43s-.57 3.97-.27 9.23c-.33 16.76-.25 51.89 5.62 67.03 7.84 20.24 13.64-17.5 11.65-38.29 0 0 6.75 49.36 20.16 47.07 7.54-1.29.24-42.65-1.29-50.87l.19-.04c2.36 7.18 13.35 39.12 21.65 36.02 7.1-2.66-3.42-40.38-4.16-43.02l.06-.03c1.41 2.32 17.75 28.86 23.56 22.39 6.08-6.77-8.84-52.86-8.84-52.86-7.86-25.33-29.57-48.51-29.57-48.51l-39.9 8.43Z"/><path fill="#E086A6" d="m1770.77 1996.1 2.65-234.82 218.59 2.84-2.65 234.82-218.59-2.84Z"/><path fill="#FFC999" d="M1843.27 1761.29s-6.45 15.61 2.4 21.98c8.86 6.37 22.33-31.27 22.33-31.27l-24.73 9.29Z"/><path stroke="#FFD251" stroke-linejoin="round" stroke-miterlimit="10" stroke-width="12.091" d="M1778 1448c38.41 68.52 50.56 104.1 95 244"/><path stroke="#FFD251" stroke-linecap="round" stroke-linejoin="round" stroke-miterlimit="10" stroke-width="12.091" d="M1739 1397s13.62 9.31 39 51"/><path fill="#17284C" d="M1647.22 2225.34c-31.06 4.81-24.43 29.28-3.09 49.45 31.19 29.49 85.26 27.63 93.36 6.07 13.59-36.19-68.31-58.93-90.27-55.52Z"/><path fill="#406482" d="M1692.27 2256c-4.85.06-9.55-1.87-13.14-5.41-3.58-3.54-5.79-8.41-6.17-13.64-5.86-78.54-13.57-157.18-21.81-235.75-9-84.97-18.71-169.84-29.15-254.61l109.42-8.59c.77 86.5.76 172.45.06 258.69-.74 79.68-2.02 159.37-5.15 239.25-.22 5.3-2.31 10.32-5.84 14.01-3.53 3.69-8.23 5.79-13.14 5.85l-15.08.2Z"/><path fill="#466E8F" d="M1536.01 1743.67c.89 63.36 38.61 117.33 92.67 117.33s105.41-53.98 106.31-117.33c.91-64.51-43.63-117.67-99.48-117.67-55.86 0-100.4 53.17-99.5 117.67Z"/><path fill="#17284C" d="M1505.22 2228.35c-31.07 4.95-24.43 30.09-3.09 50.83 31.19 30.3 85.26 28.39 93.36 6.23 13.59-37.19-68.31-60.56-90.27-57.06Z"/><path fill="#466E8F" d="M1548.85 2265.68c-4.94-.11-9.66-2.24-13.18-5.96-3.53-3.72-5.6-8.74-5.78-14.04-2.59-78.61-3.36-156.9-3.75-235.21-.34-84.85-.06-169.44.79-254.47l110.07 8.82c-10.61 83.47-20.63 167.02-30.06 250.65-8.64 77.22-16.89 154.53-23.33 231.66-.43 5.22-2.68 10.07-6.31 13.57-3.63 3.51-8.37 5.4-13.25 5.3l-15.2-.32Z"/><path fill="#FFC999" d="m1605 1326.14 3.79-30.14h59.28l3.72 29.58c1.41 11.2-4.32 15.9-13.77 19.56-6.37 2.47-28.87 27.86-28.87 27.86l-24.15-46.86Z"/><path fill="#E6B58C" d="m1604.7 1325 3.73-28.07h60.13l2.06 15.48c-18.96 7.55-41.64 12.25-65.92 12.59Zm156.27-157.19s21.55-29.83 41.31-10.01c17.74 17.79-18.19 94.71-47.63 63.27l6.32-53.26Zm-218.94 0s-21.55-29.83-41.31-10.01c-17.74 17.79 18.19 94.71 47.63 63.27l-6.32-53.26Z"/><path fill="#FFC999" d="M1567.26 1043.4c-10.23 20.18-15.04 56.95-24.33 83.81-8.99 26.01-37.31 112.59 36.02 159.18 73.34 46.59 152.63 11.32 176.66-44.02 27.1-62.41 25.06-104.32 17.33-149.26-10.18-59.13-50.61-85.67-96.1-94.273-43.8-8.278-87.6.111-109.58 44.563Z"/><path fill="#17284C" d="M1789.98 1088.53s17.2 196.67-89.69 198.38c-97.33 1.56-157.46-16.01-178.69-103.57-5.65-23.33-18.76-80.75.63-145.81 8.71-29.23 33.02-49.128 61.39-53.101a64.92 64.92 0 0 0 4.12-.71c70.4-14.43 193.83 11.621 202.24 104.811Z"/><path fill="#B8C9DE" d="M1628 1373c-.49 13.02-1.08 26-1.38 39.01-.51 12.99-.9 25.98-1.19 38.98-.64 25.98-1.41 51.96-1.62 77.95-.56 25.99-.76 51.98-.94 77.98l-.69 78.08c-.96-12.98-1.64-25.98-2.36-38.98-.46-13.01-1.03-26.02-1.32-39.05-.72-26.05-.48-52.11-.37-78.17.69-26.05 1.38-52.1 2.96-78.1 1.59-25.98 3.54-51.96 6.91-77.7Z"/><path fill="#FFC999" d="m1314.09 1312-39.09 14.29 9.82 52.71 45.18-27.74-15.91-39.26Z"/><path fill="#444B75" d="m1374.29 1038.3 24.99 233.29-217.17 26.84-24.99-233.29 217.17-26.84Z"/><path fill="#FFC999" d="M1319.04 1327.19s9.08-37.81 12.96-47.36l-18.64 2.29s-.5-1.96-1.42-7.14c-1.65-16.7-5.88-51.59-13.52-65.82-10.22-19.04-11.55 19.24-7.11 39.62 0 0-12.57-48.11-25.69-44.01-7.38 2.3 4.8 42.4 7.29 50.35l-.18.08c-3.19-6.82-17.94-37.05-25.86-32.84-6.78 3.61 8.17 39.64 9.23 42.17l-.06.03c-1.67-2.1-21.12-26.25-26.17-19.02-5.27 7.54 15.08 51.3 15.08 51.3 10.84 24.09 35.26 44.16 35.26 44.16l38.83-13.81Z"/><path stroke="#FFD251" stroke-linejoin="round" stroke-miterlimit="10" stroke-width="12.091" d="M1511 1441.43c-63.92 41.38-141.63 45.68-202-88.43"/><path stroke="#FFD251" stroke-linecap="round" stroke-linejoin="round" stroke-miterlimit="10" stroke-width="12.091" d="M1558 1400s-8.58 14.33-47 41"/><path fill="#FFD251" d="M1539.3 1364.7s29.77-30.7 97.87-30.7c84.45 0 120.81 30.7 120.81 30.7s4.94 247.76 7.02 431.42c0 0-123.99 37.84-263-3.31 4.2-190.81 15.51-355.22 37.3-428.11Z"/><path fill="#D9E4F1" d="m1684 1338.02-12.54-21.02s-45.35 7.29-65.99 0l-14.47 23s40.79 10.2 93-1.98Z"/><path fill="#0098B3" d="m1221.91 1745.07-134.51 72.11c-1.01.54-2.13.82-3.26.82H790.343c-7.755 0-10.201-11.34-3.251-15.07l134.512-72.11a6.895 6.895 0 0 1 3.251-.82h293.805c7.75 0 10.2 11.34 3.25 15.07Z"/><path fill="#A67A46" d="m960 1486-129.527 63.89L818 1802l129.527-63.89L960 1486Z"/><path fill="#C4955C" d="M1205.5 1738H947l12.501-252H1218l-12.5 252Z"/><path fill="#444B75" d="M1129 1626.39 957.121 1753 869 1571.61 1040.89 1445l88.11 181.39Z"/><path fill="#E086A6" d="M1174.92 1494.5c-7.04 44.46-46.52 80.5-88.17 80.5s-69.71-36.04-62.67-80.5c7.04-44.46 46.52-80.5 88.17-80.5s69.71 36.04 62.67 80.5Z"/><path fill="#C4955C" d="M1075.55 1802H818l12.455-251H1088l-12.45 251Z"/><path fill="#A67A46" d="M1088.47 1549.89 1218 1486l-12.47 252.11L1076 1802l12.47-252.11Z"/><path fill="#0098B3" d="m2067.84 2010.04 126.32 67.19c.94.5 1.99.77 3.05.77h275.9c7.28 0 9.57-10.57 3.05-14.04l-126.32-67.19c-.95-.5-1.99-.77-3.05-.77h-275.9c-7.28 0-9.57 10.57-3.05 14.04Z"/><path fill="#A67A46" d="m2322 1750 129.53 63.69L2464 2065l-129.53-63.69L2322 1750Z"/><path fill="#C4955C" d="M2076.5 2002H2335l-12.5-252H2064l12.5 252Z"/><path fill="#FFD251" d="M2158 1812.81 2329.22 1939l87.78-180.81L2245.78 1632 2158 1812.81Z"/><path fill="#fff" d="M2239.07 1853.72c25.8-30.15 19.77-81.2-13.47-114.02-33.24-32.82-81.1-34.98-106.9-4.82-25.81 30.16-19.78 81.21 13.46 114.03 33.25 32.81 81.11 34.97 106.91 4.81Z"/><path fill="#E086A6" d="m2282.32 1697 12.82 61.18 57.86 17.53-54.45 38.72-5.19 64.57-46.46-37.26-61.07 22.38 25.72-61.73-32.55-50.75 62.37-.9 40.95-53.74Z"/><path fill="#C4955C" d="M2206.45 2065H2464l-12.45-252H2194l12.45 252Z"/><path fill="#A67A46" d="M2194.45 1813.69 2064 1750l12.56 251.31L2207 2065l-12.55-251.31Z"/><path fill="#0098B3" d="M1253.5 2050.29c82.61-3.43 148.13-46.24 146.35-95.61-1.78-49.37-70.19-86.61-152.79-83.17-82.61 3.44-148.12 46.24-146.34 95.61 1.78 49.37 70.18 86.61 152.78 83.17Z"/><path fill="#444B75" d="M1253.26 2037.01c76.34-3.18 136.89-42.74 135.24-88.37-1.64-45.63-64.86-80.05-141.19-76.87-76.34 3.17-136.89 42.74-135.25 88.37 1.65 45.63 64.87 80.04 141.2 76.87Z"/><path fill="#0098B3" d="M219.64 2277.41c-59.222 29.17-144.675 25.32-190.87-8.59-46.196-33.91-35.632-85.05 23.59-114.23 59.222-29.17 144.675-25.32 190.87 8.58 46.196 33.92 35.632 85.06-23.59 114.24Z"/><path fill="#FFD251" d="M208.379 2256.95c-51.601 25.39-126.063 22.04-166.312-7.48-40.25-29.52-31.047-74.03 20.554-99.42s126.063-22.04 166.312 7.48c40.249 29.52 31.047 74.03-20.554 99.42Z"/><path fill="#0098B3" d="M2322.43 2353.82c82.04-3.41 147.11-45.93 145.34-94.97-1.77-49.03-69.71-86.02-151.75-82.6-82.04 3.41-147.11 45.93-145.34 94.96 1.77 49.04 69.71 86.02 151.75 82.61Z"/><path fill="#E086A6" d="M2322.21 2328.11c76.33-3.18 136.88-42.74 135.24-88.37-1.65-45.63-64.86-80.05-141.2-76.87-76.34 3.18-136.89 42.74-135.24 88.37 1.65 45.63 64.86 80.04 141.2 76.87Z"/><path fill="#0098B3" d="m911.213 2163.31-29.512 62.21 64.299 54.6-102.677-3.08-56.292 52.96-33.939-64.12L654 2244.02l81.698-36.54-4.948-66.48 84.436 41.54 96.027-19.23Z"/><path fill="#fff" d="m900.913 2163.07-26.388 55.96 57.475 49.1-91.771-2.77L789.91 2313l-30.342-57.67L671 2235.67l73.025-32.87-4.426-59.8 75.471 37.36 85.843-17.29Z"/></svg>