<svg xmlns="http://www.w3.org/2000/svg" width="2000" height="2000" fill="none"><path fill="#4B3584" d="M1693.91 1333.65c1.19 4.89 1.42 10.19 1.87 15.35h-23.12c.09-.19.18-.37.27-.55l2.56-6.39 10.01-24.89c3.84 4.79 6.9 10.23 8.41 16.48Zm9.23-111.65c-3.01 11.14-5.67 22.1-7.08 32.06a38.316 38.316 0 0 0-6.36 5.57c-9.32 10.27-13.66 24.61-16.08 38.5-.28 1.69-.87 6.16-.87 6.16l-11.24 37.77-.64 2.19c-.46 1.56-.36 3.32.45 4.75H484.764c-.889 0-1.77-.17-2.591-.51a6.752 6.752 0 0 1-2.197-1.47 6.67 6.67 0 0 1-1.466-2.19 6.738 6.738 0 0 1-.51-2.59v-113.48c-.002-.89.171-1.77.51-2.59a6.67 6.67 0 0 1 1.466-2.19 6.752 6.752 0 0 1 2.197-1.47 6.769 6.769 0 0 1 2.591-.51H1703.14Zm90.24 23.83.62 93.53c0 1.15-.35 2.26-1.01 3.2-2.28 3.74-8.59 6.44-15.99 6.44h-12.3c-2.92-2.29-6.12-4.39-8.91-6.94-.91-.83-1.83-1.74-2.6-2.7-10.56-12.69-5.72-33.29-4.03-51.23.55.04 1.1 0 1.65-.19 1.42-.5 2.88-1.6 3.2-3.06 3.15-14.88 15.63-38.77 26.83-62.61 2.46.32 4.75.96 6.67 1.79 0-.01 5.87 18.66 5.87 21.77Z"/><path fill="#E6325C" d="M1759.78 1386.54c-1.37 1.97-2.83 4.03-4.89 4.95-2 .87-4.19.46-6.2 0a148.916 148.916 0 0 1-41.93-16.24c-4.15-2.39-8.26-5.05-11-9.18-5.84-8.76-3.88-21.47-6.48-32.11-1.5-6.28-4.56-11.74-8.39-16.56l-10 25c-1.14 2.89-1.92 5.94-3.87 8.4-1.52 1.91-4.42 2.39-6.62 1.65l-.14-.05c-1.75-.58-3.46-2.19-3.92-4.03-.82-1.93.04-4.08.59-5.97l11.23-37.94s.59-4.49.86-6.19c2.42-13.95 6.76-28.35 16.06-38.67 1.91-2.1 4.03-3.97 6.35-5.6 3.55 2.68 7.2 5.22 10.95 7.62.82 10.36 4.74 23.07 7.84 30.04 28.43 64.18 31.76 23.22 32.81-.5 0 0-5.11 35.78 5.43 48.54 6.39 7.75 17.7 11.1 20.12 21.42 2.01 8.76-3.56 17.85-8.8 25.42Z"/><path fill="#F7AF4D" d="M684.826 483.979c-12.898 14.102-21.094 31.769-23.823 50.548-.621 4.277-4.242 7.473-8.577 7.473h-77.712c-4.343 0-7.975-3.211-8.58-7.499-2.703-19.12-10.807-36.075-24.118-50.675C526.466 466.764 517 444.064 517 419.189c0-55.416 47.05-99.896 103.474-95.945 47.45 3.34 85.895 41.601 89.276 88.868 1.968 27.724-7.805 53.181-24.924 71.867Z"/><path fill="#C2DEF5" d="M612.914 620h-.83C589.394 620 571 604.239 571 584.797v-26.361c0-.646.258-1.266.717-1.722a2.454 2.454 0 0 1 1.731-.714h78.104c.649 0 1.272.257 1.731.714.459.456.717 1.076.717 1.722v26.361C653.999 604.239 635.605 620 612.914 620Z"/><path fill="#2A2150" d="M613.415 623h-.83C588.002 623 568 605.389 568 583.741v-26.815a5.964 5.964 0 0 1 1.719-4.189 5.84 5.84 0 0 1 4.146-1.737h78.269a5.84 5.84 0 0 1 4.146 1.737 5.963 5.963 0 0 1 1.72 4.189v26.815C658 605.388 637.998 623 613.415 623Zm-38.59-65.106v25.846c0 17.845 16.937 32.362 37.758 32.362h.831c20.821 0 37.76-14.519 37.76-32.362v-25.846h-76.349Z"/><path fill="#2B2150" d="M473.839 438h-78.558a2.296 2.296 0 0 1-1.614-.667 2.293 2.293 0 0 1-.667-1.613c0-1.26 1.02-2.278 2.281-2.278h78.559a2.283 2.283 0 0 1 2.282 2.279 2.282 2.282 0 0 1-2.283 2.279Zm356.879 0h-78.56a2.297 2.297 0 0 1-1.615-.667 2.293 2.293 0 0 1-.667-1.613c0-1.26 1.02-2.278 2.282-2.278h78.56a2.278 2.278 0 0 1 .874 4.385 2.297 2.297 0 0 1-.874.173ZM612.999 299.017a2.289 2.289 0 0 1-2.108-1.408 2.268 2.268 0 0 1-.173-.872v-78.458c0-1.26 1.02-2.279 2.281-2.279a2.279 2.279 0 0 1 2.282 2.279v78.458a2.287 2.287 0 0 1-.668 1.612 2.274 2.274 0 0 1-1.614.668Zm-98.4 40.707a2.27 2.27 0 0 1-1.613-.667l-55.551-55.478a2.273 2.273 0 0 1 .023-3.199 2.284 2.284 0 0 1 3.204-.022l55.55 55.477a2.277 2.277 0 0 1-1.613 3.889Zm196.802 0a2.285 2.285 0 0 1-2.107-1.406 2.282 2.282 0 0 1 .494-2.483l55.548-55.477a2.274 2.274 0 0 1 2.486-.495 2.282 2.282 0 0 1 1.235 2.977 2.272 2.272 0 0 1-.494.739l-55.549 55.478a2.287 2.287 0 0 1-1.613.667Z"/><path fill="#2BB19E" d="M1841 1643.98v53.27c0 44.76-40.93 79.75-91.43 79.75H540.517c-5.827 0-10.517-4.14-10.517-9.92v-.23c0-5.82 4.69-10.55 10.517-10.55h5.919l-.82.95v.6h514.124c30.69 0 55.55-24.25 55.55-54.19v-64.96c0-29.93-24.86-54.18-55.55-54.18H730.652v-.27H540.517c-5.827 0-10.517-4.78-10.517-10.51v-.18c0-5.83 4.69-10.56 10.517-10.56h962.643v32.62c0 2.55 1.92 3.96 3.28 2.41l30.14-35.03h7.38l30.14 35.03c1.37 1.55 3.28.14 3.28-2.41V1563h172.19c50.5 0 91.43 36.3 91.43 80.98Z"/><path fill="#C2DEF5" d="M545 1757.42v.58h515.33c30.74 0 55.67-24.35 55.67-54.39v-65.22c0-30.04-24.93-54.39-55.67-54.39H545v.58c21.05 25.52 22.039 149.25 0 172.84Z"/><path fill="#F7AF4D" d="M1795 1353.32c.01.63-.04 1.26-.13 1.89-.91 5.95-6.08 9.09-11.71 9.09 0-.05-14.67-.73-14.67-.73-.05-.83-.17-1.65-.36-2.46-1.23-5.14-4.64-8.56-8.61-11.66h12.25c7.38 0 13.66-2.68 15.94-6.42.18-.29 2.88 1.5 3.14 1.7 2.62 2.06 4.11 5.27 4.15 8.59Zm-.01 197.98v.22c0 5.97-4.64 11.48-10.47 11.48H575.424c-50.446 0-91.424-37.12-91.424-82.98v-54.51c0-33.98 22.582-63.21 54.863-76.05H1690.86c.41 4.09.91 8.06 2.19 11.65.32.87.64 1.69 1.05 2.46h-599.86c-31.28 0-56.6 24.59-56.6 54.93v65.8c0 14.17 5.56 27.15 14.71 36.89 10.34 11.07 25.27 17.99 41.89 17.99l690.28 1.32c5.83 0 10.47 4.87 10.47 10.8Z"/><path fill="#C2DEF5" d="M1779.59 1363.45c-20.02 29.28-20.47 148.81 1.41 171.96v.59h-203.86v-96.83h-74.15V1536h-410.44c-15.29 0-29.16-5.9-39.35-15.43-10.6-9.95-17.2-23.84-17.2-39.27v-65.6c0-30.19 25.34-54.7 56.55-54.7h600.83c.32.86.64 1.68 1.04 2.45.37.86.82 1.68 1.37 2.45 2.73 4.09 6.82 6.72 10.97 9.08a148.923 148.923 0 0 0 41.8 16.07c2 .46 4.19.87 6.19 0 2.05-.9 3.5-2.95 4.87-4.9 4.73-6.76 9.73-14.8 9.14-22.7-.05-.82-.17-1.64-.36-2.45h12.6s-.96 1.77-1.41 2.45Z"/><path fill="#5970B4" d="m733.149 1562.91-85.999.09c-19.466-23.84-24.15-45.54-24.15-71.7v-70.19c0-26.07 14.235-56.4 39.202-71.11h68.4c-30.426 5.72-53.71 35.42-53.71 71.11v70.19c.001 36.74 24.605 67.11 56.257 71.61Zm145.851 0-86 .09c-19.465-23.98-24.15-45.77-24.15-72.01v-70.52c0-25.65 13.553-55.35 37.566-70.47h65.806c-28.333 7.58-49.481 36.28-49.481 70.47v70.52c.001 36.87 24.606 67.42 56.259 71.92Z"/><path fill="#4A5DA6" d="M1438 881.95v.228c0 5.93-4.88 10.858-10.95 10.858h-1.46c0-.046.05-.091.09-.136v-.593H706.288c-32.613 0-59.067 24.954-59.067 55.704v66.789c0 30.75 26.454 55.7 59.067 55.7h35.03v23.46l-3.421.04h-19.43c-8.34.01-16.652-.96-24.768-2.87-40.732-9.59-70.699-42.25-70.699-81.07v-55.161c0-46.26 42.739-83.899 95.467-83.899h708.583c6.07.001 10.95 4.929 10.95 10.95Zm0 200.19v.23c0 6.02-4.88 10.86-10.95 10.86l-589.673.64v-23.36l589.673.68c6.07 0 10.95 4.93 10.95 10.95Z"/><path fill="#C2DEF5" d="M1423.91 893.728c-22.22 26.386-23.22 152.572.09 176.682v.59H836.799V965.504H740.92V1071h-34.963c-32.552 0-58.957-24.93-58.957-55.64v-66.717C647 917.928 673.405 893 705.957 893H1424v.592c-.05.045-.09.09-.09.136Z"/><path fill="#E6325C" d="M1733 1091.58c-2.32 17.42-15.11 46.18-23.07 84.78-2.87 13.93-7.83 29.94-12.01 45.64h-.05l-1155.355-.5c-5.825 0-10.511-2.95-10.511-6.58v-.13c0-3.63 4.687-6.62 10.511-6.62h190.042v-.78h499.903c31.22 0 56.57-15.1 56.57-33.75v-40.51c0-18.69-25.35-33.79-56.57-33.79H837.132v73.67c0 3.26-2.503 5.08-4.233 3.08l-43.687-50.58-43.688 50.58c-1.73 2-4.233.18-4.233-3.08v-73.67H543.787v.36c.273.18.5.41.773.59h-2.048c-5.826 0-10.512-2.95-10.512-6.53v-.14c0-3.67 4.687-6.62 10.512-6.62h987.428c1.92.85 3.86 1.64 5.83 2.36 23.25 8.44 125.83 7.08 157.55 5.85 10.01-.36 35.77-1.73 39.68-3.63Z"/><path fill="#C2DEF5" d="M1291 1133.09v40.87c0 18.8-25.41 34.04-56.7 34.04H544v-.37c22.442-14.78 21.439-92.29 0-108.26v-.37h197.972v74.31c0 3.3 2.509 5.13 4.243 3.11l43.79-51.02 43.791 51.02c1.734 2.02 4.243.19 4.243-3.11V1099H1234.3c31.29 0 56.7 15.24 56.7 34.09Z"/><path fill="#E6325C" d="M1196.33 691.889c-.54-1.504-1.07-3.008-1.6-4.517 0 0-50.55-143.974-52.43-148.879-5.9-15.507-19.11-28.074-35.44-31.756l-36.98-8.349c-7.34-1.653-14.68-3.244-21.99-4.972 3.03.74-.61 6.198-.61 7.39 0 8.19-5.59 14.543-11.52 19.51-6.94 5.813-14.46 10.692-22.73 14.389-.45.204-2.87-1.409-3.27-1.617-5.28-2.735-10.349-5.87-15.087-9.47-3.963-3.011-7.743-6.524-10.568-10.403-1.044-1.456-1.999-2.913-2.682-4.458-2.37-5.365-1.965-11.039-1.965-16.757-1.822.593-3.689 1.186-5.512 1.872-4.008 1.414-8.427.83-12.436 2.427-10.388 4.151-21.605 5.984-32.09 9.883-9.389 3.492-17.758 11.522-25.987 17.437-5.5 3.953-9.387 9.032-12.709 14.877-6.813 11.942-62.86 130.763-64.135 134.049-1.211 3.029-3.16 6.723-3.325 10.039-.341 6.49-.628 13.359 1.002 19.71 1.287 5.636 7.412 15.774 11.965 19.391 15.944 12.662 65.67-9.612 65.67-9.612-.456 1.961-7.303 16.365-8.624 20.014a42.7 42.7 0 0 0-1.231 3.377c-.091.229-.182.456-.228.685L1013.89 781s99.67-32.532 99.53-33.17c35.55-9.641 95.34-30.285 82.91-55.941Zm-80.31 1.734.91-41.018 11.85 19.802 2.68 4.517 2.37 3.969-17.81 12.73Z"/><path fill="#F7AF4D" d="M923 891.261c-15.941 1.188-50.781 2.33-66.676 3.516-3.417.274-7.015.503-10.476-.639-6.877-2.238-10.748-8.861-12.889-14.707-8.608-23.339-6.103-53.345 8.243-71.431l68.499 22.516L923 891.261Z"/><path fill="#2B2150" d="M876.212 869.01c-.356 0-.706-.088-1.022-.256a2.227 2.227 0 0 1-.791-.707 2.294 2.294 0 0 1-.265-2.065c3.442-9.532 4.557-19.783 3.318-30.468a2.273 2.273 0 0 1 1.114-2.23c.254-.144.533-.236.821-.271a2.204 2.204 0 0 1 1.623.476c.459.369.757.907.83 1.498 1.327 11.393.13 22.344-3.551 32.548-.157.432-.44.806-.811 1.069a2.183 2.183 0 0 1-1.266.406Zm15.649 1.99a2.199 2.199 0 0 1-1.812-.964 2.298 2.298 0 0 1-.265-2.065c3.395-9.394 4.539-19.929 3.321-30.465a2.273 2.273 0 0 1 1.114-2.23c.254-.145.533-.237.822-.271 1.195-.165 2.315.74 2.453 1.974 1.305 11.237.074 22.489-3.555 32.545a2.25 2.25 0 0 1-.812 1.07 2.183 2.183 0 0 1-1.266.406Z"/><path fill="#F7AF4D" d="M1147.81 796.315c17.44 20.754 23.96 56.83 18.08 83.362-1.37 6.179-4.21 13.049-10.26 14.857-3.06.913-6.34.306-9.47-.306-14.65-2.867-46.51-7.442-61.16-10.309l.47-66.39c15.53-5.869 59.89-24.138 62.34-21.214Z"/><path fill="#2B2150" d="M1124.76 863.96c-.46 0-.9-.14-1.27-.4-.38-.26-.66-.628-.83-1.057a100.042 100.042 0 0 1-6.54-36.238c.01-.602.25-1.177.67-1.602.42-.424.98-.662 1.58-.663h.01c.3.001.59.062.86.178.27.116.52.285.72.498.21.213.38.465.49.743.11.277.16.574.16.874-.07 11.702 2.09 23.656 6.24 34.569.13.345.18.717.13 1.085-.04.367-.17.718-.37 1.023-.21.305-.49.555-.81.727-.32.172-.68.263-1.04.263Zm-14.34.656c-.45-.001-.89-.14-1.27-.4-.37-.26-.66-.628-.82-1.057a100.026 100.026 0 0 1-6.54-36.235c0-.602.24-1.178.66-1.602.42-.425.99-.663 1.58-.663h.02c1.24.006 2.24 1.035 2.23 2.292-.07 11.705 2.09 23.657 6.24 34.567.21.564.19 1.19-.05 1.742s-.68.985-1.24 1.204c-.26.1-.53.152-.81.152ZM1097.63 868c-.45-.001-.89-.14-1.27-.4-.37-.26-.66-.629-.82-1.058a100.042 100.042 0 0 1-6.54-36.238c.01-1.257.86-2.168 2.26-2.265.29.001.59.062.86.178a2.267 2.267 0 0 1 1.2 1.241c.11.277.17.574.17.873-.07 11.691 2.08 23.646 6.24 34.568.13.346.17.718.13 1.086a2.291 2.291 0 0 1-1.18 1.751c-.33.173-.68.264-1.05.264Z"/><path fill="#2BB19E" d="m1192.47 814.944-29.18 8.264c-3.38-10.172-8.27-19.525-14.52-26.927-2.52-2.951-47.15 15.314-62.82 21.172 1.46 21.046-1.48 46.157-.48 66.281.09 0 .32 3.86.32 3.86l-69.65-22.703L924.075 891l-13.335-60.391-83.574-27.243c-22.241-7.22-34.343-30.967-27.036-53.079l.228-.773c4.157-12.576 13.656-21.885 25.254-26.244.64-.272 1.325-.499 2.01-.727a41.879 41.879 0 0 1 6.257-1.543c2.877.681 5.48 2.997 8.221 4.359 5.435 2.588 11.691 1.18 17.582-.544l154.588 56.349 152.76-47.314c21.2-6.565 44.61 4.801 52.28 25.566 7.64 20.667-1.41 44.371-21.83 53.63-1.63.735-3.3 1.369-5.01 1.898Z"/><path fill="#8396CC" d="M978.601 498.497h-26.825A3574.04 3574.04 0 0 0 972.76 494h5.752c-.13 1.498-.1 3.005.089 4.497Zm93.909 0h-23.72c-.05-1.53-.27-3.014-.77-4.497h.23c8.09 1.529 16.17 3.012 24.26 4.497Zm-90.269 10.341a26.132 26.132 0 0 0 3.19 4.496h-76.162a52.43 52.43 0 0 1 5.572-3.732c.448-.269.943-.54 1.437-.764h65.963Zm139.559 4.498h-78.14a30.48 30.48 0 0 0 2.79-4.497h67.13a56.276 56.276 0 0 1 8.22 4.497Zm-124.462 10.386a353.038 353.038 0 0 0 7.102 4.496H895.339a82.757 82.757 0 0 1 3.37-4.496h98.629Zm139.472 4.498H1024.7c.36-.226.77-.45 1.13-.676 2.02-1.259 4.09-2.519 6.06-3.822h101.51a56.224 56.224 0 0 1 3.41 4.498Zm8.04 14.838H886.351c.81-1.53 1.664-3.013 2.517-4.497h253.962c.72 1.478 1.4 2.978 2.02 4.497Zm5.31 14.884H878.893c.584-1.169 1.123-2.294 1.707-3.463.181-.358.36-.674.494-1.033h267.626c.49 1.483.99 2.966 1.44 4.496Zm-276.323 10.346h21.39v4.509h-23.575a136.596 136.596 0 0 0 2.185-4.509Zm233.693 0-17.57 4.509H921.121l-17.565-4.509h203.974Zm46.69 4.509h-38.36v-4.509h37.18c.41 1.457.82 2.961 1.18 4.509Zm-287.574 10.384h28.581v4.464h-30.81c.728-1.504 1.456-3.007 2.229-4.464Zm182.814 0-17.39 4.463h-53.196l-17.385-4.463h87.971Zm108.59 4.463h-42.19v-4.464h41c.14.545.28 1.048.41 1.593.27.958.5 1.96.78 2.871Zm-298.684 10.383h35.861v4.463H857.18c.729-1.503 1.457-3.004 2.186-4.463Zm303.044 4.463h-46.55v-4.463h45.19c.36 1.503.86 3.006 1.36 4.463Zm-310.281 10.384h43.098v4.509h-45.329c.729-1.503 1.502-3.006 2.231-4.509Zm315.381 4.509h-51.65v-4.509h50.06c.5 1.503 1.05 3.052 1.59 4.509Zm-322.617 10.339h50.334v4.509h-52.564c.727-1.549 1.502-3.006 2.23-4.509Zm328.447 4.509h-57.48v-4.509h55.66c.59 1.548 1.18 3.006 1.82 4.509Zm-335.728 10.384h57.615v4.509h-59.846c.774-1.505 1.502-3.008 2.231-4.509Zm342.418 4.507h-64.17v-4.509h62.07c.69 1.503 1.32 3.006 2.1 4.509Zm-349.655 10.339h64.852v4.509h-66.945c.661-1.52 1.359-3.023 2.093-4.509Zm356.675 4.488h-60.64c-.79-1.484-1.56-2.967-2.39-4.496h61.02c.7 1.483 1.4 2.967 2.01 4.496Zm-267.338 14.868h-95.48a2.092 2.092 0 0 1-1.229-.41 2.14 2.14 0 0 1-1.002-1.822c0-1.275.956-2.186 2.185-2.231h92.294l3.232 4.463Zm269.868.136-58.29-.228-2.69-4.509 59.62.228c.5 1.503 1 2.961 1.36 4.509Zm-258.992 14.71H824.232c-.364 0-.729-.091-1.046-.273-.729-.363-1.183-1.092-1.183-1.957s.454-1.594 1.183-1.958a1.763 1.763 0 0 1 1.046-.319h103.034l3.322 4.507Zm264.412.008h-77.38c1.86-1.59 3.8-3.09 5.8-4.497h71.36c.04.361.08.676.08 1.035.1 1.124.14 2.293.14 3.462Zm-260.408 10.376c-.228.41-.363.592-.5.637-1.912.501-6.281 2.323-10.195 3.872h-99.666c-.41 0-.82-.136-1.139-.364a2.108 2.108 0 0 1-1.092-1.867c0-.456.136-.911.364-1.275v-.046c.456-.592 1.138-.956 1.867-.956h110.361v-.001Zm258.818 0c-.23.87-.52 1.722-.87 2.55-.28.661-.59 1.314-.91 1.958h-97.07c-.96-1.457-2.32-2.96-3.82-4.327-.09-.046-.14-.136-.23-.182l102.9.001Zm-310.024 14.851a66.634 66.634 0 0 0-7.236 3.956c.405.181.809.405 1.258.54h-44.754a16.115 16.115 0 0 1-2.427-1.888c-.853-.809-1.663-1.664-2.336-2.608h55.495Zm82.699 4.506h-69.221c.364-1.503.683-2.961.911-4.509h50.743l17.567 4.509Zm217.905-4.51c-1.64 1.64-3.46 3.097-5.37 4.509h-84.93l.82-4.509h89.48Zm-170.98 19.402H894.817c-.902-.4-1.812-.78-2.73-1.14-.546-.228-1.138-.456-1.684-.682.364-.912.729-1.776 1.047-2.687h115.91a58.297 58.297 0 0 0 5.65 4.509Zm145.13-4.509c-2.55 1.002-5.1 1.866-7.6 2.733-1.64.592-3.37 1.184-5.1 1.776h-54.43l.82-4.509h66.31Zm-42.51 14.847c-4.34 1.496-8.67 2.983-13.02 4.463H930.361a1030.209 1030.209 0 0 1-10.696-4.463h195.965Zm-51.56 14.869s-11.67 3.104-15.47 4.497h-82.032c-3.595-1.439-7.15-2.967-10.704-4.497h108.206Z"/><path fill="#EA5E83" d="m699 698-64.705 149.877-52.664 13.716c1.864-4.859 4.045-11.628 4.227-14.579.681-12.445-.409-24.299-4.817-35.516-2.136-5.45-7.043-6.403-12.769-5.041-.681.181-15.221 1.317-16.63 10.172-5.316 33.292-18.721 36.334-25.4 42.011-1.226 1.045-2.181 2.589-2.863 4.36L437 853.144l48.483-144.291 120.094 9.356.045-.181L699 698Z"/><path fill="#F7AF4D" d="M189.996 1736.38c-.182 10.3-9.44 18.37-17.881 24.86-2.178 1.68-4.537 3.45-7.215 3.72-2.633.27-5.038-.91-7.307-2.13-16.292-8.67-31.269-19.6-44.384-32.44-4.175-4.04-8.214-8.39-10.211-13.88-4.22-11.66 1.861-24.95 1.997-37.56.091-7.44-1.906-14.47-4.946-21.14l-24.098 30.17c-2.406 3.04-6.99 3.58-10.393 1.22l-.136-.04c-3.404-2.36-4.448-6.76-2.315-9.98l25.868-40.02s2.042-4.71 2.86-6.44c6.988-14.51 16.382-28.8 30.405-36.97 7.761-4.53 17.201-6.58 25.823-5.44l-2.224 2.27c-6.444 10.11-3.495 31.34.771 43 2.405 6.62 5.31 11.66 8.395 15.29 5.427 6.38 13.396 9.21 21.557 5.99a26.29 26.29 0 0 0 4.039-2c-7.125 17.24-15.384 35.43-7.806 50.99 5.173 10.71 17.473 18.37 17.201 30.53Z"/><path fill="#F5AE9E" d="M183.664 1646.57c-6.758 15.75-26.489 18.08-37.148-11.43-4.264-11.71-7.212-33.02-.771-43.18l4.788-4.96c-.953 1.91 24.24 23.41 26.054 24.86 5.08 4.15 10.524 8.06 15.785 10.98 1.224.68 2.449 1.32 3.628 1.82 0 0-3.766 6.84-2.722 5.34.545-.78-9.614 16.57-9.614 16.57Z"/><path fill="#F7AF4D" d="M433.823 1768.73c-.769 2.64-1.629 5.41-3.621 7.19-1.947 1.73-4.619 2.18-7.154 2.5-18.384 2.32-36.993 2.09-55.241-.73-5.75-.86-11.637-2.09-16.526-5.41-10.368-7.01-13.357-21.29-20.783-31.66-4.346-6.05-10.142-10.69-16.572-14.33l-1.494 38.44c-.135 3.86-3.531 6.96-7.697 7h-.135c-4.166.09-7.608-2.86-7.833-6.73l-2.944-47.39s-1.133-5.01-1.495-6.92c-3.033-15.83-3.938-32.84 2.491-47.53 3.713-8.5 9.554-15.19 17.478-19.15.452-.09-.135.32 0 0 3.124 13.37 6.837 27.61 17.024 36.75 10.188 9.19 24.994 11.33 38.624 9.92 3.35-.32 7.018-1.05 9.191-3.68.724-.91 1.223-2.01 1.585-3.14 6.158 18.15 8.196 33.34 22.594 39.52 11.048 4.69 25.084 4.83 32.103 14.83 5.975 8.51 3.302 20.38.405 30.52Z"/><path fill="#F5AE9E" d="M377 1685.65c-4.798 7.67-22.743 7.72-44.794-3.99-11.026-5.84-19.053-22.65-20.206-34.69a42.01 42.01 0 0 1 3.644-1.97l54.343 5.65c1.57 3.31 5.767 31.28 7.013 35Z"/><path fill="#4B3584" d="M428 1168.94c-1.096 56.91-11.873 142.43-18.541 190.59v.09c-2.101 15.26-3.79 26.7-4.613 32.35-.137.78-.228 1.46-.32 2-.136.87-.228 1.42-.228 1.69-.045.18-.045.27-.045.32l-.092.64-15.938 127.17-5.297 42.28v.13l-10.778 85.8-5.298-.55-5.068-.54-15.939-1.64-5.297-.55-15.892-1.64-5.297-.54-15.892-1.64-.731-.09 8.996-183.03c-.411.59-3.425 4.92-8.266 11.8-1.552 2.28-3.379 4.87-5.343 7.7-4.521 6.47-9.956 14.21-15.892 22.73-.548.73-1.049 1.51-1.598 2.28-31.099 44.43-75.442 107.53-83.845 118.01-.228.28-.411.55-.593.73-.183.18-.32.32-.412.46-.046.04-.091.04-.137.09-1.963.91-14.978-9.25-19.409-12.85-.638-.5-1.095-.91-1.324-1.1-1.325-1.14-2.649-2.27-3.973-3.46-5.48-4.92-10.686-10.11-15.938-15.35-.182-.19-.64-.55-1.142-.96l-.091-.09c-1.599-1.32-4.019-3.28-3.746-3.97 5.571-12.94 48.454-95.27 63.341-124.16 1.781-3.5 16.44-30.93 21.189-39.09 5.389-9.43 10.778-19.23 17.262-27.97 1.598-2.15 6.21-6.2 9.178-8.89.047 0 .047-.04.047-.04 1.096-1.01 1.964-1.83 2.329-2.28 2.923-3.46 1.918-5.7 1.918-5.7-.776-33.94-2.877-68.07-7.352-101.74 2.65.68 5.207.96 6.029.45 5.297-3.23 5.343-5.24 1.918-8.38-6.256-5.74-10.092-21.83-10.777-25.24-.456-2.46-2.192-8.8-4.339-14.99 0-.05 0-.05-.046-.09-1.187-7.66-2.192-14.13-2.786-18.46-1.46-10.43-2.009-21-2.009-31.53v-1.82c.851.1 1.703.2 2.557.28 17.946 1.86 67.633 6.37 99.235 2.82 7.81-.86 16.212-40.78 16.212-40.78 23.793 0 52.426-4.19 52.426-4.19s.456 27.57 0 33.26c-.226 2.69 6.212 1.23 11.647-.32Z"/><path fill="#F5AE9E" d="M198.905 1212c-9.811 7.34-15.299 64.64-15.299 64.64-4.352 17.34 15.608 36.88 32.285 39.34 11.407 1.18 25.056-43.03 26.161-52.59 0 0 6.121 7.79 9.273 10.48 2.277 1.94 10.798 4.22 12.495 3.16 5.185-3.24 5.23-5.22 1.869-8.36-6.15-5.74-9.921-21.8-10.574-25.2-.945-4.85-6.83-25.29-10.801-29l-45.409-2.47Z"/><path fill="#2BB19E" d="M361.248 940.52c-5.001-15.691-16.138-28.562-27.366-40.57-17.776-18.966-36.505-37.068-56.098-54.123l-33.64 8.05a35.97 35.97 0 0 0-2.137.591c-11.593 3.274-21.049 7.914-22.958 17.1l-25.185 166.962C189.136 1057.18 189 1213 189 1213h58.461l.591-34.98c17.865 1.87 67.326 6.37 98.786 2.82 7.774-.86 16.138-40.7 16.138-40.7 2.227-52.12-.909-105.47 1.364-158.005.59-13.962 1.135-28.288-3.092-41.615ZM248.597 1148.1l1.728-98.56 14.183-58.535 9.229 56.125-25.14 100.97ZM561 895.265 476.945 1025.8c-3.638 11.6-17.413 16.42-27.504 9.64l-24.594-16.56c3.592 52.76 8.911 133.67 9.047 147.86-2.136.32-19.093 6.74-18.73 2.42.454-5.69 0-33.21 0-33.21s-8.547-67.08-9.411-76.09c-1.591-16.69 1.91-112.291 2.001-119.114.09-6.413-2.455-12.599-5-18.512a1863.156 1863.156 0 0 0-34.549-75.773c-1.501-3.002-3.046-6.14-5.818-8.05-1.638-1.182-3.592-1.773-5.592-2.137-.091-1.092-.228-2.183-.319-3.274l30.186 8.278c14.638 4.775 33.323 49.029 39.869 59.445 5.41 8.733 13.002 20.011 12.229 35.066l8.228 13.008 60.462-77.546L561 895.265Z"/><path fill="#F5AE9E" d="M395.771 745.57c-.806 10.928-3.1 22.128-7.547 32.188-4.955 12.155-12.094 22.763-20.778 30.639-3.546 3.187-7.274 5.964-11.276 8.195 1.171 11.373 2.113 22.831 3.397 34.159.628 5.541 1.656 11.934.027 17.402-4.526 15.201-26.606.998-34.114-3.532-18.413-11.109-31.28-27.816-31.28-27.816.046-6.556 2.501-14.387 4.91-25.631-3.773-2.823-7.365-6.055-10.693-9.572-1.194-1.462.653-4.965.557-6.721-.164-2.996-1.887-5.532-3.138-8.155-2-4.188-.091-9.15 2.363-13.111 2.41-3.96 5.502-7.831 5.956-12.474.865-8.877-8.365-17.209-5.592-25.722.637-2.003 1.909-3.732 2.91-5.6 5.318-9.651 2.136-23.355-2.683-29.819l99.479 2.777c5.728 13.156 8.593 27.997 7.502 42.793Z"/><path fill="#A4C6E9" d="M363.577 1140c2.237-52.15-.913-105.52 1.37-158.074.594-13.97 1.142-28.302-3.105-41.635-5.024-15.698-16.212-28.575-27.491-40.588-17.855-18.975-36.67-37.084-56.351-54.148a70.342 70.342 0 0 1 16.531-7.052c3.608 4.323 15.024 17.154 30.14 26.254 7.535 4.504 29.728 18.702 34.249 3.549 1.643-5.506.639-11.876 0-17.428A533.94 533.94 0 0 1 357.367 836c2.009.364 3.972.955 5.617 2.138 2.785 1.911 4.338 5.05 5.844 8.053a1858.67 1858.67 0 0 1 34.706 75.807c2.557 5.915 5.115 12.104 5.022 18.52-.091 6.825-3.608 102.472-2.009 119.172.867 9.01 9.453 76.12 9.453 76.12s-28.631 4.19-52.423 4.19Z"/><path fill="#F7AF4D" d="m421.041 813.416-13.094-.771-.044-.137c-5.256-.318-10.513-.589-15.813-.907-8.271-.496-17.884-.473-25.508-4.174 8.654-7.849 15.767-18.42 20.751-30.578 6.11-14.906 9.074-33.714 6.928-49.866a92.997 92.997 0 0 0-6.928-24.813l-1.994-.046-97.138-2.721c2.398.067 4.709 11.011 4.986 12.729 1.529 9.452-2.586 14.303-5.213 22.568-2.764 8.483 6.433 16.786 5.573 25.634-.835 8.572-12.652 16.347-8.293 25.492 5.223 10.96 2.432 22.863-6.385 31.174l-72.22-3.676c-5.211-10.344 3.081-22.729 8.881-32.711 1.993-3.403 5.211-6.17 6.479-9.891 4.486-12.704-12.913-28.492 6.433-43.645 26.867-20.96-32.122-41.014 40.958-91.645 39.871-27.629 94.42-12.703 102.258 2.585 0 0 17.851 4.401 29.541 16.514 12.233 12.613 16.765 31.169 15.812 48.454l-4.982-.136c1.993 3.993 3.262 8.303 2.763 12.703-1.133 9.391-10.239 17.104-9.197 26.541.907 8.211 9.334 14.291 9.515 22.503.135 6.261-4.667 12.341-2.9 18.375.815 2.813 2.99 5.036 4.711 7.394 4.709 6.582 6.294 15.293 4.12 23.051Z"/><path fill="#2B2150" d="m317.407 742.755-.195-.004a3.41 3.41 0 0 1-2.347-1.126 3.381 3.381 0 0 1-.86-2.446l.316-5.501c.108-1.864 1.666-3.236 3.593-3.188a3.419 3.419 0 0 1 2.346 1.126c.601.67.911 1.55.86 2.446l-.314 5.501a3.38 3.38 0 0 1-1.063 2.266 3.425 3.425 0 0 1-2.336.926Zm51.927 2.488a3.43 3.43 0 0 1-2.475-1.059 3.379 3.379 0 0 1-.927-2.516l.263-4.615c.108-1.864 1.66-3.238 3.593-3.188a3.423 3.423 0 0 1 2.347 1.126c.601.67.91 1.549.86 2.445l-.264 4.615a3.38 3.38 0 0 1-1.061 2.266 3.416 3.416 0 0 1-2.336.926Zm-27.288 26.68c-3.644 0-7.721-.726-10.541-3.742a3.376 3.376 0 0 1 .175-4.783 3.42 3.42 0 0 1 2.442-.901 3.417 3.417 0 0 1 2.369 1.075c2.076 2.222 7.395 1.562 10.25 1.211-.046-.174.307-.874.288-1.05l-3.844-39.013a3.37 3.37 0 0 1 .758-2.478 3.411 3.411 0 0 1 2.298-1.221c1.848-.209 3.534 1.176 3.721 3.038l3.822 38.789a7.14 7.14 0 0 1-1.077 5.539 7.28 7.28 0 0 1-5.125 3.11c-1.488.184-3.44.426-5.536.426Zm15.116 12.64c-2.542 1.489-5.719 2.617-9.212 3.294-2.496.451-5.22.676-8.033.676-5.356 0-10.983-.812-15.476-2.301 3.404 5.459 8.986 7.083 17.427 5.369 1.815-.362 3.63.812 3.994 2.617.409 1.851-.772 3.61-2.633 4.015-2.541.497-4.946.767-7.17.767-10.666 0-17.79-5.91-20.83-17.369-.182-.587-.636-2.436.59-4.015.68-.857 1.951-1.444 3.086-1.444.998.046 1.86.451 2.45 1.173l.227.135c.635.362 1.043.632 1.543.902 5.31 2.933 16.11 4.197 23.553 2.798 2.722-.496 5.174-1.353 7.034-2.436 1.634-.948 3.722-.452 4.674 1.173a3.357 3.357 0 0 1 .359 2.576 3.391 3.391 0 0 1-1.583 2.07Z"/><path fill="#EE7E94" d="M360.889 768.269c-.471 8.196 5.891 15.24 14.188 15.706a15.1 15.1 0 0 0 12.839-5.838l.046-.041c1.147-2.704 2.124-5.46 3.022-8.306a14.763 14.763 0 0 0-3.862-10.655 15.122 15.122 0 0 0-10.334-4.882c-8.296-.466-15.427 5.82-15.899 14.016Zm-45.386-2.559c-.502 8.201-7.617 14.509-15.918 14.014A15.095 15.095 0 0 1 288 773.235c2.371-3.831 5.153-7.571 5.518-11.535.319-3.019-.593-5.993-1.824-8.922 2.691-1.893 6.021-2.974 9.625-2.748 8.301.45 14.64 7.478 14.184 15.68Z"/><path fill="#2B2150" d="M376.56 725.192c-.442 0-.892-.085-1.326-.265a29.143 29.143 0 0 0-10.756-2.223 3.447 3.447 0 0 1-2.421-1.034 3.42 3.42 0 0 1-.978-2.435c.022-1.895 1.366-3.345 3.483-3.385a36.133 36.133 0 0 1 13.329 2.753 3.435 3.435 0 0 1 1.708 1.556 3.414 3.414 0 0 1-.86 4.256 3.449 3.449 0 0 1-2.179.777Zm-67.907-4.764a3.448 3.448 0 0 1-2.248-.844 3.423 3.423 0 0 1-.634-4.44 3.443 3.443 0 0 1 1.922-1.434 36.159 36.159 0 0 1 13.559-1.23 3.448 3.448 0 0 1 2.319 1.245 3.423 3.423 0 0 1-1.681 5.449 3.454 3.454 0 0 1-1.337.126 29.149 29.149 0 0 0-10.938.993c-.313.09-.637.136-.962.135Zm56.016-69.232c-.393.001-.779-.1-1.12-.292-5.077-2.839-10.117-4.641-14.978-5.36a2.302 2.302 0 0 1-1.507-.899 2.287 2.287 0 0 1-.427-1.696 2.299 2.299 0 0 1 .907-1.496 2.317 2.317 0 0 1 1.7-.43c5.416.8 10.984 2.785 16.55 5.895a2.285 2.285 0 0 1 1.098 2.572c-.128.49-.416.923-.819 1.232a2.302 2.302 0 0 1-1.404.474Zm-103.375 35.807a2.298 2.298 0 0 1-1.871-.962 2.278 2.278 0 0 1-.294-2.077c3.328-9.471 8.163-16.037 14.785-20.069a2.312 2.312 0 0 1 1.752-.301 2.279 2.279 0 0 1 1.753 1.884 2.285 2.285 0 0 1-1.112 2.318c-5.68 3.459-9.882 9.241-12.848 17.676a2.296 2.296 0 0 1-2.165 1.531ZM266.251 798a2.295 2.295 0 0 1-2.295-2.267c-.015-2.165-.317-4.339-.638-6.639-.511-3.681-1.039-7.491-.339-11.371.781-4.328 2.958-8.029 5.062-11.611 1.285-2.185 2.497-4.249 3.402-6.427 3.046-7.331 2.297-16.047-1.954-22.753a2.267 2.267 0 0 1-.298-1.723 2.288 2.288 0 0 1 1.849-1.749 2.305 2.305 0 0 1 1.713.385c.246.173.456.392.617.646 5.033 7.943 5.918 18.263 2.313 26.941-1.023 2.466-2.376 4.765-3.682 6.987-1.988 3.386-3.868 6.583-4.505 10.111-.572 3.167-.116 6.456.368 9.938.324 2.345.663 4.768.681 7.23a2.29 2.29 0 0 1-2.277 2.302h-.017Z"/><path fill="#EA5E83" d="M155.216 1588.47v4.13c-.792-.82-1.216-1.29-1.216-1.29.424-.98.846-1.91 1.216-2.84Zm21.197-47.69v71.58c-1.807-1.43-3.57-2.91-5.285-4.45v-55.49c1.797-3.99 3.54-7.86 5.285-11.64Zm21.145-45.05v127.13c-1.057 1.5-1.639 2.27-1.639 2.27a38.413 38.413 0 0 1-3.648-1.81V1506.7c1.798-3.78 3.542-7.45 5.287-10.97Zm21.145-41.94v139.23c-1.85 2.58-3.649 5.06-5.286 7.44v-136.54c1.796-3.51 3.593-6.87 5.286-10.13Zm21.143-37.76v147.09c-1.797 2.54-3.541 5.02-5.286 7.45v-145.59c1.73-3 3.492-5.98 5.286-8.95Zm21.144-235.63v71.17c-1.162-8.69-5.285-21.57-5.285-21.57v-50.22c1.797.26 3.541.46 5.285.62Zm-5.285 216.17c2.167-2.85 3.912-7.83 5.285-9.48v146.49c-1.743 2.4-3.54 4.8-5.285 7.2v-144.21Zm26.43-214.31v321.23c-1.745 2.48-3.542 4.97-5.286 7.5V1181.9c1.744.16 3.488.26 5.286.36Zm21.143 1.19v290.25c-1.743 2.43-3.488 4.91-5.285 7.45v-297.96c1.744.16 3.488.21 5.285.26Zm-.686 460.92.686-14.01v14.07l-.686-.06Zm21.843-460.2v462.45l-5.283-.54v-462.05l5.283.14Zm21.134 0v464.64l-5.284-.54v-463.78c1.776 0 3.553-.05 5.284-.32Zm21.133-39.07v504.85c0 .37-.046.73-.182 1.05l-5.055-.55c-.046-.18-.046-.27-.046-.5V1159.1l3.689-13.81c.546-.05 1.093-.09 1.594-.19Zm21.153-4.96v383.15l-5.285 42.42v-425.1c1.797-.16 3.541-.32 5.285-.47ZM409 1138v221.07c-3.014 22.05-5.18 36.17-5.18 36.17l-.106.83v-257.55c1.744-.15 3.541-.31 5.286-.52Z"/><path fill="#F7AF4D" d="m833.757 1176.17-43.758-50.6-43.756 50.6c-1.726 2-4.243.17-4.243-3.08V965h96v208.09c0 3.25-2.517 5.08-4.243 3.08Z"/><path fill="#313C85" d="m1575.73 1600.36-33.73-39.21-33.73 39.21c-1.33 1.54-3.27.13-3.27-2.39l1.12-156.97H1579v156.97c0 2.52-1.94 3.93-3.27 2.39Z"/><path fill="#E6325C" d="M695.436 1740.5 669 1709.95l-26.436 30.55c-1.043 1.2-2.564.1-2.564-1.86V1613h58v125.64c0 1.96-1.521 3.06-2.564 1.86Z"/><path fill="#2B2150" d="M911.721 1611H620.28c-1.277 0-2.28 1-2.28 2.27s1.003 2.27 2.28 2.27h16.055v121.69c0 1.36.365 2.63 1.095 3.63 1.824 2.55 5.473 2.73 7.479.41l23.762-27.54 23.808 27.54c.957 1.09 2.189 1.73 3.557 1.73 2.828 0 5.017-2.55 5.017-5.77v-121.69H911.72c1.277 0 2.28-1 2.28-2.27s-1.002-2.27-2.279-2.27Zm-217.508 121.86-22.941-26.54c-1.277-1.55-3.876-1.5-5.154 0l-22.941 26.54v-117.31h51.037l-.001 117.31Z"/><path fill="#F7AF4D" d="m600 783 17.144-42.577L669 731l-18.725 43.594L600 783Z"/><path fill="#2B2150" d="M616.272 763a2.298 2.298 0 0 1-1.524-.582 2.214 2.214 0 0 1-.306-2.987 2.279 2.279 0 0 1 1.375-.869l32.447-6.517a2.317 2.317 0 0 1 1.713.327 2.244 2.244 0 0 1 .977 1.422 2.203 2.203 0 0 1-.332 1.685 2.274 2.274 0 0 1-1.446.96l-32.446 6.516a2.521 2.521 0 0 1-.458.045Z"/><path fill="#F7AF4D" d="M1115 567.002v126.721c-3.85 1.351-16.7 13.701-18.56 13.047-2.37-.831-10.82-7.916-13.52-8.375-4.54-.772-9.03-3.447-13.21-6.396-2.13-1.496-4.13-3.084-6.03-4.49-5.09-3.901-9.35-6.802-12.08-4.898-2.38 1.666-.85 7.253-.22 9.388 1.06 3.624 4.93 10.891 6.27 14.458l-14.4-4.117c-15.29-5.08-36.89-12.29-45.193-5.987-3.408 2.612-7.126 6.008-7.806 10.476-.543 3.221.681 6.531 3.223 10.295 3.618 5.361 8.336 10.392 13.156 14.695l-.4.135-.14.046-.18-.046-40.254-10.339-17.517-4.491-31.084-7.982c1.361-.318 3.858-1.27 6.534-2.314 3.903-1.543 8.259-3.356 10.166-3.856.135-.045.271-.227.499-.634.272-.636.68-1.815 1.179-3.266 17.457-2.348 36.32-4.268 52.548-11.564 7.254-3.262 13.309-8.281 17.929-14.741 3.33-4.671 6.81-9.55 9.12-14.831 1.72-3.764 2.59-7.166 2.67-10.295.19-6.318-3.48-11.377-8.53-14.831-1.4-.953-2.99-1.86-4.72-2.721-4.761-2.358-12.203-.59-20.235 2.721-6.852 2.813-14.068 6.803-20.375 10.341-2.904 1.632-5.628 3.175-8.032 4.49-3.403 1.86-6.171 3.266-7.939 3.765.44-.146 1.32-7.681 1.45-8.256.816-3.588 2.315-6.511 2.041-10.342-.25-5.014-2.768-8.039-7.397-4.488-1.407 1.134-2.949 2.676-4.537 4.49-2.95 3.221-6.217 7.121-9.802 10.341-2.35 2.088-5.098 4.087-8.077 5.169-2.315.862-5.536 5.261-7.806 9.618-1.075 2.03-2.066 4.19-2.587 6.438l-16.154.725V567l8.305 2.132 17.516 4.49 40.251 10.341 17.335 4.446 26.503 6.802 26.55-6.802 17.33-4.446 40.39-10.341 17.51-4.49 8.31-2.13Z"/><path fill="#F5AE9E" d="M1095.47 708.708c-1.11-4.227-7.99-10.507-12.13-11.219-12.98-2.232-25.42-19.891-31.22-15.841-1.9 1.326-1.43 9.15 1.79 13.702 1.94 2.751 4.25 10.205 4.25 10.205-9.21-.751-47.68-19.112-59.421-10.114-13.403 10.27-8.482 17.864 4.781 31.87 16.02 16.916 35.53 21.705 84.35 23.689l7.6-42.292ZM936.412 698.33c57.602-8.014 62.944-14.897 75.478-34.591 10.37-16.29 8.33-27.285-6.78-34.784-13.237-6.568-47.497 18.864-56.389 21.375 0 0 .842-7.761 2.226-10.835 2.291-5.089 1.262-12.859-.853-13.794-6.466-2.857-15.307 16.87-27.625 21.563-3.924 1.495-10.302 12.96-10.469 17.496l24.412 33.57Zm7.176-301.236 5.611 39.532c-7.647 1.091-12.578-16.923-12.578-16.923-6.472-15.239-.363-22.063 6.967-22.609Zm153.882 19.197c-.05.136-3.4 19.88-17.29 20.335-5.65 19.06-17.82 35.436-33.12 45.444v18.47c0 18.697-34.02 33.799-34.02 33.799s-33.346-15.102-33.346-33.799v-19.697c-16.696-13.328-26.694-36.939-29.772-64.733v-.091c2.218-21.381 8.596-59.639 21.356-72.603 3.665-3.731 9.683-3.048 12.488 1.41 2.216 3.594 5.339 6.87 6.832 7.962 7.691 5.458 19.772 6.96 35.022-.819 10.9 6.368 32.21 9.643 41.44-5.232 14.71 10.507 13.17 60.911 15.07 80.973l6.97-29.933.18-2.002c1.3-.129 2.61.026 3.84.455 7.38 2.593 6.52 10.19 4.35 20.061Z"/><path fill="#2B2150" d="M986.395 418c-.9 0-1.764-.373-2.4-1.036a3.61 3.61 0 0 1-.995-2.5v-7.928c0-.938.358-1.837.994-2.5a3.33 3.33 0 0 1 2.401-1.036c.901 0 1.764.373 2.401 1.036a3.61 3.61 0 0 1 .995 2.5v7.928a3.617 3.617 0 0 1-.996 2.5 3.329 3.329 0 0 1-2.4 1.036Zm63.205 0c-.9 0-1.76-.373-2.4-1.036a3.639 3.639 0 0 1-.99-2.5v-7.928c.02-.926.38-1.808 1.02-2.456a3.32 3.32 0 0 1 2.38-1.012c.88 0 1.74.363 2.37 1.012.64.648 1 1.53 1.02 2.456v7.928c0 .938-.36 1.837-.99 2.5a3.339 3.339 0 0 1-2.41 1.036Z"/><path fill="#EE7E94" d="M1035.95 439.046c0 8.811 6.95 15.954 15.52 15.954 8.58 0 15.53-7.144 15.53-15.954 0-8.812-6.95-15.955-15.53-15.955-8.57 0-15.52 7.143-15.52 15.955ZM963 437.955c0 8.811 6.951 15.954 15.527 15.954 8.575 0 15.526-7.144 15.526-15.954 0-8.812-6.951-15.955-15.526-15.955-8.576 0-15.527 7.143-15.527 15.955Z"/><path fill="#4B3584" d="m1093 352.922-3.8 46.03-7.04 30.048c-1.92-20.138-.37-70.734-15.24-81.283-9.33 14.932-30.88 11.643-41.91 5.252-15.42 7.807-27.635 6.301-35.414.822-1.509-1.096-4.667-4.384-6.908-7.993-2.837-4.474-8.922-5.159-12.628-1.415-14.733 14.887-21.093 62.925-22.327 80.917l-4.987-26.074L940 351.78c0-20.869 20.59-51.327 42.689-51.327h2.744c8.007 0 18.847 2.283 24.437-3.47 3.52-3.653 8.78-5.983 14.64-5.983 8.19 0 15.19 4.567 17.98 11.051.46-.091 1.09.257 1.37-.091 9.01-10.96 24.71 3.228 22.42 8.174 9.87-2.791 26.72 25.069 26.72 42.788Z"/><path fill="#2B2150" d="M1015.06 469.56c-6.13 0-12.1-2.298-16.046-6.186a3.415 3.415 0 0 1-.031-4.823 3.426 3.426 0 0 1 2.407-1.015 3.4 3.4 0 0 1 2.42.983c2.75 2.712 7.12 4.275 11.53 4.218 4.44-.071 8.45-1.75 11.29-4.73a3.414 3.414 0 0 1 4.77-.069 3.385 3.385 0 0 1 1.06 2.348c.04.891-.28 1.759-.88 2.42-4.11 4.318-9.84 6.752-16.14 6.849-.13.003-.25.005-.38.005ZM1387.72 1441h-85.39c-1.26 0-2.28-1.02-2.28-2.27 0-1.26 1.02-2.28 2.28-2.28h85.39c1.26 0 2.28 1.02 2.28 2.28 0 1.25-1.02 2.27-2.28 2.27Z"/><path fill="#2BB19E" d="M1437.03 1223H1400l.22-.68a213.576 213.576 0 0 0 .3-133.75l-.52-1.57h37.03l.51 1.57a213.647 213.647 0 0 1-.29 133.75l-.22.68Zm67.13 0h-37.03l.23-.68a213.647 213.647 0 0 0 .29-133.75l-.52-1.57h37.03l.51 1.57a213.647 213.647 0 0 1-.29 133.75l-.22.68Zm67.73 0h-37.02l.22-.68a213.647 213.647 0 0 0 .29-133.75l-.51-1.57h37.02l.52 1.57a213.647 213.647 0 0 1-.29 133.75l-.23.68Z"/><path fill="#E6325C" d="M1920.27 1360.51c-.28 2.2-.6 4.48-1.88 6.04-1.28 1.55-3.21 2.19-5.09 2.65a138.244 138.244 0 0 1-41.09 4.71c-4.4-.18-8.89-.55-12.87-2.74-8.48-4.57-12.28-15.59-18.92-23.09-2.8-3.16-6.1-5.67-9.63-7.59l2.71 26.66c.72 7.12-10.22 8.66-11.59 1.69 0 0-6.65-33.93-6.6-34.34-1.65-.5-3.35-1.1-4.54-2.43-1.01-1.09-1.51-2.6-2.01-4.11-3.85-11.8-6.32-24.78-3.62-36.72 5.77-.41 12-1.23 18.19-2.24 3.84 5.62 8.61 10.65 13.33 13.63 33.76 21.53 40.31 16.55 38.25 5.62 4.17 8.87 9.21 16.55 16.22 19.43 8.52 3.48 19.15 1.42 25.52 8.69 5.36 6.17 4.67 15.87 3.62 24.14Z"/><path fill="#F5AE9E" d="M1836.61 1302.38c-4.69-2.97-9.43-7.98-13.26-13.59 18.32-3 36.18-7.56 40.42-8.34l.27 2.56c.09.54.23 1.04.5 1.5 1.1 1.92 2.15 3.86 3.15 5.83.04.05.04.09.09.14v.05c2.87 5.56 5.83 12.02 6.79 17.17v.05c.04.05.04.09.04.14.05.04.05.04.05.09 2.05 10.89-4.47 15.86-38.05-5.6Zm-91.87-13.95-1.14 2.92c-1.05 23.56-4.37 64.25-32.76.5-3.1-6.93-7.02-19.55-7.84-29.85 12.4 8.07 26.7 16.18 37.37 24.15 1.32 1 2.82 2.05 4.37 2.28Z"/><path fill="#F7AF4D" d="M1864 1280.97c-5.98 1.09-42.63 10.62-66.11 11.03 0 0-10.92-57.97-17.77-76.57-11.98 26.3-26.96 53.83-30.48 70.33-.32 1.45-1.78 2.55-3.2 3.05-2.15.77-4.43-.68-6.3-2.1-14.03-10.48-34.41-21.19-48.43-31.72 3.33-24.07 14.25-54.01 19.19-77.85 7.99-38.79 20.83-67.68 23.16-85.18-3.93 1.91-29.79 3.28-39.84 3.64-31.85 1.23-134.83 2.6-158.18-5.88-21.7-7.93-42.03-23.61-48.66-45.67-7.53-25.25 4.21-51.82 15.63-75.611 4.84-10.028 11.83-35.551 16.13-44.439.13 0 .23.046.36.046 1.24.41 2.47.821 3.66 1.23a627.22 627.22 0 0 1-12.47 27.484s.13.091.41.228c4.89 2.689 55.33 29.627 109.92 34.138 38.29 3.144 48.8-13.035 51.45-24.658.23-1.002.37-1.959.5-2.871v-.046c0-1.367.05-3.053.23-4.968 0-.228.05-.455.05-.683.04-.046.04-.046 0-.091.16-1.836.3-3.674.41-5.514 27.5 5.378 101.38 28.988 141.13 42.387 7.59 2.552 22.66 11.718 27.05 18.408 10.1 15.36 10.6 164.63 12.52 188.97 2.19 28.22 5.76 41.84 9.64 82.91Z"/><path fill="#4B3584" d="m1729 900.647-27.88 9.78c-7.66 2.684-15.99-1.319-18.68-8.916l-2.41-6.823c-2.14 5.868-5.43 32.62-5.76 38.551-.82 14.427 1.53 31.891-9.36 43.293-10.99 11.52-29.31 12.259-44.11 11.042-54.44-4.504-104.73-31.387-109.61-34.07a5.248 5.248 0 0 1-.41-.228 614.126 614.126 0 0 0 12.44-27.429l-6.83-2.274c-7.7-2.593-15.17-5.095-15.95-5.458-10.57-4.322-15.94-16.649-14.07-28.976L1507 767.687l4.19-27.657c.19-3.866 1.23-7.231 2.92-10.098 3.51-6.003 9.66-10.053 15.72-12.873 2.82-1.32 37.63-14.829 42.14-16.74 1.39-.553 2.82-.994 4.28-1.319-.09.228-.14.319-.14.319-1.09 11.099 8.52 20.151 8.52 20.151 24.19 17.786 49.66 9.233 51.8-10.963l.23-.318-.64-7.688c6.47.819 10.39 1.956 10.39 1.956 16.72 2.274 25.1 5.082 30.43 24.563.93 3.415 2.55 6.686 4.24 10.007 0 0-9.39 61.362-9.39 61.408l-17.4 6.959 13.28 29.363.57 6.254-9.89 45.533 70.75 14.103Z"/><path fill="#EA5E83" d="M1693.12 571.117c-2.96 4.495-10.36 7.264-15.4 9.308-12.98 5.176-30.74-3.087-44.54-5.313-31.6-4.994-49.99 23.338-49.99 23.338-3.45-13.167-16.39-16.072-23.25-11.123-3.59 2.497-5.54 7.172-3.63 13.62.82 2.861 1.63 5.222 2.45 7.174 4.27 10.761 7.95 11.623 11.13 32.736-4.45-3.632-8.68-7.583-12.49-11.851-.77 7.629-2.23 15.165-5.72 21.975-7.4 14.575-23.34 23.791-39.82 26.244-16.44 2.451-33.33-1.18-48.86-7.128 15.03-6.537 30.1-17.117 33.6-32.826 3.04-13.621-2.13-28.65-3.91-42.27-1.63-12.031-2.63-24.246-1.9-36.368 1.5-23.429 10.9-46.402 35.37-54.348 14.03-4.585 30.15-2.634 42.64 5.13.27.182.49.318.72.5.23.135.41.272.64.453.18-.182.41-.318.63-.453 18.48-11.714 39.87-11.986 60.57-6.312 29.52 8.127 38.78 25.653 41.28 26.833 13.48 6.175 30.15 25.835 20.48 40.681Z"/><path fill="#F5AE9E" d="M1691.94 609.511a160.626 160.626 0 0 1-4.15 20.373c-1.87 6.944-4.2 13.522-6.94 19.644-9.85 21.973-25.14 37.597-45.62 38.693l1.37 20.055c-2.15 20.284-27.65 28.871-51.88 11.009 0 0-9.63-9.091-8.54-20.237 0 0 7.49-16.537 9.31-35.129-6.7-7.036-12.54-15.121-16.92-23.435l.82.685c-3.79-25.172-8.26-21.745-13.65-40.155-5.56-19.003 21.77-22.612 27.01-2.513 0 0 18.48-28.506 50.24-23.481 13.87 2.239 31.71 10.553 44.76 5.345 5.06-2.056 12.5-4.842 15.47-9.365 1.41 10.918.86 23.71-1.28 38.511Z"/><path fill="#2B2150" d="M1646.64 664.062c-5.59 0-11.45-1.738-15.02-4.721-.37-.315-.74-.642-1.09-.981-1.37-1.29-1.68-3.669-.39-5.044 1.29-1.374 3.21-1.667 4.58-.387.01.002.21.189.21.189.53.505.78.743 1.06.974 3.27 2.735 10.07 3.936 14.87 2.623 1.75-.475 3.32-1.265 4.55-2.283a3.43 3.43 0 0 1 2.5-.766c.9.086 1.73.525 2.31 1.222.28.346.5.744.63 1.173.13.429.18.88.13 1.326-.04.447-.17.881-.38 1.277-.21.396-.49.747-.84 1.033-1.97 1.633-4.43 2.883-7.11 3.609-1.87.514-3.92.756-6.01.756Zm-49.15-110.032c-.47 0-.93-.147-1.32-.421a2.218 2.218 0 0 1-.83-1.109 2.264 2.264 0 0 1-.04-1.386c.14-.455.41-.856.78-1.149 5.78-4.563 12.86-6.841 21.64-6.963 1.4-.054 2.29.99 2.3 2.246a2.27 2.27 0 0 1-2.24 2.309c-7.74.107-13.92 2.064-18.88 5.983-.4.317-.9.49-1.41.49ZM1505.93 665c-.93 0-1.89-.042-2.86-.127a2.333 2.333 0 0 1-.85-.249 2.324 2.324 0 0 1-1.12-1.336 2.205 2.205 0 0 1-.09-.884c.11-1.251 1.27-2.178 2.46-2.067 15.69 1.383 26.33-11.004 31.26-18.51.16-.25.37-.466.62-.634.25-.169.52-.287.82-.347a2.258 2.258 0 0 1 1.71.327c.25.164.46.376.63.623a2.218 2.218 0 0 1 .35 1.707c-.05.293-.17.573-.33.823-5.19 7.91-16.13 20.674-32.6 20.674Z"/><path fill="#EE7E94" d="M1631.94 636.819c-.73 8.529-8.23 14.853-16.76 14.124-8.53-.728-14.85-8.232-14.12-16.761.73-8.528 8.23-14.853 16.76-14.125 8.53.731 14.85 8.233 14.12 16.762Z"/><path fill="#2B2150" d="M1573.33 613.082c-.68 0-1.35-.304-1.8-.881-2.97-3.868-5.83-9.432-5.51-13.142.11-1.236 1.22-2.199 2.45-2.042.59.051 1.14.335 1.53.79.38.454.57 1.042.52 1.634-.18 2.046 1.84 6.457 4.6 10.042.26.333.41.729.45 1.145a2.2 2.2 0 0 1-.22 1.209c-.19.374-.48.689-.83.909-.36.22-.77.337-1.19.336ZM1677.22 619a3.392 3.392 0 0 1-2.5-1.085 3.37 3.37 0 0 1-.88-2.562l.4-4.674c.16-1.852 1.86-3.217 3.66-3.064.45.038.88.161 1.27.364.4.203.75.481 1.03.818.29.337.51.728.64 1.148.14.421.19.864.15 1.304l-.4 4.673c-.08.839-.46 1.62-1.09 2.189-.62.57-1.43.887-2.28.889Zm-52.34-1.736a3.382 3.382 0 0 1-2.49-1.087 3.468 3.468 0 0 1-.72-1.189 3.201 3.201 0 0 1-.16-1.373l.37-4.303c.16-1.85 1.83-3.217 3.65-3.063.45.037.88.161 1.27.364.4.202.75.481 1.04.818.28.338.5.728.64 1.149.13.421.18.865.14 1.305l-.37 4.303a3.358 3.358 0 0 1-1.08 2.188 3.42 3.42 0 0 1-2.29.888Z"/><path fill="#EE7E94" d="M1685 628.625c-.31 1.155-.67 2.306-1.02 3.456-2.07 6.865-4.55 13.369-7.38 19.342-.88 1.886-1.82 3.745-2.81 5.577-6.41-2.13-10.61-8.985-9.66-16.431 1.08-8.449 8.32-14.445 16.16-13.464 1.65.196 3.25.713 4.71 1.52Z"/><path fill="#8ECFD4" d="m1873 701-37.06 176.883-64.86 29.707-.82.41h-.04l-41.43-8.234-70.79-14.104 6.93-45.221 73.84-14.604c6.88-1.365 11.44-8.735 10.16-16.468v-.182c-3.01-17.97-32.27-25.705-52.32-21.746l-25.16 10.054 9.39-61.372 3.64-23.839 112.22 22.338h.04L1873 701Z"/><path fill="#F5AE9E" d="m1739.83 826.293-69.25 13.656-15.58-35.004 42.63-17.12c20.07-3.958 49.36 3.801 52.36 21.812l.02.142c1.29 7.757-3.27 15.15-10.18 16.514Zm117.15-39.517c.72-9.013-18.26-6.513-23.47.886-3.08 4.389-6.16 8.912-7.61 14.076-3.08 10.958-3.16 44.32 4.43 44.951 5.58.464 11.2.437 16.75-.272.78-.099 2.96-2.029 3.15-2.752 2.71-10.004 5.35-39.274 6.75-56.889Z"/><path fill="#2B2150" d="M1806.24 765.375a2.31 2.31 0 0 1-1.45-.511 2.214 2.214 0 0 1-.79-1.299c-.11-.51-.03-1.04.22-1.5.25-.459.65-.82 1.14-1.02l43.47-17.872a2.32 2.32 0 0 1 1.75-.003c.56.227 1.01.664 1.24 1.216.24.551.24 1.171.01 1.723-.23.552-.68.992-1.24 1.222l-43.47 17.871c-.29.118-.59.173-.88.173ZM1803.29 776a2.302 2.302 0 0 1-1.45-.509c-.41-.33-.69-.79-.8-1.3-.1-.511-.02-1.042.23-1.502.25-.459.65-.82 1.14-1.02l43.47-17.871a2.34 2.34 0 0 1 1.73.029c.55.231.98.663 1.21 1.205.23.542.24 1.151.02 1.696-.22.546-.65.986-1.19 1.227l-43.48 17.871a2.32 2.32 0 0 1-.88.174Z"/><path fill="#C2DEF5" d="M1029 666v-41.96l69-19.04v42.361L1029 666Z"/><path fill="#2B2150" d="M1064.17 630.577c-.5-.001-.99-.165-1.4-.466-.4-.302-.69-.725-.82-1.204a2.18 2.18 0 0 1 .22-1.727c.3-.525.8-.909 1.39-1.07l25.91-7.027c.29-.08.59-.103.89-.066.31.037.6.131.86.279.26.147.5.345.68.581.19.236.33.506.41.794.16.581.08 1.202-.22 1.726-.31.524-.81.909-1.4 1.069l-25.91 7.028c-.19.054-.4.082-.61.083Zm-29.86 8.1c-.51-.001-1-.165-1.4-.466-.4-.302-.69-.725-.83-1.204a2.266 2.266 0 0 1 .22-1.727c.3-.525.81-.909 1.4-1.07l20.18-5.475c.29-.086.6-.113.91-.08.3.034.6.126.86.273.27.147.51.345.7.582a2.234 2.234 0 0 1 .47 1.696c-.04.3-.14.588-.29.85a2.282 2.282 0 0 1-1.42 1.062l-20.19 5.475c-.2.055-.41.083-.61.084Zm.61 14.323c-.5 0-1-.163-1.4-.465-.4-.301-.69-.724-.83-1.204a2.264 2.264 0 0 1 .22-1.726c.31-.524.81-.909 1.4-1.069l55.77-15.128c.29-.081.6-.103.9-.067.3.037.59.131.85.279.27.148.5.345.68.581.19.236.33.506.41.795.16.581.08 1.202-.22 1.727-.3.524-.81.908-1.4 1.069l-55.77 15.128c-.2.054-.4.08-.61.08Z"/><path fill="#F5AE9E" d="M523.109 877.212 554.656 892c5.388-8.564 22.872-18.042 26.741-27.391 1.919-4.637 5.204-14.134 5.408-17.776.708-12.696-.423-24.736-4.881-36.133-2.176-5.559-7.17-6.534-12.975-5.12-.723.175-15.517 1.345-16.948 10.332-5.394 33.875-19.045 36.957-25.808 42.728-4.108 3.504-5.324 11.899-3.084 18.572Z"/><path fill="#2B2150" d="M712.74 411.774c-3.468-49.25-43.262-89.043-92.5-92.515C561.829 315.101 513 361.519 513 419.13c0 24.945 9.218 48.839 25.92 67.25 12.87 14.163 20.718 30.701 23.319 49.112.822 5.985 5.978 10.508 11.957 10.508h77.761c6.069 0 11.135-4.386 12.002-10.463 2.647-18.458 10.588-35.406 22.953-48.976 18.617-20.419 27.789-46.963 25.828-74.787Zm-30.848 70.175c-13.326 14.575-21.858 32.803-24.734 52.631-.366 2.65-2.555 4.569-5.202 4.569h-36.645v-56.743l31.123-37.143c.821-.959.684-2.376-.274-3.198-.959-.823-2.419-.685-3.194.274l-29.936 35.726-29.937-35.726a2.301 2.301 0 0 0-3.24-.274c-.959.822-1.095 2.239-.274 3.198l31.168 37.143v56.743h-36.552c-2.648 0-4.838-1.919-5.202-4.614-2.784-19.783-11.18-37.555-25.008-52.768-15.56-17.133-24.141-39.381-24.141-62.636 0-51.442 41.801-93.292 93.184-93.292 2.237 0 4.473.091 6.709.274 45.861 3.198 82.916 40.249 86.202 86.119 1.827 25.95-6.707 50.666-24.047 69.717Z"/><path fill="#2B2150" d="M1996.59 1777.17h-215.48c37.07-11.53 63.66-42.96 63.66-79.87v-53.34c0-35.63-24.82-66.15-59.92-78.54h2.55c7.83 0 13.93-6.25 13.93-14.4 0-7.83-6.24-14.21-13.93-14.21-.09 0-.19 0-.28.04-.13-.18-.27-.32-.41-.5-20.62-21.91-20.9-140.54-.86-168.56 7.51-.18 13.57-6.47 13.57-14.4 0-2.36-.59-4.69-1.71-6.77a14.239 14.239 0 0 0-4.71-5.16c.09-.5.13-56.81.13-56.81.91 4.65 1.46 7.61 1.51 7.79.95 3.14 3.82 2.73 6.46 2.87-1.14 11.53 1.01 22.78 4.51 33.76.5 1.5 1.18 3.6 2.69 5.28 1.06 1.2 2.41 2.1 3.91 2.65 0 0 6.33 32.29 6.33 32.34 2.19 11.16 19.45 8.56 18.31-2.69l-1.92-19.13c3.78 3.1 6.47 7.38 9.02 11.48 3.64 5.79 7.42 11.75 13.57 15.03 4.74 2.6 9.84 2.96 14.25 3.15 14.03.59 28.42-.96 41.89-4.79 1.78-.5 4.74-1.27 6.79-3.78 1.96-2.41 2.32-5.51 2.59-7.74 1.28-9.8 1.6-19.87-4.41-26.75-4.78-5.51-11.48-6.56-17.4-7.47-3.32-.5-6.42-1-9.2-2.14-5.82-2.41-10.38-9.29-14.16-17.31-2.59-5.56-9.19-21.91-10.47-24.19-.55-1-.23-3.28-.18-3.1 0-11.75-3.05-24.23-4.69-35.9-2.14-15.4-3.87-27.7-4.78-44.64-.05-.55-1.01-23.28-1.55-42.51-1.64-61.27-3.55-117.94-8.43-140.72-2.82-13.26-15.07-21.141-26.64-26.563-8.51-3.964-17.84-6.469-26.77-9.385-14.3-4.692-60.61-19.224-69.12-21.776-1.69-.501-48.04-13.029-48.04-13.029.73-11.299 3.05-28.655 4.78-39.543 3.28 5.056 8.92 8.246 15.12 8.246 2.05 0 4.05-.365 6.01-1.048l27-9.522s40.89 8.154 41.16 8.154c.55 0 67.03-30.431 67.03-30.431a3.36 3.36 0 0 0 1.24-.98c.34-.42.57-.911.67-1.435l6.15-29.247c.32 0 .59-.046.91-.091 2.14-.273 5.47-3.143 6.01-5.24 2.69-9.841 5.19-36.718 6.88-57.492.04-.866 0-1.732-.18-2.506l17.3-82.55c.12-.621.06-1.261-.15-1.854a3.545 3.545 0 0 0-1.08-1.517 3.267 3.267 0 0 0-3.5-.455l-75.23 33.21-111.06-22.14c-.91-.182-1.87 0-2.64.546-.77.501-1.27 1.368-1.41 2.279l-1.55 10.159a73.962 73.962 0 0 1-2.6-6.606c-5.41-16.856-30.19-17.721-35.06-17.721-1.14 0-2.82.319-2.82.319l-.55-7.335c18.58-2.46 34.34-16.537 44.99-40.227 2.56-5.779 4.7-11.731 6.42-17.813 7.11-3.189 12.3-10.068 12.98-18.223.29-3.246-.15-6.516-1.3-9.568a21.718 21.718 0 0 0-5.3-8.064c.86-9.52.86-17.902-.05-25.283 2.92-5.193 3.51-11.207 1.69-17.539-3.46-12.072-14.89-22.778-24-26.924-.41-.365-.96-1.048-1.73-1.914-4.78-5.604-16.03-18.634-40.53-25.375-23.72-6.515-44.99-4.465-62.24 6.013-13.12-8.018-30.6-10.067-45.27-5.329-22.49 7.334-35.88 27.79-37.74 57.584-.69 10.752-.1 22.231 1.86 37.174.55 3.918 1.32 7.973 2.1 11.937 1.91 9.886 3.91 20.136 1.91 29.293-3.42 15.262-19.13 25.057-31.74 30.569-2.73 1.185-2.64 5.239.14 6.287 14.07 5.422 27.36 8.154 39.48 8.154 3.82 0 7.6-.273 11.24-.82 18.76-2.779 35.06-13.576 42.49-28.154 2.64-5.147 4.14-10.523 5.1-16.128 2.09 2.005 4.28 4.009 6.65 5.923 4.18 7.835 9.65 15.534 15.93 22.413-1.64 14.213-6.6 27.061-8.24 31.07 0 0-32.42 12.62-33.6 13.029-10.16 3.417-31.33 10.478-32.06 29.93 0 0-26 154.94-26.05 155.259-2.09 12.255 10.29 23.325 20.04 28.427 1.05.548 12.07 5.422 12.47 4.418-1.77 4.602-3.87 10.753-5.96 17.222-2.91 8.883-5.92 18.04-8.29 23.005-12.2 25.329-23.45 52.257-15.75 77.997 2.82 9.38 8.06 17.99 14.8 25.1 4.96 5.38 10.79 10.02 17.07 13.8h-76.32c.1-.68.14-1.41.14-2.14 0-7.47-5.74-13.58-12.98-14.26-.04-.13-.13-.23-.27-.36-21.54-22.23-21.77-142.504-.91-170.795 7.79-.091 14.16-6.469 14.16-14.487 0-7.882-6.47-14.35-14.34-14.35h-255.09c1.14-13.94-.54-28.702-4.55-42.141l25.77-7.335c21.04-5.967 34.47-28.29 31.6-49.611-3-22.733-22.31-40.409-45.4-40.409-1 0-2 .046-3 .137 11.02-6.104 19.72-12.938 23.45-20.5 2.87-5.741 2.87-11.527.23-16.856l-53.01-150.064c-5.14-18.588-20.08-32.756-38.88-37.038l-56.88-12.847v-3.736c15.58-10.114 27.46-26.697 32.88-46.923 13.62-2.597 17.39-20.637 17.76-22.733 1.77-8.018 4.51-20.182-6.6-24.054-.44-.149-.88-.271-1.32-.365l3.36-40.773c0-18.542-13.06-42.824-27.54-45.83-.1-1.958-.73-3.781-1.83-5.557-2.96-4.875-9.28-8.108-15.39-7.744-3.14.182-5.92 1.275-7.97 3.144-4.14-5.695-11.11-9.203-18.85-9.203-6.51 0-12.75 2.552-17.03 7.016-3.28 3.371-9.835 3.007-16.166 2.643-2.808-.192-5.608-.228-8.42-.228-23.224 0-45.9 31.297-45.9 54.851l2.505 43.188c-3.462.912-6.33 2.961-8.106 5.877-2.141 3.553-3.734 10.069.82 20.865 1.093 3.781 6.011 19.224 15.163 19.27 4.781 18.952 14.709 34.35 28.005 44.418v3.553c-4.052 1.504-10.2 3.098-17.213 4.965-14.617 3.828-32.831 8.611-45.353 15.535-10.655 5.876-21.037 20-23.132 23.007-.137.182-59.333 120.998-67.256 135.987-2.14 4.1-4.599 16.902-3.187 29.748.82 7.79 3.325 14.168 7.149 20.865-.319-.547-8.789 4.147-9.607 4.602-3.142 1.913-6.102 4.146-8.744 6.696-16.712 16.128-18.259 43.371-3.916 61.456a45.66 45.66 0 0 0 21.447 14.988l10.428 3.417c-10.018 15.308-13.616 37.038-9.517 57.721h-108.1c-54.415 0-98.721 39.133-98.721 87.196v55.084c0 31.25 18.716 58.72 46.766 74.12h-124.13c-7.832 0-13.934 4.41-13.934 10.2 0 5.61 6.102 9.98 13.934 9.98h.729c8.606 8.34 14.207 30.93 13.478 55.3-.638 22.24-8.515 42.87-15.437 46.24-7.24.41-12.704 4.7-12.704 10.16 0 1.32.319 2.55 1.002 3.69h-44.897c-5.601 0-10.154 4.56-10.154 10.16v113.21c0 5.6 4.553 10.16 10.154 10.16h38.613c-27.185 15.22-45.353 42.55-45.353 73.67v54.57c0 35.4 23.45 65.92 56.919 79.32-5.1 2.05-8.697 7.1-8.697 13.12 0 7.7 6.239 13.94 13.933 13.94h2.733c19.853 25.05 20.4 139.99 1.547 166.51h-4.28c-7.694 0-13.933 5.24-13.933 13.16 0 3.88 1.594 7.38 4.189 9.94h-95.806c1.866-2.33 2.686-5.15 3.323-7.38 3.416-11.89 5.692-24.2-.911-33.49-7.832-11.07-22.311-11.16-33.741-16.03-2.778-1.19-5.329-3.01-7.422-5.2-3.415-3.73-5.647-8.65-7.74-14.71-3.371-9.75-7.286-19.59-10.019-29.57-.591-2.14-1.092-4.33-1.593-6.47-.319-1.36-3.006-9.52-2.232-10.29.546-.55.865-1.23.957-2.01l32.057-255.98.228-1.69c3.916-26.38 14.89-103 20.354-169.83.137-1.69.273-3.33.365-4.97 1.321-16.76 2.596-47.93 2.459-48.29.638-.18 4.098-1.27 4.508-1.37 1.685-.22 2.959-1.68 2.915-3.37-.091-13.44-4.737-84.5-8.607-141.36l18.852 12.66c5.782 3.88 13.387 4.79 19.853 2.28 6.102-2.41 9.699-7.74 12.749-13.26 0 0 83.831-130.289 83.923-130.426 1.139-1.731.41-4.1-1.457-4.965l-3.46-1.55c2.412-2.505 5.646-5.238 8.833-7.881 6.33-5.239 12.841-10.66 15.254-16.492.182-.41.364-.865.547-1.412l51.046-13.303c1.047-.228 1.867-.957 2.277-1.913 0 0 64.613-149.929 64.797-150.338 1.047-2.461-1.139-5.284-3.825-4.692l-93.575 20.091-119.394-9.294c-1.549-.136-3.006.865-3.507 2.324 0 0-48.494 144.415-48.585 144.735-.683 2.05.682 4.191 2.823 4.465l82.738 9.521c-.365 1.913-.456 3.872-.319 5.876l-9.336-4.191c-1.411-.638-3.096-.183-4.052 1.047l-57.602 73.847s-4.963-7.79-5.191-8.155c-1.139-1.823-.41-7.881-.911-10.296-.683-3.462-1.776-6.788-3.141-10.023-2.733-6.378-6.694-12.026-10.156-17.995-3.506-6.105-17.667-32.026-21.128-38.998-3.871-7.836-7.832-15.898-19.261-19.589l-27.913-7.653-1.183-11.572a59.913 59.913 0 0 0 8.697-6.378s24.452 4.01 24.634 4.01c3.826 0 4.737-6.059.546-6.788l-18.988-3.143c1.957 0 8.242-10.706 9.243-12.256 4.553-7.243 8.151-15.306 10.701-23.508a107.16 107.16 0 0 0 4.645-24.509c.956-13.258-1.093-26.832-5.829-39.543l17.486.501c3.096 7.289.911 13.075-2.687 19.681-5.829 10.751-6.192 18.541.318 29.019 2.596 4.191 4.371 8.656 3.779 13.712-.638 5.284-3.916 10.114-2.276 15.627 1.321 4.51 5.145 7.608 7.195 11.753.547 1.093 4.007 14.35 2.231 14.259 0 0-10.2-.592-10.246-.592-4.28-.228-4.872 6.515-.364 6.834l13.16.774h.182c1.548 0 2.914-1.002 3.324-2.506 1.549-5.694 1.366-11.753-.41-17.357-1.822-5.648-6.922-9.704-8.515-15.124-1.685-5.695 2.413-10.615 2.96-16.082.546-5.511-2.413-10.522-5.237-14.942-5.237-8.2-4.781-13.576-.091-22.14 3.961-7.244 6.693-14.533 4.052-22.733 1.594-.046 3.142-1.503 3.232-3.235 1.184-20.319-4.963-38.996-16.802-51.205-10.473-10.842-25.272-15.809-29.917-17.175-6.876-10.478-29.552-18.541-52.957-18.541-14.024 0-34.743 2.824-54.005 16.127-47.539 32.893-41.482 54.577-37.066 70.432 2.64 9.43 4.234 15.125-4.235 21.685-14.116 11.024-11.111 22.825-8.698 32.345 1.321 5.012 2.414 9.34 1.139 13.03-1.456 4.191-5.419 7.881-7.651 11.709-5.92 10.021-13.341 22.505-7.649 33.711a3.353 3.353 0 0 0 2.868 1.868l72.63 3.736h.136c.911 0 1.731-.319 2.367-.912a33.416 33.416 0 0 0 8.242-12.482 100.41 100.41 0 0 0 5.327 4.555c-.547 2.415-3.871 20.501-4.554 24.237 0 .091-34.879 9.795-48.632 14.031-12.567 3.554-23.085 8.793-25.362 19.863l-25.179 166.924c-4.781 18.86-4.962 169.19-4.962 175.57a3.416 3.416 0 0 0 3.415 3.42h2.276c-7.604 15.67-11.52 52.03-12.385 60.82-1.776 7.33 0 15.26 5.191 23 3.642 5.43 8.378 10.16 13.797 13.76 4.872 3.24 11.521 6.7 17.531 6.7 12.84 0 23.951-33.07 27.959-48.61 1.638 1.87 3.278 3.92 5.282 5.47.683.54 5.783 2.59 5.829 2.87 1.046 7.92 2.777 27.38 2.777 27.38 2.323 25.1 3.735 48.93 4.234 72.8.091 4.37 6.922 4.28 6.831-.14-.547-24.05-1.913-48.02-4.235-73.3 0 0-1.731-19-2.55-25.37 1.549.09 2.915-.1 3.872-.69 2.686-1.68 5.51-3.82 5.829-7.01.273-2.97-1.685-5.2-3.416-6.79-4.735-4.38-8.56-17.63-9.699-23.42-.365-1.73-4.872-19.4-9.562-27.65 1.366-.37 2.368-1.64 2.414-3.14l.545-31.35c14.617 1.46 42.03 3.78 67.21 3.78 11.111 0 20.81-.45 28.778-1.36 8.06-.91 14.436-22.05 18.534-40.78 17.941-.18 37.931-2.59 46.128-3.64.135 10.07.272 25.24-.047 29.06-.274 3.51 2.824 5.2 5.874 5.2 1.594 0 3.552-.32 5.601-.78-1.957 72.3-18.214 186.78-23.224 220.27-.181 1.18-.272 1.87-.272 1.87l-31.601 252.65-62.657-6.56 8.744-178.85c1.913-2.73 33.013-46.15 33.695-47.79 3.735-7.61 8.88-28.06 16.165-64.46 1.731-8.52 12.021-63.46 15.21-81.19 2.049-11.25 9.198-50.29 10.656-57.94.82-4.38-5.829-5.65-6.694-1.28-1.456 7.65-8.606 46.74-10.655 58-3.233 17.67-13.524 72.52-15.209 81.04-6.967 34.85-12.204 55.94-15.664 62.91-.273.69-130.459 184.69-131.78 186.61 0 0-14.252 20.22-15.8 22.41-.272-.14-10.792-6.7-16.302-11.16-5.601-4.51-21.174-20.09-24.588-22.19a.99.99 0 0 0-.228-.13c.091-.19 57.511-112.26 62.747-122.46 1.776-3.37 24.636-45.06 26.321-47.83 5.464-9.21 10.746-17.36 15.709-24.24 2.549-3.55-3.006-7.56-5.555-3.96-5.054 7.01-10.427 15.35-15.983 24.64-1.731 2.83-24.817 44.88-26.547 48.29-5.282 10.21-63.386 123.6-63.978 124.78-1.09-.09-2.184-.13-3.278-.13-7.922 0-16.119 2.23-23.087 6.24-12.43 7.29-22.858 19.91-31.829 38.63-.864 1.69-1.593 3.42-1.866 5.29-.32.18-26.775 40.95-26.775 40.95-3.142 4.83-1.685 11.3 3.415 14.76a11.387 11.387 0 0 0 6.557 2.05c3.37 0 6.466-1.41 8.47-3.96l20.535-25.74c1.776 5.06 2.55 9.79 2.505 14.49-.046 4.37-.865 8.84-1.686 13.57-1.548 8.39-3.096 17.09-.091 25.38 2.276 6.33 6.876 11.16 11.02 15.21 13.432 13.12 28.688 24.24 45.354 33.17 2.412 1.27 5.1 2.55 8.196 2.55.365 0 .729 0 1.093-.05 3.734-.41 6.785-2.73 8.97-4.42 9.881-7.65 19.034-16.3 19.262-27.65.183-8.93-5.145-15.44-10.291-21.78-2.869-3.5-5.555-6.78-7.332-10.43-7.104-14.58 1.184-32.39 6.922-45.96 3.324-7.79 6.966-14.9 11.292-22.19 6.967-11.85 14.527-23.01 22.449-34.21 1.321-1.92 18.305-25.93 21.128-29.93l70.17-99.36-8.378 171.24c-.046 1.6.956 2.97 2.412 3.38-4.052 3.87-7.514 8.65-9.881 14.07-5.783 13.08-6.694 29.34-2.777 49.66.272 1.41.638 3.42 1.593 5.28-.091.37 2.824 48.66 2.824 48.7.683 10.71 16.801 13.62 21.447 4.06 1.046-2.14 1.137-4.6 1.23-6.97.41-9.98.773-20 1.183-30.02 4.963 2.96 8.88 7.47 12.021 12.39 3.096 4.87 5.556 10.15 8.241 15.26 3.69 6.97 8.379 13.98 15.573 17.13H3.415c-.903 0-1.768.37-2.407 1A3.454 3.454 0 0 0 0 1780.58c0 .45.088.9.259 1.31.171.42.423.79.74 1.11.318.32.694.57 1.109.74.414.17.859.26 1.307.26H1996.59a3.427 3.427 0 0 0 2.41-1 3.44 3.44 0 0 0 1-2.42c-.01-.9-.37-1.77-1.01-2.41-.64-.64-1.5-1-2.4-1ZM583.398 846.484c-.182 2.688-2.868 11.07-5.1 16.446-1.775 4.282-7.604 9.111-13.25 13.804-4.189 3.508-8.197 6.834-11.02 10.205l-27.139-12.711c-1.23-5.103-.228-11.07 2.413-13.303 1.048-.865 2.232-1.685 3.553-2.551 7.33-4.92 18.396-12.345 23.041-41.639.545-3.552 5.419-6.195 13.295-7.289.456-.046.729-.091.82-.136 4.735-1.139 7.512-.365 8.788 2.961 3.872 9.931 5.328 20.819 4.599 34.213Zm25.82-126.238 85.196-18.314-61.519 142.729-44.942 11.664c1.138-3.599 2.139-7.244 2.276-9.431.774-14.259-.865-26.377-5.055-37.084-.638-1.639-1.958-4.146-3.506-5.102l27.55-84.462ZM442.194 849.901l46.446-138.174 114.202 8.838s-26 81.637-26.047 81.82c-2.686-.456-8.014.229-8.514.32-15.209 2.049-18.533 8.974-19.125 12.937-4.19 26.332-13.388 32.527-20.126 37.084-1.549 1.002-2.961 1.958-4.145 3.007-1.048.865-1.959 2.004-2.686 3.325l-80.005-9.157Zm-.137 94.667s3.961 6.151 4.28 6.378c-.911 13.804-2.095 27.79-3.46 41.639-.41 4.373 6.329 5.058 6.784.683a1206.41 1206.41 0 0 0 3.779-46.012l56.555-72.527 42.94 19.224 3.506 1.595 1.139.501s-79.14 123.731-82.418 128.291c-3.553 4.92-4.781 7.97-9.244 9.52-4.463 1.55-9.243.91-13.159-1.69l-23.269-15.67c-1.093-16.22-2.959-43.278-2.959-43.278 8.65-10.567 13.386-20.089 15.526-28.654ZM277.994 814.184l-46.127-2.369c-.228-6.56 3.369-12.618 7.195-18.998 3.141-5.284 6.421-10.752 7.695-16.855 1.093-5.331.547-10.706.046-15.9-.5-5.284-.957-10.25.137-15.034 1.458-6.333 5.42-11.709 8.06-17.586 2.232-4.965 3.37-11.981 4.553-19.452.592-3.827 1.275-7.836 2.095-11.8.591-2.778-3.917-3.873-4.463-.911-.864 4.009-1.502 8.11-2.14 11.982-1.139 7.152-2.232 13.895-4.189 18.314-2.732 6.15-6.785 11.753-8.334 18.405-1.275 5.512-.774 11.117-.228 16.491.501 5.102.956 9.932 0 14.578-1.139 5.329-4.189 10.478-7.15 15.443-3.916 6.606-7.968 13.394-7.877 21.094l-18.215-.958c-2.368-7.607 3.187-16.993 8.152-25.375 2.549-4.282 6.556-8.154 8.196-12.939 1.959-5.649.501-11.434-.91-17.038-2.322-9.065-4.326-16.947 6.238-25.238 12.067-9.385 9.289-19.317 6.603-28.883-4.052-14.67-9.152-32.847 34.425-63.006 17.758-12.3 37.064-14.897 50.088-14.897 23.542 0 43.668 8.384 47.721 16.219.41.865 1.23 1.503 2.186 1.731.182.047 17.167 4.374 28.096 15.672 9.881 10.205 15.254 25.648 14.981 42.778l-11.065-.319c-2.23-15.489-12.705-32.892-27.185-45.056-2.05-1.731-5.373 1.504-2.913 3.508 13.205 11.026 23.131 27.334 25.408 41.411 0 0-109.739-3.052-110.286-3.052-2.824-.091-4.464 3.235-2.824 5.467 3.506 4.737 5.145 11.024 4.872 16.902-.319 6.151-3.779 9.932-5.601 15.443-1.913 5.832.501 11.298 2.596 16.128 1.638 3.69 3.142 7.152 2.823 10.341-.41 4.1-3.369 7.608-5.464 11.025-4.827 7.79-4.052 13.212-2.504 16.401 1.32 2.779 2.868 4.464 2.823 7.744-.092 6.746-2.87 13.578-7.514 18.589Zm13.979-14.259c.228-1.413.365-2.825.365-4.283 0-1.822-.137-4.51-1.321-7.016-2.368-5.284-3.688-8.108-.046-13.621 2.823-4.236 6.011-8.701 6.466-13.895.5-5.011-1.549-9.657-3.325-13.757-1.866-4.237-3.506-7.928-2.412-11.299 2.003-5.739 5.327-9.749 5.783-16.217.135-1.777-.41-16.583-2.869-16.674l91.435 2.551c5.1 12.528 7.331 26.104 6.375 39.224-.546 7.881-2.004 15.626-4.326 22.96-8.243 26.059-29.143 53.484-59.515 51.206-13.433-1.001-26.273-8.564-36.61-19.179Zm62.975 69.885c-5.737 6.196-22.996-5.604-27.777-8.474-10.792-6.468-19.671-14.988-24.953-20.729-.182-.182-3.826-4.328-4.644-5.284 0-.136 3.187-16.492 3.506-17.904 4.371 2.505 12.34 5.239 13.751 5.739 5.51 1.868 11.247 2.916 17.076 2.916 7.377 0 14.572-1.594 21.356-4.647.956 9.248 5.965 43.735 1.685 48.383Zm-161.513 327.64s51.683.14 51.955 0l-.228 11.99h-51.773c0-3.79 0-7.79.046-11.99Zm58.968 47.61c.045.18 3.916 19.91 11.748 27.11.592.54.909.91 1.093 1.14.182.23-2.232 1.68-2.551 1.73-3.415.18-7.286-1.69-8.605-2.78-2.368-2-7.241-7.93-8.926-10.02-1.867-2.33-5.647-1.19-6.055 1.73-1.549 13.44-15.709 50.48-22.631 49.75-9.198-1.32-19.809-8.52-25.773-17.45-2.732-4.1-4.553-8.8-4.553-13.76 0-4.28.91-8.7 1.411-12.94 1.048-8.93 2.368-17.81 4.099-26.6 1.092-5.7 2.276-11.35 3.961-16.86 1.002-3.28 2.094-7.24 4.462-9.84h41.437c1.64-.32 5.282 10.16 5.647 11.11 2.185 5.75 3.778 11.71 5.236 17.68Zm110.105-272.109c-.364 0-.683.046-1.002.182-19.126 8.382-31.783 6.424-46.447 4.146-1.638-.273-4.052-.958-4.735 1.184-.864 2.688 2.323 3.053 4.053 3.326 6.784 1.047 13.205 2.05 19.99 2.05 8.241 0 17.121-1.504 27.959-6.105l-.136 3.736c-1.139 26.42-.911 53.44-.683 79.59.228 25.87.456 52.57-.683 78.49-3.961 18.68-10.154 36.27-13.113 37.68-7.696.86-17.121 1.32-28.005 1.32-25.226 0-52.821-2.37-67.074-3.78l.455-26.42 25.091-100.82c.091-.46.135-.91.046-1.41l-9.152-55.491s21.219-87.56 21.263-87.834c1.048-4.283-5.601-5.877-6.647-1.595l-21.539 89.155-14.025 57.945c-.091.28-.091.5-.137.78l-1.731 98.35-.82 45.7c-.318-.14-52.001-.23-52.001-.23.273-56.49 1.457-141.18 4.781-154.26l25.227-167.099c1.366-6.605 8.105-10.522 16.893-13.393 2.095-.73 6.603-1.959 6.603-1.959l29.826-8.384s6.829 6.014 9.972 8.839c15.892 14.305 31.328 29.385 45.854 44.964 10.837 11.617 21.857 24.191 26.684 39.361 3.233 10.25 3.552 21.184 3.233 31.982ZM253.632 1117.87l1.184-68.34 10.154-41.91 6.419 38.95-17.757 71.3Zm114.156 18.58c0-.27 0-.5.047-.77.91-24.83.682-50.16.5-74.67-.228-26.06-.454-52.98.683-79.267.546-13.485 1.23-28.746-3.278-42.823-5.236-16.538-16.757-29.795-28.141-41.958a766.969 766.969 0 0 0-52.775-51.206c.455-.228 7.058-2.005 9.699-2.87 2.414 2.415 4.19 4.009 6.603 6.423 6.785 6.788 14.299 12.939 22.54 17.904 9.562 5.74 30.235 19.954 38.159 4.555 2.595-5.102 2.094-11.252 1.638-16.718-.228-2.961-.591-10.981-1.32-14.259 1.912 2.14 11.61 22.231 11.61 22.231 1.639 3.644-1.502 10.023-3.46 12.984-4.963 7.335-12.614 9.111-20.992 9.111-2.915 0-6.147.137-8.742-1.457-2.505-1.55-4.873 2.369-2.368 3.918 3.278 1.959 7.195 2.096 10.883 2.096 6.649.046 13.161-.638 18.716-4.555 4.781-3.417 8.287-8.52 9.836-14.168a1765.53 1765.53 0 0 1 23.315 52.025c2.276 5.24 4.826 11.208 4.735 17.131 0 1.275-2.642 112.893-2.004 119.673.774 7.89 9.016 72.9 9.016 72.99-7.652 1-27.231 3.37-44.9 3.68Zm52.23 30.53c.182-6.2.091-12.35.045-18.55-.045-6.15-.045-12.07-.82-18.17-.637-4.83-1.229-9.66-1.821-14.44-1.64-12.85-6.33-50.57-6.922-56.68-.591-6.28 2.004-117.67 2.004-118.945.136-7.38-2.87-14.305-5.282-19.909-10.928-25.512-36.383-79.543-37.612-81.273l17.304 4.738c8.514 2.779 11.429 8.656 15.072 16.082 1.867 3.736 23.77 43.324 23.77 43.324 3.051 4.875 6.512 10.387 8.697 16.72 1.685 4.83 2.642 10.159 2.141 16.128-.729 9.567-5.191 20.774-16.301 34.031-.775 1.002-.775 1.139-.501 4.737.592 8.656 11.429 170.197 12.021 189.197-.273.05-.501.14-.774.23-2.871.86-7.97 2.46-11.021 2.78ZM73.358 1686.1c-2.914 3.69-10.063-.69-7.376-4.88l23.132-35.85c2.868 2.6 7.103 12.03 7.103 12.03s-22.814 28.61-22.858 28.7Zm96.718-12.39c-6.876-.87-13.889-1.78-20.811-1.51-2.504.14-4.462 2.01-4.599 4.42-.273 5.2.319 16.04.592 19.77.182 2.37 2.368 4.15 4.735 3.83 3.233-.46 10.838-1.28 17.441-.32a33.26 33.26 0 0 0 2.642 7.75c2.139 4.32 5.191 8.11 8.196 11.75 4.554 5.6 8.881 10.89 8.744 17.31-.137 8.48-8.06 15.76-16.62 22.37-3.872 3.01-6.33 3.73-10.883 1.27-16.074-8.56-30.783-19.36-43.76-31.98-3.597-3.5-7.559-7.7-9.38-12.66-1.321-3.69-1.503-7.66-1.139-11.8 1.957 2.96 4.508 5.6 6.966 8.06 8.106 8.02 16.575 16.08 25.045 23.92 3.051 2.78 5.829 5.29 8.879 7.52a55.848 55.848 0 0 0 12.75 6.97c2.732.91 4.326-3.28 1.638-4.28a49.694 49.694 0 0 1-11.703-6.38c-2.868-2.1-5.555-4.51-8.469-7.2-8.47-7.79-16.848-15.81-24.954-23.78-4.053-4.05-8.105-8.38-8.925-13.3.091-.5.182-1.05.273-1.6.865-4.78 1.776-9.75 1.822-14.67.182-14.62-7.058-27.42-12.568-35.8-1.229-1.83-2.323-3.56-2.323-5.15 0-1.14.638-2.51 1.367-4.06 8.379-17.4 17.896-29.06 29.143-35.62a38.458 38.458 0 0 1 17.623-5.24c-3.097 6.88-3.37 16.17-2.368 24.96-1.274.69-3.552 1.6-4.463 2.01-2.277 1.04-4.326 2.32-6.33 3.82-7.74 5.79-14.343 12.76-19.58 20.78-1.548 2.41 2.23 4.87 3.779 2.5 4.963-7.56 11.202-14.16 18.534-19.63 2.731-2.01 5.554-3.69 8.742-4.88.865 5.33 2.185 10.21 3.552 13.9 4.599 12.48 15.301 29.7 31.191 24.14-1.729 4.24-3.369 8.48-4.779 12.81Zm-3.325 21.54c-6.284-.72-12.978-.13-16.985.37-.273-3.96-.774-13.99-.319-18.86 5.464-.23 19.217 1.37 19.308 1.37-1.549 5.78-2.368 11.48-2.004 17.12Zm14.298-49.56c-2.55 5.92-7.24 9.38-12.157 9.34-7.149-.18-14.162-7.93-18.807-20.6-4.007-11.11-6.647-30.97-1.23-39.95l1.549-1.59c1.457.86 11.885 11.16 19.126 17.49 4.326 3.87 8.879 7.34 13.66 10.57 2.869 1.91 5.874 4.47 9.061 5.83l-11.202 18.91Zm201.767 58.54c1.821 4.96 3.87 9.52 6.829 13.35-4.872 2.82-9.289 6.51-12.203 9.15-3.142-3.78-7.832-9.61-10.292-13.12 4.281-3.14 10.93-6.78 15.392-9.24l.274-.14Zm-14.8-49.61c1.093 5.69 9.153 26.78 5.42 30.52-4.645 4.69-19.899 4.19-39.069-6.01-9.063-4.79-16.302-18.91-17.896-29.93l51.545 5.42Zm-58.285 110.06c-.182 4.7-8.651 4.83-8.925.23l-2.642-42.37c1.503.73 12.978 4.38 12.978 5.74.001 0-1.411 36.27-1.411 36.4Zm122.218 3.19c-.592 1.96-1.275 4.42-2.642 5.61-1.184 1.04-3.233 1.36-5.373 1.64-8.23 1.05-16.52 1.58-24.817 1.59-9.926 0-19.945-.78-29.78-2.28-5.009-.77-10.747-1.82-15.209-4.87-5.829-3.97-9.198-10.75-12.75-17.95-2.14-4.38-4.371-8.89-7.285-12.94-4.416-6.1-10.109-10.71-15.937-14.21-4.963-3.01-10.245-5.38-15.619-7.47-2.004-.82-3.962-1.55-4.963-2.88-.683-.95-1.002-2.41-1.321-4.05-3.644-18.95-2.869-33.85 2.322-45.6 2.55-5.79 6.466-10.8 11.065-14.44 1.23 8.56 5.328 18.67 11.293 26.19-1.183 1.82-2.413 3.83-3.369 5.97-.683 1.46-1.23 3.01-1.867 5.06-2.686 8.7-3.87 17.67-3.506 26.65 0 1.5.091 3.14 1.867 3.51 4.234.86 2.641-9.3 2.777-11.53.41-5.88 1.503-11.66 3.187-17.31 1.002-3.1 2.231-6.11 4.099-8.8 2.14 2.19 4.508 4.01 7.012 5.38 11.976 6.38 23.496 9.7 32.512 9.7 6.284 0 11.338-1.59 14.572-4.82.182.54 2.549 7.51 2.367 7.6-.456.23-.911.51-1.321.73-4.918 2.69-12.385 6.79-16.985 10.39-2.458 1.96-3.05 5.28-1.365 7.79 2.914 4.46 9.881 12.94 12.339 15.81 1.958 2.28 5.555 2.5 7.741.41 2.322-2.14 7.832-7.06 13.615-10.07 1.913 1.5 4.099 2.78 6.603 3.87 3.688 1.55 7.65 2.65 11.521 3.69 7.787 2.1 15.163 4.1 19.306 9.98 4.92 6.97 2.87 17.4-.089 27.65ZM1787.4 1559.45h-203.77v-16.77s200.76.05 201.35 0c10.11-.72 13.35 16.77 2.42 16.77Zm-9.38-23.55h-194.39v-93.99h115.97c.61 0 1.19-.24 1.61-.67.43-.42.67-1 .67-1.61 0-.3-.05-.59-.17-.87-.11-.28-.28-.53-.49-.74-.21-.21-.46-.38-.74-.5-.28-.11-.58-.17-.88-.16h-288.19c-.3-.01-.6.05-.87.16-.28.12-.53.29-.74.5a2.167 2.167 0 0 0-.66 1.61c0 1.23 1 2.28 2.27 2.28h91.12v93.99h-407.36c-29.33 0-53.19-23.1-53.19-51.48v-65.83c0-28.43 23.86-51.53 53.19-51.53H1693c.18.32.41.64.59.96 3.24 4.83 7.97 7.79 12.12 10.16 13.35 7.64 27.78 13.2 42.8 16.49 2.78.59 5.65.96 8.33-.23 3.01-1.27 4.92-4.05 6.33-6.06 4.6-6.56 8.7-13.48 9.57-20.59h5.14c-17.9 33.99-17.81 136.72.14 168.11Zm-201.23-93.99v153.07l-31.14-36.12c-.64-.78-1.59-1.19-2.6-1.19-.95 0-1.91.41-2.55 1.19l-31.14 36.17v-153.12h67.43Zm105.65-117.03c2 3.32 3.41 6.65 4.23 10.11.87 3.46 1.19 7.2 1.51 11.12h-14.3l8.56-21.23Zm-16.53 22.82c-1.37 3.33-6.6 1.55-5.56-1.96l10.29-34.71c.14.18 5.15 5.06 7.06 7.29 0 0-11.56 28.83-11.79 29.38Zm9.79-41.27c-1.28-1.19-2.46-2.28-2.78-3.47-.18-.72 1-6.46.77-6.6 8.88 6.06 14.85 13.8 18.67 24.01.96 2.59 5.28 1.27 4.28-1.64-4.37-11.71-11.34-20.37-21.9-27.2 2.96-12.57 7.47-22.1 13.62-28.88a25.25 25.25 0 0 1 3.78-3.6c2.51 1.84 5.07 3.6 7.69 5.28 1.09 10.94 5.24 23.24 7.97 29.29 14.16 31.85 21.31 36.13 26.46 36.13 2.23 0 4.05-.86 5.55-2.55 1 5.47 3.01 10.52 6.6 14.9 2.64 3.19 5.88 5.55 9.02 7.88 4.92 3.64 9.15 6.79 10.34 11.98 1.45 6.06-1.82 12.85-6.11 19.45-8.65-1.59-28.91-9.11-34.56-12.34-2.5-1.46-4.78 2.46-2.23 3.96 5.24 2.96 23.64 10.07 33.97 12.44-1.95 2.69-3.59 3.37-6.83 2.55a146.936 146.936 0 0 1-40.89-15.76c-3.5-2.01-7.42-4.42-9.83-8.02-5.88-8.8-3.56-20.96-5.97-30.84-3-12.35-11.47-21.28-17.62-26.97Zm31.83-37.13v-.05c.18.14 4.78 3.01 6.92 4.33 8.38 5.19 25.77 16.9 25.95 16.99l.05-.09s-2.28 24.15-3.51 28.2c-1.27 4.01-2.41 4.24-2.68 4.24-.6 0-6.33-.87-20.22-32.07-2.46-5.52-5.1-13.76-6.51-21.55Zm39.93 28.74c.28-2.14 1.14-6.51 1.69-6.83 1.95-1.23 3.55-2.55 4.05-4.92 2.46-11.43 10.79-28.79 19.58-47.15 1.27-2.69 5.24-12.21 6.88-14.44 2.27 8.15 6.46 26.92 6.65 28.11v87.1c0 2.51-5.29 6.2-13.53 6.2h-11.15c-.69-.55-1.39-1.08-2.1-1.6-2.96-2.18-5.74-4.23-7.83-6.78-7.93-9.48-6.06-24.83-4.24-39.69Zm38.8 62.83c-.23.09-13.84-.6-13.84-.64-.69-2.83-2.01-5.19-3.56-7.29h3.92c7.01 0 13.11-2.19 16.76-5.56 1.82 1.32 3.05 3.6 3.05 6.24 0 3.79-2.78 6.93-6.33 7.25Zm30.69-29.52c-1.46-.37-2.87-.73-3.55-1.51-.55-.64-.96-1.91-1.28-2.91-4.19-12.76-5.46-23.33-4.01-32.35 4.01-.41 8.66-1.05 13.71-1.73 1.76 2.44 3.71 4.74 5.83 6.88-1.37 2.73-3.82 7.56-4.37 9.57-.37 1.37-.64 2.77-.82 4.19-.95 6.46-.97 13.03-.05 19.5-1.8-.6-3.63-1.14-5.46-1.64Zm10.97 38.49c-1.14.14-2.37-.45-2.68-1.82l-5.6-28.7c2.91.96 5.55 2 7.87 3.28 0 0 2.55 24.55 2.55 24.74.14 1.5-.95 2.36-2.14 2.5Zm61.52-39c3.74.6 7.2 2.01 10.75 2.6 5.46.82 10.15 1.55 13.29 5.15 2.78 3.19 3.56 7.79 3.51 12.94-4.33 5.65-12.98 6.47-19.49 7.61-11.52 2-23.54 2.41-35.2.27-2.91-.55-3.69 3.92-.82 4.46 5.6 1.05 11.34 1.55 17.03 1.55 12.39 0 27-1.32 38.02-7.38-.54 2.14.05 5.06-1.91 6.65-.59.5-1.41.73-2.14.91-13.11 3.65-26.86 5.24-40.48 4.74-3.64-.13-7.78-.45-11.24-2.27-4.56-2.51-7.7-7.48-11.07-12.71-2.05-3.29-4.19-6.66-6.83-9.62-4.55-5.15-10.15-8.52-15.48-10.84-1.28-6.83-1.46-13.85-.41-20.73.18-1.23.36-2.46.68-3.69.59-2.05 2.46-5.92 3.32-7.65 1.2 1.02 2.46 1.97 3.78 2.82 16.26 10.39 27.37 15.4 34.47 15.4 2.6 0 4.97-.82 6.88-2.55.82 3.83 12.02 12.12 13.34 12.34Zm-18.08-21.45v.09c.6 3.28-.18 4.19-.36 4.33-.14.18-4.65 3.96-32.56-13.94-3.09-1.96-6.15-4.88-8.97-8.34l-.04-.05c1.27-.23 32.1-6.56 32.37-6.65 1.14 2.78 9.02 21.46 9.56 24.56Zm-174.81-352.157c25.41 6.333 50.23 15.079 75.23 22.779 5.92 1.822 11.7 3.69 17.21 5.421 10.7 3.371 21.45 6.378 31.51 11.434 6.78 3.413 14.02 7.793 18.49 14.123 7.69 10.98 10.02 113.53 11.02 157.31.27 13.76.54 24.6.82 29.88v.19c1.09 13.98 2.5 24.32 4.14 36.26 1.59 11.53 3.37 24.46 5.19 43.46 0 0-55.78 10.07-57.33 10.21 0-.05 0-.1-.04-.14-1.66-6.83-3.42-13.63-5.29-20.41 3.47.77 7.7 1.09 12.16 1.09 16.85 0 37.75-4.37 38.94-4.64 1.23-.28 2.04-1.46 1.77-2.69-.13-.59-.49-1.1-.99-1.43-.5-.33-1.1-.45-1.69-.35-.41.09-37.75 7.97-51.55 2.87-.77-2.82-9.33-33.35-11.02-40.54-.51-2.15-.97-4.3-1.37-6.47.05-.1.08-.21.09-.32 21.18-55.94 38.25-143.55 38.39-144.42 5.65-28.79-16.71-47.79-37.75-55.39l-119.39-34.172a35.653 35.653 0 0 0 3.55-3.326c8.79-9.567 8.79-21.366 8.43-25.648.04.227 16.66 4.191 19.48 4.919Zm4.28-50.614c-1.23.411-2.46.639-3.73.639-4.74 0-9.02-3.053-10.56-7.518l-1.87-5.239 32.33 6.424-16.17 5.694Zm145.99-64.645c-.27.307-.58.582-.91.82-2.81.331-5.64.499-8.47.501-2.37 0-4.69-.136-6.69-.228-3.74-2.551-4.88-29.567-1.74-40.728 1.23-4.465 3.97-8.519 7.11-13.03 2-2.869 7.69-5.193 12.7-5.193 2.42 0 3.83.592 4.28 1.093.09.091.28.319.23 1.003-1.32 16.493-3.87 45.467-6.51 55.762Zm-158.37-125.645 106.46 21.229s-7.51 51.16-7.56 51.434c-.41 2.915 4.05 3.643 4.51.683l7.69-52.117 69.67-30.751-14.89 71.342c-1.54-.546-3.41-.865-5.51-.865-6.23 0-14.57 2.779-18.3 8.11-3.51 5.011-6.56 9.613-8.11 15.124-2.77 9.977-3.46 37.63 2.37 46.058 1.69 2.46 3.69 3.098 5.1 3.189 2.55.228 8.79.365 9.38.319l-5.37 25.649-58.74 27.016 14.43-97.81a2.228 2.228 0 0 0-.43-1.672 2.254 2.254 0 0 0-1.48-.879c-1.28-.228-2.42.638-2.6 1.913l-14.8 100.316-107.28-21.411 5.38-35.443a617.76 617.76 0 0 0 6.51-4.783l65.61-13.621c8.66-1.732 14.44-10.888 12.85-20.592-2.83-16.856-24.64-25.693-44.77-25.693-4.05 0-7.92.364-11.52 1.093l-20.17 8.063 11.57-75.901Zm-28.78 90.202 38.98-15.717c17.99-3.417 45.3 3.371 47.95 19.225 1 5.922-2.37 11.571-7.47 12.573l-67.21 13.303-12.25-29.384Zm29.51-197.944c-.96 6.788-4.28 20.728-4.42 21.138a15.69 15.69 0 0 1-4.14.136c-9.61-.821-16.76-9.294-15.94-18.907.77-8.928 8.38-15.991 17.39-15.991 1.05 0 8.56.912 8.43 2.233-.32 3.6-.78 7.381-1.32 11.391Zm1.73-16.264c-2.14-1.002-4.51-1.594-6.97-1.823-12.2-1.047-22.77 8.156-23.81 20.091-.09.985-.1 1.974-.05 2.961h-2.23l-1-7.699c-.23-1.868-1.96-3.189-3.83-2.961a3.363 3.363 0 0 0-2.91 3.827l.86 6.697s-3.14-.091-3.14-.182c.5-5.876-1.32-11.571-5.1-16.082-3.82-4.464-9.11-7.244-14.98-7.744-10.15-.865-19.26 5.376-22.54 14.443l-16.85-6.378c4.69-5.877 18.03-19.954 37.89-19.954 6.65 0 13.11 1.822 19.49 3.507 7.6 2.005 15.43 4.1 22.95 4.1 4.14 0 7.74-.638 10.97-1.958 1.09-.457 11.38-3.735 11.38-5.422.23 4.463.19 9.337-.13 14.577Zm-47.63 20.546c-.82 9.429-9.25 16.674-18.9 15.9-9.52-.775-16.71-9.43-15.89-18.907.82-9.385 9.47-16.765 18.85-15.9 9.47.866 16.8 9.34 15.94 18.907Zm53.5-9.84c2 3.143 3.01 6.925 2.69 10.934-.41 5.011-3.01 9.43-6.74 12.346 1.32-5.422 2.41-11.07 3.19-16.765.31-2.233.59-4.419.86-6.515Zm-147.85 46.239c-6.42 12.665-20.77 22.05-37.39 24.51-3.28.502-6.74.73-10.24.73-9.11 0-18.94-1.686-29.42-5.012 12.25-6.56 24.87-16.765 28.19-31.707 3.28-14.624-1.96-29.201-3.87-43.598-1.91-14.488-2.51-25.558-1.87-35.808 1.23-18.997 7.93-43.324 33.11-51.525 11.74-3.827 25.68-2.596 36.79 3.052a68.753 68.753 0 0 0-7.29 6.333c-.13-.091-6.47-2.643-9.47-3.098-12.29-1.822-24.54 4.147-33.47 16.765-1.68 2.369 1.91 5.012 3.74 2.643 9.51-13.531 23.17-18.359 35.88-12.802-12.53 13.941-20.08 32.665-21.27 53.667-1.09 19.498 6.7 39.361 21.77 56.49-.77 6.878-2.19 13.484-5.19 19.36Zm-9.75-75.487c1.51-26.514 13.85-48.973 33.79-61.639 9.84-6.241 21.17-9.385 33.74-9.385 7.65 0 15.8 1.184 24.27 3.508 22.5 6.151 32.79 18.131 37.16 23.234 0 .546-5.33 10.979-29.46 11.89-1.73.046-3.96.774-3.28 3.098.5 1.776 2.23 1.594 3.73 1.457 10.93-1.093 25.59-2.55 32.93-12.892 7.78 3.643 17.57 12.846 20.44 22.732 1.18 4.054 1.05 8.655-1.14 12.345-2.14 3.644-6.01 5.513-9.79 7.063-4.1 1.639-8.42 3.098-12.89 3.098-6.6 0-14.02-1.959-21.17-3.874-7.01-1.821-13.98-3.735-21.26-3.735-21.04 0-35.34 13.212-41.76 20.637-3.96-6.925-10.84-10.068-16.8-10.068-5.15 0-9.65 2.096-12.43 5.786-2.87 3.827-3.56 8.975-1.91 14.533 2.27 7.7 4.41 11.845 6.28 15.49 2 3.781 3.78 7.198 5.46 14.487-17.71-17.129-27.04-37.72-25.91-57.765Zm34.56 66.878c0-.456-2.64-17.357-8.05-26.788-1.96-3.417-3.74-7.152-5.79-14.214-1.73-5.923 1.05-11.571 7.79-11.571 4.46 0 10.47 2.825 12.61 10.888.55 2.049 2.96 3.143 4.87 2.186l18.9 7.152c-.68 6.242.86 12.392 4.96 17.266 4.1 4.921 10.43 7.837 16.85 7.837 9.74 0 18.21-6.515 21.04-15.536l4.64.091 2.46 18.632v.182c-3.28.091-7.24-.455-8.15-1.366a3.405 3.405 0 0 0-2.43-1.025c-.46 0-.91.091-1.33.267a3.514 3.514 0 0 0-1.85 1.871c-.16.417-.25.862-.24 1.311 0 .449.09.893.27 1.306.18.413.43.787.75 1.1 3.88 3.873 10.48 3.554 15.49 3.235 4.32-.273 4.6-5.24 4.19-8.246l-2.28-17.13 2.37.046c2.32 8.702 9.92 15.444 19.39 16.264 1.05.091 2.1.182 3.15.046-1.46 4.555-3.1 8.975-4.97 13.12-7.87 17.539-22.99 38.632-48.36 36.49-21.8-1.867-44.07-21.729-56.28-43.414Zm15.03 29.931c11.93 11.116 26.23 19.088 40.67 20.272 1.13.091 2.27.182 3.36.182l1.1 16.173c-1.1 10.524-9.84 17.631-21.77 17.631-8.06 0-16.57-3.144-24.27-8.792-.09-.091-8.06-7.791-7.47-16.856 1.19-2.643 6.01-14.351 8.38-28.61Zm-86.51 243.409c-6.11-4.146-14.08-10.661-12.75-19.042l26.09-155.668c.32-8.473 5.55-13.941 12.52-17.904 8.97-4.009 18.21-7.699 26.87-11.48 3.41 9.659 17.75 22.095 33.74 29.703 7.78 3.735 18.12 7.243 29.18 7.243 5.92 0 12.03-1.002 18.08-3.554 7.56-3.144 12.3-8.61 15.8-18.177 1.01-2.733-3.23-4.373-4.28-1.594-3.05 8.382-6.92 12.892-13.29 15.58-15.8 6.652-32.38 1.685-43.54-3.599-16.62-7.972-29.05-19.999-31.55-27.471l14.52-5.557c1.1 10.478 9.16 18.223 9.84 18.815 9.2 6.788 19.13 10.387 28.64 10.387 6.97 0 13.98-1.958 19.44-6.423 2.6-2.141 4.6-4.829 6.29-7.744 1.96-3.371 3.37-13.44 3.37-13.44 2.46 0 26.27.73 30.37 13.348 1.78 5.422 4.33 10.66 7.33 15.991l-9.42 61.774-12.48 5.012-107.24 50.431s15.08-71.752 15.12-72.025c.87-4.237-5.83-5.786-6.69-1.413l-16.12 77.036c-.69.228-5.42 1.595-7.06 2.506-8.61 4.692-12.98 9.156-16.89 14.487-2.6 3.553 2.82 7.608 5.51 4.054 3.46-4.692 7.14-8.473 14.61-12.573 2.73-1.504 5.92-1.868 8.61-3.145 14.3-6.787 72.85-34.396 87.97-41.548l.19-.091c2.86 9.932 5.51 20.046 7.78 30.114.64 2.825 5.1 1.868 4.46-1.047a564.502 564.502 0 0 0-8.06-31.07l14.17-6.651 13.11 31.434c-1.18.865-103.23 73.849-139.06 79.451-8.79 1.368-17.9-1.184-25.18-6.15Zm20.3 13.394c1.96 0 3.97-.137 5.97-.456 35.38-5.604 104.18-53.256 132.1-73.483l-4.88 31.935a3.414 3.414 0 0 0 2.69 3.872l18.99 3.918c-.55 0-6.93 53.348-7.24 58.723-.68 11.581-4.92 22.414-14.66 27.425-10.07 5.194-22.54 5.24-33.56 4.328-51.1-4.191-99.18-28.883-107.33-33.256 0 0 7.88-23.006 7.92-23.006Zm-14.2 25.057c-.05.091-.05.182-.05.273h-.04c.04-.091.04-.182.09-.273Zm-16.58 90.57c-6.97-23.46 3.28-47.974 15.39-73.121.78-1.595 4.78-12.392 5.06-13.03 10.65 5.603 58.37 29.429 109.19 33.622 3.33.273 6.47.41 9.52.41 10.43 0 19.17-1.595 26.23-4.783l125.22 35.852c18.3 6.61 37.93 23.01 33.15 47.56-.18.91-17.31 88.88-38.43 144.33-1.87 4.1-8.93 19.04-10.48 22.32-9.01 18.77-17.76 37.72-20.35 49.84-.23 0-19.76-13.03-28.23-18.27-7.7-4.74-15.67-9.66-22.27-14.44.05-.27 2.69-13.71 3.37-16.58 5.6 3.73 42.62 22.09 43.76 23 2.23 1.96 5.15-1.68 2.87-3.5-1.46-1.19-40.3-20.46-45.45-24.29.46-1.91.96-3.78 1.51-5.69 1.41-5.33 22.72-87.29 27.32-101.82 3.41-10.71 6.46-21.5 10.11-32.12 2.05-6.29 5.96-17.99 7.56-19.86 2.82-3.33-2.24-7.84-5.15-4.51-2.23 2.59-6.56 14.94-8.79 20.86 0 0-9.65 1.51-13.89 1.82-26.54 2.19-53.36 2.37-80 2.37-53.37 0-89.16-2.32-100.86-6.6-23.5-8.57-40.8-24.79-46.36-43.37Zm-57.65 38.9c0 .69-.09 1.32-.32 1.92H841.356v-10.35l585.264.69c4.14 0 7.51 3.37 7.51 7.74Zm-15.3-185.643c-18.71 34.35-18.62 138.633.14 170.383H841.356v-99.951h165.524c1.23 0 2.27-1.003 2.27-2.278 0-1.23-1.04-2.278-2.27-2.278H715.861c-1.23 0-2.277 1.048-2.277 2.278a2.284 2.284 0 0 0 2.277 2.278h22.767v99.951h-31.556c-30.645 0-55.553-23.42-55.553-52.21v-66.693c0-28.792 24.908-52.208 55.553-52.208H842.54c3.143 1.959 6.831 2.597 10.518 2.597 1.594 0 3.141-.091 4.645-.228 7.923-.592 42.076-2.141 46.31-2.369h231.407c3.48.594 6.96 1.217 10.43 1.868 3.64.683 7.47 1.321 11.11.228 1.55-.455 3.01-1.14 4.28-2.096h257.96c-.14.228-.27.455-.37.728ZM834.526 968.03v204.41s-41.757-48.56-41.939-48.74c-1.367-1.6-3.825-1.55-5.191 0l-41.938 48.74V968.03h89.068Zm92.163-81.319-11.202-51.251 88.843 29.156-77.641 22.095Zm107.141-12.437 44.08 14.442H944.584l50.68-14.442h38.566Zm-108.871 20.045a2.3 2.3 0 0 1-.546.091h-.273c.272 0 .546-.045.819-.091Zm226.221-14.077c1.09.319 2.36-.091 2.73-1.504 4.42-17.311 2.46-33.986-2.14-49.064a145.288 145.288 0 0 0-5.47-14.852c-.5-1.184-5.92-13.986-6.6-13.986 2.92-.911 5.24-1.504 6.65-1.686 4.78 5.968 8.79 13.394 11.84 21.549.79 2.15 1.52 4.323 2.18 6.514 4.97 16.583 6.15 35.399 2.6 51.525-.77 3.417-2.09 7.427-4.42 9.978-3.14 3.462-7.28 2.779-11.43 2.005-3.05-.592-51-8.429-58.33-9.75l.14-61.456c12.07-4.692 32.92-12.8 46.31-17.265 2-.639 11.24 25.648 12.16 28.655 4.37 14.441 6.28 30.34 2.09 46.695-.36 1.366.59 2.369 1.69 2.642Zm18.44-.045c.45-1.959.82-3.918 1.09-5.923h255.91c4.14 0 7.51 3.372 7.51 7.745 0 3.872-3 6.697-6.87 7.015-.55-.41-260.51 0-260.51 0 1.18-2.37 2.14-5.557 2.87-8.837Zm9.33-145.418c22.73 0 40.99 20.774 38.85 43.278-1.51 15.353-12.25 28.746-27.01 33.348l-25.95 7.426c-3.51-9.521-8.24-18.177-14.07-25.101-.82-.957-2.05-1.457-3.64-1.457-6.29 0-30.83 9.293-58.15 19.953v-5.192c0-.708-.22-1.399-.63-1.977a3.433 3.433 0 0 0-1.65-1.258l-61.97-22.732 142.66-44.51a38.456 38.456 0 0 1 11.56-1.778ZM954.42 626.991c-.729-1.868-1.821-3.144-3.187-3.736-5.601-2.46-10.428 2.916-15.938 9.156-4.327 4.876-9.199 10.342-14.435 12.346-4.508 1.686-10.109 10.752-12.112 16.902-2.277-.182-5.737-.364-9.926-.411v-90.613l102.498 26.378 2.14.546v27.926c-11.337-2.323-28.776 7.562-43.074 15.671-2.731 1.504-5.326 3.007-7.603 4.192.318-1.549.683-2.961 1.047-3.735 2.184-4.827 1.91-11.114.59-14.622Zm-31.146 24.145c6.831-2.551 12.295-8.747 17.121-14.168 2.276-2.597 6.011-6.788 7.695-7.38.638 1.731.912 6.058-.501 9.202-1.547 3.462-2.413 11.025-2.504 11.891-.137 1.093.319 2.231 1.184 2.96a3.388 3.388 0 0 0 3.141.684c3.051-.866 8.015-3.69 14.298-7.243 12.067-6.788 32.285-18.178 40.032-14.395 6.19 3.098 9.78 6.606 10.97 10.797 1.37 4.92-.46 11.207-5.56 19.135-11.608 18.268-16.025 25.101-73.171 32.891-5.419-8.747-16.256-24.236-20.992-31.024 1.046-4.057 6.146-12.439 8.287-13.35Zm138.606 54.167c-.27-.774-2.55-8.063-4.73-11.161-2.01-2.778-2.55-7.107-2.28-8.929 1.82.319 6.24 3.69 8.97 5.785 5.78 4.42 12.34 9.385 19.54 10.615 2.64.455 7.78 5.057 9.15 7.973l-9.02 38.632c-45.9-2.141-62.93-7.198-77.41-22.46-7.738-8.154-12.2-13.713-11.836-18.04.228-2.688 2.367-5.557 6.606-8.792 6.87-5.239 28.87 2.095 42.03 6.468 6.87 2.278 12.29 4.101 15.43 4.374 2.46.228 4.24-2.187 3.55-4.465Zm22.63-10.387c-5.51-.956-11.38-5.421-16.53-9.338-6.64-5.103-12.38-9.477-17.39-5.969-1.23.865-2.05 2.278-2.41 4.282-.64 3.69.31 9.932 3.36 14.214.51.73 1.14 2.005 1.74 3.462-2.42-.728-5.29-1.685-8.25-2.643-11.24-3.736-24.31-8.108-34.74-8.564v-17.084c1.6-2.288 3.15-4.612 4.64-6.97 6.2-9.659 8.25-17.722 6.33-24.647-1.45-5.239-5.05-9.521-10.97-13.12v-31.571l102.45-26.287v120.452l-16.71 11.344c-3.05-2.276-9.33-7.195-11.52-7.561Zm-146.028 7.107c.137-.41 58.239-8.519 64.978-20.545v9.247c-2.59.455-4.871 1.367-6.739 2.779-5.92 4.555-8.879 8.884-9.243 13.667-.501 6.241 3.505 12.072 9.425 18.723l-67.984-17.448c1.593-.638 6.875-2.506 6.875-2.506 1.003-.364 1.686-1.092 2.688-3.917Zm67.528 33.303h.23l.04.045c14.85 12.756 34.11 17.585 75.91 19.59.05.319.14.638.32.957l-68.26 21.275-117.432-44.189c1.174-3.547 2.327-7.1 3.46-10.66a630.5 630.5 0 0 0 2.05-6.424l13.387-3.963h.047c.271.18 90.248 23.369 90.248 23.369Zm88.79-319.263c-.13.592-2.32 12.073-9.28 16.082.22-1.047.41-2.142.54-3.235v-.046l6.79-29.019c3.91 1.503 4.37 5.33 1.95 16.218Zm-26.63-102.958c10.15 2.231 21.94 22.687 21.94 38.769l-3.73 45.693-.04.136-1.83.911c-1.45-23.917-4.14-43.688-12.61-52.435.41-.82.78-1.731 1.14-2.643 2.59-7.016.86-17.312-4.1-24.464-.82-1.184-1.68-2.231-2.64-3.144.36-.227 1.64-2.186 1.87-2.823Zm-16.58 72.527c-12.84 0-23.4 9.839-24.54 22.413h-2.73c-.14-10.888 0-20.683 0-20.865 0-.902-.36-1.768-.99-2.414a3.46 3.46 0 0 0-2.38-1.048h-.05c-1.86 0-3.41 1.503-3.41 3.371-.05.729-.14 10.296-.05 20.957h-10.79c-1.14-12.573-11.703-22.413-24.544-22.413-11.156 0-20.582 7.425-23.632 17.584l-3.416-1.777c3.37-21.867 9.609-46.331 18.533-55.352 1.002-1.047 2.367-1.503 3.779-1.412a4.826 4.826 0 0 1 3.46 2.231c2.368 3.827 5.783 7.471 7.833 8.93 9.699 6.834 23.127 6.879 37.157.228 3.82 1.96 8.29 3.462 12.7 4.237 2.73.501 5.33.728 7.83.728 9.07 0 16.58-3.142 21.63-8.974 6.83 8.837 8.88 31.616 9.89 49.885l-2.65 1.322c-3-10.206-12.47-17.631-23.63-17.631Zm20.13 24.69c0 11.117-9.02 20.136-20.13 20.136-11.06 0-20.12-9.02-20.12-20.136s9.06-20.135 20.12-20.135c11.11 0 20.13 9.019 20.13 20.135Zm-69.49 0c0 11.117-9.059 20.136-20.125 20.136-11.111 0-20.126-9.02-20.126-20.136s9.016-20.135 20.126-20.135c11.066 0 20.125 9.019 20.125 20.135Zm-62.609 8.839-.182-.456c-2.733-6.423-3.233-11.709-1.321-14.806.774-1.276 1.913-2.05 2.96-2.506l4.462 23.324.045.318a87.582 87.582 0 0 0 1.047 7.837c-2.503-2.095-5.463-8.062-7.011-13.711Zm8.469-17.266-.727-4.328-2.687-46.513c0-20 19.671-47.789 39.069-47.789 2.686 0 5.327.046 8.014.228 7.513.41 16.031.911 21.491-4.737 3.01-3.143 7.42-4.921 12.12-4.921 6.51 0 12.47 3.599 14.79 8.975 1.32 3.053 6.11 2.688 7.56 0 1.05-2.232 3.19-2.825 4.83-2.915 6.42-.319 12.48 5.285 8.79 11.616-.18.32-.32.639-.37.912a12.793 12.793 0 0 0-4.69-.912c-4.28 0-4.5 6.834 0 6.834 3.33 0 5.88 2.915 7.06 4.647 4.83 6.925 5.78 16.856.27 23.69-6.73 8.747-18.57 7.836-23.9 6.925-3.46-.639-17.17-3.872-17.17-9.021 0-4.373-6.83-4.464-6.83 0 0 2.461 1.32 4.783 3.46 6.879-10.34 3.963-19.762 3.599-26.547-1.184-1.002-.73-3.916-3.646-6.011-6.97-3.916-6.242-12.659-7.289-17.896-2.051-10.746 10.979-16.848 36.991-20.081 56.946a303.409 303.409 0 0 1-.545 3.689Zm4.327 22.414c.363-5.285 1.001-11.481 1.912-18.087l3.234 1.64a22.22 22.22 0 0 0-.137 2.46c0 13.621 11.065 24.693 24.68 24.693 12.841 0 23.404-9.84 24.544-22.414h10.88c.14 7.016.41 13.986.87 18.906.09.683 0 1.23-.05 1.594l-8.65.364c-1.91.091-3.37 1.686-3.28 3.554.09 1.823 1.6 3.28 3.42 3.28h.13l10.25-.456c.54 0 1.05-.136 1.5-.41 2.83-1.595 3.78-5.468 3.46-8.566-.45-4.692-.68-11.434-.77-18.268h2.64c1.14 12.573 11.7 22.413 24.54 22.413 13.62 0 24.68-11.07 24.68-24.692 0-.82-.04-1.641-.13-2.506l2-.957c.09 1.776.13 3.508.23 5.147.27 6.241.54 11.663.91 15.9-3.01 21.503-13.62 39.588-28.42 50.795a67.226 67.226 0 0 1-6.83 4.511c-18.85 10.888-42.89 10.296-60.968-1.914-2.368-1.594-4.645-3.417-6.83-5.377-13.023-11.793-21.767-29.834-23.815-51.61Zm91.613 66.695v10.023c0 12.848-21.03 25.466-30.78 30.067-9.61-4.601-30.188-17.221-30.188-30.067v-11.616c6.603 6.652 26.818 8.291 29.918 8.382 10.74.364 21.4-2.005 31.05-6.789ZM829.335 671.136c7.968-15.08 59.468-122.776 66.435-134.758.046-.091.091-.136.136-.228 1.321-1.868 11.429-15.945 21.037-21.23 11.794-6.468 29.552-11.161 43.805-14.897 5.965-1.594 11.337-2.962 15.482-4.328v5.329c0 20.683 34.15 36.31 35.56 36.993 2.46.956 5.69-1.368 7.74-2.461a101.08 101.08 0 0 0 12.66-7.744c8.61-6.196 18.67-15.261 18.67-26.788v-3.234l4.83 1.094a68.426 68.426 0 0 1-4.15 20.044c-1.27 3.371-2.59 6.151-4.14 8.429-4.37 6.606-11.2 11.116-17.85 15.536l-16.21 10.842-18.26-10.023c-9.061-5.012-16.848-9.749-20.308-17.586-1.139-2.642-5.374-.957-4.144 1.823 4.326 9.886 14.708 15.581 22.266 19.726l20.676 11.344 18.53-12.345c6.65-4.42 14.21-9.431 19.08-16.765 1.73-2.597 3.23-5.695 4.64-9.385a71.165 71.165 0 0 0 4.33-20.638l46.08 10.433c16.35 3.69 29.33 16.036 33.88 32.39l53.23 150.612c1.82 3.781 1.82 7.426-.04 11.207-8.93 18.04-56.06 33.621-88.07 41.866-5.15 1.321-14.75 3.508-15.12 3.599 0 0 9.47-40.592 9.52-40.683l17.67-12.527c.91-.32 18.67-14.215 18.67-14.215 1.5-1.093 1.82-3.235.68-4.783-1.09-1.503-3.23-1.822-4.78-.683l-12.61 9.294-.32-24.1 2.5 3.963c.96 1.594 3.1 2.095 4.69 1.093 1.59-1.002 2.1-3.098 1.09-4.692l-7.65-14.762v-81.637c0-2.278-2.14-3.781-4.28-3.325l-18.98 4.874c-1.51-5.512-2.24-11.161-2.05-16.809.13-4.374-6.74-4.693-6.83-.228-.23 6.337.54 12.67 2.27 18.769l-83.92 21.548-76.863-19.772s1.731-20.044 1.731-20.135c.364-4.374-6.419-4.966-6.831-.592l-1.593 19.042s-25.819-6.651-25.956-6.697c-2.139-.547-4.28 1.093-4.28 3.325v95.077c-16.848.638-40.162 4.373-52.547 18.998-2.868 3.371 2.414 7.744 5.236 4.373 7.468-8.839 18.716-12.756 29.781-14.624 11.156-1.868 34.97-1.595 35.062-1.504 8.607 12.301 17.623 25.558 21.401 31.662l-74.359 22.187c-10.974 1.548-19.08-1.231-24.043-8.247-9.423-13.344-5.689-38.309-3.184-43.047Zm65.069 47.151c-.228.638-.41 1.275-.636 2.005-1.184 3.736-2.733 8.518-3.735 11.343l-18.122-6.651 22.493-6.697Zm-65.843 81.548c-20.855-6.834-31.556-30.615-24.088-50.979 4.599-12.483 15.438-21.958 28.46-24.647 4.189 3.142 9.972 5.466 17.987 5.466 3.46 0 6.738-.455 10.017-1.412L1082.15 809.4l-.19 73.439s-251.67-82.413-253.399-83.004Zm15.072 12.117 9.425 3.098c-6.876 14.032-12.887 32.208-8.97 52.39a70.671 70.671 0 0 0 3.87 12.847c1.093 2.642 5.373 1.184 4.234-1.732-1.457-3.599-2.642-7.334-3.415-11.116-4.143-19.362 1.548-36.719 8.606-50.979l50.59 16.538 3.096 14.259c.273 8.566-1.002 16.993-3.824 24.692-1.002 2.688 3.233 4.328 4.28 1.548a65.165 65.165 0 0 0 2.959-10.704l5.464 25.056c-7.877.501-18.76 1.002-29.324 1.503-12.477.546-25.408 1.14-33.423 1.732-3.278.273-6.692.319-9.152-.455-4.599-1.504-8.197-5.74-10.747-12.62a71.656 71.656 0 0 1-3.006-10.569c-4.142-19.954-.635-41.457 9.337-55.488ZM627.34 1009.72v-55.084c0-44.282 41.209-80.362 91.891-80.362h109.74c.545 2.05 1.23 4.1 1.957 6.105 1.184 3.189 2.596 5.969 4.235 8.337H707.072c-34.378 0-62.383 26.514-62.383 59.041v66.693c0 32.53 28.005 59.04 62.383 59.04h31.556v10.34h-54.915c-33.104-12.16-56.373-40.81-56.373-74.11Zm-91.298 84.18c0-1.14 2.687-3.23 7.104-3.23h195.482v5.56H544.421c-4.69.59-8.379-1.19-8.379-2.33Zm28.141 65.61c.592-19.73-2.868-42.6-11.521-55.49-.182-.32-.41-.64-.638-.96h186.603v70.57c0 1.82.501 3.5 1.457 4.83 2.139 3 6.375 3.28 8.788.5l41.12-47.79 41.118 47.79c1.139 1.32 2.642 2.05 4.189 2.05 3.416 0 6.056-3.24 6.056-7.38v-70.57h392.155c29.32 0 53.18 13.67 53.18 30.52v40.69c0 16.8-23.86 30.47-53.18 30.47H552.389c6.922-9.24 11.247-25.37 11.794-45.23Zm-21.038 52.84 690.365-.77c33.65 0 60.01-16.4 60.01-37.31v-40.69c0-20.95-26.36-37.35-60.01-37.35H841.356v-5.56h689.084c1.78.73 3.6 1.41 5.38 2.14 14.2 6.01 33.28 5.28 49.72 6.01 17.8.78 98.31.5 109.24.09 4.73-.18 24.82-1.04 35.33-2.59-1.5 7.01-4.19 15.62-7.46 26.01-8.97 28.43-25.05 93.39-26.05 97.08l-1153.453-.5c-4.28 0-7.104-1.91-7.104-3.32-.001-1.14 2.686-3.24 7.102-3.24Zm-57.829 133.76a3.375 3.375 0 0 1-2.345-.98 3.37 3.37 0 0 1-.979-2.35v-113.21c.005-.88.357-1.72.979-2.34a3.29 3.29 0 0 1 2.345-.98H1694.73c-1.09 4.1-2.14 8.2-3.05 12.2-1.05 4.79-2 9.62-2.73 14.49-2.08 1.49-3.98 3.2-5.69 5.1-8.24 9.16-13.75 22.33-16.85 40.18-.23 1.51-.5 3.15-.32 4.79-.5 1.54-12.29 40.77-12.29 40.77-.24.75-.36 1.54-.37 2.32l-1168.114.01Zm.091 135.07v-54.57c0-33.26 22.721-61.82 54.824-73.67H1655.8a9.98 9.98 0 0 0 4.23 2.87c3.78 1.14 7.97.18 10.57-2.87h18.21c.28 2.46.73 4.92 1.37 7.29h-595.01c-33.1 0-60.02 26.2-60.02 58.36v65.83c0 32.12 26.92 58.31 60.02 58.31h407.36v17.18c-.23-.19-945.496-.46-945.496-.46-40.709-6.92-71.627-39.45-71.627-78.27Zm76.043 242.18c2.323-13.94 3.598-30.2 3.78-46.74.41-35.21-4.052-71.57-13.433-88.79h508.223c28.73 0 52.14 22.83 52.14 50.84v65.06c0 28.02-23.41 50.34-52.14 50.34H552.024c.274-.5 7.378-18.59 9.426-30.71Zm-20.719 53.81c-3.915 0-7.104-6.06-7.104-10.16 0-3.97 3.188-6.66 7.104-6.66h519.289c32.51 0 58.96-24.82 58.96-56.62v-65.06c0-31.8-26.45-57.81-58.96-57.81H540.731c-3.915 0-7.104-3.32-7.104-7.47a7.116 7.116 0 0 1 2.084-5.02 7.157 7.157 0 0 1 5.02-2.09h961.799v31.76c0 1.54.45 3 1.23 4.14 1.96 2.78 5.87 3.01 8.06.46l31.23-36.31 31.29 36.31c1 1.18 2.36 1.87 3.82 1.87 3.05 0 5.46-2.88 5.46-6.47v-31.76h166.3c48.54 0 88.02 34.85 88.02 77.68v53.35c0 42.86-39.48 79.86-87.97 79.86H540.731Z"/></svg>