<svg xmlns="http://www.w3.org/2000/svg" width="2603" height="2603" fill="none"><path fill="#E2F3FC" d="M484.923 2036.8H2335.61c59.38-51.86 103.86-121.84 124.14-199.11 30.26-115.3 6.05-244.3-63.8-339.87-64.29-87.94-167.62-155.69-184.45-264.2-12.09-77.94 25.32-154.13 36.53-232.21 24.27-168.908-84.23-339.858-234.46-413.726-150.22-73.868-331.05-61.326-485.51 2.739-87.42 36.265-172.3 88.981-266.6 91.001-162.46 3.482-289.594-140.943-444.29-191.899-124.501-41.013-267.802-16.295-372.333 64.227-104.531 80.526-167.513 214.705-163.651 348.651 2.562 88.809 32.064 180.817 1.968 264.137-18.439 51.06-57.073 91.38-83.821 138.42-70.922 124.7-50.478 286.8 16.008 414.04 64.981 124.37 167.795 222.59 269.582 317.8Z"/><path fill="#fff" d="M323.433 807.648H876.8c-38.191-5.633-78.741-18.283-116.932-23.911 25.842-40.383-3.577-103.318-51.139-109.383-47.557-6.065-91.834 47.473-76.944 93.052-7.841-14.634-25.333-23.432-41.753-21.001-16.419 2.431-30.611 15.92-33.875 32.189-7.288-51.899-15.727-106.578-48.572-147.419-32.839-40.841-98.919-59.811-138.323-25.259-24.344 21.344-31.892 57.037-27.191 89.075 4.701 32.032 19.824 61.456 34.713 90.204-17.778 7.486-34.052 22.453-53.351 22.453Zm789.887 288.102h553.38c-38.2-5.63-78.74-18.29-116.94-23.91 25.85-40.39-3.57-103.321-51.13-109.386-47.57-6.06-91.84 47.476-76.95 93.056-7.84-14.63-25.33-23.44-41.75-21-16.42 2.43-30.61 15.91-33.88 32.18-7.28-51.89-15.72-106.574-48.57-147.415-32.84-40.841-98.92-59.811-138.32-25.264-24.35 21.344-31.89 57.042-27.19 89.074 4.7 32.035 19.82 61.455 34.72 90.205-17.79 7.49-34.07 22.46-53.37 22.46Zm-604.767 222.76h553.367c-38.19-5.63-78.741-18.28-116.932-23.91 25.842-40.39-3.577-103.32-51.139-109.38-47.556-6.07-91.833 47.47-76.944 93.05-7.835-14.63-25.333-23.43-41.747-21.01-16.42 2.44-30.612 15.92-33.876 32.2-7.283-51.9-15.727-106.58-48.572-147.42-32.839-40.84-98.919-59.82-138.323-25.26-24.343 21.34-31.892 57.04-27.191 89.07 4.701 32.03 19.824 61.46 34.719 90.2-17.784 7.49-34.063 22.46-53.362 22.46ZM1923.92 925.122h553.38c-38.2-5.628-78.74-18.284-116.94-23.911 25.85-40.383-3.58-103.319-51.13-109.378-47.57-6.065-91.84 47.473-76.95 93.046-7.84-14.628-25.33-23.432-41.75-21.001-16.42 2.432-30.61 15.92-33.88 32.194-7.28-51.898-15.73-106.577-48.57-147.418-32.84-40.841-98.91-59.817-138.32-25.265-24.35 21.345-31.89 57.042-27.19 89.075 4.7 32.032 19.82 61.457 34.72 90.204-17.79 7.486-34.07 22.454-53.37 22.454Z"/><path fill="#B7DAEA" d="M2523.26 2061.99c0 81.92-547 148.33-1221.76 148.33S79.74 2143.91 79.74 2061.99c0-81.92 547-148.33 1221.76-148.33 674.75 0 1221.76 66.41 1221.76 148.33Z"/><path fill="#B3DDC8" d="M1431.38 1168.42c28.02-53.9 69.9-101.97 83.32-161.22 15.02-66.288-3.39-148.559 48.22-192.784 33.14-28.393 81.79-27.17 122.36-43.241 44.3-17.549 90.11-56.922 132.84-35.838 32 15.79 40.45 59.703 29.32 93.609-11.13 33.907-36.37 60.905-58.14 89.184-21.77 28.279-41.38 61.806-37.97 97.33 4.12 42.89 41.04 84.83 23.36 124.14-19 42.26-87.44 44.27-103.83 87.6-14.16 37.44 21.3 77.19 16.43 116.91-4.46 36.39-40.01 59.52-71.96 77.51-63.18 35.57-169.87 138.1-206.13 33.85-32.03-92.04-22.5-201.06 22.18-287.05Z"/><path fill="#92C8AC" d="M1782.64 769.895c-133.23 156.981-230.24 343.685-282.11 542.965-14.51 55.77-25.35 112.41-32.73 169.55-.32 2.47 3.56 2.45 3.87 0 26.08-201.79 97.73-396.95 208.17-567.841a1360.709 1360.709 0 0 1 105.54-141.936c1.6-1.89-1.13-4.644-2.74-2.738Z"/><path fill="#92C8AC" d="m1686.9 798.955 20.79 66.6c.74 2.374 4.47 1.359 3.73-1.031l-20.79-66.605c-.74-2.369-4.47-1.354-3.73 1.036Zm38.06 166.175a287.687 287.687 0 0 0-92.96 21.079c-2.28.932-1.28 4.681 1.03 3.733a284.28 284.28 0 0 1 91.93-20.939c2.47-.14 2.49-4.019 0-3.873Zm-152.57-89.918a2764.38 2764.38 0 0 0 36.52 152.348c.65 2.4 4.39 1.38 3.74-1.04a2780.581 2780.581 0 0 1-36.52-152.339c-.52-2.436-4.26-1.405-3.74 1.031Zm147.79 250.558-155.52-.16c-2.5 0-2.5 3.87 0 3.87l155.52.16c2.49.01 2.5-3.86 0-3.87Zm-216.05-42.66 27.34 131.65c.51 2.44 4.24 1.41 3.74-1.03l-27.34-131.65c-.51-2.43-4.25-1.4-3.74 1.03Zm128.96 132.84-115.26 43.37c-2.31.87-1.31 4.62 1.03 3.74l115.26-43.37c2.31-.88 1.31-4.62-1.03-3.74Z"/><path fill="#75C2E8" d="M1363.52 1423.63c-2.94-127.34-64.75-252.12-164.28-331.61-44.14-35.25-95.22-62.07-134.68-102.5-48.41-49.613-76.118-116.51-124.601-166.045-48.489-49.54-135.101-76.143-185.016-28.045 46.193-16.17 97.795 47.213 112.819 93.797 15.025 46.583 6.632 96.941 4.633 145.843-2.004 48.91 5.055 103.25 41.784 135.6 35.328 31.12 86.771 32.51 133.601 37.27 46.83 4.75 99.88 19.5 119.33 62.37 20.74 45.69-7.44 99.74 2.65 148.89 23.43 114.28 220.78 120.78 241.37 235.6-17.41-75.54-45.82-153.68-47.61-231.17Z"/><path fill="#55A2C0" d="M860.526 793.426c30.918 53.653 61.873 107.389 96.904 158.502 34.105 49.772 72.64 95.452 115.04 138.342 44 44.51 90.24 86.97 130.67 134.88 38.09 45.13 70.71 94.85 97.2 147.63 30.05 59.87 51.85 123.52 65.28 189.13.5 2.45 4.23 1.4 3.74-1.03-23.13-112.95-71.6-220.14-141.87-311.63-76.04-99.01-177.18-174.77-250.548-276.295-41.793-57.834-77.48-119.733-113.064-181.487-1.254-2.16-4.602-.213-3.352 1.958Z"/><path fill="#55A2C0" d="m899.779 972.148 118.641 58.172c2.24 1.09 4.2-2.25 1.96-3.35L901.731 968.8c-2.228-1.093-4.196 2.249-1.952 3.348Zm166.391 29.402 12.02 95.58c.31 2.44 4.18 2.48 3.87 0l-12.01-95.58c-.31-2.44-4.18-2.472-3.88 0Zm-97.62 138.02c57.62 6.94 115.23 13.89 172.85 20.83 2.47.3 2.45-3.58 0-3.87l-172.85-20.84c-2.473-.29-2.447 3.59 0 3.88Zm234.59-16.51-5.45 94.55c-.14 2.48 3.73 2.48 3.87 0l5.45-94.55c.15-2.49-3.73-2.48-3.87 0Zm3.64 229.51c32.26 7.21 64.51 14.41 96.77 21.61 2.43.54 3.47-3.2 1.03-3.74-32.25-7.21-64.51-14.41-96.77-21.6-2.42-.54-3.46 3.19-1.03 3.73Z"/><path fill="#F8B6A9" d="M871.646 1102.33a1787.32 1787.32 0 0 1 261.814 444.57c2.78 6.84 13.34 2.37 10.55-4.47a1798.154 1798.154 0 0 0-263.374-447.21c-4.617-5.74-13.629 1.35-8.99 7.11Z"/><path fill="#F8B6A9" d="M887.082 1054.21c22.292 27.64 12.775 72.31 12.775 72.31s-45.667-.16-67.964-27.8c-22.292-27.64-12.77-72.3-12.77-72.3s45.667.15 67.959 27.79Zm100.444 69.7c-8.288 34.53-49.478 54.25-49.478 54.25s-27.748-36.26-19.465-70.8c8.283-34.53 49.478-54.25 49.478-54.25s27.753 36.27 19.465 70.8Zm69.694 101.21c-8.29 34.53-49.48 54.25-49.48 54.25s-27.752-36.27-19.464-70.8c8.288-34.54 49.474-54.26 49.474-54.26s27.75 36.28 19.47 70.81Zm69.21 121.86c-11.21 33.71-53.93 49.84-53.93 49.84s-24.55-38.5-13.35-72.2c11.2-33.7 53.92-49.84 53.92-49.84s24.56 38.51 13.36 72.2Zm-223.611-173.96c35.323 3.66 60.302 41.89 60.302 41.89s-32.293 32.29-67.616 28.63c-35.328-3.67-60.301-41.9-60.301-41.9s32.293-32.29 67.615-28.62Zm65.138 103.13c35.323 3.66 60.303 41.89 60.303 41.89s-32.295 32.29-67.618 28.62c-35.322-3.66-60.301-41.89-60.301-41.89s32.288-32.29 67.616-28.62Zm60.403 121.02c35.5-.67 64.96 34.23 64.96 34.23s-28.12 35.99-63.63 36.66c-35.505.67-64.961-34.23-64.961-34.23s28.118-35.99 63.631-36.66Z"/><path fill="#C4E5E1" d="M2372.95 1289.35a1786.849 1786.849 0 0 0-261.81 444.57c-2.79 6.83-13.35 2.36-10.56-4.47a1798.603 1798.603 0 0 1 263.38-447.21c4.61-5.74 13.63 1.35 8.99 7.11Z"/><path fill="#C4E5E1" d="M2357.51 1241.23c-22.29 27.65-12.77 72.31-12.77 72.31s45.66-.15 67.96-27.8c22.3-27.65 12.78-72.31 12.78-72.31s-45.68.16-67.97 27.8Zm-100.44 69.71c8.28 34.53 49.47 54.26 49.47 54.26s27.76-36.27 19.47-70.81c-8.29-34.53-49.48-54.25-49.48-54.25s-27.75 36.26-19.46 70.8Zm-69.69 101.2c8.29 34.53 49.48 54.26 49.48 54.26s27.74-36.27 19.46-70.81c-8.29-34.53-49.48-54.25-49.48-54.25s-27.75 36.27-19.46 70.8Zm-69.21 121.87c11.2 33.7 53.92 49.83 53.92 49.83s24.56-38.5 13.35-72.19c-11.2-33.71-53.92-49.84-53.92-49.84s-24.55 38.5-13.35 72.2Zm223.6-173.97c-35.32 3.66-60.3 41.89-60.3 41.89s32.3 32.29 67.62 28.63c35.32-3.67 60.3-41.9 60.3-41.9s-32.29-32.28-67.62-28.62Zm-65.13 103.13c-35.33 3.67-60.31 41.9-60.31 41.9s32.3 32.29 67.62 28.62c35.32-3.66 60.3-41.89 60.3-41.89s-32.29-32.29-67.61-28.63Zm-60.4 121.03c-35.5-.68-64.96 34.23-64.96 34.23s28.11 35.98 63.62 36.65c35.51.67 64.96-34.22 64.96-34.22s-28.11-35.99-63.62-36.66Z"/><path fill="#B0D4E4" d="M372.796 1195.72a1787.137 1787.137 0 0 0 239.414 457.02c4.337 5.97-5.029 12.58-9.366 6.6A1798.072 1798.072 0 0 1 362.01 1199.6c-2.447-6.95 8.334-10.86 10.786-3.88Z"/><path fill="#B0D4E4" d="M323.772 1183.44c11.713 33.53 54.673 49.01 54.673 49.01s23.968-38.86 12.255-72.39c-11.714-33.53-54.674-49.02-54.674-49.02s-23.968 38.87-12.254 72.4Zm6.189 122.1c33.704 11.19 72.197-13.38 72.197-13.38s-16.159-42.72-49.863-53.91c-33.709-11.19-72.197 13.39-72.197 13.39s16.155 42.71 49.863 53.9Zm49.176 112.61c33.704 11.18 72.197-13.39 72.197-13.39s-16.159-42.71-49.863-53.9c-33.709-11.18-72.197 13.39-72.197 13.39s16.16 42.71 49.863 53.9Zm66.981 123.11c34.536 8.27 70.791-19.5 70.791-19.5s-19.741-41.18-54.278-49.45c-34.536-8.27-70.796 19.5-70.796 19.5s19.746 41.17 54.283 49.45Zm-29.747-281.75c-15.53 31.94 3.758 73.33 3.758 73.33s44.47-10.39 60-42.32c15.529-31.94-3.759-73.34-3.759-73.34s-44.465 10.39-59.999 42.33Zm53.226 109.76c-15.53 31.94 3.759 73.33 3.759 73.33s44.469-10.39 59.999-42.33c15.529-31.94-3.759-73.33-3.759-73.33s-44.47 10.39-59.999 42.33Zm70.911 115.17c-19.309 29.81-5.212 73.25-5.212 73.25s45.407-4.89 64.716-34.7c19.309-29.8 5.211-73.23 5.211-73.23s-45.401 4.88-64.715 34.68Z"/><path fill="#C4E5E1" d="M1334.51 889.831a1786.683 1786.683 0 0 0 46.24 513.849c1.72 7.18-9.46 9.7-11.18 2.52a1798.325 1798.325 0 0 1-46.52-516.916c.41-7.351 11.86-6.846 11.46.547Z"/><path fill="#C4E5E1" d="M1293.91 859.719c-2.01 35.458 31.76 66.21 31.76 66.21s37.02-26.738 39.03-62.191c2.02-35.458-31.75-66.21-31.75-66.21s-37.02 26.733-39.04 62.191Zm-41.01 115.172c26.85 23.234 71.82 15.269 71.82 15.269s1.42-45.646-25.44-68.88c-26.86-23.235-71.82-15.27-71.82-15.27s-1.42 45.641 25.44 68.881Zm2.32 122.849c26.86 23.24 71.83 15.27 71.83 15.27s1.42-45.64-25.44-68.88c-26.86-23.24-71.82-15.27-71.82-15.27s-1.42 45.65 25.43 68.88Zm14.76 139.38c28.74 20.86 72.87 9.08 72.87 9.08s-2.48-45.6-31.22-66.46c-28.74-20.86-72.86-9.09-72.86-9.09s2.47 45.61 31.21 66.47Zm80.37-271.678c-26.57 23.563-24.6 69.188-24.6 69.188s45.06 7.42 71.63-16.13c26.57-23.561 24.6-69.191 24.6-69.191s-45.06-7.429-71.63 16.133Zm7.15 121.768c-26.58 23.56-24.6 69.18-24.6 69.18s45.06 7.43 71.64-16.14c26.57-23.55 24.6-69.18 24.6-69.18s-45.07-7.42-71.64 16.14Zm21.43 133.55c-29.25 20.14-32.85 65.67-32.85 65.67s43.82 12.86 73.07-7.28c29.24-20.15 32.85-65.67 32.85-65.67s-43.82-12.86-73.07 7.28Z"/><path fill="#92C3DC" d="M2039.19 1013.28a1928.865 1928.865 0 0 0 .34 556.91c1.16 7.88-11.11 9.52-12.26 1.64a1941.47 1941.47 0 0 1-.35-560.23c1.15-7.87 13.42-6.23 12.27 1.68Z"/><path fill="#92C3DC" d="M1998.44 977.005c-5.57 37.935 27.78 74.235 27.78 74.235s42.37-25.19 47.94-63.115c5.57-37.931-27.78-74.238-27.78-74.238s-42.37 25.187-47.94 63.118Zm-55.17 119.885c26.64 27.56 75.76 23.32 75.76 23.32s5.91-48.94-20.73-76.51c-26.64-27.56-75.75-23.31-75.75-23.31s-5.92 48.93 20.72 76.5Zm-9.3 132.31c26.64 27.56 75.75 23.32 75.75 23.32s5.92-48.94-20.72-76.51c-26.64-27.56-75.75-23.31-75.75-23.31s-5.92 48.94 20.72 76.5Zm2.48 151.26c28.9 25.2 77.47 16.77 77.47 16.77s1.72-49.26-27.18-74.45c-28.89-25.19-77.47-16.77-77.47-16.77s-1.72 49.26 27.18 74.45Zm112.51-284.37c-30.84 22.78-33.1 72.03-33.1 72.03s47.73 12.31 78.57-10.47c30.83-22.78 33.1-72.02 33.1-72.02s-47.74-12.31-78.57 10.46Zm-4.01 131.61c-30.83 22.78-33.09 72.02-33.09 72.02s47.73 12.32 78.57-10.46c30.83-22.78 33.09-72.02 33.09-72.02s-47.74-12.32-78.57 10.46Zm10.21 145.65c-33.38 18.85-41.63 67.45-41.63 67.45s45.88 18.04 79.26-.8c33.38-18.86 41.62-67.45 41.62-67.45s-45.87-18.05-79.25.8Z"/><path fill="#FFCF85" d="M1063.29 1457.56c56.24 139.92-25.68 304.6-25.68 304.6s-173.107-62.18-229.347-202.1c-56.241-139.92 25.686-304.61 25.686-304.61s173.101 62.18 229.341 202.11Z"/><path fill="#FFF8EE" d="m843.252 1275.81 189.428 471.3c.93 2.31 4.53.88 3.6-1.44l-189.435-471.3c-.927-2.32-4.524-.87-3.593 1.44Z"/><path fill="#FFF8EE" d="m819.378 1345.02 63.58 27.3c2.291.99 3.816-2.57 1.52-3.56l-63.58-27.31c-2.291-.98-3.811 2.58-1.52 3.57Zm115.307 1.31-30.856 72.33c-.978 2.3 2.588 3.82 3.566 1.52l30.856-72.33c.979-2.29-2.587-3.81-3.566-1.52Zm-105.489 119.96 108.576 46.07c2.296.98 3.816-2.58 1.515-3.56l-108.576-46.08c-2.291-.97-3.816 2.59-1.515 3.57Zm185.354 1.31-48.415 112.82 3.561 1.52 6.08-15.46c.911-2.32-2.645-3.85-3.561-1.53l-6.08 15.47c-.911 2.31 2.577 3.82 3.561 1.52l48.414-112.82c.99-2.29-2.58-3.81-3.56-1.52Zm-136.537 140.75 116.271 50.09c2.29.98 3.81-2.58 1.52-3.57l-116.271-50.08c-2.291-.99-3.811 2.57-1.52 3.56Z"/><path fill="#F8B6A9" d="M2231.89 1528.23c-49.17 142.56-218.94 213.33-218.94 213.33s-90.08-160.37-40.91-302.93c49.16-142.57 218.94-213.34 218.94-213.34s90.07 160.37 40.91 302.94Z"/><path fill="#FFF8EE" d="m2184.67 1246.77-165.59 480.2c-.81 2.35 2.85 3.62 3.66 1.26l165.59-480.2c.81-2.35-2.85-3.62-3.66-1.26Z"/><path fill="#FFF8EE" d="m2121.3 1283.42 30.15 62.28c1.09 2.25 4.57.55 3.49-1.69l-30.16-62.28c-1.09-2.25-4.57-.55-3.48 1.69Zm86.26 76.53-70.69 34.44c-2.25 1.09-.55 4.57 1.69 3.48l70.69-34.43c2.25-1.11.56-4.58-1.69-3.49Zm-158.28 21.53 51.86 105.94c1.09 2.25 4.58.55 3.48-1.7l-51.86-105.93c-1.1-2.25-4.58-.55-3.48 1.69Zm139.19 122.41-110.48 53.53c.56 1.17 1.13 2.32 1.69 3.48l14.72-7.69c2.21-1.16.53-4.64-1.69-3.48-4.91 2.56-9.82 5.13-14.72 7.7-2.21 1.15-.56 4.57 1.69 3.48l110.48-53.53c2.25-1.09.56-4.58-1.69-3.49Zm-195.36 16.92 55.04 114c1.09 2.25 4.57.55 3.48-1.69l-55.04-114.01c-1.08-2.25-4.57-.56-3.48 1.7Z"/><path fill="#F6E0A9" d="M1975.05 1238.12c84.27 125.07 38.6 303.24 38.6 303.24s-182.28-24.59-266.55-149.65c-84.27-125.06-38.6-303.24-38.6-303.24s182.28 24.59 266.55 149.65Z"/><path fill="#FFF8EE" d="m1721.86 1106.44 283.83 421.24c1.4 2.07 4.61-.09 3.22-2.16l-283.84-421.25c-1.39-2.07-4.61.09-3.21 2.17Z"/><path fill="#FFF8EE" d="m1712.99 1179.1 67.88 13.41c2.46.48 3.2-3.32.75-3.8l-67.89-13.41c-2.45-.48-3.19 3.32-.74 3.8Zm113.03-22.83-15.05 77.18c-.47 2.45 3.33 3.19 3.81.75l15.04-77.18c.48-2.46-3.32-3.2-3.8-.75Zm-78.06 139.37 115.81 22.34c2.45.47 3.19-3.33.74-3.8-38.6-7.45-77.21-14.9-115.81-22.34-2.45-.48-3.2 3.32-.74 3.8Zm181.52-37.49-23.74 120.45 3.81.73 2.71-16.38c.4-2.47-3.4-3.21-3.8-.75l-2.72 16.4c-.41 2.45 3.32 3.19 3.81.73l23.73-120.44c.48-2.45-3.31-3.19-3.8-.74Zm-104.06 166.2L1949.6 1449c2.45.49 3.19-3.31.74-3.8l-124.18-24.65c-2.45-.49-3.2 3.31-.74 3.8Z"/><path fill="#506F8E" d="M952.011 1635.82c95.709 116.54 67.079 298.24 67.079 298.24s-183.792-7.27-279.5-123.8c-95.701-116.55-67.079-298.24-67.079-298.24s183.793 7.25 279.5 123.8Z"/><path fill="#FFF8EE" d="m687.51 1528.64 322.36 392.55c1.58 1.92 4.58-.54 2.99-2.46l-322.357-392.55c-1.583-1.93-4.576.53-2.993 2.46Z"/><path fill="#FFF8EE" d="m685.547 1601.81 68.849 6.94c2.484.25 2.864-3.6.38-3.86l-68.849-6.93c-2.488-.25-2.868 3.61-.38 3.85Zm110.367-33.4-7.684 78.26c-.245 2.49 3.608 2.86 3.853.37l7.684-78.25c.244-2.49-3.608-2.87-3.853-.38Zm-64.549 146.12 117.406 11.3c2.483.24 2.863-3.61.38-3.85l-117.406-11.31c-2.483-.24-2.863 3.61-.38 3.86Zm177.176-54.47-12.255 122.15 3.852.38 1.151-16.58c.172-2.49-3.681-2.87-3.853-.38l-1.15 16.58c-.172 2.49 3.602 2.87 3.852.38l12.255-122.15c.25-2.49-3.607-2.87-3.852-.38Zm-87.904 175.28 125.949 12.82c2.484.25 2.864-3.6.38-3.86l-125.948-12.81c-2.484-.25-2.864 3.6-.381 3.85Z"/><path fill="#506F8E" d="M2179.99 1879.12c-116.55 95.71-298.23 67.08-298.23 67.08s7.25-183.79 123.79-279.5c116.55-95.7 298.24-67.08 298.24-67.08s-7.26 183.79-123.8 279.5Z"/><path fill="#FFF8EE" d="m2287.17 1614.63-392.55 322.36c-1.93 1.58.53 4.58 2.46 2.99 130.85-107.46 261.71-214.91 392.55-322.37 1.93-1.58-.53-4.57-2.46-2.98Z"/><path fill="#FFF8EE" d="m2213.99 1612.66-6.93 68.85c-.25 2.49 3.6 2.87 3.85.38l6.93-68.85c.25-2.49-3.6-2.87-3.85-.38Zm33.4 110.36c-26.08-2.56-52.17-5.11-78.25-7.68-2.48-.24-2.87 3.61-.38 3.85l78.26 7.69c2.49.25 2.86-3.61.37-3.86Zm-146.11-64.54-11.3 117.41c-.24 2.48 3.61 2.86 3.85.37l11.3-117.4c.24-2.49-3.61-2.87-3.85-.38Zm54.47 177.17-122.15-12.25-.38 3.85 16.58 1.15c2.48.18 2.87-3.68.37-3.85l-16.57-1.15c-2.49-.18-2.87 3.6-.38 3.85 40.72 4.09 81.44 8.17 122.15 12.26 2.49.25 2.86-3.61.38-3.86Zm-175.28-87.9-12.82 125.95c-.26 2.49 3.6 2.87 3.85.38l12.82-125.95c.25-2.48-3.6-2.87-3.85-.38Z"/><path fill="#4A8CCA" d="M1968.82 1272.89h-913.65a49.54 49.54 0 0 0-49.54 49.54v568.27c0 27.36 22.17 49.54 49.54 49.54h913.65a49.54 49.54 0 0 0 35.03-14.51 49.507 49.507 0 0 0 14.52-35.03v-568.27c-.01-27.35-22.19-49.54-49.55-49.54Z"/><path fill="#88CBF0" d="M1044.72 1315.91h934.54v547.43h-934.54v-547.43Z"/><path fill="#30749E" d="M1006.59 1900.42c4.52 22.71 24.54 39.83 48.58 39.83h913.65c24.03 0 44.06-17.12 48.58-39.83H1006.59Z"/><path fill="#CAEBFB" d="m1529.34 1552.1 97.41-134.97 2.77 2.01c37.12 26.84 60.88 68.25 65.19 113.63l.33 3.4-165.7 15.93Zm98.93-125.38-84.53 117.12 143.8-13.82c-4.83-40.96-26.24-78.27-59.27-103.3Z"/><path fill="#CAEBFB" d="m1534.13 1549.34 81.05-112.29.92.67c31.77 22.97 52.1 58.42 55.79 97.24l.11 1.14-137.87 13.24Zm81.56-109.1-76.75 106.35 130.57-12.55a133.899 133.899 0 0 0-17-52.58 133.714 133.714 0 0 0-36.82-41.22Z"/><path fill="#CAEBFB" d="m1638.71 1538.72-.11-1.14 13.05-1.25c-.43-4.33-1.11-8.63-2.03-12.89l1.11-.24c.97 4.44 1.68 9.01 2.11 13.59l.05.56-14.18 1.37Zm3.57-37.76c-3.22-7.22-7.17-14.09-11.79-20.51l.92-.67c4.67 6.48 8.66 13.42 11.91 20.71l-1.04.47Zm-45.25-35.84-.92-.66 8.34-11.56.47.33c3.71 2.69 7.26 5.59 10.64 8.69l-.77.84c-3.2-2.94-6.57-5.7-10.08-8.27l-7.68 10.63ZM1561.45 1512.58l17.32-24.04.93.66-17.32 24.05-.93-.67ZM1535.33 1548.66l8.75-12.12.92.67-7.27 10.07 12.37-1.19.11 1.14-14.88 1.43Zm44.37-4.27-.1-1.13 29.5-2.84.11 1.13-29.51 2.84Z"/><path fill="#CAEBFB" d="M1487.87 1734.91c-87.63 0-158.91-71.29-158.91-158.92 0-87.63 71.28-158.92 158.91-158.92 33.4-.07 65.96 10.47 92.99 30.08l2.77 2.01-88.57 122.7 150.66-14.48.32 3.41c.49 5.18.74 10.29.74 15.2 0 87.63-71.28 158.92-158.91 158.92Zm0-311c-83.85 0-152.08 68.22-152.08 152.08 0 83.85 68.23 152.07 152.08 152.07 83.85 0 152.07-68.21 152.07-152.07 0-3.61-.14-7.34-.42-11.14l-158.85 15.27 93.39-129.39a150.896 150.896 0 0 0-86.19-26.82Z"/><path fill="#CAEBFB" d="M1487.87 1711.98c-74.98 0-135.99-61.01-135.99-135.99 0-74.99 61.01-135.99 135.99-135.99 28.76 0 56.28 8.9 79.57 25.74l.93.67-78.1 108.2 132.85-12.77.11 1.14c.42 4.42.63 8.79.63 13.01 0 74.98-61.01 135.99-135.99 135.99Zm0-269.71c-73.73 0-133.71 59.99-133.71 133.72 0 73.72 59.98 133.71 133.71 133.71 73.73 0 133.71-59.99 133.71-133.71 0-3.78-.17-7.7-.52-11.66l-135.59 13.04 79.71-110.44a132.76 132.76 0 0 0-77.31-24.66Z"/><path fill="#CAEBFB" d="m1486.67 1576.67 8.74-12.12.93.67-7.27 10.08 12.37-1.19.11 1.14-14.88 1.42ZM1512.76 1540.43l17.39-23.99.93.67-17.4 23.99-.92-.67ZM1548.37 1493.14l-.93-.67 7.68-10.63c-3.54-2.53-7.22-4.86-11.01-6.98l.56-1c3.97 2.22 7.87 4.71 11.58 7.39l.46.33-8.34 11.56Zm-64.63 199.64c-8.81-.31-17.55-1.61-26.06-3.87l.3-1.1a115.94 115.94 0 0 0 25.8 3.82l-.04 1.15Zm26.26-2.02-.21-1.12c8.56-1.65 16.92-4.26 24.89-7.79l.47 1.04c-8.06 3.56-16.5 6.2-25.15 7.87Zm-76.84-11.48c-7.77-4.14-15.06-9.13-21.72-14.89l.74-.86c6.6 5.71 13.82 10.65 21.52 14.74l-.54 1.01Zm124.72-9.72-.69-.91c6.98-5.23 13.35-11.23 18.99-17.88l.87.73a116.68 116.68 0 0 1-19.17 18.06Zm-164.3-24.53c-5.21-7.1-9.6-14.77-13.09-22.87l1.05-.44c3.45 8.01 7.8 15.6 12.95 22.64l-.91.67Zm198.13-15.4-1.01-.53c4.01-7.75 7.13-15.92 9.29-24.37l1.1.28a115.31 115.31 0 0 1-9.38 24.62Zm-218.83-32.68c-1.56-8.67-2.15-17.49-1.75-26.28l1.14.04c-.39 8.72.19 17.45 1.74 26.03l-1.13.21Zm3.48-51.99-1.11-.31a116.74 116.74 0 0 1 9.89-24.41l1 .54c-4.17 7.66-7.45 15.77-9.78 24.18Zm24.74-45.54-.85-.76c5.83-6.6 12.39-12.52 19.54-17.66l.66.92c-7.08 5.1-13.57 10.96-19.35 17.5Zm42.13-30.22-.44-1.06a116.43 116.43 0 0 1 25.3-7.34l.19 1.12c-8.59 1.47-17.02 3.91-25.05 7.28Zm76.81-4.39c-8.38-2.42-17.01-3.88-25.72-4.37l.06-1.14c8.8.49 17.51 1.97 25.98 4.41l-.32 1.1Zm84.66 113.74-1.14-.03c.09-4.35-.07-8.7-.46-13.03l-13.05 1.25-.11-1.14 14.19-1.36.06.56c.43 4.57.6 9.16.51 13.75Zm-73.66-6.14-.11-1.13 29.51-2.84.11 1.14-29.51 2.83Zm205.43 30.08h34.26v120.84h-34.26v-120.84Zm174.91 24.95h34.3v95.88h-34.3v-95.88Zm-117.21-75.72h34.13v171.61h-34.13v-171.61Zm61.31-41.18h34.77v212.78h-34.77v-212.78Zm-559.87 215.88h-212.39v-161.93h212.39v161.93Zm-206.19-6.2h199.99v-149.53h-199.99v149.53Z"/><path fill="#CAEBFB" d="M1120.64 1566.54h6.2v154.68h-6.2v-154.68Z"/><path fill="#CAEBFB" d="M1084.87 1589.02h209.11v6.19h-209.11v-6.19Z"/><path fill="#CAEBFB" d="M1164.63 1566.54h6.19v154.68h-6.19v-154.68Zm43.99 0h6.19v154.68h-6.19v-154.68Zm43.99 0h6.2v154.68h-6.2v-154.68Zm-132.15-112.84c-24.61 0-44.62 20.02-44.62 44.63 0 24.6 20.02 44.63 44.62 44.63 24.61 0 44.63-20.03 44.63-44.63 0-24.61-20.02-44.63-44.63-44.63Zm0 5.82c21.41 0 38.82 17.41 38.82 38.81 0 21.41-17.42 38.82-38.82 38.82s-38.81-17.41-38.81-38.82c0-21.4 17.41-38.81 38.81-38.81Z"/><path fill="#CAEBFB" d="M1120.46 1531.73c8.86 0 17.35-3.53 23.61-9.79a33.448 33.448 0 0 0 9.8-23.61c-.05-.74-.37-1.44-.91-1.94-.54-.51-1.26-.8-2-.8s-1.46.29-2 .8c-.54.5-.87 1.2-.91 1.94a27.625 27.625 0 0 1-27.59 27.59c-15.21 0-27.58-12.37-27.58-27.59 0-15.21 12.37-27.58 27.58-27.58.74-.05 1.44-.37 1.95-.91.51-.55.79-1.26.79-2a2.908 2.908 0 0 0-2.74-2.91c-8.85.01-17.34 3.53-23.6 9.79a33.448 33.448 0 0 0-9.8 23.61 33.44 33.44 0 0 0 33.4 33.4Zm113.63-78.03c-24.61 0-44.63 20.02-44.63 44.63 0 24.6 20.02 44.63 44.63 44.63 24.61 0 44.63-20.03 44.63-44.63 0-24.61-20.02-44.63-44.63-44.63Zm0 5.82c21.4 0 38.81 17.41 38.81 38.81 0 21.41-17.41 38.82-38.81 38.82-21.4 0-38.81-17.41-38.81-38.82 0-21.4 17.41-38.81 38.81-38.81Z"/><path fill="#CAEBFB" d="M1234.04 1531.71h.01c.08.01.15-.01.22-.03a.76.76 0 0 0 .19-.12.76.76 0 0 0 .12-.19c.03-.06.04-.14.04-.21v-4.7c0-.14-.05-.28-.15-.39-.1-.1-.24-.16-.39-.17-14.42-.5-26.74-11.59-27.54-26a27.587 27.587 0 0 1 7.51-20.5c2.57-2.73 5.68-4.9 9.12-6.39 3.45-1.48 7.16-2.25 10.91-2.26a2.908 2.908 0 0 0 2.74-2.91c0-.74-.28-1.46-.79-2s-1.21-.86-1.95-.91c-4.62.01-9.2.97-13.43 2.84a33.296 33.296 0 0 0-11.16 7.99 33.4 33.4 0 0 0-7.01 11.8 33.2 33.2 0 0 0-1.67 13.63c1.43 17.06 16.11 30 33.23 30.52Zm620.45 249.84h-618.44c-3.5 0-6.36-2.86-6.36-6.36 0-3.5 2.86-6.36 6.36-6.36h618.44c3.5 0 6.36 2.86 6.36 6.36-.01 1.68-.68 3.3-1.87 4.49a6.411 6.411 0 0 1-4.49 1.87Zm0 36.56h-680.42c-3.5 0-6.36-2.86-6.36-6.36 0-3.5 2.86-6.36 6.36-6.36h680.42c3.5 0 6.36 2.86 6.36 6.36-.01 1.69-.68 3.3-1.87 4.49a6.369 6.369 0 0 1-4.49 1.87Z"/><path fill="#345799" d="M2065.2 2043.95H961.933c-29.018 0-52.544-23.52-52.544-52.54s23.526-52.54 52.544-52.54H2065.2c29.02 0 52.55 23.52 52.55 52.54s-23.53 52.54-52.55 52.54Z"/><path fill="#454599" d="M2248.77 1919.07h10.87v125.01h-10.87v-125.01Z"/><path fill="#454599" d="M2299.46 1931.42h-90.5c-4.12 0-8.08-1.64-10.99-4.56a15.523 15.523 0 0 1 0-21.98c2.91-2.92 6.87-4.55 10.99-4.55h90.5c4.12 0 8.08 1.63 10.99 4.55 2.92 2.91 4.55 6.87 4.55 10.99 0 2.04-.4 4.06-1.18 5.95-.78 1.89-1.92 3.6-3.37 5.04a15.333 15.333 0 0 1-5.04 3.37 15.6 15.6 0 0 1-5.95 1.19Zm-17.37 94.61h-55.76c-4.1 0-7.42 3.32-7.42 7.41v3.23c0 4.09 3.32 7.41 7.42 7.41h55.76c4.09 0 7.41-3.32 7.41-7.41v-3.23c0-4.09-3.31-7.41-7.41-7.41Z"/><path fill="#484FA1" d="m2212.02 1848.85-70.59 69.12-28.78 130.31 40.44 2.94s39.81-58.24 38.34-105.31c0 0 80.89-22.79 86.77-49.99 5.89-27.21-66.18-47.07-66.18-47.07Z"/><path fill="#3D437D" d="M2155.02 2050.79s6.72 18.71 2.38 27.14c-4.33 8.42-90.89-7.97-90.89-7.97s16.11-22.94 48.77-22.6l39.74 3.43Z"/><path fill="#FCBC5F" d="m2197.38 1723.66-22.86 76.21-77.06 22.02 65.65 15.06 26.65-6.59 40.65-40.65-33.03-66.05Zm59.25-26.54-22.96-42.39-28.27 17.66 12.37 35.33 38.86-10.6Z"/><path fill="#F8A71A" d="m2243.09 1855.2-44.48-85.71c-14.12-27.22-4.47-61.13 22.35-75.97 8.22-4.55 16.85-7.88 25.18-8.56 11.6-.94 22.19 1.37 30.98 4.69 15.57 5.9 26.22 20.32 27.8 36.89 3.68 38.75 7.9 117.98-14.67 150.74l-47.16-22.08Z"/><path fill="#6363A8" d="M2246.02 1842.99c-8.55-.34-100.54 29.1-115.52 54.06-14.97 24.95-83.87 147.45-83.87 147.45l38.51 10.4s83.87-70.53 94.57-130.83c0 0 130.49 6.24 134.78-29.11 4.26-35.35-14.99-49.9-68.47-51.97Z"/><path fill="#444A86" d="M2270.33 1626.59c.25 10.1-6.24 20.72-13.65 27.6-4.58 4.23-10.93 6.15-17.15 6.49-6.23.34-12.44-.75-18.58-1.85 8.28-4.68 10.97-15.37 10.92-24.88-.04-9.51-1.96-19.21.46-28.4 3.15-12.01 16.49-22.52 28.58-14.36 4.44 3 9.48-.3 12.05 3.97 4.71 7.87-2.81 23.97-2.63 31.43Z"/><path fill="#FCBC5F" d="M2177.35 1602.29c14.2 18.08-2.56 48.72 12.53 66.07 8.04 9.24 22.9 10.29 33.74 4.58 10.84-5.71 17.99-16.78 21.96-28.36 6.49 3 16.9-3.03 16.9-10.19 0-7.15-8.72-12.72-15.22-9.71 2.68-16.55-7.65-34.03-23.46-39.64-15.81-5.6-38.09 2.71-46.45 17.25Z"/><path fill="#444A86" d="M2249.26 1624.62c-6.52 2.18-12.69-4.09-16-10.1-3.31-6.02-6.61-13.25-13.28-14.91-7.38-1.84-14.07 4.23-20.97 7.42-10.91 5.04-24.89 2.4-33.2-6.26-8.33-8.67-10.39-22.74-4.9-33.44 3.42-6.66 11.28.92 18.49-1.17l13.15-3.78c14.97-4.32 31.1-8.62 45.83-3.56 9.18 3.15 16.77 9.63 24.11 15.97 5.12 4.42 10.52 9.27 12.15 15.84 1.92 7.71-17.84 31.47-25.38 33.99Z"/><path fill="#FCBC5F" d="m2334.98 1780.14 6.1 31.34c.98 5.03.69 10.23-.84 15.12l-3.09 9.88h-150.6l17.7-10.48 25.27-2.17 74.76-9.75-13.04-36.86 43.74 2.92Z"/><path fill="#FAAF53" d="M2280.17 1778.94s-48.81-76.93-20.13-89.79c28.69-12.84 68.6 27.07 82.85 98.34l-62.72-8.55Z"/><path fill="#494C89" d="M2085.13 2054.9s3.32 19.6-2.44 27.13c-5.75 7.51-88.06-23.91-88.06-23.91s19.91-19.73 51.99-13.62l38.51 10.4Z"/><path fill="#E28CBA" d="M2345.48 1875.58h-521.39a19.611 19.611 0 0 1-13.79-5.74 19.559 19.559 0 0 1-5.73-13.79 19.565 19.565 0 0 1 19.52-19.53h521.39a19.565 19.565 0 0 1 19.53 19.53 19.569 19.569 0 0 1-5.74 13.79 19.593 19.593 0 0 1-13.79 5.74Z"/><path fill="#E28CBA" d="M1961.86 1863.99c-2.72 2.72-2.86 7.05-.3 9.61l236.54 236.54c2.57 2.57 6.89 2.44 9.62-.29 2.72-2.72 2.86-7.05.29-9.61l-236.54-236.55c-2.57-2.56-6.89-2.43-9.61.3Z"/><path fill="#E28CBA" d="M2207.72 1863.99c2.72 2.72 2.86 7.05.29 9.61l-236.54 236.54c-2.57 2.57-6.89 2.44-9.62-.29-2.72-2.72-2.85-7.05-.29-9.61l236.54-236.55c2.58-2.56 6.9-2.43 9.62.3Z"/><path fill="#9C7DB8" d="m2094.99 1811.18-36.66-110.35a8.298 8.298 0 0 0-3.06-4.17 8.36 8.36 0 0 0-4.92-1.6h-181.51c-1.33 0-2.64.32-3.83.93a8.372 8.372 0 0 0-4.48 6.21c-.2 1.32-.09 2.66.33 3.93l36.66 110.35a8.425 8.425 0 0 0 7.99 5.75h181.51c1.33 0 2.64-.31 3.83-.92a8.372 8.372 0 0 0 4.48-6.21c.2-1.31.08-2.66-.34-3.92Z"/><path fill="#8162A9" d="m2169.44 1828.19-1.39-4.18a6.652 6.652 0 0 0-2.43-3.31 6.648 6.648 0 0 0-3.9-1.26h-253.97c-4.55 0-7.76 4.46-6.33 8.78l1.39 4.17a6.68 6.68 0 0 0 6.33 4.57h253.97c1.05 0 2.1-.25 3.04-.74.94-.48 1.75-1.17 2.37-2.03.61-.86 1.02-1.85 1.18-2.89.16-1.05.07-2.11-.26-3.11Z"/><path fill="#F9C180" d="M1228.25 1660.93c6.32-3.6 37.83 10.21 37.83 10.21 3.76 1.88 11.27 2.9 17.76 3.44v13.65c0 5.17.34 10.25 1.01 15.23-14.42-2.52-26.16-6.43-26.16-6.43-11.08-.01-16-7.21-19.61-9.46-3.61-2.26-17.15-23.03-10.83-26.64Zm534.5 120.96c-2.12-6.96-34.52-18.56-34.52-18.56-4.02-1.21-10.18-5.64-15.26-9.69l-9.38 9.91c-3.5 3.71-7.24 7.17-11.2 10.37 12.22 8.08 23.43 13.31 23.43 13.31 8.07 7.6 16.59 5.74 20.76 6.59 4.17.83 28.27-4.96 26.17-11.93Z"/><path fill="#F9C180" d="M1747 1784.11c1.72 2.36 3.16 5.58 1.65 8.09-.84 1.41-2.47 2.21-4.11 2.42-1.63.2-3.28-.13-4.88-.54-3.55-.92-7.09-2.29-9.79-4.78-2.7-2.49-4.44-6.24-3.76-9.85 2.57-13.63 17.09-.55 20.89 4.66Z"/><path fill="#667BAE" d="m1508.36 1553.61-7.85 39.16s-62.39 2.95-100.02 27.73c-37.63 24.78-91.78 50.47-123.91 53.23l-5.5 28.45s106.46 23.86 161.52-8.26l-11.01 169.79h176.22l-9.18-159.7s55.98 75.26 114.72 82.6l19.27-32.12s-39.46-34.88-46.8-54.15c-7.34-19.27-53.4-93.27-126.28-99.41l-6.47-52.57-34.71 5.25Z"/><path fill="#F9C180" d="M1518.88 1626.92c21.02 6.11 37.52-13.33 44.72-23.9-4.64-.98-9.33-1.68-14.05-2.08l-6.47-52.58-34.72 5.25-7.85 39.16s-3.73.17-9.9.8c2.18 10.32 8.73 27.68 28.27 33.35Z"/><path fill="#EF658D" d="M1675.82 1700.34c-6.85-18-47.5-83.74-112.23-97.32-7.19 10.57-23.69 30.01-44.71 23.9-19.54-5.67-26.1-23.03-28.28-33.34-19.1 1.93-61.68 8.19-90.12 26.92-37.63 24.78-91.78 50.47-123.9 53.23l-5.51 28.45s106.46 23.87 161.53-8.25l-11.01 169.78h176.21l-9.18-159.69s55.99 75.26 114.73 82.6l19.27-32.13c.01 0-39.45-34.87-46.8-54.15Z"/><path fill="#F9C180" d="M1486.85 1492.78s.52 70.76 11.45 76.9c10.93 6.15 55.6-9.88 55.6-9.88l1.44-36.87-4.43-33.56-64.06 3.41Z"/><path fill="#F9C180" d="M1542.67 1537.62c.22 1.71.79 3.36 1.65 4.86.87 1.5 2.02 2.81 3.39 3.86 1.37 1.05 2.94 1.82 4.61 2.27a13.199 13.199 0 0 0 9.98-1.32c1.5-.87 2.81-2.02 3.86-3.39 1.06-1.37 1.83-2.94 2.27-4.61.45-1.67.56-3.41.34-5.12a13.22 13.22 0 0 0-5.05-8.73 13.205 13.205 0 0 0-9.73-2.6c-3.46.46-6.6 2.27-8.72 5.05a13.16 13.16 0 0 0-2.6 9.73Z"/><path fill="#324A5B" d="m1554 1525.83-24.91-18.53c-4.83-3.58-9.96-7.29-15.93-7.95-8.74-.97-16.78 4.8-25.49 6-11.01 1.52-22.63-5.31-26.66-15.66-4.04-10.36-.11-23.24 9.03-29.58 11.1-7.69 25.89-4.81 38.3-10.11 12.13-5.18 24.85-10.46 38.01-9.48 16.48 1.21 31.62 13.28 36.52 29.06 4.88 15.74.38 34.17 9.06 48.18 8.52 13.76 28.46 20.94 29.65 37.07 1.14 15.54-16.8 27.12-17.02 42.7-.13 9.36 6.21 17.47 8.8 26.47 1.39 5 1.63 10.24.7 15.35-.93 5.1-3.01 9.92-6.07 14.11-.28.37-.53.76-.77 1.16-13.12 21.94-43.76 24.44-58.82 3.78-3.47-4.77-6.65-9.34-9.42-13.24-8.19-11.59-14.32-32.67-13.36-46.84 1.71-25.41 12.33-52.6 28.38-72.49Z"/><path fill="#F9C180" d="M1563.86 1525.97c0 3.41-1.36 6.67-3.77 9.08a12.855 12.855 0 0 1-9.08 3.77c-3.41 0-6.68-1.36-9.09-3.77a12.838 12.838 0 0 1-3.77-9.08c.12-3.33 1.53-6.49 3.92-8.8 2.4-2.32 5.6-3.61 8.94-3.61 3.33 0 6.53 1.29 8.93 3.61 2.4 2.31 3.8 5.47 3.92 8.8Z"/><path fill="#4C86AA" d="m1186.05 1580.08 3.26-1.9 81.22 139.62-3.26 1.9-81.22-139.62Z"/><path fill="#F9C180" d="M1241.84 1673.35c-2.87.54-6.13 1.89-6.76 4.74-.36 1.62.28 3.32 1.33 4.58 1.05 1.27 2.48 2.17 3.91 2.96 3.21 1.79 6.73 3.21 10.4 3.26 3.67.05 7.51-1.49 9.5-4.58 7.49-11.66-12.04-12.14-18.38-10.96Z"/><path fill="#58BBA9" d="M2024.43 1293.54h-297.85c-20.46 0-37.2 16.73-37.2 37.19v149.97l66.13-59.54h268.92c20.45 0 37.18-16.74 37.18-37.19v-53.24c.01-20.45-16.72-37.19-37.18-37.19Z"/><path fill="#BFE3DB" d="M1837.93 1327.24h-94.82a4.353 4.353 0 0 1-4.34-4.35c0-2.39 1.95-4.35 4.34-4.35h94.82c2.39 0 4.35 1.96 4.35 4.35a4.406 4.406 0 0 1-1.28 3.07c-.82.82-1.92 1.28-3.07 1.28Zm182.98 26.97h-277.8a4.38 4.38 0 0 1-3.07-1.28 4.37 4.37 0 0 1-1.27-3.07c0-2.39 1.95-4.35 4.34-4.35h277.8c2.4 0 4.35 1.96 4.35 4.35 0 1.15-.46 2.26-1.28 3.07a4.32 4.32 0 0 1-3.07 1.28Zm0 34.28h-277.8a4.424 4.424 0 0 1-3.07-1.28 4.376 4.376 0 0 1-1.27-3.08c0-2.38 1.95-4.35 4.34-4.35h277.8c2.4 0 4.35 1.97 4.35 4.35 0 1.16-.46 2.26-1.28 3.08-.81.81-1.92 1.27-3.07 1.28Z"/><path fill="#E15F5F" d="M337.203 1878.32h698.277v165.63H337.203v-165.63Z"/><path fill="#C4403F" d="M652.239 1893.81v134.65H337.203v-134.65h315.036Z"/><path fill="#fff" d="M638.849 1905.5v111.27H337.208V1905.5h301.641Z"/><path fill="#F5B619" d="M733.838 1878.32h218.329v165.63H733.838v-165.63Z"/><path fill="#E15F5F" d="M778.661 1878.32h30.601v165.63h-30.601v-165.63Zm112.049 0h30.601v165.63H890.71v-165.63Z"/><path fill="#D7C9C9" d="M337.203 1917.79h291.713v4.99H337.203v-4.99Zm0 26.97h291.713v5H337.203v-5Zm0 26.98h291.713v4.99H337.203v-4.99Zm0 26.97h291.713v5H337.203v-5Z"/><path fill="#F5B619" d="m516.607 2011.8-32.964-18.59-31.97 18.59v-93.91h64.934v93.91Z"/><path fill="#F49F62" d="M349.291 1711.96a45.39 45.39 0 0 1 3.452-17.36c2.28-5.5 5.621-10.5 9.834-14.72a45.368 45.368 0 0 1 32.08-13.28h572.128v-9.84H392.886c-30.486 0-55.199 24.72-55.199 55.2 0 30.49 24.713 55.21 55.199 55.21h573.899v-9.84H394.657a45.368 45.368 0 0 1-17.362-3.45 45.432 45.432 0 0 1-14.718-9.84 45.28 45.28 0 0 1-9.834-14.72 45.352 45.352 0 0 1-3.452-17.36Z"/><path fill="#fff" d="M931.9 1711.96c0-21.44 14.894-39.36 34.886-44.1v-1.26H394.657a45.368 45.368 0 0 0-32.08 13.28 45.387 45.387 0 0 0-9.834 14.72 45.333 45.333 0 0 0-3.451 17.36 45.333 45.333 0 0 0 3.451 17.36 45.28 45.28 0 0 0 9.834 14.72 45.263 45.263 0 0 0 14.718 9.84 45.364 45.364 0 0 0 17.362 3.45h572.129v-1.26c-19.992-4.75-34.886-22.66-34.886-44.11Z"/><path fill="#D7C9C9" d="M908.332 1689.24H386.988a3.58 3.58 0 0 1-2.544-1.06 3.586 3.586 0 0 1-1.059-2.54c0-1.98 1.625-3.6 3.603-3.6h521.344a3.614 3.614 0 0 1 3.603 3.6 3.586 3.586 0 0 1-1.058 2.54 3.583 3.583 0 0 1-2.545 1.06Zm0 26.43H386.988c-.955 0-1.869-.38-2.544-1.05a3.627 3.627 0 0 1-1.059-2.55c0-1.98 1.625-3.6 3.603-3.6h521.344a3.614 3.614 0 0 1 3.603 3.6c0 1.98-1.624 3.6-3.603 3.6Zm0 26.43H386.988c-.955 0-1.869-.38-2.544-1.05a3.627 3.627 0 0 1-1.059-2.55c0-1.98 1.625-3.6 3.603-3.6h521.344a3.614 3.614 0 0 1 3.603 3.6c0 1.98-1.624 3.6-3.603 3.6Z"/><path fill="#76C6EE" d="M295.503 1766.99h629.103v110.41H295.503v-110.41Z"/><path fill="#49B0DE" d="M349.208 1766.99h14.848v110.41h-14.848v-110.41Zm45.844 0H409.9v110.41h-14.848v-110.41Zm402.424 0h14.842v110.41h-14.842v-110.41Zm45.844 0h14.847v110.41H843.32v-110.41Zm-389.909 29.74h285.263v50.94H453.411v-50.94Z"/><path fill="#EF4F4E" d="m865.086 1786.55-39.638-19.23-37.244 19.23v-105.72h76.882v105.72Z"/><path fill="#9C7DB8" d="M318.774 1595.88h606.52v60.4h-606.52v-60.4Z"/><path fill="#CFB8D9" d="M856.866 1595.88h13.093v60.4h-13.093v-60.4Zm-31.621 0h13.093v60.4h-13.093v-60.4Zm-280.786 22.19h247.493v16.03H544.459v-16.03Z"/><path fill="#8567A5" d="M318.774 1595.88h204.2v60.4h-204.2v-60.4Z"/><path fill="#fff" d="M318.774 1602.89h191.955v46.38H318.774v-46.38Z"/><path fill="#D7C9C9" d="M322.288 1607.42h184.553v3.36H322.288v-3.36Zm0 11.33h184.553v3.37H322.288v-3.37Zm0 11.34h184.553v3.37H322.288v-3.37Zm0 11.34h184.553v3.36H322.288v-3.36Z"/><path fill="#667BAE" d="m230.02 1562.73 91.523 19.73-99.473 461.48-91.522-19.73 99.472-461.48Z"/><path fill="#EEC34B" d="m140.673 1976.6 4.327-20.06 91.52 19.73-4.326 20.06-91.521-19.73ZM151.49 1926.4l4.328-20.07 91.52 19.74-4.327 20.07-91.521-19.74ZM239.422 1606.76l55.175 11.9-57.874 268.36-55.175-11.9 57.874-268.36Z"/><path fill="#667BAE" d="M550.92 1593.47c-10.11 8.91-19.408 22.14-18.055 40.3 2.848 38.14 62.654 125.86 62.654 125.86s-29.903 17.79-27.055 33.05l68.349-19.07s1.422-3.81-9.964-13.98c0 0-21.36-104.24-2.847-118.23l.249-.19c14.608-10.88 36.156-10.88 50.764 0l.25.19c18.283 13.81-2.306 115.58-2.822 118.11-.052.05-.109.08-.156.12-11.391 10.17-9.964 13.98-9.964 13.98l68.349 19.07c2.848-15.26-27.055-33.05-27.055-33.05h.135s59.807-87.72 62.654-125.86c1.359-18.16-7.939-31.39-18.054-40.3H550.92Z" opacity=".58"/><path fill="#36639B" d="M595.519 1752.01s-29.903 19.93-27.055 37.02l68.349-21.36s1.422-4.27-9.964-15.67c-11.396-11.38-31.33.01-31.33.01Zm108.087 0s29.904 19.93 27.056 37.02l-68.35-21.36s-1.421-4.27 9.97-15.67c11.391-11.38 31.324.01 31.324.01Z"/><path fill="#627DA4" d="m725.102 1549.8-58.38-16.16v-9.46l-17.086 4.72-17.086-4.72v9.46l-58.385 16.16s-44.142 18.51-41.294 61.23c2.847 42.72 62.654 140.98 62.654 140.98h31.33s-21.361-116.77-2.848-132.43l.25-.21c14.608-12.2 36.155-12.2 50.763 0l.25.21c18.513 15.67-2.847 132.43-2.847 132.43h31.324s59.807-98.26 62.654-140.98c2.843-42.72-41.299-61.23-41.299-61.23Z"/><path fill="#EF658D" d="M712.285 1373.23s-10.49-20.96-34.495-30.12a28.449 28.449 0 0 1-9.523 17.46 28.425 28.425 0 0 1-37.27 0 28.49 28.49 0 0 1-9.526-17.46c-24.004 9.16-34.494 30.12-34.494 30.12l-25.63 183.69h176.572l-25.634-183.69Z"/><path fill="#FCBC5F" d="M548.53 1430.19s-14.238 46.99-5.695 76.9c8.548 29.9 54.111 45.56 54.111 45.56l1.421-34.17s-31.33-24.2-15.665-81.17l-34.172-7.12Z"/><path fill="#EF658D" d="M621.471 1343.11s-65.824 20.15-81.484 92.77l55.538 17.09 25.946-109.86Z"/><path fill="#FCBC5F" d="M752.475 1430.19s14.239 46.99 5.696 76.9c-8.543 29.9-54.111 45.56-54.111 45.56l-1.427-34.17s31.33-24.2 15.665-81.17l34.177-7.12Z"/><path fill="#EF658D" d="M679.534 1343.11s65.825 20.15 81.489 92.77l-55.532 17.09-25.957-109.86Z"/><path fill="#C1BEBC" d="M732.219 1564.95H581.281l-9.969-84.92h173.531l-12.624 84.92Z"/><path fill="#B48039" d="M594.494 1285.14c4.644 5.8 2.686 14.24.63 21.37-2.057 7.14-3.655 15.77 1.4 21.21 3.041 3.27 7.971 4.63 10.24 8.47 2.609 4.43.583 10.13 1.698 15.14 1.353 6.12 7.345 10.34 13.499 11.56 6.153 1.21 12.494.03 18.653-1.17-5.779-19.08-10.73-38.02-16.503-57.09-1.895-6.25-3.894-12.7-8.168-17.64-4.275-4.94-15.431-4.38-21.449-1.85Zm112.918 0c-4.639 5.8-2.681 14.24-.63 21.37 2.056 7.14 3.66 15.77-1.395 21.21-3.04 3.27-7.97 4.63-10.24 8.47-2.609 4.43-.589 10.13-1.697 15.14-1.354 6.12-7.351 10.34-13.5 11.56-6.153 1.21-12.494.03-18.653-1.17 5.779-19.08 10.725-38.02 16.503-57.09 1.89-6.25 3.894-12.7 8.163-17.64 4.274-4.94 15.436-4.38 21.449-1.85Z"/><path fill="#FCBC5F" d="m611.924 1318.57 1.692-.31c-4.098-1.81-9.475.34-11.204 4.46-1.728 4.13.51 9.47 4.665 11.13 4.154 1.66 9.454-.67 11.037-4.86 1.665-4.39-1.505-10.11-6.19-10.42Zm82.655 0 1.692-.31c-4.097-1.81-9.47.34-11.203 4.46-1.734 4.13.51 9.47 4.665 11.13 4.159 1.66 9.454-.67 11.041-4.86 1.661-4.39-1.509-10.11-6.195-10.42Z"/><path fill="#FCBC5F" d="m698.317 1288.12-45.412 9.01-45.412-9.01s-5.237 13.51 6.987 48.04c7.075 19.98 18.835 31.4 27.487 37.49a18.973 18.973 0 0 0 10.941 3.47c3.916 0 7.737-1.21 10.94-3.47 8.653-6.09 20.408-17.51 27.488-37.49 12.224-34.54 6.981-48.04 6.981-48.04Z"/><path fill="#B48039" d="M609.399 1317.55c7.908-4.75 11.625-12.47 13.629-21.46.229-1.03 1.578-1.32 2.135-.42 7.418 12.04 25.181 18.13 37.8 11.78 4.274-2.14 7.924-5.34 11.906-7.99 3.983-2.66 8.58-4.83 13.354-4.52 4.774.3 10.391 7.11 10.771 11.88 5.253-4.94 9.657-16.81 8.71-23.96-.948-7.16-2.895-18.76-9.257-22.16-7.121-3.81-11.786-11.72-18.975-15.41-8.143-4.19-20.028.27-28.316-3.61-6.887-3.23-15.102-2.68-22.193.07-7.091 2.74-17.378 16.21-23.011 21.32-9.636 8.76-14.363 10.79-16.247 23.67-1.885 12.87 6.83 28.81 19.694 30.81Z"/></svg>