<svg xmlns="http://www.w3.org/2000/svg" width="2000" height="2000" fill="none"><g clip-path="url(#a)"><path fill="#A2C3F2" d="M258.019 1666s-113.969-512.24-7.716-813.029C428.096 349.669 687.752 665.682 863.33 640.85c145.33-20.555 273.32-247.589 468.78-250.804 195.46-3.215 220.33 162.004 245.23 283.918 42.74 209.2 245.35 47.607 363.53 156.214 125.92 115.725 25.41 546.472-67.12 835.822H258.019Z"/><path fill="#F1F3F2" d="m1211.88 584.948-35-30.174-44.68 11.761 17.85-42.65-24.98-38.898 46.04 3.814L1200.35 453l10.6 45.007 43.05 16.772-39.49 24.001-2.63 46.168ZM404.876 991.47l-44.694-11.695L325.22 1010l-2.7-46.163L283 939.894l43.025-16.836 10.537-45.022 29.291 35.757 46.033-3.881-24.923 38.935 17.913 42.623Z"/><path fill="#FFB12A" d="M1673.5 683c42.8 0 77.5-34.698 77.5-77.5s-34.7-77.5-77.5-77.5-77.5 34.698-77.5 77.5 34.7 77.5 77.5 77.5Z"/><path fill="#30313C" d="M1647.5 603c3.59 0 6.5-6.268 6.5-14s-2.91-14-6.5-14-6.5 6.268-6.5 14 2.91 14 6.5 14ZM1701 603c3.87 0 7-6.268 7-14s-3.13-14-7-14-7 6.268-7 14 3.13 14 7 14ZM1673.5 634c-19.32 0-26.97-12.884-27.28-13.432a1.737 1.737 0 0 1-.16-1.301c.12-.438.41-.81.8-1.037a1.735 1.735 0 0 1 2.35.615c.28.473 7.04 11.703 24.29 11.703 17.35 0 24.22-11.586 24.29-11.703a1.735 1.735 0 0 1 2.35-.615c.39.227.68.599.8 1.037.12.437.06.905-.16 1.301-.31.548-7.96 13.432-27.28 13.432Z"/><path fill="#FF593A" d="M1735.25 1504.68h-30.22v-25.32c0-10.69-8.71-19.36-19.46-19.36h-99.11c-10.75 0-19.46 8.67-19.46 19.36V1660h138.03v-44.68h30.21c16.41 0 29.76-13.28 29.76-29.6v-51.44c0-16.32-13.35-29.6-29.75-29.6Zm12.88 81.04c0 7.06-5.78 12.82-12.88 12.82h-30.22v-77.08h30.22c7.1 0 12.88 5.75 12.88 12.82v51.44Z"/><path fill="#9B453A" d="M1564 1483h136v4h-136v-4Z"/><path fill="#FFB12A" d="M605.5 1142c42.802 0 77.5-34.7 77.5-77.5S648.302 987 605.5 987s-77.5 34.7-77.5 77.5 34.698 77.5 77.5 77.5Z"/><path fill="#30313C" d="M579 1063c3.866 0 7-6.49 7-14.5s-3.134-14.5-7-14.5-7 6.49-7 14.5 3.134 14.5 7 14.5ZM632.5 1062c3.59 0 6.5-6.27 6.5-14s-2.91-14-6.5-14-6.5 6.27-6.5 14 2.91 14 6.5 14Z"/><path fill="#fff" d="M628 1074s0 4.54-1.519 10h-44.962c-1.519-5.46-1.519-10-1.519-10h48Z"/><path fill="#30313C" d="M604.5 1105c-12.367 0-21.198-7.28-24.866-20.5-1.615-5.81-1.634-10.61-1.634-10.81 0-.45.175-.88.487-1.2.312-.31.735-.49 1.176-.49h49.674c.441 0 .864.18 1.176.49.312.32.487.75.487 1.2 0 .2-.018 5-1.634 10.81-3.668 13.22-12.498 20.5-24.866 20.5Zm-23.091-29.62c.213 2.77.69 5.52 1.426 8.21 2.283 8.22 7.896 18.03 21.665 18.03 13.77 0 19.382-9.81 21.665-18.03a43.857 43.857 0 0 0 1.427-8.21h-46.183Z"/><path fill="#3E8EDD" d="M363.969 542.591h-32.018a127.521 127.521 0 0 0-4.718-17.659l27.716-16.004c6.614-3.818 8.88-12.276 5.062-18.89l-10.488-18.167c-3.818-6.614-12.276-8.881-18.889-5.062l-27.74 16.017a129.122 129.122 0 0 0-12.917-12.919l16.015-27.741c3.819-6.614 1.553-15.072-5.061-18.89l-18.166-10.489c-6.614-3.818-15.071-1.552-18.889 5.062l-16.003 27.718a127.33 127.33 0 0 0-17.658-4.718v-32.02c0-7.638-6.192-13.829-13.828-13.829H195.41c-7.637 0-13.828 6.192-13.828 13.829v32.02a127.484 127.484 0 0 0-17.659 4.718l-16.002-27.718c-3.818-6.614-12.275-8.88-18.889-5.062l-18.166 10.489c-6.614 3.818-8.88 12.276-5.061 18.89l16.015 27.741a129.122 129.122 0 0 0-12.917 12.919l-27.74-16.017c-6.613-3.819-15.07-1.552-18.89 5.062l-10.487 18.167c-3.819 6.614-1.553 15.072 5.062 18.89l27.716 16.004a127.483 127.483 0 0 0-4.718 17.659H47.828c-7.637 0-13.828 6.192-13.828 13.83v20.978c0 7.637 6.191 13.828 13.828 13.828h32.018a127.525 127.525 0 0 0 4.718 17.66L56.848 624.89c-6.614 3.819-8.88 12.277-5.062 18.891l10.488 18.167c3.818 6.614 12.276 8.88 18.89 5.062l27.739-16.017a129.112 129.112 0 0 0 12.917 12.918l-16.015 27.741c-3.819 6.615-1.553 15.073 5.061 18.891l18.166 10.489c6.614 3.818 15.071 1.552 18.889-5.063l16.003-27.718a127.33 127.33 0 0 0 17.658 4.718v32.02c0 7.638 6.192 13.829 13.829 13.829h20.977c7.637 0 13.827-6.192 13.827-13.829v-32.02a127.484 127.484 0 0 0 17.659-4.718l16.002 27.718c3.819 6.615 12.276 8.881 18.89 5.063l18.166-10.489c6.613-3.818 8.88-12.276 5.061-18.891l-16.015-27.741a129.217 129.217 0 0 0 12.917-12.918l27.739 16.017c6.614 3.818 15.072 1.553 18.89-5.062l10.488-18.167c3.818-6.614 1.552-15.072-5.062-18.891l-27.716-16.003a127.357 127.357 0 0 0 4.718-17.66h32.018c7.637 0 13.828-6.192 13.828-13.828v-20.978c-.001-7.638-6.192-13.83-13.829-13.83ZM205.898 650.66c-46.251 0-83.746-37.497-83.746-83.751 0-46.254 37.495-83.75 83.746-83.75s83.746 37.496 83.746 83.75-37.495 83.751-83.746 83.751ZM1717.16 1109h-13.33c-7.17 0-13.01-5.84-13.01-13.01v-16.95c-1.7-.39-3.39-.85-5.06-1.35l-8.47 14.68c-.85 1.48-1.99 2.78-3.35 3.82-1.35 1.04-2.9 1.8-4.55 2.24a13.023 13.023 0 0 1-9.87-1.3l-11.55-6.67c-1.48-.85-2.78-1.99-3.82-3.34-1.04-1.36-1.8-2.91-2.24-4.56-.45-1.65-.56-3.37-.34-5.07.22-1.69.78-3.32 1.64-4.8l8.48-14.69a80.69 80.69 0 0 1-3.7-3.7l-14.69 8.48c-6.21 3.59-14.18 1.45-17.77-4.76l-6.66-11.55c-3.59-6.21-1.45-14.18 4.76-17.77l14.67-8.47c-.51-1.67-.96-3.36-1.36-5.06H1610c-7.17 0-13.01-5.84-13.01-13.01v-13.338c0-7.172 5.84-13.007 13.01-13.007h16.94c.4-1.702.86-3.393 1.36-5.065l-14.67-8.471c-6.21-3.585-8.35-11.556-4.76-17.768l6.66-11.551a12.88 12.88 0 0 1 3.35-3.821 12.856 12.856 0 0 1 4.55-2.24c1.65-.447 3.37-.562 5.07-.339 1.69.223 3.32.78 4.8 1.639l14.69 8.48a83.314 83.314 0 0 1 3.7-3.701l-8.48-14.687a12.918 12.918 0 0 1-1.3-9.87c.44-1.652 1.2-3.201 2.24-4.557a12.96 12.96 0 0 1 3.82-3.342l11.55-6.668a12.93 12.93 0 0 1 4.8-1.639c1.7-.223 3.42-.108 5.07.339a12.87 12.87 0 0 1 4.55 2.239c1.36 1.041 2.5 2.34 3.35 3.822l8.47 14.672c1.67-.503 3.36-.954 5.06-1.353v-16.947c0-7.172 5.84-13.007 13.01-13.007h13.33c7.18 0 13.01 5.835 13.01 13.007v16.947c1.7.399 3.39.851 5.07 1.352l8.47-14.672a12.848 12.848 0 0 1 3.34-3.821 12.87 12.87 0 0 1 4.55-2.239c1.65-.447 3.37-.562 5.07-.339 1.69.223 3.33.78 4.8 1.639l11.55 6.668c6.21 3.585 8.35 11.556 4.76 17.769l-8.48 14.688a83.314 83.314 0 0 1 3.7 3.701l14.69-8.48c6.21-3.585 14.18-1.451 17.77 4.761l6.67 11.55c3.58 6.211 1.45 14.182-4.76 17.768l-14.68 8.471c.51 1.674.96 3.363 1.36 5.065h16.94c7.18 0 13.01 5.835 13.01 13.007v13.338c0 7.17-5.83 13.01-13.01 13.01h-16.94c-.4 1.7-.85 3.39-1.36 5.06l14.68 8.47c6.21 3.59 8.34 11.56 4.76 17.77l-6.67 11.55c-3.59 6.21-11.56 8.35-17.77 4.76l-14.69-8.48c-1.19 1.27-2.43 2.5-3.7 3.7l8.48 14.69c3.59 6.21 1.45 14.18-4.76 17.77l-11.55 6.67c-6.21 3.58-14.18 1.45-17.76-4.76l-8.48-14.68c-1.67.51-3.36.96-5.06 1.36v16.94c0 7.17-5.83 13.01-13.01 13.01Zm-33.35-40.58c.46 0 .92.08 1.38.23 3.47 1.2 7.03 2.15 10.64 2.84.96.19 1.83.7 2.46 1.46.62.75.96 1.7.96 2.68v20.36c0 1.22.49 2.38 1.34 3.24a4.63 4.63 0 0 0 3.24 1.34h13.33c1.22 0 2.38-.49 3.24-1.34a4.57 4.57 0 0 0 1.34-3.24v-20.36c0-.98.34-1.93.97-2.68a4.21 4.21 0 0 1 2.45-1.46c3.61-.69 7.17-1.64 10.65-2.84.92-.32 1.93-.31 2.85.04.91.34 1.68.99 2.17 1.84l10.18 17.62a4.576 4.576 0 0 0 6.25 1.67l11.55-6.66a4.58 4.58 0 0 0 2.13-2.78c.32-1.18.15-2.42-.46-3.48l-10.18-17.63c-.49-.85-.67-1.84-.51-2.81.17-.96.66-1.84 1.4-2.48 2.78-2.41 5.38-5.02 7.79-7.8a4.24 4.24 0 0 1 2.49-1.39c.96-.16 1.95.02 2.8.51l17.64 10.18c1.05.6 2.3.77 3.47.45a4.58 4.58 0 0 0 2.78-2.13l6.67-11.55c.6-1.05.77-2.3.45-3.47a4.58 4.58 0 0 0-2.13-2.78l-17.62-10.17c-.85-.49-1.5-1.26-1.84-2.18-.34-.92-.36-1.92-.04-2.85a76.95 76.95 0 0 0 2.85-10.64c.18-.97.7-1.83 1.45-2.46.76-.62 1.71-.96 2.69-.96h20.35c1.22-.01 2.38-.49 3.24-1.35.86-.85 1.34-2.02 1.34-3.23v-13.338c0-1.213-.48-2.376-1.34-3.234a4.585 4.585 0 0 0-3.24-1.342h-20.35a4.24 4.24 0 0 1-2.69-.966 4.217 4.217 0 0 1-1.45-2.455 76.79 76.79 0 0 0-2.85-10.645 4.23 4.23 0 0 1 1.88-5.028l17.62-10.174a4.569 4.569 0 0 0 2.13-2.78c.32-1.172.15-2.42-.45-3.472l-6.67-11.549a4.579 4.579 0 0 0-6.25-1.676l-17.64 10.183a4.215 4.215 0 0 1-5.29-.888 77.843 77.843 0 0 0-7.79-7.791 4.264 4.264 0 0 1-1.4-2.487c-.16-.966.02-1.958.51-2.806l10.18-17.637c.61-1.051.77-2.3.46-3.472a4.603 4.603 0 0 0-2.13-2.779l-11.55-6.669a4.524 4.524 0 0 0-3.47-.457c-.58.154-1.13.421-1.61.787-.47.366-.87.823-1.17 1.345l-10.18 17.622a4.235 4.235 0 0 1-2.17 1.842c-.92.342-1.93.354-2.85.034a77.345 77.345 0 0 0-10.65-2.844c-.96-.185-1.83-.7-2.45-1.455a4.19 4.19 0 0 1-.97-2.686v-20.357c0-1.213-.48-2.376-1.34-3.234a4.585 4.585 0 0 0-3.24-1.342h-13.33a4.602 4.602 0 0 0-3.24 1.342 4.607 4.607 0 0 0-1.34 3.234v20.357c0 .981-.34 1.93-.96 2.686-.63.755-1.5 1.27-2.46 1.455a76.692 76.692 0 0 0-10.64 2.844 4.213 4.213 0 0 1-5.03-1.876l-10.17-17.622a4.566 4.566 0 0 0-2.78-2.132 4.575 4.575 0 0 0-1.79-.12c-.59.079-1.17.275-1.69.577l-11.54 6.668a4.51 4.51 0 0 0-1.35 1.176 4.757 4.757 0 0 0-.79 1.603c-.15.58-.19 1.186-.12 1.782.08.596.28 1.171.58 1.69l10.18 17.638c.49.848.67 1.84.51 2.805a4.211 4.211 0 0 1-1.4 2.487 78.805 78.805 0 0 0-7.79 7.791 4.209 4.209 0 0 1-5.29.889l-17.63-10.183a4.593 4.593 0 0 0-1.69-.577 4.593 4.593 0 0 0-3.39.907c-.48.366-.88.823-1.17 1.345l-6.67 11.55a4.58 4.58 0 0 0-.46 3.472 4.603 4.603 0 0 0 2.13 2.779l17.62 10.174c.85.49 1.5 1.259 1.85 2.177.34.918.35 1.926.03 2.851a76.728 76.728 0 0 0-2.84 10.643 4.23 4.23 0 0 1-4.14 3.422H1610a4.566 4.566 0 0 0-3.23 1.342 4.575 4.575 0 0 0-1.35 3.235v13.339c0 1.21.49 2.37 1.35 3.23.85.86 2.02 1.34 3.23 1.34h20.36c.98 0 1.93.35 2.68.97.76.62 1.27 1.49 1.46 2.46.69 3.61 1.64 7.16 2.84 10.64.32.92.31 1.93-.03 2.85-.35.92-1 1.69-1.85 2.18l-17.62 10.17a4.616 4.616 0 0 0-2.13 2.78c-.31 1.17-.15 2.42.46 3.47l6.67 11.55c.6 1.05 1.6 1.82 2.77 2.13 1.18.32 2.42.15 3.48-.45l17.63-10.19a4.232 4.232 0 0 1 5.29.89c2.41 2.78 5.02 5.38 7.79 7.79a4.23 4.23 0 0 1 1.4 2.49c.16.97-.02 1.96-.51 2.81l-10.18 17.63c-.3.52-.5 1.1-.58 1.69a4.9 4.9 0 0 0 .12 1.79c.16.58.43 1.12.79 1.6.37.48.82.88 1.35 1.17l11.54 6.67c.52.3 1.1.5 1.69.58.6.08 1.21.04 1.79-.12a4.44 4.44 0 0 0 1.6-.79c.48-.36.88-.82 1.18-1.34l10.17-17.62c.37-.64.9-1.18 1.54-1.55.64-.37 1.37-.56 2.11-.56Zm26.69-15.47c-31.69 0-57.46-25.78-57.46-57.46 0-31.685 25.77-57.462 57.46-57.462 31.68 0 57.45 25.778 57.45 57.462 0 31.68-25.77 57.46-57.45 57.46Zm0-106.491c-27.04 0-49.03 21.995-49.03 49.031 0 27.04 21.99 49.03 49.03 49.03 27.03 0 49.02-21.99 49.02-49.03 0-27.036-21.99-49.031-49.02-49.031Z"/><path fill="#9B453A" d="M922.156 864c-.317 0-.635-.089-.913-.268L833.42 807.17c-21.994 4.677-44.842 7.049-67.92 7.049-63.871 0-123.94-17.892-169.142-50.378C550.988 731.233 526 687.823 526 641.61c0-46.214 24.987-89.623 70.358-122.232C641.559 486.891 701.629 469 765.5 469c63.872 0 123.941 17.891 169.142 50.378C980.013 551.987 1005 595.396 1005 641.61c0 27.755-9.35 55.339-27.039 79.766-16.852 23.272-41.28 43.785-70.699 59.377l16.547 81.219a1.694 1.694 0 0 1-1.653 2.028Zm-88.408-60.319c.32 0 .639.091.913.268l85.042 54.771-16-78.535a1.693 1.693 0 0 1 .872-1.837c60.77-31.813 97.055-82.93 97.055-136.739 0-93.313-105.929-169.229-236.129-169.229-130.199 0-236.124 75.916-236.124 169.229 0 93.312 105.925 169.229 236.124 169.229 23.078 0 45.921-2.396 67.893-7.119.117-.026.236-.038.354-.038Z"/><path fill="#FF593A" d="M985 634.212C985 540.207 878.667 464 747.5 464S510 540.207 510 634.212s106.333 170.212 237.5 170.212c23.692 0 46.566-2.499 68.157-7.126L903.95 854l-16.779-82.122C946.458 740.929 985 690.8 985 634.212Z"/><path fill="#fff" d="M900.948 605.197H594.052a5.027 5.027 0 0 1-3.572-1.493 5.12 5.12 0 0 1-1.48-3.605c0-1.353.532-2.649 1.48-3.606a5.027 5.027 0 0 1 3.572-1.493h306.897c1.34 0 2.624.537 3.572 1.494a5.123 5.123 0 0 1 1.479 3.605 5.124 5.124 0 0 1-1.48 3.605 5.023 5.023 0 0 1-3.572 1.493Zm0 35.402H594.052a5.024 5.024 0 0 1-3.572-1.494A5.12 5.12 0 0 1 589 635.5a5.12 5.12 0 0 1 1.48-3.605 5.024 5.024 0 0 1 3.572-1.494h306.897a5.03 5.03 0 0 1 3.572 1.494A5.123 5.123 0 0 1 906 635.5c0 1.353-.533 2.65-1.48 3.606a5.027 5.027 0 0 1-3.572 1.493Zm0 35.401H594.052a5.027 5.027 0 0 1-3.572-1.493 5.122 5.122 0 0 1-1.48-3.606 5.12 5.12 0 0 1 1.48-3.605 5.027 5.027 0 0 1 3.572-1.493h306.897a5.016 5.016 0 0 1 3.572 1.493 5.117 5.117 0 0 1 1.479 3.606 5.14 5.14 0 0 1-1.48 3.605 5.016 5.016 0 0 1-3.572 1.493Z"/><path fill="#2A3047" d="M1165.88 832.276s76.86-43.066 136.99 15.422c60.14 58.487 35.42 132.756 47.23 178.912 11.8 46.15 94.82 52.84 111.79 117.18 15.58 59.05-30.02 81.49-78.93 70.69 0 0 50.47 98.47-46.23 119.81-76.43 16.86-241.97 3.76-308.32-142.01-53.892-118.38-60.203-312.78 137.47-360.004Z"/><path fill="#D88E4C" d="M635.509 1510s-22.041 65.9.991 116c0 0 55.78-67.11-.991-116Z"/><path fill="#F69D85" d="m956.875 1294.99-71.998 191.37-325.665 59.89c-22.686 4.17-37.691 25.92-33.514 48.58 3.818 20.72 22.353 35.02 42.836 34.13l330.843-13.93c21.372-.9 39.511-13.4 48.59-31.17l146.003-287.44c16.2-31.88 3.45-70.85-28.47-87.02-31.92-16.18-92.428 53.7-108.625 85.59Z"/><path fill="#F1F3F2" d="M1093.76 1164s-98.41 17.93-188.293 188.55c-39.124 74.27-60.754 121.33-60.754 121.33s-135.068 34.91-194.713 47.7c0 0 29.319 47.97 1 117.25 0 0 248.341 21.42 298.033-22.92C999.44 1570.94 1119 1333.53 1119 1333.53L1093.76 1164Z"/><path fill="#D88E4C" d="M679.844 1591.4c-3.177 23.24-9.476 40.59-9.543 40.77-.16.42-.479.76-.887.95-.408.18-.872.2-1.293.04a1.7 1.7 0 0 1-.953-.87c-.19-.41-.212-.88-.062-1.3.281-.77 27.692-77.14-4.816-125.71a1.732 1.732 0 0 1-.258-1.29c.087-.44.346-.83.721-1.09.375-.25.834-.34 1.277-.26.444.09.834.35 1.086.73 17.537 26.2 17.999 59.86 15.299 83.48-.174 1.52-.364 3.04-.571 4.55Zm35.383.3c-3.417 24.99-10.607 42.11-10.681 42.28-.181.41-.516.74-.933.9-.416.17-.88.16-1.292-.02a1.7 1.7 0 0 1-.907-.92 1.72 1.72 0 0 1 0-1.3c.074-.17 7.44-17.72 10.672-43.18 2.986-23.44 3-58.6-13.882-92.99-.2-.41-.231-.88-.085-1.31.145-.43.454-.78.859-.98.405-.2.873-.24 1.3-.09.428.15.781.46.98.86 17.277 35.2 17.253 71.12 14.192 95.06-.073.56-.147 1.13-.223 1.69Z"/><path fill="#818496" d="M842.984 1467.88c-.027.2-.091.39-.188.57-6.049 11.02-7.464 31.8-7.478 32-.073.92-.85 1.61-1.765 1.55-.44-.03-.85-.23-1.14-.56a1.652 1.652 0 0 1-.41-1.2c.059-.88 1.482-21.72 7.879-33.38.186-.34.486-.6.847-.74.361-.15.761-.16 1.131-.04a1.655 1.655 0 0 1 1.124 1.8Z"/><path fill="#AF5945" d="M1047.31 1034.93c.35-.1.66-.31.88-.6.22-.3.34-.65.35-1.02.18-11.26-7.2-13.51-12.09-15-2.19-.66-4.26-1.29-4.84-2.41-.33-.62-.29-1.58.1-2.87 3.07-10.13 15.52-10.59 15.64-10.59.45-.01.88-.2 1.19-.54.3-.33.47-.77.46-1.23a1.71 1.71 0 0 0-.53-1.198 1.663 1.663 0 0 0-1.21-.471c-.61.015-15 .552-18.79 13.019-.67 2.22-.62 4.02.15 5.5 1.25 2.38 3.98 3.21 6.86 4.09 4.82 1.47 9.81 2.99 9.67 11.64 0 .27.05.54.17.78.11.24.28.45.49.61.21.17.46.28.72.33.26.05.52.04.78-.04Z"/><path fill="#F69D85" d="M1073.68 1035.93c9.62-13.01 6.88-31.35-6.13-40.966-13-9.619-31.34-6.875-40.96 6.126-9.62 13.01-6.88 31.35 6.13 40.97 13 9.62 31.35 6.87 40.96-6.13ZM1112 1053h105v164h-105v-164Z"/><path fill="#3E8EDD" d="M1110.23 1025.4c3.64-33.245-16.8-62.758-45.66-65.92-28.87-3.162-55.21 21.225-58.86 54.47-3.64 33.24 16.81 62.76 45.67 65.92 28.86 3.16 55.21-21.23 58.85-54.47Z"/><path fill="#D1836B" d="M1184 1149.64s-35.94 14.46-73 7.43V1104l73 45.64Z"/><path fill="#F69D85" d="M1153.36 1158.33c-60.6-6.64-104.33-61.21-97.69-121.86l6.24-57.012c6.64-60.656 61.14-104.438 121.73-97.791 60.6 6.648 104.33 61.208 97.69 121.863l-6.24 57.01c-6.64 60.66-61.14 104.44-121.73 97.79Z"/><path fill="#333647" d="M737 1666H206.569l-73.406-312.05c-6.361-27.04 14.172-52.95 41.978-52.95h441.833c20.02 0 37.402 13.76 41.978 33.23L737 1666Z"/><path fill="#404660" d="M702 1666H205.53l-73.367-312.05c-6.359-27.04 14.165-52.95 41.955-52.95h407.918c20.01 0 37.383 13.76 41.956 33.23L702 1666Z"/><path fill="#333647" d="M742 1621h298v34H742v-34Z"/><path fill="#F69D85" d="M1173.39 1654c-96.75 0-173.39-16.29-173.39-16.29 19.34-68.26 10.82-150.65 5.75-274.37-1.29-31.27 106.3-199.89 106.3-199.89l55.54-9.45c96.75 0 163.39 99.5 153.43 195.82-12.85 124.14-66.45 152.06-5.23 276.47l-142.4 27.71Z"/><path fill="#30313C" d="M1184.85 1013.3c-.89 8.2 1.75 15.22 5.89 15.68 4.13.45 8.2-5.83 9.09-14.03.88-8.2-1.75-15.223-5.89-15.679-4.13-.458-8.21 5.819-9.09 14.029Zm-65.68-7.25c-.88 8.2 1.75 15.22 5.89 15.68 4.13.46 8.21-5.82 9.09-14.03.89-8.2-1.75-15.22-5.89-15.677-4.13-.456-8.2 5.824-9.09 14.027Z"/><path fill="#D1836B" d="M1229.99 1044.76c.29 5.88-4.72 10.9-11.2 11.22-6.47.33-11.97-4.17-12.26-10.05-.3-5.87 4.71-10.9 11.19-11.22 6.48-.33 11.97 4.17 12.27 10.05Zm-124.52-8.69c.3 5.87-4.71 10.9-11.19 11.22-6.48.33-11.97-4.17-12.27-10.05-.29-5.88 4.72-10.9 11.2-11.22 6.47-.33 11.97 4.17 12.26 10.05Z"/><path fill="#F1F3F2" d="M1112.04 1149s-110.92 105.59-141.929 211.91c-14.28 48.96 24.753 100.95 33.289 152.75 7.9 48.01-19.957 142.76-19.957 142.76s112.367 9.58 160.487 9.58c114.99 0 190.65-6.61 190.65-6.61s-73.42-171.18-1.88-277.91c56.89-84.86-21.07-202.96-115.71-232.48 0 0-44.15 45.88-79.98 41.21-30.06-3.92-24.97-41.21-24.97-41.21Z"/><path fill="#F69D85" d="M1306.14 1061c13.69-8.62 17.79-26.71 9.17-40.39-8.62-13.69-26.71-17.79-40.4-9.17-13.68 8.62-17.79 26.71-9.16 40.39 8.62 13.69 26.71 17.79 40.39 9.17Z"/><path fill="#DB7777" d="M1175.96 1072.09c.67 4.5-6.83 9.23-16.75 10.56s-18.5-1.24-19.17-5.74c-.67-4.5 6.83-9.23 16.75-10.56s18.5 1.24 19.17 5.74Z"/><path fill="#AF5945" d="M1170.6 1078.51c5.64-1.61 11.59-4.13 17.61-7.94.37-.25.63-.63.73-1.07.09-.44.01-.89-.23-1.27a1.725 1.725 0 0 0-2.34-.55c-25.83 16.38-51.2 7.3-51.45 7.21-.21-.08-.43-.12-.66-.11-.23.01-.45.06-.65.16-.21.09-.39.22-.54.39-.16.16-.28.35-.36.57-.15.42-.14.89.05 1.3.19.41.53.74.96.89.86.32 16.9 6.1 36.88.42Zm112.71-25c.35-.1.66-.31.88-.59.23-.28.35-.63.37-.99.35-8.6 5.49-9.81 10.46-10.99 2.97-.71 5.78-1.37 7.18-3.66.88-1.43 1.03-3.21.47-5.46-3.12-12.58-17.67-13.95-18.29-14-.44-.03-.88.12-1.22.41-.33.3-.54.71-.58 1.15-.04.44.1.88.38 1.23.28.34.69.56 1.13.61.52.05 12.72 1.23 15.25 11.42.32 1.3.3 2.26-.07 2.86-.66 1.07-2.79 1.58-5.04 2.11-5.04 1.19-12.65 2.99-13.1 14.18-.02.27.04.54.15.79a1.708 1.708 0 0 0 1.23.96c.27.05.54.04.8-.03Zm-67.78-54.085a2.89 2.89 0 0 0 1.27-.762c.35-.361.6-.808.73-1.295a2.98 2.98 0 0 0-.02-1.483c-.14-.483-.4-.923-.76-1.274-.56-.545-13.94-13.323-32.59-10.998a2.91 2.91 0 0 0-1.87 1.105 2.896 2.896 0 0 0-.56 2.091c.09.743.47 1.421 1.06 1.888.59.467 1.34.687 2.09.612 15.92-1.985 27.72 9.295 27.84 9.409.37.354.82.606 1.31.731.49.124 1.01.115 1.5-.024Zm-67.18-13.668c.4-.113.77-.31 1.08-.577.32-.268.57-.6.75-.974.32-.688.35-1.475.09-2.188a2.863 2.863 0 0 0-1.48-1.616c-.6-.278-14.76-6.699-30.4 2.681a2.912 2.912 0 0 0-1.31 1.768c-.18.739-.06 1.52.33 2.172.2.323.46.605.76.829.3.224.65.386 1.02.477a2.889 2.889 0 0 0 2.18-.328c12.91-7.751 24.5-2.617 24.98-2.395.63.287 1.34.34 2 .151Zm13.17 68.993c.36-.1.68-.31.9-.61a1.687 1.687 0 0 0 0-2.06c-.22-.3-.54-.51-.9-.62-4-1.13-12.11-4.59-11.63-8 .68-4.76 9.01-25.87 12.16-33.6a1.7 1.7 0 0 0-.01-1.31 1.68 1.68 0 0 0-.93-.92 1.725 1.725 0 0 0-2.24.94c-.47 1.15-11.5 28.26-12.38 34.41-1.03 7.27 12.54 11.34 14.09 11.77.32.1.64.09.94 0Z"/><path fill="#2A3047" d="M1274.23 873.02c29.02-29.019 29.02-76.068 0-105.086s-76.07-29.017-105.09.002c-29.01 29.019-29.01 76.068.01 105.086 29.01 29.018 76.06 29.018 105.08-.002Z"/><path fill="#818496" d="M1030.27 1541s49.07 71.57 11.68 119c0 0-37.96-45.58-11.68-119Z"/><path fill="#F69D85" d="M982.997 1645.26s-36.26 12.99-75.959-.12c-37.184-12.28-46.388-26.14-53.51-41.67-7.121-15.52 59.691-38.46 85.3-33.88 25.609 4.59 44.46 36.87 44.169 75.67Z"/><path fill="#F69D85" d="M907.971 1645.44c-19.899-5.64-40.302-7.1-60.534-2.5-9.108 2.07-27.367 13.08-33.096-.96-6.366-19.62 78.245-36.22 93.579-36.45 41.19-6.71 33.477 52.54.051 39.91Z"/><path fill="#F69D85" d="M894.176 1628.29c-19.187-6.44-40.351-7.23-60.563-5.07-10.708-.61-28.821 11.23-33.443-3.51-3.233-15.58 40.539-21.75 52.229-24.97 16.822-2.77 34.345-3.91 51.366-1.17 23.034 6.27 13.534 40.79-9.589 34.72Z"/><path fill="#F69D85" d="M894.162 1611.95c-28.256-11.6-60.888-13.77-90.364-5.09-10.835 3.17-16.753-13.16-6.449-17.57 12.226-5.89 25.563-10.21 39-12.65 23.361-3.88 47.724-3.74 70.764 2.18 24.675 7.37 10.327 44.17-12.951 33.13Z"/><path fill="#F69D85" d="M935.57 1595.54c-29.856-12.59-62.938-19.92-95.331-17.47-10.721.89-21.258 3.17-31.324 6.94-4.997 2.05-10.737-.49-12.573-5.61-5.754-21.78 62.893-28.7 77.786-28.39 25.643 0 55.197 5.36 79.715 12.97 24.291 8.57 4.643 43.49-18.273 31.56Z"/><path fill="#AF5945" d="M835.986 1624.96a1.226 1.226 0 0 1-.945-1.12c-.019-.26.047-.52.187-.75.14-.22.347-.39.592-.49.185-.07 18.621-7.33 43.953-7.8.323.01.632.14.86.37.229.22.361.53.367.86.006.32-.114.63-.334.87-.22.24-.524.38-.846.39-24.854.46-42.9 7.55-43.079 7.62-.241.1-.504.12-.755.05Zm-11.04-20.99a1.285 1.285 0 0 1-.667-.43 1.245 1.245 0 0 1-.278-.74c-.01-.27.068-.53.222-.76.155-.22.378-.38.634-.47.207-.06 20.953-6.75 48.815-8.48a1.249 1.249 0 0 1 1.297 1.17 1.253 1.253 0 0 1-1.144 1.32c-27.528 1.7-47.996 8.29-48.199 8.36-.228.08-.463.08-.68.03Zm.483-23.92a1.215 1.215 0 0 1-.69-.44 1.25 1.25 0 0 1 .028-1.56c.18-.22.428-.37.704-.42.237-.05 23.955-4.95 44.744-5.63.329-.01.649.11.889.34.24.22.381.53.391.86.011.33-.11.65-.335.9a1.24 1.24 0 0 1-.866.39c-20.575.67-44.083 5.52-44.318 5.57-.181.04-.368.04-.547-.01Z"/><path fill="#F69D85" d="m1421.68 1581.35-.62-2.68-79.73-343c-.37-1.56-.79-3.1-1.26-4.63-10.59-33.85-46.57-52.69-80.36-42.09-33.79 10.61-52.59 46.64-42.01 80.49l86.73 277.23-330.604 28.14c-23.863 2.06-42.039 22.74-40.763 46.88 1.303 24.64 22.301 43.55 46.899 42.25l395.488-20.99c2.8-.16 5.9-.58 8.72-1.23 27-6.3 43.8-33.33 37.51-60.37Z"/><path fill="#F1F3F2" d="M1222.12 1155.13s114.04-7.18 154.43 83.62c40.39 90.8 109.31 327.97 50.92 385.63-47.35 46.76-372.63 41.44-372.63 41.44s14.6-49.11-11.84-119.27c0 0 142.14-28.41 214.14-37.88-.01 0-81.98-261.57-35.02-353.54Z"/><path fill="#818496" d="M1036.69 1556a1.678 1.678 0 0 1-1.68-1.52c-.04-.42.07-.84.32-1.17.25-.34.61-.57 1.02-.66 1.43-.28 142.09-28.51 212.75-37.74-4.62-15.04-34.63-115.46-46.3-219.03-.05-.45.08-.89.36-1.24a1.689 1.689 0 0 1 2.38-.27c.35.28.58.69.63 1.13 12.55 111.45 46.41 219.25 46.75 220.32.08.24.1.49.07.73-.04.25-.12.48-.26.69a1.688 1.688 0 0 1-1.21.77c-69.85 8.93-213.06 37.67-214.5 37.96-.11.02-.22.03-.33.03Z"/><path fill="#818496" d="M1082.3 1663c-.24 0-.49-.05-.71-.16-.22-.11-.42-.26-.58-.45a1.74 1.74 0 0 1-.33-.65c-.06-.24-.07-.49-.02-.74.12-.62 11.72-63.13-12.53-125.12-.09-.2-.13-.42-.13-.65 0-.22.05-.44.13-.65.09-.2.22-.39.38-.54.16-.16.35-.28.55-.36.21-.08.43-.12.65-.12.23.01.44.06.65.15.2.09.38.22.54.38.15.17.27.36.34.57 24.62 62.92 12.83 126.35 12.71 126.98-.08.38-.28.73-.58.98-.3.24-.68.38-1.07.38Zm38.2-.35a1.65 1.65 0 0 1-1.26-.58 1.7 1.7 0 0 1-.35-.63c-.06-.23-.08-.47-.04-.71 11.46-78.88-15.86-130.74-16.14-131.25a1.685 1.685 0 0 1 .68-2.28c.39-.21.85-.26 1.27-.13.43.13.79.42 1 .81.28.52 28.13 53.28 16.5 133.33-.12.84-.84 1.44-1.66 1.44Z"/><path fill="#3E8EDD" d="M1251.31 1116c-2.51 0-5.04-.19-7.58-.6l-44.28-7.02a4.114 4.114 0 0 1-2.67-1.68c-.64-.89-.9-2-.73-3.09.17-1.09.75-2.06 1.63-2.72a4.11 4.11 0 0 1 3.05-.77l44.28 7.02c21.18 3.35 41.31-10.63 45.82-31.84.48-2.25 2.67-3.7 4.91-3.2 1.07.23 2 .88 2.6 1.82.59.93.8 2.06.57 3.14-4.89 23-25.02 38.94-47.6 38.94Z"/><path fill="#3E8EDD" d="M1353.84 1042.72c3.64-33.25-16.81-62.761-45.67-65.923-28.86-3.161-55.21 21.225-58.85 54.473-3.64 33.24 16.8 62.76 45.66 65.92 28.86 3.16 55.21-21.23 58.86-54.47Z"/><path fill="#3E8EDD" d="M1305.88 1020c-.49 0-.99-.03-1.49-.1-6.17-.81-10.51-6.48-9.71-12.67.06-.47 3.74-30.708-5.84-62.387-12.34-40.811-40.41-65.162-83.42-72.379-6.15-1.03-10.29-6.86-9.26-13.02 1.02-6.16 6.84-10.316 12.98-9.288 65.33 10.961 91.26 54.38 101.5 88.875 10.79 36.319 6.59 69.729 6.4 71.129-.75 5.7-5.59 9.84-11.16 9.84Z"/><path fill="#2A3047" d="M1230.53 883.022s-28.64-80.618-121.48-63.684c-92.84 16.934-100.47 102.355-54.9 128.417 31.74 18.155 118.07 3.534 152.84-15.215 0 0 4.91 64.223 60.26 64.46 47.59.203 43.32-107.991-36.72-113.978Z"/><path fill="#305777" d="M1196.5 1117c8.01 0 14.5-6.49 14.5-14.5s-6.49-14.5-14.5-14.5-14.5 6.49-14.5 14.5 6.49 14.5 14.5 14.5ZM1309.31 1083c-1.05 0-2.11-.06-3.17-.17-9.6-1.05-18.09-6.7-23.91-15.9-5.74-9.08-8.18-20.56-6.89-32.33 2.68-24.45 20.86-42.575 40.53-40.427 19.66 2.152 33.48 23.787 30.8 48.227-2.54 23.12-18.95 40.6-37.36 40.6Zm3.37-85.627c-16.71 0-31.64 16.197-33.98 37.587-1.21 11.02 1.06 21.73 6.39 30.17 5.25 8.31 12.86 13.41 21.41 14.34 17.82 1.95 34.33-14.84 36.81-37.43 2.48-22.6-10-42.563-27.81-44.513a25.87 25.87 0 0 0-2.82-.154Z"/><path fill="#818496" d="M999.102 1578c-.233 0-.465-.05-.679-.14-.214-.1-.406-.23-.564-.41a1.647 1.647 0 0 1-.354-.59 1.704 1.704 0 0 1-.084-.69c.008-.09.764-9.39-.017-44.54-.372-16.77-8.594-37.79-17.298-60.05-9.507-24.32-19.339-49.47-19.102-70.42.448-39.44 45.676-113.19 47.596-116.31.24-.38.62-.65 1.05-.76a1.702 1.702 0 0 1 2.03 1.26c.1.43.03.89-.21 1.27-.47.76-46.659 76.07-47.096 114.58-.23 20.3 9.48 45.13 18.87 69.15 8.816 22.54 17.146 43.84 17.526 61.2.79 35.46.04 44.54.01 44.91-.04.42-.23.81-.54 1.1-.311.28-.717.44-1.138.44Zm135.288-351.72c-4.04 0-7.96-.32-11.72-.97-11.22-1.96-19.81-7.1-25.55-15.29-11.27-16.09-7.55-38.05-7.38-38.98.03-.22.12-.42.23-.61.12-.19.28-.35.46-.48.18-.12.39-.21.6-.26.22-.05.44-.05.66-.02a1.693 1.693 0 0 1 1.35 1.3c.05.22.05.44.01.66-.03.21-3.63 21.54 6.84 36.47 5.21 7.42 13.06 12.09 23.35 13.88 3.66.64 7.41.94 11.22.94 36.55 0 78.62-27.96 99.51-57.25.27-.35.66-.58 1.09-.65a1.676 1.676 0 0 1 1.91 1.37c.08.43-.01.87-.26 1.24-12.14 17.02-30.64 33.05-50.76 43.99-17.71 9.62-35.6 14.66-51.56 14.66Z"/><path fill="#30313C" d="M1759.91 1666H-113.907c-3.365 0-6.093-2.69-6.093-6s2.728-6 6.093-6H1759.91c3.36 0 6.09 2.69 6.09 6s-2.73 6-6.09 6Z"/></g><defs><clipPath id="a"><path fill="#fff" d="M0 0h2000v2000H0z"/></clipPath></defs></svg>