<svg xmlns="http://www.w3.org/2000/svg" width="2600" height="2600" fill="none"><g clip-path="url(#a)"><path fill="#A9E9FF" d="M508.405 2547.22c133.377 0 241.5-19.03 241.5-42.5 0-23.48-108.123-42.5-241.5-42.5s-241.5 19.02-241.5 42.5c0 23.47 108.123 42.5 241.5 42.5Z"/><path fill="#A9E9FF" d="M1470.91 2600.22c453.42 0 820.99-39.63 820.99-88.5 0-48.88-367.57-88.5-820.99-88.5-453.43 0-821.005 39.62-821.005 88.5 0 48.87 367.575 88.5 821.005 88.5Z"/><path fill="#81CBEB" d="M2253.49 723.925c31.32 3.641 65.47.56 89.95-22.055 28.66-26.475 36.15-78.365 16.46-113.964-24.21-43.755-69.84-48.154-107.37-68.679-59.67-32.629-90.99-86.766-138.09-135.275-61.1-62.921-157.21-21.222-125.16 80.284 41.66 131.914 137.77 244.983 264.21 259.689Z"/><path fill="#81CBEB" d="M2573.44 2099.99c-26.1-63.42-69.68-118.88-122.55-159.47-127.58-97.95-364.87-256.53-239.93-455.25 88.49-140.75 255.69-163.23 294.72-347.47 21.25-100.33-1.3-218.761-74.55-279.095-83.57-68.843-196.16-50.841-290.73-86.641-67.64-25.604-131.93-70.726-171.02-138.846-70.34-122.598-46.71-282.668-110.53-408.064C1791.53 92.872 1652.21 12.353 1521.83 1.7c-161.13-13.164-319.85 62.633-450.37 171.494-78.12 65.151-115.234 147.479-137.196 252.955-21.382 102.705-27.195 231.588-99.519 307.972-28.872 30.491-66.464 47.586-103.655 62.122-149.775 58.531-299.168 53.454-418.626 192.478-62.28 72.469-106.239 171.859-105.367 275.049 1.277 150.93 124.285 234.44 167.284 365.65 60.251 183.88-109.54 317.76-191.544 454-57.231 95.09-97.538 223.25-49.801 324.96 35.562 75.78 279.676 66.25 371.27 66.3l608.184.33 1177.1.65 120.64.07c72.87 6.56 142.01-54.1 169.8-131.41 30.54-84.95 23.95-170.09-6.59-244.33Z"/><path fill="#14B24B" d="m1815.73 1295.64 9.46 2.2c8.76-46.43 30.35-133.54 78.19-209.03.01 0 .01 0 .02.04.07-.13.15-.26.23-.39 29.28 43.69 56.8 43.24 60.84 42.91-19.93-19.51-28.55-59.66-31.96-82.68.08-.1.18-.21.26-.31v-.04c29.61-35.51 66.7-65.413 113.1-82.729 7.36-2.759 14.66-5.292 21.92-7.743 11.48 28.337 31.29 44.382 37.25 48.742-6.09-8.736-2.61-40.467.24-59.94a.987.987 0 0 0 .24-.069c0-.082.03-.191.04-.259 36.67-10.135 73.91-17.342 111.45-21.57 7.38 29.948 23.15 43.85 26.02 46.172-4.62-12.687 4.11-33.622 12.35-49.143a.13.13 0 0 1 .07.007l.18-.369c76.12-4.458 129.74 4.514 143.01 7.061 2.13.396 3.26.662 3.26.662s-37.98 114.238-95.25 214.758c-9.42-3.58-38.13-35.05-47.8-50.45 0 0 5.95 44.46 22.4 80.78-18.82 28.51-39.8 56.77-62.92 83.24-14.87-19.45-23.6-34.58-41.89-69.17 0 0-11.6 59.56-14.02 121.1-35.66 28.45-88.97 66.7-131.94 79.63-4.18-33.21-7.14-81.9 6.37-107.5 0 0-36.02 28.72-50.69 117.16-41.11 16.16-113.75-27.42-147.17-51.79l-31.09-7.22 7.83-44.06Z"/><path fill="#148235" d="m2236.9 1026.22-381.52 290 2.01-11.29-11.49-2.66 391-276.05Z"/><path fill="#86D979" d="M2003.55 764.889c11.97-41.188 43.33-139.028-40.11-161.374-83.46-22.367-115.46 124.442-100.93 182.015 14.52 57.581-3.4 55.515-54.14 20.935-50.75-34.553-79.19 18.111-88.93 90.824-9.75 72.698 117.27 467.931 117.27 467.931l43.14-33.73s150.29-205.39 177.29-249.32c27.01-43.93-38.15-69.16-70.78-51.27-32.64 17.86-37.55-12.55-9.82-60.858 27.71-48.293 96.7-94.554 91.04-131.773-5.67-37.246-37.63-12.683-66.45 6.001-28.8 18.705-9.57-38.201 2.42-79.381Z"/><path fill="#14B24B" d="M1917.4 801.946c-2.08 15.701-5.06 38.15-8.62 65.092-5.42 39.673-12.14 89.105-19.24 141.082.24-.52.46-1.04.73-1.55a394.425 394.425 0 0 1 10.53-21.183 517.756 517.756 0 0 1 27.45-46.072c4.27-6.504 8.73-12.85 13.36-19.027 8.1-10.914 14.29-17.593 14.29-17.593s-3.13 9.001-9.04 21.622a414.358 414.358 0 0 1-10.55 21.186 514.35 514.35 0 0 1-13.17 23.452 505.427 505.427 0 0 1-14.24 22.64 374.55 374.55 0 0 1-13.38 19.005c-2.48 3.36-5.04 6.65-7.66 9.88-2 14.58-3.99 29.17-5.98 43.76l-7.02 53.52-6.43 51.87c-1.76 16.87-4.07 33.12-5.54 48.58-.46 4.89-.96 9.67-1.47 14.38 2.05-2.96 4.69-6.63 7.93-10.8 3.91-5.11 8.65-10.86 13.86-16.85a426.176 426.176 0 0 1 34.42-35.36c5.25-4.86 10.63-9.53 16.14-14 9.68-7.94 16.77-12.39 16.77-12.39s-4.62 7.6-12.52 17.74c-4.46 5.78-9.08 11.41-13.86 16.85-10.87 12.52-22.35 24.33-34.4 35.37-5.23 4.88-10.62 9.56-16.14 14.01-4.11 3.38-8.33 6.59-12.65 9.6-.96 8.33-1.76 16.68-2.4 25.05l-1.63 19.41a275.78 275.78 0 0 0-1.28 17.51c-.5 10.99-1.31 20.61-1.33 28.53.09 15.82-.01 24.96-.01 24.96s-.87-8.99-2.15-24.91c-.51-7.96-.38-17.63-.64-28.74-.41-11.16.34-23.62.7-37.28.25-13.68 1.47-28.41 2.45-44.03.91-15.62 2.55-32 4.07-48.96l.47-4.78c-3.99-6.72-7.84-13.55-11.54-20.48a733.086 733.086 0 0 1-14.73-28.75c-2.54-5.34-5.34-10.77-7.86-16.45-2.61-5.66-5.25-11.41-7.86-17.13l-7.52-17.36c-2.52-5.69-4.75-11.46-7.04-16.94a815.758 815.758 0 0 1-11.69-30.49c-6.57-18-10.08-30.519-10.08-30.519s6.82 10.613 15.73 27.259c5.1 9.47 10 19.06 14.72 28.77 2.55 5.34 5.32 10.77 7.87 16.43 2.6 5.68 5.24 11.41 7.87 17.16 2.53 5.82 5.05 11.6 7.53 17.33 2.54 5.7 4.74 11.45 7.02 16.95 4.12 10.05 8.03 20.21 11.71 30.48 2.25 6.15 4.38 12.36 6.4 18.61 1.37-13.86 2.89-27.93 4.52-42.29l6.68-53.74c4.99-35.9 10.15-71.762 15.66-105.261a3543.613 3543.613 0 0 1 15.95-91.345c4.9-26.683 9.64-48.756 12.73-64.266 3.21-15.462 5.26-24.272 5.26-24.272s-1.15 8.988-3.15 24.73Z"/><path fill="#81CBEB" d="M283.249 1687.76c28.264 91.94 20.169 206.53-39.246 251.51-56.581 42.83-147.945.36-149.085-81.38-.394-28.36 8.024-55.77 15.391-82.86 13.714-50.42 4.921-89.55 3.525-140.03-1.091-39.45 4.421-78.8 47.037-77.15 57.666 2.25 100.706 59.42 122.378 129.91ZM2236.7 1553.73c-25.81 89.16 34.88 183.9 127.02 214.79 40.84 13.69 87.42 9.32 122.45-18.29 24.87-19.61 42.91-52.04 46.53-86.48 4.29-40.78-17.95-75.06-10.71-116.75 4.04-23.19 13.92-44.75 16.99-68.13 10.71-81.67-74.02-78.94-120.91-68.18-47.49 10.89-94.8 29.68-132.07 65.01-25.52 24.17-41.43 50.84-49.3 78.03Z"/><path fill="#3A6DB5" d="M914.633 2437.43c-392.79-76.32-657.131-502.5-590.431-951.91 66.705-449.4 439.195-751.842 831.988-675.522 392.78 76.321 657.12 502.502 590.42 951.892-66.7 449.42-439.19 751.86-831.977 675.54Z"/><path fill="#538DD3" d="M974.76 904.67c12.343-36.054 26.21-72.654 41.14-109.192l.15.007a620.23 620.23 0 0 1 51.73.634c.65.028 1.3.082 1.94.11 5.15.3 10.3.634 15.44 1.043 1.2.102 2.4.225 3.59.327 4.65.403 9.29.825 13.94 1.323 1.91.212 3.83.464 5.75.696 3.97.464 7.94.927 11.92 1.459 3.01.423 6.02.907 9.02 1.364 2.94.43 5.88.832 8.81 1.33a651.038 651.038 0 0 1 32.54 6.219c1.6.355 3.17.73 4.76 1.084 3.22.723 6.45 1.453 9.66 2.237l5.61 1.398c2.9.716 5.79 1.459 8.68 2.216 1.98.532 3.94 1.071 5.91 1.616 2.79.778 5.55 1.548 8.32 2.346 2 .58 3.99 1.173 5.97 1.76 2.72.811 5.44 1.657 8.15 2.516a563.358 563.358 0 0 1 19.83 6.553c2.84.984 5.67 1.998 8.5 3.042 1.74.634 3.51 1.248 5.24 1.909 3.31 1.241 6.57 2.523 9.87 3.799 1.25.497 2.5.961 3.73 1.452 4.45 1.787 8.86 3.601 13.27 5.469 1.46.621 2.94 1.276 4.4 1.903 2.96 1.289 5.92 2.578 8.85 3.907 1.86.832 3.71 1.705 5.55 2.558 2.53 1.166 5.07 2.325 7.59 3.532 1.97.941 3.92 1.903 5.87 2.844 2.38 1.166 4.76 2.332 7.13 3.532 2.01 1.016 4 2.025 6 3.062 2.29 1.173 4.57 2.38 6.84 3.587 2.03 1.064 4.05 2.148 6.05 3.239 2.22 1.207 4.45 2.448 6.65 3.662 2.02 1.132 4.05 2.257 6.06 3.41 2.18 1.255 4.35 2.503 6.51 3.771 2.01 1.193 4.03 2.359 6.03 3.553 2.15 1.295 4.3 2.618 6.44 3.928 1.98 1.207 3.96 2.414 5.91 3.641 2.35 1.48 4.68 2.994 7.01 4.487 3.65 2.353 7.28 4.753 10.9 7.181 1.86 1.255 3.74 2.496 5.59 3.771 2.17 1.487 4.35 3.008 6.51 4.535 1.76 1.241 3.54 2.469 5.29 3.724 2.19 1.541 4.34 3.157 6.52 4.739a561.026 561.026 0 0 1 16.47 12.438 699.65 699.65 0 0 1 6.6 5.19c1.53 1.207 3.05 2.441 4.57 3.662 2.24 1.828 4.49 3.648 6.71 5.49 1.38 1.166 2.77 2.318 4.15 3.491 2.32 1.944 4.65 3.894 6.94 5.892 1.16.975 2.29 1.991 3.42 2.994 2.51 2.182 5.02 4.371 7.51 6.601l.87.805a743.97 743.97 0 0 1 27.72 26.274l1.67 1.66c2.57 2.58 5.1 5.17 7.63 7.77.81.85 1.63 1.67 2.44 2.52 2.44 2.53 4.86 5.1 7.27 7.68l2.56 2.75c2.42 2.6 4.8 5.22 7.17 7.84l2.39 2.66a814.1 814.1 0 0 1 7.22 8.21l1.98 2.3c2.5 2.9 5 5.84 7.48 8.8.36.43.72.86 1.08 1.31 17.42 20.9 33.85 42.82 49.24 65.65l.48.71c2.45 3.65 4.88 7.32 7.29 11.02l.58.9c2.43 3.73 4.81 7.49 7.18 11.25.12.19.22.39.34.56 5.83 9.38 11.49 18.9 16.97 28.55a867.994 867.994 0 0 1 18.96 34.92c.3.58.61 1.16.91 1.75 6.2 12.2 12.12 24.59 17.75 37.15a896.04 896.04 0 0 1 12.55 29.13c.36.86.73 1.71 1.08 2.57 4.38 10.84 8.56 21.79 12.53 32.84.64 1.77 1.24 3.55 1.87 5.32 3.6 10.2 7.03 20.48 10.29 30.84.32 1.04.67 2.08.99 3.1 3.55 11.5 6.87 23.08 9.98 34.74.35 1.33.67 2.67 1.02 3.99 2.81 10.74 5.42 21.56 7.85 32.45.2.87.44 1.71.63 2.57l-.11-.27a925.257 925.257 0 0 1 17.74 113.04c-7.99 4.64-116.37 64.44-182.95-56.59-69.17-125.73 10.33-230.5-149.32-302.5s-351.08 235.05-452.839 142.03c-79.639-72.8-56.666-236.22 3.969-413.34Zm-111.022 530.37c-1.63-99.61-89.142-413.38-249.286-118.8-42.509 78.22-169.969-62.4-143.331 73.69 22.973 117.27 92.651 148.24 132.438 112.47 39.823-35.77 84.737 36.27 144.919 80.81 60.205 44.54 117.259-25.76 115.26-148.17Zm709.792 743.22c-32.87-66.88-61.95-142.84-213.42-61.83-118.77 63.52-192.19 240.63-276.06 204.55-83.86-36.09-145.836-173.03-241.298-176.79-88.366-3.47-162.365 104.86-190.543 183.36 77.581 55.09 165.612 94.3 261.218 112.84 253.943 49.27 499.393-58.76 660.103-262.13Zm-971.129-58.19c-58.797-53.21-131.381-13.5-149.496-2.12 47.902 73.7 106.183 137.81 172.463 189.7-5.156-52.13 35.066-135.07-22.967-187.58Zm827.669-412.19c119.85-29.51 187.01 46.83 140.17-73.05-46.84-119.9-81.05-200.41-196.15-264.94-115.11-64.56-80.21 42.46-149.24 102.95-69.02 60.47-31.75 120.47-46.16 186.27-14.39 65.81-43.02 134.11-31.16 178.62 11.85 44.52 96.97 124.34 223.68 48.68 126.71-75.65 58.86-178.53 58.86-178.53Z"/><path fill="#fff" d="M543.588 1351.22H79.905l.197-10.23c.758-41.85 26.319-78.12 61.46-88.18 5.715-13.77 14.738-25.4 26.016-33.52 11.278-8.13 24.345-12.42 37.676-12.37 21.967 0 42.579 11.79 55.843 31.37 18.517-14.25 42.919-17.68 64.128-8.55 7.417-12.73 17.472-23.17 29.271-30.38 11.798-7.22 24.975-10.98 38.355-10.97 40.024 0 73.888 33.65 80.18 78.02 16.547 2.62 31.987 11 44.214 24.01 12.227 13.02 20.646 30.02 24.11 48.7l2.233 12.1ZM2001.9 509.127c-6.1-17.301-16.42-32.231-29.74-43.01-13.32-10.78-29.07-16.953-45.37-17.785l-10.43-.532-.71-11.921c-3-50.845-40.27-90.663-84.85-90.663-15.47-.011-30.66 4.801-43.92 13.919-13.26 9.118-24.09 22.196-31.33 37.827l-5.43 11.662-10.27-6.06c-25.86-15.285-58.31-10.393-79.85 11.833l-10.84 11.15-7.18-14.46c-6.19-12.468-15.16-22.841-25.99-30.068-10.83-7.227-23.14-11.05-35.68-11.08-29.16 0-55.01 20.049-65.85 51.098l-2.37 6.81-6.32 1.358c-35.28 7.636-62.36 40.2-68.07 79.922h564.2Z"/><path fill="#86D979" d="m1760.53 2451.56-1.62-1.4-3.01 4.57 5.2 4.49 3.01-4.59-.05-.03c638.63-160.12 782.84-679.38 782.84-679.38-674.39 140.02-777.58 626.88-786.37 676.34Z"/><path fill="#14B24B" d="M1799.9 2407.22c46.6-42.18 93.65-83.7 141.13-124.57 47.38-41 95.15-81.39 143-121.66 47.98-40.07 96.04-80.02 144.49-119.36 48.37-39.49 97.17-78.3 146.38-116.41a7419.438 7419.438 0 0 1-141.11 124.57c-47.38 41-95.15 81.39-143.01 121.65-47.98 40.06-96.04 80-144.5 119.33a7384.364 7384.364 0 0 1-146.38 116.45Z"/><path fill="#14B24B" d="m1687.8 2420.25-.91-1.84-3.99 2.57 2.94 5.91 3.99-2.59-.03-.04c587.4 131.43 874.1-243.28 874.1-243.28-611.02-163.11-852.94 201.53-876.1 239.27Z"/><path fill="#148235" d="M1734.9 2399.22a6054.421 6054.421 0 0 1 158.1-45.74c52.81-14.67 105.76-28.67 158.74-42.52 53.03-13.65 106.07-27.16 159.26-39.99 53.17-13 106.47-25.25 159.9-36.75a5992.793 5992.793 0 0 1-158.09 45.74c-52.81 14.67-105.76 28.66-158.74 42.52-53.02 13.63-106.07 27.14-159.25 39.97a6011.502 6011.502 0 0 1-159.92 36.77Z"/><path fill="#3C0458" d="M583.905 677.451v309.467s217.794 116.282 504.815 99.672c287.02-16.61 389.18-105.209 389.18-105.209V624.216l-893.995 53.235Z"/><path fill="#3C0458" d="M311.905 595.216v29.228l719.325 215.772 727.67-219.945v-24.118l-1446.995-.937Z"/><path fill="#59457B" d="M1031.23 381.216 311.905 595.712l719.325 214.504L1758.9 596.65l-727.67-215.434Z"/><path fill="#F7941D" d="m498.349 989.216-19.424-.451c.024-1.201 2.082-121.653 0-251.45-.465-29.446 6.978-53.076 22.149-70.256 23.675-26.818 58.025-28.129 64.495-28.129h.227l429.801-58.714 2.308 22.067-431.149 58.906-.716-.035c-.256-.013-31.737-.58-51.393 21.808-11.176 12.73-16.662 30.873-16.287 53.937 2.07 130.24 0 251.109-.011 252.317Z"/><path fill="#F7941D" d="M454.908 1003.23c-.057 4.71.717 9.38 2.275 13.74 1.558 4.36 3.87 8.33 6.801 11.68 2.931 3.35 6.424 6.01 10.274 7.82 3.851 1.81 7.983 2.75 12.156 2.75 4.173-.01 8.305-.94 12.154-2.76 3.85-1.81 7.341-4.47 10.271-7.82 2.929-3.35 5.239-7.33 6.795-11.69a39.476 39.476 0 0 0 2.268-13.74c-.117-9.325-3.488-18.227-9.384-24.777-5.896-6.549-13.843-10.22-22.122-10.217-8.279.003-16.224 3.678-22.117 10.232-5.892 6.553-9.259 15.458-9.371 24.782Z"/><path fill="#F7941D" d="M486.404 1023.22c104.628 19.42 0 185 0 185s-104.622-165.58 0-185Z"/><path fill="#3C0458" d="M976.905 591.719c0 17.957 22.83 32.497 50.995 32.497 28.17 0 51-14.547 51-32.497 0-17.949-22.83-32.503-51-32.503-28.165 0-50.995 14.547-50.995 32.503Z"/><path fill="#007270" d="M1999.9 1172.22v1322l161-.02V1172.22h-161Zm64.87 59.36c0-2.33.41-4.64 1.19-6.8s1.93-4.12 3.39-5.77c1.45-1.65 3.17-2.96 5.06-3.86 1.9-.89 3.93-1.35 5.99-1.35 2.05 0 4.08.45 5.98 1.35 1.9.89 3.62 2.2 5.07 3.85 1.45 1.65 2.61 3.6 3.39 5.76.79 2.16 1.19 4.47 1.2 6.8 0 4.72-1.65 9.24-4.58 12.57-2.93 3.34-6.9 5.21-11.05 5.22-4.14 0-8.12-1.87-11.05-5.2-2.93-3.33-4.58-7.85-4.59-12.57Z"/><path fill="#fff" d="M2107.91 1324.22h52.99v6.21h-52.99v-6.21Zm0 1055.78h52.99v6.22h-52.99V2380Zm26.49-101.31h26.5v6.21h-26.5v-6.21Zm0 24.85h26.5v6.21h-26.5v-6.21Zm0 24.83h26.49v6.21h-26.49v-6.21Zm0 24.85h26.5v6.21h-26.5v-6.21Zm-26.49-105.74h52.99v6.21h-52.99v-6.21Zm26.49-101.3h26.5v6.21h-26.5v-6.21Zm0 24.83h26.5v6.22h-26.5v-6.22Zm0 24.85h26.49v6.21h-26.49v-6.21Zm0 24.85h26.5v6.21h-26.5v-6.21Zm-26.49-105.76h52.99v6.21h-52.99v-6.21Zm26.49-101.31h26.5v6.21h-26.5v-6.21Zm0 24.84h26.5v6.21h-26.5v-6.21Zm0 24.85h26.49v6.21h-26.49v-6.21Zm0 24.84h26.5v6.2h-26.5v-6.2Zm-26.49-105.75h52.99v6.21h-52.99v-6.21Zm26.49-101.31h26.5v6.21h-26.5v-6.21Zm0 24.84h26.5v6.21h-26.5v-6.21Zm0 24.85h26.49v6.21h-26.49v-6.21Zm0 24.84h26.5v6.21h-26.5v-6.21Zm-26.49-105.75h52.98v6.21h-52.98v-6.21Zm26.49-101.3h26.49v6.21h-26.49v-6.21Zm0 24.83h26.49v6.21h-26.49v-6.21Zm0 24.84h26.49v6.22h-26.49v-6.22Zm0 24.86h26.49v6.21h-26.49v-6.21Zm-26.5-105.76h52.99v6.21h-52.99v-6.21Zm26.5-101.3h26.49v6.21h-26.49v-6.21Zm0 24.83h26.49v6.21h-26.49v-6.21Zm0 24.84h26.49v6.21h-26.49v-6.21Zm0 24.86h26.49v6.21h-26.49v-6.21Zm-26.5-105.75h52.99v6.21h-52.99v-6.21Zm26.5-101.31h26.49v6.21h-26.49v-6.21Zm0 24.84h26.49v6.21h-26.49v-6.21Zm0 24.85h26.49v6.2h-26.49v-6.2Zm0 24.84h26.49v6.21h-26.49v-6.21Zm-26.49-105.75h52.99v6.22h-52.99v-6.22ZM2134.4 1351h26.5v6.21h-26.5V1351Zm0 24.84h26.5v6.21h-26.5v-6.21Zm0 24.84h26.49v6.21h-26.49v-6.21Zm0 24.86h26.5v6.21h-26.5v-6.21Z"/><path fill="#C877B1" d="M2007.9 2101.86c0 31.67-24.33 57.36-54.36 57.36h-663.27c-30.02 0-54.37-25.69-54.37-57.36v-950.28c0-31.68 24.35-57.36 54.37-57.36h663.27c30.03 0 54.36 25.68 54.36 57.36v950.28Z"/><path fill="#fff" d="M1970.9 2063.29c0 28.68-24.33 51.93-54.36 51.93h-663.27c-30.02 0-54.37-23.25-54.37-51.93v-860.16c0-28.67 24.34-51.91 54.37-51.91h663.27c30.03 0 54.36 23.25 54.36 51.91v860.16Z"/><path fill="#E6E7E8" d="M1917.9 1151.22h-496.71c-29.98 0-54.29 23.25-54.29 51.91v860.16c0 28.68 24.31 51.93 54.29 51.93h496.71v-964Z"/><path fill="#C8A7CF" d="M1827.54 1007.22h-663.27c-14.42 0-28.24 6.54-38.44 18.17-10.2 11.64-15.92 27.42-15.93 43.87v1027.91c.01 16.45 5.73 32.24 15.93 43.87 10.2 11.64 24.02 18.17 38.44 18.18h663.27c14.42-.01 28.24-6.54 38.44-18.18 10.19-11.63 15.92-27.42 15.92-43.87V1069.26c0-16.45-5.73-32.23-15.92-43.87-10.2-11.63-24.02-18.17-38.44-18.17Z"/><path fill="#C877B1" d="M1164.16 1007.22c-14.39 0-28.19 6.54-38.36 18.17-10.18 11.64-15.89 27.42-15.9 43.87v1027.91c.01 16.45 5.72 32.24 15.9 43.87 10.17 11.64 23.97 18.17 38.36 18.18h115.74v-1152h-115.74Z"/><path fill="#fff" d="M1732.6 1237.22h-358.39c-14.4 0-28.22 6.57-38.4 18.27-10.18 11.69-15.91 27.56-15.91 44.1v85.26c0 8.19 1.41 16.3 4.14 23.87 2.73 7.56 6.73 14.44 11.77 20.23 5.04 5.79 11.03 10.39 17.62 13.52 6.59 3.13 13.65 4.75 20.78 4.75h358.39c7.13 0 14.19-1.62 20.78-4.75 6.59-3.13 12.58-7.73 17.62-13.52 5.04-5.79 9.04-12.67 11.77-20.23 2.73-7.57 4.13-15.68 4.13-23.87v-85.26c0-16.54-5.72-32.41-15.9-44.1-10.19-11.7-24-18.27-38.4-18.27Z"/><path fill="#C8A7CF" d="M1109.9 1217.22v879.94c.01 16.46 5.73 32.24 15.93 43.88s24.02 18.17 38.44 18.18h663.27c14.42-.01 28.24-6.54 38.44-18.18 10.19-11.64 15.92-27.42 15.92-43.88v-150.58c-487.04-26.01-700.11-509.75-772-729.36Z" opacity=".5"/><path fill="#14B24B" d="M510.899 2028.57h-9.658c-.519-47.46-6.535-137.7-40.313-222.54-.012 0-.012 0-.03.03a8.026 8.026 0 0 0-.161-.42c-36.308 36.13-63.203 29.43-67.107 28.19 22.938-14.59 38.362-51.95 45.715-73.73-.06-.12-.143-.24-.209-.36l.006-.04c-22.854-41.51-54.017-79.25-96.503-106.77-6.66-4.31-13.376-8.5-20.145-12.57-16.181 25.14-38.397 36.35-44.999 39.26 7.491-7.17 9.598-39.05 10.195-58.76a.714.714 0 0 1-.221-.13c.005-.08.007-.17.006-.26-34.189-18.27-69.448-33.81-105.522-46.49-12.439 27.67-30.321 37.68-33.533 39.31 6.733-11.38 1.815-33.87-3.563-50.94-.024-.02-.054-.02-.078-.02-.04-.13-.078-.26-.113-.4-73.858-21.69-127.989-25.1-141.442-25.62-2.161-.09-3.32-.09-3.32-.09s17.376 120.55 56.048 232.03c9.86-1.36 43.477-25.64 55.641-38.53 0 0-13.573 42.2-36.01 74.03 13.49 32.2 29.152 64.66 47.219 95.85 17.96-15.67 29.146-28.5 53.099-58.23 0 0 1.014 60.98-7.306 121.81 30.011 35.99 75.624 85.59 115.508 108.03 9.872-31.58 21.243-78.6 12.451-106.74 0 0 30.309 36.32 29.324 126.29 37.496 25.18 116.296-.98 153.291-17.24h31.736l-.006-44.95Z"/><path fill="#148235" d="m144.905 1669.22 323.289 371v-11.52h11.711l-335-359.48Z"/><path fill="#86D979" d="M320.433 1412.22s-103.03 337.54 176.824 709.24h-.036v3.76h4.265v-3.76h-1.334c12.414-29.92 125.815-331.98-179.719-709.24Z"/><path fill="#14B24B" d="M498.058 2118.48c-.772-3.73-2.452-9.08-4.27-15.97-3.839-13.72-9.269-33.35-15.805-56.87-3.205-11.78-6.758-24.51-10.298-38.07-3.558-13.53-7.457-27.76-11.146-42.61-3.684-14.81-7.858-30.03-11.566-45.64-3.803-15.58-7.684-31.43-11.589-47.28-3.695-15.8-7.394-31.61-11.099-47.41-3.725-15.61-6.99-31.1-10.381-46.03-3.397-14.96-6.375-29.45-9.281-43.21a2029.832 2029.832 0 0 1-7.947-38.83c-9.676-48.15-14.771-80.67-14.771-80.66 0 0 10.495 30.79 23.98 77.75 3.396 11.73 7.098 24.42 10.716 37.94 3.701 13.5 7.72 27.71 11.487 42.53 3.81 14.77 7.99 30.01 11.775 45.61 3.863 15.61 7.762 31.43 11.685 47.27 3.678 15.9 7.391 31.8 11.033 47.47 3.708 15.65 6.907 31.16 10.214 46.13 3.133 14.4 6.134 28.84 9 43.32 2.822 13.77 5.328 26.83 7.481 38.96 4.509 24.17 7.81 44.47 9.729 58.79 1.047 7.1 1.705 12.73 1.932 16.64.119 1.42.209 2.51.275 3.42h-.389c-.203-.88-.442-1.91-.765-3.25Zm298.192-445.19c20.506-30.77 71.689-102.88 7.015-149.18-64.686-46.33-128.797 66.83-131.106 120.13-2.326 53.3-16.905 45.66-50.931-.18-34.038-45.82-71.33-10.81-97.929 47.25-26.605 58.05-19.506 432.91-19.506 432.91l44.891-14.22s178.617-123.59 212.488-151.72c33.876-28.12-14.663-70.83-46.686-66.5-32.029 4.31-28.471-22.94 7.11-54.52 35.575-31.57 105.421-47.84 110.062-81.06 4.646-33.25-28.507-23.08-57.522-16.82-29.003 6.29 1.597-35.33 22.114-66.09Z"/><path fill="#148235" d="M713.043 1675.97c-5.686 12.5-13.827 30.36-23.577 51.81l-51.568 112.13c.333-.35.643-.71.995-1.06 4.575-4.95 9.288-9.73 14.13-14.34a425.452 425.452 0 0 1 16.908-15.39 389.738 389.738 0 0 1 17.605-14.32 286.133 286.133 0 0 1 15.948-11.61c9.511-6.51 16.359-10.1 16.359-10.1s-4.887 6.53-12.998 15.2c-4.58 4.95-9.295 9.73-14.136 14.34a392.65 392.65 0 0 1-16.896 15.38 397.126 397.126 0 0 1-17.593 14.35 301.868 301.868 0 0 1-24.828 17.38c-5.31 11.51-10.656 23.13-16.008 34.78-6.439 14.21-12.883 28.42-19.333 42.62l-18.415 41.44c-5.721 13.59-11.74 26.48-16.854 38.96a878.154 878.154 0 0 1-4.845 11.6c2.461-1.82 5.59-4.03 9.345-6.47 5.178-3.4 10.449-6.61 15.805-9.62a334.27 334.27 0 0 1 37.629-18.45 265.914 265.914 0 0 1 16.997-6.49c10.078-3.5 17.116-4.93 17.116-4.93s-5.763 4.88-14.905 10.8c-4.547 3.02-9.965 6.32-15.817 9.63-5.858 3.32-12.182 6.71-18.582 9.84a335.408 335.408 0 0 1-19.035 8.62 235.9 235.9 0 0 1-17.003 6.49 161.543 161.543 0 0 1-12.974 3.92 568.717 568.717 0 0 0-8.314 20.24c-2.169 5.49-4.255 10.73-6.246 15.75-2.08 4.96-3.909 9.73-5.477 14.29-3.182 9.05-6.281 16.87-8.29 23.52-3.897 13.3-6.281 20.94-6.281 20.94s1.532-7.83 4.47-21.61c1.579-6.85 4.118-14.91 6.698-24.33 2.468-9.5 6.228-19.72 9.965-31.06 3.647-11.41 8.379-23.37 13.123-36.16 4.696-12.81 10.179-26.02 15.722-39.77l1.597-3.86a497.931 497.931 0 0 1-4.482-20.95c-1.89-9.6-3.579-19.25-5.066-28.94-.774-5.32-1.746-10.77-2.419-16.37-.751-5.6-1.508-11.29-2.253-16.95-.65-5.72-1.281-11.42-1.913-17.03-.673-5.59-1.079-11.16-1.609-16.51a743.319 743.319 0 0 1-2.08-29.41c-.954-17.25-.727-28.9-.727-28.9s3.015 11.13 6.269 28.02c1.657 8.42 3.391 18.31 5.042 28.94.793 5.32 1.735 10.78 2.438 16.36.739 5.61 1.502 11.29 2.247 16.97l1.925 17.01c.685 5.61 1.072 11.15 1.597 16.51.91 9.78 1.61 19.59 2.098 29.41.393 6.98.572 12.99.661 17.71 4.726-11.39 9.533-22.73 14.422-34.02 6.294-14.16 12.706-28.54 19.101-42.92 13.195-28.51 26.527-56.93 39.566-83.24a2932.68 2932.68 0 0 1 36.306-71.47c10.805-20.8 20.317-37.77 26.801-49.78 6.573-11.93 10.501-18.65 10.501-18.65l-8.862 19.75Z"/><path fill="#4F3743" d="M610.905 2484.22c0 3.55-.614 7.06-1.806 10.33-1.192 3.28-2.939 6.25-5.142 8.76-2.203 2.51-4.817 4.5-7.695 5.85a21.204 21.204 0 0 1-9.077 2.06H414.249c-6.225-.12-12.162-3.01-16.529-8.06-4.367-5.05-6.815-11.86-6.815-18.94 0-7.09 2.448-13.9 6.815-18.95 4.367-5.05 10.304-7.94 16.529-8.05h172.936c6.291 0 12.324 2.84 16.772 7.9 4.449 5.07 6.948 11.94 6.948 19.1Z"/><path fill="#654957" d="M584.377 2089.22h-82.416c-.353 0-.694.06-1.053.06s-.7-.06-1.059-.06h-82.41c-46.686 0-84.534 46.54-84.534 103.98v178.04c0 57.42 37.848 103.98 84.534 103.98h82.41c.359 0 .7-.06 1.059-.07.359.01.7.07 1.053.07h82.416c46.686 0 84.528-46.56 84.528-103.98V2193.2c0-57.44-37.842-103.98-84.528-103.98Z"/><path fill="#4F3743" d="M733.905 2118.72c0 5.84-1.009 11.63-2.97 17.03-1.96 5.4-4.834 10.3-8.457 14.43-3.623 4.14-7.923 7.41-12.657 9.65-4.733 2.24-9.806 3.39-14.929 3.39H306.911c-10.345 0-20.266-4.69-27.581-13.04-7.316-8.34-11.425-19.66-11.425-31.46 0-11.81 4.109-23.13 11.425-31.47 7.315-8.35 17.236-13.03 27.581-13.03h387.981c5.123-.01 10.196 1.15 14.929 3.38 4.734 2.24 9.034 5.51 12.657 9.65 3.623 4.13 6.497 9.04 8.457 14.43 1.961 5.4 2.97 11.19 2.97 17.04Z"/><path fill="#654957" d="M501.238 2475.15c.358.01.698.07 1.051.07h82.254c46.594 0 84.362-46.55 84.362-103.96v-171.04c-27.454 84.36-107.88 224.41-335 179.44 3.482 53.47 39.732 95.56 84.022 95.56h82.248c.364 0 .704-.06 1.063-.07Z" opacity=".5"/><path fill="#F6921E" d="M2050.61 1962.9c4.32 0 8.46-1.97 11.52-5.46 3.06-3.49 4.77-8.23 4.77-13.17v-12.43c0-4.94-1.71-9.67-4.77-13.17-3.06-3.49-7.2-5.45-11.52-5.45H675.129c-10.615 0-19.224 7.6-19.224 16.99v202.01c0 9.39 8.609 17 19.224 17H2050.61c4.32 0 8.46-1.97 11.52-5.46 3.06-3.49 4.77-8.23 4.77-13.17v-12.43c0-4.94-1.71-9.68-4.77-13.17-3.06-3.49-7.2-5.46-11.52-5.46h-775.25V1962.9h775.25Z"/><path fill="#3A58A8" d="M721.905 1913.22h43v236h-43v-236Z"/><path fill="#BE1E2D" d="M2144.61 2223.31c9 0 16.29-12.44 16.29-27.79v-18.51c0-15.35-7.29-27.79-16.29-27.79H769.129c-10.621 0-19.224 11.34-19.224 25.34v301.31c0 14 8.603 25.35 19.224 25.35h581.011l.07-.02h794.4c9 0 16.29-12.43 16.29-27.77v-18.53c0-15.34-7.29-27.79-16.29-27.79h-775.24v-203.78h775.24v-.02Z"/><path fill="#F6921E" d="M815.905 2149.22h44v352h-44v-352Z"/><path fill="#A31425" d="M2144.61 2149.22H1191.1s-10.86 3.28-14.09 11.63c-2.31 5.95-3.07 12.8-3.07 12.8v319.02s-.42 3.78 1.62 6.51c2.04 2.71 5.36 1.93 5.36 1.93h169.38l.07-.01h794.23c9.01 0 16.3-12.43 16.3-27.77v-18.52c0-15.34-7.29-27.78-16.3-27.78h-775.07V2223.3h775.08c9 0 16.29-12.44 16.29-27.79v-18.5c0-15.34-7.29-27.79-16.29-27.79Z"/><path fill="#fff" d="M2047.81 2211.22h-711.26c-37.36 0-67.65 51.26-67.65 114.5s30.29 114.5 67.65 114.5h784.35v-229h-73.09Z"/><path fill="#E6E7E8" d="M1360.9 2378.6h746.7v15.62h-746.7v-15.62Zm8.31-123.38h746.69v15.61h-746.69v-15.61Zm80.53 65.41h366.49v13.06h-366.49v-13.06Z"/><path fill="#F6921E" d="m1929.65 2395.22-37.35-54.42-40.07 54.42v-140.08h77.42v140.08Zm120.96-295.13H1275.5v-99.93l-.01-37.26h775.11c2.14 0 4.26-.48 6.23-1.42 1.98-.93 3.78-2.3 5.29-4.03 1.51-1.73 2.71-3.79 3.53-6.05a20.93 20.93 0 0 0 1.24-7.13v-12.42c0-2.45-.42-4.87-1.24-7.13-.82-2.26-2.02-4.31-3.53-6.04-1.51-1.73-3.31-3.1-5.29-4.04a14.44 14.44 0 0 0-6.23-1.42h-960.94l-.03.04c-.13-.01-.25-.04-.38-.04-5.17 0-9.35 4.77-9.35 10.67v138.96h.01v76.26c0 5.89 4.18 10.68 9.34 10.68.13 0 .25-.05.39-.05l.03.04h960.94c2.14 0 4.26-.48 6.24-1.42 1.97-.94 3.77-2.31 5.28-4.04 1.52-1.73 2.72-3.78 3.53-6.04a20.93 20.93 0 0 0 1.24-7.13v-12.42c.01-2.44-.41-4.87-1.23-7.13-.82-2.26-2.02-4.32-3.53-6.05-1.52-1.73-3.31-3.1-5.29-4.04s-4.1-1.42-6.24-1.42Z"/><path fill="#fff" d="M1945.9 1955.22h-710.43c-37.31 0-67.57 34.02-67.57 76s30.26 76 67.57 76h783.43v-152h-73Z"/><path fill="#E6E7E8" d="M1246.9 1998.22h746v15.52h-746v-15.52Zm80.45 65.02h366.15v12.98h-366.15v-12.98Z"/><path fill="#652D90" d="m1834.9 2078.22-37.15-36.52-39.85 36.52v-94h77v94Z"/><path fill="#fff" d="M1351.56 293.514c-4-21.574-14.29-40.954-29.19-54.959 3.93-7.232 6.03-15.569 6.05-24.082 0-12.302-4.27-24.099-11.88-32.797-7.61-8.699-17.93-13.587-28.68-13.589-8.17-.008-16.15 2.82-22.88 8.11-15.56-24.853-40.98-41.016-69.38-41.016-18.27.009-36.04 6.729-50.71 19.169-5.5-28.669-27.8-50.134-54.53-50.134-30.09 0-54.56 27.23-55.74 61.309-11.01-7.106-23.42-10.862-36.063-10.91-14.001-.043-27.724 4.467-39.569 13.003-11.844 8.536-21.322 20.748-27.327 35.209-36.907 10.59-63.761 48.669-64.559 92.636l-.197 10.753H1353.9l-2.34-12.702Z"/><path fill="#F05B82" d="M847.484 1854.22s2.179 15.92-30.498 22.05c-32.678 6.12-64.269 7.35-68.081 29.4v16.55s113.286-4.29 118.736-4.29c4.358-11.03 4.358-34.92 13.073-49.01 8.71-14.09-33.23-14.7-33.23-14.7Z"/><path fill="#97DAF8" d="m879.55 1714.63 6.267-17.97 5.435-16.29c2.346-6.6 5.106-13.95 9.284-22.24 4.369-8.21 9.565-17.97 21.584-28.5a57.58 57.58 0 0 1 10.63-7.34c3.813-2.27 8.739-4.09 13.617-5.4 4.837-1.32 10.188-1.65 15.263-1.67 4.483.14 8.769.8 12.69 1.77 15.784 4.17 24.852 11.34 30.98 15.44 12.15 8.55 23.12 18.13 32.89 27.64 19.53 19.11 35.14 37.64 49.42 51.04 12.71 11.96 25.88 19.98 41.89 27.57 6.87 3.19 24.55 8.19 43.61 12.79 33.84 8.17 56.48 44.56 52.3 83.61-4.24 39.52-37.08 71.39-72.55 66.67-55.33-7.37-111.16-53.69-145.92-101.38-16.298-22.37-28.269-42.77-39.857-58.86-2.22-3.12-4.399-5.93-6.584-8.71l-12.007 22.41c-22.925 40.86-44.137 84.42-65.853 127.47l-49.734-24.98c15.018-47.56 29.317-95.25 46.645-143.07Z"/><path fill="#97DAF8" d="M1173.46 1751.47c-19.07-4.61-36.74-9.61-43.61-12.8-12.44-5.9-23.16-12.08-33.29-20.15-2.24 14.6-9.5 33.84-31.69 41.81-37.87 13.6-48.39 11.21-69.428-12.73-21.041-23.94-29.456-54.16-39.976-47.43-10.521 6.74-44.561 127.04-44.561 127.04l.018.02c12.376-24.48 24.884-48.71 37.966-72.03l12.005-22.41c2.178 2.78 4.362 5.59 6.583 8.71 11.586 16.09 23.549 36.49 39.853 58.86 34.75 47.71 90.57 94.02 145.89 101.39 15.95 2.13 31.35-3.2 43.87-13.25 6.77-27.59 11.92-59.91 11.92-71.52 0-10.51 1.71-26.29.4-41.62-9.42-12.15-22.02-20.53-35.95-23.89Z" opacity=".5"/><path fill="#F05B82" d="M860.743 2116.22s2.163 16.16-30.269 22.38c-32.432 6.21-63.786 7.46-67.569 29.83v16.79s112.434-4.35 117.843-4.35c4.325-11.19 4.325-35.44 12.975-49.73 8.645-14.3-32.98-14.92-32.98-14.92Z"/><path fill="#97DAF8" d="m865.099 2046.46 6.115-38.21c1.115-6.6 1.83-12.23 3.279-19.63 1.341-7.38 3.099-14.72 4.958-22.07 7.85-29.26 20.503-58.19 38.831-83.7 31.648-44.06 77.809-70.08 126.208-80.41 51.36-10.97 102.49-8.86 148.58-40.33 1.71-1.19 3.66-1.85 5.66-1.89 2-.05 3.97.51 5.72 1.63 21.22 13.65 87.24 63.87 111.43 82.36 5.34 4.08 6.58 12.38 2.96 18.46-28.25 47.34-80.36 56.79-93.31 60.41-30.2 8.52-59.3 9.51-84.07 8.55-49.83-2.54-88.27-9.3-117.99-1.28-29.685 7.1-56.715 30.95-74.202 68.04-2.086 4.64-4.202 9.32-6.025 14.24-1.919 4.82-4.059 11.58-6.08 17.28l-12.289 35.72-24.622 71.59-47.347-14.49 12.194-76.27Z"/><path fill="#97DAF8" d="M942.319 2011.44c1.828-4.89 3.943-9.56 6.04-14.17 17.53-36.92 44.626-60.65 74.381-67.72 29.8-7.99 68.33-1.25 118.29 1.27 24.83.96 53.99-.03 84.27-8.5 12.98-3.61 65.22-13.02 93.53-60.13 3.64-6.05 2.39-14.32-2.96-18.37-24.25-18.41-90.43-68.38-111.71-81.98-1.75-1.11-3.73-1.67-5.73-1.62-2 .04-3.96.69-5.67 1.87-18.34 12.44-37.48 19.57-57.11 24.38 13.77 18.52 42.23 50.86 67.33 67.11 35.71 23.12-19.96 48.25-56.72 41.07s-129.56-4.86-159.304 27.49c-29.748 32.34-59.598 90.28-63.051 142.08l12.32-35.56c2.025-5.69 4.17-12.42 6.094-17.22Z" opacity=".5"/><path fill="#F49782" d="M969.432 1482.79c1.673 13.27 18.817 33.02 20.203 24.73 1.38-8.3 1.726-25.35 7.085-24.17 5.35 1.17 3.088 19.74 4.84 27.64 1.76 7.9 11.44 18.28 11.44 18.28a1004.65 1004.65 0 0 0 77.8 46.61c26.03 13.83 53.53 26.71 77.51 32.18l8.15 1.18c2.55.26 4.02-.4 5.96-.3 1.26.19 1.13-.41 1.06-.69-.03-.28-.12-.33-.12-.33.64-.6 2.2-1.8 3.48-2.7 6.31-5.07 14.9-14.42 22.75-25.1 7.43-10.04 14.86-21.62 21.84-33.7 12.59-21.84 38.17-28.08 57.29-13.7l9.54 7.18c21.69 16.3 25.09 51.25 6.86 72.36l-.36.41c-11.69 13.34-24.03 26.24-37.94 38.5-14.07 12.11-29.15 24.11-50.05 32.98-5.61 2.03-11.04 3.94-17.54 5.17-1.8.34-3.68.47-5.49.56-5.04.24-12.15.77-15.87-.36-5.4-1.18-11.41-2.26-16.08-3.99l-13.38-5.49c-32.42-16.3-57.31-36.63-82.23-57.57-24.34-20.98-47.88-43.14-70.577-66.4-28.883-11.9-43.788-26.77-44.666-50.87-.89-24.12 16.822-35.67 18.495-22.41Z"/><path fill="#FFE76B" d="M1042.9 1579.03s-33.86-113.66-36.07-111.98c-2.21 1.68-59.625 19.76-59.625 19.76l28.713-49.54-8.588-3.05-35.425 61.88 37.39 113.12 73.605-30.19Z"/><path fill="#fff" d="m976.776 1438.22 14.129 35.4-43 13.6 28.871-49Z"/><path fill="#652D90" d="M1313.4 1527.31c-31.13-18.41-70.02-9.24-99.32 8.37-17.16 10.31-32.91 27.06-37.01 49.43-4.44 24.22 12.92 47.38 2.78 71.09-11.03 25.76-43.31 65.04-66.95 74.97 19.18 31.12 39.82 59.1 67.31 81.31 18.94 15.3 39.73 27.49 61.48 36.72 9.04 3.84 83.53 31.34 87.51 22.14 12.65-28.77 8.89-61.97 7.62-92.86-1.88-45.89 7.48-88.29 13.95-133.07 6.23-43.11.25-95.85-37.37-118.1Z"/><path fill="#FCB19A" d="M1248.91 1521.99c15.37-8.92 13.61-14.36 13.61-14.36l-1.81-20.41h24.64s6.02 39.46 4.22 50.35c-1.81 10.88-50.08 30.61-65.69 24.49-15.6-6.13 9.06-31.16 25.03-40.07Z"/><path fill="#F49782" d="M1285.65 1487.22h-24.75l1.82 20.1s.36 1.16-.76 3.26c7.27 2.48 16.38 3.7 26.94 1.46-1.35-12.62-3.25-24.82-3.25-24.82Z"/><path fill="#FCB19A" d="M1309.25 1425.44c4.2 29.36-12.41 68.11-35.73 76.08-38.14 13.02-47.56-23.99-42.25-50.04 3.35-16.49 6.95-34.87 17.14-47.79 19.58-24.81 56.29-10.05 60.84 21.75Z"/><path fill="#BE1E2D" d="M1316.9 1395.42s1.83-65.16 52.04-59.9c50.21 5.25 81.25 72.95 52.95 112.66-28.3 39.71-25.07 83.85 10.75 102.76 35.81 18.91 54.97 75.23 14.81 100.14-40.16 24.91-117.65 17.68-126.02-81.23.05-27.32 3.02-93.09 31.2-121.67 28.18-28.6-8.01-54.89-17.7-42.23-9.69 12.66-18.03-10.53-18.03-10.53Z"/><path fill="#652D90" d="M1316.32 1831.94c-53.09-17.19-66.54-74.93-46.88-98.27 19.67-23.34 22.37-25.8 46.88-91.45-81.28 81.35-143.97 74.92-172.44 65.15-10.42 10.84-21.4 19.74-30.98 23.77 19.15 31.13 39.74 59.11 67.18 81.33 18.89 15.3 39.65 27.49 61.35 36.72 9.02 3.84 83.36 31.36 87.34 22.15 4.56-10.39 6.96-21.37 8.13-32.6-6.04-2.05-12.81-4.28-20.58-6.8Z" opacity=".5"/><path fill="#FCB19A" d="M954.094 1525c1.979 13.95 20.352 34.43 21.674 25.65 1.321-8.78 1.405-26.77 7.067-25.65 5.656 1.13 3.576 20.76 5.549 29.05 1.979 8.3 12.336 19.04 12.336 19.04 26.97 17.16 54.55 33.01 82.68 47.51 27.64 14.04 56.8 27.03 82.14 32.3l8.6 1.06c2.69.23 4.23-.5 6.27-.44 1.34.17 1.19-.46 1.1-.76-.03-.29-.12-.34-.12-.34.66-.64 2.28-1.94 3.62-2.91 35.9-26.25 49.11-106.91 103.77-80.54 21.27 10.26 37.47 39.82 30.47 66.3-6.45 24.45-32.29 45.8-49.28 60.99-14.61 13.07-30.3 26.05-52.16 35.86-5.87 2.26-11.56 4.39-18.39 5.82-1.91.37-3.84.61-5.77.71-5.31.36-12.78 1.08-16.72-.03-5.71-1.14-12.06-2.15-16.99-3.87l-14.17-5.5c-34.41-16.51-60.95-37.41-87.53-58.97a1175.73 1175.73 0 0 1-75.405-68.55c-30.613-11.94-46.541-27.29-47.862-52.7-1.322-25.42 17.142-37.98 19.121-24.03Z"/><path fill="#BE1E2D" d="M1438.78 1554.39c11.88 17.7 1.31 65.33-38.27 60.42-39.59-4.92-47.39-67.74-47.95-105.79-.56-38.05 26.35-65.04 27.56-88.56 1.2-23.52-27.6-38.05-42.92-33.9-5.41-4.27-11.79-11.19-15.95-16.34-2.29 7.36-3.75 15.03-4.35 22.83 2.29 4.14 4.17 8.22 5.74 12.22 3.26 3.9 7.57 6.07 12.2 0 9.7-12.69 45.92 13.67 17.72 42.34-28.2 28.67-31.18 94.61-31.22 122 8.38 99.16 85.91 106.42 126.1 81.44 37.81-23.51 23.06-74.87-8.66-96.66Z" opacity=".5"/><path fill="#FFE76B" d="M1310.84 1406.86c4.64 9.42 13.13 13.86 18.97 9.91 5.83-3.94 6.8-14.78 2.16-24.2s-13.13-13.86-18.97-9.91c-5.83 3.94-6.8 14.79-2.16 24.2Z"/><path fill="#BE1E2D" d="M1235.9 1403.55s.13 28.08 40.09 33.01c9.45 1.65 1.46 18.09-2.9 27.13-4.36 9.05 8.64 3.63 14.6-10.37 3.2-5.7 11 7.34 4.58 14.82-6.42 7.47-16.32 14.12-14.21 21.99 2.11 7.88 9.05 6.74 16.66 4.15 7.63-2.59 29.75-30.59 26.94-71.55-2.81-40.95-55.97-63.76-85.76-19.18Z"/><path fill="#BE1E2D" d="M1303.16 1434.52c-3.02-14.45-7.27-6.25-33.23-9.7-17.52-2.32-26.86-16.56-31.1-25.6-1 1.29-1.97 2.65-2.93 4.09 0 0 .12 28.15 39.95 33.09 9.41 1.65 1.44 18.14-2.9 27.21s8.61 3.63 14.55-10.4c3.19-5.72 10.95 7.35 4.56 14.85s-16.26 14.17-14.16 22.06c2.11 7.89 9.02 6.75 16.61 4.16 5.22-1.79 17.29-15.64 23.39-37.49-9.28 1.42-12.02-9.31-14.74-22.27Z" opacity=".5"/><path fill="#FCB19A" d="M1290.24 1645.46c-28.65 60.29-115.17 71.86-156.38 58.64-41.21-13.21-150.955-102.18-150.955-102.18 24.275 24.03 49.425 46.87 75.385 68.45 26.58 21.53 53.12 42.42 87.51 58.9l14.17 5.49c4.94 1.72 11.29 2.73 16.99 3.86 3.94 1.11 11.42.39 16.71.03 1.92-.13 3.89-.31 5.78-.71 6.82-1.43 12.52-3.56 18.39-5.81 21.85-9.8 37.53-22.75 52.15-35.82 16.97-15.16 42.82-36.48 49.27-60.9 4.75-17.98-1.23-37.39-12.24-51.19-.34 14.42-4.17 34.7-16.78 61.24Z" opacity=".5"/><path fill="#fff" d="m868.902 1912.22-119.997 4.13v5.59s112.987-4.35 118.423-4.35c.592-1.55 1.101-3.39 1.574-5.37Zm14.003 262.98-120.063 4.14v5.88s112.987-4.35 118.423-4.35c.628-1.62 1.155-3.56 1.64-5.67Z"/><path fill="#9B8579" d="M2143.25 2520.39c-2.43-5.73-6.4-12.9-12.04-16.3-10.19-6.15-34.03 5.38-53.74 0s-17.81-38.6-17.81-38.6l-33.79 5.54 5.8 69.56c.13 1.59.54 3.15 1.21 4.56.67 1.42 1.59 2.66 2.69 3.67 1.1 1.01 2.37 1.76 3.74 2.2 1.36.45 2.79.58 4.2.39 30.26-4.02 77.56-16.07 95.46-20.79.94-.25 1.81-.73 2.56-1.42.75-.68 1.35-1.55 1.76-2.53.41-.98.62-2.06.61-3.15 0-1.08-.22-2.16-.65-3.13Zm-321.26 47.36c.64-6.31.65-14.77-2.52-21.05-5.73-11.35-31.33-15.96-45.47-32.4-14.15-16.43 3.1-43.4 3.1-43.4l-31.2-15.68-27.85 62.35c-.64 1.43-1.02 3-1.12 4.6-.1 1.6.09 3.21.55 4.72.45 1.52 1.18 2.92 2.12 4.12.95 1.2 2.09 2.17 3.37 2.86 27.51 14.84 73.21 33.15 90.58 39.95.91.35 1.88.47 2.83.35.96-.13 1.87-.5 2.69-1.08.81-.59 1.49-1.37 2-2.29.5-.93.82-1.97.92-3.05Z"/><path fill="#9B8579" d="M2047.56 2533.98c-6.1-5.87-8.23-54.52-8.54-57.63 0 0-7.75 1.32-13.16 2.81l5.09 61.16c.14 1.6.55 3.15 1.22 4.56.66 1.41 1.58 2.66 2.68 3.66 1.1 1.01 2.37 1.76 3.73 2.2 1.36.44 2.78.57 4.19.38 28.59-3.79 72.4-14.78 92.13-19.93-18.47 4.12-81.24 8.65-87.34 2.79Zm-316.54-10.65c-2.57-8.58 17.69-51.56 18.84-54.41 0 0-4.19-1.95-8.53-3.7l-23.28 52.14c-.64 1.43-1.02 2.99-1.12 4.59-.1 1.59.09 3.2.54 4.71.46 1.52 1.18 2.92 2.13 4.11.94 1.2 2.08 2.17 3.36 2.85 21.18 11.44 53.14 24.91 74.61 33.6-22.93-11.52-64.35-36.53-66.55-43.89Z" opacity=".5"/><path fill="#FCB19A" d="M2176.2 1978.31c-3.85-6.33-21.79-25.83-30.76-25.16-8.97.68-21.79 0-21.79 0-27.45-12.25-54.97-25.97-80.69-41.23-12.73-7.7-25.26-15.97-35.55-24.79-4.31-3.5-8.19-7.65-11.53-12.34-1.48-2.78-2.82-4.79-4.48-8.08-1.65-3.32-3.3-6.32-4.95-9.83-13.29-28.02-25.56-59.24-37.41-90.1-5.36-14.06-7.1-29.49-21.13-33.77a41.215 41.215 0 0 0-34.14 4.65c-4.36 2.78-8.29 6.36-11.98 10.19-3.85 3.98-7.53 8.35-9.88 13.64-7.2 16.23 6.72 31.38 14.1 44.25 16.94 29.29 33.75 58.17 53.75 87.25 2.49 3.63 5.41 7.44 8.1 11.11 2.7 3.68 6.48 8 9.76 11.83 7.34 7.41 15.51 13.67 24.3 18.62 15.42 8.93 30.28 15 45.19 20.65 29.83 10.89 59.31 19.18 89.49 26.3 0 0 5.87 9.15 14.71 18.97 8.84 9.82 22.41 1.61 16.51 0-5.89-1.61-14.74-16.56-10.61-18.97 4.13-2.41 27.03 10.47 31.3 15.34 4.27 4.88 12.39 3.9 12.39 2.44 0-1.45-.86-14.63-4.7-20.97Z"/><path fill="#FCB19A" d="M2072.9 1970.22c-68.84-25.98-98.01-65.97-107.16-90.66-5.91-15.96-.37-43.23 4.3-60.56-7.16-17.41-14.09-34.94-20.79-52.59-1.8-4.74-3.21-9.62-4.8-14.19-14.93 6.24-29.73 14.11-29.73 14.11s-5.68 39.06-3.18 82.12a927.376 927.376 0 0 0 28.45 44.47c2.48 3.65 5.4 7.46 8.08 11.14 2.69 3.69 6.46 8.01 9.73 11.86 7.33 7.42 15.48 13.69 24.25 18.66 15.39 8.96 30.21 15.04 45.09 20.7 15.3 5.6 30.51 10.51 45.76 14.94Z" opacity=".5"/><path fill="#FBD167" d="M1964.9 1777.81s-31.63 48.18-71.66 55.41c-14.21-19.27-44.23-78.83-46.26-95.56-2.03-16.73 39.03-65.84 76.73-40.14 15.97 19.39 41.19 80.29 41.19 80.29Z"/><path fill="#004789" d="m2040.34 2214.64-.21-2.04-2.86-8.85-86.55-266.98c-1.29-3.98-3.28-7.6-5.85-10.65-2.57-3.05-5.67-5.46-9.09-7.08s-7.1-2.41-10.8-2.33c-3.71.08-7.35 1.04-10.72 2.82l-11.38 6c-1.24-.4-2.45-.88-3.76-1.09l-67.8-10.91c-13.42-2.15-26.41 6.88-31.18 21.93-6.18 19.53-13.61 48.08-15.75 77.68-3.18 43.94 6.84 153.45 10.47 190.59l-1.07 21.63-63.89 248.76 43.33 20.1 98.55-242.79.75-1.86 1.67-9.22 22.91-126.85 63.59 130.6 59.85 248.83 47.35-10.64-27.56-267.65Z"/><path fill="#004789" d="m1999.26 2252.93-18.61-14.18-31.42-50.33-26.96-43.19c-9.55-15.3-14.75-33.44-21.37-50.72-4.36-11.42-8.75-22.92-11.1-35.09-3.68-19.04-1.93-39.32 4.55-57.33 1.23-3.43 20.71-39.55 20.99-39.11-.12-.19-17.21-26.54-24.02-22.58 0 0-73.75 24.13-104.33 51.64-1.17 7.43-2.03 14.92-2.59 22.45-3.18 43.9 6.84 153.34 10.46 190.44l-1.05 21.62-20.71 80.57 34.08-61.27 71.58-29.59 18.34-101.49 63.58 130.5 52.98 220.17-31.46-189.45 17.06-23.06Z" opacity=".5"/><path fill="#FFE76B" d="m1848.64 1682.6.58-.37c19.34-11.91 50.7-14.84 69.09.34 27.22 22.47 47.91 54.92 41.38 81.13-6.54 26.21-32.67 51.17-19.6 98.6 13.06 47.43 20.81 82.38 20.81 82.38s-16.46 18.73-104.66 26.21c-46.82 3.74-65.34-26.21-65.34-26.21s30.5-114.83 35.94-168.51c1.88-18.47 3.39-37.05 6.16-55.39 2.07-13.79 4.14-30.59 15.64-38.18Z"/><path fill="#FCB19A" d="M1872.81 1629.28s-5.26 43.12-9.91 55.98c4.04 13.03 51.5 28.97 71.42 24.04 3.66-7.61-10.06-28.54-35.71-36.38-4.75-8.73.29-37.3.29-37.3s-10.14-7.12-26.09-6.34Z"/><path fill="#FCB19A" d="M1849.2 1563.25s-11.88 52.46 36.23 76.31c11.7 5.8 28.89 12.58 40.38 2.45 15.43-13.59 9.75-46.43 5.19-64.99-5.57-22.62-19.03-40.55-39.48-45.57-35.65-8.74-42.32 31.8-42.32 31.8Z"/><path fill="#FFE76B" d="M1879.69 1833.63c19.01-11.67 40.21-56.27 40.21-56.27-10.02-18.93-62.13-23.8-91.07-19.89-.65 6.56-1.28 13.12-1.95 19.67-5.45 53.45-35.98 167.8-35.98 167.8s12.66 20.26 43.38 25.28c-.47-1.98-13.39-56.21-7.68-74.55 5.81-18.69 34.08-50.37 53.09-62.04Z" opacity=".5"/><path fill="#F7941D" d="M1909.28 1680.04c-6.18-2.69-13.71-2.58-22.88 1.52-13.66 6.13-29.32 18.09-39.6 29.65-17.48 19.65-30.07 41.96-43.68 65.14-11.95 20.36-20.7 44.31-30.24 66.32-14.7 33.92-32.49 62.94-52.53 93.04-31.03 46.61-39.75 90.98 17.45 122.05 57.21 31.07 107.61 29.96 108.58 4.44 1.1-29.2 17.57-55.17 28.34-80.63 12.1-28.61 22.72-58 31.81-88.03 12.56-41.47 27.69-80.76 29.25-125.39.92-26.12-2.81-77.77-26.5-88.11Zm-46.42 254.57c-73.68-5.55-79.5-54.89-79.5-54.89 13.57-58.22 64.96-142.59 85.66-164.67 35.24-32.07 48.45-19.13 52.01 18.75 2.91 63.24-37.81 176.41-58.17 200.81Z"/><path fill="#F7941D" d="M1799.9 1908.7c-14.34-14.49-16.18-29.66-16.18-29.66 1.32-5.57 3.07-11.43 5.04-17.4-9.18-6.9-20.06-7.79-28.88 12.59-15.35 35.49-26.68 138.78-27.98 180.39 1.75 1.03 3.55 2.06 5.43 3.06 17.54 9.38 34.42 15.79 49.52 19.54.02-8.85-7.64-30.23-6.84-72.35.61-32.5 11.85-71.92 19.89-96.17Z" opacity=".5"/><path fill="#FCB19A" d="M1920.21 1706.42c-14.73-21.15-42.23-23.1-59.12-4.19a2942.018 2942.018 0 0 0-33.72 38.35c-21.5 25.08-42.68 49.93-63.36 78.39-2.59 3.54-5.23 7.6-7.81 11.37-2.58 3.79-5.48 8.92-8.07 13.4-4.8 9.75-8.44 20.19-10.83 31.05-4.41 19.11-6.49 36.97-8.19 54.82-3.06 35.61-3.97 70.27-3.74 105.47 0 0-.24 5.63-.03 15.29 0 0-4.57 13.28-10.64 19.51-4.06 4.38-6.49 7.17-6.49 7.17s6.49 1.39 12.56-3.25c4.67-3.56 8.13-9.37 12.47-1.69-2.64 5.61-5.27 11.26-7.9 16.89 0 0-3.59 3.48-9.66.39-6.08-3.09-12.78 6.7-12.78 6.7s20.76 11.88 22.44 11.09c1.67-.79 23.23-18.21 25.76-29.29 2.54-11.09 0-40.89 0-40.89 4.72-33.23 10.7-66.86 18.36-98.79 3.91-15.84 8.36-31.58 13.76-44.92 2.09-5.56 4.82-10.76 8.13-15.47 2.07-2.24 3.5-4.16 5.97-6.71 2.49-2.54 4.71-5.01 7.38-7.6 21.18-20.74 45.31-41 69.23-60.73 12.46-10.21 25.1-20.39 37.79-30.43 4.49-3.55 8.3-8.12 11.18-13.43 2.88-5.31 4.78-11.24 5.58-17.42.8-6.18.47-12.49-.95-18.52-1.42-6.04-3.91-11.67-7.32-16.56Z"/><path fill="#FCB19A" d="M1850.17 1715.22c-7.58 8.54-15.17 17.05-22.71 25.75-6.69 7.77-13.34 15.58-19.96 23.42 2.46 4.87 5.3 10.22 8.26 15.31 8.81 15.13 7.81 35.15-2.6 48.9-10.35 13.67-21.19 26.57-22.56 29.08-2.42 4.42-20.35 5.85-17.6 10.33 2.76 4.5 6.14 10.33-.28 30.63-6.43 20.3-16.82 106.58-16.82 106.58l.07-.09c3.79-22.51 8.16-44.89 13.36-66.49 3.93-15.84 8.39-31.58 13.8-44.93 2.1-5.56 4.85-10.76 8.18-15.47 2.07-2.24 3.51-4.16 5.98-6.71 2.51-2.54 4.73-5.02 7.41-7.6 21.26-20.74 45.48-41.01 69.48-60.74 7.49-6.13 15.13-12.17 22.72-18.24l-46.73-69.73Z" opacity=".5"/><path fill="#FFE76B" d="M1819.9 1736.68s26.07 64.81 66.25 74.54c0 0 52.74-45.23 53.74-72.91.99-27.68-39.68-80.86-80.78-42.87-16.53 16.27-39.21 41.24-39.21 41.24Z"/><path fill="#004789" d="M1934.9 1555.43s-15.22 20.6-36.27 19.35c-6.25-1.25-6.25 13.73-3.51 26.84 2.74 13.1-10.41 1.87-15.34-10.61-4.93-12.49-21.35 6.1-10.4 16.47 10.95 10.36 16.05 19.5 15.14 31.47-.91 11.97 11.69 27.69 33.6 30.45 0 0-25.64 42.26-81.28 29.37-55.64-12.89-20.48-144.59 0-175.18 20.49-30.58 81.45-24.96 98.06 31.84Z"/><path fill="#004789" d="M1898.78 1575.5c19.69 1.17 34.3-16.63 36.12-18.97l-.59-2.46c-.09-.29-.21-.56-.31-.85-.98.47-28.33 13.66-45.44 8.99-17.42-4.75-24.55-14.99-33.6.99-9.05 16-6.04 54.05-28.87 62.88-7.32 2.83-13.52 2.43-18.61.69-2.69 34.86 3.61 66.08 29.4 72.01 55.73 12.82 81.41-29.2 81.41-29.2-21.94-2.74-34.56-18.37-33.65-30.27.91-11.9-4.2-20.99-15.17-31.29-10.98-10.31 5.48-28.8 10.42-16.38 4.94 12.41 18.11 23.58 15.36 10.55-2.75-13.03-2.75-27.93 3.53-26.69Z" opacity=".5"/><path fill="#654957" d="M2402.65 2513.31c-8.8-54.03-52.8-95.09-105.75-95.09s-96.95 41.06-105.74 95.09c-.4 2.42-.33 4.92.21 7.31.53 2.39 1.52 4.61 2.89 6.51 1.37 1.9 3.08 3.43 5.02 4.48 1.94 1.06 4.06 1.6 6.21 1.61h182.84c2.14-.01 4.26-.56 6.2-1.61 1.94-1.05 3.66-2.58 5.02-4.48 1.37-1.9 2.36-4.12 2.89-6.51.54-2.39.61-4.89.21-7.31Z"/><path fill="#FCCFBF" d="M869.651 2513.31c-8.839-54.03-53.049-95.09-106.246-95.09-53.203 0-97.407 41.06-106.246 95.09-.399 2.42-.327 4.92.211 7.31.539 2.39 1.53 4.61 2.905 6.51 1.374 1.9 3.098 3.43 5.047 4.48a13.14 13.14 0 0 0 6.234 1.61H855.26c2.155-.01 4.282-.56 6.231-1.61 1.949-1.05 3.672-2.58 5.046-4.48 1.374-1.9 2.365-4.12 2.903-6.51.538-2.39.61-4.89.211-7.31Z"/><path fill="#E26F61" d="M937.741 2520.41c-5.688-34.77-34.117-61.19-68.336-61.19s-62.648 26.42-68.337 61.19c-.257 1.56-.21 3.16.136 4.7a11.4 11.4 0 0 0 1.868 4.19c.883 1.22 1.991 2.21 3.245 2.88a8.511 8.511 0 0 0 4.008 1.04h118.153c5.91 0 10.347-6.17 9.263-12.81Z"/><path fill="#9E8D95" d="M2465.39 2509.13c-8.57-20.01-27.51-33.91-49.49-33.91-21.97 0-40.91 13.9-49.48 33.91-4.76 11.1 2.27 24.09 13.06 24.09h72.85c10.79 0 17.82-12.99 13.06-24.09Z"/></g><defs><clipPath id="a"><path fill="#fff" d="M0 0h2600v2600H0z"/></clipPath></defs></svg>