<svg xmlns="http://www.w3.org/2000/svg" width="2549" height="2284" fill="none"><path fill="#99DEF9" d="M0 1255.14v22.24c0 67 41.198 121.8 91.547 121.8h77.833c-48.508 7.66-86.469 62.88-86.469 129.38v5.11c0 71.7 44.094 130.37 97.986 130.37H84.021c-38.14 0-69.348 41.53-69.348 92.28 0 50.74 31.207 92.27 69.348 92.27h136.201c-32.997 18.46-56.334 61.95-56.334 112.36v22.24c0 66.99 41.198 121.81 91.547 121.81h410.724c-26.022 13.32-44.638 46.91-44.638 86.07 0 50.75 31.207 92.27 69.347 92.27H2222.12c38.14 0 69.34-41.52 69.34-92.27 0-50.75-31.2-92.27-69.34-92.27h-170.07c36.47-16.08 62.99-61.89 62.99-115.61v-22.24c0-50.41-23.33-93.9-56.33-112.36h2.37c38.14 0 69.36-41.53 69.36-92.27 0-50.75-31.22-92.28-69.36-92.28h111.33c53.89 0 97.98-58.67 97.98-130.37v-5.11c0-12.54-1.42-24.66-3.94-36.17h213.1c38.13 0 69.34-41.53 69.34-92.28 0-50.76-31.21-92.28-69.34-92.28h-170.06c36.45-16.06 62.97-61.89 62.97-115.61v-22.24c0-50.41-23.33-93.9-56.33-112.34h2.38c38.15 0 69.35-41.53 69.35-92.291 0-50.745-31.2-92.264-69.35-92.264h111.32c53.89 0 97.98-58.665 97.98-130.37v-5.107c0-71.705-44.09-130.37-97.98-130.37H2128.1c45.18-7.36 80.47-58.825 80.47-120.823v-22.24c0-42.252-16.4-79.624-41.13-101.477h311.39c38.16 0 69.36-41.532 69.36-92.278 0-50.759-31.2-92.278-69.36-92.278h-135.18c25.79-13.479 44.21-46.919 44.21-85.878 0-50.745-31.2-92.264-69.35-92.264H279.689c-38.143 0-99.548 18.706-99.548 69.465 0 50.745 31.204 92.264 69.349 92.264h135.192c-25.796 13.48-44.217 46.919-44.217 85.878 0 29.039 10.24 55.012 26.125 71.959H257.012c-50.345 0-91.543 54.811-91.543 121.81v22.239c0 66.985 41.198 121.797 91.543 121.797h77.832c-48.504 7.653-86.466 62.865-86.466 129.384v5.106c0 26.173 5.929 50.572 16.015 71.065H84.021c-38.14 0-69.348 41.519-69.348 92.264 0 50.746 31.207 92.278 69.348 92.278h100.796c2.346 8.066 5.516 15.586 9.385 22.399-11.873 16.562-19.206 38.902-19.206 63.482 0 29.02 10.245 55 26.124 71.94H91.547C41.197 1133.33 0 1188.14 0 1255.14Z"/><path fill="#44A6BF" d="m2003.96 2190.55-352.94-178.83-396.17-63.38-416.6-146.89-345.586-1.89L773.729 713.142l309.381 157.183 475.78-45.372 325.82 252.757 400.43 26.01-281.18 1086.83Z"/><path fill="#fff" d="m842.935 1780.93 4.133 1.97 412.842 145.11 396.46 63.39 334.11 169.28 270.62-1046.04-381.56-16.55L1554 845.353l-475.55 45.478-288.854-157.022-270.44 1045.361 323.779 1.76Zm-376.762 39.02L757.861 692.476l329.919 157.356 476-45.265 326.1 252.763 419.3 35.47-291.73 1127.61-371.76-188.37-395.91-63.37-416.22-146.7-367.387-2.02Z"/><path fill="#70CDF4" d="m2003.96 2190.55-352.94-178.83-396.17-63.38-416.6-146.89-345.586-1.89L773.729 713.142l309.381 157.183 475.78-45.372 325.82 252.757 400.43 26.01-281.18 1086.83Z"/><path fill="#70CDF4" d="m1083.11 870.325-3.48-.013-240.947 931.348 416.167 146.68 7.86.36L1551.8 821.62l-468.69 48.705Z"/><path fill="#31BAF0" d="M875.21 919.524c35.026 63.279 115.626 103.496 187.81 88.866 63.74-12.921 113.52-65.946 180.07-69.64 33.26-1.853 58.95 16.133 85.33 33.893 13.26 8.946 28.8 19.999 45.42 20.613 21.2.773 39.56-11.24 54.15-25.786 37.08-36.946 45.33-84.811 44.61-134.277l-389.48 37.133-225.891-114.758c-11.698 55.279-9.197 114.851 17.981 163.956Zm791.41 123.066c2.31 29.46 15.39 55.94 35.91 77.12 27.22 28.08 66.29 57.74 104.89 66.86 35.13 8.29 70.89-1.28 106.37-1.39 38.91-.12 66.28 18.16 97.16 39.92 32.29 22.75 64.81 40.72 102.07 16.54 28.76-18.67 49.07-47.88 65.03-77.68 11.35-21.17 20.85-43.07 29.49-65.28l-322.83-20.97-193.74-150.293c-15.01 37.533-27.36 76.683-24.35 115.173Zm272.24 531.66c-5.72 21.84-4.64 38.72 5.92 58.88 6.81 13 16.21 26.36 19.58 40.86 5.83 25.05-10.86 42.35-34.33 48.21-26.43 6.6-56.32 1.64-81.79 11.02-17.12 6.31-40.82 17.74-41.19 39.26-.27 15.13 6.5 29.13 14.96 41.36 19.85 28.74 46.61 49.99 72.71 72.61 29.15 25.21 53.42 55.85 69.99 90.74 28.8 60.61 38.12 127.24 44.38 193.52l198.73-768.14c-50.24 9.92-100.29 24.31-146.17 46.86-52.5 25.83-107.15 65.12-122.79 124.82Zm-520.51 284.73c23-29.12 53.25-68.72 45.16-108.54-11.58-56.86-70.53-76.19-122-73.41-46.57 2.5-108.46 22.46-151.24-4.64-22.77-14.44-35.27-39-41.02-64.79-3.99-17.84-5.8-36.01-7.76-54.17-1.41-13.2-2.13-28.32-8.32-40.39-15.63-30.52-64.03-35.22-93.97-28.82-36.8 7.85-70.432 36.84-81.615 73.45-10.729 35.14 8.08 59.86 19.915 91.37 11.443 30.45 15.525 67.56-5.239 94.89-20.825 27.43-57.333 34.96-86.599 49.51-9.14 4.53-17.806 9.74-25.873 15.61l395.061 139.29 83.57 13.37c20.65-37.77 53.78-69.62 79.93-102.73Zm-636.038-278.35c22.686-19.79 40.061-45.41 44.487-75.71 4.828-33.08-1.385-73.17-23.687-99.18-18.934-22.08-44.598-37.49-62.705-60.28-18.444-23.21-28.227-53.13-21.461-82.76 9.081-39.77 38.656-69.16 51.775-106.97 13.405-38.62-2.592-74.8-32.553-100.44-13.863-11.86-29.108-21.65-45.189-30.02l-157.322 608.12c40.022 7.81 82.296 7.08 122.193-.11 43.974-7.91 90.201-22.79 124.462-52.65Z"/><path fill="#9EE0F9" d="M1112.49 1162.48c-.21-.08-.42-.15-.63-.22-16.03-5.07-18.91-8.37-19.41-9.54-.15-.37-.18-2.13 1.35-5.6 2.92.28 6.63.39 11.06-.31 5.96-.93 10.34-2.72 13.7-4.69-3.98 6.39-5.6 13.51-6.07 20.36Zm62.25 326.64c-2.79-.77-6.51-1.82-8-2.84-.27-.45-.64-1.18-.93-1.74-1.74-3.34-4.35-8.38-9.64-12.31-3.88-2.92-8.09-4.23-10.92-4.96-1.29-.33-2.65-.63-4.01-.91a27.55 27.55 0 0 0-1.07-6.64c-.24-.81-.37-1.37-.45-1.72.81-9.22-4.8-14.16-8.2-17.14-.75-.67-1.71-1.51-2.94-2.63-3.88-3.49-7.64-5.2-10.44-6.17-.15-5.32-.63-13.75-7.25-20.64-3.88-4.05-9.11-6.88-15.99-8.67-7.47-1.93-15.8-2.33-22.49-2.66-2.37-.12-4.51-.22-6.16-.39-1.72-.2-3.08-.47-4.27-.68-4.57-.85-10.25-1.92-19.16.79a22.65 22.65 0 0 0-5.64 2.57c-1.82-1.33-3.9-2.51-6.29-3.33 1.24-4.58 1.61-9.88-.42-15.52-1.89-5.26-4.52-8.98-7.26-11.6.13-.18.25-.35.36-.51 2.39-3.32 7.36-10.24 4.1-19.24-1.97-5.44-6.56-9.56-12.29-11.04-4.51-1.17-9.11-.71-16.368.69 3.258-2.36 6.848-4.32 9.868-4.98 5.5-1.22 11.48-1.47 15.03-.66.05.32.1.62.14.88.85 5.42 3.09 19.8 18.78 23.86 1.99.52 4.13.82 6.36.9a16.65 16.65 0 0 0 16.57-11.66c1.34-4.3 2.21-9.1 3.05-13.75.8-4.47 2.3-12.79 3.83-14.99l.12-.16c.75-.25 2.68-.5 3.98-.68 5.28-.7 13.25-1.77 20.51-8.02 6.04-5.22 8.02-11.79 9.12-16.19 1.79-.5 3.99-1.32 6.48-2.7 4.68-.66 10.24-2.36 16.37-9.18.75-.82 1.43-1.7 2.06-2.62 3.44 3.01 7.97 4.5 12.57 4.08 10.87-1.03 17.14-6.66 20.5-11.2.88-1.22 1.67-2.47 2.35-3.76 4.15 2.29 8.72 4.14 13.09 5.28 13.2 3.41 21.74-.24 26.56-3.9 3.7-2.8 9.92-9.32 10.18-21.61a16.64 16.64 0 0 0-7.18-14.05c-.17-.12-.33-.24-.49-.35 3.8-5.83 7.77-14.89 5.24-27.84-1.61-8.23-6.76-13.57-10.52-17.48-.69-.72-1.63-1.71-2.24-2.41.05-2.23.8-6.48 1.28-9.16.87-4.92 1.76-10 1.71-15a16.668 16.668 0 0 0-15.22-16.4c-3.61-.32-6.84.04-9.61.65-4.24-10.85-13.04-19.66-24.04-22.52-.89-.22-1.8-.41-2.69-.56 2.39-2.68 4.61-6.18 6.57-10.77 2.56-6 5.52-15.04 1.59-24.31-3.85-9.08-12.08-13.2-18.83-15.76-3.46-1.32-6.37-1.76-9.02-1.78-.67-6.02-2.67-18.27-18.47-25.08-6.69-2.84-14.47-1.1-19.23 4.41-3.46 4.01-5.79 8.6-7.39 13.28-.72-.39-1.43-.76-2.11-1.13-7.78-4.14-15.11-8.04-21.81-9.78-10.29-2.65-16.94.58-20.68 3.71-2.17-2.57-4.44-5.17-7.01-7.45-10.02-8.84-21.18-13-31.02-16.67-3.13-1.16-6.078-2.27-8.94-3.48-5.445-2.31-10.214-3.97-15.01-5.21-7.785-2.01-14.756-2.68-23.585-3.55l-.846-.08c-2.891-.28-4.596-.66-5.623-.93-1.22-.32-2.237-.65-3.207-.99-5.481-1.81-11.039-2.94-18-2.89-.375 0-.754.01-1.131.05l-4.538.34c-8.735-2.5-11.175-4.52-16.439-8.91-3.59-2.99-8.06-6.71-15.039-11.174-11.491-7.347-19.615-11.227-28.042-13.4-11.149-2.88-21.453-2.293-34.729-1.12-.749-.04-2.393-.267-3.625-.44-8.632-1.187-28.853-3.986-36.978 13.973-2.924 6.451-2.613 12.361-.962 17.401-4.482.67-7.86 2.48-10.226 4.29-11.174 8.55-10.454 18.99-9.623 23.08a22.584 22.584 0 0 0 2.256 6.23c-.447.4-.886.84-1.315 1.28-5.631 5.89-8.29 14.02-7.914 24.16.216 5.81 1.793 13.46 5.034 20.58-6.432 1.7-13.018 5.38-17.315 13.47a16.67 16.67 0 0 0-.182 15.29 16.622 16.622 0 0 0 12.352 9c10.053 1.58 22.021-1.66 37.827-6.4 4.081-1.22 7.937-2.37 10.325-2.89 9.058-1.96 16.217-5.28 22.397-9.23.845.9 1.808 1.74 2.901 2.51 2.591 1.81 5.371 3.12 8.26 3.87 10.374 2.69 18.278-2.24 23.029-5.98 1.774 4.27 4.505 9.64 9.714 14.59 3.368 3.2 7.536 5.4 12.74 6.75 1.196.3 2.417.57 3.629.81.54 2.15 1.361 5.31 3.131 9.19 1.313 2.85 2.893 5.5 4.421 8.08.944 1.57 2.333 3.92 3.173 5.66a16.662 16.662 0 0 0 3.724 21.44c-3.077 3.69-6.299 7.87-8.248 13.04-2.165 5.73-2.76 11.69-3.282 16.96-.33 3.32-.674 6.75-1.31 8.64-.533 1.59-1.028 2.96-1.47 4.2-3.119 8.71-4.906 14.69-2.456 27.44 1.118 5.8 2.41 10.92 3.658 15.88 2.155 8.56 4.02 15.97 4.324 24.53.856 24.16 5.904 42.75 15.008 55.24a16.71 16.71 0 0 0 8.28 6.03c1.185 5.54 3.185 11.29 6.779 16.57 7.046 10.33 17.312 14.47 24.806 17.47 3.21 1.29 6.526 2.62 8.174 3.93.285.47.765 1.44 1.128 2.17 1.605 3.26 4.033 8.16 9.006 12.2 4.573 3.72 9.75 5.31 13.53 6.46.159.05.334.1.512.16.012.56.012 1.13.012 1.61.015 6.59.039 21.52 17.915 30.56-5.266 3.32-11.231 7.94-15.012 15.92-6.644 14-6.263 36.74-3.911 47.72 2.624 12.25 7.543 35.2 22.013 47.8-.86 2.65-2.27 5.66-4.05 9.34-1.64 3.4-3.334 6.92-4.751 10.8-2.32 6.36-3.433 13.01-4.505 19.45-1.131 6.75-2.299 13.74-4.544 17.28-1.945 3.07-3.655 5.16-5.468 7.36-6.629 8.11-11.308 15.18-11.158 32.52.029 3.24.541 5.9 1.172 8.02-3.562 3.44-8.571 8.82-10.445 16.96-2.788 12.12 2.04 50.49 21.96 55.65l.01.01c7.813 2.01 17.859-.96 22.689-12.16 5.54-12.85 11.72-23.5 15.41-29.88 1.08-1.84 1.98-3.4 2.64-4.61 1.56-2.81 2.7-6.15 4.03-9.99.92-2.68 2.56-7.44 3.67-9.48 1.74-1.36 5.4-3.78 6.86-4.58 2.52-1.12 4.6-2 6.41-2.76 8.99-3.78 13.85-6.07 23.72-15.75.34-.23.73-.49 1.14-.77 2.24-1.51 4.51-3.04 6.54-4.82 11.61-5.16 20.76-14.61 28.94-23.05 5.68-5.87 11.54-11.92 15.82-13.81 3.69-1.66 6.05-2.11 8.54-2.62 12.59-2.49 18.75-7.74 26.37-22.48 1.68-3.22 3.04-6.33 4.37-9.34 3.72-8.44 5.7-12.29 9-13.83.82-.34 3.36-.93 5.04-1.33 8.2-1.92 20.62-4.83 26.32-16.75 3.72-7.76 3.22-16.68-1.5-26.5-5.95-12.38-17.98-15.75-25.95-17.98Zm159.9-311a16.712 16.712 0 0 0 16.43-5.98c4.81-6.09 8.11-14.17 9.05-22.05 5.47-3.02 11.48-7.73 13.99-15.94.16-.56.32-1.11.44-1.66 15.57-5.24 21.72-17.66 25.76-30.88.73-2.41 1.2-4.48 1.51-6.29 21.03-2.31 23.68-17.96 23.37-27.11a16.651 16.651 0 0 0-11.52-15.29c-4.79-1.55-10.25-2.03-14.87-2.37-2.89-.23-5.88-.46-7.8-.92-.24-.83-.52-2.07-.73-3.06-1.01-4.69-2.55-11.78-8.25-17.95-4.56-4.95-10.55-8.4-17.8-10.28-9.27-2.4-19.3-1.87-28.15-1.4-5.68.29-12.11.62-15.4-.15-4.39-1.03-9.01-.24-12.81 2.19a16.746 16.746 0 0 0-4.39 4.08c-.21-.08-.43-.15-.64-.22l-12.81-3.9c-2.13-.67-4.36-.87-6.55-.64-.46-.34-.97-.71-1.4-1.02-3.42-2.49-8.12-5.9-14.61-7.6-2.05-.52-4.16-.84-6.25-.94-7.23-.34-12.19 3.7-14.91 5.97-1.37-.19-3.64-.67-5.47-1.32-5.46-1.89-11.53-.85-16.02 2.8a16.508 16.508 0 0 0-5.02 6.85c-1.44.22-2.84.62-4.2 1.22a16.72 16.72 0 0 0-9.29 10.55c-6.6 22.44 1.31 31.6 12.32 41.24 3.84 3.35 7.29 5.38 9.79 6.76-.19.54-.47 1.26-.7 1.83-1.48 3.76-3.72 9.44-3 16.29.68 6.43 3.99 11.16 6.15 14.11-.36 1.48-1.28 3.17-3.24 6.56-1.53 2.67-3.29 5.71-4.97 9.45-4.3 9.6-10.87 40.36-1.66 59.51 3.99 8.28 10.71 14.01 18.92 16.14 5.83 1.51 12.19 1.18 18.9-.97 14.37-4.59 17.78-18.67 19.62-26.23.16-.68.36-1.48.56-2.26.44.09.95.21 1.54.36 1.54.4 3.09.88 4.64 1.34 3.14.98 6.23 1.9 9.19 2.47a16.695 16.695 0 0 0 17.42-7.57c.36-.59.65-.96.84-1.16.62-.02 2.12.1 5.28.92 1.76.45 3.54.98 5.36 1.52 3.7 1.09 7.52 2.2 11.38 3Zm584.39 532.56c-1.89-9.47-4.49-22.44-16.87-25.64-8.25-2.13-14.28 1.55-18.26 5.63-.47-3.03-1.56-6.11-3.66-9.11a16.565 16.565 0 0 0-6.84-5.65c-2.69-1.22-5.33-2.16-7.85-2.82-14.72-3.8-24.41 2.36-30.2 6.04-2.71 1.72-4.33 2.72-6.21 3.24-1.75-.5-4.19-1.53-6.18-2.36-2.41-1.01-4.5-1.89-6.66-2.45-3.19-.83-6.29-.85-9.23-.11-16.64 4.27-19.42 17.97-20.48 23.13-.13.67-.3 1.55-.45 2.07-.61.64-1.37.89-5.04 1.6-8.16 1.57-23.35 4.49-30.2 28-2.63 9.01-2.37 17.21-2.13 24.45.25 7.91.28 12.59-2.12 16.71-4.14 7.08-2.51 16.11 3.82 21.29 4.36 3.59 9.19 6.08 14.36 7.42 13.28 3.42 25.2-1.39 34.79-5.26 4.32-1.74 10.84-4.37 13.03-3.81.45.12 1.64.96 3.25 3.24.04.45.08.97.11 1.41.3 4.16.76 10.43 4.98 16.32 5.07 7.07 11.92 9.9 16 11.58.44.17.96.38 1.39.57 1.12 1.51 1.73 3 2.54 4.93 1.82 4.33 5.58 13.35 16.62 16.21 6.9 1.79 14.24.26 20.5-1.46 21.54-5.94 55.24-32.48 62.42-53.84 6.56-19.59-2.9-37-7.99-46.36-6.95-12.8-10.53-20.43-13.44-34.97Zm-538.09-360.71c3.09.8 10.32 2.68 17.74 0 .08.53.19 1.08.3 1.64-3.88.42-7.68 1.69-11.18 3.76l-.05.02c-1.68.07-3.84-.17-6.76-.93-2.77-.72-5.71-1.75-8.79-2.88.32-.43.62-.83.9-1.21.46-.63 1.04-1.4 1.6-2.11.9.23 2 .53 2.98.81 1.11.32 2.19.63 3.26.9Zm740.39-5.35c.77-9.08-1.43-25.25-24.97-31.33-2.08-.55-4.27-1.02-6.48-1.48-2.62-.55-5.31-1.06-7.72-1.92-6.27-2.22-8.07-4.31-12.41-9.36-2.51-2.92-5.63-6.55-9.96-10.44-5.28-4.75-10.6-7.77-16.27-9.23-7.79-2.02-14.45-.6-19.32.46-3.51.74-6.05 1.29-9.27.92-1.28-.18-1.57.01-5.46-5-2.66-3.42-5.95-7.66-10.91-11.84-5.83-4.91-11.21-7.9-16.95-9.38-7.09-1.82-13.04-.89-17.82-.12-3.03.48-5.64.9-9.03.8-1.5-.04-2.88-.22-4.21-.57-5.69-1.47-10.64-5.97-16.91-11.67-1.34-1.22-2.69-2.45-4.06-3.65-7.46-6.59-13.55-10.15-20.4-11.92-5.22-1.35-10.08-1.43-15.23-1.51-2.33-.04-4.97-.08-8.11-.25-3.86-.21-15.7-1.8-24.53-4.08-.47-.13-.89-.24-1.29-.36.05-5.49-2.64-10.75-7.32-13.92-5.82-3.96-12.31-6.81-19.83-8.76-8.2-2.12-16.22-2.8-23.98-3.45-5.91-.51-11.51-.98-16.59-2.06-5.71-5.8-11.72-8.01-16.59-9.26-1.61-.43-3.33-.79-5.24-1.19-1.74-.37-3.69-.76-5.88-1.33-1.09-.31-3.88-2.36-5.73-3.72-4.24-3.12-9.52-7-16.36-8.76-6.31-1.64-12.84-1.12-18.89 1.5-3.7 1.59-9.04.66-14.71-.34-8.51-1.5-20.14-3.55-29.94 4.46-3.08 2.51-5.31 5.52-6.91 8.71-3.04-1.23-5.17-2.41-6.33-3.23-1.43-4.65-4.86-8.5-9.46-10.44-1.77-.76-3.54-1.36-5.25-1.8-9.19-2.38-15.88.07-19.89 2.54-9.08 5.6-11.72 15.44-13.3 22.54-1.4-.3-3.1-.72-5.16-1.25l-7.64-2.01c-9.61-2.48-16.93-3.86-23.7-2.96-6.32.82-14.06 4.06-26.16 9.29-1.72.75-3.73 1.63-5.91 2.55-6.52-19.42-31.46-37.52-46.74-41.48-1.86-.48-3.7-.81-5.46-.97-10.36-1-32.86 1.62-44.56 7.98-11.05 6-16.61 15.51-21.08 23.15-2.25 3.85-4.37 7.5-6.66 9.68-1.48 1.41-3.75 2.84-6.15 4.36-7.64 4.85-20.41 12.96-21.32 31.66-.2 3.98-.61 12.47 4 18.66-1.01 1.16-2 2.3-2.97 3.44-6.85 7.93-12.27 14.21-19.72 17.04-.92.34-1.81.4-3.6.46-3.63.15-11.2.44-17.04 6.9-5.63 6.21-6.03 14.02-5.64 20.9-4.73-.83-10.25-.99-15.85 1.35-8.92 3.7-14.75 12.85-16.39 25.74-.52 4.04-1.39 15.35 3.24 24.52-3.4 2.88-6.09 6.23-8.2 9.51-1.11 1.71-2.15 3.85-4.03 7.81-.2.44-.45.98-.72 1.54-2.86-.03-6.53.36-10.8 2.01-14.77 5.65-26.45 20.01-31.47 31.73-3.92 9.14-10.79 33.35-8.94 47.95 1.27 9.93 6.82 18.34 11.71 25.76 2.44 3.69 4.97 7.52 5.88 10.02.72 2.02 1.27 3.82 1.76 5.42 2.37 7.7 5.96 19.34 21.33 23.32 4.16 1.08 8.96 1.56 15.56 1.53 5.09-.01 9.52-.68 13.43-1.27 3.4-.5 6.9-1.04 8.5-.62.23.05.88.22 2.12 1.4.8.74 1.38 1.84 2.4 3.85 1.78 3.51 4.68 9.23 10.94 13.23-3.26 6.29-6.55 14.89-4.16 26.01 1.3 6.09 4.08 10.29 5.92 13.06.16.23.33.5.49.76-.37.67-.99 1.63-1.48 2.39-1.81 2.83-4.29 6.71-5.81 11.88-4.78 16.37-.98 27.29 2.06 36.07 1.14 3.25 2.2 6.3 2.9 9.76.54 2.74-.04 6.53-.71 10.89-1.21 7.83-2.72 17.57 1.21 28.47 4.08 11.29 13.12 19.29 25.48 22.47 17.95 4.64 40.59-1.46 54.51-8.1 13.57-6.48 25.57-23.55 30.1-30.59 2.14-3.32 3.58-6.92 4.84-10.1.6-1.48 1.47-3.66 2-4.64 2.2-.83 4.83-2 8.3-4.18 24.2-15.16 18.92-36.2 16.38-46.3-.52-2.07-1.26-5.08-1.32-6.51.48-.47 1.71-1.45 4.4-2.75 1.98-.96 3.87-1.82 5.7-2.66 12.9-5.94 26.25-12.06 34.96-32.09 4.82-11.14 9.49-24.03 3.54-36.22-.81-1.64-1.74-3.12-2.76-4.46 1.67-.43 3.3-.82 4.74-1.18 15.14-3.64 39.05-9.41 45.94-29.08.35.27.68.55 1 .82 4.36 3.52 5.28 5.76 7.55 11.16 1.58 3.81 3.56 8.56 7.04 14.04 3.74 5.93 8.28 9.36 11.58 11.86 1.04.78 2.59 1.96 2.9 2.36.29 1.16.12 4.8 0 7.2-.27 5.62-.6 12.59 1.42 19.67 2.63 9.2 9.38 23.94 16.71 33.18 3.15 3.98 7.93 6.28 13.01 6.31 5.08.01 9.88-2.28 13.06-6.25 6.02-7.51 8.32-16.3 10.16-23.36.89-3.44 2-7.67 3.13-9.52 1.04-.37 3.21-.76 4.72-1.03 3.51-.61 9.9-1.74 15.7-5.44 1.43 4.19 2.66 9.5 3.4 12.75 3.15 13.58 6.71 28.98 21.11 34.82a16.61 16.61 0 0 0 13.56-.45c1.08-.53 2.08-1.16 3.01-1.88 2.5 2.21 5.64 4.11 9.68 5.15 3.63.93 7.52 1.04 11.6.29 18.39-3.36 25.36-18.63 20.72-45.4-.24-1.38-.56-3.26-.61-3.86v-.19c1.57.11 3.28.25 4.67.39 12.22 1.13 32.7 3.02 46.19-15.44 5.86-8 9.07-18.12 10.22-28.06.5.14 1.08.27 1.65.39a16.646 16.646 0 0 0 16.88-6.53c7.59-10.46 6.67-21.63 6.12-28.31-.05-.61-.11-1.33-.15-2.01 1.52-.51 3.66-1.07 5.24-1.47 7.7-1.97 18.23-4.69 25.98-14.21 7.2-8.86 9.36-18.95 11.1-27.05.67-3.11 1.3-6.03 2.07-8.24.73-2.1 1.41-3.8 2-5.27 6.77-17.03 2.27-24.99-10.69-35.44 1.72-.09 3.41-.13 4.72-.17 3.38-.07 6.89-.16 10.36-.59 9.73-1.2 13.46-.84 18.64.51 1.38.34 2.94.81 4.81 1.41 1.85 2.16 5.05 5 10.04 6.29.31.08.6.16.91.22-3.79 4.14-7.14 9.69-9.87 18.49-1.55 4.99-6.11 22.12.11 33.28 2.66 4.77 6.93 8.13 12.04 9.45 13.86 3.59 23.47-9.01 26.63-13.16 4.11-5.37 5.19-11.44 5.75-15.94 3.93.17 9.23.09 14.79-2.34 8.32-3.66 13.42-8.68 17.16-12.33 4.12-4.04 4.65-4.56 8.6-4.69 2.77-.1 5.65.38 8.69.89 8.63 1.45 25.91 4.36 37.36-15.56 2 1.55 4.56 2.97 7.84 3.83h.01c3.88 1 8.08.98 12.84-.06 13.51-2.94 27.35-25.68 28.16-35.17Z"/><path fill="#D1813B" d="M922.871 1034.43c-22.083-5.79-21.068-11.51-38.851-22.88-21.321-13.628-29.367-14.015-52.702-11.921-1.878.173-4.652-.254-7.726-.68-7.134-.974-15.883-1.947-18.775 4.441-4.149 9.16 12.165 16.8 10.736 23.89-1.948 9.69-8.475 7.37-15.003 5.04-4.484-1.59-8.97-3.19-11.975-.88-11.883 9.09 9.65 17.51 16.049 18.67-.404 2.12-.844 3.89-1.571 5.92-13.605.16-25.178-.71-24.547 16.29.365 9.79 7.238 29.32 19.215 24.08.581 21.84-26.251 4.89-33.432 18.43 10.129 1.56 31.939-6.92 42.068-9.12 15.169-3.3 23.027-11.23 34.228-20.98 2.004 3.6.954 14.63 4.196 16.91 8.389 5.89 13.773-6.56 20.433-7.39 17.956-2.24 12.204 11.7 22.448 21.42 4.278 4.05 11.727 2.61 15.654 6.1 6.108 5.44 4.21 8.55 7.53 15.79 4.056 8.85 15.021 20.46 6.744 29.25 23.398 9.17.963 20.67-3.235 31.8-2.705 7.17-1.842 17.47-4.389 25.04-3.48 10.35-5.402 12.51-3.354 23.16 2.996 15.59 7.71 27.25 8.27 42.98.529 14.96 3.089 34.02 11.825 46.02 6.369-13.64-5.889-25.34.766-40.72 5.038 2.94 6.334 23.93 7.685 30.61 1.896 9.35.32 23.45 6.909 33.12 7.297 10.72 21.802 10.77 30.547 18.56 4.527 4.04 5.015 10.19 9.306 13.68 4.758 3.87 14.261 3.56 17.577 8.85 6.813 10.87-4.051 21.57 13.413 28.91 12.71 5.36 27.67-3.34 14.95 15.88-6.73 10.14-19.63 11.01-24.44 21.14-4.54 9.58-4.519 28.47-2.67 37.08 3.29 15.36 9.04 37.78 23.07 42.43 1.75 13.42-6.5 23.77-10.5 34.73-4.4 12.07-3.79 29.15-10.63 39.93-8.534 13.48-14.187 12.98-14.035 30.83.057 6.56 4.043 5.92 1.761 13.28-1.473 4.76-9.773 8.27-11.457 15.57-2.853 12.4 7.824 45.39 13.096 33.16 7.442-17.25 15.675-30.33 18.765-35.93 2.3-4.19 5.19-16.76 9.52-22.28 1.74-2.21 10.22-7.77 12.57-8.83 13.34-6.02 15.43-5.29 26.18-15.97 1.2-1.19 8.56-5.4 9-7.15 18.25-5.93 31.92-30.98 47.68-37.98 16.28-7.23 17.52.58 26.88-17.51 6.14-11.88 8.96-25.01 21.22-30.66 9.35-4.31 31.2-2.63 21.79-22.23-4.89-10.19-21.52-7.52-30.68-16.15-3.73-3.5-4.64-9.48-8.78-12.58-4.68-3.5-15.23-2.79-19.03-6.56-5.42-5.39-1.36-8.98-3.01-14.62-3.54-12.13 3.04-4.96-6.75-13.78-5.62-5.07-9.55-1.55-14.41-9.28-2.97-4.71.25-13.8-4.15-18.39-6.33-6.6-25.88-5.73-34.46-6.68-7.64-.85-9.68-2.65-16.72-.51-6.31 1.91-1.12 9.47-11.3 8.8-2.36-.16-6.86-8.69-11.13-9.82-6.04-1.6-11.96-.21-17.4 2.1-2.37-10.37 9.87-19.54 6.94-27.67-4.95-13.76-15.163-1-9.23-19.47 3.14-9.76 14.9-15.07-4.06-11.36-6.591 1.28-17.272 17.33-25.923 3.6-11.443-18.16 15.943-38.32 29.703-41.37 8.69-1.92 24.03-3.23 31.33 3.82 6.86 6.63.35 20.27 13.25 20.79 2.94-9.39 3.54-25.55 9.27-33.49 7.86-10.91 19.21-4.83 27.24-11.75 4.66-4.01 3.45-11.89 6.98-15.47 5.14-5.21 6.47-2.45 11.75-5.57 5.54-3.25 6.5.27 11.75-5.56 3.11-3.45 4.94-12.4 6.37-16.96 10.21-.86 21.08 1.15 19.08 12.98 15.42-1.46 11.8-21.18 9.7-31.19 14.24-12.6 25.72 1.27 19.83 16.44 8.73 5.95 27.69 12.32 28.04-4.19-26.03-18.05 2.33-15.92-2.12-38.68-1.33-6.73-10.65-11.22-12.56-18.26-2.01-7.46 2.57-20.39 2.47-28.79-3.39-.31-6.27.71-9.12 1.73-4.07 1.44-8.06 2.9-13.28.55 2.62-14.28-11.31-32.58-26.91-21.8-15.56 10.76-6.85 34.36-7.69 47.2-6.9-1.29-11.01 1.71-14.56 4.71-4.31 3.64-7.82 7.28-14.5 3.29 1.51-7.36 3.71-14.85 5.22-22.21-19.31-6.12-39.82-14.88-27.22-39.97 4.67-9.32 8.04-8.62 13.62-7.91 2.48.32 5.41.64 9.08.07 11.35-1.78 11.32-7.58 20.49-11.6 3.77-1.66 6.79-1.59 9.4-1.52 4.59.1 7.92.22 11.83-8.9 4.52-10.56 1.95-14.21-7.83-17.92-3.61-1.37-5.64-.46-7.23.43-2.66 1.51-4.12 3.01-9.76-6.04-5.23-8.39 1.09-16.25-11.18-21.55-5.56 6.43-6.48 16.84-7.2 25.14-4.95.28-13.72-4.35-22.43-8.98-10.74-5.72-21.37-11.42-24.58-7.9-9.53 21.2-19.67-.27-28.46-8.02-10.39-9.17-23.07-12.04-35.441-17.3-13.188-5.6-20.508-6.23-34.536-7.59-13.151-1.28-13.328-4.84-25.079-4.73l-7.413.56Zm362.279.45c-9.37 2.93-14.37-9.01-24.72-9.48-1.98-.09-5.96 5.51-10.12 6-4.33.52-10.46-.69-15-2.28.5 3.77-1.37 9.45-.48 13.12-3.44-1.76-9.06-1.01-12.53-2.72-4.03 13.72-1 16.71 7.29 23.97 9.28 8.12 15.1 4.66 15.59 19.52.17 5.35-4.45 10.8-3.88 16.18.47 4.41 6.12 8.33 6.37 12.41.7 11.12-5.36 16.35-9.8 26.27-5.41 12.07-12.33 61.01 15.87 51.98 9.8-3.13 6.93-21.12 14.08-26.67 8.61-6.69 20.1-.04 29.78 1.87 9.96-16.06 24.63-6.49 40.39-3.27 3.27-4.1 5.43-9.94 5.69-15.19-1.72-.91-3.97-1.54-5.82-2.03 3.41-8.8 29.46-7.09 17.52-26.16 18.45.35 24.2-6 28.97-21.65 3.48-11.4-2.51-7.67 7.33-15.39 6.98-5.47 17.32 1.61 16.84-12.57-7.85-2.55-20.62-.56-27.61-5.62-8.68-6.29-5.2-16.8-11.15-23.25-11.25-12.2-37.73-3.31-52.92-6.91-3.2 15.71-12.18 10.63-18.88 5.78l-12.81-3.91Zm581.15 678.26c-8.83-.06 4.61-15.81.26-22.04-18.05-8.1-20.36 5.58-36.16 8.02-5.84.9-17.41-5.96-19.19-5.51-10.87 2.77-5.92 12.28-11.95 19.37-11.53 13.62-25.49.39-32.36 23.94-4.44 15.22 2.73 30.18-5.85 44.9 22.82 18.72 49.28-25.77 69.79 6.84 2.83 4.48.76 11.56 3.71 15.66 4.15 5.78 11.8 5.57 15.57 9.88 10.46 11.89 3.19 21.17 23.48 15.57 16.58-4.56 45.91-27.77 51.04-43.07 3.96-11.78-1.33-22.98-6.82-33.1-7.72-14.24-11.87-23.3-15.15-39.64-3.15-15.75-5.01-15.34-9.85-7.59-6.02 7.81-1.5 6.47-6.62 15.07-13.62 3.89-8.72-12.96-15.21-9.47l-4.69 1.17Zm238.42-369.93c1.26-14.78-15.98-13.3-28.12-17.59-15.48-5.48-17.03-13.29-27.97-23.15-8.68-7.81-14.36-6.25-21.63-4.7-3.97.84-8.4 1.69-14.05 1.01-13.35-1.6-14.83-11.93-25.15-20.64-9.55-8.05-14.6-6.84-22.32-5.62-3.13.49-6.71.98-11.21.85-16.03-.47-25.04-10.64-35.73-20.07-12.7-11.21-16.4-8.58-33.62-9.52-7.69-.42-31.84-4.14-37.84-8.37-3.8-2.68-4.58-8.75-3.73-12.84-17.8-12.07-40.52-7.04-60.41-13.29-5.85-8.4-11.24-7.5-22.52-10.42-10.83-2.8-18.57-16.84-30.19-11.82-7.98 3.45-16.18 2.18-23.4.93-12.32-2.16-21.76-4.32-22.3 17.04-10.09-1.08-33.87-8.29-34.75-18.75-19.45-8.21-12.8 20.9-21.53 24.72-4.73 2.1-14.17-.41-23.61-2.92-8-2.12-16.02-4.25-21.18-3.57-13.5 1.76-65.17 32.77-63.54 13.65 36.25-2.01-5.81-42.42-24.45-44.2-8.71-.84-27.3 1.83-35 6.03-11.99 6.52-14.68 21.19-24.23 30.27-8.69 8.26-21.6 10.22-22.3 24.76-.66 13.32 1.84 4 7.15 12.17.63.95 2.3-.95 4.07-2.84 1.92-2.07 3.96-4.13 4.88-2.55 2.23 3.87 1.35 13.34 6.2 15.94 7.29 3.93 6.79-6.32 8.71-11.51 5.26-14.28 7.3-9.43 17.5-19.29 5.84-5.66 6.38-10.92 16.18-11.04 2.92 9.73-6.38 17.74-6.56 26.93-.08 3.79 6.48 3.72 5.96 10.49-.51 6.47-4.4 10.74-9.4 14.42-12.66 9.3-22.2 3.66-31.63-1.99-5.99-3.59-11.93-7.19-18.61-6.92-10.81 11.36-18.87 24.4-33.88 30.09-10.64 4.04-16.43-3.11-15.53 11.93.54 9.34 14.06 8.06 6.89 20.32-6.05 2.39-12.68.62-18.73-1.14-5.52-1.62-10.56-3.23-14.28-1.68-7.62 3.16-8.6 25.28-2.88 29.6 13.9 10.52 19.42-12.5 28.2-16 4.1-1.64 9.02-.32 13.66.98 7.78 2.22 14.76 4.43 15.79-7.29 25.17.25 10.24 30.44 26.4 35.53 4.85-15.88 2.74-20.46-2.59-34.84 15.25 7.19 17.27 32.64 25.27 41.6 8.65 3.1 12.81-7.34 14.49-15.53 9.65 3.52 14.21-1.37 18.63-6.27 4.86-5.37 9.53-10.76 20.6-4.94 14.4 7.56 23.32 31.77-1.58 24.21-7.41-2.25-8.89-11.35-18.81-8.89-6.52 1.62-14.72 13.4-11.59 19.56 6.18 12.13 41.42 4.16 26.66 29.25-19.7 1.09-31.79-6.17-50.18-10.99-10.56-2.77-39.55-1.46-34.09-22.25-4.44-4.19-9.78-5.16-14.56-2.35l3.64-.77c-11.49 6.15-23.28 2.05-34.36-2.04-13.9-5.13-26.7-10.27-36.44 4.84-1.41 2.19-6.36 13.76-7.65 14.77-3.81 3-6.16 2.7-8.79 2.39-1.97-.21-4.1-.44-7.14.72-9.16 3.52-18.18 13.53-22.14 22.75-3.58 8.35-8.97 29.31-7.7 39.26 1.35 10.6 13 21.93 16.72 32.23 5.09 14.09 2.8 19.3 22.92 19.25 13.52-.04 24.22-6.6 35.53 4.04 8.95 8.41 4.71 18.61 22.73 16.8 2.86 13.51-11.77 20.57-8.69 34.93 1.55 7.13 7.53 9.67 7.05 17.77-.46 7.83-6.21 11.67-8.21 18.51-4.79 16.35 2.36 23.25 5.29 37.87 2.51 12.5-4.7 24.38-.16 36.97 7.42 20.54 40.98 12.69 57.13 4.99 8.96-4.27 19.08-18.06 23.26-24.55 2.73-4.24 4.45-11.55 7.53-15.81 4.73-6.56 5-3.35 12.77-8.23 28.67-17.96-12.06-40.43 21.06-56.44 14.72-7.12 25.45-9.87 32.62-26.4 7.52-17.29 8.26-26.52-10.7-30.57-6.94-27.19 62.06-13.89 62.71-45.13-7.88-3.74-45.62-27.59-20.84-31.43 15.04-2.33 36.4 22.08 47.08 30.71 11.96 9.66 10.68 17.38 18.18 29.24 4.89 7.73 12.98 8.65 16.18 17.77 2.66 7.57-.86 18.73 1.68 27.67 2.28 7.98 8.28 20.51 13.72 27.38 7.51-9.35 6.55-24.57 13.63-33.34 8.69-10.8 27.18-1.78 28.76-18.44 28.24-.3 19.68 48.73 35.12 54.98 1.61-5.61 3.32-11.51 4.94-17.11 7.42-.08 9.84 4.83 11.88 9.74 2.28 5.46 4.08 10.93 11.76 9.52 14.27-2.59 6.87-24.51 6.47-31.93-1.09-19.72 10.05-18.51 23.2-17.3 10.83 1 23.03 2 30.85-8.7 7.79-10.67 9.16-28.68 5.77-39.4-2.69-8.48-16.78-20.71-14.22-29.76 4.89-17.38 22.26-4.96 26.29 5 4.15 10.25-3.59 27.01 10.87 30.01 7.2-9.93-.35-21.89 4.41-29.51 6.6-10.57 24.67-6.57 33.32-17.22 7.04-8.64 7.01-20.71 10.39-30.31 4.97-14.12 7.92-13.3-4.7-23.2-8.82-6.93-22.37-8.98-7.88-22.72 8.15-7.72 22.72-5.33 32.64-6.56 14.16-1.74 20.24-.92 33.16 3.43 6.6 2.23 2.57 7.03 11.64 4.72 5.51-1.41 11.91-12.4 14.55-17.03 15.38.12 10.84 24.56 4.86 31.6-9.82 11.56-16.42 8.67-21.7 25.7-4 12.88-4.04 32.39 9.61 14.51 3.81-4.99 1.41-14.67 5.71-19.19 3.68-3.88 8.1-3.63 12.5-3.39 3.07.19 6.11.36 8.87-.85 13.76-6.04 14.45-17.84 31.91-18.43 4.13-.13 7.85.43 11.25.99 9.51 1.58 16.45 3.17 22.65-10.76 2.71-6.08-4.16-13.78 3.87-16.7 7.35-2.68 8.41 5.91 13.16 9.07 5.37 3.59 4.01 8.8 12.82 6.88 4.38-.96 14.74-16.16 15.1-20.29Z"/><mask id="a" width="549" height="1089" x="492" y="713" maskUnits="userSpaceOnUse" style="mask-type:luminance"><path fill="#fff" d="m836.087 1801.44-343.423-1.88L773.729 713.142l83.341 43.186c-11.515 55.052-8.914 114.317 18.14 163.196 30.158 54.492 94.106 91.866 157.37 91.866 2.65 0 5.3-.06 7.95-.19l-9.25 35.73c-8.61-6.16-17.72-9.56-25.92-12.61-3.13-1.16-6.078-2.27-8.94-3.48-5.445-2.31-10.214-3.97-15.01-5.21-7.785-2.02-14.756-2.68-23.585-3.55l-.846-.08c-2.891-.28-4.596-.67-5.623-.93a44.97 44.97 0 0 1-3.207-.99c-5.361-1.77-10.797-2.89-17.544-2.89h-.456c-.375 0-.754.01-1.131.05l-4.539.33c-8.734-2.49-11.174-4.52-16.438-8.9-3.59-2.99-8.06-6.71-15.039-11.175-11.491-7.346-19.615-11.226-28.042-13.399-5.943-1.534-11.645-2.094-17.685-2.094-5.292 0-10.843.427-17.044.974-.749-.04-2.393-.267-3.625-.44-2.704-.374-6.547-.907-10.796-.907-9.318 0-20.601 2.547-26.182 14.88-2.924 6.451-2.613 12.361-.963 17.401-4.481.66-7.859 2.48-10.225 4.29-11.174 8.55-10.454 18.99-9.623 23.08a22.584 22.584 0 0 0 2.256 6.23c-.447.4-.886.84-1.315 1.28-5.631 5.89-8.29 14.02-7.914 24.16.143 3.89.9 8.6 2.354 13.44-6.432-11.47-15.343-21.95-26.03-31.1-13.864-11.86-29.109-21.65-45.189-30.02l-157.322 608.12c19.446 3.8 39.427 5.57 59.407 5.57 21.138 0 42.275-1.99 62.786-5.68 43.974-7.91 90.201-22.79 124.462-52.65 22.686-19.79 40.061-45.41 44.487-75.71 4.828-33.08-1.385-73.17-23.687-99.18-18.934-22.08-44.598-37.49-62.705-60.28-18.444-23.21-28.228-53.13-21.461-82.76 9.081-39.77 38.656-69.16 51.775-106.97 2.912-8.39 4.435-16.66 4.731-24.74 6.987-1.08 14.893-3.34 24.108-6.1 4.081-1.22 7.937-2.37 10.325-2.89 9.058-1.96 16.217-5.28 22.397-9.23.845.9 1.808 1.74 2.901 2.51 2.591 1.81 5.371 3.12 8.26 3.87 2.07.53 4.042.77 5.91.77 7.493 0 13.316-3.76 17.119-6.75 1.774 4.27 4.505 9.64 9.714 14.59 3.368 3.2 7.536 5.4 12.74 6.75 1.196.3 2.417.57 3.629.81.54 2.15 1.361 5.31 3.131 9.18 1.313 2.86 2.893 5.51 4.421 8.08.944 1.58 2.333 3.92 3.173 5.67a16.662 16.662 0 0 0 3.724 21.44c-3.077 3.69-6.299 7.87-8.248 13.04-2.165 5.73-2.76 11.69-3.282 16.96-.33 3.32-.674 6.75-1.31 8.64-.533 1.59-1.028 2.96-1.47 4.2-3.119 8.71-4.906 14.69-2.456 27.44 1.118 5.8 2.41 10.92 3.658 15.88 2.155 8.56 4.02 15.97 4.324 24.53.856 24.16 5.904 42.75 15.008 55.24a16.71 16.71 0 0 0 8.28 6.03c1.185 5.54 3.185 11.29 6.779 16.57 4.619 6.77 10.62 10.88 16.319 13.76l-108.519 419.46Z"/></mask><g mask="url(#a)"><path fill="#58AFD4" d="M492.664 1801.44h547.866V713.142H492.664V1801.44Z"/></g><path fill="#269FD1" d="M1032.58 1011.39c-63.264 0-127.212-37.374-157.37-91.866-27.054-48.879-29.655-108.144-18.139-163.196l219.909 113.957-36.45 140.915c-2.65.13-5.3.19-7.95.19Zm-437.516 627.57c-19.98 0-39.961-1.77-59.407-5.57l157.322-608.12c16.081 8.37 31.326 18.16 45.189 30.02 10.687 9.15 19.598 19.63 26.03 31.1a56.33 56.33 0 0 0 2.68 7.14c-6.432 1.7-13.018 5.38-17.315 13.47a16.67 16.67 0 0 0-.182 15.29 16.622 16.622 0 0 0 12.352 9c1.742.28 3.545.4 5.413.4 2.625 0 5.385-.25 8.307-.7-.296 8.08-1.82 16.35-4.732 24.74-13.119 37.81-42.694 67.2-51.775 106.97-6.767 29.63 3.017 59.55 21.461 82.76 18.107 22.79 43.771 38.2 62.705 60.28 22.302 26.01 28.515 66.1 23.687 99.18-4.426 30.3-21.801 55.92-44.487 75.71-34.261 29.86-80.488 44.74-124.462 52.65-20.511 3.69-41.648 5.68-62.786 5.68Z"/><path fill="#7BBDD8" d="M944.606 1381.98c-5.699-2.88-11.7-6.99-16.319-13.76-3.594-5.28-5.594-11.03-6.779-16.57a16.71 16.71 0 0 1-8.28-6.03c-9.104-12.49-14.152-31.08-15.008-55.24-.304-8.56-2.169-15.97-4.324-24.53-1.248-4.96-2.54-10.08-3.658-15.88-2.45-12.75-.663-18.73 2.456-27.44.442-1.24.937-2.61 1.47-4.2.636-1.89.98-5.32 1.31-8.64.522-5.27 1.117-11.23 3.282-16.96 1.949-5.17 5.171-9.35 8.248-13.04a16.665 16.665 0 0 1-3.724-21.44c-.84-1.75-2.229-4.09-3.173-5.67-1.528-2.57-3.108-5.22-4.421-8.07-1.77-3.88-2.591-7.04-3.131-9.19a74.29 74.29 0 0 1-3.629-.81c-5.204-1.35-9.372-3.55-12.74-6.75-5.209-4.95-7.94-10.32-9.714-14.59-3.803 2.99-9.626 6.75-17.119 6.75-1.868 0-3.84-.24-5.91-.77-2.889-.75-5.669-2.06-8.26-3.87a18.866 18.866 0 0 1-2.901-2.51c-6.18 3.95-13.339 7.27-22.397 9.23-2.388.52-6.244 1.67-10.325 2.89-9.215 2.76-17.121 5.02-24.108 6.1-2.921.45-5.681.7-8.306.7-1.868 0-3.671-.12-5.413-.4a16.622 16.622 0 0 1-12.352-9 16.67 16.67 0 0 1 .182-15.29c4.297-8.09 10.883-11.77 17.315-13.47a56.33 56.33 0 0 1-2.68-7.14c-1.454-4.84-2.21-9.55-2.354-13.44-.376-10.14 2.283-18.27 7.914-24.16.429-.44.868-.88 1.315-1.28-1.022-1.9-1.8-3.98-2.256-6.23-.831-4.09-1.551-14.53 9.623-23.08 2.366-1.81 5.744-3.62 10.226-4.29-1.651-5.04-1.962-10.95.962-17.401 5.581-12.333 16.864-14.88 26.182-14.88 4.249 0 8.092.534 10.796.907 1.232.173 2.876.4 3.625.44 6.201-.547 11.752-.973 17.044-.973 6.04 0 11.742.56 17.685 2.093 8.427 2.173 16.551 6.053 28.042 13.399 6.979 4.465 11.449 8.185 15.039 11.175 5.264 4.39 7.704 6.41 16.439 8.9l4.538-.33c.377-.04.756-.05 1.131-.05h.456c6.747 0 12.183 1.12 17.544 2.89.97.33 1.987.67 3.207.99 1.027.26 2.732.65 5.623.93l.846.08c8.829.87 15.8 1.53 23.585 3.55 4.796 1.24 9.565 2.9 15.01 5.21 2.862 1.21 5.81 2.32 8.94 3.48 8.2 3.05 17.31 6.45 25.92 12.61l-4.61 17.82c-.44-.44-.89-.87-1.33-1.26-10.39-9.17-23.07-12.04-35.441-17.3-13.187-5.6-20.507-6.23-34.536-7.59-12.963-1.27-13.32-4.73-24.58-4.73h-.498l-7.414.56c-22.083-5.79-21.068-11.51-38.851-22.88-15.62-9.99-24.116-12.868-36.72-12.868-4.599 0-9.744.387-15.982.947-.288.026-.598.04-.926.04-1.81 0-4.198-.36-6.799-.72-2.6-.347-5.416-.707-8.083-.707-4.652 0-8.856 1.08-10.693 5.148-4.149 9.16 12.165 16.8 10.736 23.89-1.092 5.43-3.621 7.09-6.784 7.09-2.48 0-5.349-1.02-8.218-2.05-2.87-1.01-5.74-2.04-8.223-2.04-1.397 0-2.67.33-3.753 1.16-11.882 9.09 9.65 17.51 16.049 18.67-.404 2.12-.844 3.89-1.571 5.92-13.605.16-25.178-.71-24.547 16.29.322 8.67 5.744 24.96 15.283 24.96 1.243 0 2.552-.28 3.932-.88.582 21.84-26.251 4.89-33.432 18.43.848.12 1.78.18 2.777.18 10.924 0 30.01-7.29 39.291-9.3 15.169-3.3 23.028-11.23 34.229-20.98 2.004 3.6.953 14.63 4.195 16.91 1.596 1.12 3.084 1.57 4.492 1.57 5.992 0 10.548-8.29 15.941-8.96 1.302-.16 2.479-.24 3.547-.24 13.661 0 9.398 12.64 18.901 21.66 4.278 4.05 11.727 2.61 15.654 6.1 6.108 5.44 4.211 8.55 7.531 15.79 4.055 8.85 15.02 20.46 6.743 29.25 23.398 9.17.963 20.67-3.234 31.8-2.706 7.17-1.843 17.47-4.39 25.04-3.479 10.35-5.402 12.51-3.354 23.16 2.996 15.59 7.71 27.25 8.27 42.98.53 14.96 3.09 34.02 11.825 46.02 6.37-13.64-5.889-25.34.766-40.72 5.038 2.94 6.334 23.93 7.685 30.61 1.896 9.35.32 23.45 6.909 33.12 1.88 2.76 4.239 4.81 6.853 6.48l-4.314 16.68Z"/><path fill="#A46D36" d="M948.92 1365.3c-2.615-1.67-4.973-3.72-6.853-6.48-6.589-9.67-5.013-23.77-6.909-33.12-1.351-6.68-2.647-27.67-7.685-30.61-6.655 15.38 5.603 27.08-.766 40.72-8.736-12-11.296-31.06-11.825-46.02-.56-15.73-5.274-27.39-8.27-42.98-2.048-10.65-.126-12.81 3.354-23.16 2.547-7.57 1.684-17.87 4.389-25.04 4.198-11.13 26.633-22.63 3.235-31.8 8.277-8.79-2.688-20.4-6.744-29.25-3.32-7.24-1.422-10.35-7.53-15.79-3.927-3.49-11.376-2.05-15.654-6.1-9.503-9.02-5.24-21.66-18.901-21.66-1.068 0-2.246.08-3.547.24-5.393.67-9.949 8.96-15.941 8.96-1.408 0-2.896-.45-4.492-1.57-3.242-2.28-2.192-13.31-4.196-16.91-11.201 9.75-19.059 17.68-34.228 20.98-9.281 2.01-28.367 9.3-39.291 9.3-.997 0-1.929-.06-2.777-.18 7.181-13.54 34.013 3.41 33.432-18.43-1.38.6-2.689.88-3.932.88-9.54 0-14.961-16.29-15.283-24.96-.631-17 10.942-16.13 24.547-16.29.727-2.03 1.167-3.8 1.571-5.92-6.399-1.16-27.932-9.58-16.049-18.67 1.082-.83 2.356-1.16 3.753-1.16 2.483 0 5.353 1.03 8.222 2.04 2.87 1.03 5.739 2.05 8.219 2.05 3.162 0 5.692-1.66 6.784-7.09 1.429-7.09-14.885-14.73-10.736-23.89 1.837-4.068 6.041-5.148 10.693-5.148 2.667 0 5.482.36 8.082.707 2.602.36 4.99.72 6.8.72.328 0 .638-.014.926-.04 6.238-.56 11.383-.947 15.982-.947 12.604 0 21.099 2.878 36.72 12.868 17.783 11.37 16.768 17.09 38.851 22.88l7.413-.56h.499c11.26 0 11.617 3.46 24.58 4.73 14.028 1.36 21.348 1.99 34.536 7.59 12.371 5.26 25.051 8.13 35.441 17.3.44.39.89.82 1.33 1.26l-77.75 300.55Z"/><path fill="#58AFD4" d="M1693.87 1837.91h-259.46c18.58-25.84 35.38-56.58 29.1-87.47-5.34-26.16-20.7-44.39-40.75-56.16 3.81-1.31 7.33-2.76 10.43-4.24 13.57-6.48 25.57-23.55 30.1-30.59 2.14-3.32 3.58-6.92 4.84-10.1.6-1.48 1.47-3.66 2-4.64 2.2-.83 4.83-2 8.3-4.18 24.2-15.16 18.92-36.2 16.38-46.3-.52-2.07-1.26-5.08-1.32-6.51.48-.47 1.71-1.45 4.4-2.75 1.98-.96 3.87-1.82 5.7-2.66 12.9-5.94 26.25-12.06 34.96-32.1 4.82-11.13 9.49-24.02 3.54-36.21-.81-1.64-1.74-3.12-2.76-4.46 1.67-.43 3.3-.82 4.74-1.18 15.14-3.64 39.05-9.41 45.94-29.08.35.27.68.55 1 .82 4.36 3.52 5.28 5.76 7.55 11.16 1.58 3.81 3.56 8.56 7.04 14.04 3.74 5.93 8.28 9.36 11.58 11.86 1.04.78 2.59 1.96 2.9 2.36.29 1.16.12 4.8 0 7.2-.27 5.62-.6 12.59 1.42 19.67 2.63 9.2 9.38 23.94 16.71 33.18 3.15 3.98 7.93 6.28 13.01 6.31h.04c5.07 0 9.86-2.29 13.02-6.25 6.02-7.51 8.32-16.3 10.16-23.36.89-3.44 2-7.67 3.13-9.52 1.04-.38 3.21-.76 4.72-1.03 3.51-.61 9.9-1.74 15.7-5.44 1.43 4.19 2.66 9.49 3.4 12.75 3.15 13.58 6.71 28.98 21.11 34.82a16.63 16.63 0 0 0 13.56-.45c1.08-.53 2.08-1.16 3.01-1.88 2.5 2.21 5.64 4.11 9.68 5.15 2.03.52 4.14.78 6.31.78.85 0 1.72-.04 2.6-.12l-63.79 246.58Zm-358.43-160.47 13.62-53.07c.25.75.5 1.47.74 2.18 1.14 3.25 2.2 6.3 2.9 9.76.54 2.74-.04 6.53-.71 10.89-1.21 7.83-2.72 17.57 1.21 28.47.14.37.27.74.42 1.11-.86-.01-1.71-.01-2.56-.01-3.2 0-6.39.08-9.55.26-2 .1-4.01.24-6.07.41Z"/><path fill="#269FD1" d="M1434.41 1837.91h-140.13l41.16-160.47c2.06-.17 4.07-.31 6.07-.41 3.16-.18 6.35-.26 9.55-.26.85 0 1.7 0 2.56.01 4.26 10.71 13.12 18.28 25.06 21.36 4.39 1.14 9.06 1.63 13.8 1.63 10.36 0 21.14-2.35 30.28-5.49 20.05 11.77 35.41 30 40.75 56.16 6.28 30.89-10.52 61.63-29.1 87.47Z"/><path fill="#7BBDD8" d="M1392.48 1699.77c-4.74 0-9.41-.49-13.8-1.63-11.94-3.08-20.8-10.65-25.06-21.35-.15-.38-.28-.75-.42-1.12-3.93-10.9-2.42-20.64-1.21-28.47.67-4.36 1.25-8.15.71-10.89-.7-3.46-1.76-6.51-2.9-9.76-.24-.71-.49-1.43-.74-2.18l16.34-63.74c2.04 5.86 7 8.62 6.56 16.02-.46 7.83-6.21 11.67-8.21 18.51-4.79 16.35 2.36 23.25 5.29 37.87 2.51 12.5-4.7 24.38-.16 36.97 3.52 9.76 12.95 13.12 23.62 13.12 11.77 0 25.03-4.09 33.51-8.13 8.96-4.27 19.08-18.06 23.26-24.55 2.73-4.24 4.45-11.55 7.53-15.81 4.73-6.56 5-3.35 12.77-8.23 28.67-17.96-12.06-40.43 21.06-56.44 14.72-7.12 25.45-9.87 32.62-26.4 7.52-17.29 8.26-26.52-10.7-30.57-6.94-27.19 62.06-13.89 62.71-45.13-7.88-3.74-45.62-27.59-20.84-31.43.68-.11 1.38-.16 2.08-.16 14.88 0 34.82 22.63 45 30.87 11.96 9.66 10.68 17.38 18.18 29.24 4.89 7.73 12.98 8.65 16.18 17.77 2.66 7.57-.86 18.73 1.68 27.67 2.28 7.98 8.28 20.51 13.72 27.38 7.51-9.35 6.55-24.57 13.63-33.34 8.69-10.8 27.18-1.78 28.76-18.44h.24c27.94 0 19.49 48.74 34.88 54.98 1.61-5.61 3.32-11.51 4.94-17.11h.16c7.3 0 9.7 4.87 11.72 9.74 2.03 4.88 3.68 9.74 9.47 9.74.71 0 1.47-.06 2.29-.22 2.31-.42 4.04-1.34 5.34-2.62l-5.03 19.4c-.88.08-1.75.12-2.6.12-2.17 0-4.28-.26-6.31-.78-4.04-1.04-7.18-2.94-9.68-5.15-.93.72-1.93 1.35-3.01 1.88a16.63 16.63 0 0 1-13.56.45c-14.4-5.84-17.96-21.24-21.11-34.82-.74-3.26-1.97-8.56-3.4-12.75-5.8 3.7-12.2 4.83-15.7 5.44-1.51.27-3.68.66-4.72 1.03-1.13 1.85-2.24 6.08-3.13 9.52-1.84 7.06-4.14 15.85-10.16 23.36a16.638 16.638 0 0 1-13.02 6.25h-.04c-5.08-.03-9.86-2.33-13.01-6.31-7.33-9.24-14.08-23.98-16.71-33.18-2.02-7.08-1.69-14.05-1.42-19.67.12-2.4.29-6.04 0-7.2-.31-.4-1.86-1.58-2.9-2.36-3.3-2.5-7.84-5.93-11.58-11.86-3.48-5.48-5.46-10.23-7.04-14.04-2.27-5.4-3.19-7.64-7.55-11.16-.32-.27-.65-.55-1-.82-6.89 19.67-30.8 25.44-45.94 29.08-1.44.36-3.07.75-4.74 1.18 1.02 1.34 1.95 2.82 2.76 4.46 5.95 12.19 1.28 25.08-3.54 36.21-8.71 20.04-22.06 26.16-34.96 32.1-1.83.84-3.72 1.7-5.7 2.66-2.69 1.3-3.92 2.28-4.4 2.75.06 1.43.8 4.44 1.32 6.51 2.54 10.1 7.82 31.14-16.38 46.3-3.47 2.18-6.1 3.35-8.3 4.18-.53.98-1.4 3.16-2 4.64-1.26 3.18-2.7 6.78-4.84 10.1-4.53 7.04-16.53 24.11-30.1 30.59-3.1 1.48-6.62 2.93-10.43 4.24-9.14 3.14-19.92 5.49-30.28 5.49Zm373.55-140.81c-.33-6.31-2.02-12.89-2.21-16.34-.72-13.11 3.96-16.96 11.03-17.72l-8.82 34.06Zm-394.45-22.37 2.4-9.37c.04 3.42-1 6.45-2.4 9.37Zm119.59-131.17c-17.45 0-29.1-6.63-46.24-11.11-8.48-2.22-28.84-1.82-33.7-12.32l6.61-25.81c1.32 2.27 3.23 4.04 6.19 4.97 4.04-13.21 3.26-18.6-.19-28.32l1.12-4.38c12.11 9.14 14.4 31.25 21.75 39.46 1.06.38 2.06.55 3 .55 6.64 0 10.02-8.91 11.49-16.08 2.29.84 4.29 1.2 6.08 1.2 5.73 0 9.19-3.73 12.55-7.47 3.37-3.72 6.65-7.45 12.04-7.45 2.37 0 5.17.72 8.56 2.51 12.5 6.56 20.86 25.66 6.6 25.66-2.18 0-4.88-.45-8.18-1.45-6.54-1.99-8.46-9.31-15.64-9.31-.96 0-2 .14-3.17.42-6.52 1.62-14.72 13.4-11.59 19.56 6.18 12.13 41.42 4.16 26.66 29.25-1.35.08-2.66.12-3.94.12Zm-35.97-132.74c-5.24 0-10.03-2.22-14.68-4.88l7.15-27.87c3.6-6.69 6.5-5.01 14.78-13.01 5.84-5.66 6.38-10.92 16.18-11.04 2.92 9.73-6.38 17.74-6.56 26.93-.08 3.79 6.48 3.72 5.96 10.49-.51 6.47-4.4 10.74-9.4 14.42-4.88 3.58-9.3 4.96-13.43 4.96Z"/><path fill="#C6D6DC" d="m1553.98 825.433.63-2.48 4.28 2-4.91.48Z"/><path fill="#58AFD4" d="M1855.9 1211.6c-.92-1.06-1.99-2.02-3.2-2.83-5.82-3.96-12.31-6.81-19.83-8.76-8.2-2.12-16.23-2.8-23.98-3.45-5.91-.51-11.51-.98-16.59-2.06-5.71-5.8-11.72-8.01-16.59-9.26-1.61-.43-3.33-.79-5.24-1.19-1.74-.37-3.69-.76-5.88-1.33-1.09-.31-3.88-2.36-5.73-3.72-4.24-3.12-9.52-7-16.36-8.76-2.41-.63-4.85-.94-7.28-.94-3.95 0-7.87.82-11.61 2.44-1.43.62-3.12.86-4.98.86-2.92 0-6.26-.59-9.73-1.2-3.67-.64-7.92-1.4-12.35-1.4-5.85 0-12.02 1.3-17.59 5.86-3.08 2.51-5.31 5.52-6.91 8.71-3.04-1.23-5.17-2.41-6.33-3.23-1.43-4.65-4.86-8.5-9.46-10.44-1.77-.76-3.54-1.36-5.25-1.8-2.64-.69-5.08-.97-7.29-.97-5.52 0-9.75 1.75-12.6 3.51-9.08 5.6-11.72 15.44-13.3 22.54-1.4-.3-3.1-.72-5.16-1.25l-7.64-2.01c-7.62-1.96-13.8-3.23-19.41-3.23-1.47 0-2.89.08-4.29.27-6.32.82-14.06 4.06-26.16 9.29-1.72.75-3.74 1.63-5.91 2.55-6.52-19.42-31.46-37.52-46.74-41.48-1.86-.48-3.7-.81-5.46-.97-1.42-.14-3.08-.2-4.9-.2-6.68 0-15.66.91-23.96 2.77l85.79-334.487 4.91-.48 325.82 252.757-193.74-150.293c-15.01 37.533-27.36 76.683-24.35 115.173 2.31 29.46 15.39 55.94 35.91 77.12 27.22 28.08 66.29 57.74 104.89 66.86 10.6 2.49 21.26 3.37 31.96 3.37 7.45 0 14.92-.42 22.38-1.01l-5.86 22.67Z"/><path fill="#269FD1" d="M1839.38 1189.94c-10.7 0-21.36-.88-31.96-3.37-38.6-9.12-77.67-38.78-104.89-66.86-20.52-21.18-33.6-47.66-35.91-77.12-3.01-38.49 9.34-77.64 24.35-115.173l193.74 150.293 5.16 2.6-28.11 108.62c-7.46.59-14.93 1.01-22.38 1.01Z"/><path fill="#7BBDD8" d="M1849.42 1236.68c-.95-.42-1.74-.84-2.34-1.27-3.8-2.68-4.58-8.75-3.73-12.84-17.8-12.07-40.52-7.04-60.41-13.29-5.85-8.4-11.24-7.5-22.52-10.42-9.21-2.38-16.19-12.89-25.21-12.89-1.59 0-3.24.32-4.98 1.07-3.85 1.66-7.74 2.24-11.57 2.24-4.09 0-8.09-.66-11.83-1.31-3.73-.65-7.2-1.31-10.24-1.31-6.98 0-11.69 3.46-12.06 18.35-10.09-1.08-33.87-8.29-34.75-18.75-2.38-1.01-4.37-1.45-6.05-1.45-12 0-7.81 22.81-15.48 26.17-1.24.55-2.8.78-4.59.78-5.08.01-12.05-1.84-19.02-3.7-6.98-1.85-13.96-3.7-19.06-3.7-.74 0-1.45.04-2.12.13-10.33 1.35-43.06 19.85-57.1 19.85-4.28 0-6.83-1.73-6.44-6.2 36.25-2.01-5.81-42.42-24.45-44.2-1.08-.1-2.31-.16-3.64-.16-8.3 0-20.9 1.92-28.44 4.86l4.8-18.72c8.3-1.86 17.28-2.78 23.96-2.78 1.82 0 3.48.07 4.9.2 1.76.16 3.6.5 5.46.98 15.28 3.96 40.22 22.06 46.74 41.48 2.18-.92 4.19-1.8 5.91-2.55 12.1-5.23 19.84-8.47 26.16-9.29 1.4-.19 2.82-.27 4.29-.27 5.61 0 11.79 1.27 19.41 3.23l7.64 2.01c2.06.53 3.76.95 5.16 1.25 1.58-7.1 4.22-16.94 13.3-22.54 2.85-1.76 7.08-3.51 12.6-3.51 2.21 0 4.65.28 7.29.97 1.71.44 3.48 1.04 5.25 1.8 4.6 1.94 8.03 5.79 9.46 10.44 1.16.82 3.29 2 6.33 3.23 1.6-3.19 3.83-6.2 6.91-8.71 5.57-4.56 11.74-5.86 17.59-5.86 4.43 0 8.68.76 12.35 1.4 3.47.61 6.81 1.2 9.73 1.2 1.86 0 3.55-.24 4.98-.86 3.74-1.62 7.66-2.44 11.61-2.44 2.43 0 4.87.31 7.28.94 6.84 1.76 12.12 5.64 16.36 8.76 1.85 1.36 4.64 3.41 5.73 3.72 2.19.57 4.14.96 5.88 1.33 1.91.4 3.63.76 5.24 1.19 4.87 1.25 10.88 3.46 16.59 9.26 5.08 1.08 10.68 1.55 16.59 2.06 7.76.65 15.78 1.33 23.98 3.45 7.52 1.95 14.01 4.8 19.83 8.76 1.21.81 2.28 1.77 3.2 2.83l-6.48 25.08Z"/><path fill="#A46D36" d="M1392.5 1683.12c-10.67 0-20.1-3.36-23.62-13.12-4.54-12.59 2.67-24.47.16-36.97-2.93-14.62-10.08-21.52-5.29-37.87 2-6.84 7.75-10.68 8.21-18.51.44-7.4-4.52-10.16-6.56-16.02l6.18-24.04c1.4-2.92 2.44-5.95 2.4-9.37l37.25-145.23c4.87 10.5 25.22 10.1 33.7 12.32 17.14 4.48 28.79 11.11 46.24 11.11 1.28 0 2.59-.04 3.94-.12 14.76-25.09-20.48-17.12-26.66-29.25-3.13-6.16 5.07-17.94 11.59-19.56 1.17-.28 2.21-.42 3.17-.42 7.18 0 9.1 7.32 15.64 9.31 3.3 1 6 1.45 8.18 1.45 14.26 0 5.9-19.1-6.6-25.66-3.39-1.79-6.19-2.51-8.56-2.51-5.39 0-8.67 3.73-12.04 7.45-3.36 3.74-6.82 7.47-12.55 7.47-1.79 0-3.79-.36-6.08-1.2-1.47 7.17-4.85 16.08-11.49 16.08-.94 0-1.94-.17-3-.55-7.35-8.21-9.64-30.32-21.75-39.46l15.56-60.65c4.65 2.66 9.44 4.88 14.68 4.88 4.13 0 8.55-1.38 13.43-4.96 5-3.68 8.89-7.95 9.4-14.42.52-6.77-6.04-6.7-5.96-10.49.18-9.19 9.48-17.2 6.56-26.93-9.8.12-10.34 5.38-16.18 11.04-8.28 8-11.18 6.32-14.78 13.01l15.72-61.29c7.54-2.94 20.14-4.86 28.44-4.86 1.33 0 2.56.06 3.64.16 18.64 1.78 60.7 42.19 24.45 44.2-.39 4.47 2.16 6.2 6.44 6.2 14.04 0 46.77-18.5 57.1-19.85.67-.09 1.38-.13 2.12-.13 5.1 0 12.08 1.85 19.06 3.7 6.97 1.86 13.94 3.71 19.02 3.7 1.79 0 3.35-.23 4.59-.78 7.67-3.36 3.48-26.17 15.48-26.17 1.68 0 3.67.44 6.05 1.45.88 10.46 24.66 17.67 34.75 18.75.37-14.89 5.08-18.35 12.06-18.35 3.04 0 6.51.66 10.24 1.31 3.74.65 7.74 1.31 11.83 1.31 3.83 0 7.72-.58 11.57-2.24 1.74-.75 3.39-1.07 4.98-1.07 9.02 0 16 10.51 25.21 12.89 11.28 2.92 16.67 2.02 22.52 10.42 19.89 6.25 42.61 1.22 60.41 13.29-.85 4.09-.07 10.16 3.73 12.84.6.43 1.39.85 2.34 1.27l-74.57 288.22c-7.07.76-11.75 4.61-11.03 17.72.19 3.45 1.88 10.04 2.21 16.34l-3.34 12.97c-1.3 1.28-3.03 2.2-5.34 2.62-.82.16-1.58.22-2.29.22-5.79 0-7.44-4.86-9.47-9.74-2.02-4.87-4.42-9.74-11.72-9.74h-.16c-1.62 5.6-3.33 11.5-4.94 17.11-15.39-6.24-6.94-54.98-34.88-54.98h-.24c-1.58 16.66-20.07 7.64-28.76 18.44-7.08 8.77-6.12 23.99-13.63 33.34-5.44-6.87-11.44-19.4-13.72-27.38-2.54-8.94.98-20.1-1.68-27.67-3.2-9.12-11.29-10.04-16.18-17.77-7.5-11.86-6.22-19.58-18.18-29.24-10.18-8.24-30.12-30.87-45-30.87-.7 0-1.4.05-2.08.16-24.78 3.84 12.96 27.69 20.84 31.43-.65 31.24-69.65 17.94-62.71 45.13 18.96 4.05 18.22 13.28 10.7 30.57-7.17 16.53-17.9 19.28-32.62 26.4-33.12 16.01 7.61 38.48-21.06 56.44-7.77 4.88-8.04 1.67-12.77 8.23-3.08 4.26-4.8 11.57-7.53 15.81-4.18 6.49-14.3 20.28-23.26 24.55-8.48 4.04-21.74 8.13-33.51 8.13Zm31.53-321.97c-2.96-.93-4.87-2.7-6.19-4.97l6-23.35c3.45 9.72 4.23 15.11.19 28.32Z"/><path fill="#208BCB" d="m784.445 619.758-43.04-65.958-74.878-412.683h-28.871L556.324 553.8l-45.178 65.958h273.299Z"/><path fill="#1D7CB6" d="M665.258 167.876c1.069 28.959 3.189 57.878 4.281 86.851 1.713 45.439 2.217 91.038-.64 136.45-2.863 45.479-7.678 92.584-22.602 135.903-11.898 34.546-31.613 73.892-67.09 89.465a109.212 109.212 0 0 1-8.22 3.213h213.458l-43.04-65.958-74.878-412.683h-28.871l-.311 1.573c13.328-.36 27.275 8.026 27.913 25.186Z"/><path fill="#E9A541" d="M854.912 1049.33H451.698v522.58h403.214v-522.58Z"/><path fill="#EAC141" d="M514.594 1049.33h-62.896v522.58h58.209c-36.912-171.78-44.526-353.65 4.687-522.58Z"/><path fill="#E89440" d="M700.337 1049.33c32.505 40.19 58.94 86.54 74.02 139.15 37.353 130.31 5.205 287.51-80.818 383.43h161.373v-522.58H700.337Z"/><path fill="#986B29" d="M421.921 1571.91s37.779 40.14 50.37 119.63l56.664-119.63H421.921Zm462.767 0s-37.777 40.14-50.372 119.63l-56.664-119.63h107.036Z"/><path fill="#EAB441" d="M834.316 2207.83H472.291v-635.92h362.025v635.92Z"/><path fill="#AE612F" d="M834.316 1905.61H472.291v-15.74h362.025v15.74Z"/><path fill="#E89840" d="M777.652 1859.97H528.955v-231.4h248.697v231.4Z"/><path fill="#8C5A25" d="M571.455 1740.33v-88.93c0-5.64-4.579-10.23-10.228-10.23-5.653 0-10.232 4.59-10.232 10.23v88.93h20.46Zm44.073 0v-88.93c0-5.64-4.58-10.23-10.232-10.23-5.649 0-10.231 4.59-10.231 10.23v88.93h20.463Zm99.952 0v-88.14c0-5.66-4.582-10.23-10.23-10.23a10.223 10.223 0 0 0-10.232 10.23v88.14h20.462Zm40.923 0v-88.14c0-5.66-4.578-10.23-10.231-10.23-5.648 0-10.231 4.57-10.231 10.23v88.14h20.462Zm-182.191 110.18v-88.93c0-5.65-4.583-10.22-10.232-10.22-5.649 0-10.232 4.57-10.232 10.22v88.93h20.464Zm44.072 0v-88.93c0-5.65-4.581-10.22-10.23-10.22-5.653 0-10.232 4.57-10.232 10.22v88.93h20.462Zm99.95 0v-88.14c0-5.65-4.583-10.23-10.231-10.23-5.649 0-10.232 4.58-10.232 10.23v88.14h20.463Zm40.927 0v-88.14c0-5.65-4.583-10.23-10.232-10.23-5.652 0-10.232 4.58-10.232 10.23v88.14h20.464Z"/><path fill="#E89840" d="M780.803 2170.04H532.105v-231.38h248.698v231.38Z"/><path fill="#8C5A25" d="M574.606 2050.42v-88.94c0-5.65-4.583-10.23-10.232-10.23-5.652 0-10.232 4.58-10.232 10.23v88.94h20.464Zm44.07 0v-88.94c0-5.65-4.579-10.23-10.231-10.23-5.649 0-10.228 4.58-10.228 10.23v88.94h20.459Zm99.953 0v-88.15c0-5.65-4.583-10.22-10.232-10.22-5.648 0-10.231 4.57-10.231 10.22v88.15h20.463Zm40.923 0v-88.15c0-5.65-4.579-10.22-10.232-10.22-5.648 0-10.228 4.57-10.228 10.22v88.15h20.46ZM577.36 2160.6v-88.93c0-5.65-4.584-10.23-10.232-10.23-5.65 0-10.231 4.58-10.231 10.23v88.93h20.463Zm44.072 0v-88.93c0-5.65-4.582-10.23-10.231-10.23-5.652 0-10.231 4.58-10.231 10.23v88.93h20.462Zm99.95 0v-88.14c0-5.66-4.579-10.24-10.23-10.24-5.65 0-10.232 4.58-10.232 10.24v88.14h20.462Zm40.927 0v-88.14c0-5.66-4.583-10.24-10.232-10.24-5.652 0-10.232 4.58-10.232 10.24v88.14h20.464Z"/><path fill="#EAC141" d="M780.8 1492.16H528.955v-327.4H780.8v327.4Z"/><path fill="#946828" d="M780.8 1492.16c-1.6-27.29-2.909-54.57-4.101-81.85-1.005-27.28-2.201-54.57-2.982-81.85-.754-27.28-1.752-54.56-2.302-81.85l-1.752-81.85 11.137 11.14-125.919 1.56-125.922.54 13.226-13.24-.348 81.85c-.104 27.29-.179 54.57-.624 81.85l-1.051 81.85-1.718 81.85-9.485-9.48c20.986.36 41.972 1.08 62.959 1.68 20.987.63 41.975 1.19 62.963 2.04 20.986.82 41.972 1.51 62.96 2.54 20.986.88 41.972 2.05 62.959 3.22Zm0 0c-20.987 1.16-41.973 2.35-62.959 3.22-20.988 1.04-41.974 1.73-62.96 2.54-20.988.86-41.976 1.42-62.963 2.04-20.987.59-41.973 1.32-62.959 1.68l-9.285.18-.203-9.66-1.717-81.85-1.054-81.85c-.445-27.28-.517-54.56-.622-81.85l-.351-81.85-.055-13.28 13.287.05 125.922.52 125.919 1.57 11.376.15-.237 10.99-1.751 81.85c-.549 27.29-1.548 54.57-2.298 81.85-.784 27.28-1.98 54.57-2.986 81.85-1.192 27.28-2.501 54.56-4.104 81.85Z"/><path fill="#E89440" d="M764.538 1321.11c0 59.7-48.391 108.09-108.084 108.09-59.692 0-108.083-48.39-108.083-108.09 0-59.69 48.391-108.07 108.083-108.07 59.693 0 108.084 48.38 108.084 108.07Z"/><path fill="#fff" d="M754.669 1321.11c0 54.26-43.971 98.23-98.215 98.23-54.244 0-98.216-43.97-98.216-98.23 0-54.23 43.972-98.21 98.216-98.21 54.244 0 98.215 43.98 98.215 98.21Z"/><path fill="#fff" d="M754.669 1321.11c0 54.26-43.971 98.23-98.215 98.23-54.244 0-98.216-43.97-98.216-98.23 0-54.23 43.972-98.21 98.216-98.21 54.244 0 98.215 43.98 98.215 98.21Z"/><path fill="#DCDBDB" d="M656.454 1407.19c-52.204 0-94.872-40.73-98.011-92.14-.125 2-.205 4.02-.205 6.06 0 54.26 43.972 98.21 98.216 98.21 54.244 0 98.215-43.95 98.215-98.21 0-2.04-.081-4.06-.204-6.06-3.141 51.41-45.81 92.14-98.011 92.14Z"/><path fill="#DCDBDB" d="M656.454 1230.49c52.971 0 96.12 41.95 98.12 94.42.05-1.26.095-2.52.095-3.8 0-54.23-43.971-98.21-98.215-98.21-54.244 0-98.216 43.98-98.216 98.21 0 1.28.048 2.54.096 3.8 1.997-52.47 45.149-94.42 98.12-94.42Z"/><path fill="#217AA2" d="M664.042 1324.75c0 4.2-3.396 7.6-7.588 7.6s-7.591-3.4-7.591-7.6c0-4.18 3.399-7.58 7.591-7.58s7.588 3.4 7.588 7.58Z"/><path fill="#217AA2" d="M661.418 1351.47v-101.39c0-2.75-2.223-4.96-4.964-4.96a4.956 4.956 0 0 0-4.964 4.96v101.39c0 2.75 2.223 4.98 4.964 4.98 2.741 0 4.964-2.23 4.964-4.98Z"/><path fill="#217AA2" d="M630.647 1328.06h84.706a3.31 3.31 0 0 0 3.309-3.31c0-1.82-1.483-3.3-3.309-3.3h-84.706a3.307 3.307 0 0 0-3.31 3.3c0 1.83 1.482 3.31 3.31 3.31Z"/><path fill="#663F16" d="M508.427 1553.03h-23.542V1510h23.542v43.03Zm39.556 0H524.44V1510h23.543v43.03Zm39.555 0h-23.542V1510h23.542v43.03Zm39.556 0h-23.543V1510h23.543v43.03Zm39.557 0h-23.544V1510h23.544v43.03Zm39.555 0h-23.542V1510h23.542v43.03Zm39.556 0h-23.543V1510h23.543v43.03Zm39.555 0h-23.542V1510h23.542v43.03Zm39.557 0H801.33V1510h23.544v43.03Zm-260.937-417.64h-24.512v-56.15h24.512v56.15Zm41.189 0h-24.513v-56.15h24.513v56.15Zm41.191 0h-24.516v-56.15h24.516v56.15Zm41.187 0h-24.516v-56.15h24.516v56.15Zm41.188 0h-24.515v-56.15h24.515v56.15Zm41.187 0h-24.511v-56.15h24.511v56.15Z"/><path fill="#E9A541" d="M905.148 1571.91h-70.832v-409.25h70.832v409.25Z"/><path fill="#663F16" d="M862.914 1290.86h-16.003v-60.81h16.003v60.81Zm29.773 0h-16v-60.81h16v60.81Zm-29.838 225.17h-16.004v-60.81h16.004v60.81Zm29.774 0h-16.004v-60.81h16.004v60.81Z"/><path fill="#208BCB" d="M766.458 814.807H529.136L402.247 1046.97h491.1L766.458 814.807Z"/><path fill="#1D7CB6" d="M724.064 918.191c-15.45 63.278-66.838 103.209-124.853 128.779h294.136L766.458 814.807H717c10.9 33.426 15.532 68.692 7.064 103.384Z"/><path fill="#EAC141" d="M472.291 1571.91h-70.832v-409.25h70.832v409.25Z"/><path fill="#663F16" d="M430.056 1290.86h-16.004v-60.81h16.004v60.81Zm29.774 0h-16.004v-60.81h16.004v60.81Zm-29.842 225.17h-16v-60.81h16v60.81Zm29.776 0h-16.002v-60.81h16.002v60.81Z"/><path fill="#176292" d="M919.315 1046.97c0 7.39-5.99 13.39-13.378 13.39h-516.28c-7.391 0-13.38-6-13.38-13.39 0-7.38 5.989-13.37 13.38-13.37h516.28c7.388 0 13.378 5.99 13.378 13.37Z"/><path fill="#E9A541" d="m905.148 1162.66-10.231-90.23-10.229 90.23h20.46Z"/><path fill="#EAC141" d="m421.921 1162.66-10.23-90.23-10.232 90.23h20.462Z"/><path fill="#EAB441" d="M769.879 621.198H529.136v193.609h240.743V621.198Z"/><path fill="#663F16" d="M568.172 799.594V659.637c0-4.466-3.132-8.079-6.99-8.079-3.866 0-6.994 3.613-6.994 8.079v139.957h13.984Zm28.874 0V659.637c0-4.466-3.132-8.079-6.993-8.079s-6.993 3.613-6.993 8.079v139.957h13.986Zm28.873 0V659.637c0-4.466-3.132-8.079-6.995-8.079-3.861 0-6.993 3.613-6.993 8.079v139.957h13.988Zm28.868 0V659.637c0-4.466-3.129-8.079-6.99-8.079-3.863 0-6.993 3.613-6.993 8.079v139.957h13.983Zm28.876 0V659.637c0-4.466-3.132-8.079-6.995-8.079-3.861 0-6.993 3.613-6.993 8.079v139.957h13.988Zm28.871 0V659.637c0-4.466-3.132-8.079-6.993-8.079-3.863 0-6.993 3.613-6.993 8.079v139.957h13.986Zm28.871 0V659.637c0-4.466-3.132-8.079-6.993-8.079-3.863 0-6.993 3.613-6.993 8.079v139.957h13.986Z"/><path fill="#176292" d="M785.905 619.759c0 8.186-3.053 14.826-6.815 14.826H516.096c-3.765 0-6.816-6.64-6.816-14.826 0-8.187 3.051-14.814 6.816-14.814H779.09c3.762 0 6.815 6.627 6.815 14.814ZM676.129 140.73c0 5.867-4.758 10.613-10.626 10.613h-26.758c-5.866 0-10.622-4.746-10.622-10.613 0-5.866 4.756-10.626 10.622-10.626h26.758c5.868 0 10.626 4.76 10.626 10.626Z"/><path fill="#176292" d="m667.183 145.157-.695-3.8-13.489-96.25-15.343 90.423"/><path fill="#1D7DB8" d="M580.775 937.27H486.73l5.568-8.426 77.353.293 11.124 8.133Zm123.461 21.186H542.033l26.394-4.066 37.219 1.24 22.296-5.307h57.11l19.184 8.133Zm-123.461-69.491H514.46l2.787-4.214h52.404l11.124 4.214Z"/><path fill="#1D7DB8" d="M609.818 892.911h-66.317l2.785-4.199h52.408l11.124 4.199Zm30.071 101.771-11.124-8.133-17.592-.053 4.743-.227-11.123-8.133-77.357-.293-.323 12.626 22.208-1.053-3.478 5.266h94.046Zm-5.118-70.905h-12.892l2.188-3.546 12.633-.147-1.929 3.693Z"/><path fill="#374D7B" d="M1754.43 2197c0 12.96-10.5 23.47-23.46 23.47H840.217c-12.958 0-23.464-10.51-23.464-23.47v-131.04c0-12.96 10.506-23.46 23.464-23.46h890.753c12.96 0 23.46 10.5 23.46 23.46V2197Z"/><path fill="#2B3C5F" d="M829.463 2205.78v-131.02c0-12.96 10.509-23.46 23.467-23.46h890.76c2.16 0 4.24.32 6.22.86-4.26-5.85-11.14-9.66-18.94-9.66H840.217c-12.958 0-23.464 10.5-23.464 23.46V2197c0 10.8 7.299 19.86 17.227 22.6-2.828-3.88-4.517-8.64-4.517-13.82Z"/><path fill="#253351" d="M1754.43 2140.28v-21.51H816.753v21.51h937.677Z"/><path fill="#FABB48" d="M1020.05 2150.92c0 2.93-2.38 5.32-5.32 5.32h-22.432a5.324 5.324 0 0 1-5.316-5.32v-42.8c0-2.93 2.381-5.31 5.316-5.31h22.432c2.94 0 5.32 2.38 5.32 5.31v42.8Zm558.2 0a5.33 5.33 0 0 1-5.32 5.32h-22.44c-2.93 0-5.3-2.39-5.3-5.32v-42.8c0-2.93 2.37-5.31 5.3-5.31h22.44c2.93 0 5.32 2.38 5.32 5.31v42.8Z"/><path fill="#EB574D" d="M860.157 1837.91c-.025.46-.039.92-.039 1.38v175.29c0 14.65 11.873 26.52 26.518 26.52h818.294c14.64 0 26.52-11.87 26.52-26.52v-175.29c0-.46-.02-.92-.04-1.38H860.157Z"/><path fill="#E93C4B" d="M1704.93 2019.38H886.637c-14.646 0-26.519-11.88-26.519-26.52v21.72c0 14.65 11.873 26.52 26.519 26.52h818.293c14.64 0 26.52-11.87 26.52-26.52v-21.72c0 14.64-11.88 26.52-26.52 26.52Z"/><path fill="#3D476C" d="M926.989 2027.5c-4.603-15.64-11.17-31.3-23.256-42.68-12.236-11.54-27.731-18.06-43.615-22.88v50.96c-.458 14.81 9.456 28.2 27.664 28.2h43.013c-1.202-4.56-2.483-9.1-3.806-13.6Z"/><path fill="#526093" d="M917.72 2025.07c-3.588-12.2-8.709-24.4-18.133-33.29-9.543-8.99-21.626-14.07-34.014-17.84v39.74c-.359 11.56 7.376 21.99 21.575 21.99h33.542c-.937-3.55-1.936-7.08-2.97-10.6Z"/><path fill="#24273C" d="M926.17 2031.76a2.74 2.74 0 1 1-5.48 0 2.74 2.74 0 0 1 5.48 0Zm-5.48-18.1a2.74 2.74 0 1 1-5.478-.018 2.74 2.74 0 0 1 5.478.018Zm-11.618-20.43c0 1.51-1.228 2.73-2.741 2.73a2.731 2.731 0 0 1-2.736-2.73c0-1.52 1.224-2.75 2.736-2.75a2.745 2.745 0 0 1 2.741 2.75Zm-15.945-13.17c0 1.52-1.228 2.74-2.741 2.74a2.736 2.736 0 0 1-2.74-2.74c0-1.51 1.228-2.74 2.74-2.74a2.743 2.743 0 0 1 2.741 2.74Zm-20.432-9.78a2.74 2.74 0 1 1-2.737-2.74 2.733 2.733 0 0 1 2.737 2.74Z"/><path fill="#3D476C" d="M1664.56 2027.5c4.61-15.64 11.17-31.3 23.25-42.68 12.24-11.54 27.73-18.06 43.61-22.88v50.96c.47 14.81-9.45 28.2-27.65 28.2h-43.01c1.2-4.56 2.48-9.1 3.8-13.6Z"/><path fill="#526093" d="M1673.82 2025.07c3.59-12.2 8.72-24.4 18.13-33.29 9.55-8.99 21.63-14.07 34.02-17.84v39.74c.36 11.56-7.38 21.99-21.58 21.99h-33.53c.94-3.55 1.94-7.08 2.96-10.6Z"/><path fill="#24273C" d="M1665.38 2031.76c0 1.51 1.23 2.74 2.74 2.74 1.5 0 2.74-1.23 2.74-2.74 0-1.52-1.24-2.74-2.74-2.74-1.51 0-2.74 1.22-2.74 2.74Zm5.48-18.1c0 1.5 1.23 2.73 2.74 2.73 1.52 0 2.74-1.23 2.74-2.73a2.74 2.74 0 0 0-2.74-2.75c-1.51 0-2.74 1.23-2.74 2.75Zm11.61-20.43c0 1.51 1.23 2.73 2.74 2.73a2.73 2.73 0 0 0 2.74-2.73 2.74 2.74 0 0 0-2.74-2.75c-1.51 0-2.74 1.23-2.74 2.75Zm15.95-13.17c0 1.5 1.23 2.74 2.73 2.74 1.52 0 2.75-1.24 2.75-2.74 0-1.51-1.23-2.74-2.75-2.74-1.5 0-2.73 1.23-2.73 2.74Zm20.43-9.78c0 1.51 1.22 2.74 2.73 2.74 1.52 0 2.75-1.23 2.75-2.74a2.74 2.74 0 0 0-2.75-2.74 2.73 2.73 0 0 0-2.73 2.74Zm-552.62-48.73h52.28v-30.2h-52.28v30.2Zm261.4 0h-52.28v-30.2h52.28v30.2Z"/><path fill="#384163" d="M1166.23 1917.78h52.28v-30.2h-52.28v30.2Zm261.4 0h-52.28v-30.2h52.28v30.2Z"/><path fill="#526093" d="M1398.8 1967.44h-206.06c-6.73 0-12.2-5.46-12.2-12.2v-48.78c0-6.75 5.47-12.21 12.2-12.21 6.73 0 12.2 5.46 12.2 12.21v36.59h181.66v-36.59c0-6.75 5.47-12.21 12.2-12.21 6.75 0 12.2 5.46 12.2 12.21v48.78c0 6.74-5.45 12.2-12.2 12.2Z"/><path fill="#45517B" d="M1398.8 1960.76h-206.06c-6.73 0-12.2-5.46-12.2-12.19v6.67c0 6.74 5.47 12.2 12.2 12.2h206.06c6.75 0 12.2-5.46 12.2-12.2v-6.67c0 6.73-5.45 12.19-12.2 12.19Z"/><path fill="#9DA0C3" d="m1270.58 1950.3-23.39-.07-23.37-.2-23.39-.35-1.09-.01-.03-1.05-.22-10.55-.18-10.53-.14-10.55c-.06-3.52-.06-7.02-.07-10.53.25 3.49.56 7 .79 10.51l.72 10.52.7 10.52.58 9.42 22.33-.33 23.37-.2 23.39-.07 23.38.05c7.79 0 15.59.12 23.38.16l23.38.31 11.68.23c3.91.06 7.8.16 11.7.28 7.8.21 15.58.38 23.38.7-7.8.32-15.58.5-23.38.71-3.9.12-7.79.21-11.7.28l-11.68.23-23.38.3c-7.79.06-15.59.16-23.38.16l-23.38.06Z"/><path fill="#6477B4" d="M1739.69 1829.67c0 13.76-10.07 24.91-22.48 24.91H863.99c-12.413 0-22.479-11.15-22.479-24.91v-139.03c0-13.75 10.066-24.91 22.479-24.91h853.22c12.41 0 22.48 11.16 22.48 24.91v139.03Z"/><path fill="#56669B" d="M853.686 1839.02v-139.04c0-13.76 10.064-24.9 22.481-24.9h853.213c2.07 0 4.07.33 5.97.92-4.08-6.22-10.68-10.27-18.14-10.27H863.99c-12.413 0-22.479 11.16-22.479 24.91v139.03c0 11.47 6.993 21.08 16.503 23.99-2.708-4.11-4.328-9.16-4.328-14.64Z"/><path fill="#395BA5" d="M1739.69 1769.5v-22.82H841.511v22.82h898.179Z"/><path fill="#FABB48" d="M1008.83 1780.8c0 3.1-2.52 5.64-5.64 5.64h-23.807c-3.116 0-5.638-2.54-5.638-5.64v-45.43c0-3.11 2.522-5.63 5.638-5.63h23.807c3.12 0 5.64 2.52 5.64 5.63v45.43Zm592.3 0c0 3.1-2.53 5.64-5.64 5.64h-23.81c-3.11 0-5.64-2.54-5.64-5.64v-45.43c0-3.11 2.53-5.63 5.64-5.63h23.81c3.11 0 5.64 2.52 5.64 5.63v45.43Z"/><path fill="#374D7B" d="M1972.24 1032.12h-54.2l-4.9-46.011h64.01l-4.91 46.011Z"/><path fill="#374D7B" d="m1914.15 988.842-9.08-64.211 2.2-.307 9.08 64.212-2.2.306Zm61.53 0-2.19-.306 9.08-64.212 2.19.307-9.08 64.211Zm-12.44-.053-6.16-65.812 2.2-.2 6.16 65.812-2.2.2Zm-36.02.8-2.2-.187 5.49-65.011 2.2.186-5.49 65.012Z"/><path fill="#EB574D" d="M2055.12 787.421c0 60.745-49.24 109.97-109.97 109.97-60.75 0-109.99-49.225-109.99-109.97 0-60.732 49.24-109.971 109.99-109.971 60.73 0 109.97 49.239 109.97 109.971Z"/><path fill="#FDFCF8" d="M2011.32 787.421c0 60.745-29.63 109.97-66.17 109.97-36.56 0-66.19-49.225-66.19-109.97 0-60.732 29.63-109.971 66.19-109.971 36.54 0 66.17 49.239 66.17 109.971Z"/><path fill="#EB574D" d="M1969.25 787.421c0 60.745-10.8 109.97-24.1 109.97-13.32 0-24.12-49.225-24.12-109.97 0-60.732 10.8-109.971 24.12-109.971 13.3 0 24.1 49.239 24.1 109.971Z"/><path fill="#E8374B" d="M1870.9 868.566c.74.946 8.41 10.679 21.41 31.599 7.25 11.666 13.87 28.892 13.87 28.892h77.93s6.86-18.492 13.89-30.905c7.41-13.12 17.97-25.48 21.61-29.586H1870.9Z"/><path fill="#fff" d="M1582.14 861.939c-2.3-1.014-5.04-1.36-7.81-1.64-12.85-1.387-25.8 1.467-38.66.053-8.87-.96-17.07-6.346-19.76-15.359-2.67-8.867 6.26-17.107 13.74-20.653 7.95-3.76 17.84-2.214 25.11-7.573-3.24-3.64-9.96-5.414-12.19-9.613-6.56-12.32 19.28-13.787 25.44-14.6 13.47-1.787 27.17.04 40.73-1.213 25.62-2.387 42.22-20.627 66.43-26.72 18.21-4.6 43.24-6.306 59.56 5.227 14.41 10.186 10.48 12.573 29.8 11.573 11-.573 22.25-.48 33.08 1.8 7.26 1.533 16.02 6.773 20.69 12.626 1.36 1.707 3.53 5.8 3.64 7.733.16 2.6-1.55 6.627-4 7.68-1.88.813-5.56 1.267-6.33 3.533-3.15 9.253 21.02 11.08 25.77 11.68 10.05 1.28 38.61 4.333 38.45 18.68-.12 10.573-22.2 12.733-29.73 13.719-11.98 1.574-23.98 3.347-35.88 4.333-5.04.414-21.17 2.134-12.63 10.067 2.9 2.68 6.42 3.08 3.98 8.706-3.5 8.067-28.99 7.72-36.67 8.574-9.57 1.053-73.51 1.999-85.5 1.253-15.46-.96-30.94.293-46.4-.2-13.38-.427-31.32-.907-41.48-10.987-4.75-4.719-2.2-8.839-4.58-14.013-1.09-2.36-2.77-3.773-4.8-4.666Z"/><path fill="#374D7B" d="M1138.29 676.41h-54.21l-4.9-46.012h64.02l-4.91 46.012Z"/><path fill="#374D7B" d="m1080.2 633.144-9.08-64.211 2.2-.307 9.07 64.212-2.19.306Zm61.53 0-2.19-.306 9.08-64.212 2.19.307-9.08 64.211Zm-12.44-.053-6.16-65.812 2.2-.213 6.16 65.825-2.2.2Zm-36.02.787-2.21-.187 5.49-65.012 2.21.187-5.49 65.012Z"/><path fill="#EB574D" d="M1221.17 431.723c0 60.732-49.24 109.971-109.98 109.971s-109.98-49.239-109.98-109.971c0-60.732 49.24-109.971 109.98-109.971s109.98 49.239 109.98 109.971Z"/><path fill="#FDFCF8" d="M1177.37 431.723c0 60.732-29.63 109.971-66.18 109.971-36.55 0-66.18-49.239-66.18-109.971 0-60.732 29.63-109.971 66.18-109.971 36.55 0 66.18 49.239 66.18 109.971Z"/><path fill="#EB574D" d="M1135.3 431.723c0 60.732-10.8 109.971-24.11 109.971-13.32 0-24.11-49.239-24.11-109.971 0-60.732 10.79-109.971 24.11-109.971 13.31 0 24.11 49.239 24.11 109.971Z"/><path fill="#E8374B" d="M1036.94 512.868c.75.946 8.41 10.666 21.41 31.599 7.26 11.666 13.87 28.879 13.87 28.879h77.93s6.87-18.48 13.9-30.893c7.41-13.119 17.97-25.492 21.61-29.585h-148.72Z"/><path fill="#fff" d="M748.196 506.241c-2.305-1.013-5.045-1.36-7.815-1.653-12.853-1.373-25.799 1.48-38.667.067-8.867-.96-17.066-6.36-19.768-15.36-2.656-8.866 6.266-17.119 13.758-20.666 7.942-3.747 17.838-2.2 25.097-7.573-3.232-3.627-9.951-5.4-12.184-9.613-6.555-12.307 19.274-13.773 25.434-14.587 13.466-1.786 27.175.04 40.735-1.213 25.614-2.387 42.222-20.626 66.428-26.733 18.212-4.586 43.236-6.293 59.553 5.24 14.422 10.187 10.484 12.573 29.802 11.573 11.001-.573 22.259-.48 33.083 1.8 7.265 1.533 16.029 6.76 20.691 12.627 1.359 1.706 3.53 5.799 3.647 7.733.155 2.586-1.557 6.626-4.008 7.68-1.875.813-5.555 1.266-6.331 3.533-3.15 9.253 21.029 11.066 25.779 11.679 10.04 1.28 38.6 4.32 38.44 18.68-.11 10.56-22.19 12.733-29.73 13.72-11.97 1.56-23.963 3.346-35.875 4.333-5.035.413-21.17 2.133-12.623 10.053 2.895 2.693 6.408 3.093 3.971 8.72-3.487 8.053-28.984 7.72-36.668 8.573-9.573 1.053-73.503 1.987-85.498 1.24-15.457-.947-30.943.307-46.411-.187-13.369-.44-31.311-.906-41.468-11-4.751-4.719-2.208-8.839-4.58-13.999-1.09-2.36-2.773-3.773-4.792-4.667Zm551.164 592.479c-2.25-1-4.92-1.32-7.62-1.61-12.56-1.34-25.2 1.44-37.76.06-8.67-.93-16.67-6.2-19.31-15-2.6-8.66 6.12-16.72 13.43-20.17 7.76-3.67 17.43-2.16 24.52-7.4-3.16-3.55-9.72-5.28-11.91-9.39-6.4-12.02 18.83-13.45 24.84-14.25 13.15-1.75 26.55.04 39.79-1.19 25.01-2.32 41.22-20.13 64.86-26.09 17.79-4.491 42.23-6.144 58.16 5.11 14.08 9.95 10.24 12.28 29.09 11.31 10.75-.56 21.75-.47 32.32 1.76 7.1 1.49 15.66 6.59 20.2 12.31 1.34 1.67 3.46 5.67 3.56 7.56.16 2.52-1.52 6.47-3.9 7.5-1.84.8-5.43 1.24-6.19 3.45-3.08 9.03 20.53 10.81 25.17 11.41 9.81 1.24 37.69 4.22 37.55 18.24-.12 10.31-21.68 12.43-29.04 13.4-11.69 1.52-23.4 3.26-35.03 4.23-4.92.4-20.68 2.08-12.33 9.81 2.83 2.63 6.25 3.02 3.88 8.52-3.41 7.87-28.31 7.54-35.81 8.38-9.35 1.02-71.77 1.94-83.49 1.21-15.1-.93-30.22.29-45.32-.19-13.06-.42-30.59-.89-40.51-10.73-4.63-4.61-2.15-8.64-4.47-13.68-1.06-2.31-2.7-3.69-4.68-4.56Z"/><path fill="#374D7B" d="M1263.53 1194.42h-54.22l-4.9-46.01h64.01l-4.89 46.01Z"/><path fill="#374D7B" d="m1205.42 1151.15-9.07-64.22 2.19-.3 9.08 64.21-2.2.31Zm61.53 0-2.18-.31 9.08-64.21 2.18.3-9.08 64.22Zm-12.44-.04-6.16-65.83 2.2-.2 6.16 65.81-2.2.22Zm-36.01.78-2.21-.18 5.49-65.03 2.2.19-5.48 65.02Z"/><path fill="#EB574D" d="M1346.39 949.724c0 60.736-49.24 109.966-109.97 109.966-60.75 0-109.98-49.23-109.98-109.966 0-60.746 49.23-109.971 109.98-109.971 60.73 0 109.97 49.225 109.97 109.971Z"/><path fill="#FDFCF8" d="M1302.59 949.724c0 60.736-29.62 109.966-66.17 109.966-36.56 0-66.19-49.23-66.19-109.966 0-60.746 29.63-109.971 66.19-109.971 36.55 0 66.17 49.225 66.17 109.971Z"/><path fill="#EB574D" d="M1260.53 949.724c0 60.736-10.8 109.966-24.11 109.966-13.32 0-24.12-49.23-24.12-109.966 0-60.746 10.8-109.971 24.12-109.971 13.31 0 24.11 49.225 24.11 109.971Z"/><path fill="#E8374B" d="M1162.17 1030.87c.74.94 8.41 10.66 21.41 31.6 7.25 11.66 13.87 28.88 13.87 28.88h77.93s6.88-18.48 13.89-30.9c7.41-13.12 17.99-25.48 21.61-29.58h-148.71Z"/></svg>