<svg xmlns="http://www.w3.org/2000/svg" width="737" height="555" fill="none"><path fill="#FBFDFD" d="M736.323 57.94c-.102.378-.204.756-1.192 2.038-20.131.904-39.377.904-59.673.904 1.546 29.387 3.028 57.599 4.523 85.811.088 1.663-.282 3.709.541 4.897 1.528 2.203 3.468 4.483 5.777 5.726 33.601 18.079 37.184 62.254 7.163 85.686-2.962 2.311-5.32 7.452-5.257 11.234.303 18.174 1.534 36.331 2.458 54.945h-54.782c.862-18.363 1.294-36.255 2.759-54.061.514-6.245-1.471-9.508-6.14-13.123-26.776-20.73-26.623-61.785 1.531-80.306 9.763-6.423 13.715-12.688 12.8-23.351-.056-.655.104-1.326.138-1.991 1.253-24.835 2.504-49.67 3.761-74.646h-81.438v114.912c-56.055-56.867-122.124-86.343-200.309-85.48-78.516.868-144.106 32.111-199.557 91.106V60.565H8.649V7.666h15.504c233.606.001 467.211 0 700.817.019 3.656 0 7.313.232 10.969.356.025.345.05.69.079 2.452.105 16.76.205 32.104.305 47.447Z"/><path fill="#283E50" d="M735.785 7.285c-3.502.632-7.159.4-10.815.4-233.606-.018-467.211-.018-700.817-.019H8.649v52.899h160.777V182.24c55.451-58.995 121.041-90.238 199.557-91.105 78.185-.864 144.254 28.612 200.309 85.479V61.703h81.438c-1.258 24.977-2.508 49.811-3.761 74.646-.034.665-.194 1.336-.138 1.991.915 10.663-3.037 16.928-12.8 23.351-28.154 18.521-28.308 59.576-1.531 80.306 4.669 3.615 6.654 6.878 6.14 13.123-1.465 17.806-1.897 35.698-2.759 54.061h54.782c-.924-18.613-2.155-36.771-2.458-54.945-.063-3.782 2.295-8.923 5.256-11.234 30.022-23.432 26.439-67.607-7.162-85.686-2.309-1.242-4.249-3.523-5.777-5.726-.823-1.188-.453-3.234-.541-4.896-1.495-28.212-2.977-56.425-4.523-85.812 20.296 0 39.542 0 59.678-.316-2.334 2.24-5.503 6.866-8.796 6.956-9.172.25-18.569-.584-27.545-2.525-7.061-1.527-11.56-.315-12.324 6.857-1.023 9.609-1.258 19.332-1.28 29.008-.029 12.619.47 25.24.763 37.859.197 8.475 3.64 14.553 12.109 17.497 2.163.752 5.227 3.069 5.349 4.842.672 9.757 7.547 11.766 15.081 12.878 7.663 1.131 7.773 4.095 3.832 9.98-2.16 3.224-3.029 7.693-3.358 11.693-.97 11.817-1.331 23.683-2.098 35.519-.071 1.094-1.282 2.974-2.068 3.03-8.563.607-9.089 8.006-13.047 13.132-5.004 6.48-5.572 11.531-4.571 18.864 1.352 9.9.302 20.13 1.664 30.028.651 4.73 7.906 8.632 1.618 14.187-1.872 1.653-4.151 3.812-6.359 3.956-12.914.843-25.865 1.116-38.799 1.675-3.635.157-8.008-.556-10.743 1.178-8.886 5.634-15.447-.856-18.277-5.892-2.491-4.434.79-12.232 1.847-18.491.541-3.207 2.235-6.238 2.643-9.446 1.758-13.824-2.704-26.656-7.004-39.427-.889-2.643-3.187-4.792-4.714-7.245-3.686-5.914-10.338-11.863-10.359-17.817-.058-16.364 1.745-32.92 4.859-49.003.977-5.047 7.745-11.133 13.086-12.784 18.734-5.789 15.257-20.911 15.937-34.214.67-13.085.003-26.24.726-39.32.508-9.176-4.02-15.477-13.01-15.543-14.656-.107-29.322.287-43.965-.158-7.702-.234-10.751 2.237-10.5 10.24.481 15.307 1.766 30.862-.282 45.906-2.458 18.047-.114 35.832-.928 53.689-.154 3.394-4.032 6.618-6.192 9.921-2.247-2.358-4.484-4.726-6.746-7.07a825.286 825.286 0 0 0-8.106-8.313c-2.627-2.646-4.997-5.678-8.007-7.788-13.276-9.308-22.306-24.409-39.067-28.831-1.843-.486-4.232 1.094-7.323 1.994-2.404-11.532-10.786-14.682-21.081-16.354-5.204-.845-9.837-4.833-14.901-6.998-11.611-4.965-23.218-9.985-36.425-8.343-2.313.288-5.061-.435-7.188-1.517-21.859-11.122-45.325-8.476-68.48-7.92-3.332.079-6.592 2.864-9.9 4.366-1.72.781-4.328 2.63-5.079 2.064-9.271-6.984-13.703.928-19.542 6.807-10.549-11.178-19.934 2.282-28.345.852-2.446 5.137-4.037 9.46-6.542 13.165-.795 1.176-4.933 1.747-5.998.821-7.62-6.627-13.727-2.093-20.407 1.72-5.855 3.342-12.239 5.747-18.301 8.745-1.328.657-2.151 2.275-3.434 3.097-3.761 2.407-7.637 4.636-12.471 7.538 2.656 12.603-15.035 7.609-18.157 17.266 3.507 3.212 7.092 6.495 10.373 10.533-.876 1.389-1.453 2.021-1.991 2.684-.012.014.42.388.645.594l2.075-2.674c6.603-.855 13.308-1.274 19.754-2.795 2.349-.554 5.039-3.374 5.924-5.77 3.573-9.67 7.947-11.627 18.655-11.088 4.459.225 9.082-4.12 13.739-6.138a304.212 304.212 0 0 1 16.393-6.547c4.919-1.801 11.177-1.942 14.712-5.158 11.115-10.115 22.33-10.517 36.771-7.508 13.004 2.71 27.437.196 40.962-1.851 8.018-1.214 15.481-6.03 23.234-9.123 1.525-.608 3.662-1.557 4.796-.966 7.876 4.1 17.59 6.922 22.785 13.336 6.259 7.727 13.134 9.585 21.521 9.496 7.975-.085 13.907 1.163 19.681 8.344 4.165 5.179 13.016 6.971 20.096 9.304 5.751 1.895 11.977 2.349 17.992 3.442l-.374 3.221-8.004 1.96c4.408 2.716 7.015 5.635 9.751 5.762 8.27.384 16.09.663 20.597 9.29.37.709 2.96.582 4.425.32 2.181-.389 4.28-1.245 6.413-1.903.019 2.841.528 5.782-.026 8.506-2.865 14.103-.091 17.74 11.957 17.315 3.961 5.246 6.403 11.58 10.855 13.709 8.392 4.013 9.434 10.044 9.413 17.851-.024 8.706 2.18 16.169 14.385 15.346-3.727 14 .661 24.716 8.905 33.802 1.17 4.345 2.203 8.734 3.553 13.023 1.169 3.717 3.533 7.237 3.904 10.989a328.095 328.095 0 0 1 1.566 29.673c.153 19.877-.081 39.758-.21 59.638-.049 7.533-1.492 15.306-.087 22.54 2.083 10.725-7.441 14.889-10.682 22.482-2.246 5.263-5.338 12.75-9.493 13.863-3.896 1.043-9.669-5.017-14.659-7.874-.84-.481-1.894-.765-2.866-.813-7.411-.365-15.705 2.667-21.014-5.595-3.156 2.112-7.249 3.578-9.256 6.484-3.311 4.794-3.891 11.216-13.052 7.554-3.02-1.208-9.296 3.762-13.119 7.033-4.573 3.911-8.061 9.076-12.126 13.602-1.525 1.698-4.633 2.988-4.817 4.701-.807 7.497-5.335 8.649-11.693 8.868-5.761.199-7.922 4.276-7.116 9.802.431 2.956 1.649 5.884 1.592 8.807-.129 6.558-.571 12.225-10.25 12.133-9.392-.089-17.988 1.383-23.436 12.73-3.678 7.661-13.088 14.802-21.42 17.391-8.989 2.794-20.228 1.775-29.494-.95-6.27-1.845-8.922-8.846-7.968-18.037 1.263-12.175 12.54-23.435 4.08-37.033-1.019-1.636 4.07-7.611 6.964-11.037 7.221-8.549 7.414-17.57-.681-27.471l-3.305 14.625-3.356.014-3.524-22.24c3.678 0 5.65.386 7.367-.11 1.659-.479 3.055-1.867 4.566-2.856-1.121-1.369-2.015-3.579-3.403-3.953-4.589-1.234-9.329-2.053-14.062-2.571-6.753-.739-13.489-.842-12.865-10.709.147-2.31-2.267-4.675-2.973-7.164-3.534-12.46-7.457-24.859-9.926-37.535-.643-3.304 2.962-7.893 5.497-11.221 2.304-3.025 5.806-5.138 10.232-8.882 12.493-.251 24.088-16.117 20.037-30.596-2.392-8.55.96-12.833 10.394-14.105 9.669-1.305 11.895-10.475 14.627-17.112 2.787-6.775 1.661-15.16 2.297-23.478 7.694 2.595 13.989-10.139 23.723-3.866.557.359 2.943-.766 3.312-1.675 3.781-9.309 13.084-11.614 20.097-16.96 6.185-4.716 10.02-12.515 14.457-18.377 8.416 0 17.095.048 25.773-.053 1.249-.015 2.701-.458 3.703-1.191 9.518-6.962 9.362-6.936 14.141 4.598 1.091 2.633 3.018 5.451 5.357 6.889 2.518 1.549 5.972 1.576 9.018 2.267.753-3.645 2.113-7.307 2.005-10.926-.055-1.834-2.519-3.896-4.321-5.309-2.99-2.344-7.453-3.54-9.296-6.475-4.887-7.787-15.751-11.066-16.352-22.293-.094-1.747-5.103-3.502-8.047-4.77-6.686-2.88-13.502-5.459-20.569-8.282l-9.724 17.441-3.489-.615-2.879-9.268-2.032-.425-2.041 20.051c-1.498.636-4.198 1.415-6.503 2.835-5.775 3.557-11.351 7.435-17.053 11.114-1.651 1.065-4.094 1.449-5.094 2.894-8.892 12.843-20.403 14.801-35.162 11.579-3.639-.794-9.453 8.044-14.142 12.583-1.521 1.472-2.572 4.754-3.96 4.825-8.74.45-17.514.228-25.635.228 0-9.729 1.555-18.17-.616-25.508-1.195-4.037-8.659-6.219-13.296-9.237l-2.719 1.155c.986 3.892.757 8.956 3.177 11.466 8.538 8.858 9.074 10.509 1.848 20.672-.938 1.32-1.734 2.741-2.506 3.972 8.582 11.363 5.374 17.347-6.981 24.091-9.94 5.427-18.068 3.214-27.379-.139l-.582 3.041c-7.585-1.499-16.351-6.166-21.272-3.563-8.883 4.698-16.955 6.939-26.645 5.681-.581-.075-2.722 5.97-2.792 9.197-.111 5.127.912 10.278 1.365 14.566l-10.811 1.766c2.154 2.434 4.531 4.709 6.396 7.347 1.714 2.425 3.794 5.145 4.081 7.905.507 4.879-.764 9.934-.325 14.828.878 9.786 4.354 12.167 15.921 10.446 2.247 7.044 4.186 14.554 7.128 21.648 1.213 2.926 4.582 4.958 8.514 5.899l3.604 14.841c12.873-4.668 12.284-4.591 13.97 8.31.548 4.191 4.253 9.088 7.931 11.504 6.387 4.194 8.585 8.261 5.618 15.665-1.75 4.367-1.618 9.488-2.05 12.382-3.746 3.058-7.176 5.111-9.625 7.995-7.845 9.243-15.74 18.5-22.762 28.359-3.156 4.43-3.844 10.543-6.496 15.435-1.764 3.253-5.022 5.696-8.46 8.059-1.494-1.005-2.134-1.574-2.808-2.1-.021-.016-.392.418-.6.642l2.636 2.131c-13.936 8.095-14.063 24.274-20.604 36.086-5.725-3.189-13.175-4.879-15.829-9.39-4.013-6.821-6.521-15.645-6.364-23.552.268-13.516 5.268-27.151 4.237-40.421-1.028-13.237-1.702-27.63-14.61-37.843-5.796-4.585-11.685-11.821-8.455-22.683 3.125-10.507 3.395-22.133 3.163-33.231-.09-4.273-4.101-10.028-7.972-12.289-5.695-3.325-9.609-5.501-8.69-13.358.921-7.872-6.347-11.367-13.97-7.999-1.693.747-4.815.839-5.852-.196-1.168-1.167-.725-3.949-.979-6.029-.444-3.637-.156-10.118-1.445-10.448-8.215-2.104-8.34-9.239-11.751-14.689-2.546-4.069-9.23-6.531-14.511-7.662-6.958-1.49-8.838-4.188-7.179-10.998 1.543-6.334 7.144-12.423 2.087-19.645-.348-.498 1.346-2.86 2.496-3.909 18.681-17.016 19.599-18.855 19.283-39.732 14.659-6.403 22.126-18.487 16.668-26.971 22.879-5.926 20.422-9.503 11.806-27.902-7.44 1.32-14.337 3.397-21.192 3.267-2.209-.042-6.011-5.836-6.121-9.098-.274-8.159 1.691-16.368 1.789-24.568.288-23.995.138-47.996.09-71.995-.025-12.24-.631-12.83-13.187-12.842-35.331-.035-70.663.022-105.994-.038-7.873-.013-15.756-.672-23.61-.377-2.84.106-5.61 2.136-8.888 3.485C4.532 66.171 2.106 59.916 3.27 49.205 4.73 35.77 1.489 21.83.33 8.103.165 6.159.306 4.189.306.316c9.843 0 19.184-.217 28.51.07 7.284.223 14.55 1.565 21.824 1.568 223.322.088 446.644.043 669.966.261 5.009.005 10.016 2.813 15.178 5.07ZM449.824 522.169c6.196-5.918 14.643-10.759 18.101-17.987 6.378-13.332 15.932-22.546 27.628-30.637 5.975-4.134 11.062-9.551 18.457-16.067-15.976-1.259-19.957-10.128-21.448-21.278-1.322-9.891-3.049-19.728-4.353-29.621-.421-3.193-.066-6.488-.066-9.737l2.925-.074c.848 3.759 2.024 7.479 2.48 11.286 1.265 10.564 1.745 21.249 3.58 31.704.632 3.601 3.662 8.444 6.78 9.642 10.302 3.959 30.512-3.878 37.036-13.198-5.592-7.326-11.174-14.639-16.281-23.082 2.719.295 5.733-.048 8.086 1.039 3.18 1.469 5.853 4.037 8.876 7.538 10.645 13.23 24.585 20.789 41.084 24.069 6.228 1.238 8.788-1.549 10.532-7.329 16.035-53.148 14.926-105.68-5.435-157.488-10.404-26.471-27.624-48.537-44.874-70.897-16.544-21.447-38.689-35.123-61.189-47.473-21.305-11.693-44.795-19.219-69.441-23.711-29.361-5.352-58.449-4.584-87.117-.126-36.333 5.65-69.008 21.789-97.937 44.737-28.571 22.665-51.508 49.91-66.221 83.817 0 0 .14.118-.88 1.041-2.907 7.072-5.444 14.326-8.821 21.166-3.624 7.341-1.029 11.512 5.276 15.566 4.837 3.109 9.425 7.111 12.96 11.627 6.026 7.697 10.402 16.754 16.81 24.066 8.955 10.219 19.196 19.304 28.777 28.984 5.39 5.446 6.092 11.391 1.745 18.024-7.26 11.078-6.932 22.535-.942 34.046 3.375 6.486 6.352 13.248 10.36 19.323 7.824 11.861 11.327 24.613 10.286 38.754-1.124 15.267-2.514 30.543-2.723 45.83-.053 3.949 3.886 7.952 5.991 11.93 3.314-2.955 8.652-5.379 9.591-8.957 4.079-15.534 13.655-26.621 24.585-37.83 11.925-12.228 21.776-26.546 31.976-40.363 5.848-7.921 3.378-15.18-3.037-22.353a947.852 947.852 0 0 1-35.97-42.677c-8.086-10.195-16.81-18.763-30.168-21.34-6.449-1.245-10.902-4.806-10.804-12.173 0 0 .057-.054 1.681-.494l17.291 2.347c-.622-2.004-.633-3.574-1.423-4.358-11.319-11.22-22.175-23.151-39.125-25.95-4.086-.674-11.027-1.554-7.589-6.958 3.146-4.946 10.132-8.39 16.119-10.191 3.003-.903 8.327 2.545 11.211 5.42 4.107 4.095 6.935 9.473 11.779 16.406 1.698-5.554 3.655-8.894 3.559-12.174-.416-14.231 7.968-20.865 19.977-25.163 17.018-6.091 34.072-8.205 51.905-3.496 11.859 3.132 16.387.04 19.807-11.894 4.161-14.522 3.213-29.043-1.269-43.27-2.888-9.168-8.645-11.055-16.927-5.885-4.214 2.631-7.819 6.222-11.966 8.98-3.608 2.4-7.589 4.238-11.405 6.324l-3.284-2.27c3.294-9.474 6.411-19.014 9.941-28.4 2.644-7.032 7.834-8.767 14.427-5.337 8.551 4.449 16.677 9.869 25.554 13.473 4.521 1.835 11.461 2.607 15.247.37 8.526-5.036 11.23-21.84 6.798-31.95-5.137-11.717-13.65-16.578-26.322-14.836-5.383.74-10.725 1.788-16.085 2.696 11.814-8.519 24.117-15.874 37.357-20.602 4.828-1.724 14.912.944 17.308 4.852 5.235 8.537 9.807 13.814 20.282 7.768 3.38 19.627-.113 35.465-13.322 48.499-9.328 9.205-16.479 19.5-15.005 33.335.336 3.159 2.611 7.244 5.211 8.65 1.871 1.012 6.783-.839 8.586-2.926 9.616-11.131 22.418-14.501 36.087-17.285 17.523-3.57 34.818-8.911 42.546-27.504 5.086-12.236 8.758-25.06 14.412-37.915.904.107 1.807.213 3.521 1.392 6.384 3.229 13.257 5.756 19.063 9.811 21.764 15.197 41.529 32.701 56.425 54.873 2.215 3.296 2.236 10.591.041 13.877-8.489 12.711-11.667 12.678-23.194 2.777-11.104-9.537-23.333-11.346-32.911-4.53-5.118 3.642-10.225 7.427-14.734 11.773-12.766 12.306-26.052 24.595-18.59 45.292.082.227-.23.597-.359.9-10.293 2.067-15.611-2.398-18.54-13.594-1.034-3.954-5.077-7.121-7.746-10.648-2.298 3.924-6.684 7.937-6.522 11.757.602 14.205-4.27 24.953-15.324 33.859-7.567 6.098-14.661 13.494-2.784 22.9-10.599 8.133-20.08 15.409-29.562 22.683-8.952 6.866-12.453 16.1-11.892 27.149.837 16.479 9.467 27.177 28.233 32.979 10.459 3.234 17.523 8.493 16.384 20.199-1.147 11.803-2.913 23.566-4.909 35.261-2.392 14.017-6.027 27.855-7.783 41.937-1.427 11.442 2.637 14.362 14.122 12.579 15.448-2.399 25.777-12.855 36.097-23.017 0 0 .099.13 1.386-.262ZM212.483 185.84l-13.172-10.513-3.607 3.667c2.581 3.504 4.688 7.609 7.984 10.205 1.261.993 5.242-1.467 8.795-3.359Zm193.133-58.465a9114.79 9114.79 0 0 0-1.329-3.034l-2.687 1.815c.977.521 1.953 1.042 4.016 1.219Zm66.113 61.725.327 1.736c.132-.573.264-1.147-.327-1.736Z"/><path fill="#283E50" d="M402.081 257.126c4.503-.445 8.427-.445 13.773-.445-7.402 6.978-10.913 6.837-13.773.445ZM505.188 151.17c2.105-1.568 4.426-2.52 6.748-3.473l.5 6.048c-2.344-.653-4.688-1.307-7.248-2.575ZM282.021 381.269c-.162-.002.009-.519.009-.519s.153.521-.009.519Z"/><path fill="#F89F40" d="M541.493 420.292c-2.891-2.097-5.564-4.664-8.744-6.134-2.353-1.086-5.367-.744-8.912-.257-.525 3.507-1.053 6.743.245 8.857 2.867 4.664 6.654 8.764 11.881 15.397-9.542 3.038-16.792 5.9-24.308 7.558-5.661 1.249-9.043-1.284-9.84-7.966-1.61-13.509-4.271-26.891-6.334-40.35-.381-2.489-.615-5.301.147-7.613 4.165-12.626 1.199-17.551-11.756-21.971-7.011-2.391-13.698-6.183-19.941-10.249-6.574-4.282-11.868-10.826-18.785-14.2-6.835-3.334-14.923-3.38-21.584 2.344-6.787 5.833-5.392 11.025 2.496 14.958 7.171 3.577 13.443 8.953 20.115 13.531 9.411 6.457 18.13 14.677 28.481 18.742 6.921 2.719 8.821 4.783 9.576 11.796 1.998 18.558.283 38.188 13.269 54.239 1.055 1.304.176 5.887-1.334 7.244-5.403 4.855-11.747 8.66-17.18 13.487-3.748 3.328-6.77 7.546-9.779 11.616-4.966 6.717-8.344 15.722-14.868 19.834-5.586 3.521-6.664 6.128-5.801 11.406 0 0-.099-.13-.772-.028-5.304 2.455-10.012 4.668-14.546 7.195-5.466 3.046-10.445 7.344-16.241 9.331-9.266 3.177-13.677-.063-12.816-9.812 1.04-11.767 2.486-23.796 6.077-34.966 4.573-14.229 7.449-28.511 5.313-43.088-.925-6.308-5.059-16.066-9.52-17.193-12.855-3.25-23.691-6.62-30.691-19.446-6.934-12.704-7.01-22.142 3.456-32.304 2.601-2.524 5.896-4.317 8.655-6.697 11.43-9.858 27.048-17.085 22.844-36.857-.371-1.746 1.956-5.235 3.856-6.103 12.527-5.721 15.275-16.472 15.877-28.676.172-3.478 1.124-6.917 1.717-10.374l2.936.149c.515 2.746.969 5.504 1.558 8.234 1.92 8.907 13.238 15.957 22.509 12.887 8.743-2.896 4.995-10.253 3.837-16.133-1.398-7.093-.374-13.069 5.551-17.917 7.478-6.118 14.58-12.697 22.069-18.8 13.638-11.116 14.633-10.775 28.814-1.434 8.8 5.797 18.878 10.531 28.308 1.976 5.519-5.008 9.079-12.175 13.154-17.859 3.358 4.411 8.445 9.955 12.172 16.298 3.98 6.773 6.755 14.266 9.92 21.504 10.887 24.907 15.503 51.137 17.582 78.124 1.937 25.145-5.213 48.709-10.175 72.737-1.597 7.735-7.114 7.943-12.094 5.944-8.46-3.395-16.366-8.18-24.473-12.44-4.01-2.106-7.95-4.343-11.921-6.521ZM472.113 172.541c-.904-.106-1.807-.212-3.763-.603-1.919-.112-3.341-.207-3.571.271-3.167 6.593-6.037 13.329-9.263 19.892-1.914 3.895-5.972 7.44-6.222 11.325-.946 14.736-18.384 26.397-32.145 19.801.275 10.316-5.969 11.589-14.248 11.063-3.387-.216-7.174 1.282-10.329 2.887-7.672 3.901-15.08 8.321-22.832 12.665-1.967-11.552 4.412-23.877 13.57-30.332 4.27-3.01 9.206-7.699 10.124-12.358 3.06-15.525 4.437-31.382 6.677-48.813-11.25 2.788-20.154 1.033-27.102-6.329-7.118-7.543-14.791-7.355-23.479-3.074-8.584 4.232-17.144 9.139-26.295 11.385-6.647 1.632-13.913-.465-12.393 10.345.416 2.957-2.168 7.986-.994 8.859 2.8 2.08 7.001 2.894 10.673 3.004 3.554.107 7.134-1.42 10.736-2.028 15.44-2.609 25.398 6.219 22.397 21.237-1.001 5.012-6.216 9.537-10.432 13.225-.765.67-5.847-4.179-9.252-5.83-9.145-4.436-18.417-8.623-27.766-12.611-1.134-.484-3.197.599-4.575 1.397-8.05 4.656-14.003 10.767-15.363 20.631-.464 3.375-2.4 6.644-4.078 9.736-3.95 7.277-1.451 12.712 4.664 17.033 5.521 3.9 9.911 5.971 15.393-1.821 4.331-6.157 12.219-9.812 18.527-14.579l3.554 2.049c1.25 6.3 2.481 12.603 3.755 18.898 1.972 9.74-3.339 16.983-7.248 25.201-2.583 5.428-3.946 6.508-9.708 6.068-13.111-1.002-26.434-1.811-39.458-.531-10.104.993-19.886 5.267-29.84 8.091l-8.057 23.227c-1.666-.707-3.095-.918-3.944-1.734-13.144-12.624-15.518-12.787-31.387-3.397-5.228 3.094-10.974 6.87-7.395 12.959 2.989 5.085 4.234 13.629 15.453 11.048 12.305-2.83 19.11 7.153 14.905 18.637-.701 1.913-.138 4.529.467 6.641 3.598 12.562 16.161 13.473 25.131 19.055 2.444 1.52 6.021 2.165 7.402 4.297 9.296 14.342 18.653 28.538 31.827 39.794 3.75 3.205 7.677 6.666 10.1 10.836 2.677 4.606 6.566 11.443 4.937 15.061-4.669 10.364-11.027 20.279-18.283 29.085-8.475 10.286-18.605 19.207-28.004 28.734-3.475 3.522-6.911 7.082-10.365 10.624l-2.704-1.383c0-13.524.872-27.12-.238-40.552-1.181-14.273-1.499-28.438-12.94-40.653-10.365-11.065-15.24-25.56-6.134-41.282 2.439-4.212 4.341-11.842 2.204-15.036-7.482-11.187-16.709-21.232-25.519-31.499-7.154-8.337-14.704-16.332-21.998-24.551-5.097-5.744-9.27-12.677-15.297-17.125-6.248-4.611-6.624-8.333-4.017-15.051 2.277-5.868 2.222-12.642 3.196-19.016 0 0-.139-.118.72.014 3.763.133 6.666.133 7.829.133 2.859-6.949 4.246-13.238 7.669-18.092 10.337-14.664 20.205-30.002 32.645-42.743 12.013-12.304 26.301-22.79 40.839-32.129 21.597-13.876 44.239-26.142 71.293-25.545 1.286.028 2.563-2.435 3.956-3.604 1.422-1.193 2.899-3.02 4.497-3.189 9.526-1.006 19.125-1.338 28.642-2.404 34.467-3.858 66.67 5.9 98.497 16.861 6.541 2.253 14.578 6.059 14.359 15.825Z"/><path fill="#DBA05E" d="M160.657 267.876c-.464 5.912-.409 12.686-2.686 18.555-2.607 6.718-2.231 10.439 4.017 15.05 6.027 4.449 10.2 11.382 15.297 17.126 7.294 8.218 14.844 16.213 21.998 24.55 8.81 10.267 18.037 20.312 25.519 31.499 2.137 3.195.235 10.824-2.204 15.036-9.106 15.723-4.231 30.218 6.134 41.283 11.441 12.214 11.759 26.379 12.94 40.652 1.111 13.432.238 27.028.238 40.552l2.704 1.383c3.454-3.542 6.89-7.102 10.365-10.624 9.399-9.527 19.529-18.448 28.004-28.734 7.256-8.805 13.614-18.721 18.283-29.085 1.629-3.617-2.26-10.455-4.937-15.061-2.423-4.17-6.349-7.631-10.099-10.835-13.175-11.257-22.532-25.453-31.827-39.795-1.382-2.132-4.959-2.777-7.403-4.297-8.97-5.582-21.533-6.493-25.131-19.055-.605-2.112-1.168-4.728-.467-6.641 4.205-11.484-2.599-21.467-14.905-18.636-11.219 2.58-12.464-5.964-15.453-11.049-3.579-6.089 2.167-9.865 7.396-12.958 15.868-9.39 18.242-9.228 31.386 3.396.849.816 2.278 1.027 3.944 1.734l8.057-23.227c9.954-2.824 19.736-7.098 29.84-8.091 13.024-1.28 26.347-.471 39.458.531 5.762.44 7.125-.64 9.708-6.068 3.909-8.218 9.22-15.461 7.248-25.2-1.274-6.295-2.505-12.599-3.755-18.899l-3.554-2.048c-6.308 4.766-14.196 8.421-18.527 14.578-5.482 7.792-9.872 5.722-15.393 1.821-6.115-4.321-8.614-9.755-4.664-17.033 1.678-3.092 3.614-6.361 4.079-9.736 1.359-9.864 7.312-15.975 15.362-20.631 1.378-.797 3.441-1.88 4.575-1.396 9.349 3.987 18.621 8.174 27.766 12.61 3.405 1.652 8.487 6.5 9.252 5.83 4.216-3.688 9.431-8.213 10.432-13.224 3.001-15.018-6.957-23.847-22.396-21.238-3.603.608-7.183 2.135-10.737 2.028-3.672-.11-7.873-.923-10.673-3.004-1.174-.872 1.41-5.901.994-8.859-1.52-10.81 5.746-8.713 12.393-10.344 9.151-2.247 17.711-7.154 26.295-11.385 8.688-4.282 16.362-4.47 23.479 3.073 6.948 7.362 15.852 9.118 27.102 6.329-2.24 17.431-3.617 33.288-6.677 48.813-.918 4.66-5.854 9.348-10.124 12.358-9.158 6.455-15.537 18.78-13.57 30.332 7.752-4.344 15.16-8.764 22.832-12.665 3.155-1.605 6.942-3.103 10.329-2.887 8.279.526 14.523-.747 14.248-11.063 13.761 6.596 31.199-5.065 32.145-19.8.25-3.886 4.308-7.431 6.222-11.326 3.226-6.562 6.096-13.299 9.263-19.892.23-.478 1.652-.383 2.897-.123-3.927 12.991-7.6 25.815-12.686 38.051-7.728 18.593-25.022 23.934-42.546 27.504-13.669 2.784-26.471 6.154-36.086 17.285-1.804 2.087-6.716 3.938-8.587 2.926-2.6-1.406-4.874-5.491-5.211-8.65-1.474-13.835 5.677-24.13 15.005-33.335 13.209-13.034 16.702-28.872 13.322-48.499-10.474 6.046-15.046.769-20.282-7.768-2.396-3.908-12.48-6.576-17.308-4.852-13.24 4.729-25.543 12.083-37.357 20.602 5.36-.908 10.702-1.956 16.086-2.696 12.672-1.742 21.184 3.119 26.321 14.836 4.432 10.11 1.728 26.914-6.798 31.95-3.786 2.237-10.725 1.465-15.247-.37-8.877-3.604-17.003-9.024-25.554-13.473-6.593-3.429-11.783-1.694-14.427 5.338-3.53 9.385-6.647 18.925-9.941 28.399l3.284 2.27c3.816-2.086 7.798-3.924 11.406-6.324 4.146-2.758 7.751-6.349 11.965-8.98 8.283-5.169 14.039-3.283 16.927 5.885 4.483 14.227 5.43 28.748 1.269 43.27-3.42 11.934-7.948 15.026-19.807 11.894-17.833-4.709-34.887-2.595-51.905 3.496-12.009 4.298-20.393 10.932-19.977 25.163.096 3.28-1.861 6.62-3.559 12.174-4.844-6.933-7.672-12.311-11.779-16.406-2.884-2.875-8.208-6.323-11.211-5.42-5.987 1.801-12.973 5.246-16.119 10.191-3.438 5.404 3.503 6.284 7.589 6.959 16.95 2.798 27.807 14.729 39.125 25.95.79.783.802 2.353 1.423 4.357l-18.112-2.459c-1.107.04-1.393.192-1.679.345l.762.311c-.041 7.317 4.412 10.878 10.861 12.123 13.358 2.577 22.082 11.145 30.169 21.34a945.976 945.976 0 0 0 35.97 42.677c6.414 7.174 8.884 14.432 3.037 22.353-10.201 13.817-20.052 28.135-31.977 40.364-10.93 11.208-20.506 22.295-24.585 37.829-.939 3.579-6.277 6.002-9.591 8.957-2.105-3.978-6.044-7.981-5.99-11.93.208-15.287 1.598-30.563 2.722-45.83 1.041-14.141-2.461-26.893-10.286-38.754-4.008-6.075-6.985-12.837-10.36-19.323-5.989-11.511-6.318-22.968.942-34.046 4.347-6.633 3.645-12.578-1.745-18.024-9.58-9.68-19.821-18.765-28.777-28.984-6.407-7.312-10.784-16.369-16.809-24.066-3.536-4.516-8.124-8.518-12.961-11.627-6.305-4.054-8.899-8.225-5.276-15.566 3.377-6.84 5.914-14.094 9.331-21.627Zm84.877 253.338c-5.689-2.756-5.857-2.569-5.249 8.217 2.384-3.179 3.762-5.016 5.249-8.217Z"/><path fill="#DBA05E" d="M472.518 173.078c-.186-10.302-8.223-14.109-14.764-16.362-31.827-10.961-64.03-20.719-98.497-16.861-9.517 1.066-19.116 1.398-28.642 2.404-1.598.169-3.075 1.996-4.497 3.189-1.393 1.169-2.67 3.632-3.956 3.604-27.054-.597-49.696 11.67-71.293 25.545-14.538 9.34-28.826 19.825-40.839 32.129-12.44 12.741-22.308 28.079-32.645 42.743-3.423 4.854-4.81 11.143-7.669 18.092-1.163 0-4.066 0-7.801-.22 13.825-33.952 36.762-61.197 65.334-83.862 28.928-22.948 61.603-39.087 97.936-44.737 28.668-4.458 57.756-5.225 87.117.126 24.646 4.492 48.136 12.019 69.441 23.711 22.5 12.35 44.645 26.026 61.19 47.473 17.25 22.36 34.47 44.426 44.873 70.897 20.361 51.808 21.47 104.34 5.435 157.488-1.744 5.78-4.304 8.568-10.532 7.33-16.499-3.281-30.439-10.84-41.15-24.772 3.905 1.475 7.846 3.712 11.855 5.819 8.107 4.259 16.013 9.044 24.473 12.44 4.98 1.999 10.498 1.79 12.094-5.944 4.962-24.029 12.113-47.593 10.175-72.738-2.079-26.986-6.695-53.217-17.582-78.124-3.165-7.238-5.94-14.731-9.92-21.504-3.727-6.343-8.814-11.887-12.172-16.298-4.075 5.684-7.635 12.851-13.154 17.859-9.43 8.555-19.508 3.821-28.308-1.975-14.181-9.342-15.176-9.683-28.814 1.433-7.489 6.103-14.591 12.682-22.069 18.8-5.925 4.848-6.949 10.824-5.551 17.917 1.158 5.88 4.906 13.237-3.837 16.133-9.271 3.07-20.589-3.979-22.509-12.887-.589-2.73-1.043-5.488-1.558-8.234l-2.936-.149c-.593 3.457-1.545 6.896-1.717 10.374-.602 12.204-3.35 22.955-15.877 28.676-1.9.868-4.227 4.358-3.856 6.103 4.204 19.772-11.414 26.999-22.844 36.857-2.759 2.38-6.054 4.173-8.655 6.697-10.466 10.162-10.39 19.6-3.456 32.304 7 12.826 17.836 16.197 30.691 19.446 4.461 1.128 8.595 10.885 9.52 17.193 2.136 14.577-.74 28.859-5.313 43.088-3.591 11.17-5.037 23.199-6.077 34.966-.861 9.749 3.55 12.989 12.816 9.812 5.796-1.987 10.775-6.285 16.241-9.331 4.534-2.527 9.242-4.74 14.622-7.224-9.723 10.089-20.052 20.545-35.5 22.944-11.485 1.783-15.549-1.137-14.122-12.579 1.756-14.082 5.391-27.92 7.783-41.937 1.996-11.695 3.762-23.458 4.91-35.261 1.138-11.706-5.926-16.965-16.385-20.199-18.766-5.802-27.396-16.5-28.233-32.979-.56-11.049 2.94-20.283 11.892-27.149 9.482-7.274 18.963-14.55 29.562-22.683-11.876-9.406-4.783-16.802 2.785-22.9 11.053-8.906 15.925-19.654 15.323-33.859-.162-3.82 4.224-7.833 6.522-11.757 2.669 3.527 6.712 6.694 7.746 10.648 2.929 11.196 8.247 15.661 18.54 13.594.129-.303.441-.673.359-.9-7.462-20.697 5.824-32.986 18.59-45.292 4.509-4.346 9.616-8.131 14.734-11.773 9.578-6.816 21.808-5.007 32.912 4.53 11.526 9.901 14.705 9.934 23.193-2.777 2.195-3.286 2.174-10.581-.041-13.877-14.895-22.172-34.661-39.676-56.424-54.873-5.807-4.055-12.68-6.582-19.469-10.347Zm10.329-3.682-2.437-.86-.556 1.592c1.013.068 2.026.135 2.993-.732Z"/><path fill="#DBA05E" d="M449.181 522.365c-1.507-5.081-.429-7.689 5.157-11.21 6.524-4.112 9.902-13.117 14.868-19.834 3.009-4.069 6.032-8.287 9.779-11.616 5.433-4.826 11.777-8.631 17.18-13.487 1.51-1.357 2.389-5.94 1.334-7.244-12.986-16.051-11.271-35.681-13.269-54.239-.755-7.012-2.655-9.077-9.576-11.795-10.351-4.066-19.07-12.286-28.481-18.743-6.672-4.578-12.944-9.954-20.115-13.53-7.888-3.934-9.283-9.126-2.496-14.959 6.661-5.724 14.749-5.678 21.584-2.344 6.917 3.374 12.211 9.918 18.785 14.2 6.243 4.066 12.93 7.858 19.941 10.25 12.955 4.419 15.921 9.344 11.756 21.97-.762 2.312-.528 5.125-.147 7.613 2.063 13.459 4.724 26.841 6.334 40.35.797 6.683 4.179 9.215 9.84 7.966 7.516-1.658 14.766-4.52 24.308-7.558-5.227-6.633-9.014-10.732-11.881-15.397-1.298-2.114-.77-5.349-.482-8.292 6.17 7.097 11.752 14.41 17.344 21.736-6.523 9.321-26.734 17.158-37.036 13.198-3.118-1.198-6.148-6.041-6.78-9.642-1.835-10.454-2.315-21.14-3.58-31.704-.456-3.807-1.632-7.526-2.479-11.286l-2.926.074c0 3.249-.354 6.544.066 9.737 1.304 9.893 3.031 19.731 4.353 29.621 1.491 11.15 5.472 20.02 21.448 21.278-7.395 6.516-12.482 11.934-18.457 16.067-11.696 8.092-21.25 17.305-27.628 30.637-3.458 7.228-11.905 12.069-18.744 18.183Zm22.563-134.643c8.587 3.005 16.204 1.662 24.26-6.485-5.35-3.31-10.179-6.285-14.994-9.282-10.336-6.432-21.405-11.961-30.798-19.56-10.551-8.536-16.951-9.264-24.974-1.279 10.11 8.44 20.312 17.112 30.698 25.557 4.606 3.745 9.584 7.03 15.808 11.049Z"/><path fill="#173E5F" d="M405.073 127.547c-1.52-.349-2.496-.87-3.473-1.391l2.687-1.815c.443 1.011.886 2.022.786 3.206ZM472.091 189.108c.23.581.097 1.155-.035 1.728-.109-.579-.218-1.157.035-1.728ZM267.959 516.037c-.918-.671-1.797-1.382-2.676-2.092.208-.224.579-.658.6-.642a9.961 9.961 0 0 1 2.077 2.136c.118.479.04.559-.001.598Z"/><path fill="#F89F40" d="M482.87 169.864c-.99.399-2.003.332-3.016.264l.556-1.592c.812.287 1.625.573 2.46 1.328Z"/><path fill="#283E50" d="M471.037 387.46c-5.517-3.756-10.495-7.042-15.1-10.787-10.387-8.445-20.589-17.116-30.699-25.557 8.023-7.985 14.423-7.257 24.974 1.28 9.393 7.599 20.462 13.127 30.798 19.56 4.815 2.997 9.644 5.971 14.994 9.282-8.056 8.147-15.672 9.49-24.967 6.222Z"/></svg>