<svg xmlns="http://www.w3.org/2000/svg" width="1671" height="643" fill="none"><path fill="#FBFDFD" d="M1669.6 86.72c-.1.378-.2.756-1.19 2.038-20.13.904-39.37.904-59.67.904 1.55 29.387 3.03 57.599 4.52 85.811.09 1.663-.28 3.709.54 4.897 1.53 2.203 3.47 4.483 5.78 5.726 33.6 18.079 37.19 62.254 7.16 85.686-2.96 2.311-5.32 7.452-5.25 11.234.3 18.173 1.53 36.331 2.45 54.944h-54.78c.86-18.363 1.3-36.254 2.76-54.06.52-6.245-1.47-9.508-6.14-13.123-26.77-20.73-26.62-61.785 1.53-80.306 9.77-6.423 13.72-12.688 12.8-23.351-.05-.655.11-1.326.14-1.991 1.25-24.835 2.5-49.669 3.76-74.646h-81.44v114.912c-56.05-56.867-122.12-86.343-200.3-85.479-78.52.867-144.11 32.11-199.56 91.105V89.345H941.93v-52.9h15.505c233.605.002 467.215.002 700.815.02 3.66 0 7.31.232 10.97.356.03.345.05.69.08 2.452.11 16.76.21 32.103.3 47.446Z"/><path fill="#0CB7EA" d="M824.004 253.219c2.24-39.984 21.103-67.488 57.521-82.127 22.248-8.942 45.754-11.547 69.601-11.094 39.769.755 71.234 17.047 93.464 50.383 20.2 30.305 16.58 71.125-8.23 93.289-13.13 11.728-34.74 13.669-52.588 4.722-15.27-7.655-25.343-25.623-22.725-43.097 1.564-10.439 4.902-20.664 8.021-30.807 4.059-13.201 8.008-26.501 2.616-40.004-6.066-15.188-18.142-22.528-34.353-22.811-16.16-.283-28.477 6.928-35.815 21.121-16.435 31.792-10.741 63.407 18.654 88.927 23.302 20.229 49.307 37.311 73.595 56.446 26.315 20.731 53.885 40.34 77.655 63.74 66.13 65.103 36.2 159.775-20.32 202.045-62.655 46.865-164.879 52.096-231.714 11.47-56.332-34.241-79.099-103.299-55.108-166.87 15.352-40.681 42.254-70.657 84.226-83.278 46.757-14.062 90.663-6.122 127.644 27.197 23.088 20.802 21.223 61.368-2.108 77.658-13.49 9.417-28.289 8.657-43.172 4.636-7.034-1.901-13.689-5.157-20.638-7.423-31.851-10.388-62.387.162-81.235 27.918-31.136 45.85-15.075 101.888 36.278 123.42 36.736 15.403 74.394 20.248 110.494-1.543 32.553-19.649 53.823-48.059 59.813-86.506 3.25-20.817-2.38-39.118-17.26-53.942-7.43-7.402-9.11-13.817-5.75-24.535 10.81-34.535-5.71-71.92-38.207-91.571-34.661-20.961-71.925-29.121-112.023-23.157-6.273.933-9.998-.882-13.382-5.786-16.115-23.353-25.938-48.677-24.954-78.421Zm190.926 47.568c5.77-1.333 11.48-3.049 17.32-3.909 8.82-1.3 9.25-5.273 4.01-11.236.9-1.125 1.37-2.102 2.15-2.633 15.53-10.612 16.91-28.266 4.59-41.92-3.49-3.865-11.93-10.061-2.49-17.384 1.07-.828 1.24-4.991.34-5.701-1.68-1.313-4.54-1.804-6.76-1.52-1.79.231-3.37 2.107-6.39 4.168.27-3.678-.15-5.832.64-7.377 3.56-7.016 3.4-10.63-5.8-13.471-6.13-1.895-15.32-3.987-16.01-14.036-.08-1.069-3.14-2.934-4.59-2.741-8.465 1.125-13.317-4.161-18.868-9.124-5.181-4.632-10.944-5.169-15.615 1.591 12.24 10.635 14.108 14.716 13.75 31.5-.119 5.596-2.473 11.483-1.329 16.695 2.243 10.221-1.18 18.672-6.605 26.218-9.264 12.888-8.617 24.652 3.108 35.195 1.081.972 2.417 2.881 2.131 3.955-1.874 7.04 3.596 7.228 7.716 9.106 3.982 1.816 7.902 3.972 11.417 6.564 5.505 4.057 12.655 2.451 15.635-3.947 0 0 0 .005 1.65.007Zm7.83 114.032c-.28 10.818 1.25 22.108-1.4 32.312-2.28 8.778-4.51 16.448 2.82 22.644 6.58 5.559 4.51 17.354 15.3 19.547 4.71.958 6.66 3.997 3.64 8.914-1.15 1.87-1.7 4.387-1.73 6.62-.25 17.808-.08 35.625-.63 53.421-.1 3.21-2.48 6.616-4.49 9.439-3.23 4.511-7.03 8.61-10.59 12.883-1.89 3.591-4.66 6.26-7.19 9.146-4.59 5.24-8.65 10.986-13.61 15.836-7.278 7.123-6.997 9.275 2.16 13.649 3.93-1.969 7.45-5.325 10.49-4.938 7.28.927 7.84-2.788 7.77-8.079-.08-5.992.2-11.861 7.75-14.592.58 1.674.8 2.962 1.44 3.997 1.44 2.365 3.08 4.607 4.65 6.898 2.54-2.516 7.62-5.635 7.19-7.449-2.15-9.116 4.04-9.596 9.56-10.09 8.33-.745 11.97-4.989 13.86-12.945 1.12-4.732 4.75-9.119 8.01-13.028 4.08-4.891 11.56-8.441 12.97-13.785 4.08-15.448 5.1-31.686 8.77-47.271 3.37-14.321-2.18-27.456-2.81-41.146-.35-7.753-3.64-12.149-9.39-16.091-6.17-4.229-12.02-8.623-8.81-17.892.6-1.749-1.37-5.087-3.06-6.799-4.31-4.366-9.34-8.019-13.7-12.334-8.88-8.773-17.38-17.938-26.37-26.587-1.68-1.613-5.2-1.135-7.43-2.388-3.61-2.02-7.1-4.415-10.19-7.155-2.19-1.94-3.8-4.611-5.39-7.132-4.68-7.44-9.12-4.116-13.616.148-5.225 4.953-4.242 10.647 1.177 13.265 7.859 3.797 10.689 10 13.189 17.408 2.54 7.529 6 14.747 9.66 23.574Zm-84.628-80.242a429022.1 429022.1 0 0 1 30.951 14.356l11.3-3.032 1.306 13.387c1.118.298 3.849 1.986 5.284 1.227 4.016-2.126 7.497-5.264 11.189-8.003-2.699-2.657-5.215-5.539-8.145-7.911-3.208-2.597-6.829-4.678-10.215-7.062-11.988-8.441-23.508-17.682-36.138-25.011-5.308-3.081-10.583-4.575-11.976-11.391-.245-1.195-2.548-1.921-3.817-2.965-4.144-3.409-8.345-6.758-12.328-10.348-1.944-1.752-3.071-5.052-5.224-5.825-11.519-4.136-13.296-15.374-17.638-24.306-3.831-7.883-5.407-16.862-7.951-25.267-2.538-1.014-8.109-1.947-8.303-3.537-.936-7.653-.421-15.484-.421-23.252l3.127-.161 5.542 10.303 3.555-.564c0-4.888-.393-9.817.12-14.65.439-4.144.597-10.139 3.187-11.879 6.625-4.45 7.9-9.634 6.094-18.363-3.175 1.678-6.188 2.533-8.154 4.457-4.625 4.526-7.906 9.311-16.207 9.271-5.193-.025-11.423 5.473-15.404 10.046-6.89 7.915-12.547 16.936-18.393 25.711-1.919 2.88-3.311 6.329-4.056 9.714-.774 3.516.555 7.722-.821 10.839-5.795 13.12-4.544 26.166.518 38.728 4.77 11.835-.296 28.383 16.249 34.934 1.269.503 1.519 4.08 1.882 6.288 1.348 8.2 6.725 11.859 14.775 9.761 3.509-.914 7.077-3.28 10.405-2.934 19.415 2.016 38.767 4.641 59.707 7.439Zm42.099 288.35-12.405 6.381.626 3.087c5.339-.792 10.873-.964 15.958-2.566 4.35-1.369 8.223-4.32 12.115-6.865.162-.106-1.944-4.752-2.454-4.648-4.29.879-8.453 2.373-13.84 4.611ZM961.81 170.461l1.503-2.522-4.137.019c.512.836 1.024 1.671 2.634 2.503Z"/><path fill="#02BDF3" d="M670.774 314.959c-.017-11.625.832-22.38-.374-32.899-.744-6.495-3.044-14.198-7.421-18.593-8.471-8.504-19.67-6.092-29.274 4.827-12.551 14.271-19.299 31.052-19.529 50.103-.273 22.654-.318 45.317.047 67.968.104 6.493 1.968 12.959 3.225 20.661h-35.892c.41-50.942 3.118-101.645-.841-153.503h35.205l-1.182 14.875 2.195 1.384c2.726-2.359 5.801-4.419 8.123-7.125 17.838-20.789 59.916-17.339 71.166 5.666 4.109 8.402 7.145 7.82 13.334-.718 16.535-22.808 51.814-25.362 70.984-5.28 8.728 9.144 10.594 20.691 10.884 32.326.565 22.631.259 45.286.088 67.929-.024 3.184-.307 7.26-2.198 9.387-9.837 11.062-20.233 21.627-30.396 32.325 0-40.748.056-81.27-.09-121.792-.014-3.927-.705-8.063-2.07-11.735-4.629-12.451-15.465-16.016-26.346-8.45-16.751 11.65-24.948 28.964-26.182 48.368-1.69 26.557-1.048 53.275-.926 79.921.023 5.093 2.267 10.177 3.792 16.544h-36.324c0-30.815 0-61.017.002-92.189Zm-65.448 27.163c.011-1.667-.279-3.402.085-4.988 1.862-8.126 5.193-16.15 5.59-24.328.785-16.174.023-32.425-.243-48.643-.024-1.474-.978-4.138-1.688-4.203-5.22-.479-10.706-1.328-15.635-.125-1.997.488-3.89 5.8-3.916 8.933-.04 4.803 1.797 9.591 2.413 14.44.447 3.517.592 7.167.182 10.677-.642 5.506-2.622 10.931-2.708 16.411-.335 21.326.572 42.695-.431 63.979-.571 12.14 1.882 20.459 16.724 23.164 1.148-4.194 3.621-8.777 3.392-13.221-.693-13.45-2.433-26.847-3.765-42.096Zm179.99-16.345c-.166-18.473 2.287-37.078-8.471-54.262-4.743-7.576-7.877-11.758-14.43-9.82 1.409 2.415 3.801 4.712 4.003 7.188.692 8.494.771 17.051.804 25.584.087 22.262-.003 44.524.041 66.785.011 5.161-1.248 12.556 6.258 11.904 3.712-.322 9.188-6.547 9.85-10.735 1.795-11.368 1.445-23.074 1.945-36.644Z"/><path fill="#F1F7F8" d="M260.466 200.476c27.113-3.422 53.434-6.609 80.327-9.865v25.131H189.704c.875-11.262 2.347-21.824 2.403-32.393.256-47.63.356-95.264-.091-142.891-.093-9.888-2.748-19.752-3.876-30.325 1.544-.685 2.743-.673 5.406-.61 14.24-.134 27.015-.32 39.791-.506 4.063.172 8.126.343 13.823.55 3.82-.137 6.006-.31 8.193-.482 6.699.165 13.399.33 21.894.51 17.905-.145 34.015-.306 50.126-.468 1.336.082 2.673.163 4.931.953.92 8.58.92 16.45.92 25.23L221.985 20.243v87.223c10.412-4.641 19.918-9.066 29.572-13.14 14.884-6.28 29.854-5.7 44.453.792 2.298 1.022 5.213 4.889 4.854 6.911-1.447 8.16-4.066 16.111-6.408 24.716-25.267-24.171-41.61-19.851-68.492-10.061-2.177.792-4.074 5.482-4.145 8.408-.396 16.294-.187 32.601-.185 48.904v31.798l29.804-4.642c2.745-.148 5.49-.295 9.028-.676ZM674.499 7.273c9.917.174 19.09.578 27.571.952v79.632c2.047-2.774 3.841-5.16 5.589-7.58 13.099-18.13 32.152-24.476 53.612-17.843 19.302 5.967 29.683 20.63 29.895 43.295.259 27.66-.109 55.327.195 82.987.089 8.013 1.557 16.012 2.48 24.852h-32.654c0-40.153.107-80.016-.148-119.876-.029-4.502-1.442-9.29-3.338-13.43-5.852-12.773-17.142-16.238-28.558-8-17.843 12.878-26.872 31.43-27.891 52.907-1.151 24.275-.44 48.649-.127 72.976.06 4.723 2.013 9.422 3.328 15.157h-33.514c0-61.142.155-122.601-.226-184.057-.041-6.58-3.203-13.142-4.8-20.347 2.692-.888 5.267-1.141 8.586-1.625ZM490.182 203.878c-3.499 11.222-13.546 10.104-21.883 10.371-11.443.367-18.001-7.06-21.1-18.875-16.703 18.087-36.667 24.318-59.818 21.532-35.527-4.276-52.673-39.615-31.787-68.514 9.567-13.237 23.203-23.535 35.009-35.149 7.562-7.44 15.651-14.417 22.579-22.404 5.827-6.72 7.118-14.81 1.652-23.34-15.045.329-25.604 7.805-32.985 20.324-3.202 5.431-5.016 11.986-9.16 16.454-2.931 3.162-8.716 3.678-13.227 5.375-1.118-4.418-4.159-9.422-3.023-13.153 5.021-16.477 17.295-26.456 33.1-31.991 17.106-5.99 34.683-6.089 51.976-1.103 22.033 6.352 35.416 24.74 35.679 48.564a3236.31 3236.31 0 0 1-.062 76.893c-.102 8.043.71 14.196 11.506 13.605.796.526.943.84 1.544 1.411Zm-47.221-18.996c1.408-4.407 3.965-8.797 4.033-13.224.391-25.621.606-51.261.033-76.875-.308-13.765-9.436-23.52-22.342-25.433 6.61 17.905-.357 32.608-10.518 46.436-5.508 7.497-11.896 14.402-16.878 22.217-6.013 9.432-12.06 19.118-16.078 29.475-4.765 12.283.907 22.842 10.21 31.039 9.005 7.935 20.129 10.153 30.602 4.627 7.583-4 13.478-11.202 20.938-18.262Z"/><path fill="#02BDF3" d="M396.013 384.101c-8.012 15.339-21.751 24.126-36.405 26.44-38.72 6.113-62.018.212-81.694-39.132-16.962-33.916-10.968-75.199 16.963-103.693 18.32-18.688 58.577-27.154 80.748-14.18 35.627 20.848 41.801 59.721 10.708 86.983-17.498 15.341-41.737 18.164-65.34 12.417-1.919-.468-2.991-4.415-4.456-6.744 2.04-1.197 4.196-3.595 6.104-3.412 36.991 3.549 53.811-31.978 45.316-59.783-3.622-11.856-8.343-22.589-23.158-23.742-12.102-.942-22.347 4.954-27.985 16.812-11.246 23.652-14.201 48.443-8.853 73.965 3.763 17.958 13.908 31.999 29.705 41.5 11.367 6.836 33.772 2.194 44.705-10.393 6.118-7.042 9.556-16.36 14.713-24.321 1.573-2.427 4.851-3.75 7.348-5.578 1.149 2.72 3.922 6.058 3.163 8.055-3.148 8.286-7.362 16.167-11.582 24.806Zm-69.992 21.929h30.435l.172-3.541c-2.302-.622-4.664-1.078-6.895-1.894-8.347-3.052-17.341-5.076-24.83-9.583-16.647-10.017-20.163-28.118-23.166-45.149-2.142-12.155-.646-24.994-.375-37.52.391-18.12 5.824-34.159 20.012-47.126-6.707 2.123-13.462 4.542-18.632 8.857-14.533 12.131-21.843 28.325-25.77 46.793-5.139 24.158 3.962 44.572 14.321 65.014 6.94 13.694 22.121 15.714 34.728 24.149Zm46.389-64.779c31.097-14.951 33.29-47.435 14.234-71.644-4.268-5.421-12.314-7.868-18.621-11.684l-1.611 2.53c8.687 15.775 13.304 32.058 9.411 50.343-4.066 19.103-17.145 29.786-34.24 37.393l1.939 3.053c9.184-3.098 18.367-6.197 28.888-9.991ZM27.255 410.291c-7.962.131-14.956.286-21.95.372-5.093.063-6.016-2.249-4.861-7.067 1.75-7.304 3.652-14.812 3.697-22.244.31-52.328.277-104.659.04-156.987-.038-8.116-1.68-16.224-2.8-26.304 2.6-.444 6.88-1.775 11.17-1.809 22.329-.178 44.709-.947 66.982.214 39.533 2.059 73.083 21.186 87.237 61.166 9.998 28.238 10.245 56.08 1.239 84.784-9.043 28.819-27.174 49.595-54.07 60.978-13.868 5.87-30.344 6.321-45.774 7.531-13.216 1.036-26.621-.334-40.91-.634Zm42.139-205.195c-6.988-.033-14.044.539-20.947-.242-10.225-1.158-13.119 2.848-13.047 12.851.407 56.566.214 113.136.232 169.705 0 1.995-.67 4.52.284 5.875 1.921 2.73 4.571 6.587 7.233 6.853 8.564.855 17.29.67 25.918.201 29.176-1.587 54.456-21.178 64.855-48.378 8.462-22.134 9.607-44.916 7.004-67.803-4.581-40.287-25.996-73.719-71.532-79.062Zm-46.048-4.302c-16.12-.04-16.105-.04-16.098 16.263.017 42.588.023 85.175.028 127.763.002 17.634-.21 35.272.178 52.897.065 2.96 2.245 7.958 4.234 8.389 5.413 1.172 11.247.403 17.205.403-.856-5.829-2.15-9.41-1.712-12.766.86-6.611 3.793-13.078 3.908-19.639.47-26.608.333-53.231.158-79.847-.192-29.2-.574-58.4-1.246-87.592-.045-1.962-3.228-3.852-6.655-5.871Zm103.936 174.841-29.973 26.058c7.656-1.759 15.174-4.348 21.381-8.776 10.273-7.328 21.729-14.338 29.034-24.191 12.458-16.805 21.462-36.274 20.861-57.899-.484-17.411-.175-36.024-6.225-51.801-7.394-19.282-22.123-35.333-40.613-46.286-5.037-2.983-11.345-3.822-17.07-5.644l-1.02 2.829c.843.89 1.529 2.061 2.55 2.63 21.486 11.973 31.912 32.298 36.972 54.559 3.84 16.896 3.586 34.896 3.722 52.415.156 20.242-7.535 38.354-19.619 56.106ZM425.807 341.132c11.16-19.082 29.61-29.689 44.4-44.032 7.455-7.23 13.774-15.857 19.365-24.643 1.632-2.565.164-8.839-2.108-11.542-1.507-1.791-7.221-1.08-10.621-.057-12.238 3.686-19.661 12.472-24.1 24.207-1.4 3.701-2.713 8.333-5.598 10.362-4.132 2.905-10.108 5.964-14.506 5.069-6.622-1.347-7.178-8.396-5.143-14.069 5.311-14.799 15.499-25.638 29.859-31.803 22.2-9.532 44.909-8.114 67.311-.68 15.536 5.155 29.006 26.013 29.132 44.203.192 27.637.148 55.276.093 82.914-.012 6.345.257 11.347 8.481 13.226 6.784 1.551 5.071 6.639.962 10.492-9.688 9.085-32.044 5.429-38.717-6.217-1.106-1.929-2.456-3.719-4.032-6.08-2.501 2.055-4.59 3.596-6.481 5.352-20.427 18.961-65.879 20.766-86.45-2.819-8.778-10.063-11.814-32.927-4.777-48.975.665-1.516 1.626-2.901 2.93-4.908Zm58.141-28.183c-8.956 13.165-18.86 25.799-26.61 39.639-8.306 14.832-3.91 30.303 9.139 39.93 12.532 9.246 29.036 7.986 41.326-2.817 10.188-8.956 14.722-20.323 14.897-33.555.197-14.975.208-29.956.003-44.93-.132-9.632-.245-19.32-1.361-28.867-1.519-13-9.425-20.786-19.824-20.274 2.024 18.027-2.097 34.162-15.933 45.511l5.183-17.536c-10.681 6.517-19.012 14.293-27.817 21.489-11.344 9.27-22.535 18.288-31.06 30.732-10.279 15.003-12.702 28.261-1.535 44.242 10.525 15.064 30.721 23.794 49.946 17.854-1.677-.753-2.741-1.347-3.877-1.725-23.723-7.895-33.986-34.051-21.627-56.452 5.545-10.049 11.899-19.726 18.735-28.943 2.172-2.928 7.087-3.821 10.415-4.298Zm43.234 51.986c-4.616 12.313-5.007 24.042 6.461 32.908 3.301 2.552 8.245 4.292 12.247 3.981 1.603-.124 3.343-6.701 3.851-10.498.563-4.212-.363-8.604-.374-12.918-.065-23.964-.763-47.956.167-71.883.733-18.868-8.28-31.702-21.996-42.471-2.212-1.737-5.377-2.26-6.196-2.586 2.011 12.848 5.107 25.236 5.649 37.734.923 21.261.24 42.592.191 65.733Zm-74.287-101.286c-6.44 7.997-13.167 15.795-19.029 24.196-.938 1.344 1.996 5.391 3.14 8.189 2.013-1.263 4.816-2.051 5.907-3.867 5.842-9.727 11.258-19.711 17.477-30.774-2.53.593-4.423 1.036-7.495 2.256ZM207.091 250.597c7.501 2.076 14.014 4.604 20.76 6.043 3.183.679 7.021-.163 10.195-1.32 5.897-2.15 11.355-5.566 17.308-7.483 7.467-2.406 18.281 2.502 20.978 9.581.982 2.577.526 7.658-1.215 8.922-3.924 2.849-8.921 4.637-13.736 5.736-6.489 1.481-13.837.494-19.72 3.07-13.639 5.974-17.005 19.232-17.44 32.289-.875 26.266-.426 52.579-.265 78.87.022 3.535 1.339 7.122 2.398 10.579 3.115 10.164-.264 14.453-10.924 13.634-5.95-.457-11.91-1.37-17.847-1.243-7.333.158-8.817-3.378-8.688-9.907.775-39.221 1.33-78.447 1.714-117.674.051-5.241-.764-10.628-2.071-15.718-3.391-13.201-1.942-15.337 11.671-15.378 1.997-.006 3.994.003 6.882-.001Zm12.201 101.229c-.573-8.928-1.613-17.857-1.601-26.784.014-11.179-1.887-23.529 2.197-33.194 3.882-9.186 6.601-15.231-1.578-22.343-.894-.778-1.572-2.368-1.539-3.558.223-7.99-4.761-9.388-11.149-9.045-6.954.373-8.53 4.67-8.509 10.886.143 41.929.108 83.858.069 125.787-.005 5.088.384 9.658 7.19 9.203 5.488-.367 12.888 2.563 13.284-7.209a6769.044 6769.044 0 0 0 1.636-43.743Z"/><path fill="#E7F1F4" d="M707.12 504.624c-6.22-3.815-11.833-2.617-18.657-.281-10.253 3.508-21.315 3.043-29.649-5.65-6.625-6.911-7.21-15.486-3.763-24.131 1.307-3.277 3.817-6.074 5.828-9.166-12.009-21.701 4.168-36.496 24.523-32.771 1.62-.105 2.558-.101 3.875-.257.379-.159.271-.039.271-.039 3.398 5.097 6.796 10.193 10.098 16.15-.095.86.02.939.02.939-.35-.3-.7-.6-2.575-.798-5.029-.924-8.498-2.631-12.042-2.805-4.59-.225-9.526.044-13.69 1.685-1.254.494-1.905 7.55-.3 9.386 6.529 7.47 14.042 14.081 22.303 22.085l1.886-12.032 8.986.74c2.534 10.46-3.645 22.544 8.652 29.365l-5.839 7.573s.094.059.073.007Zm-37.308-13.19c6.119 3.429 12.125 4.225 18.948-.794l-17.648-16.417c-6.569 5.386-6.82 10.563-1.3 17.211ZM293.433 504.477c-7.409.591-14.633.705-21.818 1.3-9.8.812-17.923-2.163-22.898-10.761-6.455-11.16-6.514-22.866-.167-34.135 4.939-8.768 13.257-11.546 22.86-10.917 2.937.192 5.832 1.034 9.747 1.765v-17.467l13.14-.603c0 23.321 0 46.053-.002 69.685-.001.9-.661.871-.862 1.133Zm-32.62-38.862c-.587 7.282-2.718 14.875-1.334 21.76 1.43 7.116 8.444 8.992 15.276 6.554 7.875-2.81 11.147-17.25 6.351-26.33-3.866-7.318-10.246-8.383-20.293-1.984ZM631.149 468.127c.297 12.252.297 23.842.297 35.913h-12.585c0-8.513.11-17.031-.027-25.544-.18-11.137-4.925-17.859-12.367-17.032-9.954 1.105-11.636 8.296-11.466 16.714.167 8.271.036 16.547.036 25.592h-12.341v-50.806c9.653-1.15 18.833-2.807 28.065-3.181 8.69-.352 15.242 3.91 18.907 12.891.618 1.969.901 3.379 1.481 5.453ZM347.875 504.83c-6.366-1.892-11.641-1.941-17.93.004-14.845 4.593-25.915-3.339-27.06-18.897-.823-11.187-.16-22.483-.16-34.333h12.426c0 9.088.02 18.283-.006 27.479-.024 8.257 2.545 15.19 11.977 15.016 9.383-.174 11.57-7.56 11.735-15.458.187-8.889.043-17.785.043-27.129h12.281c0 16.977 0 34.12-.117 52.182-.941.943-1.765.967-3.189 1.136ZM706.783 587.209c-1.806-.934-5.124-3.446-4.97-3.683 8.982-13.706.333-25.224-4.37-37.202-1.69-4.305-3.395-8.604-5.618-13.322-.524-.415-.381-.355-.381-.355l2.573-4.083c1.58 1.393 3.854 2.483 4.621 4.232 3.7 8.442 6.994 17.061 10.764 26.445 7.579-9.806 6.071-23.771 15.477-31.14l3.109 1.66c-6.66 17.886-13.319 35.773-20.049 54.366-.397 1.326-.722 1.946-1.156 3.082ZM515.806 434.163c-.138 3.396-.49 6.231-.881 9.371H503.75l-.499-11.111c3.971 0 7.158 0 11.237-.003.962.393 1.033.787 1.318 1.743Z"/><path fill="#22415B" d="M326.731 8.58c-15.469.709-31.579.87-48.601.77 15.378-.613 31.669-.965 48.601-.77Z"/><path fill="#283E50" d="M1670.02 86.016c-.51-14.64-.61-29.983-.57-46.246.43 14.568.71 30.055.57 46.246Z"/><path fill="#22415B" d="M232.687 8.489c-12.126.714-24.901.9-38.58.824 12.041-.626 24.986-.99 38.58-.824Z"/><path fill="#283E50" d="M1438.47 179.95c2.1-1.568 4.43-2.521 6.75-3.473.16 2.016.33 4.032.5 6.048-2.35-.654-4.69-1.307-7.25-2.575ZM1127.24 423.552c2.29-1.998 5.11-3.536 7.93-5.074.45 1.538.89 3.077 1.33 4.616-2.91.305-5.82.611-9.26.458ZM1133.75 471.88c1.56.193 3.01.926 4.35 1.815.07.045-.74 1.435-1.15 2.198-1.11-1.147-2.22-2.294-3.2-4.013ZM1128.86 409.578c-1.32-.928-2.47-2.428-3.62-3.928.84-.445 1.67-.89 2.5-1.334.43 1.563.86 3.126 1.12 5.262Z"/><path fill="#22415B" d="M315.255 422.431c-.979-.894-1.415-1.79-1.851-2.686l3.664-.019c-.424.901-.848 1.801-1.813 2.705ZM360.515 230.467c1.454.37 2.529 1.132 3.604 1.895l-1.811 1.726c-.725-1.076-1.449-2.152-1.793-3.621ZM250.744 40.07c-.991-.516-1.515-1.146-2.039-1.776l2.506-.69c0 .784.001 1.567-.467 2.466Z"/><path fill="#283E50" d="M1559.72 312.814c.65 1.13.85 2.267 1.04 3.404l-2.29-.157c.26-1.08.53-2.16 1.25-3.247Z"/><path fill="#22415B" d="M254.879 8.603c-1.713.655-3.899.827-6.874.736 1.607-.582 4.003-.9 6.874-.736Z"/><path fill="#283E50" d="M1159.2 579.611c-.36-.518-.38-1.029-.4-1.539l.87.021c-.05.509-.09 1.018-.47 1.518Z"/><path fill="#22415B" d="M376.804 580.886c-.193.783-.863 1.672-1.534 2.562l-.665-.604c.574-.617 1.148-1.235 2.199-1.958ZM663.811 1.435c-.628-.124-1.007-.481-1.385-.838L663.07 0c.33.4.661.801.741 1.435Z"/><path fill="#283E50" d="M1131.37 451.949c.35.518.37 1.028.39 1.538l-.86-.022c.04-.508.08-1.016.47-1.516ZM1215.3 410.048c-.16-.002.01-.518.01-.518s.15.52-.01.518Z"/><path fill="#22415B" d="M722.298 103.803c-.043.017.043-.017 0 0Z"/><path fill="#E7F1F4" d="M699.499 449.292c-.052-.046.228-.233.228-.233s-.436.019-.248.188c.187.17.072.091.02.045Z"/><path fill="#02BDF3" d="M1022.46 414.083c-3.36-8.091-6.82-15.31-9.36-22.838-2.5-7.408-5.33-13.612-13.189-17.408-5.419-2.618-6.402-8.312-1.177-13.265 4.496-4.264 8.936-7.588 13.616-.148 1.59 2.521 3.2 5.192 5.39 7.132 3.09 2.74 6.58 5.135 10.19 7.155 2.23 1.253 5.75.775 7.43 2.388 8.99 8.649 17.49 17.814 26.37 26.587 4.36 4.315 9.39 7.968 13.7 12.334 1.69 1.712 3.66 5.05 3.06 6.799-3.21 9.269 2.64 13.662 8.81 17.892 5.75 3.942 9.04 8.338 9.39 16.091.63 13.69 6.18 26.825 2.81 41.146-3.67 15.585-4.69 31.823-8.77 47.271-1.41 5.344-8.89 8.894-12.97 13.785-3.26 3.909-6.89 8.296-8.01 13.028-1.89 7.956-5.53 12.2-13.86 12.945-5.52.494-11.71.974-9.56 10.09.43 1.814-4.65 4.933-7.19 7.449-1.57-2.291-3.21-4.533-4.65-6.898-.64-1.036-.86-2.324-1.44-3.997-7.55 2.731-7.83 8.599-7.75 14.592.07 5.291-.49 9.006-7.77 8.079-3.04-.387-6.56 2.969-10.49 4.938-9.157-4.374-9.438-6.526-2.16-13.649 4.96-4.85 9.03-10.596 13.61-15.836 2.53-2.886 5.3-5.555 7.19-9.146 3.56-4.273 7.36-8.372 10.59-12.883 2.01-2.823 4.39-6.229 4.49-9.439.55-17.796.38-35.614.63-53.421.03-2.233.58-4.75 1.73-6.62 3.02-4.917 1.07-7.956-3.64-8.914-10.79-2.193-8.72-13.988-15.3-19.547-7.33-6.196-5.1-13.866-2.82-22.644 2.65-10.204 1.12-21.494 1.1-33.048ZM937.349 334.388c-20.157-2.609-39.509-5.234-58.924-7.25-3.328-.346-6.896 2.02-10.405 2.934-8.05 2.098-13.427-1.561-14.775-9.761-.363-2.208-.613-5.785-1.882-6.288-16.545-6.551-11.479-23.099-16.249-34.934-5.062-12.562-6.313-25.608-.518-38.728 1.376-3.116.047-7.323.821-10.839.745-3.385 2.137-6.834 4.056-9.714 5.846-8.775 11.503-17.796 18.393-25.711 3.981-4.573 10.211-10.071 15.404-10.046 8.3.04 11.582-4.745 16.207-9.271 1.966-1.924 4.979-2.779 8.154-4.457 1.806 8.729.531 13.913-6.094 18.363-2.59 1.74-2.748 7.735-3.187 11.879-.513 4.833-.12 9.762-.12 14.65l-3.555.564-5.542-10.303-3.127.161c0 7.768-.515 15.599.421 23.252.194 1.59 5.765 2.523 8.303 3.537 2.544 8.405 4.12 17.384 7.951 25.267 4.342 8.932 6.119 20.17 17.638 24.306 2.153.773 3.28 4.073 5.224 5.825 3.983 3.59 8.184 6.939 12.328 10.348 1.269 1.044 3.572 1.77 3.817 2.965 1.393 6.816 6.668 8.31 11.976 11.391 12.63 7.33 24.15 16.57 36.138 25.011 3.386 2.384 7.007 4.465 10.215 7.062 2.93 2.372 5.446 5.254 8.145 7.911-3.692 2.739-7.173 5.877-11.189 8.003-1.435.76-4.166-.929-5.284-1.227l-1.306-13.387-11.3 3.032c-9.423-4.371-20.187-9.364-31.734-14.545Zm32.502 4.889-2.461-1.691-.69 1.63c.827.249 1.655.497 3.151.061ZM1013.29 300.778c-2.99 6.4-10.14 8.006-15.645 3.949-3.515-2.592-7.435-4.748-11.417-6.564-4.12-1.878-9.59-2.066-7.716-9.106.286-1.074-1.05-2.983-2.131-3.955-11.725-10.543-12.372-22.307-3.108-35.195 5.425-7.547 8.848-15.997 6.605-26.219-1.144-5.211 1.21-11.098 1.329-16.694.358-16.784-1.51-20.865-13.75-31.5 4.671-6.76 10.434-6.223 15.615-1.592 5.551 4.964 10.403 10.25 18.868 9.125 1.45-.193 4.51 1.672 4.59 2.741.69 10.049 9.88 12.14 16.01 14.036 9.2 2.841 9.36 6.455 5.8 13.471-.79 1.545-.37 3.699-.64 7.377 3.01-2.061 4.6-3.938 6.39-4.168 2.22-.285 5.08.207 6.76 1.52.9.71.73 4.873-.34 5.701-9.44 7.322-1 13.519 2.49 17.384 12.32 13.654 10.94 31.308-4.59 41.92-.78.531-1.25 1.508-2.15 2.633 5.24 5.963 4.81 9.936-4.01 11.236-5.84.86-11.55 2.576-18.23 3.75-.9-.159-1.3-.194-1.3-.194l.57.344ZM980.824 622.463c4.794-1.774 8.957-3.268 13.247-4.147.51-.104 2.616 4.542 2.454 4.649-3.892 2.544-7.765 5.495-12.115 6.864-5.085 1.602-10.619 1.774-15.958 2.566l-.626-3.087c4.135-2.127 8.27-4.254 12.998-6.845ZM961.261 170.463c-1.061-.834-1.573-1.669-2.084-2.505l4.136-.019c-.501.841-1.002 1.682-2.052 2.524Z"/><path fill="#F89F40" d="M1474.77 449.072c-2.89-2.097-5.56-4.665-8.74-6.134-2.35-1.087-5.37-.744-8.91-.257-.53 3.507-1.05 6.743.24 8.856 2.87 4.665 6.66 8.765 11.88 15.398-9.54 3.038-16.79 5.9-24.3 7.558-5.66 1.249-9.05-1.284-9.84-7.966-1.61-13.509-4.27-26.891-6.34-40.35-.38-2.489-.61-5.301.15-7.613 4.17-12.626 1.2-17.551-11.76-21.971-7.01-2.391-13.69-6.183-19.94-10.249-6.57-4.282-11.87-10.826-18.78-14.201-6.84-3.333-14.92-3.379-21.59 2.345-6.78 5.833-5.39 11.024 2.5 14.958 7.17 3.577 13.44 8.953 20.11 13.531 9.42 6.456 18.14 14.677 28.49 18.742 6.92 2.719 8.82 4.783 9.57 11.796 2 18.558.29 38.188 13.27 54.238 1.06 1.305.18 5.888-1.33 7.245-5.41 4.855-11.75 8.66-17.18 13.487-3.75 3.328-6.77 7.546-9.78 11.616-4.97 6.717-8.35 15.722-14.87 19.833-5.59 3.522-6.66 6.129-5.8 11.407 0 0-.1-.131-.77-.028-5.31 2.455-10.02 4.668-14.55 7.195-5.46 3.046-10.44 7.344-16.24 9.331-9.27 3.177-13.68-.063-12.82-9.812 1.04-11.767 2.49-23.797 6.08-34.967 4.57-14.228 7.45-28.51 5.31-43.088-.92-6.308-5.06-16.065-9.52-17.192-12.85-3.25-23.69-6.621-30.69-19.446-6.93-12.704-7.01-22.142 3.46-32.304 2.6-2.524 5.89-4.317 8.65-6.697 11.43-9.858 27.05-17.085 22.85-36.857-.37-1.746 1.95-5.235 3.85-6.103 12.53-5.721 15.28-16.472 15.88-28.676.17-3.478 1.12-6.917 1.72-10.374l2.93.149c.52 2.745.97 5.504 1.56 8.234 1.92 8.907 13.24 15.957 22.51 12.887 8.74-2.896 5-10.253 3.84-16.133-1.4-7.093-.38-13.069 5.55-17.917 7.48-6.118 14.58-12.697 22.07-18.801 13.64-11.115 14.63-10.774 28.81-1.433 8.8 5.797 18.88 10.531 28.31 1.976 5.52-5.008 9.08-12.175 13.15-17.859 3.36 4.411 8.45 9.955 12.18 16.298 3.98 6.773 6.75 14.266 9.92 21.504 10.88 24.907 15.5 51.137 17.58 78.124 1.94 25.144-5.21 48.709-10.18 72.737-1.59 7.735-7.11 7.943-12.09 5.944-8.46-3.396-16.37-8.18-24.47-12.44-4.01-2.106-7.95-4.343-11.93-6.521ZM1405.39 201.321c-.9-.106-1.8-.212-3.76-.603-1.92-.112-3.34-.207-3.57.271-3.17 6.592-6.04 13.329-9.26 19.892-1.92 3.895-5.97 7.44-6.22 11.325-.95 14.736-18.39 26.397-32.15 19.801.28 10.316-5.97 11.589-14.25 11.062-3.38-.215-7.17 1.283-10.33 2.887-7.67 3.902-15.08 8.322-22.83 12.666-1.97-11.552 4.41-23.877 13.57-30.332 4.27-3.01 9.21-7.699 10.13-12.358 3.06-15.525 4.43-31.382 6.67-48.814-11.25 2.789-20.15 1.034-27.1-6.328-7.12-7.543-14.79-7.355-23.48-3.074-8.58 4.231-17.14 9.139-26.29 11.385-6.65 1.632-13.92-.465-12.4 10.345.42 2.957-2.16 7.986-.99 8.859 2.8 2.08 7 2.894 10.67 3.004 3.56.107 7.14-1.42 10.74-2.028 15.44-2.609 25.4 6.219 22.4 21.237-1.01 5.012-6.22 9.537-10.44 13.225-.76.67-5.84-4.179-9.25-5.83-9.14-4.436-18.42-8.623-27.76-12.611-1.14-.484-3.2.599-4.58 1.397-8.05 4.656-14 10.767-15.36 20.631-.47 3.375-2.4 6.643-4.08 9.735-3.95 7.278-1.45 12.713 4.66 17.033 5.52 3.901 9.92 5.972 15.4-1.82 4.33-6.157 12.22-9.812 18.52-14.579 1.19.683 2.37 1.366 3.56 2.049 1.25 6.3 2.48 12.603 3.75 18.898 1.97 9.74-3.34 16.982-7.25 25.2-2.58 5.429-3.94 6.509-9.7 6.068-13.11-1.001-26.44-1.81-39.46-.53-10.11.992-19.89 5.267-29.84 8.091-2.43 7.01-5.17 14.893-8.06 23.227-1.66-.707-3.09-.919-3.94-1.734-13.15-12.624-15.52-12.787-31.39-3.397-5.23 3.094-10.97 6.87-7.39 12.959 2.98 5.085 4.23 13.629 15.45 11.048 12.3-2.83 19.11 7.153 14.9 18.637-.7 1.913-.13 4.529.47 6.641 3.6 12.562 16.16 13.473 25.13 19.054 2.45 1.521 6.02 2.166 7.4 4.298 9.3 14.342 18.66 28.538 31.83 39.794 3.75 3.205 7.68 6.666 10.1 10.836 2.68 4.606 6.57 11.443 4.94 15.061-4.67 10.364-11.03 20.279-18.28 29.085-8.48 10.286-18.61 19.207-28.01 28.734-3.47 3.522-6.91 7.081-10.36 10.624-.91-.461-1.81-.922-2.71-1.383 0-13.524.87-27.12-.24-40.552-1.18-14.273-1.49-28.438-12.94-40.653-10.36-11.065-15.24-25.56-6.13-41.282 2.44-4.212 4.34-11.842 2.2-15.036-7.48-11.187-16.7-21.232-25.52-31.499-7.15-8.337-14.7-16.332-21.99-24.551-5.1-5.744-9.27-12.677-15.3-17.125-6.25-4.611-6.62-8.333-4.02-15.051 2.28-5.868 2.22-12.642 3.2-19.016 0 0-.14-.118.72.014 3.76.133 6.67.133 7.83.133 2.86-6.949 4.24-13.238 7.67-18.092 10.33-14.664 20.2-30.002 32.64-42.743 12.01-12.304 26.3-22.79 40.84-32.129 21.6-13.876 44.24-26.142 71.29-25.545 1.29.028 2.57-2.435 3.96-3.604 1.42-1.193 2.9-3.02 4.5-3.189 9.52-1.006 19.12-1.338 28.64-2.404 34.47-3.858 66.67 5.9 98.5 16.861 6.54 2.253 14.57 6.059 14.35 15.825Z"/><path fill="#DBA05E" d="M1093.94 296.655c-.47 5.913-.41 12.687-2.69 18.555-2.6 6.718-2.23 10.44 4.02 15.051 6.03 4.448 10.2 11.381 15.3 17.125 7.29 8.219 14.84 16.214 21.99 24.551 8.82 10.267 18.04 20.311 25.52 31.499 2.14 3.194.24 10.824-2.2 15.036-9.11 15.722-4.23 30.217 6.13 41.282 11.45 12.215 11.76 26.38 12.94 40.653 1.11 13.432.24 27.028.24 40.551.9.462 1.8.923 2.71 1.384 3.45-3.543 6.89-7.102 10.36-10.625 9.4-9.526 19.53-18.447 28.01-28.733 7.25-8.806 13.61-18.721 18.28-29.085 1.63-3.618-2.26-10.455-4.94-15.062-2.42-4.169-6.35-7.63-10.1-10.835-13.17-11.257-22.53-25.452-31.83-39.794-1.38-2.132-4.95-2.777-7.4-4.298-8.97-5.581-21.53-6.492-25.13-19.054-.6-2.112-1.17-4.728-.47-6.642 4.21-11.483-2.6-21.466-14.9-18.636-11.22 2.581-12.47-5.963-15.45-11.048-3.58-6.089 2.16-9.865 7.39-12.959 15.87-9.39 18.24-9.227 31.39 3.397.85.815 2.28 1.027 3.94 1.734 2.89-8.334 5.63-16.217 8.06-23.227 9.95-2.824 19.73-7.099 29.84-8.092 13.02-1.28 26.35-.47 39.46.531 5.76.441 7.12-.639 9.7-6.068 3.91-8.218 9.22-15.461 7.25-25.2-1.27-6.295-2.5-12.598-3.75-18.898-1.19-.683-2.37-1.366-3.56-2.049-6.3 4.767-14.19 8.422-18.52 14.579-5.48 7.792-9.88 5.721-15.4 1.82-6.11-4.32-8.61-9.755-4.66-17.033 1.68-3.092 3.61-6.36 4.08-9.735 1.36-9.864 7.31-15.976 15.36-20.632 1.38-.797 3.44-1.88 4.58-1.396 9.34 3.988 18.62 8.175 27.76 12.611 3.41 1.651 8.49 6.499 9.25 5.83 4.22-3.688 9.43-8.213 10.44-13.225 3-15.018-6.96-23.846-22.4-21.238-3.6.609-7.18 2.136-10.74 2.029-3.67-.11-7.87-.924-10.67-3.004-1.17-.873 1.41-5.902.99-8.859-1.52-10.81 5.75-8.713 12.4-10.345 9.15-2.246 17.71-7.154 26.29-11.385 8.69-4.281 16.36-4.469 23.48 3.074 6.95 7.362 15.85 9.117 27.1 6.328-2.24 17.432-3.61 33.288-6.67 48.813-.92 4.66-5.86 9.349-10.13 12.359-9.16 6.455-15.54 18.78-13.57 30.332 7.75-4.344 15.16-8.764 22.83-12.666 3.16-1.604 6.95-3.102 10.33-2.887 8.28.527 14.53-.746 14.25-11.062 13.76 6.596 31.2-5.065 32.15-19.801.25-3.885 4.3-7.43 6.22-11.325 3.22-6.563 6.09-13.3 9.26-19.892.23-.478 1.65-.383 2.9-.124-3.93 12.992-7.6 25.816-12.69 38.052-7.73 18.593-25.02 23.934-42.54 27.504-13.67 2.784-26.48 6.154-36.09 17.284-1.8 2.088-6.72 3.939-8.59 2.927-2.6-1.407-4.87-5.491-5.21-8.65-1.47-13.836 5.68-24.13 15.01-33.335 13.21-13.034 16.7-28.872 13.32-48.499-10.48 6.045-15.05.768-20.28-7.768-2.4-3.908-12.48-6.577-17.31-4.852-13.24 4.728-25.54 12.083-37.36 20.602 5.36-.908 10.7-1.956 16.09-2.696 12.67-1.742 21.18 3.119 26.32 14.836 4.43 10.11 1.73 26.914-6.8 31.95-3.79 2.236-10.72 1.465-15.25-.371-8.87-3.603-17-9.024-25.55-13.472-6.59-3.43-11.78-1.695-14.43 5.337-3.53 9.385-6.64 18.926-9.94 28.399 1.1.757 2.19 1.514 3.29 2.271 3.81-2.086 7.79-3.925 11.4-6.324 4.15-2.758 7.75-6.35 11.97-8.98 8.28-5.17 14.04-3.283 16.92 5.884 4.49 14.228 5.43 28.749 1.27 43.271-3.42 11.934-7.95 15.025-19.8 11.894-17.84-4.709-34.89-2.596-51.91 3.495-12.01 4.299-20.39 10.932-19.98 25.164.1 3.28-1.86 6.619-3.55 12.174-4.85-6.933-7.68-12.311-11.78-16.406-2.89-2.875-8.21-6.323-11.22-5.42-5.98 1.801-12.97 5.245-16.11 10.191-3.44 5.403 3.5 6.284 7.59 6.958 16.94 2.799 27.8 14.73 39.12 25.95.79.784.8 2.354 1.42 4.357l-18.11-2.459c-1.11.041-1.39.193-1.68.345.26.104.51.208.76.311-.04 7.318 4.42 10.879 10.87 12.123 13.35 2.578 22.08 11.145 30.16 21.34a952.608 952.608 0 0 0 35.97 42.677c6.42 7.174 8.89 14.433 3.04 22.354-10.2 13.817-20.05 28.135-31.98 40.363-10.93 11.208-20.5 22.296-24.58 37.83-.94 3.578-6.28 6.002-9.59 8.957-2.11-3.978-6.05-7.981-5.99-11.93.21-15.287 1.6-30.563 2.72-45.83 1.04-14.141-2.46-26.893-10.29-38.754-4-6.076-6.98-12.837-10.36-19.323-5.99-11.511-6.31-22.968.95-34.046 4.34-6.633 3.64-12.578-1.75-18.024-9.58-9.68-19.82-18.766-28.78-28.985-6.4-7.312-10.78-16.368-16.81-24.065-3.53-4.516-8.12-8.518-12.96-11.628-6.3-4.053-8.9-8.224-5.27-15.565 3.37-6.84 5.91-14.095 9.33-21.628Zm84.88 253.339c-5.69-2.756-5.86-2.569-5.25 8.217 2.38-3.18 3.76-5.016 5.25-8.217Z"/><path fill="#DBA05E" d="M1405.8 201.857c-.19-10.302-8.22-14.108-14.76-16.361-31.83-10.961-64.03-20.719-98.5-16.861-9.52 1.066-19.12 1.398-28.64 2.404-1.6.169-3.08 1.996-4.5 3.189-1.39 1.169-2.67 3.632-3.96 3.604-27.05-.597-49.69 11.669-71.29 25.545-14.54 9.339-28.83 19.825-40.84 32.129-12.44 12.741-22.31 28.079-32.64 42.743-3.43 4.854-4.81 11.143-7.67 18.092-1.16 0-4.07 0-7.8-.22 13.82-33.952 36.76-61.198 65.33-83.863 28.93-22.947 61.6-39.087 97.94-44.736 28.67-4.458 57.75-5.226 87.11.126 24.65 4.492 48.14 12.018 69.44 23.711 22.51 12.35 44.65 26.026 61.19 47.473 17.25 22.36 34.47 44.425 44.88 70.897 20.36 51.808 21.47 104.34 5.43 157.488-1.74 5.78-4.3 8.567-10.53 7.329-16.5-3.28-30.44-10.839-41.15-24.772 3.91 1.476 7.85 3.713 11.86 5.819 8.1 4.26 16.01 9.044 24.47 12.44 4.98 1.999 10.5 1.791 12.09-5.944 4.97-24.028 12.12-47.593 10.18-72.737-2.08-26.987-6.7-53.217-17.58-78.124-3.17-7.238-5.94-14.731-9.92-21.504-3.73-6.343-8.82-11.887-12.18-16.298-4.07 5.684-7.63 12.851-13.15 17.859-9.43 8.555-19.51 3.821-28.31-1.976-14.18-9.341-15.17-9.682-28.81 1.433-7.49 6.104-14.59 12.683-22.07 18.801-5.93 4.848-6.95 10.824-5.55 17.917 1.16 5.88 4.9 13.237-3.84 16.133-9.27 3.07-20.59-3.98-22.51-12.887-.59-2.73-1.04-5.489-1.56-8.234l-2.93-.149c-.6 3.457-1.55 6.896-1.72 10.374-.6 12.204-3.35 22.955-15.88 28.676-1.9.868-4.22 4.357-3.85 6.103 4.2 19.772-11.42 26.999-22.85 36.857-2.76 2.38-6.05 4.173-8.65 6.697-10.47 10.162-10.39 19.6-3.46 32.304 7 12.825 17.84 16.196 30.69 19.446 4.47 1.127 8.6 10.884 9.52 17.192 2.14 14.578-.74 28.86-5.31 43.088-3.59 11.17-5.04 23.2-6.08 34.967-.86 9.749 3.55 12.989 12.82 9.812 5.8-1.987 10.78-6.285 16.24-9.331 4.53-2.527 9.24-4.74 14.62-7.224-9.72 10.089-20.05 20.545-35.5 22.944-11.48 1.783-15.55-1.138-14.12-12.579 1.76-14.082 5.39-27.92 7.78-41.937 2-11.695 3.77-23.458 4.91-35.261 1.14-11.706-5.92-16.966-16.38-20.199-18.77-5.802-27.4-16.5-28.23-32.979-.56-11.049 2.94-20.283 11.89-27.15l29.56-22.682c-11.88-9.406-4.78-16.803 2.78-22.9 11.06-8.906 15.93-19.654 15.33-33.859-.16-3.82 4.22-7.833 6.52-11.757 2.67 3.526 6.71 6.694 7.75 10.648 2.92 11.196 8.24 15.661 18.54 13.593.12-.303.44-.672.36-.899-7.47-20.698 5.82-32.986 18.59-45.292 4.5-4.346 9.61-8.132 14.73-11.773 9.58-6.816 21.81-5.007 32.91 4.53 11.53 9.9 14.71 9.934 23.19-2.777 2.2-3.287 2.18-10.581-.04-13.877-14.89-22.172-34.66-39.676-56.42-54.874-5.81-4.054-12.68-6.582-19.47-10.347Zm10.33-3.681c-.81-.287-1.63-.574-2.44-.861-.18.531-.37 1.062-.55 1.593 1.01.067 2.02.135 2.99-.732Z"/><path fill="#DBA05E" d="M1382.46 551.145c-1.5-5.082-.43-7.689 5.16-11.21 6.52-4.112 9.9-13.117 14.87-19.834 3.01-4.07 6.03-8.288 9.78-11.616 5.43-4.827 11.77-8.632 17.18-13.487 1.51-1.357 2.39-5.94 1.33-7.245-12.98-16.05-11.27-35.68-13.27-54.238-.75-7.013-2.65-9.077-9.57-11.796-10.35-4.065-19.07-12.285-28.49-18.742-6.67-4.578-12.94-9.954-20.11-13.531-7.89-3.934-9.28-9.125-2.5-14.958 6.67-5.724 14.75-5.678 21.59-2.345 6.91 3.375 12.21 9.919 18.78 14.201 6.25 4.066 12.93 7.858 19.94 10.249 12.96 4.42 15.93 9.345 11.76 21.971-.76 2.312-.53 5.124-.15 7.613 2.07 13.459 4.73 26.841 6.34 40.35.79 6.682 4.18 9.215 9.84 7.966 7.51-1.658 14.76-4.52 24.3-7.558-5.22-6.633-9.01-10.733-11.88-15.397-1.29-2.114-.77-5.35-.48-8.292 6.17 7.097 11.75 14.409 17.35 21.736-6.53 9.32-26.74 17.157-37.04 13.198-3.12-1.198-6.15-6.041-6.78-9.643-1.84-10.454-2.32-21.139-3.58-31.704-.46-3.806-1.63-7.526-2.48-11.285l-2.92.074c0 3.248-.36 6.544.06 9.737 1.3 9.893 3.03 19.73 4.35 29.621 1.5 11.15 5.48 20.019 21.45 21.277-7.39 6.517-12.48 11.934-18.46 16.068-11.69 8.091-21.24 17.305-27.62 30.637-3.46 7.228-11.91 12.069-18.75 18.183Zm22.57-134.643c8.58 3.005 16.2 1.662 24.26-6.485-5.35-3.31-10.18-6.285-15-9.282-10.33-6.432-21.4-11.961-30.8-19.56-10.55-8.536-16.95-9.264-24.97-1.279 10.11 8.44 20.31 17.112 30.7 25.557 4.6 3.744 9.58 7.03 15.81 11.049Z"/><path fill="#173E5F" d="M1338.35 156.327c-1.51-.349-2.49-.87-3.47-1.391.9-.605 1.79-1.21 2.69-1.815.44 1.011.88 2.022.78 3.206ZM1147.3 202.797c-.68.908-1.37 1.8-2.06 2.691-.22-.206-.66-.58-.64-.594a9.806 9.806 0 0 1 2.16-2.039c.49-.107.52-.075.54-.058ZM1405.37 217.888c.23.581.1 1.154-.03 1.728-.11-.579-.22-1.157.03-1.728ZM1201.24 544.817c-.92-.671-1.8-1.382-2.68-2.092.21-.224.58-.658.6-.642a9.758 9.758 0 0 1 2.08 2.136c.12.479.04.559 0 .598Z"/><path fill="#E7F1F4" d="M422.131 467.388c-4.014-.327-7.426-1.064-10.907-1.816 4.753-13.374 12.982-17.624 27.787-15.224 12.162 1.972 16.507 7.22 16.59 20.429.064 10.289-.084 20.579-.174 30.868-.005.625-.335 1.248-.958 3.422l-10.08-2.895c-7.066 1.003-14.626 3.004-22.152 2.88-7.288-.12-12.092-5.026-13.047-12.628-1.01-8.033 1.24-14.917 9.46-17.636 7.77-2.57 15.923-3.981 23.919-5.904-3.153-10.032-10.77-10.683-20.438-1.496Zm.932 18.215c.114 2.878-.301 8.081.43 8.248 3.96.902 9.163 2.098 12.114.262 3.904-2.429 6.121-7.569 9.064-11.543l-2.709-2.919c-5.88 1.668-11.761 3.335-18.899 5.952ZM195.652 457.086c10.176-7.84 21.302-10.095 32.692-4.24 10.754 5.528 12.4 16.12 12.651 28.123h-37.164c1.022 12.393 11.672 17.959 19.986 10.268 6.256-5.787 10.144-2.738 15.297-.43-4.259 14.171-21.229 17.434-32.464 13.707-13.29-4.407-20.519-19.046-16.601-34.14 1.056-4.068 3.532-7.768 5.61-12.307.254-.67-.302-1.262-.007-.981Zm26.588 5.23c-11.796-2.948-15.425-1.166-17.807 8.919h24.017c-2.1-3.483-3.487-5.782-6.21-8.919Z"/><path fill="#F1F7F8" d="M557.813 451.128c17.709 6.771 19.253 21.405 17.095 35.214-1.883 12.053-14.816 20.96-27.784 20.469-17.09-.647-27.924-18.371-23.121-37.825 3.19-12.916 9.694-18.051 23.021-18.141 3.326-.022 6.652.032 10.789.283Zm-21.256 22.04c-1.45 15.149 6.065 24.313 17.012 20.55 8.516-2.927 9.855-10.206 9.472-17.806-.363-7.196-3.544-13.153-11.345-14.324-7.589-1.14-12.757 2.465-15.139 11.58Z"/><path fill="#E7F1F4" d="M388.011 450.182c10.161 1.54 16.482 6.452 19.146 16.358-5.962 2.822-10.557 5.038-16.18-1.84-5.144-6.291-15.541-4.203-17.842 3.533-1.835 6.168-1.653 13.839.305 19.992 2.209 6.942 12.874 8.797 17.458 3.136 5.222-6.449 10.016-4.674 15.673-2.21-4.439 13.698-15.077 19.268-30.222 15.862-12.721-2.862-20.469-15.696-18.767-31.09 1.781-16.106 12.04-24.355 30.429-23.741ZM406.159 536.425c1.307 4.153 2.747 7.677 2.833 11.232.229 9.493-2.16 17.916-12.138 21.813-10.015 3.912-18.046.643-25.988-10.254-4.056 3.391-7.635 8.104-12.308 9.798-4.532 1.643-10.67 1.5-15.252-.18-10.055-3.685-11.676-13.076-11.127-22.309.547-9.19 4.572-17.073 14.57-18.999 9.075-1.748 17.269.125 22.94 12.659-4.371-1.515-7.155-1.723-8.824-3.194-6.362-5.608-12.715-5.677-18.671-.08-5.069 4.763-4.662 19.241.551 24.129 5.69 5.335 11.597 5.117 17.798.056 2.298-1.876 5.886-2.171 9.829-3.507-.896-10.437-2.895-23.442 11.945-29.114 9.313-3.56 17.599-1.56 23.842 7.95Zm-4.754 5.553c-2.328-7.161-7.545-10.21-14.62-8.83-7.292 1.421-10.135 7.259-10.398 14.048-.264 6.83.78 13.755 8.189 16.659 6.684 2.619 13.091.947 15.848-5.971 1.709-4.288.951-9.559.981-15.906ZM489.094 460.75c-6.909-.963-9.573 1.208-8.821 7.541.467 3.928.101 7.955.113 11.938.042 13.551.54 14.08 14.442 14.576v9.114c-21.253 3.73-27.337-1.325-27.309-22.647.008-6.295.001-12.59.001-19.562-4.362-1.486-12.548-.165-8.244-9.871l8.192-1.532v-12.811h12.399l1.016 13.087 14.269.878c.421 4.662 3.421 9.91-6.058 9.289ZM609.494 568.749c-6.263-2.648-11.865.556-17.789 1.735-8.84 1.76-15.975-2.387-17.194-9.355-1.606-9.179 3.59-13.525 11.635-15.354 5.404-1.228 10.916-1.976 16.425-2.947-2.684-11.067-10.531-13.175-18.797-5.957-1.615 1.41-4.056 1.874-6.116 2.774.546-2.49.329-5.603 1.767-7.364 6.718-8.218 19.86-6.919 28.833 3.746.783 11.773 1.01 22.248 1.236 32.722Zm-16.34-4.047c7.295-2.457 9.974-7.72 9.789-15.989-4.557.719-8.39 1.315-12.22 1.931-5.054.813-11.122 1.901-9.618 8.36.615 2.641 6.783 3.989 12.049 5.698ZM481.352 528.92l.695.807c1.332 1.085 2.172 1.599 3.011 2.112l.783 7.892c-2.061-.993-4.091-2.059-6.19-2.963-3.203-1.378-6.509-3.782-9.668-3.628-2.957.145-5.78 3.05-8.662 4.74 2.117 2.086 3.898 4.865 6.431 6.093 3.798 1.843 8.868 1.635 12.026 4.073 3.427 2.647 7.464 7.474 7.221 11.08-.25 3.695-4.782 9.02-8.477 10.105-5.282 1.553-11.507-.099-18.463-1.054-3.08-3.123-5.027-5.576-6.975-8.028l1.77-2.438c2.34 1.204 4.572 2.741 7.042 3.538 4.221 1.361 8.584 2.995 12.9 3.033 2.087.018 5.52-3.097 5.9-5.228.319-1.793-2.485-4.934-4.653-6.186-3.071-1.774-7.257-1.702-10.187-3.613-4.031-2.63-9.945-6.164-10.231-9.701-.299-3.7 5.111-7.861 8.025-11.821 0 0 .974-.225 2.065-.515 2.577-.376 4.063-.463 5.55-.55 1.701.25 3.402.501 6.207 1.197 2.03.649 2.955.852 3.88 1.055ZM614.947 530.749c7.772-1.151 15.671-3.631 23.266-2.91 4.01.38 9.861 5.83 10.734 9.884 2.051 9.527 1.732 19.586 1.988 29.44.025.986-2.583 2.039-6.042 4.589 0-8.606.072-15.065-.016-21.522-.161-11.798-4.08-17.458-11.811-17.261-7.545.193-11.497 6.085-11.731 17.65-.101 4.969.333 9.988-.28 14.883-.189 1.516-3.028 2.7-5.222 2.724-.674-13.367-.78-25.422-.886-37.477Z"/><path fill="#F1F7F8" d="M516.026 454.739v49.191h-12.141v-52.306c3.04-.168 6.194-.341 10.368.038 1.27 1.394 1.522 2.236 1.773 3.077Z"/><path fill="#E7F1F4" d="M527.31 559.957c.006 3.52.006 6.148.006 9.13-12.718-2.713-30.498 9.888-34.869-12.686-1.796-9.271-2.239-18.999.479-28.028l4.909.326c0 7.738-.56 15.527.132 23.203 1.004 11.128 10.056 16.625 17.578 10.616 3.088-2.467 4.77-7.667 5.48-11.894.922-5.499.024-11.28.368-16.912.115-1.881 1.638-3.676 2.518-5.511l3.394.711c0 10.051 0 20.103.005 31.045ZM691.282 532.512c-.755 2.345-1.49 4.765-2.226 7.185-2.097-1.103-4.466-1.881-6.241-3.368-6.271-5.258-12.463-4.609-17.845.731-5.479 5.436-4.923 18.537.671 24.04 5.367 5.28 11.135 4.951 17.047.496 2.12-1.597 4.711-2.568 9.184-4.935-5.248 11.93-11.872 15.739-21.435 13.817-9.153-1.839-14.458-7.422-15.223-17.014-.768-9.63-.611-18.921 9.523-24.083 9.551-4.865 18-2.353 26.137 3.905.57-.639.427-.699.408-.774ZM437.22 526.87c2.078 1.251 4.156 2.502 7.152 4.658 2.293 13.022 3.668 25.138 5.043 37.255-2.037-1.332-5.622-2.46-5.83-4.034-.737-5.57-.149-11.3-.381-16.956-.308-7.501-2.203-14.453-11.371-14.654-9.239-.203-11.449 6.931-11.994 14.241-.55 7.366-.121 14.805-.121 23.614-6.94-5.003-8.288-32.165-2.7-42.371 5.513 6.79 7.239-2.064 10.446-1.387 2.108-.106 4.216-.213 7.557-.28 1.233.039 2.199-.086 2.199-.086ZM559.294 555.845c3.332 4.373 6.656 7.858 11.163 12.582-1.624.342-5.228 2.31-7.55 1.307-3.604-1.555-8.549-4.807-9.007-7.918-1.244-8.431-.427-17.166-.427-25.491l-10.362-4.308c7.353-3.062 13.616-5.201 8.795-14.433 11.082-3.595 5.714 6.081 8.421 10.061l11.118 1.808.079 2.863-12.239 1.499c0 6.864 0 14.002.009 22.03Z"/><path fill="#F1F7F8" d="M537.368 569.379c-2.763-18.97-2.881-37.631-.902-56.184l4.786.083c0 8.696-.002 17.392 0 26.088.002 7.998.209 16.004-.123 23.987-.088 2.118-1.829 4.167-3.761 6.026Z"/><path fill="#283E50" d="M471.132 526.123c-1.354.632-2.84.719-5.071.735 1.15-.475 3.045-.878 5.071-.735Z"/><path fill="#173E5F" d="M710.742 532.106c.639.125 1.025.487 1.41.85l-.654.608c-.337-.407-.673-.814-.756-1.458Z"/><path fill="#283E50" d="M484.653 531.224c-.434.102-1.274-.412-2.479-1.584.448-.116 1.261.426 2.479 1.584ZM480.809 528.493c-.382.224-1.307.021-2.699-.733.408-.265 1.282.02 2.699.733Z"/><path fill="#173E5F" d="M550.298 571.807c-.046.017.045-.018 0 0Z"/><path fill="#283E50" d="M437.245 526.353c-.025.517-.99.642-1.444.466-.155-.712.231-1.174 1.094-1.801.387-.239.419-.215.419-.215-.014.344-.029.689-.069 1.55ZM437.27 524.763c-.012-.016.377-.573.377-.573s-.019.434-.176.523c-.157.089-.189.066-.201.05Z"/><path fill="#F1F7F8" d="M646.602 63.125c3.134 1.764 5.336 3.538 9.392 6.804-25.659 2.791-25.647 2.791-25.633 26.04.018 27.961-.052 55.922.039 83.881.058 17.914 5.407 23.119 22.995 23.161 1.568.004 3.558.984 4.53 2.179.521.642-.282 3.136-1.214 4.066-13.395 13.366-45.758 8.585-52.92-8.245-2.515-5.907-3.347-12.904-3.412-19.418-.333-33.616-.106-67.237-.265-100.855-.018-3.767 2.274-9.35-4.947-9.715.366-2.614.229-7.303 1.172-7.53 13.877-3.357 18.744-14.82 24.473-25.756 1.55-2.96 4.438-5.219 6.711-7.8l2.756 1.745v31.454c5.643 0 10.518 0 16.323-.01ZM537.759 81.188c7.784-6.409 14.8-14.422 23.63-18.646 5.609-2.683 14.225-.778 20.851 1.212 2.586.776 5.13 7.753 4.448 11.278-.474 2.451-6.593 5.619-10.001 5.408-26.534-1.646-37.802 5.83-39.691 32.452-2.045 28.818-1.018 57.868-.854 86.814.025 4.304 2.663 8.592 4.406 13.833h-34.339c0-24.71.536-49.485-.151-74.226-.685-24.626 3.34-49.59-3-75.048h35.505c-.704 4.678-1.42 9.442-2.427 15.34-.152 2.011-.013 2.888.126 3.764l1.497-2.18Z"/><path fill="#02BDF3" d="M605.326 343.038c1.332 14.333 3.072 27.729 3.765 41.18.229 4.444-2.244 9.027-3.392 13.221-14.842-2.705-17.295-11.024-16.724-23.164 1.003-21.284.096-42.653.431-63.979.086-5.48 2.066-10.906 2.708-16.411.41-3.51.265-7.16-.182-10.677-.616-4.849-2.453-9.637-2.413-14.44.026-3.133 1.919-8.445 3.916-8.933 4.929-1.203 10.415-.354 15.635.125.71.065 1.664 2.729 1.688 4.203.266 16.217 1.028 32.469.243 48.643-.397 8.178-3.728 16.202-5.59 24.328-.364 1.586-.074 3.321-.085 5.904ZM785.316 326.775c-.5 12.571-.15 24.278-1.945 35.646-.662 4.188-6.138 10.412-9.85 10.735-7.506.652-6.247-6.743-6.258-11.904-.044-22.262.046-44.524-.041-66.785-.033-8.534-.112-17.09-.804-25.584-.202-2.476-2.594-4.773-4.003-7.188 6.553-1.939 9.687 2.244 14.43 9.82 10.758 17.184 8.305 35.789 8.471 55.26ZM325.223 405.772c-11.809-8.177-26.99-10.197-33.93-23.891-10.359-20.443-19.46-40.856-14.321-65.014 3.927-18.468 11.237-34.662 25.77-46.793 5.17-4.316 11.925-6.734 18.632-8.857-14.188 12.967-19.621 29.006-20.012 47.126-.271 12.525-1.767 25.365.375 37.52 3.003 17.031 6.519 35.132 23.166 45.149 7.489 4.507 16.483 6.531 24.83 9.583 2.231.816 4.593 1.272 6.895 1.893l-.172 3.542c-10.145 0-20.29 0-31.233-.258Z"/><path fill="#02BDF3" d="M371.742 341.599c-9.853 3.446-19.036 6.545-28.22 9.643l-1.939-3.053c17.095-7.607 30.174-18.29 34.24-37.393 3.893-18.285-.725-34.568-9.411-50.343l1.611-2.53c6.307 3.816 14.353 6.263 18.621 11.684 19.056 24.209 16.863 56.693-14.902 71.992ZM24.198 200.842c2.575 1.971 5.758 3.861 5.803 5.823.672 29.192 1.054 58.392 1.246 87.592.175 26.616.312 53.239-.158 79.848-.115 6.56-3.048 13.027-3.908 19.638-.437 3.356.856 6.937 1.712 12.766-5.958 0-11.792.77-17.206-.403-1.988-.431-4.168-5.429-4.233-8.389-.388-17.625-.176-35.263-.178-52.897-.005-42.587-.011-85.175-.028-127.762-.007-16.304-.022-16.304 16.95-16.216ZM127.794 375.121c11.572-17.238 19.263-35.35 19.107-55.591-.136-17.52.118-35.52-3.722-52.416-5.06-22.261-15.486-42.586-36.972-54.559-1.021-.569-1.707-1.74-2.55-2.63l1.02-2.829c5.725 1.823 12.033 2.661 17.07 5.644 18.49 10.953 33.219 27.004 40.613 46.286 6.05 15.777 5.741 34.39 6.225 51.802.601 21.624-8.403 41.094-20.861 57.898-7.305 9.853-18.76 16.863-29.034 24.192-6.207 4.427-13.725 7.017-21.38 8.776 9.99-8.687 19.981-17.373 30.484-26.573ZM98.306 203.833c-.062.028.062-.027 0 0ZM527.203 364.015c.028-22.221.711-43.552-.212-64.813-.543-12.498-3.638-24.886-5.649-37.734.819.326 3.984.849 6.196 2.586 13.716 10.769 22.729 23.604 21.996 42.471-.93 23.928-.232 47.919-.167 71.883.011 4.314.937 8.706.374 12.918-.508 3.797-2.248 10.374-3.851 10.498-4.002.312-8.946-1.428-12.247-3.981-11.468-8.866-11.077-20.595-6.44-33.828ZM484.291 311.55c-3.671 1.876-8.586 2.77-10.758 5.698-6.836 9.216-13.19 18.894-18.735 28.943-12.359 22.401-2.096 48.556 21.627 56.451 1.136.379 2.2.972 3.877 1.725-19.225 5.94-39.421-2.79-49.946-17.853-11.167-15.982-8.744-29.24 1.535-44.243 8.525-12.443 19.716-21.461 31.06-30.732 8.805-7.196 17.136-14.972 27.817-21.489-1.727 5.845-3.455 11.691-5.012 18.324.17.787.098.744-.402.954-.702.834-.904 1.457-1.107 2.081 0 0 .055.09.044.141ZM453.485 263.261c2.482-.832 4.375-1.275 6.905-1.868-6.219 11.063-11.635 21.047-17.477 30.774-1.091 1.816-3.894 2.604-5.907 3.867-1.144-2.798-4.078-6.845-3.14-8.189 5.862-8.401 12.589-16.199 19.619-24.584ZM219.292 352.819c-.544 14.912-1.072 28.832-1.636 42.75-.396 9.772-7.796 6.842-13.284 7.209-6.806.455-7.195-4.115-7.19-9.203.039-41.929.074-83.858-.069-125.786-.021-6.217 1.555-10.514 8.509-10.887 6.388-.343 11.372 1.055 11.149 9.045-.033 1.19.645 2.78 1.539 3.558 8.179 7.113 5.46 13.157 1.578 22.343-4.084 9.665-2.183 22.016-2.198 33.194-.011 8.928 1.029 17.856 1.602 27.777Z"/><path fill="#0CB7EA" d="M969.516 339.62c-1.161.093-1.989-.155-2.816-.404l.69-1.63c.82.564 1.641 1.128 2.126 2.034Z"/><path fill="#0CB7EA" d="M824.004 253.219c2.24-39.984 21.103-67.488 57.521-82.127 22.248-8.942 45.754-11.547 69.601-11.094 39.769.755 71.234 17.047 93.464 50.383 20.2 30.305 16.58 71.125-8.23 93.289-13.13 11.728-34.74 13.669-52.588 4.722-15.27-7.655-25.343-25.623-22.725-43.097 1.564-10.439 4.902-20.664 8.021-30.807 4.059-13.201 8.008-26.501 2.616-40.004-6.066-15.188-18.142-22.528-34.353-22.811-16.16-.283-28.477 6.928-35.815 21.121-16.435 31.792-10.741 63.407 18.654 88.927 23.302 20.229 49.307 37.311 73.595 56.446 26.315 20.731 53.885 40.34 77.655 63.74 66.13 65.103 36.2 159.775-20.32 202.045-62.655 46.865-164.879 52.096-231.714 11.47-56.332-34.241-79.099-103.299-55.108-166.87 15.352-40.681 42.254-70.657 84.226-83.278 46.757-14.062 90.663-6.122 127.644 27.197 23.088 20.802 21.223 61.368-2.108 77.658-13.49 9.417-28.289 8.657-43.172 4.636-7.034-1.901-13.689-5.157-20.638-7.423-31.851-10.388-62.387.162-81.235 27.918-31.136 45.85-15.075 101.888 36.278 123.42 36.736 15.403 74.394 20.248 110.494-1.543 32.553-19.649 53.823-48.059 59.813-86.506 3.25-20.817-2.38-39.118-17.26-53.942-7.43-7.402-9.11-13.817-5.75-24.535 10.81-34.535-5.71-71.92-38.207-91.571-34.661-20.961-71.925-29.121-112.023-23.157-6.273.933-9.998-.882-13.382-5.786-16.115-23.353-25.938-48.677-24.954-78.421Zm190.926 47.568c5.77-1.333 11.48-3.049 17.32-3.909 8.82-1.3 9.25-5.273 4.01-11.236.9-1.125 1.37-2.102 2.15-2.633 15.53-10.612 16.91-28.266 4.59-41.92-3.49-3.865-11.93-10.061-2.49-17.384 1.07-.828 1.24-4.991.34-5.701-1.68-1.313-4.54-1.804-6.76-1.52-1.79.231-3.37 2.107-6.39 4.168.27-3.678-.15-5.832.64-7.377 3.56-7.016 3.4-10.63-5.8-13.471-6.13-1.895-15.32-3.987-16.01-14.036-.08-1.069-3.14-2.934-4.59-2.741-8.465 1.125-13.317-4.161-18.868-9.124-5.181-4.632-10.944-5.169-15.615 1.591 12.24 10.635 14.108 14.716 13.75 31.5-.119 5.596-2.473 11.483-1.329 16.695 2.243 10.221-1.18 18.672-6.605 26.218-9.264 12.888-8.617 24.652 3.108 35.195 1.081.972 2.417 2.881 2.131 3.955-1.874 7.04 3.596 7.228 7.716 9.106 3.982 1.816 7.902 3.972 11.417 6.564 5.505 4.057 12.655 2.451 15.635-3.947 0 0 0 .005 1.65.007Zm7.83 114.032c-.28 10.818 1.25 22.108-1.4 32.312-2.28 8.778-4.51 16.448 2.82 22.644 6.58 5.559 4.51 17.354 15.3 19.547 4.71.958 6.66 3.997 3.64 8.914-1.15 1.87-1.7 4.387-1.73 6.62-.25 17.808-.08 35.625-.63 53.421-.1 3.21-2.48 6.616-4.49 9.439-3.23 4.511-7.03 8.61-10.59 12.883-1.89 3.591-4.66 6.26-7.19 9.146-4.59 5.24-8.65 10.986-13.61 15.836-7.278 7.123-6.997 9.275 2.16 13.649 3.93-1.969 7.45-5.325 10.49-4.938 7.28.927 7.84-2.788 7.77-8.079-.08-5.992.2-11.861 7.75-14.592.58 1.674.8 2.962 1.44 3.997 1.44 2.365 3.08 4.607 4.65 6.898 2.54-2.516 7.62-5.635 7.19-7.449-2.15-9.116 4.04-9.596 9.56-10.09 8.33-.745 11.97-4.989 13.86-12.945 1.12-4.732 4.75-9.119 8.01-13.028 4.08-4.891 11.56-8.441 12.97-13.785 4.08-15.448 5.1-31.686 8.77-47.271 3.37-14.321-2.18-27.456-2.81-41.146-.35-7.753-3.64-12.149-9.39-16.091-6.17-4.229-12.02-8.623-8.81-17.892.6-1.749-1.37-5.087-3.06-6.799-4.31-4.366-9.34-8.019-13.7-12.334-8.88-8.773-17.38-17.938-26.37-26.587-1.68-1.613-5.2-1.135-7.43-2.388-3.61-2.02-7.1-4.415-10.19-7.155-2.19-1.94-3.8-4.611-5.39-7.132-4.68-7.44-9.12-4.116-13.616.148-5.225 4.953-4.242 10.647 1.177 13.265 7.859 3.797 10.689 10 13.189 17.408 2.54 7.529 6 14.747 9.66 23.574Zm-84.628-80.242a429022.1 429022.1 0 0 1 30.951 14.356l11.3-3.032 1.306 13.387c1.118.298 3.849 1.986 5.284 1.227 4.016-2.126 7.497-5.264 11.189-8.003-2.699-2.657-5.215-5.539-8.145-7.911-3.208-2.597-6.829-4.678-10.215-7.062-11.988-8.441-23.508-17.682-36.138-25.011-5.308-3.081-10.583-4.575-11.976-11.391-.245-1.195-2.548-1.921-3.817-2.965-4.144-3.409-8.345-6.758-12.328-10.348-1.944-1.752-3.071-5.052-5.224-5.825-11.519-4.136-13.296-15.374-17.638-24.306-3.831-7.883-5.407-16.862-7.951-25.267-2.538-1.014-8.109-1.947-8.303-3.537-.936-7.653-.421-15.484-.421-23.252l3.127-.161 5.542 10.303 3.555-.564c0-4.888-.393-9.817.12-14.65.439-4.144.597-10.139 3.187-11.879 6.625-4.45 7.9-9.634 6.094-18.363-3.175 1.678-6.188 2.533-8.154 4.457-4.625 4.526-7.906 9.311-16.207 9.271-5.193-.025-11.423 5.473-15.404 10.046-6.89 7.915-12.547 16.936-18.393 25.711-1.919 2.88-3.311 6.329-4.056 9.714-.774 3.516.555 7.722-.821 10.839-5.795 13.12-4.544 26.166.518 38.728 4.77 11.835-.296 28.383 16.249 34.934 1.269.503 1.519 4.08 1.882 6.288 1.348 8.2 6.725 11.859 14.775 9.761 3.509-.914 7.077-3.28 10.405-2.934 19.415 2.016 38.767 4.641 59.707 7.439Zm42.099 288.35-12.405 6.381.626 3.087c5.339-.792 10.873-.964 15.958-2.566 4.35-1.369 8.223-4.32 12.115-6.865.162-.106-1.944-4.752-2.454-4.648-4.29.879-8.453 2.373-13.84 4.611ZM961.81 170.461l1.503-2.522-4.137.019c.512.836 1.024 1.671 2.634 2.503Z"/><path fill="#02BDF3" d="M937.349 334.388c-20.157-2.609-39.509-5.234-58.924-7.25-3.328-.346-6.896 2.02-10.405 2.934-8.05 2.098-13.427-1.561-14.775-9.761-.363-2.208-.613-5.785-1.882-6.288-16.545-6.551-11.479-23.099-16.249-34.934-5.062-12.562-6.313-25.608-.518-38.728 1.376-3.116.047-7.323.821-10.839.745-3.385 2.137-6.834 4.056-9.714 5.846-8.775 11.503-17.796 18.393-25.711 3.981-4.573 10.211-10.071 15.404-10.046 8.3.04 11.582-4.745 16.207-9.271 1.966-1.924 4.979-2.779 8.154-4.457 1.806 8.729.531 13.913-6.094 18.363-2.59 1.74-2.748 7.735-3.187 11.879-.513 4.833-.12 9.762-.12 14.65l-3.555.564-5.542-10.303-3.127.161c0 7.768-.515 15.599.421 23.252.194 1.59 5.765 2.523 8.303 3.537 2.544 8.405 4.12 17.384 7.951 25.267 4.342 8.932 6.119 20.17 17.638 24.306 2.153.773 3.28 4.073 5.224 5.825 3.983 3.59 8.184 6.939 12.328 10.348 1.269 1.044 3.572 1.77 3.817 2.965 1.393 6.816 6.668 8.31 11.976 11.391 12.63 7.33 24.15 16.57 36.138 25.011 3.386 2.384 7.007 4.465 10.215 7.062 2.93 2.372 5.446 5.254 8.145 7.911-3.692 2.739-7.173 5.877-11.189 8.003-1.435.76-4.166-.929-5.284-1.227l-1.306-13.387-11.3 3.032c-9.423-4.371-20.187-9.364-31.734-14.545Zm32.502 4.889-2.461-1.691-.69 1.63c.827.249 1.655.497 3.151.061ZM980.824 622.463c4.794-1.774 8.957-3.268 13.247-4.147.51-.104 2.616 4.542 2.454 4.649-3.892 2.544-7.765 5.495-12.115 6.864-5.085 1.602-10.619 1.774-15.958 2.566l-.626-3.087c4.135-2.127 8.27-4.254 12.998-6.845Z"/><path fill="#0CB7EA" d="M969.516 339.62c-1.161.093-1.989-.155-2.816-.404l.69-1.63c.82.564 1.641 1.128 2.126 2.034ZM1013.28 300.778l-.56-.344s.4.035.48.192c.08.158.08.152.08.152Z"/><path fill="#F89F40" d="M1178.76 550.676c-1.43 2.519-2.81 4.355-5.19 7.535-.61-10.786-.44-10.974 5.19-7.535Z"/><path fill="#283E50" d="M1159.29 380.765c-.28-.079-.53-.183-.79-.287.29-.152.57-.304.87-.124.01.332-.05.386-.08.411Z"/><path fill="#F89F40" d="M1416.15 198.644c-.99.399-2 .331-3.01.264.18-.531.37-1.062.55-1.593.81.287 1.63.574 2.46 1.329Z"/><path fill="#22415B" d="M327.275 474.784c-.006.004-.555-.351-.555-.351s.402.029.487.181c.084.152.075.165.068.17ZM537.454 80.915c-.194 1-.693 1.727-1.192 2.454-.139-.877-.278-1.753-.069-2.952.347-.323.956.225 1.261.498Z"/><path fill="#1DA8D7" d="M484.687 311.172c-.237-.387-.035-1.011.63-1.863.246.39.028 1.009-.63 1.863Z"/></svg>