<svg xmlns="http://www.w3.org/2000/svg" width="1671" height="649" fill="none"><path fill="#FBFDFD" d="M1670.32 91.94c-.1.378-.2.757-1.19 2.038-20.13.904-39.38.904-59.67.904 1.54 29.387 3.03 57.6 4.52 85.812.09 1.662-.28 3.708.54 4.896 1.53 2.203 3.47 4.484 5.78 5.726 33.6 18.079 37.18 62.254 7.16 85.686-2.96 2.311-5.32 7.452-5.25 11.234.3 18.174 1.53 36.332 2.45 54.945h-54.78c.86-18.363 1.29-36.254 2.76-54.061.51-6.245-1.47-9.508-6.14-13.123-26.78-20.73-26.62-61.785 1.53-80.306 9.76-6.423 13.72-12.688 12.8-23.351-.05-.655.11-1.326.14-1.991 1.25-24.835 2.5-49.669 3.76-74.646h-81.44v114.912c-56.05-56.867-122.12-86.343-200.31-85.479-78.51.867-144.1 32.11-199.55 91.105V94.565H942.649V41.666h15.504c233.607.001 467.207 0 700.817.02 3.66 0 7.31.231 10.97.355.02.346.05.69.08 2.453.1 16.76.2 32.103.3 47.446Z"/><path fill="#0CB7EA" d="M824.722 258.439c2.24-39.984 21.103-67.488 57.521-82.126 22.248-8.943 45.754-11.547 69.601-11.095 39.769.755 71.236 17.048 93.456 50.384 20.21 30.305 16.59 71.124-8.22 93.288-13.13 11.728-34.74 13.669-52.589 4.722-15.271-7.655-25.344-25.623-22.726-43.097 1.565-10.439 4.902-20.663 8.021-30.806 4.059-13.202 8.009-26.501 2.616-40.005-6.066-15.188-18.142-22.528-34.352-22.811-16.161-.282-28.478 6.928-35.816 21.121-16.435 31.792-10.74 63.407 18.654 88.927 23.302 20.229 49.307 37.311 73.595 56.446 26.317 20.731 53.877 40.34 77.647 63.74 66.14 65.103 36.21 159.775-20.31 202.045-62.656 46.865-164.881 52.096-231.716 11.471-56.332-34.242-79.099-103.3-55.108-166.871 15.352-40.681 42.254-70.656 84.226-83.278 46.757-14.061 90.663-6.122 127.644 27.197 23.088 20.802 21.223 61.369-2.108 77.658-13.49 9.418-28.289 8.658-43.172 4.636-7.034-1.901-13.689-5.157-20.638-7.423-31.85-10.388-62.387.162-81.235 27.918-31.136 45.85-15.075 101.888 36.278 123.42 36.736 15.403 74.394 20.249 110.494-1.543 32.555-19.649 53.825-48.059 59.815-86.505 3.25-20.818-2.39-39.119-17.26-53.943-7.43-7.402-9.11-13.817-5.76-24.535 10.82-34.535-5.7-71.919-38.199-91.571-34.661-20.961-71.925-29.121-112.023-23.156-6.273.933-9.998-.883-13.382-5.787-16.115-23.353-25.938-48.677-24.954-78.421Zm190.928 47.568c5.76-1.333 11.48-3.048 17.32-3.909 8.82-1.3 9.24-5.273 4.01-11.236.9-1.125 1.37-2.102 2.15-2.633 15.53-10.611 16.91-28.266 4.59-41.919-3.49-3.866-11.93-10.062-2.49-17.385 1.06-.828 1.24-4.991.33-5.7-1.67-1.314-4.53-1.805-6.75-1.52-1.79.23-3.38 2.106-6.39 4.167.27-3.678-.15-5.832.64-7.376 3.56-7.017 3.4-10.631-5.8-13.471-6.14-1.896-15.32-3.988-16.01-14.037-.08-1.069-3.14-2.933-4.59-2.741-8.467 1.125-13.319-4.161-18.87-9.124-5.181-4.632-10.944-5.169-15.615 1.592 12.24 10.635 14.108 14.715 13.75 31.499-.119 5.596-2.473 11.484-1.329 16.695 2.243 10.222-1.18 18.672-6.604 26.219-9.265 12.887-8.617 24.651 3.107 35.194 1.081.973 2.417 2.881 2.132 3.955-1.875 7.04 3.595 7.228 7.715 9.107 3.983 1.815 7.902 3.971 11.417 6.563 5.497 4.057 12.647 2.451 15.637-3.947 0 0 0 .005 1.65.007Zm7.83 114.032c-.29 10.819 1.25 22.108-1.4 32.312-2.28 8.778-4.51 16.449 2.82 22.644 6.58 5.559 4.51 17.354 15.3 19.548 4.71.957 6.66 3.997 3.64 8.914-1.15 1.87-1.7 4.386-1.73 6.619-.25 17.808-.08 35.625-.63 53.422-.1 3.209-2.48 6.616-4.5 9.438-3.22 4.512-7.02 8.61-10.58 12.883-1.89 3.592-4.67 6.261-7.19 9.147-4.59 5.24-8.66 10.985-13.61 15.835-7.28 7.123-6.999 9.276 2.15 13.65 3.94-1.97 7.46-5.326 10.5-4.938 7.28.926 7.84-2.789 7.77-8.08-.08-5.992.2-11.861 7.75-14.592.58 1.674.8 2.962 1.43 3.997 1.45 2.365 3.09 4.607 4.66 6.899 2.54-2.517 7.62-5.635 7.19-7.45-2.16-9.116 4.04-9.596 9.56-10.089 8.33-.745 11.97-4.99 13.86-12.946 1.12-4.732 4.75-9.119 8.01-13.028 4.08-4.891 11.56-8.441 12.97-13.784 4.08-15.449 5.09-31.687 8.77-47.272 3.37-14.32-2.18-27.456-2.81-41.146-.35-7.753-3.64-12.149-9.39-16.091-6.17-4.229-12.03-8.622-8.82-17.892.61-1.749-1.37-5.087-3.06-6.799-4.3-4.366-9.33-8.019-13.7-12.334-8.87-8.773-17.37-17.938-26.36-26.587-1.68-1.613-5.2-1.134-7.44-2.387-3.6-2.021-7.09-4.415-10.18-7.156-2.19-1.94-3.8-4.611-5.39-7.132-4.68-7.439-9.12-4.116-13.618.148-5.225 4.954-4.242 10.647 1.178 13.266 7.85 3.796 10.68 9.999 13.19 17.408 2.54 7.528 6 14.747 9.66 23.573Zm-84.629-80.242 30.95 14.356 11.3-3.032 1.307 13.387c1.117.298 3.848 1.987 5.283 1.227 4.016-2.126 7.497-5.264 11.19-8.003-2.699-2.657-5.216-5.539-8.146-7.911-3.208-2.597-6.829-4.678-10.215-7.062-11.988-8.441-23.508-17.681-36.137-25.011-5.309-3.081-10.584-4.575-11.977-11.39-.245-1.196-2.548-1.922-3.817-2.966-4.144-3.409-8.345-6.758-12.328-10.347-1.944-1.753-3.071-5.052-5.224-5.826-11.518-4.136-13.295-15.373-17.637-24.306-3.832-7.883-5.408-16.862-7.952-25.267-2.538-1.014-8.109-1.947-8.303-3.537-.936-7.653-.421-15.484-.421-23.252l3.127-.161 5.543 10.303 3.554-.564c0-4.887-.392-9.816.12-14.65.439-4.144.597-10.139 3.187-11.879 6.625-4.45 7.9-9.633 6.094-18.363-3.175 1.678-6.188 2.533-8.154 4.457-4.625 4.526-7.906 9.312-16.207 9.271-5.193-.025-11.423 5.473-15.404 10.046-6.89 7.915-12.547 16.936-18.393 25.712-1.919 2.88-3.311 6.329-4.056 9.713-.774 3.516.555 7.723-.821 10.839-5.795 13.12-4.544 26.167.519 38.728 4.769 11.835-.297 28.383 16.248 34.934 1.27.503 1.519 4.08 1.882 6.288 1.348 8.2 6.725 11.859 14.775 9.762 3.509-.915 7.077-3.281 10.405-2.935 19.415 2.016 38.767 4.641 59.708 7.439Zm42.098 288.351-12.405 6.38.626 3.087c5.339-.792 10.873-.964 15.958-2.565 4.35-1.37 8.223-4.32 12.115-6.865.162-.107-1.944-4.753-2.454-4.649-4.29.879-8.453 2.374-13.84 4.612Zm-18.421-452.466 1.503-2.523-4.136.02c.512.835 1.024 1.67 2.633 2.503Z"/><path fill="#283E50" d="M1669.79 41.285c-3.51.632-7.16.4-10.82.4-233.61-.018-467.21-.018-700.817-.019h-15.504v52.899h160.781V216.24c55.45-58.995 121.04-90.238 199.55-91.105 78.19-.864 144.26 28.612 200.31 85.479V95.703h81.44c-1.26 24.977-2.51 49.811-3.76 74.646-.03.665-.2 1.336-.14 1.991.92 10.663-3.04 16.928-12.8 23.351-28.15 18.521-28.31 59.576-1.53 80.306 4.67 3.615 6.65 6.878 6.14 13.123-1.47 17.806-1.9 35.698-2.76 54.061h54.78c-.92-18.613-2.15-36.771-2.45-54.945-.07-3.782 2.29-8.923 5.25-11.234 30.02-23.432 26.44-67.607-7.16-85.686-2.31-1.242-4.25-3.523-5.78-5.726-.82-1.188-.45-3.234-.54-4.896-1.49-28.212-2.98-56.425-4.52-85.812 20.29 0 39.54 0 59.68-.316-2.34 2.24-5.51 6.866-8.8 6.956-9.17.25-18.57-.584-27.54-2.525-7.07-1.527-11.56-.315-12.33 6.857-1.02 9.609-1.26 19.332-1.28 29.008-.03 12.619.47 25.24.76 37.859.2 8.475 3.64 14.553 12.11 17.497 2.17.752 5.23 3.069 5.35 4.842.67 9.757 7.55 11.766 15.08 12.878 7.67 1.131 7.78 4.095 3.83 9.98-2.16 3.224-3.02 7.693-3.35 11.693-.97 11.817-1.33 23.683-2.1 35.519-.07 1.094-1.28 2.974-2.07 3.03-8.56.607-9.09 8.006-13.05 13.132-5 6.48-5.57 11.531-4.57 18.864 1.35 9.9.31 20.13 1.67 30.028.65 4.73 7.9 8.632 1.61 14.187-1.87 1.653-4.15 3.812-6.35 3.956-12.92.843-25.87 1.116-38.8 1.675-3.64.157-8.01-.556-10.75 1.178-8.88 5.634-15.44-.856-18.27-5.892-2.49-4.434.79-12.232 1.84-18.491.55-3.207 2.24-6.238 2.65-9.446 1.76-13.824-2.71-26.656-7.01-39.427-.89-2.643-3.18-4.792-4.71-7.245-3.69-5.914-10.34-11.863-10.36-17.817-.06-16.364 1.75-32.92 4.86-49.003.98-5.047 7.74-11.133 13.08-12.784 18.74-5.789 15.26-20.911 15.94-34.214.67-13.085 0-26.24.73-39.32.51-9.176-4.02-15.477-13.01-15.543-14.66-.107-29.32.287-43.97-.158-7.7-.234-10.75 2.237-10.5 10.24.48 15.307 1.77 30.862-.28 45.906-2.46 18.047-.11 35.832-.93 53.689-.15 3.394-4.03 6.618-6.19 9.921-2.25-2.358-4.48-4.726-6.75-7.07a720.453 720.453 0 0 0-8.1-8.313c-2.63-2.646-5-5.678-8.01-7.788-13.27-9.308-22.3-24.409-39.06-28.831-1.85-.486-4.24 1.094-7.33 1.994-2.4-11.532-10.78-14.682-21.08-16.354-5.2-.845-9.84-4.833-14.9-6.998-11.61-4.965-23.22-9.985-36.43-8.343-2.31.288-5.06-.435-7.18-1.517-21.86-11.121-45.33-8.476-68.48-7.921-3.34.08-6.6 2.865-9.9 4.367-1.72.781-4.33 2.63-5.08 2.064-9.27-6.985-13.7.928-19.54 6.807-10.55-11.178-19.94 2.282-28.35.852-2.45 5.137-4.04 9.46-6.54 13.165-.8 1.176-4.93 1.747-6 .821-7.62-6.627-13.73-2.093-20.41 1.72-5.85 3.342-12.23 5.747-18.3 8.745-1.33.657-2.15 2.275-3.43 3.097-3.76 2.407-7.64 4.636-12.47 7.538 2.65 12.603-15.04 7.609-18.16 17.266 3.51 3.212 7.09 6.495 10.37 10.533-.87 1.389-1.45 2.021-1.99 2.684-.01.014.42.388.65.594l2.07-2.674c6.61-.855 13.31-1.274 19.76-2.795 2.35-.554 5.04-3.374 5.92-5.77 3.57-9.67 7.95-11.627 18.66-11.088 4.46.225 9.08-4.12 13.73-6.138 5.4-2.338 10.87-4.526 16.4-6.547 4.92-1.801 11.17-1.942 14.71-5.158 11.11-10.115 22.33-10.517 36.77-7.508 13 2.71 27.44.196 40.96-1.851 8.02-1.214 15.48-6.03 23.24-9.123 1.52-.608 3.66-1.557 4.79-.966 7.88 4.1 17.59 6.922 22.79 13.336 6.26 7.727 13.13 9.585 21.52 9.496 7.97-.085 13.91 1.163 19.68 8.344 4.16 5.179 13.02 6.971 20.1 9.304 5.75 1.895 11.97 2.349 17.99 3.442-.13 1.073-.25 2.147-.38 3.221-1.89.465-3.79.929-8 1.96 4.41 2.716 7.01 5.635 9.75 5.762 8.27.384 16.09.663 20.6 9.29.37.709 2.96.582 4.42.32 2.18-.389 4.28-1.245 6.42-1.903.01 2.841.52 5.782-.03 8.506-2.86 14.103-.09 17.74 11.96 17.315 3.96 5.246 6.4 11.58 10.85 13.709 8.39 4.013 9.44 10.044 9.41 17.851-.02 8.706 2.18 16.169 14.39 15.346-3.73 14 .66 24.716 8.91 33.802 1.17 4.345 2.2 8.734 3.55 13.023 1.17 3.717 3.53 7.237 3.9 10.989.98 9.848 1.49 19.773 1.57 29.673.15 19.877-.08 39.758-.21 59.638-.05 7.533-1.49 15.306-.09 22.54 2.08 10.725-7.44 14.889-10.68 22.482-2.25 5.263-5.34 12.75-9.49 13.863-3.9 1.043-9.67-5.017-14.66-7.874-.84-.481-1.9-.765-2.87-.813-7.41-.365-15.7 2.667-21.01-5.595-3.16 2.112-7.25 3.578-9.26 6.484-3.31 4.794-3.89 11.216-13.05 7.554-3.02-1.208-9.3 3.762-13.12 7.033-4.57 3.911-8.06 9.076-12.13 13.602-1.52 1.698-4.63 2.988-4.81 4.701-.81 7.497-5.34 8.649-11.7 8.868-5.76.199-7.92 4.276-7.11 9.802.43 2.956 1.65 5.884 1.59 8.807-.13 6.558-.57 12.225-10.25 12.133-9.39-.089-17.99 1.383-23.44 12.73-3.67 7.661-13.08 14.802-21.42 17.391-8.98 2.794-20.22 1.775-29.49-.95-6.27-1.845-8.92-8.846-7.97-18.037 1.27-12.175 12.54-23.435 4.08-37.033-1.02-1.636 4.07-7.611 6.97-11.037 7.22-8.549 7.41-17.57-.69-27.471-1.2 5.325-2.25 9.975-3.3 14.625l-3.36.014-3.52-22.24c3.68 0 5.65.386 7.37-.11 1.66-.479 3.05-1.867 4.56-2.856-1.12-1.369-2.01-3.579-3.4-3.953-4.59-1.234-9.33-2.053-14.06-2.571-6.75-.739-13.49-.842-12.87-10.709.15-2.31-2.26-4.675-2.97-7.164-3.53-12.46-7.46-24.859-9.93-37.535-.64-3.304 2.97-7.893 5.5-11.221 2.31-3.025 5.81-5.138 10.23-8.882 12.5-.251 24.09-16.117 20.04-30.596-2.39-8.55.96-12.833 10.39-14.105 9.67-1.305 11.9-10.475 14.63-17.112 2.79-6.775 1.66-15.16 2.3-23.478 7.69 2.595 13.99-10.139 23.72-3.866.56.359 2.94-.766 3.31-1.675 3.78-9.309 13.09-11.614 20.1-16.96 6.19-4.716 10.02-12.515 14.46-18.377 8.41 0 17.09.048 25.77-.053 1.25-.015 2.7-.458 3.7-1.191 9.52-6.962 9.36-6.936 14.14 4.598 1.09 2.633 3.02 5.451 5.36 6.889 2.52 1.549 5.97 1.576 9.02 2.267.75-3.645 2.11-7.307 2-10.926-.05-1.834-2.51-3.896-4.32-5.309-2.99-2.344-7.45-3.54-9.29-6.475-4.89-7.787-15.75-11.066-16.36-22.293-.09-1.747-5.1-3.502-8.04-4.77-6.69-2.88-13.5-5.459-20.57-8.282-2.61 4.685-6.17 11.063-9.72 17.441-1.17-.205-2.33-.41-3.49-.615l-2.88-9.268-2.04-.425c-.67 6.595-1.34 13.189-2.04 20.051-1.49.636-4.19 1.415-6.5 2.835-5.77 3.557-11.35 7.435-17.05 11.114-1.65 1.065-4.1 1.449-5.1 2.894-8.89 12.843-20.4 14.801-35.16 11.579-3.64-.794-9.45 8.044-14.14 12.583-1.52 1.472-2.57 4.754-3.96 4.825-8.74.45-17.51.228-25.64.228 0-9.729 1.56-18.17-.61-25.508-1.2-4.037-8.66-6.219-13.3-9.237-.9.385-1.81.77-2.72 1.155.99 3.892.76 8.956 3.18 11.466 8.54 8.858 9.07 10.509 1.85 20.672-.94 1.32-1.73 2.741-2.51 3.972 8.58 11.363 5.38 17.347-6.98 24.091-9.94 5.427-18.07 3.214-27.38-.139-.42 2.227-.74 3.86-.58 3.041-7.58-1.499-16.35-6.166-21.27-3.563-8.88 4.698-16.96 6.939-26.65 5.681-.58-.075-2.72 5.97-2.79 9.197-.11 5.127.91 10.278 1.37 14.566l-10.81 1.766c2.15 2.434 4.53 4.709 6.39 7.347 1.72 2.425 3.8 5.145 4.08 7.905.51 4.879-.76 9.934-.32 14.828.88 9.786 4.35 12.167 15.92 10.446 2.25 7.044 4.18 14.554 7.13 21.648 1.21 2.926 4.58 4.958 8.51 5.899 1.19 4.889 2.38 9.779 3.6 14.841 12.88-4.668 12.29-4.591 13.98 8.31.54 4.191 4.25 9.088 7.93 11.504 6.38 4.194 8.58 8.261 5.61 15.665-1.75 4.367-1.61 9.488-2.05 12.382-3.74 3.058-7.17 5.111-9.62 7.995-7.85 9.243-15.74 18.5-22.76 28.359-3.16 4.43-3.85 10.543-6.5 15.435-1.76 3.253-5.02 5.696-8.46 8.059-1.49-1.005-2.13-1.574-2.81-2.1-.02-.016-.39.418-.6.642l2.64 2.131c-13.94 8.095-14.06 24.274-20.6 36.086-5.73-3.189-13.18-4.879-15.83-9.39-4.02-6.821-6.52-15.645-6.37-23.552.27-13.516 5.27-27.151 4.24-40.421-1.03-13.237-1.7-27.63-14.61-37.843-5.8-4.585-11.69-11.821-8.46-22.683 3.13-10.507 3.4-22.133 3.17-33.231-.09-4.273-4.1-10.028-7.98-12.289-5.69-3.325-9.6-5.501-8.68-13.358.92-7.872-6.35-11.367-13.98-7.999-1.69.747-4.81.839-5.85-.196-1.17-1.167-.72-3.949-.98-6.029-.44-3.637-.15-10.118-1.44-10.448-8.22-2.104-8.34-9.239-11.75-14.689-2.55-4.069-9.23-6.531-14.51-7.662-6.96-1.49-8.84-4.188-7.18-10.998 1.54-6.334 7.14-12.423 2.09-19.645-.35-.498 1.34-2.86 2.49-3.909 18.68-17.016 19.6-18.855 19.28-39.732 14.66-6.403 22.13-18.487 16.67-26.971 22.88-5.926 20.42-9.503 11.81-27.902-7.44 1.32-14.34 3.397-21.19 3.267-2.21-.042-6.02-5.836-6.12-9.098-.28-8.159 1.69-16.368 1.78-24.568.29-23.995.14-47.996.09-71.995-.02-12.24-.63-12.829-13.18-12.842-35.33-.035-70.67.022-105.998-.038-7.872-.013-15.755-.672-23.609-.378-2.841.107-5.609 2.137-8.888 3.486-7.803-4.877-10.229-11.133-9.064-21.844 1.46-13.434-1.782-27.375-2.941-41.102-.164-1.944-.023-3.914-.023-7.787 9.843 0 19.184-.217 28.51.07 7.284.223 14.55 1.565 21.824 1.568 223.319.088 446.639.044 669.969.261 5.01.005 10.01 2.813 15.18 5.07Zm-285.97 514.884c6.2-5.918 14.65-10.759 18.1-17.987 6.38-13.332 15.94-22.546 27.63-30.637 5.98-4.134 11.07-9.551 18.46-16.067-15.98-1.259-19.96-10.128-21.45-21.278-1.32-9.891-3.05-19.728-4.35-29.621-.42-3.193-.07-6.488-.07-9.737l2.93-.074c.85 3.759 2.02 7.479 2.48 11.286 1.26 10.564 1.74 21.249 3.58 31.704.63 3.601 3.66 8.444 6.78 9.642 10.3 3.959 30.51-3.878 37.03-13.198-5.59-7.326-11.17-14.639-16.28-23.082 2.72.295 5.74-.048 8.09 1.039 3.18 1.469 5.85 4.037 8.88 7.538 10.64 13.23 24.58 20.789 41.08 24.069 6.23 1.238 8.79-1.549 10.53-7.329 16.04-53.148 14.93-105.68-5.43-157.488-10.41-26.471-27.63-48.537-44.88-70.897-16.54-21.447-38.69-35.123-61.19-47.473-21.3-11.693-44.79-19.219-69.44-23.711-29.36-5.352-58.45-4.584-87.12-.126-36.33 5.65-69 21.789-97.93 44.737-28.57 22.665-51.51 49.91-66.22 83.817 0 0 .14.118-.88 1.041-2.91 7.072-5.45 14.326-8.82 21.166-3.63 7.341-1.03 11.512 5.27 15.566 4.84 3.109 9.43 7.111 12.96 11.627 6.03 7.697 10.4 16.754 16.81 24.066 8.96 10.219 19.2 19.304 28.78 28.984 5.39 5.446 6.09 11.391 1.74 18.024-7.26 11.078-6.93 22.535-.94 34.046 3.38 6.486 6.35 13.248 10.36 19.323 7.83 11.861 11.33 24.613 10.29 38.754-1.13 15.267-2.52 30.543-2.72 45.83-.06 3.949 3.88 7.952 5.99 11.93 3.31-2.955 8.65-5.379 9.59-8.957 4.08-15.534 13.65-26.621 24.58-37.83 11.93-12.228 21.78-26.546 31.98-40.363 5.85-7.921 3.38-15.18-3.04-22.353a946.532 946.532 0 0 1-35.97-42.677c-8.09-10.195-16.81-18.763-30.17-21.34-6.45-1.245-10.9-4.806-10.8-12.173 0 0 .06-.054 1.68-.494l17.29 2.347c-.62-2.004-.63-3.574-1.42-4.358-11.32-11.22-22.18-23.151-39.13-25.95-4.08-.674-11.02-1.554-7.59-6.958 3.15-4.946 10.14-8.39 16.12-10.191 3.01-.903 8.33 2.545 11.21 5.42 4.11 4.095 6.94 9.473 11.78 16.406 1.7-5.554 3.66-8.894 3.56-12.174-.41-14.231 7.97-20.865 19.98-25.163 17.02-6.091 34.07-8.205 51.9-3.496 11.86 3.132 16.39.04 19.81-11.894 4.16-14.522 3.21-29.043-1.27-43.27-2.89-9.168-8.64-11.055-16.92-5.885-4.22 2.631-7.82 6.222-11.97 8.98-3.61 2.4-7.59 4.238-11.41 6.324-1.09-.757-2.19-1.514-3.28-2.27 3.29-9.474 6.41-19.014 9.94-28.4 2.65-7.032 7.83-8.767 14.43-5.337 8.55 4.449 16.68 9.869 25.55 13.473 4.52 1.835 11.46 2.607 15.25.37 8.52-5.036 11.23-21.84 6.8-31.95-5.14-11.717-13.65-16.578-26.32-14.836-5.39.74-10.73 1.788-16.09 2.696 11.81-8.519 24.12-15.874 37.36-20.602 4.82-1.724 14.91.944 17.31 4.852 5.23 8.537 9.8 13.814 20.28 7.768 3.38 19.627-.12 35.465-13.32 48.499-9.33 9.205-16.48 19.5-15.01 33.335.34 3.159 2.61 7.244 5.21 8.65 1.87 1.012 6.78-.839 8.59-2.926 9.61-11.131 22.41-14.501 36.08-17.285 17.53-3.57 34.82-8.911 42.55-27.504 5.09-12.236 8.76-25.06 14.41-37.915.91.107 1.81.213 3.52 1.392 6.39 3.229 13.26 5.756 19.07 9.811 21.76 15.197 41.53 32.701 56.42 54.873 2.22 3.296 2.24 10.591.04 13.877-8.49 12.711-11.66 12.678-23.19 2.777-11.11-9.537-23.34-11.346-32.91-4.53-5.12 3.642-10.23 7.427-14.74 11.773-12.76 12.306-26.05 24.595-18.59 45.292.09.227-.23.597-.36.9-10.29 2.067-15.61-2.398-18.54-13.594-1.03-3.954-5.07-7.121-7.74-10.648-2.3 3.924-6.69 7.937-6.52 11.757.6 14.205-4.27 24.953-15.33 33.859-7.56 6.098-14.66 13.494-2.78 22.9l-29.56 22.683c-8.96 6.866-12.46 16.1-11.9 27.149.84 16.479 9.47 27.177 28.24 32.979 10.46 3.234 17.52 8.493 16.38 20.199-1.15 11.803-2.91 23.566-4.91 35.261-2.39 14.017-6.02 27.855-7.78 41.937-1.43 11.442 2.64 14.362 14.12 12.579 15.45-2.399 25.78-12.855 36.1-23.017 0 0 .1.13 1.38-.262ZM1146.48 219.84l-13.17-10.513c-1.2 1.222-2.4 2.445-3.61 3.667 2.59 3.504 4.69 7.609 7.99 10.205 1.26.993 5.24-1.467 8.79-3.359Zm193.14-58.465c-.45-1.012-.89-2.023-1.33-3.034-.9.605-1.79 1.21-2.69 1.815.98.521 1.95 1.042 4.02 1.219Zm66.11 61.725.33 1.736c.13-.573.26-1.147-.33-1.736Z"/><path fill="#22415B" d="m632.165 474.01 8.688 7.718c10.391-6.56 5.505-19.033 8.727-28.849.995-3.032 2.21-6.202 4.141-8.669 3.196-4.083 7.088-7.616 10.625-11.438 4.61-4.982 14.501-3.557 21.436 4.186-20.016-2.837-36.194 11.957-24.185 33.658-2.011 3.092-4.521 5.889-5.828 9.166-3.447 8.646-2.862 17.22 3.763 24.131 8.334 8.693 19.396 9.158 29.649 5.65 6.824-2.335 12.437-3.534 18.637.23-1.338 1.541-2.458 4.09-4.055 4.435-4.972 1.076-10.124 1.317-15.206 1.882l-.309 3.905c3.018 1.012 6.29 3.322 9.005 2.789 7.613-1.493 12.987-.985 11.867 8.706 28.223-5.096 29.725-4.729 32.578 8.189-11.898 1.311-11.732 12.422-14.975 20.188-3.772 9.034-5.078 19.097-7.683 29.638-2.433.141-5.665.33-9.605-.184 5.952-18.587 12.612-36.473 19.271-54.359l-3.109-1.66c-9.405 7.368-7.898 21.333-15.477 31.139-3.77-9.384-7.064-18.003-10.764-26.444-.767-1.75-3.041-2.839-4.621-4.233-.857 1.361-1.715 2.722-3.143 4.722-8.137-6.258-16.586-8.77-26.137-3.905-10.134 5.163-10.29 14.453-9.523 24.083.766 9.593 6.07 15.176 15.223 17.015 9.564 1.921 16.187-1.888 21.435-13.817-4.472 2.366-7.064 3.337-9.184 4.935-5.912 4.454-11.68 4.783-17.047-.496-5.594-5.504-6.15-18.605-.671-24.04 5.382-5.34 11.574-5.99 17.845-.732 1.775 1.488 4.144 2.265 6.241 3.368.736-2.42 1.471-4.84 2.75-6.769 2.242 4.792 3.947 9.091 5.637 13.397 4.704 11.977 13.352 23.495 4.371 37.201-.155.237 3.163 2.749 4.861 4.2l-1.218 10.765c-3.89-1.462-10.972-2.584-11.169-4.438-1.751-16.469-15.663-15.242-25.639-16.68-8.228-1.187-17.212 2.871-25.796 4.591l-8.015-37.714-3.065-.333c-1.497 5.687-3.179 11.334-4.439 17.074-1.202 5.483-1.173 11.36-3.111 16.529-2.804 7.481-7.636 7.377-13.685 2.456-2.268-1.846-7.543-.31-11.383.183-3.382.433-6.651 2.107-10.012 2.253-4.94.214-9.955-.962-14.872-.611-7.8.557-15.539 1.949-23.322 2.821-1.213.136-3.035-.193-3.712-1.017-6.825-8.301-14.15-3.73-22.111-1.998-10.399 2.261-20.147-2.801-30.039-5.775-3.829-1.151-9.734-1.305-12.448.878-7.567 6.086-15.901 6.02-24.544 5.777-1.895-.053-3.778-.756-5.653-1.212-2.834-.69-5.656-1.425-8.807-1.33-13.164-6.917-11.093-18.992-10.072-30.909.223-2.606-.978-5.334-1.743-9.086-3.419 6.635-6.086 10.751-7.647 15.25-.896 2.584.023 5.79.088 8.717.101 4.601 1.541 9.915-.324 13.503-.936 1.799-7.916.521-12.161.497-1.279-.008-2.555-.481-4.44-.864l-1.842 6.277c-9.337-.89-17.985-1.715-27.423-2.545-2.174-1.771-3.943-5.231-4.88-5.018-4.829 1.093-10.459 2.001-13.897 5.097-5.223 4.705-8.431 2.993-12.726-.568-5.301-4.396-11.185-8.097-16.408-12.575-1.801-1.545-3.128-4.447-3.368-6.859-.806-8.114-1.994-16.395-1.106-24.398.536-4.829 4.101-12.754 7.25-13.246 11.543-1.804 22.688-12.405 35.399-2.303 4.648 3.694 12.059-.095 16.035-7.746-10.764-2.886-21.201-5.685-32.413-9.439-.775-18.098-.775-35.24-.775-52.218h-12.282c0 9.344.144 18.241-.043 27.13-.165 7.898-2.352 15.283-11.734 15.457-9.433.174-12.002-6.759-11.978-15.015.026-9.196.006-18.392.006-27.479h-12.426c0 11.849-.663 23.146.16 34.333 1.145 15.558 12.215 23.489 27.06 18.896 6.289-1.945 11.564-1.896 17.329.142-1.538 1.156-3.136 3.371-4.605 3.289-7.188-.402-10.114 3.061-9.269 11.491-13.368-5.46-25.395-10.373-38.263-16.299-.84-23.745-.84-46.476-.84-69.798l-13.14.603v17.467c-3.915-.731-6.81-1.572-9.747-1.765-9.603-.629-17.921 2.149-22.86 10.918-6.347 11.268-6.288 22.975.167 34.134 4.975 8.599 13.098 11.574 22.898 10.762 7.185-.596 14.41-.71 21.617-1.039-8.15 2.55-16.158 6.079-24.501 7.286-5.067.734-12.118-.489-15.698-3.705-7.275-6.536-13.572-5.064-20.832-1.384-15.996 8.107-35.372 3.417-46.763-10.56-3.567-4.376-8.581-7.573-12.087-10.583 4.335-7.564 8.288-15.19 13.002-22.312 1.785-2.695 5.329-4.225 8.562-5.515-1.334 4.641-3.81 8.34-4.866 12.408-3.918 15.094 3.311 29.733 16.601 34.14 11.236 3.727 28.205.465 32.464-13.707-5.152-2.308-9.041-5.357-15.297.43-8.314 7.691-18.964 2.125-19.985-10.268h37.163c-.251-12.002-1.897-22.595-12.651-28.123-11.39-5.855-22.516-3.6-32.398 4.521 1.925-14.836 12.093-19.484 25.75-13.988 11 4.426 22.962 12.202 34.968.82 1.138-1.079 4.489.556 6.569.009 3.931-1.035 10.148-1.814 11.092-4.325 4.413-11.738 15.017-12.828 24.184-16.914 2.776 4.397 4.644 8.783 7.779 11.889 2.749 2.723 6.798 5.32 10.489 5.667 8.882.836 17.909-.026 26.844.441 9.471.495 18.904 2.478 28.353 2.478 14.954.001 29.902-1.316 44.862-1.676 10.084-.242 20.217.729 30.263.107 4.6-.285 9.044-3.097 16.32-5.783-6.06-4.466-9.476-6.394-12.068-9.108-1.636-1.713-2.269-4.549-2.834-7-.14-.612 1.994-2.573 2.616-2.384 1.997.61 5.119 1.637 5.429 3.031 2.796 12.597 14.274 6.915 21.277 9.393 6.444 2.281 14.86-.579 22.32-1.738 5.568-.865 11.158-3.493 14.315 3.535-4.065.602-7.252.602-11.223.602l.5 11.112h11.175l1.094-8.811c4.664 11.403 5.72 10.889 17.725 8.128 9.36-2.154 19.874-3.049 29.065-.951 6.935 1.583 12.429.145 18.783-.231 14.425-.853 29.035.273 43.484 1.553 6.268.555 9.003 10.423 5.23 18.942-4.303-8.472-10.856-12.734-19.546-12.382-9.232.374-18.412 2.031-28.065 3.181v50.806h12.341c0-9.045.131-17.321-.036-25.592-.169-8.417 1.512-15.609 11.466-16.714 7.442-.826 12.188 5.896 12.367 17.032.137 8.514.027 17.031.027 25.545h12.586V474.01Zm-194.939 56.468c-.476.387-.862.849-2.72 1.659-2.108.106-4.215.213-7.142-.643-3.568-1.85-7.348-4.832-10.985 2.323-4.231 10.232-2.883 37.394 4.057 42.397 0-8.809-.429-16.248.121-23.613.545-7.311 2.755-14.445 11.995-14.242 9.167.201 11.062 7.154 11.37 14.654.233 5.657-.355 11.386.381 16.956.209 1.574 3.794 2.702 7.531 4.04 2.835-.055 5.67-.11 10.076.06 5.823.283 12.048 1.935 17.33.382 3.695-1.085 8.227-6.41 8.477-10.105.243-3.606-3.793-8.433-7.22-11.08-3.159-2.438-8.228-2.23-12.027-4.073-2.533-1.228-4.313-4.007-6.43-6.092 2.881-1.691 5.704-4.596 8.661-4.741 3.159-.154 6.465 2.25 9.668 3.628 2.1.904 4.129 1.97 6.191 2.963-.261-2.631-.523-5.261-1.594-9.122-.813-.543-1.626-1.085-2.694-1.454 0 0-.202-.234-1.287-1.09-.874-.285-1.749-.57-3.899-.645-1.701-.251-3.402-.501-5.368-1.842-1.894.403-3.789.806-6.376 1.93 0 0-.974.225-1.872-.674-6.045 1.398-12.091 2.795-19.298 3.789-2.078-1.251-4.156-2.502-6.183-4.786.014-.345.029-.69.357-1.212l.019-.435s-.388.557-1.139 1.068Zm-107.781-51.039c4.298-7.252 3.884-14.015-.468-20.369l-3.684-.04-3.147 31.054 3.583.56c.753-3.545 1.505-7.09 2.271-10.644 0 0 .009-.013 1.445-.561Zm184.507-23.11-9.348.515v52.306h12.14c0-16.754 0-32.972 1.378-49.196l7.208-2.39-1.265-4.059c-2.805.886-5.608 1.771-10.113 2.824Zm100.394 79.946c-1.589 1.5-3.178 3-5.925 3.673-8.418-9.365-21.56-10.665-28.277-2.446-1.439 1.76-1.222 4.873-1.768 7.363 2.06-.9 4.501-1.363 6.116-2.773 8.266-7.219 16.113-5.111 18.797 5.956-5.508.971-11.021 1.719-16.425 2.948-8.045 1.828-13.24 6.174-11.635 15.353 1.219 6.968 8.354 11.115 17.194 9.355 5.924-1.179 11.526-4.383 19.211-1.706 1.423.004 2.845.007 5.486.761 1.625-1.336 4.464-2.521 4.654-4.037.612-4.895.178-9.914.279-14.883.234-11.565 4.186-17.456 11.731-17.649 7.731-.198 11.65 5.463 11.811 17.261.088 6.457.016 12.916.016 21.521 3.459-2.55 6.067-3.603 6.042-4.588-.256-9.854.064-19.914-1.988-29.44-.873-4.054-6.724-9.504-10.734-9.885-7.595-.721-15.493 1.76-24.585 3.216Zm-190.895-64.078c9.067-8.776 16.683-8.125 19.836 1.908-7.996 1.923-16.149 3.333-23.918 5.903-8.221 2.719-10.471 9.603-9.461 17.636.955 7.603 5.759 12.508 13.048 12.628 7.525.124 15.085-1.877 22.152-2.88l10.079 2.895c.623-2.174.953-2.796.958-3.422.09-10.289.238-20.579.174-30.867-.083-13.21-4.428-18.458-16.59-20.43-14.804-2.4-23.034 1.851-27.787 15.224 3.481.752 6.893 1.49 11.509 1.405Zm134.269-16.081c-3.326-.019-6.652-.073-9.978-.05-13.327.089-19.831 5.225-23.02 18.14-4.804 19.454 6.03 37.179 23.12 37.825 12.969.491 25.901-8.416 27.784-20.469 2.158-13.808.614-28.443-17.906-35.446Zm-169.77-.815c-17.61-.513-27.869 7.737-29.65 23.843-1.702 15.394 6.046 28.228 18.768 31.089 15.144 3.406 25.782-2.164 30.221-15.862-5.657-2.463-10.451-4.239-15.672 2.21-4.584 5.661-15.25 3.806-17.459-3.135-1.958-6.154-2.14-13.825-.305-19.993 2.301-7.736 12.698-9.824 17.842-3.533 5.624 6.878 10.218 4.662 16.18 1.84-2.664-9.906-8.985-14.818-19.925-16.459Zm18.445 85.729c-5.761-8.894-14.047-10.895-23.36-7.335-14.84 5.672-12.841 18.677-11.945 29.115-3.943 1.335-7.531 1.631-9.829 3.506-6.201 5.061-12.108 5.279-17.798-.056-5.213-4.887-5.619-19.366-.551-24.128 5.956-5.597 12.309-5.529 18.671.079 1.67 1.472 4.453 1.679 8.824 3.194-5.671-12.534-13.865-14.406-22.94-12.659-9.997 1.926-14.023 9.81-14.569 18.999-.55 9.233 1.071 18.625 11.126 22.31 4.582 1.679 10.72 1.822 15.252.179 4.673-1.694 8.252-6.407 12.308-9.797 7.942 10.896 15.973 14.165 25.989 10.253 9.977-3.897 12.366-12.32 12.137-21.812-.085-3.556-1.526-7.079-3.315-11.848Zm84.372-75.059c8.524.62 5.524-4.627 5.103-9.289l-14.269-.878-1.015-13.088h-12.4v12.811l-8.191 1.533c-4.305 9.705 3.881 8.385 8.243 9.87 0 6.973.007 13.268-.001 19.562-.028 21.322 6.056 26.378 27.309 22.648v-9.115c-13.901-.496-14.4-1.025-14.442-14.575-.012-3.983.354-8.01-.113-11.939-.752-6.332 1.912-8.504 9.776-7.54Zm37.256 98.315v-30.154l-3.394-.711c-.879 1.835-2.403 3.63-2.518 5.511-.344 5.632.554 11.413-.368 16.912-.71 4.227-2.392 9.427-5.48 11.894-7.522 6.009-16.574.513-17.577-10.615-.692-7.676-.133-15.465-.133-23.204l-4.909-.325c-2.718 9.028-2.274 18.757-.479 28.027 4.371 22.574 22.152 9.973 34.869 12.686 0-2.981 0-5.61-.011-10.021Zm31.98-4.11v-21.141l12.239-1.499-.079-2.863-11.118-1.808c-2.707-3.98 2.661-13.656-8.421-10.061 4.821 9.233-1.442 11.371-8.795 14.433l10.362 4.308c0 8.325-.817 17.06.427 25.491.458 3.111 5.403 6.364 9.007 7.919 2.322 1.002 5.926-.966 7.551-1.308-4.508-4.724-7.832-8.209-11.173-13.471Zm-20.967 14.645c.982-2.081 2.723-4.13 2.811-6.248.332-7.983.125-15.989.123-23.987-.002-8.696 0-17.392 0-26.088l-4.786-.083c-1.979 18.554-1.861 37.214 1.852 56.406Zm156.38 9.623 3.558-6.554-4.371-1.239c-.031 2.324-.062 4.649.813 7.793Zm15.79-46.881 1.01 1.222.655-.609c-.386-.362-.771-.725-1.665-.613ZM491.354 209.354c16.079-5.817 9.44-20.417 10.016-30.572 1.311-23.131-.735-46.445-1.178-69.689-.095-4.929 1.31-9.895 1.141-14.813-.165-4.757-.403-10.017-2.484-14.1-4.971-9.756-2.489-17.037 8.307-17.667 13.901-.81 27.9.043 41.856.27 1.961.033 4.684 1.567 5.752.735 10.102-7.872 20.634-2.491 31.049-1.561 6.358.567 12.313.138 12.519-8.659.034-1.477 1.431-4.224 2.085-4.19 10.843.558 11.822-9.52 17.359-14.77 4.252-4.031 12.402-3.952 18.641-5.652l4.08 13.327c-1.658 6.117-4.029 10.95-3.674 15.574.132 1.73 6.654 2.883 10.192 4.46 4.04 1.801 8.877 2.914 11.804 5.873 5.288 5.348 2.634 9.748-3.892 11.723-13.068 3.956-16.706 8.324-16.875 22.375-.211 17.641.092 35.289-.133 52.93-.084 6.606-1.11 13.195-1.554 19.802-.418 6.204-2.121 12.854 5.608 16.446 1.206.561 2.241 2.421 2.535 3.849 1.061 5.166 1.69 9.92 9.297 8.159 6.647-1.539 10.645-3.811 10.351-11.745-.544-14.628-.594-29.307-.051-43.935.91-24.522 2.877-49.01 3.536-73.536.319-11.881-1.079-23.838-2.256-35.706-.26-2.63-2.793-5.076-4.406-7.523-2.733-4.148-5.567-8.229-8.358-12.338 4.444-1.971 8.888-3.942 13.612-4.79 1.995 7.692 5.158 14.254 5.199 20.834.38 61.456.225 122.915.225 184.057h33.514c-1.315-5.735-3.268-10.434-3.328-15.157-.313-24.326-1.024-48.701.128-72.976 1.019-21.477 10.048-40.03 27.89-52.906 11.416-8.239 22.706-4.774 28.558 8 1.896 4.139 3.31 8.927 3.338 13.429.255 39.86.148 79.723.148 119.876h32.654c-.923-8.84-2.391-16.839-2.48-24.852-.304-27.66.064-55.327-.194-82.987-.212-22.666-10.593-37.328-29.896-43.294-21.46-6.633-40.513-.289-53.611 17.841-1.749 2.42-3.543 4.808-5.589 7.58v-79.63l-26.828-1.184c4.133-9.709 14.668-5.722 21.474-9.89 2.306-1.412 5.795-.89 10.258-1.44 2.841 23.557-5.539 47.127.069 71.947 5.074-9.06 19.835-15.957 28.946-14.604 14.029 2.083 28.007 4.53 42.063 6.402 2.683.358 5.625-1.235 8.941-2.05.592.9 1.745 1.88 1.894 2.992 2.865 21.463 6.711 42.872 8.078 64.436 1.388 21.909.123 43.978.475 65.969.064 3.996 1.576 8.419 3.705 11.846 5.863 9.439 4.811 13.391-5.974 16.337-3.693 1.008-7.777.521-11.668.878-3.142.288-7.195-.274-9.215 1.449-5.688 4.854-11.631 3.366-15.215-.66-3.754-4.217-6.646-10.678-6.832-16.261-.304-9.087 2.716-18.242 2.887-27.396.461-24.654-.703-49.366.519-73.969.613-12.357-9.51-18.392-12.72-28.206-.099-.303-6.831.575-9.432 2.39-2.111 1.473-2.463 5.297-3.94 7.88-4.382 7.668-6.271 17.464-17.215 19.655-1.332.267-2.713 3.695-2.895 5.762-1.543 17.475-3.72 34.966-3.881 52.469-.133 14.404 1.829 28.88 3.612 43.23 1.225 9.861-3.603 14.859-13.652 14.359-6.499-.323-13.105 1.446-19.656 2.334-.621.084-1.52.981-1.731.81-10.131-8.211-21.365 2.346-31.946-1.934-4.078-1.65-9.34-1.612-13.807-.849-20.744 3.547-39.022-18.17-37.35-37.758 2.287-26.784 2.57-53.733 4.196-80.583.747-12.327.058-13.198-12.418-12.972-7.5.136-15.021-1.413-22.542-1.512-2.438-.032-6.366 1.55-7.112 3.401-3.75 9.31-8.792 18.808-9.45 28.508-1.42 20.901-.798 41.974-.273 62.957.236 9.389 2.096 18.756 3.506 28.089 1.196 7.923-1.176 12.341-9.935 11.745-3.651-.248-7.383.299-10.984-.196-9.298-1.277-17.261-1.366-15.855 11.811.119 1.114-2.346 3.478-3.66 3.514-1.485.042-4.08-1.688-4.331-3.004-.604-3.16-.269-6.538-.044-9.81.591-8.597-3.472-12.776-11.227-9.53-13.751 5.755-26.35 4.85-40.496.25-8.366-2.72-18.923.742-28.395 2.116-12.872 1.867-25.834 6.804-38.404 5.836-9.161-.705-17.773-8.785-26.581-13.664-2.306-1.278-4.432-2.88-6.641-4.333-.454 2.678-1.288 5.356-1.285 8.034.007 5.864.438 11.729-.658 18.147-9.979-12.372-23.915-10.083-35.674-10.734-26.581-1.473-53.301-.333-79.962-.546-7.275-.058-14.532-1.406-21.814-1.658-3.886-.135-8.428-.277-11.57 1.517-4.624 2.641-7.93 5.501-12.992.557-5.258-5.137-5.842-10.645-4.293-17.298 1.987-8.539 4.792-17.181 4.91-25.811.53-38.654.659-77.326.014-115.977-.248-14.831-2.802-29.64-4.612-44.42-.512-4.179-2.18-8.26 4.886-7.565 1.929 10.667 4.584 20.53 4.677 30.419.447 47.627.347 95.261.092 142.891-.057 10.569-1.529 21.131-2.404 32.393h151.089v-25.131l-79.534 9.631.522-8.926c21.661-1.59 42.49-2.751 63.228-4.828 7.966-.799 14.425-4.665 14.618-14.538.153-7.828.452-15.803 2.151-23.384.819-3.654 4.626-7.003 7.761-9.696 5.99-5.147 12.607-9.561 18.639-14.663 1.396-1.18 1.484-3.905 1.836-4.934-6.126 0-11.817-.587-17.344.114-14.615 1.853-9.555-10.747-12.028-16.956-2.368-5.947.765-10.865 6.97-15.418 9.221-6.766 16.339-16.364 24.586-24.52 2.002-1.98 4.784-3.979 7.435-4.352 10.49-1.48 21.08-2.246 31.614-3.44 2.596-.295 5.752-.453 7.565-1.97 6.159-5.155 11.404-2.599 17.342.412 3.955 2.005 8.624 2.844 13.077 3.564 5.838.944 11.779 1.258 15.11 1.588 6.115 10.16 11.359 18.15 15.792 26.567 1.984 3.768 3.336 8.405 3.28 12.625-.416 31.181-1.504 62.356-1.621 93.536-.013 3.387 4.8 6.793 6.786 10.711-10.736 1.324-11.548-4.829-11.446-12.872.326-25.627.346-51.264.062-76.893-.263-23.824-13.646-42.212-35.679-48.564-17.293-4.986-34.87-4.888-51.975 1.103-15.806 5.535-28.08 15.514-33.101 31.991-1.136 3.731 1.905 8.735 3.023 13.153 4.511-1.697 10.296-2.213 13.228-5.375 4.143-4.468 5.958-11.022 9.16-16.454 7.38-12.52 17.939-19.995 32.984-20.323 5.466 8.53 4.176 16.62-1.652 23.339-6.928 7.987-15.016 14.965-22.578 22.404-11.807 11.614-25.443 21.912-35.009 35.149-20.887 28.899-3.741 64.238 31.786 68.514 23.151 2.786 43.115-3.445 59.818-21.532 3.099 11.815 9.657 19.242 21.1 18.875 8.337-.267 18.384.851 22.337-10.115Zm46.513-123.492s-.608-.548-.723-2.172l2.137-14.205h-35.505c6.34 25.459 2.316 50.422 3 75.049.687 24.741.151 49.515.151 74.225h34.339c-1.743-5.24-4.381-9.529-4.406-13.833-.164-28.946-1.191-57.996.854-86.814 1.889-26.622 13.157-34.097 39.691-32.452 3.408.211 9.527-2.957 10.001-5.407.682-3.526-1.862-10.503-4.448-11.28-6.625-1.988-15.242-3.894-20.851-1.21-8.83 4.223-15.846 12.236-24.24 18.1Zm108.522-17.506h-15.391V36.902l-2.757-1.744c-2.273 2.58-5.161 4.84-6.711 7.799-5.729 10.937-10.596 22.4-24.473 25.755-.943.228-.806 4.917-1.172 7.53 7.221.367 4.93 5.949 4.947 9.716.159 33.619-.068 67.239.265 100.855.065 6.515.897 13.511 3.412 19.419 7.163 16.829 39.525 21.61 52.92 8.244.932-.93 1.735-3.424 1.214-4.065-.972-1.196-2.962-2.176-4.53-2.18-17.588-.042-22.937-5.247-22.995-23.16-.091-27.96-.021-55.921-.039-83.881-.014-23.25-.026-23.25 25.633-26.04-4.055-3.267-6.258-5.04-10.323-6.794Z"/><path fill="#12B1E3" d="M671.492 320.179c-.017-11.625.832-22.38-.373-32.899-.745-6.494-3.044-14.198-7.422-18.593-8.471-8.504-19.67-6.092-29.274 4.827-12.551 14.271-19.299 31.052-19.529 50.103-.272 22.654-.318 45.317.047 67.968.104 6.494 1.968 12.959 3.225 20.661h-35.892c.41-50.942 3.118-101.645-.841-153.503h35.205l-1.181 14.875 2.194 1.384c2.726-2.359 5.801-4.419 8.123-7.125 17.838-20.788 59.916-17.339 71.166 5.666 4.109 8.402 7.145 7.821 13.334-.717 16.535-22.809 51.814-25.362 70.984-5.28 8.728 9.143 10.594 20.691 10.884 32.326.565 22.63.259 45.285.088 67.929-.024 3.184-.307 7.259-2.198 9.386-9.837 11.062-20.233 21.627-30.396 32.325 0-40.748.056-81.27-.09-121.791-.014-3.927-.704-8.064-2.069-11.735-4.629-12.452-15.466-16.017-26.347-8.45-16.751 11.649-24.948 28.963-26.182 48.368-1.689 26.556-1.048 53.274-.926 79.921.023 5.093 2.267 10.176 3.793 16.543H671.49c0-30.814 0-61.017.002-92.189Zm-65.448 27.163c.011-1.666-.279-3.402.085-4.988 1.862-8.126 5.193-16.15 5.59-24.327.785-16.174.023-32.426-.242-48.643-.025-1.475-.979-4.139-1.689-4.204-5.22-.479-10.706-1.328-15.635-.125-1.997.488-3.89 5.8-3.916 8.933-.04 4.803 1.797 9.592 2.413 14.44.447 3.518.592 7.167.183 10.678-.642 5.505-2.623 10.93-2.709 16.41-.335 21.327.572 42.695-.43 63.98-.572 12.139 1.881 20.459 16.724 23.163 1.148-4.194 3.62-8.777 3.391-13.221-.693-13.45-2.433-26.847-3.765-42.096Zm179.99-16.345c-.166-18.473 2.287-37.078-8.471-54.261-4.743-7.577-7.877-11.759-14.43-9.82 1.409 2.414 3.801 4.711 4.003 7.187.692 8.495.771 17.051.805 25.585.086 22.261-.004 44.523.041 66.784.01 5.161-1.249 12.556 6.257 11.904 3.712-.322 9.188-6.547 9.85-10.735 1.795-11.368 1.445-23.074 1.945-36.644Z"/><path fill="#F1F7F8" d="M261.184 205.696c27.113-3.422 53.434-6.609 80.327-9.865v25.131H190.422c.875-11.262 2.347-21.824 2.404-32.393.255-47.63.355-95.264-.092-142.891-.093-9.888-2.748-19.752-3.876-30.324 1.544-.685 2.743-.673 5.406-.61 14.24-.135 27.015-.32 39.791-.507 4.063.172 8.126.343 13.823.55 3.82-.137 6.006-.31 8.193-.482 6.699.165 13.399.33 21.894.51 17.905-.144 34.015-.306 50.126-.467 1.337.08 2.673.162 4.931.952.92 8.58.92 16.45.92 25.23L222.704 25.464v87.223c10.412-4.642 19.918-9.067 29.571-13.14 14.884-6.282 29.854-5.701 44.453.791 2.299 1.022 5.213 4.89 4.854 6.911-1.447 8.16-4.065 16.111-6.408 24.716-25.267-24.17-41.61-19.851-68.492-10.061-2.177.793-4.074 5.482-4.145 8.409-.395 16.293-.187 32.601-.185 48.904v31.797l29.804-4.642c2.745-.148 5.49-.295 9.028-.676ZM675.217 12.493c9.917.174 19.09.578 27.572.952v79.632c2.046-2.773 3.84-5.16 5.589-7.58 13.098-18.13 32.151-24.475 53.611-17.842 19.302 5.966 29.684 20.628 29.896 43.294.258 27.66-.11 55.327.194 82.987.089 8.014 1.557 16.012 2.48 24.852h-32.654c0-40.153.107-80.016-.148-119.876-.028-4.502-1.442-9.29-3.338-13.43-5.852-12.773-17.142-16.238-28.558-7.999-17.842 12.877-26.871 31.429-27.89 52.906-1.152 24.275-.441 48.65-.128 72.976.06 4.723 2.013 9.422 3.328 15.157h-33.514c0-61.142.155-122.6-.225-184.056-.041-6.581-3.204-13.142-4.801-20.347 2.692-.888 5.267-1.142 8.586-1.626ZM490.9 209.098c-3.499 11.223-13.545 10.104-21.883 10.371-11.443.367-18.001-7.06-21.1-18.875-16.703 18.087-36.667 24.318-59.818 21.532-35.527-4.276-52.673-39.615-31.786-68.514 9.566-13.237 23.202-23.535 35.009-35.149 7.562-7.439 15.65-14.417 22.578-22.404 5.828-6.72 7.118-14.809 1.652-23.339-15.045.328-25.604 7.804-32.984 20.323-3.202 5.432-5.017 11.986-9.16 16.455-2.932 3.161-8.717 3.677-13.228 5.374-1.118-4.418-4.159-9.422-3.023-13.153 5.021-16.477 17.295-26.456 33.101-31.991 17.105-5.99 34.682-6.089 51.975-1.103 22.033 6.352 35.416 24.74 35.679 48.564a3231.09 3231.09 0 0 1-.062 76.894c-.102 8.042.71 14.196 11.506 13.604.796.526.943.841 1.544 1.411Zm-47.221-18.996c1.408-4.407 3.965-8.796 4.033-13.224.391-25.621.606-51.26.033-76.875-.308-13.764-9.436-23.52-22.342-25.432 6.61 17.904-.357 32.607-10.518 46.435-5.508 7.497-11.896 14.403-16.878 22.218-6.013 9.432-12.06 19.117-16.078 29.474-4.765 12.284.907 22.842 10.21 31.04 9.005 7.934 20.129 10.152 30.602 4.626 7.583-4 13.478-11.202 20.938-18.262Z"/><path fill="#1DA8D7" d="M396.731 389.321c-8.012 15.34-21.751 24.126-36.405 26.44-38.72 6.113-62.018.213-81.694-39.132-16.962-33.916-10.968-75.199 16.964-103.692 18.319-18.689 58.576-27.155 80.747-14.181 35.627 20.848 41.801 59.721 10.708 86.983-17.498 15.341-41.736 18.164-65.34 12.417-1.919-.468-2.991-4.414-4.456-6.744 2.04-1.197 4.196-3.594 6.104-3.412 36.991 3.55 53.811-31.978 45.317-59.783-3.623-11.856-8.344-22.589-23.159-23.742-12.102-.942-22.347 4.954-27.985 16.812-11.245 23.653-14.201 48.443-8.853 73.965 3.763 17.958 13.908 32 29.705 41.5 11.367 6.837 33.772 2.194 44.705-10.393 6.118-7.042 9.556-16.36 14.713-24.321 1.573-2.427 4.851-3.75 7.348-5.578 1.149 2.721 3.922 6.058 3.163 8.055-3.148 8.286-7.361 16.167-11.582 24.806ZM326.74 411.25h30.434l.172-3.541c-2.302-.621-4.664-1.078-6.895-1.893-8.347-3.053-17.341-5.077-24.83-9.583-16.647-10.018-20.163-28.119-23.165-45.15-2.143-12.155-.646-24.994-.376-37.52.392-18.12 5.824-34.159 20.012-47.125-6.707 2.122-13.461 4.541-18.632 8.857-14.533 12.13-21.842 28.324-25.77 46.792-5.139 24.158 3.963 44.572 14.322 65.014 6.939 13.694 22.12 15.715 34.728 24.149Zm46.388-64.779c31.097-14.951 33.29-47.434 14.234-71.644-4.268-5.421-12.314-7.868-18.621-11.684l-1.611 2.53c8.687 15.775 13.304 32.058 9.412 50.343-4.067 19.103-17.146 29.787-34.241 37.393l1.939 3.054c9.184-3.099 18.368-6.198 28.888-9.992ZM27.973 415.511c-7.962.131-14.955.286-21.95.372-5.093.063-6.015-2.249-4.861-7.067 1.75-7.304 3.653-14.812 3.697-22.244.31-52.327.277-104.658.04-156.987-.038-8.115-1.68-16.224-2.8-26.304 2.6-.444 6.88-1.775 11.17-1.809 22.329-.178 44.71-.947 66.982.214 39.533 2.06 73.083 21.186 87.238 61.166 9.997 28.238 10.244 56.081 1.238 84.784-9.043 28.819-27.174 49.595-54.07 60.979-13.868 5.869-30.344 6.32-45.774 7.53-13.216 1.036-26.621-.334-40.91-.634Zm42.139-205.195c-6.988-.033-14.044.539-20.946-.242-10.226-1.158-13.12 2.848-13.047 12.851.407 56.566.213 113.136.231 169.705 0 1.995-.67 4.52.284 5.875 1.922 2.73 4.572 6.587 7.233 6.853 8.564.855 17.291.67 25.918.201 29.176-1.587 54.456-21.178 64.855-48.377 8.462-22.134 9.607-44.917 7.004-67.804-4.58-40.287-25.996-73.719-71.532-79.062Zm-46.048-4.301c-16.12-.041-16.105-.041-16.098 16.263.017 42.587.023 85.175.028 127.762.002 17.634-.21 35.272.178 52.897.065 2.96 2.245 7.958 4.234 8.389 5.413 1.173 11.247.403 17.205.403-.856-5.829-2.149-9.41-1.712-12.766.86-6.611 3.793-13.078 3.909-19.638.469-26.609.332-53.232.157-79.848-.192-29.2-.574-58.4-1.246-87.592-.045-1.962-3.228-3.852-6.655-5.87ZM128 380.855a552616.88 552616.88 0 0 0-29.973 26.059c7.656-1.759 15.174-4.349 21.381-8.776 10.274-7.329 21.73-14.339 29.034-24.192 12.458-16.804 21.462-36.274 20.861-57.898-.484-17.412-.175-36.025-6.225-51.802-7.394-19.282-22.122-35.332-40.613-46.285-5.037-2.984-11.345-3.822-17.07-5.645l-1.019 2.829c.842.89 1.528 2.061 2.549 2.63 21.486 11.973 31.912 32.298 36.972 54.559 3.84 16.896 3.586 34.896 3.722 52.416.156 20.242-7.535 38.353-19.619 56.105ZM426.525 346.352c11.16-19.082 29.61-29.688 44.4-44.032 7.455-7.23 13.774-15.857 19.365-24.643 1.632-2.565.164-8.839-2.108-11.542-1.506-1.791-7.221-1.08-10.62-.057-12.239 3.687-19.662 12.472-24.101 24.207-1.4 3.702-2.713 8.333-5.598 10.362-4.132 2.906-10.108 5.964-14.505 5.07-6.623-1.348-7.179-8.397-5.143-14.07 5.31-14.798 15.498-25.638 29.858-31.803 22.2-9.532 44.909-8.113 67.311-.68 15.536 5.156 29.006 26.014 29.133 44.203.191 27.637.147 55.277.092 82.915-.012 6.345.257 11.346 8.481 13.226 6.784 1.55 5.071 6.639.963 10.491-9.689 9.085-32.045 5.429-38.718-6.216-1.106-1.93-2.456-3.72-4.032-6.081-2.501 2.055-4.59 3.597-6.481 5.352-20.427 18.961-65.879 20.766-86.45-2.819-8.777-10.063-11.814-32.926-4.777-48.975.665-1.515 1.626-2.901 2.93-4.908Zm58.141-28.182c-8.956 13.164-18.86 25.798-26.61 39.638-8.306 14.833-3.91 30.303 9.139 39.931 12.532 9.246 29.037 7.985 41.326-2.818 10.188-8.956 14.722-20.323 14.897-33.555.198-14.975.208-29.956.003-44.93-.131-9.631-.245-19.32-1.36-28.867-1.52-13-9.426-20.785-19.825-20.273 2.024 18.027-2.097 34.161-15.932 45.51l5.182-17.536c-10.68 6.517-19.012 14.293-27.817 21.489-11.343 9.271-22.535 18.289-31.06 30.732-10.279 15.003-12.702 28.261-1.535 44.243 10.525 15.063 30.721 23.793 49.946 17.853-1.677-.753-2.741-1.347-3.877-1.725-23.723-7.895-33.986-34.05-21.626-56.451 5.544-10.049 11.899-19.727 18.735-28.943 2.171-2.928 7.086-3.822 10.414-4.298Zm43.235 51.985c-4.617 12.313-5.008 24.042 6.46 32.908 3.301 2.553 8.245 4.293 12.247 3.981 1.603-.124 3.343-6.701 3.851-10.498.563-4.212-.362-8.604-.374-12.918-.065-23.964-.763-47.955.167-71.883.733-18.867-8.279-31.702-21.996-42.471-2.212-1.737-5.377-2.26-6.196-2.586 2.011 12.848 5.107 25.236 5.649 37.734.924 21.261.241 42.592.192 65.733Zm-74.288-101.286c-6.44 7.998-13.167 15.795-19.029 24.196-.938 1.345 1.996 5.391 3.14 8.189 2.013-1.263 4.816-2.05 5.907-3.867 5.843-9.727 11.258-19.711 17.477-30.773-2.53.592-4.423 1.036-7.495 2.255ZM207.81 255.817c7.5 2.076 14.013 4.605 20.759 6.043 3.184.679 7.021-.162 10.196-1.32 5.896-2.15 11.354-5.566 17.308-7.483 7.467-2.406 18.28 2.503 20.977 9.581.982 2.578.526 7.658-1.215 8.922-3.924 2.849-8.92 4.638-13.736 5.737-6.489 1.48-13.837.493-19.72 3.069-13.639 5.974-17.005 19.232-17.44 32.29-.875 26.265-.426 52.578-.265 78.869.022 3.535 1.339 7.122 2.398 10.579 3.115 10.164-.264 14.453-10.924 13.634-5.95-.457-11.91-1.37-17.847-1.242-7.333.157-8.817-3.378-8.688-9.907.775-39.222 1.33-78.448 1.714-117.675.052-5.241-.763-10.628-2.071-15.717-3.391-13.202-1.942-15.338 11.671-15.379 1.997-.005 3.994.003 6.883-.001Zm12.2 101.23c-.573-8.929-1.613-17.857-1.601-26.785.014-11.178-1.887-23.529 2.197-33.194 3.882-9.186 6.601-15.23-1.578-22.343-.894-.778-1.572-2.368-1.539-3.558.223-7.99-4.761-9.388-11.149-9.045-6.954.373-8.529 4.67-8.508 10.887.142 41.928.107 83.857.068 125.786-.005 5.088.384 9.658 7.19 9.203 5.488-.367 12.888 2.563 13.284-7.209a6700.238 6700.238 0 0 0 1.636-43.742Z"/><path fill="#22415B" d="M251.517 205.828c-8.785 2.012-18.208 3.479-29.165 5.186v-31.797c-.002-16.303-.21-32.611.185-48.904.071-2.927 1.968-7.616 4.145-8.409 26.882-9.79 43.225-14.109 68.492 10.061 2.343-8.605 4.961-16.556 6.408-24.716.359-2.021-2.555-5.889-4.854-6.911-14.599-6.492-29.569-7.073-44.453-.792-9.654 4.074-19.159 8.499-29.571 13.141V25.464L333.942 40.53c0-8.78 0-16.65-.26-25.408 6.597 1.286 10.293 9.878 8.065 20.035-1.44 6.565-4.704 11.723-12.873 10.846-19.626-2.107-39.759-2.138-58.71-6.898-11.247-2.824-22.156-4.344-33.465-5.137-6.47-.454-8.909 2.319-8.782 8.75.275 13.974-.01 27.958.112 41.936.077 8.74 7.113 13.098 15.951 10.876 8.97-2.255 18.173-5.31 27.217-5.132 12.624.248 25.196 3.172 39.039 5.128-1.494 9.578-2.623 16.979-3.818 24.37-.372 2.297-1.187 4.548-1.337 6.85-.298 4.572 1.092 12.407-.644 13.14-5.136 2.168-11.485 2.063-17.295 1.732-2.253-.129-5.251-2.805-6.344-5.074-6.031-12.523-14.649-14.65-27.896-13.709-10.81.769-14.989 8.329-21.757 13.21-2.23 1.608-2.953 6.383-3.018 9.736-.302 15.637.286 31.3-.299 46.921-.326 8.682 2.393 12.329 11.305 11.438 3.838-.384 7.825.718 12.384 1.688Z"/><path fill="#E7F1F4" d="M707.839 509.844c-6.221-3.815-11.834-2.616-18.658-.281-10.253 3.508-21.315 3.043-29.649-5.65-6.625-6.911-7.21-15.486-3.763-24.131 1.307-3.277 3.817-6.074 5.828-9.166-12.009-21.701 4.168-36.495 24.523-32.77 1.62-.105 2.558-.102 3.875-.257.379-.16.272-.04.272-.04 3.397 5.097 6.795 10.193 10.097 16.15-.095.86.02.939.02.939-.35-.3-.7-.599-2.575-.798-5.029-.924-8.497-2.631-12.042-2.805-4.59-.225-9.526.045-13.69 1.685-1.254.494-1.905 7.55-.3 9.386 6.529 7.471 14.042 14.081 22.303 22.085l1.886-12.032 8.986.74c2.534 10.46-3.645 22.544 8.652 29.366l-5.839 7.572s.094.059.074.007Zm-37.308-13.189c6.118 3.428 12.124 4.224 18.947-.794l-17.648-16.418c-6.569 5.386-6.82 10.563-1.299 17.212ZM294.151 509.697c-7.408.591-14.633.705-21.818 1.301-9.8.812-17.923-2.163-22.898-10.762-6.455-11.159-6.514-22.866-.167-34.134 4.939-8.769 13.257-11.547 22.86-10.918 2.937.192 5.832 1.034 9.747 1.765v-17.467l13.14-.603-.001 69.685c-.002.9-.662.871-.863 1.133Zm-32.62-38.862c-.587 7.282-2.718 14.875-1.334 21.761 1.43 7.116 8.445 8.991 15.276 6.553 7.875-2.81 11.147-17.25 6.351-26.33-3.866-7.318-10.246-8.383-20.293-1.984ZM631.868 473.347c.297 12.252.297 23.842.297 35.914h-12.586c0-8.514.11-17.031-.027-25.545-.179-11.136-4.925-17.858-12.367-17.032-9.954 1.105-11.635 8.297-11.466 16.714.167 8.271.036 16.548.036 25.592h-12.341v-50.805c9.653-1.151 18.833-2.808 28.065-3.182 8.69-.352 15.243 3.91 18.907 12.891.618 1.969.901 3.38 1.482 5.453ZM348.593 510.05c-6.366-1.892-11.641-1.941-17.93.004-14.845 4.593-25.915-3.338-27.06-18.896-.823-11.187-.16-22.484-.16-34.334h12.426c0 9.088.02 18.284-.006 27.479-.024 8.257 2.545 15.19 11.978 15.016 9.382-.174 11.569-7.559 11.734-15.457.187-8.889.043-17.786.043-27.13H351.9c0 16.978 0 34.12-.118 52.182-.941.943-1.765.967-3.189 1.136Z"/><path fill="#22415B" d="M708.626 509.878c.928-2.36 2.716-4.68 4.978-7.613-12.297-6.822-6.118-18.906-8.652-29.366l-8.986-.74-1.886 12.032c-8.261-8.004-15.774-14.614-22.303-22.085-1.605-1.836-.954-8.892.3-9.386 4.164-1.64 9.101-1.91 13.691-1.685 3.544.174 7.013 1.881 11.369 2.965 2.642 5.523 5.219 3.574 8.373.404.49-.404.502-.387.502-.387 1.331 10.476 2.418 20.992 4.126 31.406.581 3.542 2.312 7.09 4.264 10.161 2.355 3.704 5.505 6.902 8.31 10.319-4.408 1.339-8.817 2.677-14.086 3.975Z"/><path fill="#E7F1F4" d="M707.501 592.429c-1.806-.934-5.124-3.446-4.969-3.683 8.981-13.706.333-25.224-4.371-37.201-1.69-4.306-3.395-8.605-5.618-13.322-.524-.416-.381-.356-.381-.356l2.573-4.083c1.58 1.394 3.854 2.483 4.621 4.233 3.7 8.441 6.994 17.06 10.764 26.444 7.579-9.806 6.071-23.771 15.477-31.139l3.109 1.66c-6.66 17.886-13.319 35.772-20.049 54.365-.397 1.326-.722 1.946-1.156 3.082ZM516.524 439.383c-.138 3.396-.49 6.231-.88 9.372h-11.175l-.5-11.112c3.971 0 7.158 0 11.237-.002.962.392 1.033.786 1.318 1.742Z"/><path fill="#22415B" d="M327.449 13.8c-15.469.71-31.579.87-48.601.771 15.379-.614 31.669-.966 48.601-.77Z"/><path fill="#283E50" d="M1670.74 91.237c-.52-14.64-.62-29.984-.57-46.247.43 14.568.71 30.056.57 46.247ZM1336.08 291.126c4.5-.445 8.43-.445 13.77-.445-7.4 6.978-10.91 6.837-13.77.445Z"/><path fill="#22415B" d="M233.405 13.709c-12.126.714-24.901.9-38.58.824 12.042-.626 24.986-.99 38.58-.824Z"/><path fill="#283E50" d="M1439.19 185.17c2.1-1.568 4.42-2.52 6.75-3.473.16 2.016.33 4.032.5 6.048-2.35-.653-4.69-1.307-7.25-2.575ZM1127.96 428.772c2.29-1.998 5.11-3.536 7.93-5.074.44 1.539.89 3.077 1.33 4.616-2.91.306-5.82.611-9.26.458Z"/><path fill="#22415B" d="M691.105 437.534c-.838.015-.731-.104-.787-.149 4.604-7.705 4.604-7.705 14.576-4.817-5.638 2.155-9.295 3.552-13.789 4.966Z"/><path fill="#283E50" d="M1134.47 477.101c1.56.193 3.01.925 4.35 1.814.07.046-.75 1.435-1.15 2.198-1.11-1.147-2.23-2.294-3.2-4.012ZM1129.58 414.798c-1.32-.928-2.47-2.428-3.62-3.928.83-.445 1.67-.89 2.5-1.334.43 1.563.86 3.126 1.12 5.262Z"/><path fill="#22415B" d="M315.973 427.651c-.979-.894-1.415-1.79-1.85-2.686l3.663-.019c-.424.901-.847 1.802-1.813 2.705ZM361.233 235.688c1.454.369 2.529 1.132 3.604 1.895l-1.811 1.725c-.724-1.076-1.448-2.151-1.793-3.62ZM705.993 453.993c.469-1.614.945-3.221 1.42-4.828l2.342 1.144c-.903 1.328-1.805 2.657-3.225 3.847-.518-.139-.53-.156-.537-.163ZM251.462 45.29c-.991-.516-1.515-1.146-2.039-1.776l2.506-.69c.001.784.001 1.568-.467 2.466Z"/><path fill="#283E50" d="M1560.44 318.034c.65 1.13.84 2.267 1.04 3.404l-2.29-.156c.26-1.081.53-2.161 1.25-3.248Z"/><path fill="#22415B" d="M255.597 13.823c-1.712.655-3.899.827-6.874.736 1.607-.582 4.004-.9 6.874-.736Z"/><path fill="#283E50" d="M1159.92 584.832c-.36-.519-.38-1.03-.4-1.54l.86.022c-.04.508-.08 1.017-.46 1.518Z"/><path fill="#22415B" d="M377.522 586.106c-.193.783-.863 1.673-1.534 2.562l-.665-.604c.574-.617 1.148-1.235 2.199-1.958ZM664.53 6.655c-.629-.124-1.007-.48-1.386-.838l.644-.597c.33.4.661.801.742 1.435Z"/><path fill="#283E50" d="M1132.08 457.169c.36.518.38 1.029.4 1.538l-.86-.022c.04-.508.08-1.016.46-1.516ZM1216.02 415.269c-.16-.002.01-.519.01-.519s.15.521-.01.519Z"/><path fill="#22415B" d="M723.016 109.023c.043-.017-.043.017 0 0Z"/><path fill="#E7F1F4" d="M700.217 454.512c-.052-.046.228-.233.228-.233s-.436.019-.248.189c.187.169.072.09.02.044Z"/><path fill="#02BDF3" d="M1023.18 419.303c-3.36-8.09-6.82-15.309-9.36-22.838-2.51-7.408-5.34-13.611-13.19-17.407-5.42-2.619-6.403-8.312-1.178-13.266 4.498-4.264 8.938-7.588 13.618-.148 1.59 2.521 3.2 5.192 5.39 7.132 3.09 2.741 6.58 5.135 10.18 7.156 2.24 1.253 5.76.774 7.44 2.387 8.99 8.649 17.49 17.814 26.36 26.587 4.37 4.315 9.4 7.968 13.7 12.334 1.69 1.712 3.67 5.05 3.06 6.799-3.21 9.27 2.65 13.663 8.82 17.892 5.75 3.942 9.04 8.338 9.39 16.091.63 13.69 6.18 26.826 2.81 41.146-3.68 15.585-4.69 31.823-8.77 47.271-1.41 5.344-8.89 8.894-12.97 13.785-3.26 3.909-6.89 8.296-8.01 13.028-1.89 7.956-5.53 12.2-13.86 12.946-5.52.493-11.72.973-9.56 10.089.43 1.814-4.65 4.933-7.19 7.45-1.57-2.292-3.21-4.534-4.66-6.899-.63-1.035-.85-2.323-1.43-3.997-7.55 2.731-7.83 8.6-7.75 14.592.07 5.291-.49 9.006-7.77 8.08-3.04-.388-6.56 2.968-10.5 4.938-9.149-4.374-9.43-6.527-2.15-13.65 4.95-4.85 9.02-10.595 13.61-15.836 2.52-2.885 5.3-5.554 7.19-9.146 3.56-4.273 7.36-8.371 10.58-12.883 2.02-2.822 4.4-6.229 4.5-9.438.55-17.797.38-35.614.63-53.422.03-2.233.58-4.75 1.73-6.619 3.02-4.917 1.07-7.957-3.64-8.914-10.79-2.194-8.72-13.989-15.3-19.548-7.33-6.195-5.1-13.866-2.82-22.644 2.65-10.204 1.11-21.493 1.1-33.048ZM938.067 339.608c-20.157-2.609-39.509-5.234-58.924-7.25-3.328-.346-6.896 2.02-10.405 2.935-8.05 2.097-13.427-1.562-14.775-9.762-.363-2.208-.612-5.785-1.882-6.288-16.545-6.551-11.479-23.099-16.248-34.934-5.063-12.561-6.314-25.608-.519-38.728 1.376-3.116.047-7.323.821-10.839.745-3.384 2.137-6.833 4.056-9.713 5.846-8.776 11.503-17.797 18.393-25.712 3.981-4.573 10.211-10.071 15.404-10.046 8.301.041 11.582-4.745 16.207-9.271 1.966-1.924 4.979-2.779 8.154-4.457 1.806 8.73.531 13.914-6.094 18.363-2.59 1.74-2.748 7.735-3.187 11.88-.512 4.833-.12 9.762-.12 14.649l-3.555.564-5.542-10.303-3.127.161c0 7.768-.515 15.599.421 23.252.194 1.59 5.765 2.523 8.303 3.537 2.544 8.405 4.12 17.384 7.952 25.267 4.342 8.933 6.119 20.17 17.637 24.306 2.153.774 3.28 4.073 5.224 5.826 3.983 3.589 8.184 6.938 12.328 10.347 1.269 1.044 3.572 1.77 3.817 2.966 1.393 6.815 6.668 8.309 11.977 11.39 12.629 7.33 24.149 16.57 36.137 25.011 3.386 2.384 7.007 4.465 10.215 7.062 2.93 2.372 5.447 5.254 8.146 7.911-3.693 2.739-7.174 5.877-11.19 8.003-1.435.76-4.166-.929-5.283-1.227l-1.307-13.387-11.3 3.032c-9.423-4.371-20.187-9.363-31.734-14.545Zm32.502 4.889-2.461-1.691-.69 1.63c.827.249 1.655.497 3.151.061ZM1014 305.998c-2.99 6.4-10.14 8.006-15.637 3.949-3.515-2.592-7.435-4.748-11.417-6.564-4.12-1.878-9.59-2.066-7.716-9.106.286-1.074-1.05-2.983-2.131-3.955-11.725-10.543-12.372-22.307-3.108-35.194 5.425-7.547 8.848-15.997 6.605-26.219-1.144-5.211 1.21-11.099 1.329-16.695.358-16.784-1.51-20.865-13.75-31.499 4.671-6.761 10.434-6.224 15.615-1.592 5.551 4.963 10.403 10.249 18.87 9.124 1.45-.193 4.51 1.672 4.59 2.741.69 10.049 9.87 12.141 16.01 14.037 9.2 2.84 9.36 6.454 5.8 13.47-.79 1.545-.37 3.699-.64 7.377 3.01-2.061 4.6-3.937 6.39-4.167 2.22-.285 5.08.206 6.75 1.519.91.71.73 4.873-.33 5.701-9.44 7.323-1 13.519 2.49 17.384 12.32 13.654 10.94 31.309-4.59 41.92-.78.531-1.25 1.508-2.15 2.633 5.23 5.963 4.81 9.936-4.01 11.236-5.84.861-11.56 2.576-18.23 3.75-.9-.159-1.3-.193-1.3-.193l.56.343ZM981.542 627.683c4.794-1.773 8.958-3.268 13.247-4.147.51-.104 2.616 4.542 2.454 4.649-3.892 2.545-7.765 5.495-12.115 6.865-5.085 1.601-10.619 1.773-15.958 2.565l-.626-3.087c4.135-2.127 8.27-4.254 12.998-6.845ZM961.979 175.683c-1.06-.834-1.572-1.669-2.084-2.505l4.136-.019c-.501.841-1.002 1.682-2.052 2.524Z"/><path fill="#F89F40" d="M1475.49 454.292c-2.89-2.096-5.56-4.664-8.74-6.133-2.35-1.087-5.37-.744-8.91-.258-.53 3.507-1.06 6.743.24 8.857 2.87 4.664 6.66 8.764 11.88 15.397-9.54 3.038-16.79 5.9-24.31 7.558-5.66 1.249-9.04-1.284-9.83-7.966-1.62-13.509-4.28-26.891-6.34-40.35-.38-2.488-.61-5.301.15-7.613 4.16-12.626 1.2-17.551-11.76-21.971-7.01-2.391-13.7-6.183-19.94-10.249-6.57-4.282-11.87-10.826-18.78-14.2-6.84-3.334-14.93-3.38-21.59 2.344-6.79 5.833-5.39 11.025 2.5 14.959 7.17 3.576 13.44 8.952 20.11 13.53 9.41 6.457 18.13 14.677 28.48 18.743 6.92 2.718 8.83 4.783 9.58 11.795 2 18.558.28 38.188 13.27 54.239 1.05 1.304.17 5.887-1.34 7.244-5.4 4.855-11.74 8.661-17.18 13.487-3.74 3.329-6.77 7.546-9.77 11.616-4.97 6.717-8.35 15.722-14.87 19.834-5.59 3.521-6.67 6.129-5.8 11.407 0 0-.1-.131-.78-.029-5.3 2.455-10.01 4.668-14.54 7.195-5.47 3.046-10.45 7.344-16.24 9.331-9.27 3.177-13.68-.063-12.82-9.812 1.04-11.767 2.49-23.796 6.08-34.966 4.57-14.229 7.45-28.511 5.31-43.088-.92-6.308-5.06-16.065-9.52-17.193-12.85-3.25-23.69-6.62-30.69-19.446-6.93-12.704-7.01-22.142 3.46-32.304 2.6-2.524 5.89-4.317 8.65-6.697 11.43-9.858 27.05-17.085 22.85-36.857-.37-1.745 1.95-5.235 3.85-6.103 12.53-5.721 15.28-16.472 15.88-28.676.17-3.478 1.12-6.917 1.72-10.374l2.93.149c.52 2.746.97 5.504 1.56 8.234 1.92 8.908 13.24 15.957 22.51 12.887 8.74-2.896 4.99-10.253 3.84-16.133-1.4-7.093-.38-13.069 5.55-17.917 7.47-6.118 14.58-12.697 22.07-18.8 13.63-11.116 14.63-10.775 28.81-1.433 8.8 5.796 18.88 10.53 28.31 1.975 5.52-5.008 9.08-12.175 13.15-17.859 3.36 4.411 8.45 9.955 12.17 16.298 3.98 6.773 6.76 14.266 9.92 21.504 10.89 24.907 15.51 51.138 17.59 78.124 1.93 25.145-5.22 48.709-10.18 72.738-1.6 7.734-7.11 7.943-12.09 5.944-8.46-3.396-16.37-8.181-24.48-12.441-4.01-2.106-7.95-4.343-11.92-6.521ZM1406.11 206.541c-.9-.106-1.8-.212-3.76-.602-1.92-.113-3.34-.208-3.57.27-3.17 6.593-6.04 13.329-9.26 19.892-1.92 3.895-5.98 7.44-6.23 11.326-.94 14.735-18.38 26.396-32.14 19.8.27 10.316-5.97 11.589-14.25 11.063-3.39-.216-7.17 1.282-10.33 2.887-7.67 3.901-15.08 8.321-22.83 12.665-1.97-11.552 4.41-23.877 13.57-30.332 4.27-3.01 9.21-7.698 10.12-12.358 3.06-15.525 4.44-31.382 6.68-48.813-11.25 2.789-20.15 1.033-27.1-6.329-7.12-7.543-14.79-7.355-23.48-3.073-8.58 4.231-17.14 9.138-26.3 11.385-6.64 1.631-13.91-.466-12.39 10.344.42 2.958-2.17 7.987-.99 8.859 2.8 2.081 7 2.894 10.67 3.004 3.55.107 7.14-1.42 10.74-2.028 15.44-2.609 25.39 6.22 22.39 21.238-1 5.011-6.21 9.536-10.43 13.224-.76.67-5.85-4.178-9.25-5.83-9.15-4.436-18.42-8.623-27.77-12.611-1.13-.483-3.19.6-4.57 1.397-8.05 4.656-14 10.767-15.36 20.631-.47 3.375-2.4 6.644-4.08 9.736-3.95 7.278-1.45 12.712 4.66 17.033 5.52 3.901 9.91 5.971 15.39-1.821 4.34-6.157 12.22-9.812 18.53-14.579 1.19.683 2.37 1.366 3.56 2.049 1.25 6.3 2.48 12.604 3.75 18.898 1.97 9.74-3.34 16.983-7.25 25.201-2.58 5.428-3.94 6.508-9.71 6.068-13.11-1.002-26.43-1.811-39.45-.531-10.11.993-19.89 5.267-29.84 8.091-2.43 7.01-5.17 14.893-8.06 23.227-1.67-.707-3.1-.918-3.94-1.734-13.15-12.624-15.52-12.786-31.39-3.396-5.23 3.093-10.97 6.869-7.4 12.958 2.99 5.085 4.24 13.629 15.46 11.048 12.3-2.83 19.11 7.153 14.9 18.637-.7 1.913-.14 4.529.47 6.641 3.6 12.562 16.16 13.473 25.13 19.055 2.44 1.52 6.02 2.165 7.4 4.297 9.3 14.342 18.66 28.538 31.83 39.795 3.75 3.204 7.68 6.665 10.1 10.835 2.68 4.606 6.57 11.444 4.94 15.061-4.67 10.364-11.03 20.279-18.29 29.085-8.47 10.286-18.6 19.207-28 28.734-3.48 3.522-6.91 7.082-10.37 10.624l-2.7-1.383c0-13.524.87-27.12-.24-40.552-1.18-14.273-1.5-28.438-12.94-40.652-10.36-11.066-15.24-25.56-6.13-41.283 2.44-4.212 4.34-11.841 2.2-15.036-7.48-11.187-16.71-21.232-25.52-31.499-7.15-8.337-14.7-16.332-21.99-24.551-5.1-5.743-9.27-12.677-15.3-17.125-6.25-4.611-6.63-8.333-4.02-15.05 2.28-5.869 2.22-12.643 3.2-19.017 0 0-.14-.118.72.015 3.76.132 6.66.132 7.83.132 2.85-6.949 4.24-13.238 7.66-18.092 10.34-14.664 20.21-30.002 32.65-42.743 12.01-12.304 26.3-22.789 40.84-32.129 21.6-13.875 44.24-26.142 71.29-25.545 1.29.028 2.56-2.435 3.96-3.604 1.42-1.193 2.9-3.02 4.5-3.189 9.52-1.006 19.12-1.338 28.64-2.404 34.46-3.858 66.67 5.9 98.49 16.861 6.54 2.253 14.58 6.06 14.36 15.825Z"/><path fill="#DBA05E" d="M1094.66 301.875c-.47 5.913-.41 12.687-2.69 18.555-2.61 6.718-2.23 10.44 4.02 15.051 6.03 4.448 10.2 11.382 15.3 17.125 7.29 8.219 14.84 16.214 21.99 24.551 8.81 10.267 18.04 20.312 25.52 31.499 2.14 3.195.24 10.824-2.2 15.036-9.11 15.723-4.23 30.217 6.13 41.282 11.44 12.215 11.76 26.38 12.94 40.653 1.11 13.432.24 27.028.24 40.552l2.7 1.383c3.46-3.542 6.89-7.102 10.37-10.624 9.4-9.527 19.53-18.448 28-28.734 7.26-8.806 13.62-18.721 18.29-29.085 1.63-3.617-2.26-10.455-4.94-15.061-2.42-4.17-6.35-7.631-10.1-10.835-13.17-11.257-22.53-25.453-31.83-39.795-1.38-2.132-4.96-2.777-7.4-4.297-8.97-5.582-21.53-6.493-25.13-19.055-.61-2.112-1.17-4.728-.47-6.641 4.21-11.484-2.6-21.467-14.9-18.637-11.22 2.581-12.47-5.963-15.46-11.048-3.57-6.089 2.17-9.865 7.4-12.959 15.87-9.39 18.24-9.227 31.39 3.397.84.816 2.27 1.027 3.94 1.734 2.89-8.334 5.63-16.217 8.06-23.227 9.95-2.824 19.73-7.098 29.84-8.091 13.02-1.28 26.34-.471 39.45.531 5.77.44 7.13-.64 9.71-6.068 3.91-8.218 9.22-15.461 7.25-25.201-1.27-6.295-2.5-12.598-3.75-18.898-1.19-.683-2.37-1.366-3.56-2.049-6.31 4.767-14.19 8.422-18.53 14.579-5.48 7.792-9.87 5.721-15.39 1.821-6.11-4.321-8.61-9.756-4.66-17.033 1.68-3.092 3.61-6.361 4.08-9.736 1.36-9.864 7.31-15.975 15.36-20.631 1.38-.797 3.44-1.88 4.57-1.397 9.35 3.988 18.62 8.175 27.77 12.611 3.4 1.652 8.49 6.5 9.25 5.83 4.22-3.688 9.43-8.213 10.43-13.225 3-15.017-6.95-23.846-22.39-21.237-3.6.608-7.18 2.135-10.74 2.028-3.67-.11-7.87-.923-10.67-3.004-1.18-.872 1.41-5.902.99-8.859-1.52-10.81 5.75-8.713 12.39-10.345 9.16-2.246 17.72-7.153 26.3-11.385 8.69-4.281 16.36-4.469 23.48 3.074 6.95 7.362 15.85 9.118 27.1 6.329-2.24 17.431-3.62 33.288-6.68 48.813-.91 4.659-5.85 9.348-10.12 12.358-9.16 6.455-15.54 18.78-13.57 30.332 7.75-4.344 15.16-8.764 22.83-12.665 3.16-1.605 6.94-3.103 10.33-2.887 8.28.526 14.52-.747 14.25-11.063 13.76 6.596 31.2-5.065 32.14-19.801.25-3.885 4.31-7.43 6.23-11.325 3.22-6.563 6.09-13.299 9.26-19.892.23-.478 1.65-.383 2.9-.124-3.93 12.992-7.6 25.816-12.69 38.052-7.73 18.593-25.02 23.934-42.55 27.504-13.67 2.784-26.47 6.154-36.08 17.284-1.81 2.088-6.72 3.939-8.59 2.927-2.6-1.406-4.87-5.491-5.21-8.65-1.47-13.835 5.68-24.13 15.01-33.335 13.2-13.034 16.7-28.872 13.32-48.499-10.48 6.046-15.05.769-20.28-7.768-2.4-3.908-12.48-6.576-17.31-4.852-13.24 4.728-25.55 12.083-37.36 20.602 5.36-.908 10.7-1.956 16.09-2.696 12.67-1.742 21.18 3.119 26.32 14.836 4.43 10.11 1.72 26.914-6.8 31.95-3.79 2.236-10.73 1.465-15.25-.37-8.87-3.604-17-9.024-25.55-13.473-6.59-3.43-11.78-1.695-14.43 5.337-3.53 9.386-6.65 18.926-9.94 28.4 1.09.756 2.19 1.513 3.28 2.27 3.82-2.086 7.8-3.924 11.41-6.324 4.15-2.758 7.75-6.35 11.97-8.98 8.28-5.17 14.03-3.283 16.92 5.885 4.48 14.227 5.43 28.748 1.27 43.27-3.42 11.934-7.95 15.026-19.81 11.894-17.83-4.709-34.88-2.596-51.9 3.496-12.01 4.298-20.39 10.932-19.98 25.163.1 3.28-1.86 6.62-3.56 12.174-4.84-6.933-7.67-12.311-11.78-16.406-2.88-2.875-8.2-6.323-11.21-5.42-5.98 1.801-12.97 5.245-16.12 10.191-3.43 5.404 3.51 6.284 7.59 6.958 16.95 2.799 27.81 14.73 39.13 25.95.79.784.8 2.354 1.42 4.358-6.24-.848-11.77-1.597-18.11-2.459-1.11.04-1.39.192-1.68.344.25.104.51.208.76.312-.04 7.317 4.41 10.878 10.86 12.123 13.36 2.577 22.08 11.145 30.17 21.339a946.002 946.002 0 0 0 35.97 42.678c6.42 7.173 8.89 14.432 3.04 22.353-10.2 13.817-20.05 28.135-31.98 40.363-10.93 11.209-20.5 22.296-24.58 37.83-.94 3.578-6.28 6.002-9.59 8.957-2.11-3.978-6.05-7.981-5.99-11.93.2-15.287 1.59-30.563 2.72-45.83 1.04-14.141-2.46-26.893-10.29-38.754-4.01-6.075-6.98-12.837-10.36-19.323-5.99-11.511-6.32-22.968.94-34.046 4.35-6.633 3.65-12.578-1.74-18.024-9.58-9.68-19.82-18.765-28.78-28.984-6.41-7.312-10.78-16.369-16.81-24.066-3.53-4.516-8.12-8.518-12.96-11.627-6.3-4.054-8.9-8.225-5.27-15.566 3.37-6.84 5.91-14.094 9.33-21.628Zm84.87 253.339c-5.69-2.756-5.85-2.569-5.24 8.217 2.38-3.179 3.76-5.016 5.24-8.217Z"/><path fill="#DBA05E" d="M1406.52 207.078c-.19-10.302-8.23-14.109-14.77-16.362-31.82-10.961-64.03-20.719-98.49-16.861-9.52 1.066-19.12 1.398-28.64 2.404-1.6.169-3.08 1.996-4.5 3.189-1.4 1.169-2.67 3.632-3.96 3.604-27.05-.597-49.69 11.67-71.29 25.545-14.54 9.34-28.83 19.825-40.84 32.129-12.44 12.741-22.31 28.079-32.65 42.743-3.42 4.854-4.81 11.143-7.66 18.092-1.17 0-4.07 0-7.8-.22 13.82-33.952 36.76-61.197 65.33-83.862 28.93-22.948 61.6-39.087 97.93-44.737 28.67-4.458 57.76-5.225 87.12.126 24.65 4.492 48.14 12.019 69.44 23.711 22.5 12.35 44.65 26.026 61.19 47.473 17.25 22.36 34.47 44.426 44.88 70.897 20.36 51.808 21.47 104.34 5.43 157.488-1.74 5.78-4.3 8.568-10.53 7.33-16.5-3.281-30.44-10.84-41.15-24.772 3.9 1.475 7.84 3.712 11.85 5.819 8.11 4.259 16.02 9.044 24.48 12.44 4.98 1.999 10.49 1.79 12.09-5.944 4.96-24.029 12.11-47.593 10.18-72.738-2.08-26.986-6.7-53.217-17.59-78.124-3.16-7.238-5.94-14.731-9.92-21.504-3.72-6.343-8.81-11.887-12.17-16.298-4.07 5.684-7.63 12.851-13.15 17.859-9.43 8.555-19.51 3.821-28.31-1.975-14.18-9.342-15.18-9.683-28.81 1.433-7.49 6.103-14.6 12.682-22.07 18.8-5.93 4.848-6.95 10.824-5.55 17.917 1.15 5.88 4.9 13.237-3.84 16.133-9.27 3.07-20.59-3.979-22.51-12.887-.59-2.73-1.04-5.488-1.56-8.234l-2.93-.149c-.6 3.457-1.55 6.896-1.72 10.374-.6 12.204-3.35 22.955-15.88 28.676-1.9.868-4.22 4.358-3.85 6.103 4.2 19.772-11.42 26.999-22.85 36.857-2.76 2.38-6.05 4.173-8.65 6.697-10.47 10.162-10.39 19.6-3.46 32.304 7 12.826 17.84 16.197 30.69 19.446 4.46 1.128 8.6 10.885 9.52 17.193 2.14 14.577-.74 28.859-5.31 43.088-3.59 11.17-5.04 23.199-6.08 34.966-.86 9.749 3.55 12.989 12.82 9.812 5.79-1.987 10.77-6.285 16.24-9.331 4.53-2.527 9.24-4.74 14.62-7.224-9.72 10.089-20.05 20.545-35.5 22.944-11.48 1.783-15.55-1.137-14.12-12.579 1.76-14.082 5.39-27.92 7.78-41.937 2-11.695 3.76-23.458 4.91-35.261 1.14-11.706-5.92-16.965-16.38-20.199-18.77-5.802-27.4-16.5-28.24-32.979-.56-11.049 2.94-20.283 11.9-27.149l29.56-22.683c-11.88-9.406-4.78-16.802 2.78-22.9 11.06-8.906 15.93-19.654 15.33-33.859-.17-3.82 4.22-7.833 6.52-11.757 2.67 3.527 6.71 6.694 7.74 10.648 2.93 11.196 8.25 15.661 18.54 13.594.13-.303.45-.673.36-.9-7.46-20.697 5.83-32.986 18.59-45.292 4.51-4.346 9.62-8.131 14.74-11.773 9.57-6.816 21.8-5.007 32.91 4.53 11.53 9.901 14.7 9.934 23.19-2.777 2.2-3.286 2.18-10.581-.04-13.877-14.89-22.172-34.66-39.676-56.42-54.873-5.81-4.055-12.68-6.582-19.47-10.347Zm10.33-3.682c-.82-.286-1.63-.573-2.44-.86-.19.53-.37 1.061-.56 1.592 1.02.068 2.03.135 3-.732Z"/><path fill="#DBA05E" d="M1383.18 556.365c-1.51-5.081-.43-7.689 5.16-11.21 6.52-4.112 9.9-13.117 14.87-19.834 3-4.069 6.03-8.287 9.77-11.616 5.44-4.826 11.78-8.631 17.18-13.487 1.52-1.357 2.39-5.94 1.34-7.244-12.99-16.051-11.27-35.681-13.27-54.239-.75-7.012-2.66-9.077-9.58-11.795-10.35-4.066-19.07-12.286-28.48-18.743-6.67-4.578-12.94-9.954-20.11-13.53-7.89-3.934-9.29-9.126-2.5-14.959 6.66-5.724 14.75-5.678 21.59-2.344 6.91 3.374 12.21 9.918 18.78 14.2 6.24 4.066 12.93 7.858 19.94 10.25 12.96 4.419 15.92 9.344 11.76 21.97-.76 2.312-.53 5.125-.15 7.613 2.06 13.459 4.72 26.841 6.34 40.35.79 6.683 4.17 9.215 9.83 7.966 7.52-1.658 14.77-4.52 24.31-7.558-5.22-6.633-9.01-10.732-11.88-15.397-1.3-2.114-.77-5.349-.48-8.292 6.17 7.097 11.75 14.41 17.34 21.736-6.52 9.321-26.73 17.158-37.03 13.198-3.12-1.198-6.15-6.041-6.78-9.642-1.84-10.454-2.32-21.14-3.58-31.704-.46-3.807-1.63-7.526-2.48-11.286l-2.93.074c0 3.249-.35 6.544.07 9.737 1.3 9.893 3.03 19.731 4.35 29.621 1.49 11.15 5.47 20.02 21.45 21.278-7.39 6.516-12.48 11.934-18.46 16.067-11.69 8.092-21.25 17.305-27.63 30.637-3.45 7.228-11.9 12.069-18.74 18.183Zm22.56-134.643c8.59 3.005 16.21 1.662 24.26-6.485-5.35-3.31-10.18-6.285-14.99-9.282-10.34-6.432-21.4-11.961-30.8-19.56-10.55-8.536-16.95-9.264-24.97-1.279 10.11 8.44 20.31 17.112 30.7 25.557 4.6 3.745 9.58 7.03 15.8 11.049Z"/><path fill="#173E5F" d="M1146.08 220.343c-3.15 1.389-7.13 3.849-8.39 2.856-3.3-2.596-5.4-6.701-7.99-10.205 1.21-1.222 2.41-2.445 3.61-3.667 4.39 3.504 8.78 7.009 12.77 11.016ZM1339.07 161.547c-1.52-.349-2.49-.87-3.47-1.391.9-.605 1.79-1.21 2.69-1.815.44 1.011.88 2.022.78 3.206ZM1148.02 208.017c-.68.909-1.37 1.8-2.06 2.691-.23-.206-.66-.58-.65-.594.54-.663 1.12-1.295 2.17-2.038.49-.108.52-.076.54-.059ZM1406.09 223.108c.23.581.1 1.155-.03 1.728-.11-.579-.22-1.157.03-1.728ZM1201.96 550.037c-.92-.671-1.8-1.382-2.68-2.092.21-.224.58-.658.6-.642a9.743 9.743 0 0 1 2.08 2.137c.12.478.04.559 0 .597Z"/><path fill="#E7F1F4" d="M422.849 472.608c-4.014-.326-7.426-1.064-10.907-1.816 4.753-13.373 12.983-17.624 27.787-15.224 12.162 1.972 16.507 7.22 16.59 20.43.064 10.288-.084 20.578-.174 30.867-.005.626-.335 1.248-.958 3.422l-10.079-2.895c-7.067 1.003-14.627 3.004-22.152 2.88-7.289-.12-12.093-5.026-13.048-12.628-1.01-8.033 1.24-14.917 9.46-17.636 7.77-2.57 15.923-3.98 23.919-5.904-3.153-10.032-10.769-10.683-20.438-1.496Zm.932 18.215c.114 2.879-.301 8.082.43 8.248 3.961.902 9.163 2.099 12.114.263 3.904-2.43 6.122-7.569 9.064-11.544l-2.709-2.919c-5.88 1.668-11.76 3.336-18.899 5.952ZM196.37 462.306c10.176-7.84 21.302-10.095 32.692-4.24 10.754 5.528 12.4 16.121 12.651 28.123H204.55c1.021 12.393 11.671 17.959 19.985 10.268 6.256-5.787 10.144-2.738 15.297-.43-4.259 14.172-21.228 17.434-32.464 13.707-13.29-4.407-20.519-19.046-16.601-34.14 1.056-4.068 3.532-7.767 5.61-12.306.254-.67-.302-1.263-.007-.982Zm26.588 5.23c-11.796-2.947-15.425-1.165-17.807 8.919h24.018c-2.101-3.483-3.488-5.782-6.211-8.919Z"/><path fill="#F1F7F8" d="M558.531 456.348c17.709 6.771 19.253 21.405 17.095 35.214-1.883 12.053-14.815 20.96-27.784 20.469-17.09-.647-27.924-18.371-23.12-37.825 3.189-12.916 9.693-18.051 23.02-18.14 3.326-.023 6.652.031 10.789.282Zm-21.256 22.041c-1.45 15.148 6.065 24.312 17.012 20.549 8.516-2.926 9.855-10.205 9.472-17.806-.363-7.196-3.543-13.152-11.345-14.324-7.589-1.139-12.757 2.466-15.139 11.581Z"/><path fill="#E7F1F4" d="M388.729 455.402c10.161 1.54 16.482 6.452 19.146 16.358-5.962 2.822-10.556 5.038-16.18-1.84-5.144-6.291-15.541-4.203-17.842 3.533-1.835 6.168-1.653 13.839.305 19.993 2.209 6.941 12.875 8.796 17.459 3.135 5.221-6.449 10.015-4.673 15.672-2.21-4.439 13.698-15.077 19.268-30.221 15.862-12.722-2.861-20.47-15.696-18.768-31.089 1.781-16.106 12.04-24.356 30.429-23.742ZM406.878 541.645c1.306 4.154 2.746 7.677 2.832 11.233.229 9.492-2.16 17.915-12.138 21.812-10.015 3.912-18.046.643-25.988-10.253-4.056 3.39-7.635 8.103-12.308 9.797-4.532 1.643-10.67 1.5-15.252-.179-10.055-3.685-11.676-13.077-11.127-22.31.547-9.189 4.573-17.073 14.57-18.999 9.075-1.747 17.269.125 22.94 12.659-4.371-1.515-7.154-1.722-8.824-3.194-6.362-5.608-12.715-5.676-18.671-.079-5.068 4.762-4.662 19.241.551 24.128 5.69 5.335 11.597 5.117 17.798.056 2.298-1.875 5.886-2.171 9.829-3.506-.896-10.438-2.895-23.443 11.945-29.115 9.313-3.56 17.599-1.559 23.843 7.95Zm-4.755 5.553c-2.328-7.161-7.544-10.21-14.62-8.83-7.291 1.422-10.135 7.259-10.398 14.048-.264 6.83.78 13.756 8.189 16.659 6.684 2.62 13.092.947 15.849-5.971 1.709-4.288.95-9.559.98-15.906ZM489.812 465.97c-6.909-.963-9.573 1.209-8.821 7.541.467 3.928.101 7.956.113 11.939.042 13.55.541 14.079 14.442 14.575v9.114c-21.253 3.731-27.337-1.325-27.309-22.647.008-6.295.001-12.59.001-19.562-4.362-1.485-12.548-.165-8.243-9.871l8.191-1.532v-12.811h12.4l1.015 13.088 14.269.877c.421 4.663 3.421 9.91-6.058 9.289ZM610.212 573.969c-6.263-2.648-11.865.556-17.789 1.735-8.84 1.76-15.975-2.387-17.194-9.355-1.605-9.179 3.59-13.525 11.635-15.354 5.404-1.228 10.917-1.976 16.425-2.947-2.684-11.067-10.531-13.175-18.797-5.956-1.615 1.41-4.056 1.873-6.116 2.773.546-2.49.329-5.603 1.768-7.364 6.717-8.218 19.859-6.918 28.833 3.746.782 11.774 1.009 22.248 1.235 32.722Zm-16.34-4.047c7.295-2.457 9.974-7.72 9.789-15.989-4.556.719-8.39 1.316-12.22 1.932-5.053.812-11.122 1.9-9.618 8.359.615 2.641 6.783 3.989 12.049 5.698ZM482.07 534.141l.695.806c1.332 1.086 2.172 1.599 3.011 2.112l.784 7.892c-2.062-.993-4.091-2.059-6.191-2.963-3.203-1.378-6.509-3.782-9.668-3.628-2.957.145-5.78 3.05-8.661 4.741 2.117 2.085 3.897 4.864 6.43 6.092 3.799 1.843 8.868 1.635 12.027 4.073 3.427 2.647 7.463 7.474 7.22 11.08-.25 3.695-4.782 9.02-8.477 10.106-5.282 1.553-11.507-.1-18.463-1.054-3.08-3.124-5.027-5.577-6.975-8.029l1.771-2.438c2.339 1.204 4.571 2.741 7.042 3.538 4.22 1.361 8.583 2.995 12.899 3.033 2.087.018 5.521-3.096 5.9-5.228.319-1.792-2.485-4.934-4.653-6.186-3.071-1.774-7.257-1.702-10.187-3.613-4.031-2.63-9.944-6.164-10.231-9.701-.299-3.7 5.111-7.861 8.025-11.821 0 0 .974-.225 2.065-.514 2.578-.377 4.064-.464 5.55-.551 1.701.251 3.402.501 6.207 1.197 2.03.649 2.955.853 3.88 1.056ZM615.665 535.969c7.773-1.151 15.671-3.631 23.266-2.91 4.01.38 9.861 5.83 10.734 9.884 2.052 9.527 1.732 19.587 1.988 29.441.025.985-2.583 2.038-6.042 4.588 0-8.605.072-15.064-.016-21.521-.161-11.799-4.08-17.459-11.811-17.261-7.545.193-11.497 6.084-11.731 17.649-.101 4.969.333 9.988-.279 14.883-.19 1.516-3.029 2.701-5.223 2.725-.674-13.368-.78-25.423-.886-37.478Z"/><path fill="#F1F7F8" d="M516.744 459.959v49.191h-12.14v-52.306c3.039-.167 6.193-.341 10.367.038 1.271 1.395 1.522 2.236 1.773 3.077Z"/><path fill="#E7F1F4" d="M528.028 565.177c.006 3.52.006 6.149.006 9.13-12.717-2.713-30.498 9.888-34.869-12.686-1.795-9.271-2.239-18.999.479-28.027l4.909.325c0 7.739-.559 15.528.133 23.204 1.003 11.127 10.055 16.624 17.577 10.615 3.088-2.467 4.77-7.667 5.48-11.894.922-5.499.024-11.28.368-16.912.115-1.881 1.639-3.676 2.518-5.511l3.394.711c0 10.051 0 20.103.005 31.045ZM692 537.732c-.755 2.345-1.49 4.765-2.226 7.185-2.096-1.103-4.466-1.88-6.241-3.368-6.271-5.258-12.463-4.608-17.845.732-5.478 5.435-4.923 18.536.671 24.04 5.367 5.279 11.135 4.95 17.047.495 2.12-1.597 4.712-2.568 9.184-4.934-5.248 11.929-11.871 15.738-21.435 13.817-9.153-1.84-14.457-7.422-15.222-17.015-.768-9.63-.612-18.92 9.522-24.083 9.551-4.865 18-2.353 26.137 3.905.57-.639.427-.699.408-.774ZM437.938 532.09c2.078 1.251 4.156 2.502 7.153 4.658 2.293 13.022 3.667 25.138 5.042 37.255-2.036-1.332-5.621-2.46-5.83-4.034-.737-5.57-.148-11.299-.381-16.955-.308-7.501-2.203-14.454-11.371-14.655-9.239-.203-11.449 6.931-11.994 14.242-.55 7.366-.121 14.804-.121 23.613-6.94-5.003-8.288-32.165-2.699-42.371 5.512 6.791 7.238-2.064 10.446-1.386a221.31 221.31 0 0 1 7.556-.281c1.234.039 2.199-.086 2.199-.086Z"/><path fill="#283E50" d="M450.984 574.006c-2.226-12.12-3.6-24.236-5.312-37.056 5.707-2.101 11.753-3.498 18.247-4.446-2.465 4.409-7.875 8.57-7.576 12.27.287 3.537 6.2 7.071 10.231 9.701 2.93 1.911 7.116 1.839 10.187 3.613 2.168 1.252 4.972 4.394 4.653 6.186-.379 2.131-3.813 5.246-5.9 5.228-4.316-.038-8.679-1.672-12.899-3.033-2.471-.797-4.703-2.334-7.042-3.538l-1.771 2.438a469.302 469.302 0 0 1 6.19 7.917c-2.488.613-5.323.668-9.008.72Z"/><path fill="#E7F1F4" d="M560.012 561.065c3.332 4.373 6.656 7.858 11.164 12.582-1.625.342-5.229 2.31-7.551 1.308-3.604-1.555-8.549-4.808-9.007-7.919-1.244-8.431-.427-17.166-.427-25.491l-10.362-4.308c7.353-3.062 13.616-5.201 8.795-14.433 11.082-3.595 5.714 6.081 8.421 10.061l11.118 1.808.079 2.863-12.239 1.499c0 6.865 0 14.003.009 22.03Z"/><path fill="#F1F7F8" d="M538.086 574.599c-2.763-18.97-2.881-37.63-.902-56.184l4.786.083c0 8.696-.002 17.392 0 26.088.002 7.998.209 16.004-.123 23.987-.088 2.118-1.829 4.167-3.761 6.026Z"/><path fill="#173E5F" d="m327.987 480.009-2.258 10.635-3.583-.561 3.147-31.053 3.684.04c4.352 6.354 4.766 13.117-.334 20.49-.803.122-1.205.093-1.205.093l.549.356Z"/><path fill="#283E50" d="M615.006 536.122c.765 11.902.871 23.957.936 36.95-1.463.933-2.885.929-5.019.911-.937-10.488-1.164-20.962-1.368-32.322 1.613-2.386 3.202-3.886 5.451-5.539Z"/><path fill="#173E5F" d="M517.433 459.957c-.94-.839-1.191-1.68-1.612-3.159 2.636-1.522 5.439-2.407 8.244-3.293l1.265 4.059c-2.403.796-4.806 1.593-7.897 2.393ZM694.964 584.034c-.423-2.734-.392-5.059-.361-7.383l4.371 1.239c-1.186 2.184-2.372 4.369-4.01 6.144Z"/><path fill="#283E50" d="M427.773 531.975c-2.798-.196-4.524 8.659-9.212 1.581 1.455-6.894 5.235-3.912 9.212-1.581ZM471.85 531.343c-1.353.632-2.839.719-5.07.735 1.149-.474 3.044-.877 5.07-.735Z"/><path fill="#173E5F" d="M711.46 537.326c.64.125 1.025.488 1.411.85l-.655.609c-.336-.408-.673-.815-.756-1.459Z"/><path fill="#283E50" d="M485.371 536.444c-.434.102-1.274-.411-2.478-1.584.447-.116 1.26.426 2.478 1.584ZM481.528 533.713c-.383.224-1.308.021-2.7-.732.408-.266 1.283.019 2.7.732Z"/><path fill="#173E5F" d="M551.016 577.027c.045-.018-.045.018 0 0Z"/><path fill="#283E50" d="M437.963 531.573c-.025.517-.99.642-1.443.466-.156-.712.23-1.174 1.093-1.8.387-.24.419-.216.419-.216-.014.344-.029.689-.069 1.55ZM437.988 529.983c-.011-.016.377-.573.377-.573s-.019.434-.176.524c-.157.089-.189.065-.201.049Z"/><path fill="#F1F7F8" d="M647.32 68.346c3.134 1.763 5.337 3.537 9.392 6.803-25.659 2.791-25.647 2.791-25.633 26.041.018 27.96-.052 55.921.039 83.881.058 17.913 5.407 23.118 22.995 23.16 1.568.004 3.558.984 4.53 2.18.521.641-.282 3.135-1.214 4.065-13.395 13.366-45.757 8.585-52.92-8.244-2.515-5.908-3.347-12.904-3.412-19.419-.333-33.616-.106-67.236-.265-100.855-.017-3.767 2.274-9.35-4.947-9.715.366-2.614.229-7.303 1.172-7.53 13.877-3.357 18.744-14.82 24.473-25.756 1.55-2.96 4.438-5.218 6.711-7.799l2.757 1.744v31.454c5.642 0 10.517 0 16.322-.01ZM538.477 86.409c7.784-6.41 14.8-14.423 23.63-18.646 5.609-2.684 14.226-.778 20.851 1.21 2.586.777 5.13 7.754 4.448 11.28-.474 2.45-6.593 5.618-10.001 5.407-26.534-1.645-37.802 5.83-39.691 32.452-2.045 28.818-1.018 57.868-.854 86.814.025 4.304 2.663 8.593 4.406 13.833h-34.339c0-24.71.536-49.484-.151-74.225-.684-24.627 3.34-49.59-3-75.049h35.505c-.704 4.678-1.42 9.442-2.427 15.34-.152 2.011-.013 2.888.126 3.764l1.497-2.18Z"/><path fill="#02BDF3" d="M606.044 348.258c1.332 14.333 3.072 27.73 3.765 41.18.229 4.444-2.243 9.027-3.391 13.221-14.843-2.704-17.296-11.024-16.724-23.163 1.002-21.285.095-42.653.43-63.98.086-5.48 2.067-10.905 2.709-16.41.409-3.511.264-7.16-.183-10.678-.616-4.849-2.453-9.637-2.413-14.44.026-3.133 1.919-8.445 3.916-8.933 4.929-1.203 10.415-.354 15.635.125.71.065 1.664 2.729 1.689 4.204.265 16.217 1.027 32.468.242 48.642-.397 8.178-3.728 16.202-5.59 24.328-.364 1.586-.074 3.322-.085 5.904ZM786.034 331.996c-.5 12.571-.15 24.277-1.945 35.645-.662 4.188-6.138 10.413-9.85 10.735-7.506.652-6.247-6.743-6.257-11.904-.045-22.261.045-44.523-.041-66.785-.034-8.533-.113-17.089-.805-25.584-.202-2.476-2.594-4.773-4.003-7.188 6.553-1.938 9.687 2.244 14.43 9.82 10.758 17.184 8.305 35.789 8.471 55.261Z"/><path fill="#22415B" d="M443.273 190.745c-7.054 6.417-12.949 13.619-20.532 17.619-10.473 5.526-21.597 3.308-30.602-4.627-9.303-8.197-14.975-18.755-10.21-31.039 4.018-10.357 10.065-20.042 16.078-29.474 4.982-7.816 11.37-14.721 16.878-22.218 10.161-13.828 17.128-28.53 10.518-46.436 12.906 1.913 22.034 11.669 22.342 25.433.573 25.614.358 51.254-.033 76.875-.068 4.428-2.625 8.817-4.439 13.867Z"/><path fill="#02BDF3" d="M325.941 410.992c-11.809-8.176-26.99-10.197-33.929-23.891-10.359-20.442-19.461-40.856-14.322-65.014 3.928-18.468 11.237-34.662 25.77-46.792 5.171-4.316 11.925-6.735 18.632-8.857-14.188 12.966-19.62 29.005-20.012 47.125-.27 12.526-1.767 25.365.376 37.52 3.002 17.031 6.519 35.132 23.165 45.15 7.489 4.506 16.483 6.53 24.83 9.583 2.231.815 4.593 1.271 6.895 1.893l-.172 3.541c-10.145 0-20.29 0-31.233-.258Z"/><path fill="#02BDF3" d="M372.46 346.819c-9.853 3.446-19.036 6.545-28.22 9.644l-1.939-3.054c17.095-7.606 30.174-18.29 34.24-37.393 3.893-18.285-.724-34.568-9.411-50.343l1.611-2.53c6.307 3.816 14.353 6.263 18.621 11.684 19.056 24.21 16.863 56.693-14.902 71.992Z"/><path fill="#154062" d="M71.013 210.388c44.635 5.271 66.051 38.703 70.631 78.99 2.603 22.888 1.458 45.67-7.004 67.804-10.399 27.199-35.679 46.79-64.855 48.377-8.627.469-17.354.655-25.918-.201-2.661-.266-5.311-4.123-7.233-6.852-.954-1.355-.283-3.88-.284-5.876-.018-56.569.176-113.139-.231-169.705-.072-10.003 2.821-14.009 13.047-12.851 6.902.782 13.958.209 21.847.314Z"/><path fill="#02BDF3" d="M24.916 206.062c2.575 1.971 5.758 3.861 5.803 5.823.672 29.192 1.054 58.392 1.246 87.592.175 26.616.312 53.239-.157 79.848-.116 6.561-3.049 13.027-3.91 19.638-.436 3.356.857 6.938 1.713 12.766-5.958 0-11.792.77-17.205-.403-1.989-.431-4.169-5.429-4.234-8.389-.388-17.625-.176-35.263-.178-52.897-.005-42.587-.011-85.175-.028-127.762-.007-16.304-.022-16.304 16.95-16.216ZM128.512 380.341c11.572-17.238 19.263-35.349 19.107-55.591-.135-17.52.118-35.519-3.722-52.415-5.06-22.262-15.486-42.587-36.972-54.56-1.021-.569-1.707-1.739-2.549-2.63l1.019-2.829c5.725 1.823 12.033 2.661 17.07 5.645 18.491 10.953 33.219 27.003 40.613 46.285 6.05 15.777 5.741 34.39 6.225 51.802.601 21.624-8.403 41.094-20.861 57.898-7.304 9.853-18.76 16.863-29.034 24.192-6.207 4.428-13.725 7.017-21.38 8.776a10721.98 10721.98 0 0 0 30.484-26.573ZM99.024 209.053c.063-.027-.062.028 0 0Z"/><path fill="#154062" d="M486.644 314.381c13.495-12.924 17.616-29.058 15.592-47.085 10.399-.512 18.305 7.273 19.825 20.273 1.115 9.547 1.229 19.236 1.36 28.867.205 14.974.195 29.955-.003 44.93-.175 13.232-4.709 24.599-14.897 33.555-12.289 10.803-28.794 12.064-41.326 2.818-13.049-9.628-17.445-25.098-9.139-39.931 7.75-13.84 17.654-26.473 26.787-40.364.177-.725.122-.815.563-1.051.657-.855.875-1.474 1.129-2.074.037.019.109.062.109.062Z"/><path fill="#02BDF3" d="M527.921 369.236c.029-22.222.712-43.552-.212-64.813-.542-12.499-3.638-24.886-5.649-37.735.819.326 3.984.849 6.196 2.586 13.717 10.769 22.729 23.604 21.996 42.471-.93 23.928-.232 47.92-.167 71.883.012 4.315.937 8.706.374 12.919-.508 3.796-2.248 10.373-3.851 10.498-4.002.311-8.946-1.429-12.247-3.982-11.468-8.866-11.077-20.595-6.44-33.827ZM485.009 316.771c-3.671 1.875-8.586 2.769-10.757 5.697-6.836 9.216-13.191 18.894-18.736 28.943-12.359 22.401-2.096 48.557 21.627 56.452 1.136.378 2.2.971 3.877 1.724-19.225 5.94-39.421-2.79-49.946-17.853-11.167-15.981-8.744-29.24 1.535-44.243 8.525-12.443 19.717-21.461 31.06-30.732 8.805-7.196 17.137-14.972 27.817-21.489-1.727 5.846-3.455 11.691-5.012 18.324.17.787.098.744-.402.954-.702.834-.904 1.457-1.107 2.081 0 0 .055.09.044.142ZM454.203 268.481c2.482-.831 4.375-1.275 6.905-1.867-6.219 11.062-11.634 21.046-17.477 30.773-1.091 1.817-3.894 2.604-5.907 3.867-1.144-2.798-4.078-6.844-3.14-8.189 5.862-8.401 12.589-16.198 19.619-24.584ZM220.01 358.039c-.544 14.912-1.071 28.832-1.636 42.75-.396 9.773-7.796 6.843-13.284 7.209-6.806.455-7.195-4.114-7.19-9.202.039-41.929.074-83.859-.068-125.787-.021-6.217 1.554-10.513 8.508-10.887 6.388-.343 11.372 1.055 11.149 9.045-.033 1.191.645 2.78 1.539 3.558 8.179 7.113 5.46 13.157 1.578 22.343-4.084 9.665-2.183 22.016-2.197 33.194-.012 8.928 1.028 17.857 1.601 27.777Z"/><path fill="#283E50" d="M669.934 496.18c-4.924-6.174-4.673-11.351 1.896-16.737l17.648 16.418c-6.823 5.018-12.829 4.222-19.544.319Z"/><path fill="#22415B" d="M262.023 470.216c9.555-5.78 15.935-4.715 19.801 2.603 4.796 9.08 1.524 23.52-6.351 26.33-6.831 2.438-13.846.563-15.276-6.553-1.384-6.886.747-14.479 1.826-22.38Z"/><path fill="#0CB7EA" d="M970.235 344.84c-1.162.093-1.99-.155-2.817-.404l.69-1.63c.821.564 1.641 1.128 2.127 2.034ZM1014 305.998l-.56-.343s.4.034.48.192c.08.157.08.151.08.151Z"/><path fill="#F89F40" d="M1179.48 555.896c-1.43 2.519-2.81 4.356-5.19 7.535-.61-10.786-.45-10.973 5.19-7.535Z"/><path fill="#283E50" d="M1160.01 385.985a6.983 6.983 0 0 1-.79-.287c.29-.152.57-.304.87-.124.01.332-.05.386-.08.411Z"/><path fill="#F89F40" d="M1416.87 203.864c-.99.399-2 .332-3.02.264.19-.531.37-1.062.56-1.592.81.287 1.62.573 2.46 1.328Z"/><path fill="#283E50" d="M1405.04 421.46c-5.52-3.757-10.5-7.042-15.1-10.787-10.39-8.445-20.59-17.116-30.7-25.557 8.02-7.985 14.42-7.257 24.97 1.279 9.4 7.6 20.46 13.128 30.8 19.56 4.81 2.997 9.64 5.972 14.99 9.283-8.05 8.146-15.67 9.49-24.96 6.222ZM424.41 490.349c6.51-2.142 12.39-3.81 18.27-5.478l2.709 2.919c-2.942 3.975-5.16 9.114-9.064 11.543-2.95 1.837-8.153.64-12.114-.262-.731-.166-.316-5.369.199-8.722ZM223.626 467.955c2.055 2.718 3.442 5.017 5.543 8.5h-24.018c2.382-10.085 6.011-11.867 18.475-8.5Z"/><path fill="#22415B" d="M537.436 477.63c2.221-8.356 7.389-11.961 14.978-10.822 7.802 1.172 10.982 7.129 11.345 14.325.383 7.6-.956 14.879-9.472 17.806-10.947 3.763-18.462-5.402-16.851-21.309ZM402.282 547.957c-.189 5.588.57 10.859-1.139 15.147-2.757 6.918-9.165 8.591-15.849 5.971-7.409-2.903-8.453-9.829-8.189-16.659.263-6.789 3.107-12.626 10.398-14.048 7.076-1.38 12.293 1.669 14.779 9.589Z"/><path fill="#283E50" d="M593.06 570.036c-4.454-1.823-10.622-3.171-11.237-5.812-1.503-6.459 4.565-7.547 9.618-8.359 3.831-.616 7.664-1.213 12.22-1.932.185 8.269-2.494 13.532-10.601 16.103Z"/><path fill="#22415B" d="M327.993 480.004c-.006.004-.555-.35-.555-.35s.402.028.487.18c.084.153.075.165.068.17ZM538.172 86.135c-.194 1-.693 1.727-1.192 2.454-.139-.876-.278-1.753-.069-2.952.348-.323.956.225 1.261.498Z"/><path fill="#1DA8D7" d="M485.405 316.393c-.237-.388-.035-1.011.63-1.864.246.39.028 1.009-.63 1.864Z"/></svg>
