<svg xmlns="http://www.w3.org/2000/svg" width="2092" height="2000" fill="none"><path fill="url(#a)" d="M1726.4 111.579c-395.93-129.123-654.85 155.773-654.85 155.773S813.996-13.706 416.695 111.579c-339.044 106.914-323.2 419.133-323.2 419.133C124.08 1099.15 1071.54 1696.65 1071.54 1696.65s947.47-597.5 978.05-1165.938c0 0 25.29-305.481-323.19-419.133Z"/><path fill="#B4C7FD" d="M1423.57 916.511h-3.64V238.206h-328.28v-3.432h331.92v681.737Z"/><path fill="url(#b)" d="M1978.34 1397.77h-443.38c-25.57 0-46.3-19.58-46.3-43.73V582.279c0-24.152 20.73-43.731 46.3-43.731h443.38c25.57 0 46.3 19.579 46.3 43.731v771.761c0 24.15-20.73 43.73-46.3 43.73Z" opacity=".72"/><path fill="url(#c)" d="M1785.6 508.788h-242.03c-20.54 0-37.19-15.726-37.19-35.123V245.033c0-19.399 16.65-35.125 37.19-35.125h242.03c20.53 0 37.18 15.727 37.18 35.125v228.63c0 19.399-16.65 35.125-37.18 35.125Z" opacity=".72"/><path fill="#42CDE8" d="M1541.11 291.113h-1.27v153.55h1.27v-153.55ZM1602.73 291.113h-1.26v153.55h1.26v-153.55ZM1664.36 291.113h-1.27v153.55h1.27v-153.55ZM1725.98 291.113h-1.26v153.55h1.26v-153.55ZM1787.61 291.113h-1.27v153.55h1.27v-153.55Z"/><path fill="url(#d)" d="M1540.48 382.403s22.84 13.075 47.11-10.584 50.44-42.337 75.19-22.413c24.74 19.922 39.97 24.903 64.72 2.489 24.74-22.413 22.84-49.808 59.48-49.808v142.575h-246.5v-62.259Z"/><path fill="#7BD6E8" d="M1564.91 278.324h-24.43v5.588h24.43v-5.588ZM1617.41 278.324h-15.31v5.588h15.31v-5.588ZM1682.6 278.324h-18.87v5.588h18.87v-5.588ZM1754.44 278.324h-29.09v5.588h29.09v-5.588ZM1797.12 278.324h-10.14v5.588h10.14v-5.588Z"/><path fill="url(#e)" d="M1663.09 466.005h-121.98v13.456h121.98v-13.456Z"/><path fill="url(#f)" d="M1528.34 1051.06H1526v284.03h2.34v-284.03Z"/><path fill="url(#g)" d="M1642.33 1051.06h-2.34v284.03h2.34v-284.03Z"/><path fill="url(#h)" d="M1756.32 1051.06h-2.34v284.03h2.34v-284.03Z"/><path fill="url(#i)" d="M1870.32 1051.06h-2.34v284.03h2.34v-284.03Z"/><path fill="url(#j)" d="M1984.31 1051.06h-2.35v284.03h2.35v-284.03Z"/><path fill="url(#k)" d="M1527.17 1219.92s46.45 36.95 91.34-6.81c44.9-43.77 96.68-58.39 142.45-21.54 45.77 36.85 63.59-13.72 109.36-55.18 45.77-41.46 45.04-65.03 112.82-65.03v263.73h-455.97v-115.17Z"/><path fill="url(#l)" d="M1572.37 1027.4h-45.2v10.33h45.2v-10.33Z"/><path fill="url(#m)" d="M1669.49 1027.4h-28.33v10.33h28.33v-10.33Z"/><path fill="url(#n)" d="M1790.06 1027.4h-34.91v10.33h34.91v-10.33Z"/><path fill="url(#o)" d="M1902.89 1027.4h-34.91v10.33h34.91v-10.33Z"/><path fill="url(#p)" d="M1963.21 840.638h-152.43v18.212h152.43v-18.212Z"/><path fill="url(#q)" d="M1950.7 916.98h-139.92v18.212h139.92V916.98Z"/><path fill="url(#r)" d="M1931.84 878.809h-121.06v18.212h121.06v-18.212Z"/><path fill="#E4F4FE" d="M1674.12 814.643c0 13.905-11.94 25.176-26.65 25.176-14.72 0-26.66-11.272-26.66-25.176 0-13.904 11.94-25.175 26.66-25.175 14.71 0 26.65 11.272 26.65 25.175ZM1695.54 896.716v47.878c-14.72 6.325-31.08 9.84-48.31 9.84-17.22 0-33.59-3.516-48.31-9.84v-47.878c0-25.195 21.62-45.635 48.31-45.635s48.31 20.44 48.31 45.635Z"/><path fill="#E4F4FE" d="M1647.23 957.43c-17.32 0-34.01-3.402-49.62-10.109-42.79-18.37-70.44-58.92-70.44-103.305 0-62.537 53.86-113.414 120.06-113.414s120.06 50.877 120.06 113.414c0 44.385-27.65 84.935-70.44 103.305-15.61 6.707-32.31 10.109-49.62 10.109Zm0-220.842c-62.71 0-113.73 48.192-113.73 107.426 0 42.044 26.2 80.455 66.73 97.856 14.78 6.351 30.59 9.571 47 9.571 16.4 0 32.21-3.22 47-9.571 40.53-17.402 66.72-55.812 66.72-97.856 0-59.234-51.01-107.426-113.72-107.426Z"/><path fill="url(#s)" d="M1885.43 790.323c-36.63 0-66.43-28.148-66.43-62.746s29.8-62.746 66.43-62.746c36.62 0 66.42 28.148 66.42 62.746s-29.8 62.746-66.42 62.746Zm0-123.312c-35.35 0-64.12 27.169-64.12 60.567 0 33.397 28.76 60.567 64.12 60.567 35.35 0 64.12-27.169 64.12-60.567 0-33.398-28.77-60.567-64.12-60.567Z"/><path fill="url(#t)" d="M1751.09 591.011h-109.3v16.465h109.3v-16.465Z"/><path fill="url(#u)" d="M1751.09 633.439h-93.17v16.466h93.17v-16.466Z"/><path fill="url(#v)" d="M1751.09 675.869h-149.82v16.464h149.82v-16.464Z"/><path fill="url(#w)" d="M1329.71 1301.73H111.298c-38.273 0-69.298-29.31-69.298-65.47V342.203c0-36.154 31.025-65.461 69.298-65.461H1329.71c38.27 0 69.3 29.307 69.3 65.461v894.057c0 36.16-31.03 65.47-69.3 65.47Z"/><path fill="url(#x)" d="M841.301 645.201c-40.238-17.985-86.766-8.423-115.723 20.626a94.454 94.454 0 0 0-17.602 24.414c-13.967 27.889-12.239 58.98 1.818 84.361 9.741 17.589 25.404 32.438 45.866 41.582 2.033.911 4.092 1.753 6.156 2.523a104.551 104.551 0 0 0 28.598 6.281c40.307 3.074 80.253-17.271 98.575-53.843 23.646-47.217 2.297-103.603-47.688-125.944Zm25.033 115.819c-13.734 27.423-43.683 42.673-73.902 40.371a78.307 78.307 0 0 1-21.44-4.712 79.102 79.102 0 0 1-4.619-1.889c-15.341-6.857-27.081-17.991-34.385-31.176-10.542-19.032-11.839-42.34-1.365-63.248a70.897 70.897 0 0 1 13.195-18.305c21.705-21.779 56.594-28.949 86.764-15.466 37.477 16.749 53.482 59.024 35.752 94.425Z"/><path fill="#1A598C" d="m731.991 763.613-22.197 10.988c-14.057-25.38-15.785-56.472-1.818-84.36a94.49 94.49 0 0 1 17.602-24.415l18.243 16.233a70.9 70.9 0 0 0-13.196 18.305c-10.473 20.908-9.175 44.217 1.366 63.249Z"/><path fill="#2273B5" d="m770.992 796.677-9.177 22.029a104.443 104.443 0 0 1-6.156-2.523c-20.462-9.144-36.124-23.991-45.866-41.582l22.197-10.989c7.302 13.186 19.044 24.319 34.384 31.176a79.36 79.36 0 0 0 4.618 1.889Z"/><path fill="url(#y)" d="M888.984 483.128c19.039-38.01 8.918-81.962-21.834-109.314-7.444-6.622-16.097-12.271-25.846-16.629-29.522-13.193-62.436-11.562-89.306 1.717-18.622 9.202-34.339 23.996-44.02 43.326a92.634 92.634 0 0 0-2.671 5.816c-3.693 8.844-5.877 17.937-6.648 27.013-3.255 38.076 18.282 75.809 56.999 93.117 49.986 22.338 109.677 2.171 133.326-45.046Zm-122.608 23.648c-29.029-12.974-45.173-41.264-42.738-69.809a67.264 67.264 0 0 1 4.989-20.254 70.992 70.992 0 0 1 2.001-4.364c7.258-14.49 19.045-25.581 33.003-32.478 20.146-9.959 44.823-11.185 66.955-1.289 7.307 3.264 13.795 7.5 19.379 12.464 23.056 20.501 30.646 53.459 16.372 81.957-17.732 35.403-62.484 50.52-99.961 33.773Z"/><path fill="#4AAFFF" d="M763.633 379.87 752 358.903c26.869-13.28 59.783-14.911 89.306-1.717 9.747 4.357 18.402 10.007 25.846 16.628l-17.184 17.233c-5.584-4.965-12.072-9.2-19.379-12.464-22.133-9.897-46.81-8.671-66.956 1.287Z"/><path fill="#2273B5" d="m728.625 416.713-23.32-8.668a91.482 91.482 0 0 1 2.671-5.815c9.681-19.33 25.399-34.125 44.02-43.327l11.633 20.968c-13.958 6.897-25.746 17.989-33.003 32.478a71.542 71.542 0 0 0-2.001 4.364Z"/><path fill="#3788CC" d="M698.66 435.059c.772-9.077 2.956-18.169 6.649-27.014l23.32 8.668a67.234 67.234 0 0 0-4.989 20.254l-24.98-1.908Z"/><path fill="url(#z)" d="M1005.26 348.077h-31.586v477.214h31.586V348.077Z"/><path fill="url(#A)" d="M1089.37 348.077h-31.58v477.214h31.58V348.077Z"/><path fill="url(#B)" d="M1173.49 348.077h-31.58v477.214h31.58V348.077Z"/><path fill="url(#C)" d="M1257.61 348.077h-31.59v477.214h31.59V348.077Z"/><path fill="#E2F3FE" d="M767.716 887.322H580.754v-3.509H764v-66.722h3.716v70.231ZM415.638 887.322H172.471v-3.509h239.451v-90.899h3.716v94.408Z"/><path fill="url(#D)" d="M339.789 847.28H172.471v21.06h167.318v-21.06Z"/><path fill="url(#E)" d="M679.166 847.28h-98.412v21.06h98.412v-21.06Z"/><path fill="#fff" d="M1092.55 1007.31H136.611v24.77h955.939v-24.77ZM1163.56 1065.09H136.611v24.76H1163.56v-24.76ZM920.294 1122.87H136.611v24.77h783.683v-24.77Z"/><path fill="#2273B5" d="M718.629 1007.31H136.611v24.77h582.018v-24.77ZM765.494 1065.09H136.611v24.76h628.883v-24.76ZM544.669 1122.87H136.611v24.77h408.058v-24.77Z"/><path fill="#fff" d="M530.095 550.269H413.979V440.581h-72.338v109.688H225.523V618.6h116.118v109.687h72.338V618.6h116.116v-68.331Z"/><path fill="#F3F3F3" d="M377.809 802.693c-127.403 0-231.053-97.91-231.053-218.258 0-120.349 103.65-218.26 231.053-218.26 127.403 0 231.054 97.911 231.054 218.26.001 120.348-103.651 218.258-231.054 218.258Zm0-427.216c-121.974 0-221.207 93.739-221.207 208.959s99.233 208.957 221.207 208.957c121.974 0 221.207-93.737 221.207-208.957s-99.233-208.959-221.207-208.959Z"/><path fill="#EEA886" d="M558.289 1091.86s14.907-4.42 16.109-12.77c1.022-7.1 7.767-15.57 9.838-18.18 2.772-3.5 7.047-17.22 11.746-13.96 4.701 3.26-5.895 22.94-7.243 27.49-1.35 4.54 19.041-4.11 24.087-2.92 5.045 1.19 18.301 33.91 3.579 38.31-14.722 4.41-33.53-.06-35.956 1.2-2.427 1.26-10.578 3.61-10.578 3.61l-11.582-22.78Z"/><path fill="#EEA886" d="M609.131 1071.79s46.018-10.67 49.716-8.96c3.697 1.72 4.161 4.11-.097 5.27-4.259 1.17-44.147 11.52-44.147 11.52s56.713-3.98 60.065-3.2c1.964.46 3.153 5.03.936 5.86-2.219.82-58.19 7.8-58.19 7.8s52.958-3.62 55.558-2.18c2.274 1.26 2.252 5.72-1.656 6.24-3.909.53-52.86 6.52-52.86 6.52s38.721-.35 40.159 2.09c.88 1.5 2.102 5.41-7.893 5.2-9.995-.2-33.626 1.65-33.626 1.65l-7.965-37.81Z"/><path fill="#DBDFF0" d="M582.998 1127.4s-128.734 26.96-154.352 21c-11.841-2.75-27.44-18.19-42.262-36.34-4.886-5.98-9.678-12.26-14.237-18.47-.014-.01-.014-.02-.014-.02-18.184-24.81-32.435-48.58-32.435-48.58s-53.75-59.503-10.618-86.029c0 0 15.653-5.541 30.027 9.014 14.387 14.554 31.264 45.005 35.035 52.765 3.769 7.75 56.567 79.69 59.303 81.31 2.737 1.62 25.806-4.11 44.305-5.57 30.161-2.37 75.296-16.89 75.296-16.89l9.952 47.81Z"/><path fill="#202338" d="M397.868 1854.87s19.909 19.75 40.12 23.89c20.212 4.14 34.35 9.41 34.502 20.74.151 11.34-58.165 18.81-81.294 7.38-34.52-17.05-38.029-11.91-41.856-20.43-3.826-8.52 4.597-31.32 4.349-34.03-.308-3.35 44.179 2.45 44.179 2.45Z"/><path fill="#2F6B8C" d="M395.631 1845.43s2.629 9.25 2.238 9.44c-.391.2-45.545 4.98-44.18-2.45 1.107-6.02 2.688-12.56 2.688-12.56l39.254 5.57Z"/><path fill="#202338" d="M172.973 1860.02s14.645 19.24 34.236 23.67c19.316 4.38 31.832 12.7 32.779 23.72.947 11.01-45.539 25.44-78.201 6.09-21.463-12.71-29.466-11.99-33.789-20.07-4.323-8.07 2.265-30.71 1.832-33.33-.537-3.24 43.143-.08 43.143-.08Z"/><path fill="#2F6B8C" d="M172.376 1850.51s.966 9.3.598 9.51c-.366.21-43.402 7.41-43.145.08.204-5.82 2.728-13.06 2.728-13.06l39.819 3.47Z"/><path fill="#4B6E9E" d="M350.084 1289.81s20.911 143.48 29.452 191.98c9.985 56.72 13.371 103.58 16.155 132.93 3.503 36.92 8.15 225.87 10.602 236.66 2.452 10.8-60.909 5.19-60.909 5.19s-33.191-246.32-43.624-285.64c-9.714-36.62-37.997-194.76-46.861-184.76-8.863 10-36.002 189.14-42.565 218.02-6.564 28.87-24.159 256.18-24.159 256.18s-59.766 9.05-71.8 0c0 0 9.429-202.69 13.612-256.83 1.594-20.63-13.816-246.99 23.117-338.27 19.518-48.24 196.98 24.54 196.98 24.54Z"/><path fill="#BCC0CF" d="M288.735 945.689s55.334 10.808 61.9 16.301c7.128 5.847 19.699 63.09 20.448 79.04.751 15.95-6.67 82.56-13.798 107.37-7.128 24.81-5.819 146.99-1.316 181.36 0 0-111.413 29.89-220.957 16.43 0 0 18.365-128.55 13.98-162.54-5.616-43.54-19.133-143.87-19.133-143.87s9.698-69.891 19.452-77.689c9.754-7.795 76.962-16.402 76.962-16.402h62.462Z"/><path fill="#EEA886" d="M265.86 784.065s66.561-23.265 62.4 60.291c-4.161 83.555-19.759 92.045-63.545 80.377-43.785-11.67-47.454-64.404-53.156-89.772-5.702-25.368 32.536-47.247 54.301-50.896Z"/><path fill="#EEA886" d="M297.438 957.001s-13.698 8.556-65.635-13.057c0 0 1.466-33.635-8.721-65.051-10.19-31.416 69.696 41.889 69.696 41.889-.839.559-.999 3.699-.52 8.078.404 3.712 1.266 8.314 2.563 12.982 2.919 10.504 2.617 5.992 2.617 15.159Z"/><path fill="#E2D2CA" d="M220.808 876.401s-.19-22.319 9.636-24.374c9.827-2.054 14.888 10.848 14.888 10.848l7.911-.402s-7.071-22.618 2.297-27.803c9.368-5.186 65.407-.63 72.44-8.245 7.033-7.615-3.166-52.843-18.456-57.283-15.29-4.438-57.055-13.442-83.578 8.869 0 0-23.068.415-23.994 18.163-.925 17.744 10.861 68.125 18.856 80.227Z"/><path fill="#A77860" d="M294.827 941.843c-51.592-8.191-59.302-35.908-59.419-36.34 20.057 24.431 56.855 23.358 56.855 23.358.405 3.712 1.266 8.314 2.564 12.982Z"/><path fill="#434343" d="M292.546 967.975s9.395 13.093 15.066 46.695c5.671 33.61 4.708 91.51 4.708 91.51l-13.065 1.5s-19.773-118.079-16.371-138.651l9.662-1.054Z"/><path fill="#EEA886" d="M241.568 842.55c-2.939-7.363-19.541-6.435-17.841 5.238 1.7 11.673 15.419 29.65 20.93 26.278 5.51-3.371.966-21.363-3.089-31.516Z"/><path fill="#DBDFF0" d="M350.634 961.989s32.149 39.241 20.501 142.041c-21.047 185.78 34.072 483.99 34.072 483.99l-56.863 16.81s-54.339-381.22-40.501-519.58c6.306-63.05 25.02-84.03-4.503-136.553 0 0 28.04 1.432 47.294 13.292Z"/><path fill="#DBDFF0" d="M210.987 947.833s90.003 85.877 97.051 150.987c7.049 65.1 18.53 506.01 18.53 506.01l-214.271-11.79s19.694-232.74 24.501-261.86c4.806-29.11 14.75-196.29-6.938-273.86-11.652-41.68 2.21-94.548 28.828-100.32 26.618-5.77 52.299-9.167 52.299-9.167Z"/><path fill="#DBDFF0" d="M180.563 958.957s34.663 9.016 15.592 69.113c-14.937 47.07-16.954 57.18-16.954 57.18l-79.984-18.87s23.452-103.398 61.723-108.958c0 0 12.186-1.638 19.623 1.535Z"/><path fill="#616161" d="m340.712 1180.55-129.735 174.36-118.471-78.66 125.106-177.43 123.1 81.73Z"/><path fill="#E0CEC7" d="m326.564 1185.73-115.221 154.86-105.218-69.86 111.11-157.59 109.329 72.59Z"/><path fill="#616161" d="m291.139 1167.96 8.087-10.87-42.538-28.25-9.749 9.77 44.2 29.35Z"/><path fill="#EEA886" d="M278.875 1297.94s-5.112-.41-7.255-1.62c0 0-3.721-2.48-6.479-4.09-.876-.51-1.652-.94-2.184-1.16-2.22-.94-7.394-2.39-12.054-6.06-4.657-3.67-20.432-24.4-20.432-24.4l9.438-11.23 7.248-11.71s36.729 5.37 41.489 8.31c.463.29.91.6 1.306.91 3.774 2.87 5.307 6.5 7.106 8.21.656.64 6.735 7.36 6.254 9.96-.661 3.61-2.672 5.86-5.11 6.87 0 0-1.626 7.02-5.644 10.02 0 0-1.279 6.52-7.402 8.9 0 0-2.084 6.48-6.281 7.09Z"/><path fill="#A7AAB8" d="M231.821 934.647s27.15 15.47 54.016 18.955l-14.293 21.535-45.274-29.447 5.551-11.043Z"/><path fill="#A7AAB8" d="M294.82 941.842s-2.861 8.866-8.986 11.759l13.423 17.677-.491-23.445-3.946-5.991Z"/><path fill="#434343" d="m285.837 953.601 10.628 13.998s-6.723 8.035-21.209 1.947l10.581-15.945Z"/><path fill="#A7AAB8" d="M386.384 1112.04v.02c-4.887-5.98-9.678-12.26-14.237-18.47-.014-.01-.014-.02-.014-.02s1.715-45.3.217-58.31c0 0 15.667 48.79 14.034 76.78ZM165.517 1082.02s-10.451 64.24-9.718 68.36c.733 4.12-47.309-12.9 9.718-68.36Z"/><path fill="#DBDFF0" d="M184.712 962.984c7.257 2.652 10.003 14.82 7.02 50.076-2.981 35.26-16.121 51.48-21.024 59.64-4.902 8.15-31.864 58.43-27.018 65.04 4.846 6.62 50.621 49.28 53.27 52.75 2.65 3.48 53.757 47.18 53.757 47.18l-26.02 34.34s-110.359-81.43-118.97-89.56c-8.61-8.12-34.347-25.21-24.828-53.61 9.675-28.86 27.063-96.43 30.152-101.72 3.09-5.28 25.686-81.684 73.661-64.136Z"/><path fill="#C6CAD9" d="M354.273 1059.03h-25.257v36.43h25.257v-36.43Z"/><path fill="#202338" d="M1336.26 1842.21s9.01 15.89 14.9 22.19c5.89 6.3 28.44 17.57 28.56 36.29.13 20.3-38.01 14.67-52.93 13.93-14.92-.74-16.04-11.59-22.32-23.08-6.28-11.5-12.61-9.55-13.79-18.82-1.18-9.27 6.08-30.51 6.08-30.51h39.5Z"/><path fill="#323657" d="M1110.37 1301.04s42.01-92.49 47.07-115.25c2.29-10.31 8.59-35.96 12.59-57.02 1.32-6.94 2.42-14.08 3.37-21.08 0-.01-.01-.02-.01-.02 3.75-27.94 4.71-53.42 4.71-53.42s22.31-72.237-25.5-76.646c0 0-17.03 5.578-17.6 6.845-8.05 17.761-11.22 63.051-11.5 72.851-.23 7.96-12.6 88.26-12.78 91.1-.35 5.52-13.05 34.46-19.88 55.94-14.87 46.76-22.71 83.65-22.71 83.65l42.24 13.05Z"/><path fill="#ECF8FC" d="M990.131 1318.6H1205.6v-178.04H990.131v178.04Z"/><path fill="#EEA886" d="M1039.65 1307.59s1.23 23.99 14.89 28.15c13.65 4.16 28.51.45 34.8-3.19 6.29-3.64 22.11-14.2 16.2-20.84-18.95-21.32-65.89-4.12-65.89-4.12Z"/><path fill="#EEA886" d="M1046.6 1329.79s-17.05 1.18-16.13-5.65c.92-6.83 13.2-4.18 13.2-4.18l2.93 9.83ZM1450.65 1304.44s7.41 12.2 16.19 11.96c7.47-.21 17.46 4.32 20.54 5.71 4.11 1.86 19 3.44 16.57 8-2.43 4.56-24.64-1.57-29.56-2.04-4.92-.46 7.88 15.82 7.64 20.36-.25 4.54-31.2 21.01-38.56 8.97-7.37-12.04-6.42-28.97-8.18-30.87-1.76-1.91-5.74-8.59-5.74-8.59l21.1-13.5Z"/><path fill="#EEA886" d="M1481.04 1345.28s19.82 38.12 18.78 41.57c-1.04 3.46-3.4 4.23-5.42.73-2.02-3.5-20.34-36.37-20.34-36.37s15.04 48.38 14.89 51.4c-.09 1.76-4.55 3.49-5.82 1.7-1.27-1.79-19.24-49.07-19.24-49.07s13.95 45.2 12.97 47.66c-.85 2.16-5.42 2.83-6.71-.47s-16.89-44.66-16.89-44.66 7.84 33.39 5.61 35.01c-1.36.99-5.13 2.64-6.85-6.02-1.72-8.67-8.19-28.8-8.19-28.8l37.21-12.68Z"/><path fill="#202338" d="M1109.19 1840.36s-18.38 19.39-37.04 23.45c-18.67 4.06-31.72 9.24-31.86 20.37-.14 11.12 53.7 18.45 75.06 7.24 31.87-16.74 35.11-11.69 38.64-20.06 3.54-8.37-4.24-30.74-4.01-33.4.28-3.29-40.79 2.4-40.79 2.4Z"/><path fill="#81807E" d="M1111.26 1831.09s-2.43 9.08-2.07 9.28c.36.19 42.05 4.88 40.79-2.41-1.02-5.91-2.48-12.33-2.48-12.33l-36.24 5.46ZM1297.28 1836.08s-1.75 8.67-1.41 8.88c.34.21 42.27 7.28 42.04.09-.19-5.72-3.87-12.38-3.87-12.38l-36.76 3.41Z"/><path fill="#292C47" d="M1149.16 1287.43s-15.16 139.09-23.05 186.71c-9.22 55.67-12.34 101.67-14.91 130.48-3.24 36.25-3.86 214.53-6.12 225.12-2.27 10.6 50.22 2.93 50.22 2.93s25.82-232.94 35.45-271.54c8.97-35.94 42.26-190.68 50.44-180.86 8.18 9.81 18.33 180.57 24.39 208.91 6.06 28.35 24.49 250.26 24.49 250.26s41.77 7.86 52.88-1.02c0 0 5.06-191.25 1.2-244.39-1.47-20.25 25.12-242.84-8.98-332.44-18.02-47.36-186.01 25.84-186.01 25.84Z"/><path fill="#DBD8E3" d="M1445.08 1307.01s-11.4 12.44-22.1 10.58c-10.72-1.85-55.52-130.88-55.94-156.71-.32-20.94-12.46-76.23-12.46-76.23s0 .03-.01.09c-.02.01-.02.04-.02.06 0 .03-.02.06-.02.09-1.2 4.14-17.57 61.53-18.14 89.1-.6 28.61 1.81 127.05 1.81 127.05l-40.57 10.26-129.59 1.14-29.58-11.4s3.24-31.65 4.44-53.88c.74-14.13 3.65-39.43 2.9-64.07 0 0 .48-25.98-2.25-37.16-.3-49.38-3.46-98.27-3.46-98.27-1.76-22.39-2.98-43.32-3.67-62.849 5.71-2.855 12.58-6.199 18.09-8.67 17.02-7.655 40.73-17.965 55.96-24.564 8.91-3.866 17.63-6.69 17.63-6.69s60.83-5.508 65.77-5.216c1.56.092 9.16 2.593 19.13 6.184 21.57 7.732 63.15 23.474 69.78 27.97 9.71 6.566 30.24 162.635 31.17 173.555 1.67 19.69 31.13 159.63 31.13 159.63Z"/><path fill="#1D2033" d="M1142.37 1290.59s89.02 7.16 166.98 0v24.16s-116.1 10.48-170.88-4.6l3.9-19.56Z"/><path fill="#323657" d="M1135 984.449c.68 19.851 1.7 41.151 3.49 63.951 0 0 1.68 55.68 5.08 108.5 1.15 7.56 1.73 15.29 1.08 23.21-.84 10.33-2.03 21.6-3.46 33.37-.01.15-.03.31-.04.45-.35 2.79-.7 5.6-1.06 8.43 0 .05-.02.08-.02.13-7.57 58.84-20.38 126.34-27.07 146.77-1.42 4.26 3.46 8.2 6.93 11.24l24.35 14.5s10.04-87.28 13.37-116.91c3.21-28.6 13.33-66.94 17.77-104.3v-.02c5.62-47.39 13.35-93.83 17.53-121.41 10.86-71.824 25.34-103.961 25.34-103.961-6.91 1.952-83.29 36.05-83.29 36.05ZM1365.18 1162.06c1.89 23.96 48.3 163.86 54.47 163.25 10.82-1.07 47.23-11.9 47.23-11.9s-44.83-142.23-46.41-157.22c-1.15-10.91-19.54-174.556-29.25-181.13-5.6-3.802-47.16-17.713-67.54-25.303-3.73-1.391-16.02-5.76-19.35-6.957-4.33 4.546-34.57 35.473-45.1 152.88-1.77 19.78 3.83 61.69 7.57 95.89 3.99 36.48 8.41 64.96 11.66 95.48 6.38 60.11 10.84 107.95 10.84 107.95l63.34-26.64c10.25-4.84 24.45-24.72 20.59-34.91-14.64-38.74-33.08-104.93-33.1-138.93 0 0 7.07-83.24 12.67-101.53 0 0 9.99 38.6 12.38 69.07Z"/><path fill="#EEA886" d="M1256.21 793.631s-63.5-22.196-59.53 57.517c3.97 79.712 18.85 87.812 60.62 76.68 41.77-11.132 45.27-61.442 50.71-85.643 5.44-24.201-31.04-45.074-51.8-48.554Z"/><path fill="#434343" d="M1299.18 881.719s.18-21.293-9.19-23.253c-9.37-1.96-14.2 10.349-14.2 10.349l-7.55-.383s6.75-21.579-2.19-26.526c-8.94-4.947-62.4-.601-69.11-7.866-6.71-7.265 3.02-50.412 17.61-54.648 14.58-4.235 54.43-12.823 79.73 8.462 0 0 22.01.394 22.89 17.325.88 16.932-10.36 64.995-17.99 76.54Z"/><path fill="#EEA886" d="M1279.38 849.426c2.81-7.024 18.64-6.139 17.02 4.997-1.62 11.136-14.71 28.287-19.97 25.07-5.25-3.216-.92-20.38 2.95-30.067Z"/><path fill="#EEA987" d="M1288.25 945.784s-5.61-4.363 2.43-44.272c2.15-10.683-59.62 12.744-59.62 12.744s.5 8.754.45 17.528c-.02 3.933-.16 7.859-.5 11.016-.26 2.374-1.74 6.549-2.27 7.703-2.79 6.087 36.67 10.716 59.51-4.719Z"/><path fill="#A77860" d="M1231.01 942.801c37.07-.452 48.99-27.076 49.35-27.907-19.53 18.69-48.85 16.891-48.85 16.891-.02 3.932-.16 7.859-.5 11.016Z"/><path fill="#E8734D" d="m1245.93 966.45-11.24 14.265s6.59 8.329 18.28 2.181l-7.04-16.446Z"/><path fill="#E8734D" d="M1237.9 981.287s-41.69 151.623-33.09 269.643l14.02 23.35 13.13-24.46s3.6-211.11 15.03-268.905l-9.09.372Z"/><path fill="#EEA987" d="m1233.9 953.151 12.03 13.299s19.32-3.535 24.99-13.064c5.67-9.53-37.02-.235-37.02-.235Z"/><path fill="#C4C1CC" d="M1231.13 941.511s1.4 10.138 14.8 24.939l-14.62 18.558-7.92-38.499 7.74-4.998ZM1286.46 931.138s-21 28.018-40.53 35.311l9.09 21.221 41.5-47.385-10.06-9.147Z"/><path fill="#EEA886" d="M1459.93 1096.38s-5.39-12.54 2.01-14.24l2.79 11.27-4.8 2.97Z"/><path fill="#3B3B40" d="M1480.27 1884.28s-28.66 12.66-28.47 16.86c.2 4.2 4.37 10.07 7.71 9.93 3.33-.14 49.31.84 53.62-2.24 4.32-3.07 21.27-33.49 32.03-35.52 10.76-2.03 25.49-17.9 13.05-35.26-12.45-17.37-58.55 43.69-77.94 46.23Z"/><path fill="#EEA886" d="M1536.84 1830.26s-20.56 14.8-27.47 27.71c-6.92 12.91-34.32 28.26-33.38 30.59.95 2.32 26.35 3.63 34.25-5.9 7.91-9.54 35.64-35.68 43.8-39.7 8.17-4.02 1.4-4.31 1.4-4.31l-18.6-8.39Z"/><path fill="#EEA886" d="M1536.83 1830.26s13.09-25.62 14.12-34.16c1.03-8.55 26.36 9.1 6.86 44.35l-20.98-10.19Z"/><path fill="#3B3B40" d="m1556.74 1866.46-6.67 40.31-4.45.18-.46-33.64s9.47-8.66 11.58-6.85Z"/><path fill="#353A3D" d="M1563.73 1310.51s-29.9 136.74-39.34 170.43c-9.44 33.69-18.36 83.73-19.41 103.55-1.04 19.82 5.77 39.64 6.3 50.04.52 10.4 15.73 197.19 15.73 197.19s33.96 4.29 38.15 1.32c4.2-2.97 27.41-152.93 19.55-211.89-7.87-58.95 7.34-75.8 28.32-103.54 20.98-27.75 56.12-132.78 55.07-145.17-1.05-12.39-17.31-152.6-17.31-152.6s-64.62-79.02-87.06 90.67Z"/><path fill="#3B3B40" d="M1723.35 1853.33s-22.5 36.04-32.01 41.92c-12.89 7.99-4.81 16.07 1.31 16.08 6.13.01 37.41 2.12 44.3-5.27 6.89-7.39 10.31-29.53 16.72-35.32 6.41-5.79 12.28-27.17-3.12-34.41-16.89-7.95-27.2 17-27.2 17Z"/><path fill="#EEA886" d="M1731.79 1834.44s-24.47 45.24-28.91 51.48c-4.44 6.23 8.36 6.22 16.3 3.26 7.94-2.96 28.52-32.97 30.76-38.74 2.24-5.77.61-14.11.61-14.11l-18.76-1.89Z"/><path fill="#3B3B40" d="m1759.21 1860.19-5.95 43.26-3.15.13.98-31.12 8.12-12.27Z"/><path fill="#EEA886" d="M1731.79 1834.44s2.79-18.52-1.14-33.94c-3.93-15.42 26.75-4.27 26.75-4.27s1.26 24.09-6.84 40.1c-8.11 16.01-18.77-1.89-18.77-1.89Z"/><path fill="#353A3D" d="M1779.07 1260.02s3.37 119.85-5.54 162.46c-8.92 42.61-23.08 119.4-21.51 138.72 1.57 19.33 2.32 34.13 8.92 50.04 3.87 9.35 18.75 81.26-4.98 218.91l-30.68 1.32s-20.99-141.95-25.19-181.58c-4.19-39.64-13.63-65.4-13.63-77.79 0-12.38-35.67-117.91-34.09-163.99 1.57-46.07-13.17-141.9-.05-165.97 30.42-55.85 126.75 17.88 126.75 17.88Z"/><path fill="#EAD8CF" d="m1684.46 981.844 37.53 275.166-152.25-2.71 8.78-242.05 40.41-26.257.68 33.367 15.84-32.996 26.75 34.926 22.26-39.446Z"/><path fill="#EDDCC5" d="M1540.26 951.064s24.78 3.345 33.83 10.777c9.05 7.432 40.52 15.235 40.52 15.235l-50.75 25.644-23.6-51.656Z"/><path fill="#3D3E52" d="M1716.62 857.245s41.17.859 28.98 36.934c-12.2 36.077-57.04 49.825-74.74 29.016-17.7-20.808 45.76-65.95 45.76-65.95Z"/><path fill="#4B5257" d="M1571.86 1272.11s131.25 5.58 146.59 4.09c15.34-1.49-20.99-19.19-20.99-19.19l-116.26-2.51-9.34 17.61Z"/><path fill="#EEA886" d="M1631.91 785.834s-37.76 24.277-36.71 81.254c1.05 56.975 28.32 61.93 69.76 48.058 41.43-13.873 57.69-91.646 48.77-106.762-8.91-15.118-29.89-38.404-81.82-22.55Z"/><path fill="#E55353" d="M1680.69 942.394s20.98 15.855 30.94 18.331c9.97 2.477 47.21 17.341 49.83 25.267 2.62 7.927 49.83 136.248 49.3 143.678-.52 7.43-160.49 119.4-164.16 119.9-3.67.5-24.13-27.25-24.13-27.25l54.55-44.09s-13.11-67.88-15.74-95.13c-2.62-27.25-1.57-95.125 4.72-110.484 6.3-15.359 14.69-30.222 14.69-30.222Z"/><path fill="#E55353" d="M1767.43 1164.95s-1.77 40.03 2.43 53.41c4.19 13.37 25.7 125.84 27.8 129.8 2.09 3.97-64.52-3.96-84.97-49.05-20.46-45.08-30.95-109.49-29.9-114.94 1.05-5.45 84.64-19.22 84.64-19.22ZM1622.47 947.845s-39.86 63.415-39.86 108.995c0 45.58 13.59 77.79 12.57 94.63-1.03 16.85-14.67 132.29-28.83 160.53-14.16 28.24-45.11 42.61-45.11 42.61s27.8-63.92 33.57-116.93c5.77-53.01-10.49-191.24-10.49-191.24s1.05-48.059 11.54-54.995c10.49-6.937 33.04-17.341 42.48-24.276 9.44-6.938 24.13-19.324 24.13-19.324Z"/><path fill="#B84242" d="M1682.72 1175.13s61.7-53.51 64.06-55.37c2.36-1.85-4.72-20.06-4.72-20.06l-59.34 75.43Z"/><path fill="#D5BCB1" d="m1622.48 947.845-3.54 38.149-30.21 31.166 17.54-56.073 16.21-13.242Z"/><path fill="#EEA886" d="m1635.45 986.364-15.84 33.006-.68-33.377 3.54-38.148s3.06-2.489 4.54-12.373c.54-3.567.88-8.093.77-13.816-.51-27.187-.24-6.826-.59-10.724-2.79-30.838 53.5-9.661 53.5-9.661s-4.72 23.907 0 41.12c4.72 17.221-45.24 43.973-45.24 43.973Z"/><path fill="#4D6EA3" d="M1585.5 1127.94s34.09 36.66 36.19 41.37c2.09 4.7-63.73-28.49-63.73-28.49l27.54-12.88Z"/><path fill="#BDAEA7" d="M1619.61 1019.37c-.7.99-17.52 22.55-8.45 65.74 7.47 35.59 10.1 105.12 11.23 134.81.24 6.2.41 10.68.54 12.82l3.01-.17c-.13-2.1-.3-6.57-.53-12.75-1.13-29.76-3.78-99.45-11.29-135.26-8.79-41.87 5.27-64.88 5.49-65.19Z"/><path fill="#5B83C2" d="M1484.33 1143.14s2.62 66.14 36.92 75.81c34.3 9.67 82.74 19.35 93.36 18.98 10.62-.37 12.19 4.46 12.19 4.46s0 32.33-2.36 42.36c-2.36 10.03-17.91 33.81-14.46 44.59 3.45 10.78 40.64 24.87 47.5 16.72 6.86-8.15-11.41-22.67-14.55-26.75-3.15-4.09 22.86-67.76 26.38-84.6 3.51-16.85 9.28-46.95-23.5-59.58-32.78-12.63-82.88-34.31-82.88-34.31l-78.6 2.32Z"/><path fill="#EEA886" d="M1478.24 851.091s-30.68 17.978-29.63 48.695c1.04 30.718 21.5 60.197 57.95 54.004 36.45-6.193 31.73-55.49 33.7-61.931 1.97-6.441-1.18-46.218-62.02-40.768Z"/><path fill="#EEA886" d="M1540.26 951.063c-16.92 50.537-55.79 10.516-53.89 10.405.41-.023.71-.535.94-1.316.46-1.582.61-4.287.64-6.383.03-1.695-.01-2.994-.01-2.994s43.8-28.694 44.03-16.068c.23 12.625 8.29 16.356 8.29 16.356Z"/><path fill="#B08A63" d="M1535.4 926.212s-5.96-19.644-14.15-23.614c-8.19-3.972-11.28 5.602-16-2.323-4.72-7.923-26.2-27.894-54.79-14.813 0 0-3.16-34.975 40.63-38.939 43.8-3.964 52.19 21.056 53.76 35.177 1.57 14.12-4.89 38.54-9.45 44.512Z"/><path fill="#3D3E52" d="M1691.73 894.179s9.4-28.827 2.59-38.489c-6.81-9.661-11.53.399-25.69-9.585-14.16-9.985-63.24-5.127-67.29-18.209-4.04-13.08 23.75-69.808 82.5-49.495 58.74 20.314 41.74 83.171 7.89 115.778Z"/><path fill="#EEA886" d="M1681.01 844.543c3.09-5.539 16.86-10.082 18.43 2.23 1.57 12.311-11.41 23.286-19.53 21.8-8.13-1.487-1.13-20.039 1.1-24.03ZM1514.43 894.179c.78-2.816 9.7-8.332 13.37 0 3.67 8.331-5.02 20.718-11.56 15.268-6.53-5.45-1.81-15.268-1.81-15.268Z"/><path fill="#FFCB55" d="M1540.26 951.065c.86-1.712 11.13 1.906 20.32 14.863 10.29 14.505 13.12 32.327 14.3 39.392 1.17 7.06-13.51 48.3-3.02 71.71 10.49 23.41 16.39 31.59 13.64 50.91-2.76 19.32-97.16 20.81-103.06 14.12-5.9-6.69-25.18-57.6-24-96.24 1.18-38.65-14.55-46.823-11.8-50.167 2.75-3.343 35.8-37.157 39.73-34.185 3.93 2.974 35.79 25.641 53.89-10.403Z"/><path fill="#EDDCC5" d="M1443.49 1056.97c-27.57 10.74-63.31 19.77-76.22 26.35-1.83.92-3.2 1.8-4.02 2.63-6.69 6.69-18.1 23.41-31.87 24.15-13.77.74-17.31-16.35-3.93-31.21 13.37-14.87-9.05-10.41 2.75-16.35 11.03-5.55 19.65 3.16 29.07-.82.67-.28 1.34-.62 2.01-1.04 10.23-6.32 44.06-27.87 59-34.56 14.95-6.69 14.16-24.89 26.36-30.467 0 0 25.57-4.087 27.14 17.837 1.58 21.92 1.18 31.21-30.29 43.48Z"/><path fill="#EEA886" d="M1367.27 1083.32c-1.83.92-3.2 1.8-4.02 2.63-6.69 6.69-18.1 23.41-31.87 24.15-13.76.74-17.3-16.35-3.93-31.21 13.38-14.87-9.57-10.65 2.75-16.35 11.22-5.19 19.65 3.16 29.07-.82.27.33 8.48 10.77 8 21.6ZM1624.25 1224.7s-3.61 4.31-11.74 3.07c-8.13-1.24-20.72-14.61-28.33-15.11-7.6-.5 5.51 8.42 5.77 12.14.27 3.71 2.89 6.44-3.41 6.44-6.29 0-39.33-14.12-46.15-13.13-6.82.99-2.36 3.83-2.36 3.83s-7.87-2.1-8.39 2.86c-.53 4.95 30.94 23.04 34.35 23.78 3.41.74 30.16 7.18 49.83 2.23 19.67-4.96 31.99-7.93 31.99-7.93l-21.56-18.18Z"/><path fill="#E55353" d="M1622.47 1222.32s20.19 27.99 24.13 27.25c3.93-.74 88.38-61.01 88.38-61.01l-52.26-13.43-5.7 3.1-54.55 44.09Z"/><path fill="#A77860" d="M1674.66 910.784s-12.41 19.248-47.64 24.687c.54-3.567.86-8.318.76-14.04 0 0 24.33 1.594 46.88-10.647ZM1527.5 941.7s-3.46 21.604-40.19 18.452c.46-1.581.61-4.286.64-6.382 0 0 26.2 5.329 39.55-12.07Z"/><path fill="#EEA886" d="M1462.96 1087.11s-10.21 14.35-4.37 31.41c5.84 17.06 24.43 26.17 24.3 23.7-.14-2.46-16.57-40.14-19.93-55.11Z"/><path fill="#D5BCB1" d="m1680.69 942.394-45.23 43.97 26.74 34.926 37.36-66.198-18.87-12.698Z"/><defs><linearGradient id="a" x1="1071.69" x2="1071.69" y1="1790.49" y2="-327.254" gradientUnits="userSpaceOnUse"><stop stop-color="#40D5E6"/><stop offset="1" stop-color="#57F"/></linearGradient><linearGradient id="b" x1="1756.65" x2="1756.65" y1="1375.56" y2="678.132" gradientUnits="userSpaceOnUse"><stop stop-color="#40CDE6"/><stop offset=".202" stop-color="#40CDE6"/><stop offset="1" stop-color="#57F"/></linearGradient><linearGradient id="c" x1="1506.38" x2="1822.78" y1="359.348" y2="359.348" gradientUnits="userSpaceOnUse"><stop stop-color="#409EE6"/><stop offset="1" stop-color="#57F"/></linearGradient><linearGradient id="d" x1="1540.48" x2="1786.98" y1="373.375" y2="373.375" gradientUnits="userSpaceOnUse"><stop stop-color="#D5E4FF"/><stop offset="1" stop-color="#EDFFFE"/></linearGradient><linearGradient id="e" x1="1541.11" x2="1663.09" y1="472.733" y2="472.733" gradientUnits="userSpaceOnUse"><stop stop-color="#D5E4FF"/><stop offset="1" stop-color="#EDFFFE"/></linearGradient><linearGradient id="f" x1="1526" x2="1528.34" y1="1193.07" y2="1193.07" gradientUnits="userSpaceOnUse"><stop stop-color="#D5E4FF"/><stop offset="1" stop-color="#EDFFFE"/></linearGradient><linearGradient id="g" x1="1639.99" x2="1642.33" y1="1193.07" y2="1193.07" gradientUnits="userSpaceOnUse"><stop stop-color="#D5E4FF"/><stop offset="1" stop-color="#EDFFFE"/></linearGradient><linearGradient id="h" x1="1753.98" x2="1756.32" y1="1193.07" y2="1193.07" gradientUnits="userSpaceOnUse"><stop stop-color="#D5E4FF"/><stop offset="1" stop-color="#EDFFFE"/></linearGradient><linearGradient id="i" x1="1867.98" x2="1870.32" y1="1193.07" y2="1193.07" gradientUnits="userSpaceOnUse"><stop stop-color="#D5E4FF"/><stop offset="1" stop-color="#EDFFFE"/></linearGradient><linearGradient id="j" x1="1981.96" x2="1984.31" y1="1193.07" y2="1193.07" gradientUnits="userSpaceOnUse"><stop stop-color="#D5E4FF"/><stop offset="1" stop-color="#EDFFFE"/></linearGradient><linearGradient id="k" x1="1527.17" x2="1983.14" y1="1203.22" y2="1203.22" gradientUnits="userSpaceOnUse"><stop stop-color="#D5E4FF"/><stop offset="1" stop-color="#EDFFFE"/></linearGradient><linearGradient id="l" x1="1527.17" x2="1572.37" y1="1032.56" y2="1032.56" gradientUnits="userSpaceOnUse"><stop stop-color="#D5E4FF"/><stop offset="1" stop-color="#EDFFFE"/></linearGradient><linearGradient id="m" x1="1641.16" x2="1669.49" y1="1032.56" y2="1032.56" gradientUnits="userSpaceOnUse"><stop stop-color="#D5E4FF"/><stop offset="1" stop-color="#EDFFFE"/></linearGradient><linearGradient id="n" x1="1755.15" x2="1790.06" y1="1032.56" y2="1032.56" gradientUnits="userSpaceOnUse"><stop stop-color="#D5E4FF"/><stop offset="1" stop-color="#EDFFFE"/></linearGradient><linearGradient id="o" x1="1867.98" x2="1902.88" y1="1032.56" y2="1032.56" gradientUnits="userSpaceOnUse"><stop stop-color="#D5E4FF"/><stop offset="1" stop-color="#EDFFFE"/></linearGradient><linearGradient id="p" x1="1810.78" x2="1963.21" y1="849.744" y2="849.744" gradientUnits="userSpaceOnUse"><stop stop-color="#D5E4FF"/><stop offset="1" stop-color="#EDFFFE"/></linearGradient><linearGradient id="q" x1="1810.78" x2="1950.7" y1="926.086" y2="926.086" gradientUnits="userSpaceOnUse"><stop stop-color="#D5E4FF"/><stop offset="1" stop-color="#EDFFFE"/></linearGradient><linearGradient id="r" x1="1810.78" x2="1931.84" y1="887.915" y2="887.915" gradientUnits="userSpaceOnUse"><stop stop-color="#D5E4FF"/><stop offset="1" stop-color="#EDFFFE"/></linearGradient><linearGradient id="s" x1="1819" x2="1951.85" y1="727.578" y2="727.578" gradientUnits="userSpaceOnUse"><stop stop-color="#D5E4FF"/><stop offset="1" stop-color="#EDFFFE"/></linearGradient><linearGradient id="t" x1="1641.79" x2="1751.09" y1="599.244" y2="599.244" gradientUnits="userSpaceOnUse"><stop stop-color="#D5E4FF"/><stop offset="1" stop-color="#EDFFFE"/></linearGradient><linearGradient id="u" x1="1657.92" x2="1751.09" y1="641.672" y2="641.672" gradientUnits="userSpaceOnUse"><stop stop-color="#D5E4FF"/><stop offset="1" stop-color="#EDFFFE"/></linearGradient><linearGradient id="v" x1="1601.27" x2="1751.09" y1="684.101" y2="684.101" gradientUnits="userSpaceOnUse"><stop stop-color="#D5E4FF"/><stop offset="1" stop-color="#EDFFFE"/></linearGradient><linearGradient id="w" x1="720.503" x2="720.503" y1="1331.78" y2="-103.253" gradientUnits="userSpaceOnUse"><stop stop-color="#40CDE6"/><stop offset=".202" stop-color="#40CDE6"/><stop offset="1" stop-color="#57F"/></linearGradient><linearGradient id="x" x1="698.333" x2="898.629" y1="730.692" y2="730.692" gradientUnits="userSpaceOnUse"><stop stop-color="#D5E4FF"/><stop offset="1" stop-color="#EDFFFE"/></linearGradient><linearGradient id="y" x1="698.337" x2="898.628" y1="442.679" y2="442.679" gradientUnits="userSpaceOnUse"><stop stop-color="#D5E4FF"/><stop offset="1" stop-color="#EDFFFE"/></linearGradient><linearGradient id="z" x1="973.673" x2="1005.26" y1="586.684" y2="586.684" gradientUnits="userSpaceOnUse"><stop stop-color="#D5E4FF"/><stop offset="1" stop-color="#EDFFFE"/></linearGradient><linearGradient id="A" x1="1057.79" x2="1089.37" y1="586.684" y2="586.684" gradientUnits="userSpaceOnUse"><stop stop-color="#D5E4FF"/><stop offset="1" stop-color="#EDFFFE"/></linearGradient><linearGradient id="B" x1="1141.91" x2="1173.49" y1="586.684" y2="586.684" gradientUnits="userSpaceOnUse"><stop stop-color="#D5E4FF"/><stop offset="1" stop-color="#EDFFFE"/></linearGradient><linearGradient id="C" x1="1226.02" x2="1257.61" y1="586.684" y2="586.684" gradientUnits="userSpaceOnUse"><stop stop-color="#D5E4FF"/><stop offset="1" stop-color="#EDFFFE"/></linearGradient><linearGradient id="D" x1="172.47" x2="339.788" y1="857.81" y2="857.81" gradientUnits="userSpaceOnUse"><stop stop-color="#D5E4FF"/><stop offset="1" stop-color="#EDFFFE"/></linearGradient><linearGradient id="E" x1="580.754" x2="679.167" y1="857.81" y2="857.81" gradientUnits="userSpaceOnUse"><stop stop-color="#D5E4FF"/><stop offset="1" stop-color="#EDFFFE"/></linearGradient></defs></svg>