<svg xmlns="http://www.w3.org/2000/svg" width="2563" height="2292" fill="none"><path fill="#DAEBE8" d="M2228.86 2271.26c-213.36 36.36-433.17 21.21-882.31-16.84-252.21-21.37-759.297 14.03-1012.412 16.84C149.606 2273.3 0 2085.75 0 1856.9V429.764C0 200.923 149.918 1.948 334.138 15.409c171.079 12.5 422.714 61.989 685.022 31.687 311.98-36.04 904.14-66.665 1209.7-31.687C2412.62 36.444 2563 200.923 2563 429.764V1856.9c0 228.85-151.32 383.2-334.14 414.36Z"/><path fill="#B8D5DC" d="m1863.17 1812.86-1334.823-20.72c-3.191-18.81-11.159-382.08-18.383-743.79l78.352 1.32v253.28h46.794l-29.402-553.391 54.255-3.806-5.111-43.789h45.704V587.28l24.433-2.051v-86.148h10.793v85.241l28.766-2.405-3.451 120.046h37.619v34.083l67.128-4.684-4.84 386.058h59.645l4.69-597.459 184.481 142.798 9.22 406.031 47.63 9.68 1.89-146.785 126.7-34.012-.01 1.245-1.73 205.342 41.5 8.44v190.25h45.55l-12.59-415.223 275.09-68.59-4.85 282.143 31.43 10.17 2.39-618.576 167.36 76.828 23.77 1243.158Z"/><path fill="#fff" d="m1868.04 1842.34-1339.625-21.12c-3.203-19.19-11.2-389.6-18.449-758.42-7.38-375.446-13.991-749.232-13.991-749.232H1823.41l20.77 711.632 23.86 817.14Z" opacity=".5"/><path fill="#68A1BF" d="m1884.47 1854.45-9.98-.17L520.849 1833l-1.571-9.36c-6.615-39.43-31.739-1452.565-32.799-1512.7l-.222-12.216H1838.92l45.55 1555.726Zm-1347.322-45.08 1327.602 20.85-44.14-1507.605H505.692c8.67 488.127 25.6 1381.185 31.456 1486.755Z"/><path fill="#B8D5DC" d="M2485.71 1898.76c0 85.35-510.96 154.54-1141.26 154.54-630.295 0-1141.252-69.19-1141.252-154.54s179.115-127.49 1145.572-142.39c1031.09-15.89 1136.94 57.04 1136.94 142.39Z"/><path fill="#fff" d="m1500.98 750.802-386.67 207.992h-.02l-72.32 46.456s-5.79-124.667-51.342-216.856c-18.77-38.002-13.181-76.979 5.32-106.662l.011-.014c26.371-42.317 78.961-65.774 124.561-40.69 77.59 42.67 343.66-33.656 376.64 11.151 32.98 44.792 3.82 98.623 3.82 98.623Z"/><g opacity=".5"><path fill="#68A1BF" d="M2188.75 655.119c-1.69-45.694-34.57-84.333-71.21-84.333-51.91 0-68.94 49.65-70.99 95.322-2.12 47.44 31.37 79.906 68.01 79.906s76.3-34.127 74.19-90.895Z"/><path fill="#BFD7D3" d="M2175.87 659.902c0-36.388-29.09-75.155-58.22-76.318-43.1-1.723-60.58 52.866-60.58 89.254 0 36.389 30.08 58.082 59.23 58.082s59.57-34.628 59.57-71.018Z"/><path fill="#68A1BF" d="M2123.89 658.673c-.39-4.968-4.62-8.279-8.62-8.279-4 0-8.29 6.015-8.29 11.007s4.29 9.069 8.29 9.069c4 0 9.34-2.586 8.62-11.797Z"/><path fill="#68A1BF" d="M2115.27 663.226h-1.45c-.79 0-1.43-.803-1.43-1.794 0-.992-1.82-4.354-1.02-4.354l.8-2.111 1.73-49.153-1.79 1.373c-.46.817-1.35 1.014-2 .459-.65-.562-.82-1.68-.37-2.494l4.43-8.005c.35-.65 1-.93 1.61-.694.6.232 1 .928 1 1.714l2.4 63.133c0 .987-3.12 1.926-3.91 1.926Z"/><path fill="#68A1BF" d="M2120.23 607.446c-.41 0-.83-.225-1.11-.661l-5.46-4.877c-.5-.769.16-4.51.78-5.135.61-.624 1.52-.511 2.02.257l4.89 7.489c.5.768.41 1.899-.21 2.524-.27.271-.59.403-.91.403ZM2089.23 669.036c-.37 0-.75-.184-1.03-.548l-4.27-5.519c-.4-.519-.51-1.286-.29-1.949.23-.662.75-1.09 1.32-1.09h.01l33.91-2.223c.79.001 1.24 3.123 1.24 4.113v1.808c0 .992-.65 1.793-1.44 1.793-.79 0-2.58.891-2.58-.1l1.14-1.71-28.88-.083 1.91 2.469c.55.713.53 1.848-.04 2.537-.28.336-.64.502-1 .502Z"/><path fill="#68A1BF" d="M2084.96 663.516c-.31 0-.64-.133-.9-.405-.62-.626-.71-1.757-.21-2.524l3.99-6.1c.51-.769 1.41-.877 2.02-.254.62.627.71 1.758.21 2.525l-1.57 4.567c-.29.433-3.12 2.191-3.54 2.191Z"/></g><path fill="#EF8062" d="M1297.82 458.494c0 6.041-35.96 10.938-80.33 10.938s-80.16 8.733-80.16 2.69c-.01-43.199 35.8-83.745 80.16-83.745 44.37 0 80.33 31.391 80.33 70.117Z"/><path fill="#C0E0DB" d="M1297.66 459.106c.2 4.218-17.13 9.297-42.72 13.209-1.47.221-2.98.442-4.51.663-9.88 1.399-20.85 2.619-32.39 3.554-9.8.8-19.2 1.315-27.9 1.578-3.16.106-6.21.168-9.17.2-25.73.263-43.43-1.967-43.65-6.185-.18-3.638 12.71-7.919 32.69-11.526 1.59-.284 3.22-.567 4.9-.852 8.46-1.409 17.98-2.693 28.18-3.756 4.5-.473 9.12-.914 13.85-1.293 3.29-.274 6.56-.505 9.74-.705 13.51-.873 26.01-1.209 36.62-1.041.26 0 .51.011.76.011 20.18.348 33.41 2.516 33.6 6.143Z"/><path fill="#fff" d="M1263.31 452.955c-2.35 5.616-5.31 10.749-8.78 15.25a59.406 59.406 0 0 1-4.1 4.775c-8.95 9.38-20.44 15.018-32.97 15.018-10.03 0-19.39-3.617-27.32-9.886-3.55-2.797-6.82-6.142-9.73-9.918a64.977 64.977 0 0 1-5.5-8.445c8.46-1.409 17.98-2.693 28.18-3.756 4.5-.473 9.12-.914 13.85-1.293 3.29-.274 6.56-.505 9.74-.705 13.51-.872 26.01-1.209 36.63-1.04Z"/><path fill="#EF8062" d="M1217.49 395.623c-1.91 0-3.45-1.946-3.45-4.345V137.672c0-2.399 1.54-4.345 3.45-4.345 1.9 0 3.45 1.946 3.45 4.345v253.606c0 2.399-1.55 4.345-3.45 4.345Z"/><path fill="#EF8062" d="M1217.49 402.976c5.52 0 10-5.687 10-12.702 0-7.016-4.48-12.703-10-12.703s-10 5.687-10 12.703c0 7.015 4.48 12.702 10 12.702ZM1541.65 458.494c0 6.041-35.96 10.938-80.32 10.938-44.37 0-80.17 8.733-80.17 2.69 0-43.199 35.8-83.745 80.17-83.745 44.36 0 80.32 31.391 80.32 70.117Z"/><path fill="#C0E0DB" d="M1541.49 459.106c.21 4.218-17.13 9.297-42.71 13.209-1.47.221-2.98.442-4.51.663-9.89 1.399-20.85 2.619-32.39 3.554-9.81.8-19.2 1.315-27.91 1.578-3.15.106-6.2.168-9.16.2-25.73.263-43.43-1.967-43.65-6.185-.18-3.638 12.71-7.919 32.69-11.526 1.59-.284 3.22-.567 4.9-.852 8.45-1.409 17.97-2.693 28.17-3.756 4.51-.473 9.13-.914 13.86-1.293 3.29-.274 6.55-.505 9.74-.705 13.5-.873 26.01-1.209 36.62-1.041.26 0 .51.011.75.011 20.19.348 33.41 2.516 33.6 6.143Z"/><path fill="#fff" d="M1507.14 452.955c-2.34 5.616-5.31 10.749-8.77 15.25a59.406 59.406 0 0 1-4.1 4.775c-8.95 9.38-20.45 15.018-32.97 15.018-10.03 0-19.39-3.617-27.32-9.886-3.56-2.797-6.83-6.142-9.73-9.918a64.977 64.977 0 0 1-5.5-8.445c8.45-1.409 17.97-2.693 28.17-3.756 4.51-.473 9.13-.914 13.86-1.293 3.29-.274 6.55-.505 9.74-.705 13.51-.872 26.01-1.209 36.62-1.04Z"/><path fill="#EF8062" d="M1461.33 395.623c-1.91 0-3.45-1.946-3.45-4.345V137.672c0-2.399 1.54-4.345 3.45-4.345 1.9 0 3.45 1.946 3.45 4.345v253.606c0 2.399-1.55 4.345-3.45 4.345Z"/><path fill="#EF8062" d="M1461.33 402.976c5.52 0 10-5.687 10-12.702 0-7.016-4.48-12.703-10-12.703-5.53 0-10 5.687-10 12.703 0 7.015 4.47 12.702 10 12.702ZM1042.28 458.494c0 6.041-35.96 10.938-80.328 10.938-44.365 0-80.165 8.733-80.165 2.69-.002-43.199 35.8-83.745 80.165-83.745 44.368 0 80.328 31.391 80.328 70.117Z"/><path fill="#C0E0DB" d="M1042.12 459.106c.21 4.218-17.13 9.297-42.714 13.209-1.474.221-2.981.442-4.513.663-9.885 1.399-20.848 2.619-32.39 3.554-9.803.8-19.2 1.315-27.902 1.578-3.155.106-6.21.168-9.165.2-25.733.263-43.435-1.967-43.65-6.185-.183-3.638 12.709-7.919 32.687-11.526 1.59-.284 3.222-.567 4.902-.852 8.453-1.409 17.975-2.693 28.175-3.756 4.504-.473 9.125-.914 13.851-1.293 3.296-.274 6.558-.505 9.746-.705 13.503-.873 26.005-1.209 36.623-1.041.25 0 .5.011.75.011 20.19.348 33.41 2.516 33.6 6.143Z"/><path fill="#fff" d="M1007.77 452.955c-2.35 5.616-5.31 10.749-8.778 15.25a58.983 58.983 0 0 1-4.098 4.775c-8.95 9.38-20.442 15.018-32.969 15.018-10.027 0-19.391-3.617-27.322-9.886-3.552-2.797-6.823-6.142-9.728-9.918a64.655 64.655 0 0 1-5.498-8.445c8.453-1.409 17.975-2.693 28.175-3.756 4.504-.473 9.124-.914 13.851-1.293a481.57 481.57 0 0 1 9.746-.705c13.502-.872 26.004-1.209 36.621-1.04Z"/><path fill="#EF8062" d="M961.952 395.623c-1.905 0-3.45-1.946-3.45-4.345V137.672c0-2.399 1.544-4.345 3.45-4.345 1.904 0 3.449 1.946 3.449 4.345v253.606c0 2.399-1.545 4.345-3.449 4.345Z"/><path fill="#EF8062" d="M951.951 390.274c0-7.015 4.478-12.703 10-12.703 5.523 0 10.001 5.688 10.001 12.703 0 7.014-4.478 12.702-10.001 12.702-5.522 0-10-5.686-10-12.702Z"/><path fill="#B0B271" d="M471.705 1734.98s39.142-185.57 6.553-253.86c-32.589-68.29-141.813-78.37-181.982-28.58-40.169 49.79-45.176 110.58 17.43 136.26 62.606 25.68 145.944-67.24 161.562-57.69 15.617 9.55-15.503 196.57-15.503 196.57l11.94 7.3Z"/><path fill="#C2C68E" d="m288.84 1540.28-.978-1.59c.302-.29 30.626-29.14 69.059-50.64 22.599-12.65 43.55-20.32 62.268-22.82 23.48-3.13 43.504 1.94 59.512 15.05l-.881 1.68c-15.69-12.85-35.358-17.81-58.461-14.73-18.549 2.47-39.336 10.09-61.781 22.65-38.264 21.41-68.439 50.12-68.738 50.4Z"/><path fill="#73B3CE" d="M515.702 1882.22h-82.853c-12.674 0-23.241-9.65-24.329-22.22l-11.951-138.09h152.155l-10.825 139.86c-.896 11.54-10.566 20.45-22.197 20.45Z"/><path fill="#66A8BE" d="M554.193 1692.49v27.46c0 16.99-36.179 30.75-80.815 30.75-44.628 0-80.814-13.76-80.814-30.75v-27.46c0-8.62 20.84-16.02 50.384-19.07 9.393-.98 19.667-1.53 30.43-1.53 44.636.01 80.815 9.22 80.815 20.6Z"/><path fill="#080435" d="M554.193 1692.49c0 1.66-.761 3.26-2.205 4.8-3.597 3.84-11.454 7.28-22.228 9.95-4.2 1.05-8.855 1.99-13.866 2.78-1.295.2-2.619.4-3.974.57-.78.13-1.581.23-2.381.33-4.16.54-8.54.98-13.076 1.32-.316.03-.632.06-.959.07-2.363.17-4.764.32-7.206.43-1.66.09-3.34.15-5.04.21-.653.01-1.314.04-1.977.05-2.599.06-5.239.1-7.906.1-1.146 0-2.283-.01-3.421-.02-.682 0-1.373-.02-2.045-.03a256.25 256.25 0 0 1-7.957-.25c-4.358-.17-8.608-.45-12.7-.81l-2.283-.21h-.01l-1.818-.18c-.692-.08-1.375-.15-2.056-.23a211.88 211.88 0 0 1-12.789-1.78c-21.557-3.69-35.73-9.97-35.73-17.09 0-4.37 5.337-8.42 14.44-11.75 5.169-1.89 11.554-3.55 18.868-4.9.396-.09.8-.16 1.206-.22h.01c.721-.14 1.453-.26 2.194-.38 4.29-.72 8.856-1.34 13.659-1.83.257-.02.504-.05.761-.07 4.754-.48 9.736-.86 14.884-1.09 3.113-.16 6.296-.26 9.538-.31 1.73-.04 3.489-.05 5.249-.05 2.767 0 5.495.04 8.183.11.672.02 1.334.03 1.996.05 4.754.15 9.379.41 13.837.77 1.206.08 2.412.2 3.598.31 3.805.34 7.472.76 10.99 1.26 5.041.69 9.766 1.53 14.085 2.48.731.16 1.453.32 2.155.49.484.11.968.22 1.443.34 7.155 1.77 13.037 3.88 17.236 6.22 4.685 2.6 7.295 5.5 7.295 8.56Z"/><path fill="#C2C68E" d="M486.92 1708.56s30.231-188.15 83.561-231.59c53.329-43.43 154.971 7.5 173.502 74.27 18.531 66.78 1.608 124.12-63.664 112.8-65.272-11.32-107.375-140.53-124.766-140.53-17.391 0-55.336 185.05-55.336 185.05H486.92Z"/><path fill="#CCD39C" d="M705.695 1652.88c-.169-.43-17.166-42.81-43.989-83.04-15.731-23.6-31.711-41.85-47.497-54.25-19.659-15.45-39.065-21.79-57.679-18.87l-.2-1.99c18.994-2.98 38.761 3.47 58.748 19.17 15.932 12.51 32.041 30.91 47.882 54.68 26.938 40.42 44.005 82.98 44.175 83.41l-1.44.89Z"/><path fill="#92BCB5" d="M467.564 1792.11s.805-191.9-44.405-247.88c-45.21-55.97-152.992-31.7-181.937 29.03-28.944 60.73-21.639 121.16 44.119 126.52 65.759 5.36 127.884-110.59 144.916-106.2 17.033 4.38 24.284 195.18 24.284 195.18l13.023 3.35Z"/><path fill="#A5D7CD" d="m251.559 1660.56-1.263-1.25c.235-.38 23.834-37.77 56.754-70.56 30.469-30.37 75.41-62.99 116.363-45.47l-.511 1.89c-77.297-32.76-170.424 113.9-171.343 115.39Z"/><path fill="#CCD39C" d="M560.741 1645.5s-18.343-41.61-59.783-39.74c-41.44 1.87-81.465 157.46-66.077 201.12 23.565 66.87 103.74 74.71 136.591 0 16.441-37.39 9.621-126.85-10.731-161.38Z"/><path fill="#C2C68E" d="m501.541 1816.45-1.572-.41c.18-1.07 17.924-108.11 8.488-188.72l1.59-.29c9.478 80.96-8.324 188.35-8.506 189.42Z"/><path fill="#9FC4EB" d="m1624.98 933.758-21.34-3.124-1.17-43.081 22.51-1.575v47.78Z"/><path fill="#77AFC8" d="M2339.93 1468.49s-1.03 2.23-3.27 5.92c-.07.09-.13.2-.19.3l-.02.02c-3.93 6.39-11.43 16.92-23.42 27.73-4.1 3.69-9.65 6.57-16.17 8.71h-.01l-.13.05c-1.39.45-2.83.87-4.3 1.25h-.01c-20.98 5.53-49.78 4.34-72.41-1.66l-3.9-1.11c-1.94-.58-3.82-1.2-5.64-1.85-5.85-2.11-10.61-4.78-14.48-7.73-.49-.38-.97-.75-1.43-1.14-15.69-12.97-15.41-30.49-15.41-30.49h160.79Z"/><path fill="#68A1BF" d="M2345.09 1442.01v19.17c0 11.86-38.79 21.47-86.63 21.47-47.84 0-86.63-9.61-86.63-21.47v-19.17c0-6.02 22.34-11.18 54-13.31 10.07-.69 21.09-1.07 32.63-1.07 47.84 0 86.63 6.43 86.63 14.38Z"/><path fill="#366F90" d="M2345.09 1442.01c0 1.16-.82 2.28-2.37 3.35-7.83 5.45-34.39 9.71-67.79 10.78-.66.02-1.32.03-1.97.05-4.55.14-9.24.21-14.02.21h-.48c-3.89 0-7.72-.05-11.47-.13-2-.04-3.98-.1-5.95-.17-.75-.02-1.5-.05-2.24-.07-1.8-.08-3.57-.16-5.32-.24-2.32-.12-4.58-.25-6.81-.4-.21-.01-.41-.03-.62-.04-.76-.06-1.51-.1-2.27-.16-30.58-2.22-51.95-7.27-51.95-13.18 0-4.97 15.25-9.36 38.43-11.93 4.07-.45 8.39-.85 12.91-1.19.88-.07 1.78-.13 2.67-.19.04 0 .08-.01.12-.01.28-.02.56-.03.84-.06.76-.05 1.53-.1 2.31-.14 4.25-.26 8.66-.46 13.21-.6 3.2-.11 6.46-.18 9.77-.22 2.1-.03 4.23-.04 6.37-.04 8.66 0 17.03.21 24.91.6.66.04 1.33.07 1.98.11 8.11.44 15.69 1.06 22.55 1.87h.01c2.51.29 4.92.6 7.22.93h.01c8.38 1.19 15.35 2.67 20.45 4.32.01.01.03.01.04 0 2.07.68 3.83 1.38 5.26 2.11 2.73 1.39 4.2 2.89 4.2 4.44Z"/><path fill="#ACC9C5" d="M2263.68 1175.63c-8.31 6.2-12.34 4.69-14.25.55-1.91-4.14-.99-9.33 7.32-15.53 15.14-11.29 25.92-9.25 25.92-9.25s-3.63 12.78-18.99 24.23ZM2263.26 1254.96c-6.28 9.28-10.48 9.5-13.34 6.37-2.86-3.13-3.31-8.43 2.97-17.7 11.45-16.91 22.17-19.41 22.17-19.41s-.18 13.59-11.8 30.74ZM2262.46 1452.08l-4.24-4.04c.85-9.8 1.7-23.04-7.78-75.53-8.75-48.44-29.6-121.37-79.24-193.75l1.37-1.53c49.92 72.79 70.88 146.14 79.67 194.86 9.52 52.82 10.24 79.63 10.22 79.99Z"/><path fill="#ACC9C5" d="m2221.45 1268.62-1.53-1.25c35.72-70.85 14.19-156.88 13.97-157.74l1.73-.72c.23.87 22.03 87.92-14.17 159.71ZM2193.99 1231.03c-18.53 0-32.53-11.78-32.69-11.92l1.02-1.92c.18.15 18.12 15.22 40.02 10.67l.3 2.29a42.9 42.9 0 0 1-8.65.88ZM2256.34 1409.2c-37.46-5.42-67.82-28.62-90.24-68.97-.77-1.4-1.51-2.72-1.73-2.95.01 0 .07.07.19.12l.58-2.2c.51.22.83.78 2.45 3.7 22.1 39.78 52.03 62.66 88.96 67.99l-.21 2.31Z"/><path fill="#ACC9C5" d="m2203.37 1384.25-1.76-.61c6.47-30.35-9.46-74.98-9.63-75.43l1.66-.97c.04.12 4.15 11.54 7.38 26.62 2.99 13.98 5.83 34.06 2.35 50.39ZM2169.98 1165.84c9.65 11.06 10.47 17.23 7.94 20.8-2.53 3.56-7.46 3.16-17.11-7.9-17.57-20.14-21.49-36.33-21.49-36.33s12.82 2.99 30.66 23.43ZM2166.19 1211.62c11.83 6.85 14.07 12.42 12.51 16.79-1.57 4.37-6.36 5.87-18.18-.98-21.54-12.47-29.12-26.4-29.12-26.4s12.94-2.06 34.79 10.59Z"/><path fill="#ACC9C5" d="M2197.42 1300.67c4.41 10.89 3.01 15.9-.35 18.1-3.36 2.2-7.39.75-11.81-10.14-8.04-19.82-5.85-33.38-5.85-33.38s9.85 5.31 18.01 25.42ZM2212.64 1194.13c2.2 11.91-.13 16.35-3.8 17.44-3.68 1.1-7.32-1.56-9.51-13.48-4.01-21.71.71-34.19.71-34.19s8.54 8.2 12.6 30.23ZM2227.49 1371.98c-.52 12.22-3.74 15.64-7.51 15.38-3.77-.27-6.67-4.11-6.14-16.34.96-22.26 8.25-32.55 8.25-32.55s6.38 10.92 5.4 33.51ZM2174.34 1338.16c6.15 9.43 5.62 14.71 2.71 17.77-2.91 3.06-7.1 2.74-13.25-6.69-11.19-17.17-11.34-31.02-11.34-31.02s10.52 2.51 21.88 19.94ZM2239.47 1099.52c3.03 16.06.95 21.74-2.72 22.86-3.67 1.12-7.55-2.75-10.58-18.81-5.52-29.24-1.53-45.4-1.53-45.4s9.23 11.68 14.83 41.35Z"/><path fill="#84B5AE" d="M2258.94 1456.39h-.48c-3.89 0-7.72-.04-11.47-.12-2-.04-3.98-.1-5.95-.17-.75-.02-1.5-.05-2.24-.07-1.8-.08-3.57-.16-5.33-.24-2.44-8.38-6.01-17.43-10.3-26.9-5.77-12.73-12.84-26.21-20.25-39.81 0-.01 0-.02-.02-.02-2.81-5.19-5.68-10.41-8.56-15.6l-.01-.01c-14.29-25.87-28.46-51.26-35.81-71.83-7.71-21.58-7.93-37.83 7.07-43.71 35.36-13.86 70.66 106.73 86.5 169.76 3.05 12.19 5.39 22.23 6.85 28.72Z"/><path fill="#ACC9C5" d="m2253.75 1454.32-6.76 1.95c-2-.04-3.98-.1-5.95-.17-.75-.02-1.5-.05-2.24-.07-1.8-.08-3.57-.16-5.33-.24-2.31-.12-4.58-.26-6.8-.4-3.84-8.01-9.58-16.54-16.42-25.31-38.53-49.59-111.69-107.42-74.56-129.51 7.07-4.21 14.81-3.36 22.83 1.05 30.93 17.04 66.11 87.26 83.79 126.27 7.15 15.77 11.44 26.43 11.44 26.43Z"/><path fill="#C7DDDA" d="M2241.04 1456.11c-.75-.03-1.5-.06-2.24-.08-3.39-9.34-7.48-18.51-12.01-27.4-7.16-14.06-15.44-27.4-23.87-39.55 0-.01 0-.02-.02-.02-26.17-37.73-53.81-63.91-54.24-64.31l1.2-2.07c.37.36 21.58 20.43 44.47 50.77l.01.01c12.05 15.96 24.57 34.77 34.77 55.03 4.52 8.96 8.57 18.2 11.93 27.62Z"/><path fill="#CCD39C" d="M2404.15 1298.8c-.41 1.28-.84 2.56-1.29 3.85 0 .01-.01.01-.01.02-2.97 8.43-6.92 16.69-11.31 23.86-4.9 8.02-5.92 16.75-5.55 25.54v.01c0 .25.01.48.02.74.65 13.07 4.18 26.25 2.24 37.37-.14.78-.31 1.56-.5 2.33-1.55 6.12-5.05 11.54-12 15.86-23.29 14.48-27.01 13.3-29.09 25.99v.01c-.13.76-.25 1.56-.36 2.41v.01c-1.83.36-3.63.61-5.41.77 2.73 1.39 4.2 2.88 4.2 4.43 0 1.16-.82 2.29-2.37 3.36-7.83 5.45-34.39 9.7-67.79 10.77-.66.03-1.32.04-1.97.06-4.71.14-9.56.2-14.5.2-11.46 0-22.41-.37-32.41-1.05l-2.27-.15c-1.01-7.38-.94-16.42 2.06-26.1l.12-.4c1.7-5.35 4.32-10.89 8.14-16.45 20.86-30.26 37.62-24.95 33.7-78.48-.04-.6-.09-1.2-.14-1.84v-.01c-.04-.49-.08-1-.12-1.52-4.86-57.15 55.92-32.45 71.12-51.74 15.2-19.3 25.54-40.93 52.88-32.45 19.24 5.99 19.85 29.51 12.61 52.6Z"/><path fill="#C2C68E" d="M2399.82 1252.83c-22.88 25.51-41.88 50.1-57.61 72.96v.02h-.01c-.52.74-1.01 1.48-1.52 2.21-23.04 33.78-38.91 63.73-49.61 87.23-.31.69-.61 1.35-.92 2.02v.01a476.59 476.59 0 0 0-4.8 11.06c-4.82 11.54-8.18 20.94-10.43 27.8-.65.02-1.31.03-1.96.05 2.19-6.81 5.54-16.28 10.41-27.96 7.41-17.84 18.34-40.85 34.05-67.34.37-.64.75-1.28 1.14-1.92 19.09-31.94 45.06-68.85 80.07-107.88l1.19 1.74ZM2303.37 1344.87c-24.92-1.14-35.93-11.38-36.38-11.81l1.09-1.86c.11.1 11.07 10.25 35.36 11.35l-.07 2.32Z"/><path fill="#C2C68E" d="M2318.46 1361.42c-9.88-4.7-18-17.98-23.46-38.42-4.09-15.31-5.3-29.44-5.31-29.58l1.81-.25c.05.55 4.87 55.28 27.6 66.08l-.64 2.17ZM2344.79 1328.17c-2.88 0-4.56-.19-4.64-.2l.18-2.31c.36.05 35.84 4.14 63.58-27.2l1.21 1.73c-22.35 25.26-49.61 27.98-60.33 27.98Z"/><path fill="#C2C68E" d="M2385.83 1354.4c-12.55-2.3-20.46-9.53-24.89-15.19-4.82-6.15-6.63-11.72-6.71-11.96l1.69-.87c.07.21 7.19 21.51 30.17 25.72l-.26 2.3ZM2347.04 1436.66c-.25.05-.49.1-.74.14-1.83.36-3.63.62-5.41.77-1.55.13-3.08.2-4.57.2-10.94 0-20.68-3.44-28.41-7.57h-.01c-9.14-4.86-15.49-10.69-17.75-12.92v-.01c-.58-.57-.89-.91-.92-.94l1.2-1.75c.02.02.24.26.64.67 1.93 1.94 8.12 7.74 17.17 12.64.57.31 1.15.61 1.74.91 1.63.83 3.35 1.62 5.15 2.34 6.05 2.46 12.95 4.21 20.46 4.31.01.01.03.01.03 0 3.56.06 7.25-.26 11.04-1.07.03 0 .06 0 .08-.01l.3 2.29Z"/><path fill="#C2C68E" d="m2309.35 1429.99-1.54-1.23c5.41-11.02 18.05-25.83 47.46-33.77 17.5-4.73 32.92-4.79 33.07-4.79v2.32c-.6 0-60.79.46-78.99 37.47Z"/><path fill="#5794BF" d="M2425.28 1532.05h-203.11v291.63h189.48l13.63-291.63Z"/><path fill="#73A0D1" d="M2330.89 1532.05h-218.88l9.61 291.63h209.27v-291.63Z"/><path fill="#8FB3E3" d="M2430.84 1510.52h-326.33l-5.64 31.21 331.97 5.24v-36.45ZM2297.26 1780.19h-148.75c-4.53 0-8.3-4.42-8.68-10.16l-4.87-75.19c-.42-6.44 3.59-11.97 8.68-11.97h153.62c4.81 0 8.71 4.95 8.71 11.06v75.2c0 6.11-3.9 11.06-8.71 11.06ZM2297.26 1660.96h-148.75c-4.53 0-8.3-4.42-8.68-10.15l-4.87-75.19c-.42-6.45 3.59-11.98 8.68-11.98h153.62c4.81 0 8.71 4.96 8.71 11.07v75.19c0 6.11-3.9 11.06-8.71 11.06Z"/><path fill="#366F90" d="M2336.49 1510.52v34.96l94.35 1.49v-36.45h-94.35Z"/><path fill="#331832" d="m2157.11 1823.68-2.47 14.47c-.78 7.6-5.32 7.64-7.4 7.6-3.27-.07-5.62-7.16-4.79-13.7l1.03-8.37h13.63ZM2298.55 1823.68l2.47 14.47c.79 7.6 5.33 7.64 7.4 7.6 3.27-.07 5.62-7.16 4.8-13.7l-1.03-8.37h-13.64ZM2387.1 1823.68l2.47 14.47c.79 7.6 5.33 7.64 7.4 7.6 3.27-.07 5.62-7.16 4.8-13.7l-1.03-8.37h-13.64ZM2219.45 1590.89c-2.53 0-4.93-1.31-6.28-3.42-1.1-1.72-1.48-3.86-1.1-6.18.94-5.66 3.76-9.18 7.38-9.18 3.97 0 8.08 3.16 8.08 8.44 0 5.09-3.03 10.34-8.08 10.34Zm-5.76-9.17c-.28 1.71-.02 3.19.76 4.42 1.05 1.63 2.96 2.65 4.99 2.65 4.02 0 6.43-4.19 6.43-8.24 0-3.96-3.27-6.33-6.43-6.33-4.18 0-5.45 5.74-5.75 7.5Z"/><path fill="#331832" d="M2219.73 1602.07c-1.12 0-2.03-1.15-2.03-2.55v-9.95c0-1.4.91-2.54 2.03-2.54 1.11 0 2.02 1.14 2.02 2.54v9.95c0 1.4-.91 2.55-2.02 2.55ZM2219.45 1713.09c-2.53 0-4.93-1.31-6.28-3.42-1.1-1.72-1.48-3.86-1.1-6.18.94-5.66 3.76-9.18 7.38-9.18 3.97 0 8.08 3.16 8.08 8.44 0 5.09-3.03 10.34-8.08 10.34Zm-5.76-9.17c-.28 1.71-.02 3.2.76 4.42 1.05 1.63 2.96 2.65 4.99 2.65 4.02 0 6.43-4.19 6.43-8.24 0-3.96-3.27-6.33-6.43-6.33-4.18 0-5.45 5.74-5.75 7.5Z"/><path fill="#331832" d="M2219.73 1724.27c-1.12 0-2.03-1.15-2.03-2.55v-9.94c0-1.41.91-2.55 2.03-2.55 1.11 0 2.02 1.14 2.02 2.55v9.94c0 1.4-.91 2.55-2.02 2.55ZM1253.06 1901.17c-.53 0-1.06-.12-1.59-.38-2.32-1.1-3.49-4.37-2.61-7.3l150.7-500.44c.63-2.09 2.18-3.51 3.96-3.63 1.78-.31 3.44 1.06 4.25 3.07l202.44 500.45c1.13 2.78.25 6.2-1.97 7.62-2.25 1.37-4.93.28-6.05-2.49l-197.82-489.03-147.1 488.48c-.68 2.26-2.39 3.65-4.21 3.65Z"/><path fill="#331832" d="M1449.91 1906.39c-2.19 0-4.11-2.03-4.44-4.85l-58.48-505.67c-.36-3.09 1.34-5.96 3.81-6.4 2.39-.68 4.73 1.67 5.09 4.78l58.48 505.67c.36 3.09-1.34 5.96-3.81 6.4-.21.05-.43.07-.65.07ZM1080.95 1802.42c-.42 0-.86-.08-1.28-.23-2.39-.9-3.74-4.04-3.03-7.05l180.03-759.87c.71-2.98 3.24-4.69 5.6-3.81 2.38.9 3.74 4.04 3.02 7.05l-180.03 759.87c-.58 2.45-2.37 4.04-4.31 4.04Z"/><path fill="#fff" d="M1619.6 1490.47h-420.03l-118.62-739.664h420.03l118.62 739.664Z"/><path fill="#92BCB5" d="M979.017 1166.94s57.163-286.358 11.612-378.547c-18.771-38.002-13.181-76.979 5.319-106.663l.011-.013c51.751-61.503 92.121-13.992 96.891 25.41 3.93 32.54-11.9 43.675-11.9 43.675l66.2 412.928-168.133 3.21Z"/><path fill="#68A1BF" d="M1500.98 750.1h-420.03v1.419h420.03V750.1Z"/><path fill="#fff" d="m976.348 1746.18 5.56-9.1c.93-1.52 2.361-2.42 3.885-2.44l5.062-.07c1.984-.03 3.791 1.43 4.597 3.71l.844 2.39c.833 2.36 2.732 3.83 4.784 3.71 2.6-.16 4.86 2.24 5.17 5.5l.65 6.81c.15 1.52-.16 3.05-.85 4.31l-4.09 7.43c-1.13 2.05-3.128 3.06-5.074 2.57l-10.466-2.67c-1.214-.3-2.292-1.17-3.024-2.43l-7.117-12.21c-1.307-2.25-1.279-5.31.069-7.51Z"/><path fill="#366F90" d="M994.43 1748.3c-.081 0-.161-.01-.242-.01l-6.305-.43.027-.5 6.306.42h.214c.598 0 1.189-.17 1.719-.51l4.831-3.11.19.44-4.833 3.11c-.59.39-1.249.59-1.907.59ZM991.81 1762.68h-1.256c-1.417 0-2.727-.81-3.599-2.21l-1.149-1.86c-.517-.85-1.269-1.42-2.115-1.62l-6.601-1.59.081-.51 6.601 1.59c.94.24 1.78.88 2.357 1.83l1.148 1.85c.793 1.29 1.988 2.01 3.277 2.01h1.256v.51ZM1000.71 1759.34c-.826 0-1.646-.26-2.404-.75l-4.788-3.14.188-.44 4.788 3.14c1.556.98 3.456.86 4.926-.37l.63-.54.23.4-.63.55c-.88.76-1.91 1.15-2.94 1.15Z"/><path fill="#fff" d="m886.81 1762.45 5.861-20.12c.979-3.36 3.13-5.97 5.836-7.08l8.989-3.7c3.523-1.44 7.393-.12 9.845 3.38l2.568 3.66c2.535 3.61 6.572 4.9 10.167 3.24 4.569-2.12 9.66.57 11.665 6.15l4.196 11.68c.935 2.6 1.079 5.55.404 8.28l-3.987 16.13c-1.101 4.46-4.205 7.66-7.895 8.15l-19.837 2.63c-2.301.3-4.608-.49-6.471-2.21l-18.121-16.76c-3.329-3.07-4.642-8.55-3.22-13.43Z"/><path fill="#366F90" d="m908.128 1757.34-.189-.91 11.417-3.68c1.222-.41 2.344-1.2 3.236-2.3l7.22-8.96.524.68-7.219 8.95c-.987 1.22-2.223 2.1-3.573 2.54l-11.416 3.68ZM916.953 1782.35c-1.719 0-3.432-.64-4.875-1.89l-2.862-2.5c-1.31-1.12-2.907-1.66-4.499-1.41l-12.485 1.81-.081-.94 12.485-1.81c1.78-.21 3.546.32 5.01 1.57l2.86 2.5c1.968 1.69 4.487 2.18 6.75 1.28l2.229-.88.229.92-2.23.88c-.825.32-1.678.47-2.531.47ZM933.178 1769.3c-.564 0-1.135-.06-1.706-.18l-9.939-2.21.135-.95 9.939 2.21c3.291.76 6.561-.84 8.616-4.12l.872-1.4.591.57-.873 1.4c-1.866 2.99-4.687 4.68-7.635 4.68Z"/><path fill="#fff" d="m927.702 1723.7 5.187-17.81c.867-2.97 2.771-5.28 5.166-6.27l7.954-3.26c3.117-1.28 6.542-.11 8.711 2.98l2.272 3.24c2.243 3.2 5.816 4.34 8.997 2.87 4.043-1.87 8.548.5 10.323 5.44l3.712 10.34c.828 2.3.956 4.91.359 7.32l-3.529 14.28c-.974 3.94-3.722 6.78-6.986 7.21l-17.554 2.32c-2.035.27-4.078-.42-5.726-1.95l-16.036-14.83c-2.946-2.72-4.107-7.56-2.85-11.88Z"/><path fill="#366F90" d="m946.562 1719.17-.161-.81 10.108-3.26c1.094-.36 2.082-1.06 2.854-2.05l6.393-7.9.47.61-6.393 7.9c-.86 1.07-1.948 1.86-3.157 2.25l-10.114 3.26ZM954.352 1741.31c-1.518 0-3.001-.58-4.284-1.69l-2.539-2.2c-1.162-1.01-2.571-1.45-3.975-1.23l-11.048 1.58-.081-.84 11.048-1.59c.254-.03.504-.05.752-.05 1.303 0 2.592.51 3.68 1.45l2.539 2.2c1.746 1.52 3.935 1.93 5.97 1.13l1.975-.77.201.81-1.975.77c-.745.29-1.511.43-2.263.43ZM968.744 1729.75c-.504 0-1.007-.05-1.518-.17l-8.797-1.96.121-.81 8.798 1.96c2.853.62 5.802-.78 7.622-3.67l.765-1.21.524.5-.766 1.22c-1.653 2.65-4.144 4.14-6.749 4.14Z"/><path fill="#fff" d="m877.355 1700.67 2.869-18.61c.48-3.11 2.066-5.78 4.307-7.23l7.44-4.81c2.917-1.89 6.446-1.42 8.978 1.2l2.654 2.75c2.618 2.71 6.289 3.12 9.244 1.03 3.756-2.66 8.503-1.21 10.879 3.31l4.972 9.46c1.109 2.11 1.563 4.65 1.279 7.16l-1.679 14.8c-.464 4.09-2.818 7.43-5.986 8.51l-17.037 5.81c-1.976.67-4.08.39-5.9-.78l-17.706-11.43c-3.251-2.1-5.01-6.65-4.314-11.17Z"/><path fill="#366F90" d="m895.409 1692.44-.269-.77 9.563-5.24c1.013-.56 1.9-1.46 2.565-2.59l5.312-9.1.536.5-5.311 9.11c-.732 1.25-1.713 2.23-2.835 2.86l-9.561 5.23ZM883.872 1713.61l-.175-.81 10.705-3.78c1.498-.51 3.122-.39 4.546.49l2.781 1.67c1.934 1.15 4.136 1.15 6.044-.07l1.853-1.16.296.74-1.854 1.17c-2.101 1.32-4.519 1.33-6.621.07l-2.781-1.68c-1.289-.76-2.74-.89-4.083-.42l-10.711 3.78ZM917.235 1698.59h-.114l-8.932-.18.014-.85 8.932.19h.107c2.887 0 5.54-1.96 6.957-5.14l.605-1.37.577.41-.605 1.37c-1.524 3.44-4.405 5.57-7.541 5.57Z"/><path fill="#fff" d="m983.699 1716.08-11.157-12.75c-1.864-2.13-2.848-5.22-2.67-8.38l.592-10.5c.232-4.12 2.387-7.66 5.482-9.03l3.242-1.42c3.199-1.41 5.383-5.15 5.499-9.41.146-5.41 3.594-9.77 7.899-9.97l9.004-.44c2.01-.09 3.98.74 5.53 2.35l9.18 9.49c2.54 2.62 3.59 6.89 2.68 10.85l-4.9 21.34c-.57 2.47-1.85 4.59-3.6 5.93l-16.955 13.1c-3.117 2.41-7.121 1.94-9.826-1.16Z"/><path fill="#366F90" d="m987.474 1692.39-.658-.1 1.411-12.99c.141-1.39 0-2.83-.423-4.13l-3.425-10.42.618-.31 3.424 10.43c.464 1.43.625 3 .464 4.52l-1.411 13ZM995.868 1715.79l-.645-.23 2.988-13.47c.43-1.91 1.383-3.57 2.699-4.65l2.58-2.13c1.76-1.43 2.91-3.87 3.09-6.52l.17-2.58.66.06-.17 2.59c-.19 2.9-1.45 5.57-3.39 7.16l-2.58 2.13c-1.17.96-2.031 2.45-2.414 4.18l-2.988 13.46ZM998.173 1681.76l-.565-.44 4.752-9.51c1.57-3.14 1.63-7.08.19-10.27l-.62-1.37.57-.41.62 1.37c1.57 3.47 1.5 7.72-.19 11.12l-4.757 9.51Z"/><path fill="#fff" d="m943.977 1788.66 5.186-17.81c.867-2.97 2.771-5.28 5.166-6.27l7.954-3.26c3.117-1.28 6.542-.11 8.711 2.99l2.272 3.24c2.243 3.19 5.815 4.33 8.997 2.86 4.043-1.87 8.548.51 10.323 5.44l3.712 10.34c.828 2.3.955 4.91.358 7.33l-3.528 14.27c-.975 3.94-3.722 6.78-6.986 7.21l-17.554 2.32c-2.035.27-4.078-.42-5.726-1.95l-16.036-14.83c-2.946-2.72-4.107-7.56-2.849-11.88Z"/><path fill="#366F90" d="m962.835 1784.14-.161-.81 10.107-3.26c1.075-.36 2.061-1.07 2.854-2.05l6.393-7.92.47.61-6.393 7.92c-.88 1.08-1.968 1.86-3.156 2.25l-10.114 3.26ZM970.624 1806.27c-1.511 0-3.002-.57-4.285-1.69l-2.532-2.21c-.974-.84-2.135-1.28-3.331-1.28-.215 0-.43.01-.652.05l-11.048 1.6-.081-.84 11.055-1.61c1.571-.2 3.143.27 4.432 1.41l2.533 2.21c1.759 1.52 3.928 1.96 5.97 1.13l1.974-.78.202.82-1.975.77c-.744.29-1.504.42-2.262.42ZM984.996 1794.72c-.497 0-.994-.05-1.498-.17l-8.798-1.96.122-.81 8.797 1.96c2.888.67 5.816-.78 7.622-3.67l.772-1.23.524.5-.772 1.24c-1.646 2.65-4.149 4.14-6.769 4.14Z"/><path fill="#366F90" d="M979.543 1822.29h-63.906c-14.654 0-27.239-13.16-29.932-31.29l-28.838-194.57 2.069-.18 173.604-16.26-.31 2.88-22.53 206.34c-2.06 18.86-15.02 33.08-30.157 33.08Zm-118.256-221.56 28.085 189.42c2.357 15.9 13.404 27.44 26.265 27.44h63.906c13.284 0 24.657-12.46 26.467-29.02l22.22-203.47-166.943 15.63Z"/><path fill="#366F90" d="m1009.01 1775.37-125.099-6.4.148-4.7 125.101 6.4-.15 4.7ZM876.657 1718.94l-.175-4.67 140.098-8.51.18 4.66-140.103 8.52ZM1022.8 1648.09l-154.528 11.29.215 4.66 154.533-11.29-.22-4.66Z"/><path fill="#366F90" d="m917.345 1593.19-3.706.38 14.496 226.64 3.707-.38-14.497-226.64ZM975.14 1587.33l-18.694 232.38 3.708.47 18.693-232.38-3.707-.47Z"/><path fill="#73A0D1" d="m1030.04 1588.38-176.034 15.34c-3.067.27-5.75-2.67-5.962-6.53l-.121-2.2c-.214-3.87 2.123-7.25 5.19-7.51l176.027-15.35c3.07-.26 5.75 2.68 5.97 6.54l.12 2.2c.21 3.86-2.12 7.24-5.19 7.51Z"/><path fill="#331832" d="M810.869 1360.64H792.97v534.87h17.899v-534.87Z"/><path fill="#331832" d="M877.473 1903.74h-151.11c0-16.57 10.67-30.01 23.83-30.01h103.624c13.065 0 23.656 13.34 23.656 29.79v.22Z"/><path fill="#68A1BF" d="M801.919 1426.23c137.112 0 248.261-20.1 248.261-44.89s-111.149-44.89-248.261-44.89-248.263 20.1-248.263 44.89 111.151 44.89 248.263 44.89Z"/><path fill="#68A1BF" d="M1050.18 1360.64H553.654v20.7h496.526v-20.7Z"/><path fill="#B8D5DC" d="M801.919 1405.53c137.112 0 248.261-20.1 248.261-44.89 0-24.8-111.149-44.9-248.261-44.9s-248.263 20.1-248.263 44.9c0 24.79 111.151 44.89 248.263 44.89Z"/><path fill="#444092" d="M1008.08 1386.82c-.42 0-.8-.38-.9-.92-.11-.62.2-1.25.7-1.38.24-.07 24.27-6.93 33.28-13.15.42-.34 1-.12 1.25.46.24.55.08 1.26-.37 1.57-9.22 6.39-32.76 13.09-33.76 13.38-.06.02-.13.04-.2.04Z"/><path fill="#EF8062" d="M931.171 1360.5H693.134V863.071l238.037 127.567V1360.5Z"/><path fill="#366F90" d="M776.678 955.772H635.337V1360.5h141.341V955.772Z"/><path fill="#DAEBE8" d="M776.678 955.772H635.337v61.268h141.341v-61.268ZM776.678 1092.9H635.337v61.27h141.341v-61.27ZM776.678 1236.8H635.337v61.26h141.341v-61.26Z"/><path fill="#331832" d="m675.539 843.373-3.431 10.041 267.818 145.151 3.431-10.041-267.818-145.151Z"/><path fill="#DAEBE8" d="M990.344 1241.64H776.679v118.86h213.665v-118.86ZM897.149 994.725h-28.103v207.965h28.103V994.725Z"/><path fill="#68A1BF" d="M869.046 994.725v53.295l28.103-26.65v-26.645h-28.103ZM869.046 1094.03l28.103-28.08v69.43l-28.103 41.31v-82.66ZM869.046 1202.69h28.103v-26l-28.103 15.21v10.79ZM776.679 1360.5v-118.86h71.496l-43.11 118.86h-28.386ZM890.124 1241.64l-56.739 118.86h63.456l65.193-118.86h-71.91ZM990.343 1285.31l-59.172 75.19h59.172v-75.19Z" opacity=".4"/><path fill="#331832" d="M996.078 1236.8H776.679v9.52h219.399v-9.52Z"/><path fill="#68A1BF" d="m669.639 955.772-19.837 61.268h-14.465v-61.268h34.302ZM712.26 955.772l-19.126 61.268h50.068l23.144-61.268H712.26ZM669.639 1092.9l-19.837 61.27h-14.465v-61.27h34.302ZM712.26 1092.9l-19.126 61.27h50.068l23.144-61.27H712.26ZM669.639 1236.8l-19.837 61.26h-14.465v-61.26h34.302ZM712.26 1236.8l-19.126 61.26h50.068l23.144-61.26H712.26Z" opacity=".4"/><path fill="#331832" d="M1002.74 1347.55H615.071v20.27h387.669v-20.27Z"/><g opacity=".6"><path fill="#fff" d="M1498.45 1310.12h-202.22l-72.14-460.46 220.72 118.087 53.64 342.373Z"/><path fill="#331832" d="M1499.14 1310.83h-203.38l-.09-.57-72.34-461.771.98.507 221 118.242.06.372 53.77 343.22Zm-202.45-1.42h201.08l-53.45-341.158-219.48-117.431 71.85 458.589Z"/><path fill="#fff" d="M1367.2 1310.12h-120.08l-58.69-374.647h120.07l58.7 374.647Z"/><path fill="#331832" d="M1367.89 1310.83h-121.23l-.09-.57-58.83-375.496h121.23l.09.574 58.83 375.492Zm-120.31-1.42h118.94l-58.48-373.228h-118.93l58.47 373.228Z"/><path fill="#fff" d="M1317.39 992.188h-120.08l-8.88-56.715h120.07l8.89 56.715Z"/><path fill="#331832" d="M1318.08 992.904h-121.23l-.09-.574-9.02-57.566h121.23l.09.574 9.02 57.566Zm-120.31-1.419h118.94l-8.67-55.303h-118.93l8.66 55.303Z"/><path fill="#fff" d="M1337.28 1119.13H1217.2l-8.89-56.72h120.08l8.89 56.72Z"/><path fill="#331832" d="M1337.96 1119.83h-121.22l-.09-.57-9.02-57.55h121.23l.08.57 9.02 57.55Zm-120.29-1.42h118.92l-8.66-55.28H1209l8.67 55.28Z"/><path fill="#fff" d="M1358.15 1252.33h-120.08l-8.89-56.72h120.08l8.89 56.72Z"/><path fill="#331832" d="M1358.83 1253.03H1237.6l-.08-.58-9.02-57.55h121.22l.09.58 9.02 57.55Zm-120.3-1.42h118.93l-8.67-55.29h-118.92l8.66 55.29Z"/><path fill="#fff" d="m1453.13 974.837-248.57-134.349 1.9-8.765 248.57 134.348-1.9 8.766Z"/><path fill="#331832" d="m1453.51 975.805-.6-.321-249.02-134.598 2.2-10.121.6.321 249.01 134.581-2.19 10.138Zm-248.28-135.731 247.52 133.805 1.6-7.401-247.52-133.787-1.6 7.383Z"/><path fill="#fff" d="M1548.72 1310.12H1367.2l-17.24-110.03h181.52l17.24 110.03Z"/><path fill="#331832" d="M1549.4 1310.83h-182.66l-.09-.57-17.37-110.88h182.67l.09.57 17.36 110.88Zm-181.73-1.42h180.37l-17.01-108.61h-180.38l17.02 108.61Z"/><path fill="#fff" d="M1446.66 1164.04h-23.87l-30.16-192.511h23.87l30.16 192.511Z"/><path fill="#331832" d="M1447.35 1164.74h-25.03l-.08-.57-30.3-193.351h25.03l.08.575 30.3 193.346Zm-24.1-1.42h22.73l-29.94-191.081h-22.73l29.94 191.081Z"/><g opacity=".4"><path fill="#fff" d="m1392.63 971.529 7.72 49.331 20.02-24.666-3.87-24.665h-23.87Z"/><path fill="#331832" d="m1400.01 1022.27-8.07-51.451h25.03l.08.575 3.93 25.041-.22.27-20.75 25.565Zm-6.7-50.031 7.4 47.191 19.04-23.468-3.71-23.723h-22.73Z"/></g><g opacity=".4"><path fill="#fff" d="m1407.03 1063.45 19.8-25.99 10.07 64.27-17.88 38.24-11.99-76.52Z"/><path fill="#331832" d="m1418.75 1141.93-.29-1.82-12.04-76.88.2-.27 20.55-26.97 10.32 65.88-.11.22-18.63 39.84Zm-11.11-78.26 11.64 74.34 17.03-36.41-9.82-62.67-18.85 24.74Z"/></g><g opacity=".4"><path fill="#fff" d="M1422.79 1164.04h23.87l-3.77-24.07-21.67 14.08 1.57 9.99Z"/><path fill="#331832" d="M1447.35 1164.74h-25.03l-1.73-11.08.38-.24 22.33-14.51.15.93 3.9 24.9Zm-24.1-1.42h22.73l-3.5-22.28-20.63 13.39 1.4 8.89Z"/></g><g opacity=".4"><path fill="#fff" d="m1367.2 1310.12-17.24-110.03h60.74l-19.38 110.03h-24.12Z"/><path fill="#331832" d="M1391.77 1310.83h-25.03l-.09-.57-17.37-110.88h62.12l-.14.86-19.49 110.59Zm-24.1-1.42h23.2l19.14-108.61h-59.36l17.02 108.61Z"/></g><g opacity=".4"><path fill="#fff" d="m1446.34 1200.09-30.96 110.03h53.91l38.14-110.03h-61.09Z"/><path fill="#331832" d="M1469.66 1310.83h-55.08l.27-.95 31.1-110.5h62.34l-.34 1-38.29 110.45Zm-53.49-1.42h52.75l37.65-108.61h-59.83l-30.57 108.61Z"/></g><g opacity=".4"><path fill="#fff" d="m1537.82 1240.52-39.37 69.6h50.27l-10.9-69.6Z"/><path fill="#331832" d="M1549.4 1310.83h-52.03l40.75-72.06.25 1.62 11.03 70.44Zm-49.86-1.42h48.49l-10.51-67.13-37.98 67.13Z"/></g><path fill="#fff" d="M1537.04 1204.43h-186.4l-1.38-8.82h186.39l1.39 8.82Z"/><path fill="#331832" d="M1537.72 1205.14h-187.54l-1.61-10.24h187.55l1.6 10.24Zm-186.62-1.42h185.25l-1.16-7.4h-185.25l1.16 7.4Z"/><g opacity=".4"><path fill="#fff" d="m1217.57 935.472-7.97 56.715h-12.29l-8.88-56.715h29.14Z"/><path fill="#331832" d="M1210.07 992.903h-13.22l-.09-.574-9.02-57.566h30.5l-.12.827-8.05 57.313Zm-12.3-1.419h11.36l7.77-55.303h-27.79l8.66 55.303Z"/></g><g opacity=".4"><path fill="#fff" d="m1253.78 935.472-7.36 56.715h42.53l10.78-56.715h-45.95Z"/><path fill="#331832" d="M1289.4 992.904h-43.65l7.55-58.142h47.14l-11.04 58.142Zm-42.32-1.42h41.43l10.51-55.302h-44.77l-7.17 55.302Z"/></g><g opacity=".4"><path fill="#fff" d="m1237.46 1062.41-7.97 56.72h-12.29l-8.89-56.72h29.15Z"/><path fill="#331832" d="M1229.96 1119.83h-13.22l-.09-.57-9.02-57.55h30.5l-.12.82-8.05 57.3Zm-12.29-1.42h11.35l7.77-55.28H1209l8.67 55.28Z"/></g><g opacity=".4"><path fill="#fff" d="m1273.67 1062.41-7.37 56.72h42.54l10.78-56.72h-45.95Z"/><path fill="#331832" d="M1309.28 1119.83h-43.65l7.56-58.12h47.14l-11.05 58.12Zm-42.31-1.42h41.42l10.51-55.28h-44.76l-7.17 55.28Z"/></g><g opacity=".4"><path fill="#fff" d="m1258.32 1195.61-7.96 56.72h-12.29l-8.89-56.72h29.14Z"/><path fill="#331832" d="M1250.83 1253.03h-13.23l-.08-.58-9.02-57.55h30.49l-.12.83-8.04 57.3Zm-12.3-1.42h11.36l7.76-55.29h-27.78l8.66 55.29Z"/></g><g opacity=".4"><path fill="#fff" d="m1294.53 1195.61-7.36 56.72h42.54l10.77-56.72h-45.95Z"/><path fill="#331832" d="M1330.15 1253.03h-43.64l7.55-58.13h47.13l-11.04 58.13Zm-42.31-1.42h41.43l10.5-55.29h-44.76l-7.17 55.29Z"/></g><path fill="#fff" d="M1560.32 1316.89h-329.35l-2.94-18.75h329.35l2.94 18.75Z"/><path fill="#331832" d="M1561 1317.61h-330.49l-.09-.58-3.08-19.6h330.5l.09.58 3.07 19.6Zm-329.57-1.42h328.2l-2.72-17.34h-328.2l2.72 17.34Z"/></g><path fill="#EF9F6F" d="M1337.28 850.28s2.93 54.949 51.66 46.917c48.74-8.032 30.55-58.398 30.55-58.398l-34.36-20.812-47.85 32.293Z"/><path fill="#68A1BF" d="M1687.72 815.273s-137.7 90.395-291.34 1.735c0 0-27.07 64.554-22.63 86.662 4.8 23.865 42.01 52.369 150.53 67.859 115.67 16.511 190.14-36.058 190.14-36.058l-26.7-120.198Z"/><path fill="#331832" d="M1774.53 1836.47s1.23 25.59-12.99 34.2c-14.21 8.61-56.41 19.2-39.33 34.09 9.8 8.54 52.47-1.68 64.64-2.85 12.17-1.17 24.02 3.96 32.4-6.47 9.21-11.46-4.38-62.84-4.38-62.84s-10.05 7.43-19.52 8.05c-13.63.89-20.82-4.18-20.82-4.18ZM1984.63 1737.95s33.17 99.96 27.17 118.21c-6.01 18.25-31.82 61.25-11.14 58.14 11.87-1.78 38.23-44.9 46.68-55.89 8.45-10.99 20.03-17.03 20.71-31.77.75-16.22-41.71-66.71-41.71-66.71s-5.4-73.41-12.12-65.08c-9.69 12.01-29.59 43.1-29.59 43.1Z"/><path fill="#EF8062" d="M1738.71 625.731s-7.51-43.306 25.22-50.669c32.74-7.363 27.46 22.714 34.01 29.562 6.54 6.848-6.98 30.497-22.64 35.093-15.67 4.592-36.59-13.986-36.59-13.986ZM1650.3 1205.62c4.42-81.31 143.54 8.82 143.54 8.82s58.57 557.91 31.86 636.21c-5.27 15.45-27.99 15.2-38.63 13.75-75.24-10.26-93.9-289.1-113.54-411.65-9.85-61.48-25.91-197.95-23.23-247.13Z"/><path fill="#331832" d="M1918.26 1204.22c-3.95 19.97-67 40.91-142.47 19.75-75.48-21.17-134.36-43.67-130.41-63.63 3.96-19.97 69.26-29.85 144.73-8.68 75.47 21.16 132.11 32.59 128.15 52.56Z"/><path fill="#68A1BF" d="M1675.46 895.565c-18.57-9.997-35.51-24.53-35.51-24.53s39.83-83.402 123.4-77.878c11.57.766 63.71 13.563 75.07 14.346 112.7 7.769 80.35 388.977 79.84 396.717-145.47-77.01-272.88-43.89-272.88-43.89-1.07-136.47 18.44-274.353 30.08-264.765Z"/><path fill="#EF8062" d="M1892.34 1208.38s-126.82-48.03-231.72-40.25c-4.82.36-8.67 4.86-8.95 10.51 0 0-2.08 45.73-1.15 60.92 2.06 33.62 250.91 21.29 250.91 21.29l-9.09-52.47Z"/><path fill="#FFB27D" d="M1824.16 804.324c-12.75 17.39-27.06 22.98-45.72 22.98-28.26 0-15.09-34.144-15.09-34.144 6.94-.194 10.73-4.32 11.31-12.437l.69-9.975.34-4.945 1.12-15.802 1-14.191 4.07-58.202 13.03 59.262 2.22 10.067 7.63 34.737c2.44 11.074 9.83 19.658 19.26 22.605.04.009.1.037.14.045Z"/><path fill="#331832" d="M1797.12 746.937s-8.33 17.191-21.43 18.864l1.12-15.802c8.17-1.902 20.31-3.062 20.31-3.062Z"/><path fill="#EF8062" d="M1838.57 678.229s-3.14 9.102-1.08 29.308c3.03 29.565-26.12 36.362-32.11 26.991-.75-1.159 6.79-49.134 6.79-49.134l9.63-4.542 16.77-2.623Z"/><path fill="#FFB27D" d="M1823.7 699.766c6.75-36.407-8.07-71.884-33.09-79.24-25.02-7.355-50.77 16.196-57.52 52.604-6.75 36.407 8.07 71.884 33.09 79.239 25.02 7.356 50.77-16.195 57.52-52.603Z"/><path fill="#EF8062" d="M1766.96 631.86c1.01 2.283-10.79 35.289 42.32 53.358 53.1 18.07 30.75-65.02-9-74.048-57.4-13.035-71.83 30.989-68.45 48.395 3.38 17.407 35.13-27.705 35.13-27.705Z"/><path fill="#EF8062" d="M1804.75 673.2s18.52 31.435 7.13 58.045c0 0 15.03-14.131 16.12-20.227 1.1-6.097.62-28.92.62-28.92l-23.87-8.898Z"/><path fill="#FFB27D" d="M1817.03 703.742c-6 4.898-13.38 4.168-16.48-1.63-3.11-5.801-.77-14.474 5.22-19.372 6-4.898 13.37-4.168 16.48 1.631 3.11 5.8.77 14.473-5.22 19.371Z"/><path fill="#080435" d="M1773.89 686.237c-.29-.155-.52-.462-.6-.858-.13-.67.22-1.336.79-1.493.34-.091 7.96-3.064 13.1 6.023.33.573.22 1.341-.26 1.734-.48.391-1.05.154-1.48-.314-4.31-4.675-10.6-5.09-10.88-5.015a.928.928 0 0 1-.67-.077ZM1780.4 701.267c-.31 2.948-2.04 5.127-3.86 4.864-1.82-.263-3.05-2.868-2.74-5.816.31-2.948 2.03-5.127 3.86-4.864 1.82.263 3.05 2.867 2.74 5.816ZM1735.63 685.834c-.33-.011-.64-.193-.84-.525-.34-.561-.23-1.335.25-1.734.28-.234 6.36-6.39 14.07-.288.48.385.63 1.145.31 1.723-.32.577-.92.61-1.47.371-5.5-2.395-11.45.033-11.68.225a.967.967 0 0 1-.64.228ZM1746.52 696.823c.67 2.864-.22 5.65-1.99 6.223-1.77.571-3.75-1.287-4.42-4.151-.67-2.864.22-5.65 1.99-6.223 1.77-.573 3.75 1.286 4.42 4.151Z"/><path fill="#fff" d="M1800.47 697.928c1.04-17.162-6.16-31.846-16.09-32.799-9.92-.952-18.81 12.187-19.85 29.349-1.04 17.161 6.17 31.845 16.09 32.798 9.93.952 18.81-12.187 19.85-29.348ZM1752.27 699.449c2.34-16.748-2.65-31.848-11.14-33.727-8.48-1.878-17.26 10.176-19.59 26.924-2.34 16.749 2.64 31.849 11.13 33.727 8.49 1.879 17.26-10.176 19.6-26.924Z" opacity=".3"/><path fill="#331832" d="M1801.65 694.591c.07-2.191.02-4.426-.19-6.644-.06-.77-.14-1.543-.24-2.295a55.146 55.146 0 0 0-.64-3.763c-1.77-8.544-5.57-15.253-10.68-18.743-4.03-2.772-8.46-3.198-12.79-1.264-.88.408-1.75.888-2.58 1.474-6.68 4.61-11.47 14.729-12.76 26.149a45.887 45.887 0 0 0-.3 3.903c-.14 3.1-.01 6.227.4 9.359.41 3.011 1.04 5.851 1.89 8.445 2.03 6.317 5.3 11.247 9.43 14.059 1.66 1.133 3.42 1.88 5.19 2.227.53.096 1.07.171 1.61.198 1.98.125 3.99-.267 5.99-1.159 2.08-.924 4-2.351 5.74-4.189 4.38-4.603 7.61-11.762 9.06-19.859.17-.823.31-1.675.42-2.53.23-1.759.39-3.554.45-5.368Zm-32.1 24.332c-1.67-2.341-3.09-5.206-4.13-8.451-.83-2.472-1.44-5.189-1.81-8.029a52.63 52.63 0 0 1-.41-8.484c.04-1.344.13-2.654.28-3.952 1.19-11.131 5.82-20.949 12.33-25.117.62-.431 1.27-.763 1.93-1.069 1.76-.793 3.52-1.134 5.27-1.031 2.06.092 4.09.816 6.01 2.138 2.65 1.81 4.95 4.67 6.74 8.288.72 1.433 1.34 2.992 1.88 4.679.03.101.06.176.09.277.03.052.04.103.06.153.29.859.53 1.732.74 2.647.41 1.591.71 3.281.95 5.005.25 1.894.39 3.767.42 5.645.04 1.261.01 2.513-.05 3.757a69.903 69.903 0 0 1-.33 3.895l-.01.024c-1.03 8.388-4 15.924-8.3 20.78-1.74 2.029-3.72 3.563-5.86 4.522-2.28 1.008-4.57 1.277-6.82.845-1.53-.303-3.02-.955-4.46-1.952-1.63-1.103-3.13-2.63-4.46-4.482a.217.217 0 0 0-.06-.088ZM1752.69 696.497c.08-.887.13-1.753.17-2.647-.3.135-.52.238-.63.313-.02 4.734-.61 9.34-1.64 13.51 0-.023 0-.047.02-.066.15-.471.27-.922.39-1.398.01-.068.04-.158.05-.228.15-.541.29-1.132.41-1.702.19-.842.39-1.706.54-2.578.16-.872.29-1.748.41-2.65.11-.831.21-1.691.28-2.554Zm0 0c.08-.887.13-1.753.17-2.647-.3.135-.52.238-.63.313-.02 4.734-.61 9.34-1.64 13.51 0-.023 0-.047.02-.066.15-.471.27-.922.39-1.398.01-.068.04-.158.05-.228.15-.541.29-1.132.41-1.702.19-.842.39-1.706.54-2.578.16-.872.29-1.748.41-2.65.11-.831.21-1.691.28-2.554Zm0 0c.08-.887.13-1.753.17-2.647-.3.135-.52.238-.63.313-.02 4.734-.61 9.34-1.64 13.51 0-.023 0-.047.02-.066.15-.471.27-.922.39-1.398.01-.068.04-.158.05-.228.15-.541.29-1.132.41-1.702.19-.842.39-1.706.54-2.578.16-.872.29-1.748.41-2.65.11-.831.21-1.691.28-2.554Zm0 0c.08-.887.13-1.753.17-2.647-.3.135-.52.238-.63.313-.02 4.734-.61 9.34-1.64 13.51 0-.023 0-.047.02-.066.15-.471.27-.922.39-1.398.01-.068.04-.158.05-.228.15-.541.29-1.132.41-1.702.19-.842.39-1.706.54-2.578.16-.872.29-1.748.41-2.65.11-.831.21-1.691.28-2.554Zm0 0c.08-.887.13-1.753.17-2.647-.3.135-.52.238-.63.313-.02 4.734-.61 9.34-1.64 13.51 0-.023 0-.047.02-.066.15-.471.27-.922.39-1.398.01-.068.04-.158.05-.228.15-.541.29-1.132.41-1.702.19-.842.39-1.706.54-2.578.16-.872.29-1.748.41-2.65.11-.831.21-1.691.28-2.554Zm0 0c.08-.887.13-1.753.17-2.647-.3.135-.52.238-.63.313-.02 4.734-.61 9.34-1.64 13.51 0-.023 0-.047.02-.066.15-.471.27-.922.39-1.398.01-.068.04-.158.05-.228.15-.541.29-1.132.41-1.702.19-.842.39-1.706.54-2.578.16-.872.29-1.748.41-2.65.11-.831.21-1.691.28-2.554Zm0 0c.08-.887.13-1.753.17-2.647-.3.135-.52.238-.63.313-.02 4.734-.61 9.34-1.64 13.51 0-.023 0-.047.02-.066.15-.471.27-.922.39-1.398.01-.068.04-.158.05-.228.15-.541.29-1.132.41-1.702.19-.842.39-1.706.54-2.578.16-.872.29-1.748.41-2.65.11-.831.21-1.691.28-2.554Zm0 0c.08-.887.13-1.753.17-2.647-.3.135-.52.238-.63.313-.02 4.734-.61 9.34-1.64 13.51 0-.023 0-.047.02-.066.15-.471.27-.922.39-1.398.01-.068.04-.158.05-.228.15-.541.29-1.132.41-1.702.19-.842.39-1.706.54-2.578.16-.872.29-1.748.41-2.65.11-.831.21-1.691.28-2.554Zm1.28-3.083c.01-1.302-.04-2.613-.13-3.909-.05-.695-.12-1.396-.19-2.096-1.14-10.749-5.1-19.454-10.53-23.261-1.3-.876-2.61-1.495-3.96-1.788a9.383 9.383 0 0 0-3.33-.157c-.8.114-1.58.329-2.39.656l-.02-.004c-.19.06-.4.162-.6.246-9.32 4.294-15.42 22.016-13.54 39.533 1.16 10.754 5.09 19.455 10.55 23.266 1.38.986 2.83 1.607 4.31 1.876 1.73.315 3.51.143 5.26-.534.02-.02.04-.017.06-.035.22-.08.43-.159.64-.263 3.4-1.56 6.36-4.859 8.64-9.299v-.024l.02.004c2.28-4.394 3.91-9.876 4.7-15.821.36-2.709.55-5.54.51-8.39Zm-3.54 14.824c-1.09 4.113-2.63 7.789-4.52 10.689-1.58 2.461-3.41 4.354-5.41 5.505-.03.02-.03.043-.05.039 0 .023-.02.019-.02.019a.6.6 0 0 1-.22.126c-.25.169-.5.287-.76.406-.3.135-.6.27-.92.355-2.64.916-5.33.497-7.8-1.257-4.92-3.454-8.51-11.357-9.66-21.304 0-.023-.01-.049-.01-.073 0-.023-.01-.073-.01-.096 0-.023 0-.023.01-.047l-.03-.219c-1.78-16.646 3.81-33.396 12.45-37.364a9.25 9.25 0 0 1 1.67-.573 7.74 7.74 0 0 1 3.36-.121c1.27.229 2.51.764 3.69 1.594.09.065.18.128.27.216 2.38 1.759 4.45 4.576 6.05 8.161 1.67 3.739 2.84 8.287 3.38 13.361.08.795.15 1.591.21 2.383.08 1.365.12 2.748.12 4.121-.02 4.734-.61 9.34-1.64 13.51-.07.183-.12.388-.16.569Zm2.26-11.741c.08-.887.13-1.753.17-2.647-.3.135-.52.238-.63.313-.02 4.734-.61 9.34-1.64 13.51 0-.023 0-.047.02-.066.15-.471.27-.922.39-1.398.01-.068.04-.158.05-.228.15-.541.29-1.132.41-1.702.19-.842.39-1.706.54-2.578.16-.872.29-1.748.41-2.65.11-.831.21-1.691.28-2.554Zm0 0c.08-.887.13-1.753.17-2.647-.3.135-.52.238-.63.313-.02 4.734-.61 9.34-1.64 13.51 0-.023 0-.047.02-.066.15-.471.27-.922.39-1.398.01-.068.04-.158.05-.228.15-.541.29-1.132.41-1.702.19-.842.39-1.706.54-2.578.16-.872.29-1.748.41-2.65.11-.831.21-1.691.28-2.554Zm0 0c.08-.887.13-1.753.17-2.647-.3.135-.52.238-.63.313-.02 4.734-.61 9.34-1.64 13.51 0-.023 0-.047.02-.066.15-.471.27-.922.39-1.398.01-.068.04-.158.05-.228.15-.541.29-1.132.41-1.702.19-.842.39-1.706.54-2.578.16-.872.29-1.748.41-2.65.11-.831.21-1.691.28-2.554Zm0 0c.08-.887.13-1.753.17-2.647-.3.135-.52.238-.63.313-.02 4.734-.61 9.34-1.64 13.51 0-.023 0-.047.02-.066.15-.471.27-.922.39-1.398.01-.068.04-.158.05-.228.15-.541.29-1.132.41-1.702.19-.842.39-1.706.54-2.578.16-.872.29-1.748.41-2.65.11-.831.21-1.691.28-2.554Zm0 0c.08-.887.13-1.753.17-2.647-.3.135-.52.238-.63.313-.02 4.734-.61 9.34-1.64 13.51 0-.023 0-.047.02-.066.15-.471.27-.922.39-1.398.01-.068.04-.158.05-.228.15-.541.29-1.132.41-1.702.19-.842.39-1.706.54-2.578.16-.872.29-1.748.41-2.65.11-.831.21-1.691.28-2.554Zm0 0c.08-.887.13-1.753.17-2.647-.3.135-.52.238-.63.313-.02 4.734-.61 9.34-1.64 13.51 0-.023 0-.047.02-.066.15-.471.27-.922.39-1.398.01-.068.04-.158.05-.228.15-.541.29-1.132.41-1.702.19-.842.39-1.706.54-2.578.16-.872.29-1.748.41-2.65.11-.831.21-1.691.28-2.554Zm0 0c.08-.887.13-1.753.17-2.647-.3.135-.52.238-.63.313-.02 4.734-.61 9.34-1.64 13.51 0-.023 0-.047.02-.066.15-.471.27-.922.39-1.398.01-.068.04-.158.05-.228.15-.541.29-1.132.41-1.702.19-.842.39-1.706.54-2.578.16-.872.29-1.748.41-2.65.11-.831.21-1.691.28-2.554Z"/><path fill="#331832" d="M1751.06 694.446c-.48-.088-.92-.426-1.18-.965-.45-.931-.16-2.107.63-2.627.26-.167 6.32-4.035 14.79-.079.85.394 1.26 1.518.92 2.508-.33.991-1.29 1.475-2.13 1.081-7.04-3.287-11.92-.172-11.97-.141-.34.219-.71.287-1.06.223Z"/><path fill="#EF8062" d="M1811.4 625.627s10.08-42.581 42.09-31.681c32.01 10.9 22.47 31.33 18.84 44.469-2.7 9.788-18.02 23.446-33.76 19.183-15.73-4.264-27.17-31.971-27.17-31.971ZM1826.47 761.674c-.31 0-.61-.169-.8-.506-.06-.119-6.57-11.389-18.62-17.151-.51-.253-.76-.962-.57-1.605.19-.642.75-.963 1.27-.727 12.63 6.049 19.25 17.555 19.53 18.028.32.558.21 1.335-.24 1.741a.821.821 0 0 1-.57.22Z"/><path fill="#020202" d="M1760.84 734.926c-3.31 0-6.66-1.013-9-4.258a.78.78 0 0 1 .04-.929c.2-.254.55-.237.74.051 5.76 7.925 19.02.913 19.16.845.26-.118.57.017.69.356.11.32-.01.727-.28.862-.36.201-5.8 3.073-11.35 3.073Z"/><path fill="#DAEBE8" d="M1763.35 793.16s-11.75 33.334 15.09 34.144c0 0-14.1 16.575-23.96 9.923-9.87-6.651-.42-12.563-4.62-16.997-4.2-4.434-8.82-7.636-4.62-12.808 4.2-5.173 0-14.262 0-14.262s11.66-3.175 18.11 0ZM1753.97 875.967c0-2.734-1.89-4.949-4.22-4.949-2.32 0-4.21 2.215-4.21 4.949 0 2.733 1.88 4.951 4.21 4.951s4.22-2.218 4.22-4.951ZM1736.27 1034.94c0-2.73-1.89-4.95-4.22-4.95s-4.22 2.21-4.22 4.95c0 2.73 1.89 4.95 4.22 4.95s4.22-2.22 4.22-4.95ZM1732.05 967.858c2.33 0 4.22-2.216 4.22-4.95 0-2.735-1.89-4.951-4.22-4.951s-4.22 2.216-4.22 4.951c0 2.734 1.89 4.95 4.22 4.95Z"/><path fill="#DAEBE8" d="m1824.16 804.323 19.09 4.374s3.39 11.656-5.96 15.35c-9.35 3.695-11.23 3.695-14.23 12.193s-14.64 8.868-18.74 5.912c-4.09-2.957-11.27 8.129-17.91 8.129-6.64 0-10.57-13.812-7.98-22.98 0 0 24.95-5.014 45.73-22.978Z"/><path fill="#331832" d="M1657.17 962.304c-.04 0-.09-.016-.13-.016-.34-.102-.57-.524-.49-.963l9.72-58.512c.08-.407.37-.642.76-.626.34.102.57.524.49.963l-9.72 58.512c-.06.372-.33.642-.63.642Z"/><path fill="#EF8062" d="M1727.83 1209.5s89.49 435.48 235.26 588.08c14.13 14.79 34.07 17.27 50.39 6.59l25.85-16.9c17.63-11.53 24.35-38.79 14.94-60.69-38.71-90.09-130.8-318.33-161.93-518.2l-164.51 1.12Z"/><path fill="#331832" d="M1821.62 1539.92c-.38-1.17-38.78-116.29-52.16-181.64-13.24-64.75-55.97-87.36-56.4-87.58l.67-2.09c.44.23 44 23.28 57.47 89.09 13.33 65.21 51.69 180.19 52.08 181.34l-1.66.88Z"/><path fill="#EF8062" d="m1595.26 1111-317.02-178.232 12.63-35.569 29.96 16.841 287.07 161.39-12.64 35.57Z"/><path fill="#331832" d="M1297.58 917.936a.43.43 0 0 1-.24-.067c-.29-.17-.42-.591-.29-.946l4.81-13.534c.13-.356.48-.558.76-.372.29.169.42.592.29.946l-4.81 13.534c-.09.27-.3.439-.52.439ZM1307.72 923.63a.41.41 0 0 1-.24-.068c-.29-.169-.42-.59-.29-.946l4.81-13.534c.13-.372.48-.541.76-.372.29.17.42.591.29.946l-4.81 13.534c-.09.27-.3.44-.52.44ZM1317.86 929.325a.431.431 0 0 1-.24-.068c-.29-.169-.42-.592-.29-.946l4.81-13.534c.12-.372.5-.574.76-.372.29.17.42.592.29.946l-4.81 13.534c-.09.27-.3.44-.52.44ZM1327.99 935.035a.38.38 0 0 1-.23-.067c-.29-.17-.42-.591-.29-.946l4.81-13.535c.12-.371.48-.541.75-.371.29.169.42.59.29.946l-4.81 13.534c-.09.27-.3.439-.52.439ZM1335.32 948.838c-.1 0-.2-.035-.3-.084-.36-.203-.53-.744-.36-1.2l7.62-21.459c.16-.473.61-.659.96-.456.36.203.53.744.36 1.2l-7.62 21.459c-.13.337-.39.54-.66.54ZM1347.39 945.932a.38.38 0 0 1-.23-.067c-.29-.169-.42-.591-.29-.946l4.81-13.534c.13-.372.47-.541.76-.372.29.169.41.592.29.946l-4.81 13.534c-.1.27-.31.439-.53.439ZM1357.53 951.643a.38.38 0 0 1-.23-.067c-.29-.17-.42-.591-.29-.946l4.81-13.535c.13-.355.48-.557.76-.371.29.169.41.59.29.946l-4.81 13.534c-.1.27-.3.439-.53.439ZM1367.67 957.338a.431.431 0 0 1-.24-.068c-.29-.169-.41-.592-.29-.946l4.81-13.534c.13-.372.47-.541.76-.372.29.17.42.593.29.946l-4.81 13.534c-.09.27-.3.44-.52.44ZM1377.81 963.032a.431.431 0 0 1-.24-.068c-.29-.169-.41-.591-.29-.946l4.81-13.534c.13-.372.49-.574.76-.372.29.17.42.591.29.946l-4.81 13.534c-.09.27-.3.44-.52.44ZM1385.14 976.836a.625.625 0 0 1-.3-.084c-.36-.203-.53-.744-.36-1.2l7.61-21.441c.17-.474.59-.66.96-.456.36.203.53.744.36 1.2l-7.62 21.441c-.12.337-.38.54-.65.54ZM1399.22 975.079a.431.431 0 0 1-.24-.068c-.29-.169-.41-.592-.29-.946l4.81-13.534c.13-.371.48-.541.76-.371.29.169.42.592.29.946l-4.81 13.534c-.09.271-.3.439-.52.439ZM1409.36 980.773a.431.431 0 0 1-.24-.068c-.29-.169-.41-.59-.29-.946l4.81-13.534c.13-.371.49-.574.76-.372.29.17.42.591.29.947l-4.81 13.534c-.09.27-.3.439-.52.439ZM1419.49 986.467a.38.38 0 0 1-.23-.068c-.29-.169-.42-.592-.29-.946l4.81-13.534c.13-.371.47-.557.76-.371.28.169.41.592.28.946l-4.8 13.534c-.1.27-.31.439-.53.439ZM1429.63 992.178a.38.38 0 0 1-.23-.067c-.29-.17-.42-.591-.29-.946l4.81-13.534c.12-.372.48-.575.76-.372.28.169.41.592.28.946l-4.8 13.534c-.1.271-.31.439-.53.439ZM1436.96 1005.98c-.1 0-.2-.03-.3-.08-.36-.2-.53-.74-.36-1.2l7.62-21.459c.16-.456.58-.676.95-.456.36.203.53.744.36 1.2l-7.61 21.455c-.12.34-.39.54-.66.54ZM1449.03 1003.08a.39.39 0 0 1-.23-.07c-.29-.17-.42-.59-.29-.95l4.81-13.532c.13-.372.48-.574.76-.372.29.17.41.592.29.946l-4.81 13.538c-.1.27-.3.44-.53.44ZM1459.17 1008.79c-.08 0-.16-.02-.24-.07-.29-.17-.41-.59-.29-.95l4.81-13.53c.14-.371.49-.541.76-.371.29.169.42.59.29.946l-4.81 13.535c-.09.27-.3.44-.52.44ZM1469.31 1014.48c-.08 0-.16-.01-.24-.07-.29-.17-.41-.59-.29-.94l4.81-13.536c.13-.371.47-.574.76-.372.29.17.42.588.29.948l-4.81 13.53c-.09.27-.3.44-.52.44ZM1479.45 1020.17a.43.43 0 0 1-.24-.06c-.29-.17-.41-.59-.29-.95l4.81-13.53c.13-.37.49-.56.76-.37.29.16.42.59.29.94l-4.81 13.54c-.09.27-.3.43-.52.43ZM1486.77 1033.98c-.1 0-.2-.03-.3-.08-.36-.21-.53-.75-.36-1.2l7.62-21.44c.16-.48.59-.66.96-.46.36.2.53.74.36 1.2l-7.62 21.44c-.12.34-.39.54-.66.54ZM1499.2 1031.28c-.08 0-.16-.02-.24-.07-.28-.17-.41-.59-.28-.95l4.8-13.53c.13-.37.48-.57.76-.37.29.17.42.59.29.94l-4.81 13.54c-.09.27-.3.44-.52.44ZM1509.33 1036.99a.39.39 0 0 1-.23-.07c-.29-.17-.42-.59-.29-.95l4.81-13.53c.13-.37.49-.56.76-.37.29.17.41.59.29.95l-4.81 13.53c-.1.27-.3.44-.53.44ZM1519.48 1042.68c-.09 0-.17-.01-.24-.06-.29-.17-.42-.6-.29-.95l4.81-13.53c.13-.38.47-.58.76-.38.29.17.42.6.29.95l-4.81 13.53c-.09.27-.3.44-.52.44ZM1529.61 1048.38c-.08 0-.16-.02-.24-.07-.28-.17-.41-.59-.28-.95l4.8-13.53c.13-.37.49-.57.76-.37.29.17.42.59.29.94l-4.81 13.54c-.09.27-.3.44-.52.44ZM1536.94 1062.18a.61.61 0 0 1-.3-.08c-.36-.21-.53-.75-.36-1.2l7.62-21.44c.17-.48.59-.66.95-.46.37.2.53.74.37 1.2l-7.63 21.44c-.12.34-.38.54-.65.54ZM1549.01 1059.29c-.08 0-.16-.01-.24-.07-.28-.17-.41-.59-.28-.94l4.8-13.54c.13-.37.48-.55.76-.37.29.17.42.59.29.95l-4.81 13.53c-.09.27-.3.44-.52.44ZM1559.15 1064.99a.39.39 0 0 1-.23-.07c-.29-.17-.42-.59-.29-.95l4.81-13.53c.12-.37.48-.58.76-.37.28.17.41.59.28.94l-4.8 13.54c-.1.27-.31.44-.53.44ZM1569.29 1070.7a.39.39 0 0 1-.23-.07c-.29-.17-.42-.59-.29-.95l4.81-13.53c.12-.37.49-.56.76-.37.28.17.41.59.28.94l-4.8 13.54c-.1.27-.31.44-.53.44ZM1579.42 1076.39c-.08 0-.16-.01-.23-.07-.29-.16-.42-.59-.29-.94l4.81-13.54c.13-.37.48-.57.76-.37.29.17.42.59.29.95l-4.81 13.53c-.1.27-.3.44-.53.44ZM1586.75 1090.2c-.1 0-.2-.04-.29-.09-.37-.2-.53-.74-.37-1.2l7.63-21.46c.15-.45.59-.67.95-.45.36.2.53.74.36 1.2l-7.62 21.46c-.12.33-.38.54-.66.54Z"/><path fill="#FFB27D" d="M1575.27 1043.92c-6.61-7.64-22.71-19.21-29.46-26.69-2.92-3.25-13.43-13.36-16.71-10.35-2.85 2.61 2.06 15.33 5.04 21.03-33.12-6-78.27 1.15-12.6 16.96 0 .03-.01.07-.02.1-5.74-.83-47.64-8.69-46.83 2.79.6 8.41 35.27 13.63 44.7 15.12-.01.1-.01.2-.02.31-9.72-.56-38.93-4.13-38.7 3.95.31 10.63 38.13 13.79 38.13 13.79s-31.3-3.55-27.04 7.6c2.41 6.28 21.01 7.67 32.6 8.34 2.44.14 4.57.25 6.16.36 1.33.1 2.52.01 3.61-.2 19.48-.3 32.07-4.25 32.07-4.25s15.4-1.61 18.1-21.07c1.71-12.4-6.16-24.48-9.03-27.79Z"/><path fill="#68A1BF" d="M1846.32 875.967s-74.72 139.693-144.03 141.053c-69.3 1.37-124.04-6.36-133.59 20.44-9.55 26.81-15.54 69.93 13.13 81.67 28.67 11.73 182.36 34.26 229.79-30.41 47.43-64.67 56.42-95.155 56.42-95.155l-21.72-117.598Z"/><path fill="#331832" d="m1425.54 790.814-86.01 125.918c-1.24 1.825-3.43 2.033-4.88.466-1.45-1.567-1.61-4.317-.37-6.142l86-125.917c1.25-1.824 3.44-2.032 4.89-.465 1.45 1.566 1.61 4.316.37 6.14Z"/><path fill="#331832" d="m1329.24 927.538 4.26-14.396 4.98 4.628-9.24 9.768Z"/><path fill="#FFB27D" d="M1360.56 806.289s15-16.669 25.55-1.068c13.45 19.879 7.82 83.573-11.64 31.896-.56-1.507 7.01 31.723-.77 35.325-5.84 2.701-14.77-24.123-14.77-24.123s7.21 34.336 1.35 38.285c-6.02 4.063-15.44-24.022-15.44-24.022s10.42 32.198-.95 30.787c-6.18-.769-15.46-29.831-19.43-40.836-3.75-10.4.7-17.591 9.44-22.594 0 0 6.96-11.024 13.17-12.57 2.38-.593 3.61-4.336 5.07-5.59 2.79-2.4 8.42-5.49 8.42-5.49Z"/><path fill="#331832" d="M1646.97 1129.73h-1.49l.01-1.42c.32 0 31.7.44 67.54-5.89 33.03-5.85 76.72-18.77 97.29-47.23 39.52-54.64 53.6-100.144 53.74-100.601l1.05.507c-.14.455-14.29 46.194-53.95 101.044-20.81 28.77-64.77 41.8-97.99 47.68-31.49 5.56-59.54 5.91-66.2 5.91ZM1650.54 1017.72h-.26v-1.42h.05c2 0 66.57-.15 81.37-15.56 15.04-15.677 35.56-51.972 35.76-52.327l.92.811c-.2.372-20.81 36.818-35.97 52.596-14.94 15.57-76.71 15.9-81.87 15.9Z"/><path fill="#fff" d="M947.766 1897.4s-5.996 33.96 53.554 46.69h393.57s-29.38-18.39-29.87-46.69c-.5-28.29-417.254 0-417.254 0Z" opacity=".6"/><path fill="#F0F6F6" d="M1357.85 1846.74H964.041v73.39h393.809v-73.39Z"/><path fill="#92BCB5" d="M962.743 1920.13c11.365 0 20.578-16.43 20.578-36.69 0-20.27-9.213-36.7-20.578-36.7s-20.578 16.43-20.578 36.7c0 20.26 9.213 36.69 20.578 36.69Z"/><path fill="#F0F6F6" d="M1357.84 1920.13c11.37 0 20.58-16.43 20.58-36.69 0-20.27-9.21-36.7-20.58-36.7-11.36 0-20.57 16.43-20.57 36.7 0 20.26 9.21 36.69 20.57 36.69Z"/><path fill="#fff" d="M1172.7 1935.5s-4.47 33.95 39.92 46.68h293.39s-21.9-18.39-22.27-46.68c-.37-28.3-311.04 0-311.04 0Z" opacity=".6"/><path fill="#fff" d="M1478.39 1884.83h-293.56v73.39h293.56v-73.39Z"/><path fill="#92BCB5" d="M1183.86 1958.22c8.48 0 15.34-16.43 15.34-36.69 0-20.27-6.86-36.7-15.34-36.7-8.47 0-15.33 16.43-15.33 36.7 0 20.26 6.86 36.69 15.33 36.69Z"/><path fill="#fff" d="M1478.39 1958.22c8.48 0 15.34-16.43 15.34-36.69 0-20.27-6.86-36.7-15.34-36.7-8.47 0-15.34 16.43-15.34 36.7 0 20.26 6.87 36.69 15.34 36.69Z"/></svg>