<svg xmlns="http://www.w3.org/2000/svg" width="2600" height="2600" fill="none"><path fill="#fff" d="M1476.62 2055.39c71.77.01 143.53-.02 215.3.04 6.71.01 13.43.22 20.12.8 22.6 1.94 23.2 2.46 24.18 25.62.47 11.04.2 22.11.07 33.16-.17 13.74-4.05 17.33-17.99 19.02-18.01 2.19-36.02 1.12-54.05 1.1-130.1-.08-260.21-.05-390.31-.07-7.14 0-14.28.04-21.4-.4-14.61-.92-20.26-6.94-20.42-21.59-.14-13.6.03-27.21-.09-40.81-.13-14.46 1.96-16.76 16.7-16.88 13.84-.12 27.69-.01 41.54-.01 62.12.01 124.24.01 186.35.02Zm-225.94 59.56h466.91v-40.41h-466.91v40.41ZM1534.65 2165.11c56.21.02 112.43-.86 168.61.35 33.99.74 31.17-4.08 33.4 33.71.54 9.31-.09 18.7.1 28.04.2 10.34-4.44 15.27-14.72 16.67-14.68 1.99-29.29.94-43.94.93-100.24-.01-200.49-.01-300.73-.02-5.88 0-11.75-.19-17.62-.23-12.03-.09-17.57-6.89-17.82-18.39-.32-14.44-.02-28.89-.2-43.33-.2-16.07 1.2-17.73 16.75-17.73 58.73-.03 117.45-.02 176.17 0Zm-178.07 59.81h365.73v-40.64h-365.73v40.64Z"/><path fill="#FE5639" d="M1075.37 145.966c-5.05-5.381-10.81-4.408-15.06-7.143-4.27-2.742-7.04-6.412-5.72-11.628 1.16-4.599 4.79-6.851 9.42-7.055 2.93-.127 5.95-.33 8.79.255 16.42 3.384 32.94 6.475 49.16 10.68 12.96 3.352 16.29 12.658 7.69 22.919-14.12 16.85-29.23 32.797-39.71 52.497-2.43 4.587-7.31 5.993-11.97 2.812-4.5-3.066-4.75-7.608-2.78-12.468 5.48-13.447 14.61-24.572 23.62-36.264-5.69-2.43-9.98.127-14.06 1.285-52.01 14.777-99.258 38.567-139.947 75.207-31.044 27.956-61.931 56.231-97.314 78.679-24.721 15.687-50.666 28.72-80.247 31.488-29.06 2.722-54.189-8.785-78.056-23.956-22.523-14.319-43.482-31.01-61.171-50.85-45.913-51.493-102.581-57.924-164.977-43.593-66.282 15.222-120.295 51.83-165.304 101.701-72.919 80.798-113.934 177.276-130.806 284.86-2.317 14.783-4.741 29.712-11.887 44.33-9.18-5.515-6.461-12.945-6.065-18.968 4.477-68.611 20.576-134.149 50.81-195.965 35.559-72.713 81.786-136.419 148.332-183.472 58.125-41.098 122.028-61.715 193.151-56.448 38.064 2.818 67.652 23.18 94.131 49.298 22.278 21.978 45.523 42.683 72.241 59.254 29.832 18.504 60.235 21.048 92.579 7.588 33.493-13.937 63.08-34.235 89.364-58.725 54.484-50.748 111.036-97.546 185.786-116.318Z"/><path fill="#fff" d="M594.209 1879.01c0-42.08.251-84.16-.163-126.24-.113-11.61 4.345-18.05 15.622-18.2 32.281-.45 64.581-1.12 96.837-.21 13.374.38 18.661 9.24 18.674 25.31.056 77.36 0 154.72.075 232.08.006 7.63.239 15.3 1.124 22.86 1.105 9.42-3.052 13.83-11.836 13.85-34.403.08-68.813.17-103.216-.25-12.2-.14-17.494-7.4-17.55-22.95-.145-42.08-.051-84.17-.051-126.25h.484Zm18.624 129.22h92.529v-254.38h-92.529v254.38ZM622.629 1669.21c-23.446 0-46.892.04-70.339-.03-3.748-.02-7.597 0-11.214-.84-4.452-1.03-7.372-4.14-7.045-9.14.282-4.35 3.058-7.03 7.089-7.78 3.667-.69 7.478-.84 11.227-.85 47.313-.05 94.626-.04 141.939-.03 2.926 0 5.871 0 8.785.25 5.55.48 10.109 2.8 10.046 9.09-.056 6.19-4.533 8.9-10.097 9.09-9.619.33-19.258.21-28.884.22-17.173.03-34.34.01-51.507.02ZM618.987 1707.53c-24.307 0-48.613-.01-72.92 0-6.48.01-13.921.07-14.304-8.5-.427-9.53 7.573-9.94 14.386-9.95 48.613-.12 97.226-.11 145.839-.07 6.53.01 13.789.59 13.713 9.25-.069 8.51-7.171 9.22-13.795 9.23-24.307.01-48.613 0-72.919 0v.04Z"/><path fill="#FBBA3A" d="M2272.79 1201.73c-3.84-11.47-12.2-13.98-20.73-16.17-3.85-.99-7.71-1.13-9.19 3.69-1.45 4.7.18 8.3 4.72 10.26 7.78 3.37 15.8 4.13 25.2 2.22Z"/><path fill="#C68318" d="M2327.4 1344.94c-15.95.57-31.8-.31-47.69-2.13-12.1-1.39-17.22-7.2-16.39-19.17.49-7.2.12-14.54 1.31-21.61 2.65-15.67-3.71-27.36-14.98-36.84-17.47-14.69-32.52-31.89-49.02-47.59-16.57-15.76-24.28-36.25-25.73-58-4.23-63.43 29.73-109.32 86.55-130.26 43.64-16.09 89.65-15.8 133.39-.07 71.21 25.61 104.62 98.31 77.72 163.49-5.2 12.59-13.92 22.07-23.35 31.19-14.85 14.36-29.75 28.68-44.65 42.98-9.62 9.24-15.69 19.83-12.97 33.91.24 1.24.14 2.54.22 3.82 2.53 37.6 1.91 38.4-35.47 40.22-9.62.45-19.29.06-28.94.06Z"/><path fill="#FBBA3A" d="M2375.6 1323.15c0-6.36-.13-11.85.02-17.32.55-20.8-.16-41.7 19.7-55.99 17.85-12.86 31.51-30.52 47.42-45.62 14.72-13.96 20.48-32.12 21.22-51.61 2.21-58.26-38.27-94.74-79.53-108.18-29.93-9.75-60.86-8.25-91.13-4.82-37.26 4.22-67.05 23.59-87.36 56.14-18.39 29.48-22.02 84.22 12.12 113.55 16.92 14.54 32.39 30.83 48.48 46.36 7.18 6.92 12.73 14.91 13.38 25.23.61 9.73.64 19.51.68 29.27.07 16.91.56 17.37 18.11 14.22 6.04-30.42-1.91-76.81-17.12-103.7-3.03-5.35-7.03-5.21-11.6-5.11-10.6.23-21.03-.36-30.46-6.03s-11.42-13.96-8.31-24.14c3.01-9.83 9.57-12.8 19.34-11.88 17.39 1.62 29.32 10.98 36.48 25.99 19.41-5.28 19.16-5.3 20.97-23.19 1.11-11.03 3.79-21.75 9.26-31.56 3.54-6.32 8.08-11.22 16.04-9.47 7.92 1.75 8.62 8.67 8.96 15.04.87 16.13-2.29 31.2-13.97 43.08 16.48 13.92 28.72 12.47 38.67-3.85 3.61-5.92 8.41-10.55 13.9-14.57 4.31-3.17 9.37-5.65 13.88-1.98 4.84 3.93 2.75 9.56-.13 13.86-3.5 5.24-7.06 11.03-12.01 14.57-10 7.16-12.66 17.14-14.31 28.38-2.71 18.44-5.14 36.88-9.39 55.14-2.86 12.29-4.82 25.64-1.48 38.99 6.08.35 11.41 1.32 18.17-.8Z"/><path fill="#FBBA3A" d="M2342.74 1325.53c.67-37.14 10.95-72.27 12.99-108.64-9.86-1.46-19.75.17-26.56-5.85-13.41-11.84-24.07-3.86-36.28 2.95 18.51 35.27 24.58 72.26 17.21 111.49 11.44 1.88 21.28 1.88 32.64.05Z"/><path fill="#3D4E62" d="M2327.43 1429.18c-5.87 0-11.76.22-17.62-.06-5.51-.26-11.77-.93-15.17-5.18-7.65-9.54-13.79-20.14-26.95-23.52-3.52-.9-4.23-6.21-2.26-10.07 2.25-4.4 6.48-5.64 10.8-4.47 23.15 6.27 46.74 2.75 70.13 3.48 10.45.32 20.93.29 31.17-3.01 5.44-1.75 11.46-1.59 13.57 5.27 2.06 6.73-2.35 10.64-8.07 12.13-7.72 2.01-12.83 5.32-15.76 13.76-2.87 8.26-11.51 10.79-19.72 11.47-6.67.55-13.41.11-20.12.11v.09Zm-18.73-20c12.87 6.14 25.73 5.67 38.57 0h-38.57ZM2333.18 1373.21c-18.79 0-32.19.1-45.59-.05-4.16-.05-8.37-.43-12.46-1.24-5.68-1.13-10.88-3.7-9.89-10.75.97-6.95 6.43-8.47 12.34-7.63 14.6 2.07 29.26 1.51 43.9 1.39 18.82-.16 37.68 1.15 56.46-1.37 5.81-.78 11.52.13 12.87 6.96 1.52 7.8-4.21 10.61-10.36 11.54-17.48 2.63-35.11.6-47.27 1.15Z"/><path fill="#FBBA3A" d="M2326.75 932.618c0 12.302.31 24.61-.13 36.894-.22 5.928-1.29 12.9-9.28 12.601-6.92-.255-8.58-6.762-8.64-12.175-.27-24.166-.23-48.35.35-72.51.15-6.246 2.09-14.013 10.37-13.231 7.38.694 7.63 8.117 7.77 14.052.26 11.45.07 22.906.07 34.362-.17 0-.34 0-.51.007ZM2452.93 1008.4c-7.86-1.19-10.29-6.2-7.48-11.969 10.55-21.672 22.34-42.695 36.59-62.134 2.72-3.696 7.11-6.673 12.05-3.175 4.23 2.996 3.72 7.755 1.8 11.533-10.74 21.131-22.35 41.767-36.22 60.985-1.6 2.21-4.66 3.34-6.74 4.76ZM2153.14 1037.21c-2.19-1.03-5.85-2.22-8.95-4.27-14.41-9.5-28.56-19.4-41.52-30.9a43.567 43.567 0 0 1-8.09-9.654c-1.99-3.251-3-7.36-.07-10.706 3.05-3.486 7.53-2.805 10.37-.541 18.44 14.669 38.74 26.921 55.53 43.701 2.34 2.33 4.43 5.5 2.84 9.16-1.68 3.87-5.28 3.54-10.11 3.21ZM2257.62 993.289c-6.94-1.291-11.13-4.739-14.37-9.249-12.16-16.933-21.9-35.227-28.55-55.08-2.02-6.005-4.49-13.333 3.93-16.208 7.4-2.525 10.01 4.045 12.59 9.478 7.28 15.304 14.57 30.603 21.81 45.927 3.63 7.671 6.97 15.425 4.59 25.132ZM2599.89 1041.78c.98 9.03-4.72 13.2-10.04 16.98-16.5 11.7-34.7 20.12-53.67 26.83-5.22 1.85-11.36 3.49-14.03-3.24-2.43-6.11 3.73-7.54 7.54-9.64 17.58-9.67 35.18-19.32 52.91-28.7 5.07-2.66 10.47-5.42 17.29-2.23Z"/><path fill="#FFFFFD" d="M2315.35 559.141c-.54-12.83 1.65-27.047 6.59-40.768 12.17-33.854 35.03-45.94 69.85-39.846 37.47 6.552 53.88 31.926 63.24 65.805 10.98 39.769-1.1 77.732-31.61 104.525-14.54 12.767-48.54 14.058-64.61-2.201-4.14-4.186-9.13-7.5-13.42-11.545-20.46-19.281-30.18-43.44-30.04-75.97Zm90.91-56.715c-8.41-3.213-17.01-4.886-23.73-9.421-11.71-7.913-19.58-2.907-27.26 5.521-22.92 25.152-29.28 69.501-14.06 100.136 5.85 11.774 13.41 22.34 26.07 29.757 16.63-41.175 27.39-83.273 38.98-125.993Zm11.91 11.119c-6.7 43.191-20.52 83.743-36.16 124.435 10.78 4.376 19.68 4.039 28.25-2.424 8.89-6.711 15.83-15.114 21.31-24.757 16.15-28.46 9.74-77.751-13.4-97.254ZM2298.83 263.467c21.22-3.047 41.7-1.317 60.17 11.208 14.96 10.146 28.01 21.711 33.07 40.126 4.96 18.052.97 32.594-14.85 40.456-34.68 17.245-70.33 16.59-105.66 1.037-5.01-2.207-8.25-6.501-5.6-12.353 2.98-6.578 8.94-6.31 14.03-3.728 20.62 10.49 42.55 8.556 64.2 6.826 11.9-.948 26.31-2.335 30.31-16.253 4.11-14.344-5.93-24.859-16.02-33.593-14.34-12.397-30.86-18.536-50.01-16.036-5.44.706-10.82 1.063-14.87 5.643-2.99 3.377-6.64 5.305-11.17 2.887-4.25-2.264-5.56-6.272-5.38-10.737.82-20.603 7.35-39.979 13.23-59.412 2.07-6.819 9.31-8.473 15.57-9.084 25.87-2.512 51.77-4.783 77.68-6.698 6.13-.452 14.05-.496 14.41 8.301.36 8.772-7.5 9.02-13.68 9.625-21.28 2.073-42.57 4.516-63.9 5.502-11.51.534-18.11 4.262-18.98 16.43-.43 6.215-4.16 11.985-2.55 19.853ZM2161.38 467.377c-23.95.496-45.6 1.813-67.04 6.03-2.47.483-4.88 1.431-7.36 1.603-6.18.433-13.18 2.163-16.68-5.172-3.2-6.723 1.71-11.373 5.79-15.482 19.62-19.745 40.86-37.887 57.94-60.125 9.76-12.703 21.05-24.293 27.98-39.082 1.79-3.81 4.63-6.069 9.01-5.286 4.3.77 6.75 4.026 7.12 7.932.8 8.428 1.1 16.92 1.18 25.4.17 17.416.03 34.833.07 52.256.01 6.24-1.22 12.734 4.81 17.499 1.91 1.507 2.89 4.974 1.16 7.029-10.97 13.046-4.61 28.446-5.78 42.74-.9 10.966-.18 22.073-.18 33.122 0 6.532-1.65 12.677-9.22 12.544-7.63-.134-8.81-6.533-8.81-12.939.01-22.022.01-44.044.01-68.069Zm-54.11-14.974 52.74-3.588V388.57c-17.38 24.013-35.01 43.102-52.74 63.833ZM2144.74 186.849c7.3-4.122 8.49-17.76 18.15-11.285 9.11 6.113 1.86 14.789-1.38 21.494-3.05 6.31-1.94 10.68 1.45 16.297 4.44 7.334 15.12 16.691 5 23.879-9.01 6.4-12.08-8.065-18.19-12.734-.66-.509-1.28-1.082-4.17-3.537-6.08 6.933-12.14 14.28-18.69 21.15-4.23 4.434-9.65 8.219-15.18 2.379-5.54-5.865-1.3-10.864 2.98-15.292 3.51-3.638 7.24-7.054 10.7-10.737 12.71-13.549 12.75-13.632.95-27.868-3.59-4.338-8.23-8.88-2.94-14.153 5.57-5.541 10.85-1.234 15.25 2.932 2.37 2.239 4.18 5.102 6.07 7.475ZM2480.53 336.785c-5.02 0-10.08.438-15.02-.121-5.02-.573-8.73-3.652-8.67-9.16.06-5.598 3.87-8.785 9.01-8.518 20.21 1.063 39.93-3.899 59.97-4.65 6.36-.235 12.62.859 12.99 8.511.37 7.685-5.85 9.11-12.12 9.771-15.38 1.629-30.73 3.454-46.1 5.203l-.06-1.036ZM2498.87 368.158c-6.01-.191-11.69-2.538-11.59-9.892.1-7.76 5.04-12.875 12.96-12.436 7.1.388 11.73 5 11.39 12.589-.33 7.468-5.57 9.783-12.76 9.739ZM2503.35 290.114c-1.26 6.558-4.73 11.246-11.49 11.113-7.44-.14-11.2-5.674-11.6-12.436-.42-7.074 4.36-10.801 11.08-10.63 7.29.185 10.97 4.937 12.01 11.953Z"/><path fill="#3D4E62" d="M512.625 1827.71c-10.11 83.9-32.765 161.36-95.964 220.73-12.608 11.84-25.01 23.96-38.158 35.16-46.811 39.86-136.169 53.38-199.852 13.62-28.883-18.04-59.099-33.89-88.209-51.57-35.778-21.72-61.937-50.88-78.193-91.38-22.567-56.2-9.865-109.08 5.425-163.03 20.922-73.8 68.9-128.62 129.299-168.77 56.33-37.45 120.139-38.81 181.944-5.03 31.741 17.35 63.086 35.23 93.923 54.24 58.345 35.97 82.865 90.84 89.785 156.03Z"/><path fill="#F2E353" d="M465.702 1948.26c-143.29-54.9-290.052-93.09-436.782-137.92-5.4 30.03-16.677 56.41-13.437 84.12 6.712 57.41 29.55 105.95 81.678 135.98 26.241 15.11 52.092 30.93 78.439 45.85 13.13 7.44 26.379 14.63 40.695 19.94 37.587 13.94 74.263 8.63 111.015-3 12.527-3.97 24.62-8.65 34.635-17.51 20.841-18.45 42.246-36.35 60.048-57.97 17.663-21.47 36.098-42.55 43.709-69.49Z"/><path fill="#FF8881" d="M357.393 1652.71c-22.065-12.15-41.875-24.67-64.135-32.86-37.63-13.87-74.294-8.26-111.021 3.37-12.545 3.97-24.476 8.93-34.503 17.77-24.696 21.76-48.896 43.93-69.818 69.7-20.859 25.68-35.1 54.31-43.596 85.92 3.542 3.67 7.604 3.33 11.165 4.09 33.31 7.03 66.056 16.15 98.192 27.45 28.545 10.03 57.291 19.34 86.457 27.35 7.68 2.11 12.176.92 16.157-6.55 35.075-65.79 70.596-131.34 111.102-196.24Z"/><path fill="#3D4E62" d="M371.036 1661.4c-36.902 67.52-74.325 133.6-115.24 200.24 74.985 18.17 143.088 51.2 217.006 67.49 10.178-22.94 12.897-47.58 18.768-71.36 10.656-43.18-2.97-82.36-23.082-118.31-21.405-38.26-59.551-58.29-97.452-78.06ZM341.752 2017.8c-3.623-.21-5.4-2.58-5.645-6.46-.396-6.31 8.941-20.6 13.858-20.89 4.759-.29 6.555 2.56 6.631 7.04.125 7.34-8.954 20.19-14.844 20.31ZM372.293 2006.07c6.129 8.02 2.003 24.07-6.16 26.42-5.958 1.71-7.861-2.04-6.411-7.05 2.11-7.29 5.627-13.95 12.571-19.37ZM398.289 1961.47c4.722.77 6.034 3.98 5.011 7.49-1.872 6.42-3.755 13.67-11.931 14.39-4.119.37-5.814-3.47-4.747-7.14 1.89-6.48 4.364-12.86 11.667-14.74ZM96.452 1763.29c-5.237-.11-8.257-2.59-7.723-6.95.992-8.1 3.635-16.03 12.344-18.55 4.634-1.35 8.603 2.18 7.717 7.17-1.412 7.9-4.747 15.1-12.338 18.33ZM1441.33 541.915h48.89c3.28-5.483 1.81-11.112 1.81-16.418.1-107.896.07-215.798.06-323.694 0-20.883 2.21-23.39 23-23.555 28.94-.235 57.88.261 86.8-.229 11.65-.197 17.1 5.191 18.22 16.17.51 5.051.68 10.165.67 15.247-.34 105.759-.73 211.524-1.1 317.283-.02 4.98 0 9.961 0 16.278 26.09 0 50.72-.261 75.34.152 7.68.128 20.05-3.536 20.19 8.505.17 13.536-12.88 8.995-20.71 9.071-42.76.413-85.55-.522-128.3.337-146.71 2.958-293.44.725-440.15 1.463-4.19.019-8.4.121-12.58-.127-6.27-.369-12.18-2.112-12.36-9.777-.18-7.799 5.74-9.809 12.01-9.987 11.32-.324 22.64-.14 33.97-.242 2.86-.025 5.73-.356 8.24-.521 0-86.727-.01-172.811.01-258.895 0-20.266 5.82-27.855 25.52-28.892 21.32-1.125 42.76-.839 64.11-.127 14.76.49 18.55 4.701 19.3 19.433.74 14.408.69 28.873.7 43.306.06 70.519.03 141.031.03 211.549v13.333h48.89v-21.513c0-106.198-.01-212.395.01-318.593 0-24.337 5.71-30.126 29.55-30.119 26.41.006 52.83-.115 79.24.076 15 .108 18.09 3.766 18.08 19.147-.08 113.417-.12 226.841-.13 340.265.01 3.301.4 6.615.69 11.074Z"/><path fill="#E88B7C" d="M1511.93 198.025v343.999c30.49 1.463 59.99 1.247 89.52.49V198.025h-89.52Z"/><path fill="#FCBB3D" d="M1333.65 190.735v350.754h87.03V190.735h-87.03Z"/><path fill="#F2E353" d="M1245.42 541.941V272.232h-71.36v269.709h71.36Z"/><path fill="#3D4E62" d="M1410.4 595.546c-94.34 0-188.69.044-283.03-.09-7.93-.012-19.8 2.628-20.19-8.943-.44-12.544 11.61-10.687 20.15-10.699 129.15-.134 258.29-.274 387.44-.185 60.78.038 121.56.56 182.35.865 2.09.013 4.2-.076 6.28.108 6.07.547 12.57 1.374 12.13 9.567-.38 7.214-6.41 7.971-12.06 8.346-2.1.14-4.2.102-6.29.102-95.59.006-191.19.006-286.78.006v.923ZM950.914 1021.63c.013 165.28.013 330.56.013 495.85 0 21.92-.892 23.33-22.486 23.53-163.96 1.56-327.926 2.94-491.899 1.02-54.101-.63-108.208-.44-162.309-1-23.327-.24-25.179-2.56-25.173-25.67.057-274.06.339-548.113-.383-822.172-.044-16.577 4.691-28.593 14.674-39.865 36.105-40.768 71.978-81.758 108.692-121.954 14.486-15.864 31.873-24.223 55.237-24.032 142.599 1.164 285.204 1.151 427.809.318 26.636-.159 53.316-3.753 80.121-3.613 12.062.064 16.106 4.612 16.081 16.653-.327 157.633-.314 315.266-.389 472.899 0 9.356 0 18.696.012 28.036Z"/><path fill="#fff" d="M268.896 690.001v833.319c221.709-1.11 442.463-1.02 664.166-.03V525.975H403.181c2.153 51.416-.088 101.083.401 150.757.107 10.508-3.171 13.74-13.858 13.549-39.778-.706-79.575-.28-120.828-.28Z"/><path fill="#ACEAD5" d="M265.769 674.27h122.034V538.105c-37.806 47.587-81.76 88.616-122.034 136.165Z"/><path fill="#3D4E62" d="M588.194 742.358c72.147 0 144.3-.006 216.447.026 4.182 0 8.427-.07 12.533.591 4.081.662 6.819 3.601 7.07 7.85.289 4.917-2.637 8.059-7.189 9.026-3.234.687-6.669.554-10.015.554-145.136.019-290.277.019-435.413.012-2.518 0-5.042.077-7.547-.127-5.369-.432-10.587-2.156-10.907-8.346-.371-7.105 5.193-8.975 11.026-9.439 3.755-.299 7.547-.147 11.321-.147h212.674ZM588.075 829.276H376.934c-1.677 0-3.36.108-5.024-.026-7.534-.585-18.579 2.227-18.435-9.376.132-10.451 10.649-8.6 17.908-8.613 64.097-.108 128.194-.063 192.292-.063 79.594 0 159.194 0 238.788.006 3.774 0 7.541-.013 11.309.089 5.682.153 10.241 2.57 10.423 8.676.182 6.126-4.201 8.855-9.902 9.167-3.761.21-7.541.127-11.309.127-71.632.013-143.27.013-214.909.013ZM589.449 893.02c-70.891 0-141.782.007-212.673 0-3.774 0-7.554.096-11.321-.082-6.248-.293-12.596-1.718-12.245-9.516.308-6.883 6.361-8.13 12.125-8.397 2.933-.134 5.871-.083 8.81-.083 143.459 0 286.924-.038 430.383.115 7.704.006 19.622-3.295 19.258 9.471-.327 11.508-11.711 8.372-19.139 8.384-71.733.172-143.465.108-215.198.108ZM589.538 959.309c-70.803.006-141.6.013-212.403.006-2.933 0-5.865.032-8.797-.025-6.832-.14-15.208-.045-15.058-9.173.151-9.071 8.609-8.848 15.384-8.848 147.044-.032 294.095-.019 441.139-.025 6.512 0 14.003.082 14.248 8.574.276 9.491-7.648 9.485-14.574 9.485-73.309-.007-146.624-.007-219.939.006ZM588.194 1150.32c72.147 0 144.3-.01 216.447.02 4.182 0 8.427-.07 12.533.59 4.081.67 6.819 3.61 7.07 7.85.289 4.92-2.637 8.06-7.189 9.03-3.234.69-6.669.55-10.015.55-145.136.03-290.277.02-435.413.02-2.518 0-5.042.07-7.547-.13-5.369-.43-10.587-2.16-10.907-8.35-.371-7.1 5.193-8.98 11.026-9.44 3.755-.3 7.547-.14 11.321-.14 70.891-.01 141.783-.01 212.674 0ZM588.194 1216.61H802.13c3.774 0 7.547.01 11.328.08 5.626.11 10.417 2.25 10.699 8.39.32 6.94-4.646 9.34-10.819 9.52-2.932.08-5.871.07-8.809.07-143.466.01-286.924.05-430.383-.11-7.805 0-20.163 3.29-20.464-8.38-.333-13.07 12.565-9.41 20.583-9.43 71.306-.25 142.617-.14 213.929-.14ZM588.747 1300.97c-70.471.01-140.948.01-211.418.01-2.518 0-5.036.04-7.548-.02-7.101-.18-16.457.76-16.451-9.04.006-9.84 9.419-8.97 16.476-8.97 146.398-.05 292.795-.04 439.193-.04 6.863 0 15.095-.31 15.076 9.04-.019 9.3-8.213 9.03-15.101 9.03-73.409-.02-146.818-.01-220.227-.01ZM587.993 1369.81c-70.797 0-141.6.01-212.397 0-3.353 0-6.706.08-10.053-.07-6.229-.29-12.608-1.66-12.357-9.41.22-6.85 6.21-8.25 11.999-8.51 2.926-.13 5.865-.09 8.797-.09 143.698 0 287.389-.03 431.086.1 7.447.01 18.618-2.93 18.813 8.76.194 11.85-10.983 9.11-18.455 9.13-72.479.15-144.953.09-217.433.09ZM589.45 1433.56H376.776c-3.773 0-7.553.1-11.321-.08-6.235-.3-12.602-1.69-12.238-9.51.32-6.87 6.329-8.17 12.112-8.4 2.933-.12 5.871-.08 8.81-.08 143.459 0 286.918-.04 430.383.12 7.704 0 19.628-3.3 19.258 9.47-.333 11.51-11.723 8.36-19.139 8.38-71.726.17-143.459.1-215.191.1ZM588.917 1104.64c-71.218.01-142.436.01-213.66.01-3.767 0-7.553.1-11.308-.16-5.381-.37-10.568-2.27-10.819-8.42-.289-7.05 5.299-8.89 11.126-9.35 3.335-.27 6.7-.14 10.053-.14 143.277 0 286.554 0 429.824.01 2.098 0 4.189.03 6.286 0 6.681-.09 13.826.66 13.688 9.18-.138 8.46-7.372 8.89-13.996 8.89-73.729-.04-147.459-.03-221.194-.02ZM588.452 1035.81H377.034c-2.097 0-4.201.08-6.292-.03-7.327-.37-17.625 1.44-17.305-9.32.314-10.52 10.662-8.67 17.927-8.67 120.81-.09 241.62-.06 362.43-.06 23.49 0 46.987-.21 70.471.12 7.723.11 19.823-3.31 19.509 9.2-.308 12.34-12.439 8.59-20.131 8.62-71.733.23-143.459.13-215.191.14ZM1776.72 323.929c48.81-7.64 94.39 6.094 135.59 32.855 43.73 28.408 73.73 68.33 85.86 120.713 6.62 28.619 9.51 57.72 13.43 86.759 5.82 43.083-9.74 81.211-23.06 119.956-3.11 9.039-1.35 13.466 4.79 19.446 58.37 56.81 116.44 113.939 174.66 170.902 8 7.83 13.79 17.168 18.12 27.301 12.28 28.791-4.08 52.854-25.2 64.279-14.95 8.085-29.41 2.761-41.39-8.829-44.6-43.128-89.16-86.307-133.75-129.448-18.19-17.607-36.55-35.049-54.57-52.853-4.68-4.625-8.26-5.248-14.06-1.61-43.22 27.124-89.65 37.67-141.14 37.448-49.93-.217-95.9-8.289-137.99-35.024-40.62-25.794-66.93-63.757-83.38-108.609-24.91-67.885-18.38-137.086 1.65-203.648 16.94-56.302 55.35-97.814 110.26-122.215 35.12-15.61 71.08-22.359 110.18-17.423Z"/><path fill="#EAEA6C" d="M1777.69 338.14c-22.05 0-37.52-2.309-52.08.4-62.65 11.673-111.62 43.376-142.46 101.847-12.61 23.924-15.54 49.871-21.65 75.328-10.05 41.906-9.13 84.888 1.43 124.956 18.64 70.83 60.43 124.288 133.67 146.1 12.06 3.594 23.86 8.34 36.63 8.263 25.12-.146 50.24-.807 75.36-.967 46.21-.292 85.77-18.459 119.42-48.833 45.12-40.743 58.39-96.491 65.66-154.275 5.65-44.902-2.6-88.583-17.72-130.038-17.21-47.174-48.17-83.228-95.03-104.983-35.64-16.545-72.25-19.847-103.23-17.798ZM2096.74 823.926c-40.32-38.65-79.51-76.218-119.14-114.213-13.6 16.819-26.47 32.747-39.85 49.292 37.87 36.773 75.24 73.063 112.97 109.696 9.27-8.81 17.42-16.557 25.99-24.693-20.57-23.727-43.75-43.701-61.5-68.42 1.33-1.297 2.65-2.601 3.98-3.905 19.93 22.683 39.85 45.373 60.09 68.425 7.98-7.391 12.19-11.297 17.46-16.182ZM2148.88 874.172c-6.23 6.769-10.88 14.707-17.14 20.031-6.75 5.744-12.59 12.169-18.61 18.473-2.91 3.047-8.42 7.048-4.12 11.698 9.08 9.834 17.67 20.61 30.19 26.36 4.65 2.131 9.84 1.991 14.57-.681 15.61-8.778 22.74-27.658 17.12-44.972-4.01-12.322-9.78-23.352-22.01-30.909Z"/><path fill="#3D4E62" d="M2093.5 910.157c8.28-9.001 15.9-17.29 23.71-25.788-2.44-3.581-4.53-6.635-9.34-8.053-7.29 7.977-14.87 16.259-22.72 24.852 2.69 2.901 4.94 5.318 8.35 8.989ZM2115.17 867.926c1.76 4.739 3.93 8.066 8.97 8.861 4.44-4.217 8.95-8.505 13.51-12.843-2.52-4.478-5.49-7.595-10.82-8.594-3.92 4.23-7.86 8.473-11.66 12.576ZM1770.39 774.462c-39.6 4.771-75.68-6.043-109.74-25.552-37.56-21.52-59.73-55.621-76.56-94.672-25.26-58.604-14.73-117.622 1.78-174.502 13.63-46.964 45.99-82.166 91.92-102.438 25.77-11.374 52.03-18.727 80.47-16.386 8.74.725 17.65.706 26.4-.007 27.98-2.271 53.82 4.911 79.33 15.826 44.46 19.02 73.96 53.211 91.27 96.975 10.48 26.512 13.33 55.919 15.73 84.824 5.23 62.79-13.01 117.915-55.05 163.543-31.25 33.917-71.92 50.334-117.87 52.332-9.21.401-18.45.057-27.68.057Z"/><path fill="#84BFAD" d="M1771.99 373.978c-16.17 1.418-32.66-2.424-48.73 1.119-60.73 13.39-103.35 48.898-124.39 108.539-5.99 16.99-8.33 35.437-11.13 53.414-5.34 34.343-3.35 68.762 5.51 102.101 8.68 32.613 27.4 60.341 51.64 83.056 24.28 22.76 54.92 34.801 87.29 38.923 21.81 2.78 44.31.369 66.48-.28 45.36-1.329 82.77-19.299 113.5-53.592 30.33-33.84 37.99-75.696 44.19-118.226 5.6-38.351-2-75.785-14.94-111.216-14.67-40.17-41.03-71.18-81.27-89.112-28.43-12.659-57.43-17.729-88.15-14.726Z"/><path fill="#fff" d="M1774.41 395.611c-32.42.051-63.8 31.583-64.04 64.679-.26 33.669 37.13 73.515 69.31 73.871 33.59.376 66.31-35.469 68.14-72.433 1.67-33.803-46.24-66.161-73.41-66.117ZM1883.18 479.775c6.25 2.004 9.51 7.194 10.29 13.727.57 4.828-2.24 8.708-7.31 7.608-7.03-1.527-9.28-7.888-10.14-14.242-.61-4.371 1.96-7.036 7.16-7.093ZM1623.87 581.125c7.84 8.346 6.03 16.583 4.99 25.489-11.17-4.866-12.63-12.57-4.99-25.489ZM1860.69 496.771c5.59.579 8.72 4.243 9.74 9.65.61 3.193-.85 6.329-4.48 6.1-5.72-.356-8.68-4.618-10.02-9.752-.87-3.384.88-5.635 4.76-5.998Z"/><path fill="#3D4E62" d="M2115.38 1537.35c-1.17-59.46-.11-118.97-.27-178.45-.29-102.79.91-205.58-1.12-308.36-.41-20.5-19.1-40.89-39.75-41.76-9.6-.4-19.25.61-28.88.6-40.25-.05-80.49-.3-120.74-.38-33.02-.07-66.02-.01-98.81-.01-1.22-11.897-.74-20.446 9.84-25.433 6.02-2.844 8.05-9.211 8.55-16.056 1.05-14.643-5.64-26.271-13.58-37.428-15.36-21.596-36.79-35.825-59.15-48.56-67.06-38.192-139.31-63.045-213.62-81.301-40.27-9.891-82.07-13.555-123.49-12.461-67.89 1.794-133.75 15.934-197.7 39.591-54.09 20.012-107.42 41.321-154.45 75.9-15.88 11.673-28.56 26.278-36.7 44.502-6.5 14.554-5 29.725 5.39 35.743 10.13 5.871 10.77 13.74 9.61 25.293-34.12 0-68.401.01-102.672-.01-48.619-.02-97.245-.42-145.858.07-20.049.2-39.169 20.57-39.577 40.54-.433 21.2-.584 42.41-.816 63.62-1.802 160.97.898 321.96-1.633 482.94-1.664 106.13-1.017 212.32 1.231 318.47.521 24.54 17.45 41.58 41.781 42.81 53.216 2.68 106.45 1.86 159.678 1.7 366.526-1.07 733.066 2.53 1099.596-1.82 21.57-.26 42.36-16.6 42.74-35.17.64-31.8 1.44-63.64 1.62-95.41.56-96.37.68-192.77-1.22-289.17Zm-332.55-533.94c-.46 4.6-4 4.78-7.48 4.83-2.93.04-5.87.03-8.81.03h-324.65c-107.8 0-215.6.06-323.4-.16-5.13-.01-12.19 3.53-15.03-4.73-2.85-8.304 3.73-10.479 8.69-14.296 15.36-11.799 30.31-24.159 45.5-36.2 32.6-25.839 70.08-41.029 109.44-52.803 58.45-17.493 117.35-33.841 178.59-33.618 53.04.197 104.34 14.35 155.53 27.988 58.61 15.61 111.87 40.647 157.07 82.178 6.47 5.948 13.86 11.011 21.32 15.68 4.94 3.092 3.64 7.055 3.23 11.101Z"/><path fill="#578291" d="M787.084 1491.31c0 5.17-.006 9.76 0 14.35.094 79.04-.609 158.09.552 237.11.848 57.34-2.555 114.59-1.877 171.91.132 11.12 3.767 18.33 13.601 23.42 8.024 4.15 15.477 6.89 24.934 5.47 16.96-2.56 34.108-3.36 51.344-3.35 310.392.17 620.782-.33 931.172.4 87.98.2 176.07-4.55 263.98 3.61 14.64 1.36 29.47-14.39 29.56-29.52.17-30.12-1.25-60.24-1.46-90.33-.76-106.64.12-213.3.29-319.96.01-4.53 1.29-9.38-2.55-14.51-71.17.82-143.03-.7-216.48 1.89 0 16.6.4 31.45-.13 46.27-.43 12.32-8.47 21.5-18.46 21.77-23.48.64-46.96.87-70.43-.67-8.66-.58-12.96-5.02-13.26-13.67-.44-12.3-1.07-24.61-1.24-36.92-.24-17.31-.1-17.33-16.98-17.32-158.55.05-317.1.14-475.65.17-53.69.01-107.39.14-161.07-.4-10.47-.1-13.9 3.09-13.44 13.7.57 13.11-.75 26.3-.97 39.45-.15 9.9-4.64 14.61-14.56 15.08-20.54.96-41.06 1.38-61.62.63-19.46-.72-25.67-6.7-26.22-26.88-.36-13.45-.06-26.92-.06-41.7H787.084Z"/><path fill="#58ADC4" d="M951.88 1027.14c0 12.2 1.595 23.86-.27 34.92-9.701 57.61-11.171 115.72-11.692 173.92-.238 26.8 9.639 40.86 34.667 49.44 17.218 5.9 35.205 7.52 53.265 8.11 80.51 2.63 161-2.09 241.51-.24 57.01 1.32 113.8 7.2 170.88 7.19 54.98-.02 109.71-4.99 164.59-6.87 84.68-2.9 169.39 2.68 254.08-.11 18.48-.61 36.9-2.25 54.42-8.66 23.81-8.7 32.8-22.47 33.17-48.03 1.02-70.1-6.95-139.56-14.73-209.67H951.88Z"/><path fill="#578291" d="M2053.76 1027.66c4.2 21.79 8.72 43.71 11.39 65.99 4.3 36.02-.08 72.3 3.39 108.2 3.83 39.49-4.95 75.71-21.37 111.01-8.95 19.24-22.39 32.43-42.09 39.41-24.71 8.77-50.09 13.92-76.3 13.99-65.82.19-131.66-.65-197.46.42-166.89 2.72-333.77 5.09-500.68 1.13-60.37-1.43-120.77-2-181.16-2.36-31.42-.18-62.833 2.7-94.298.88-29.059-1.68-57.454-6.05-84.14-18.64-10.586-5-19.534-12.13-25.022-22.47-13.94-26.29-27.716-53.44-28.105-83.69-.597-46.25-.377-92.59 2.574-138.81 1.62-25.41 6.939-50.28 12.163-74.94-29.449-12.01-49.046 2.12-46.623 32.93 1.005 12.75.189 25.44.189 38.16.025 108.76.445 217.52.728 326.28.044 16.02.006 32.04.006 49.6 73.466-.43 145.349.53 217.358-1.75.99-17.68 2.17-34.15 2.73-50.65.41-11.85 6.38-16.68 17.54-16.64 22.65.08 45.3.19 67.95-.12 7.53-.11 11 3.32 13.82 10.1 5.5 13.23 2.84 26.85 3.25 40.29.53 17.37.14 17.4 16.98 17.39 140.1-.04 280.18-.1 420.28-.12 72.14 0 144.28-.1 216.43.34 10.36.06 14.23-2.9 13.49-13.61-.76-10.99-.57-22.12.3-33.11 1.36-17.17 6.09-21.18 22.78-21.19 20.13-.02 40.27.22 60.4-.06 12.24-.17 18.8 4.65 19.13 17.8.42 16.34 1.69 32.67 2.65 50.14h216.51c.3-3.85.82-7.56.82-11.27.12-75.63.07-151.27.29-226.89.17-59.44.55-118.88 1.08-178.31.27-27.07-19.76-40.19-46.98-29.43Z"/><path fill="#3D4E62" d="M939.811 1027.01h-94.545c-.521 3.22-.923 5.68-1.312 8.13-9.212 58.09-9.89 116.61-10.398 175.29-.276 31.91 5.858 61.2 18.385 90.05 8.54 19.67 21.983 31.9 41.744 39.38 33.486 12.68 67.858 14.02 102.864 12.05 67.011-3.77 134.091-4.93 201.171-3.1 163.55 4.46 327.09 4.46 490.64.01 67.08-1.82 134.17-.84 201.17 3.12 37.23 2.21 73.74.45 108.69-14.45 9.82-4.18 19.78-8.77 25.32-18.1 14.99-25.26 27.69-51.9 28.46-81.96.96-37.37.8-74.8-.18-112.17-.86-33.01-6.83-65.54-10.67-98.22h-93.91c-1.3 8.06-.38 15.2.87 22.25 10.93 61.69 13.95 123.97 13.76 186.51-.11 35.5-14.44 55.08-48.23 65.04-18.62 5.49-37.85 7.91-57.13 8.17-113.21 1.48-226.43-1.64-339.66 2.09-128.72 4.24-257.45-5.23-386.22-1.88-33.95.88-67.95 1.98-101.89-.21-25.1-1.61-50.394-3.09-73.3-15.38-17.318-9.3-30.115-23.09-30.542-43.62-1.036-50.12-.182-100.24 6.066-150.11 3.007-23.91 8.608-47.54 8.847-72.89Z"/><path fill="#58ADC4" d="M1828.24 972.431c5.72-12.398 2-20.674-3.26-28.51-10.04-14.968-23.09-26.755-37.95-36.723-24.96-16.742-52.12-29.152-79.38-41.219-85.21-37.702-172.82-65.43-267.21-63.191-55.5 1.317-110.06 7.627-163.27 25.852-60.54 20.73-120.04 43.299-174.99 76.803-16.37 9.98-30.36 22.683-41.06 38.828-5.17 7.792-8.71 16.017-3.72 26.538 5.49-19.987 16.61-23.307 41.35-13.015 21.77-30.972 53.05-49.896 85.88-66.492 19.49-9.853 39.36-18.988 59.35-27.753 93.11-40.857 190.51-52.714 289.36-32.849 95.72 19.236 185.82 54.203 257.42 126.712 17.82-11.151 34.04-6.227 37.48 15.019Z"/><path fill="#58ADC4" d="M1104.76 978.232c5.98-4.974 11.12-9.236 16.24-13.53 33.74-28.294 68.78-54.285 111.29-67.967 38.76-12.474 77.54-24.91 117.47-32.957 35.7-7.194 71.46-16.513 108.22-12.907 46.37 4.555 91.87 14.497 136.71 27.404 51.34 14.777 102.42 30.075 144.72 65.449 13.81 11.558 27.99 22.664 42.22 34.152 6.69-11.978.47-19.287-7.01-26.118-21.95-20.07-47.04-35.317-72.93-49.54-104.73-57.555-215.92-78.425-334.17-62.885-65.56 8.619-125.19 33.764-183.48 63.4-25.95 13.199-50.27 28.994-71.97 48.687-7.44 6.756-13.96 13.925-7.31 26.812Z"/><path fill="#FBBA3A" d="M1026.14 1421.59c-2.09 15.13-2.81 29.42-2.68 43.79.04 5.12 1.83 7.98 7.25 7.96 19.58-.05 39.14-.02 59.3-.02v-51.73h-63.87ZM1860.22 1422.07h-64.08v51.26c20.47 0 40.06-.03 59.66.01 5.53.02 7.04-3.12 7.08-8.13.1-14.36-.59-28.63-2.66-43.14ZM1795.48 1493.64c-.7 15.83.7 31.74-2.14 48.12 13.28 0 24.5.5 35.64-.14 11.09-.65 25.38 5.61 32.42-2.41 6.76-7.7 1.72-21.92 1.75-33.25.05-15.98-.59-16.21-17.3-13.21.43 14.12-7.27 19.04-20.74 20.86-18.11 2.44-18.72-8.41-17.85-21.13-4.17-1.15-7.32-1.97-11.78 1.16ZM1039.98 1492.37c-16.49-2.1-16.54-2.1-16.88 12.97-.21 9.32-.16 18.64-.32 27.96-.07 4.61.44 8.69 6.33 8.69 20.76.03 41.5.01 61.96.01 0-14.63-.26-28.07.09-41.49.25-9.66-4.13-10.68-11.61-7.81-2.84 7.7 4.44 20.49-11.41 20.91-19.2.5-25.11-3.45-28.16-21.24ZM1073.63 964.836c0 11.622-.04 22.575.01 33.535.06 10.669 5.72 11.309 13.64 8.559 1.28-34.136 2.78-43.678-13.65-42.094ZM1799.48 1006.86c11.3 1.65 12.35 1.62 12.77-5.61.71-12.096.19-24.265.19-36.395-15.14.471-17.46 8.397-12.96 42.005Z"/><path fill="#3D4E62" d="M880.104 1852.69c.044 5.4-1.444 9.97-6.643 9.23-9.883-1.41-9.023-10.76-10.574-17.71-1.024-4.58 1.463-9.09 6.587-8.41 10.009 1.35 8.589 10.74 10.63 16.89ZM886.1 1761.18c-.258 5.05-.873 10.33-6.819 10.51-6.769.2-7.692-5.36-7.529-10.73.157-5.08.283-11.27 7.158-11.12 6.857.15 6.035 6.83 7.19 11.34ZM846.24 1850.38c.779-4.12-1.193-10.8 5.111-10.83 7.102-.04 5.419 6.97 5.557 11.56.132 4.3 1.2 10.6-5.5 10.24-6.348-.34-4.615-6.61-5.168-10.97ZM2389.69 2018.54c0 115.96 0 231.92.01 347.88 0 4.24-.46 8.59.29 12.7 4.42 24.58-19.15 43.85-41.02 43.85-42.34 0-84.68.5-127.02.61-87.22.23-174.43.45-261.64.42-33.54-.02-67.08-.67-100.61-1.19-18.22-.28-39.19-17.9-38.93-38.58.87-69.22.1-138.46.41-207.69.3-67.1 1.65-134.21 1.66-201.3.03-90.39-.78-180.78-1.22-271.16-.09-17.4.85-34.75-.21-52.2-1.22-20.36 13.9-34.47 35.08-34.46 137.94.03 275.9.15 413.84.16 28.09.01 56.19-.25 84.27-.47 20.47-.17 35.59 13.78 35.4 34.52-.74 79.83 1.57 159.66-1 239.49-1.37 42.43-.24 84.94-.24 127.42h.93Z"/><path fill="#F2F2F2" d="M1836.55 2035.16c1.67 107.91-3.14 219.63-2.59 331.39.04 7.21-.67 14.51.16 21.63 1.38 11.96 9.53 20.06 18.59 19.87 50.31-1.04 100.61-1.85 150.95-1.34 115.34 1.17 230.7-1.71 346.02 1.43 14.28.39 22.54-3.18 26.65-16.26 1.36-4.33 1.38-9.24 1.32-13.87-2.49-175.47-4.13-350.96-2.94-526.46.43-63.67-2.88-127.39 2.41-191.03 1.8-21.64-6.59-30.26-28.02-30.27-122.07-.04-244.14 0-366.2 0-41.1 0-82.21-.15-123.32.05-18.19.09-26.65 9.5-25.75 27.69.62 12.7 2.87 25.22 2.85 38.04-.23 111.75-.13 223.51-.13 339.13Z"/><path fill="#ACEAD5" d="M2357.55 1665.65c-.02-1.7-.04-3.4-.19-5.09-.63-7.16-4.09-9.96-11.57-9.95-80.08.24-160.16.15-240.24.15v.13c-78.4 0-156.8.04-235.2-.02-15.58-.01-16.54.61-16.72 16.12-.57 50.52-1.04 101.06-1.42 151.57-1.09 143.97-.46 287.97-.51 431.95-.01 22.52 2.19 44.9 3.52 67.33.66 11.17 5.91 12.27 14.01 12.52 27.65.85 55.29 2.41 82.93 2.5 102.3.29 204.61.29 306.91 0 27.64-.09 55.28-1.68 82.92-2.48 8.27-.24 13.89-1.47 13.86-12.63-.05-16.48 3.2-32.97 3.27-49.46.87-200.88.53-401.76-1.57-602.64Z"/><path fill="#3D4E62" d="M2105.05 2345.9c14.92-.22 28.32 14.49 28.33 31.08 0 12.04-13.82 23.81-27.88 23.75-14.1-.05-27.77-11.86-27.69-23.93.11-16.12 12.95-30.69 27.24-30.9Zm.92 10.43c-6.86-.26-16.87 10.66-16.93 19.23-.08 10.8 8.87 13.35 16.2 13.58 7.48.24 16.21-2.51 16.97-12.85.6-8.06-9.37-19.69-16.24-19.96Z"/><path fill="#FE5639" d="M2193.61 1827.65c-6.36 1.28-9.92 3.69-11.9 8.5-29.56 71.77-67.7 139.46-97.94 210.9-12.73 30.07-23.61 60.85-30.23 93.01-1.04 5.04-1.85 10.6-6.59 13.24-8.53 4.73-12.1-.9-14.47-8.21-8.71-26.95-9.79-55.06-12.23-82.95-2.15-24.61-6.96-48.65-13.64-72.68-5.45 2.37-5.25 7.68-6.53 11.71-24.03 76-50.04 151.39-67.9 229.27-3.71 16.15-8.95 31.86-17.59 46.16-2.73 4.53-5.93 9.02-11.96 6.58-6.37-2.58-4.99-8.27-3.31-13.1 27.22-78.54 43.83-160.31 71.52-238.74 9.06-25.66 19.77-50.46 30.46-75.36 1.79-4.15 4-7.82 9.09-7.16 5.77.74 6.4 5.53 7.49 10.27 10.57 45.9 21.53 91.72 22.72 139.19.05 2-.02 4.36 3.43 5.86 3.32-9.95 6.24-19.95 9.97-29.63 33.11-86.04 73.37-168.51 121.29-247.07 6.29-10.32 6.3-21.81 9.39-32.7 1.15-4.08 2.13-8.21 3.16-12.33.97-3.92 2.56-7.53 7.1-7.74 4.91-.22 7.89 3.12 9.03 7.45 1.93 7.36 3.69 14.83 4.69 22.37 3.82 28.96 7.31 57.97 12.02 87.33 14.31-41.41 34.42-80.55 45.47-123.81-5.08-1.57-7.88 2.74-11.64 3.69-5.46 1.37-10.25.87-13.03-4.48-2.5-4.79-1.04-9.75 3.23-12.37 13.71-8.39 25.95-18.46 37.7-29.48 5.98-5.61 12.55-2.16 14.03 5.69 3.84 20.41 6.93 40.99 10.09 61.53.93 6.06-.86 11.62-7.62 12.49-6.86.88-9.3-4.44-10.42-10.29-1.09-5.66-2.01-11.35-5.56-17.5-2.41 7.76-4.47 15.65-7.28 23.25-16.71 45.34-35.26 89.97-50.37 135.93-1.84 5.59-5.19 10.35-11.83 9.01-7.55-1.53-8.92-7.91-9.51-14.64-2.58-29.6-5.24-59.2-7.99-88.78-.43-4.6-1.47-9.14-2.34-14.41Z"/><path fill="#77818A" d="M2154.15 2213.85c39.98 0 75.6-.01 111.21.01 2.93 0 5.9-.08 8.78.35 5.08.76 8.79 3.46 8.6 9.11-.16 4.98-3.62 7.38-8.18 8.16-1.64.29-3.34.36-5.01.34-72.08-1.11-144.08 1.94-216.09 4.63-5.38.21-10.87-.45-16.19-1.42-4.03-.73-6.67-3.77-6.45-8.19.22-4.4 3.15-6.8 7.19-7.65 2.44-.52 4.99-.61 7.5-.72 37.66-1.62 75.33-3.21 108.64-4.62ZM2162.54 2269.38c-38.01 1.18-72.29 3.95-106.66 2.14-3.76-.2-7.53-.39-11.28-.71-4.64-.41-8.41-2.44-8.38-7.6.03-5.06 3.84-7.41 8.31-7.97 5.39-.67 10.85-.98 16.29-1.09 64.88-1.35 129.67-6.16 194.62-5.55 5.02.05 10.05.13 15.07.39 5.57.29 10.26 2.58 10.26 8.82 0 6.18-4.67 8.83-10.18 9.05-9.62.38-19.25.28-28.89.34-27.64.19-55.3-.47-79.16 2.18Z"/><path fill="#3D4E62" d="M1993.6 1769.36c-20.52 0-41.05.32-61.56-.19-6.19-.15-15.24.58-15-9.27.21-8.93 8.56-7.99 14.53-8.22 40.19-1.52 80.39-1.75 120.56.95 1.66.11 3.36.31 4.94.8 4.7 1.45 11.01 1.9 10.72 8.57-.29 6.6-6.58 7.53-11.37 7.62-20.94.38-41.88.16-62.82.16v-.42ZM2009.95 1732.58c-19.27-.7-38.57-1.37-57.77 1.01-4.17.52-8.37.72-12.36-1.13-3.36-1.54-5.31-4.08-5.25-7.91.06-3.31 1.92-5.61 4.7-6.97 1.85-.91 3.95-1.63 5.98-1.78 36.34-2.88 72.72-6.49 108.97.36 6.27 1.19 17.02.21 15.65 10.26-1.15 8.4-10.94 5.79-17.19 6.01-14.23.49-28.48.15-42.73.15Z"/></svg>