<svg xmlns="http://www.w3.org/2000/svg" width="2600" height="2600" fill="none"><path fill="url(#a)" d="M2377.46 1674.15c-228.1 537.04-835.7 837.89-1362.61 756.74-85.738-13.21-320.793-52.54-528.903-238.12C85.324 1835.52-.353 1128.12 322.818 629.597 558.03 266.76 979.672 61.081 1380.31 71.368c86.3 2.216 417.03 15.875 707.69 255.526 42.69 35.2 136.85 118.845 221.71 251.542 199.27 311.598 216.4 745.724 67.75 1095.714Z" opacity=".3"/><g opacity=".3"><path fill="url(#b)" d="M987.761 457.047c-4.326-.293-7.819-3.814-7.981-8.24a344.152 344.152 0 0 1 .178-29.249 8.577 8.577 0 0 1 8.982-8.151l.167.011a8.575 8.575 0 0 1 7.983 8.972 327.552 327.552 0 0 0-.17 27.785 8.575 8.575 0 0 1-9.159 8.872Zm5.603-74.506a8.577 8.577 0 0 1-7.859-10.139 345.54 345.54 0 0 1 6.602-28.473c1.265-4.566 5.971-7.231 10.553-5.977a8.582 8.582 0 0 1 5.98 10.556 325.674 325.674 0 0 0-6.28 27.058 8.573 8.573 0 0 1-8.996 6.975Zm21.866-71.419a8.602 8.602 0 0 1-2.83-.693 8.572 8.572 0 0 1-4.45-11.285 341.888 341.888 0 0 1 12.79-26.297c2.26-4.166 7.46-5.71 11.63-3.463 4.16 2.253 5.71 7.459 3.46 11.624a325.432 325.432 0 0 0-12.15 24.971c-1.48 3.419-4.93 5.381-8.45 5.143Zm37.3-64.749a8.546 8.546 0 0 1-4.5-1.655c-3.81-2.81-4.62-8.181-1.81-11.993a343.021 343.021 0 0 1 18.35-22.778 8.58 8.58 0 0 1 12.1-.781 8.572 8.572 0 0 1 .78 12.104 327.466 327.466 0 0 0-17.43 21.638 8.575 8.575 0 0 1-7.49 3.465Zm50.8-54.805a8.535 8.535 0 0 1-3.25-.883 8.499 8.499 0 0 1-2.66-2.073 8.566 8.566 0 0 1 .89-12.095 349.663 349.663 0 0 1 22.93-18.14 8.572 8.572 0 0 1 11.98 1.91c2.78 3.835 1.92 9.197-1.91 11.979a327.912 327.912 0 0 0-21.8 17.239 8.539 8.539 0 0 1-6.18 2.063Zm61.66-42.2a8.583 8.583 0 0 1-5.04-2.072 8.582 8.582 0 0 1-2.78-4.689 8.624 8.624 0 0 1 .61-5.414 8.634 8.634 0 0 1 3.75-3.955 345.015 345.015 0 0 1 26.38-12.617 8.569 8.569 0 0 1 11.25 4.521c1.86 4.353-.16 9.394-4.51 11.255-8.52 3.64-16.88 7.64-25.07 11.987-1.41.753-3 1.094-4.59.984Zm314.93.88a8.51 8.51 0 0 1-3.48-1.008 323.116 323.116 0 0 0-25.01-12.111c-4.34-1.879-6.34-6.927-4.46-11.272 1.87-4.35 6.92-6.351 11.27-4.471a340.196 340.196 0 0 1 26.33 12.751 8.586 8.586 0 0 1 3.49 11.619 8.665 8.665 0 0 1-3.41 3.444 8.59 8.59 0 0 1-4.73 1.048ZM1234.41 121.9a8.579 8.579 0 0 1-7.69-6.318 8.572 8.572 0 0 1 6.03-10.52 341.79 341.79 0 0 1 28.52-6.42c4.67-.82 9.13 2.253 9.97 6.917.84 4.661-2.26 9.121-6.92 9.964a323.745 323.745 0 0 0-27.08 6.095c-.92.249-1.88.344-2.83.282Zm176.16.553a8.632 8.632 0 0 1-1.7-.287 328.67 328.67 0 0 0-27.09-6.225c-4.65-.866-7.73-5.342-6.86-9.998.86-4.656 5.34-7.754 9.99-6.867 9.59 1.782 19.1 3.967 28.51 6.548 4.56 1.257 7.25 5.979 5.99 10.544-1.1 4-4.85 6.554-8.84 6.285Zm-102.33-11.825c-4.32-.293-7.81-3.803-7.98-8.224a8.58 8.58 0 0 1 8.24-8.904c9.74-.375 19.5-.334 29.24.121a8.573 8.573 0 0 1 8.16 8.965 8.57 8.57 0 0 1-8.97 8.166 326.37 326.37 0 0 0-27.77-.109c-.31.01-.62.005-.92-.015Z"/><path fill="url(#c)" d="M1530.14 183.492a8.556 8.556 0 0 1-4.78-1.861 331.177 331.177 0 0 0-10.59-8.142c-3.82-2.807-4.63-8.177-1.83-11.99a8.577 8.577 0 0 1 12-1.82c3.77 2.779 7.49 5.634 11.15 8.564 3.69 2.96 4.29 8.36 1.33 12.054a8.513 8.513 0 0 1-3.25 2.494 8.56 8.56 0 0 1-4.03.701Z"/></g><g opacity=".3"><path fill="url(#d)" d="M1651.85 419.759a8.575 8.575 0 0 1-7.95-7.775c-.4-4.436-.9-8.864-1.49-13.28-.63-4.696 2.67-9.009 7.37-9.634a8.548 8.548 0 0 1 3.34.21 8.61 8.61 0 0 1 3.01 1.475 8.717 8.717 0 0 1 2.21 2.514c.56.976.93 2.053 1.07 3.17.62 4.65 1.15 9.312 1.57 13.984a8.577 8.577 0 0 1-7.76 9.323c-.46.041-.92.044-1.37.013Z"/><path fill="url(#e)" d="M1296.98 783.72c-3.94-.267-7.88-.602-11.84-1.004a8.575 8.575 0 0 1-7.66-9.401c.47-4.713 4.71-8.159 9.39-7.667 9.08.926 18.18 1.477 27.3 1.653 4.74.096 8.51 3.997 8.42 8.732a8.58 8.58 0 0 1-8.74 8.418c-5.63-.107-11.25-.35-16.87-.731Zm-56.47-8.653a8.53 8.53 0 0 1-1.44-.222 344.142 344.142 0 0 1-27.67-7.923 8.576 8.576 0 0 1-5.44-10.841c1.5-4.496 6.36-6.939 10.85-5.433a327.12 327.12 0 0 0 26.29 7.527c4.6 1.112 7.43 5.746 6.32 10.347a8.588 8.588 0 0 1-8.91 6.545Zm118.42 7.093a8.578 8.578 0 0 1-.43-17.074 323.788 323.788 0 0 0 26.98-4.373 8.585 8.585 0 0 1 10.13 6.67c.95 4.641-2.03 9.176-6.67 10.132-9.4 1.933-18.88 3.47-28.41 4.606-.53.062-1.07.075-1.6.039Zm-187.57-32.125a8.523 8.523 0 0 1-3.21-.87 342.16 342.16 0 0 1-25.25-13.816 8.567 8.567 0 0 1-2.91-11.772 8.566 8.566 0 0 1 11.77-2.912 326.84 326.84 0 0 0 23.98 13.119c4.25 2.094 5.99 7.239 3.89 11.486a8.58 8.58 0 0 1-8.27 4.765Zm259.12 15.417a8.55 8.55 0 0 1-4.6-1.725 8.474 8.474 0 0 1-2.9-3.972c-1.59-4.465.75-9.367 5.22-10.948a326.21 326.21 0 0 0 25.35-10.195c4.31-1.951 9.4-.034 11.35 4.285 1.95 4.315.03 9.394-4.29 11.344a341.273 341.273 0 0 1-26.69 10.736c-1.1.391-2.27.553-3.44.475Zm66.16-32.005a8.539 8.539 0 0 1-3.82-1.194 8.57 8.57 0 0 1-.16-14.627 329.435 329.435 0 0 0 22.52-15.487 8.569 8.569 0 0 1 12.01 1.707c2.84 3.789 2.08 9.163-1.71 12.009a346.796 346.796 0 0 1-23.7 16.297 8.547 8.547 0 0 1-5.14 1.295Zm57.61-45.667a8.527 8.527 0 0 1-5.51-2.526c-3.33-3.365-3.31-8.796.06-12.128a330.292 330.292 0 0 0 18.62-20.023 8.49 8.49 0 0 1 2.63-2.071 8.566 8.566 0 0 1 9.46 1.125c3.6 3.078 4.03 8.489.95 12.092a347.431 347.431 0 0 1-19.59 21.071 8.641 8.641 0 0 1-3.05 1.944c-1.14.424-2.36.6-3.57.516Zm46.27-57.14a8.514 8.514 0 0 1-4.04-1.339c-3.99-2.556-5.14-7.86-2.59-11.847a325.56 325.56 0 0 0 13.78-23.612c2.21-4.188 7.4-5.79 11.58-3.583 4.19 2.211 5.8 7.401 3.59 11.589a344.824 344.824 0 0 1-14.51 24.866 8.587 8.587 0 0 1-3.36 3.032 8.6 8.6 0 0 1-4.45.894Zm32.62-65.93a8.648 8.648 0 0 1-2.35-.498c-4.45-1.615-6.75-6.536-5.14-10.986a325.193 325.193 0 0 0 8.23-26.056c1.23-4.574 5.96-7.272 10.51-6.044 4.58 1.234 7.28 5.943 6.05 10.517a341.75 341.75 0 0 1-8.66 27.431 8.59 8.59 0 0 1-8.64 5.636Zm17.32-71.435a8.568 8.568 0 0 1-7.93-9.657 335.77 335.77 0 0 0 1.97-20.024c.16-2.41.3-4.818.41-7.218.22-4.733 4.23-8.394 8.96-8.173 4.79.126 8.39 4.228 8.17 8.958a347.97 347.97 0 0 1-2.5 28.657 8.582 8.582 0 0 1-9.08 7.457Z"/><path fill="url(#f)" d="M1109.26 710.256a8.549 8.549 0 0 1-4.81-1.887c-3.64-2.95-7.22-5.975-10.74-9.072-3.56-3.129-3.91-8.549-.78-12.104 3.13-3.555 8.55-3.906 12.1-.775 3.35 2.941 6.75 5.814 10.21 8.617 3.68 2.976 4.25 8.377 1.28 12.06a8.619 8.619 0 0 1-3.24 2.468 8.588 8.588 0 0 1-4.02.693Z"/></g><path fill="url(#g)" d="M1129.52 609.142a3.996 3.996 0 0 0 4.39 1.529l46.78-13.716c17.05 15.105 36.63 27.594 58.21 36.705l7.93 48.15a3.96 3.96 0 0 0 1.11 2.176c.59.592 1.35.986 2.17 1.126l57.63 9.831a4.004 4.004 0 0 0 4.18-2.029l23.38-42.81c23.38-1.442 45.98-6.736 67.06-15.336l39.61 28.451a4.007 4.007 0 0 0 4.65.012l47.69-33.879a3.975 3.975 0 0 0 1.46-1.955c.28-.789.3-1.643.06-2.445l-13.68-46.865c15.07-17.084 27.54-36.703 36.63-58.329l48.06-7.94a4 4 0 0 0 3.29-3.284l9.81-57.743a4.04 4.04 0 0 0-.34-2.421 3.995 3.995 0 0 0-1.68-1.771l-42.73-23.426a212.904 212.904 0 0 0-15.31-67.187l28.4-39.688c.49-.679.75-1.492.75-2.327 0-.834-.26-1.649-.74-2.33l-33.81-47.781a3.996 3.996 0 0 0-4.39-1.53l-46.78 13.716c-17.05-15.106-36.63-27.595-58.21-36.705l-7.93-48.151a3.96 3.96 0 0 0-1.11-2.177 3.996 3.996 0 0 0-2.17-1.126l-57.63-9.83c-.82-.14-1.66-.02-2.41.344-.75.364-1.37.953-1.77 1.686l-23.38 42.81c-23.38 1.441-45.98 6.735-67.06 15.336l-39.61-28.451a4.007 4.007 0 0 0-4.65-.012l-47.69 33.879a3.98 3.98 0 0 0-1.46 1.955 3.93 3.93 0 0 0-.06 2.445l13.68 46.865c-15.07 17.084-27.54 36.703-36.63 58.329l-48.06 7.94a4 4 0 0 0-3.29 3.285l-9.81 57.741c-.14.823-.02 1.67.34 2.421.36.752.95 1.372 1.68 1.773l42.73 23.425a212.91 212.91 0 0 0 15.31 67.187l-28.4 39.687a4.042 4.042 0 0 0-.75 2.327c0 .835.26 1.65.74 2.331l33.81 47.782Z"/><path fill="#fff" d="M1316.97 495.864c-28.69-1.961-52.46-24.932-54.79-54.686-2.55-32.708 21.75-61.41 54.19-63.989 15.71-1.252 30.96 3.747 42.94 14.066 11.99 10.318 19.27 24.727 20.51 40.571 2.55 32.707-21.75 61.41-54.18 63.989-2.93.231-5.82.243-8.67.049Zm7.19-104.877c-2.24-.152-4.48-.14-6.71.038-24.87 1.975-43.5 23.987-41.55 49.06 1.96 25.076 23.78 43.879 48.65 41.893 24.87-1.975 43.5-23.986 41.55-49.059-.95-12.15-6.54-23.196-15.73-31.109-7.46-6.43-16.59-10.164-26.21-10.823Z" opacity=".56"/><path fill="#fff" d="M1312.98 579.667c-4.94-.335-9.86-.919-14.74-1.75a145.62 145.62 0 0 1-26.87-7.264l-.29-.111c-.28-.105-.56-.212-.83-.321-.54-.207-1.08-.422-1.62-.637-.42-.167-.8-.415-1.12-.729a3.52 3.52 0 0 1-.76-1.103 3.454 3.454 0 0 1-.27-1.308c-.01-.45.08-.896.24-1.314.17-.418.42-.799.73-1.12.32-.322.69-.579 1.11-.756.41-.177.85-.271 1.3-.276.45-.006.9.078 1.32.245a138.167 138.167 0 0 0 28.21 7.936c48.07 8.193 94.66-9.74 125.2-43.452 16.99-18.749 29.02-42.382 33.57-69.121.79-4.657 1.35-9.351 1.67-14.065 2.13-31.505-6.57-62.526-25.08-88.631-21.26-29.987-52.93-49.901-89.17-56.07-74.84-12.734-146.03 37.767-158.76 112.573-.79 4.597-1.34 9.231-1.65 13.885-1.36 20.096 1.69 40.267 9.01 59.052.16.42.24.867.23 1.317 0 .45-.1.894-.28 1.305-.19.412-.45.785-.77 1.096-.33.311-.71.555-1.13.718a3.425 3.425 0 0 1-3.72-.822 3.577 3.577 0 0 1-.72-1.129c-7.68-19.723-10.89-40.9-9.46-61.998.33-4.883.91-9.747 1.73-14.573 13.37-78.54 88.16-131.547 166.67-118.182 38.05 6.476 71.29 27.382 93.61 58.863 19.44 27.405 28.57 59.972 26.33 93.046-.34 4.947-.92 9.875-1.75 14.764-6.48 38.045-27.39 71.29-58.87 93.611-27.41 19.438-59.99 28.564-93.07 26.321Z" opacity=".56"/><g opacity=".3"><path fill="url(#h)" d="M689.173 667.664a5.3 5.3 0 0 1-4.81-4.142 226.296 226.296 0 0 1-2.533-13.315 5.3 5.3 0 0 1 4.399-6.064c2.891-.473 5.603 1.51 6.063 4.398a217.9 217.9 0 0 0 2.414 12.696 5.3 5.3 0 0 1-4.027 6.316 5.364 5.364 0 0 1-1.506.111Z"/><path fill="url(#i)" d="M684.056 627.238a5.294 5.294 0 0 1-4.93-5.104c-.319-9.404-.06-18.818.775-28.189.263-2.917 2.982-4.946 5.747-4.811a5.298 5.298 0 0 1 4.808 5.744c-.14 1.556-.263 3.114-.369 4.673a220.231 220.231 0 0 0-.376 22.222 5.298 5.298 0 0 1-5.112 5.476c-.181.004-.362 0-.543-.011Zm4.879-54.784a5.5 5.5 0 0 1-.755-.102 5.299 5.299 0 0 1-4.074-6.291 229.364 229.364 0 0 1 7.573-27.158c.957-2.766 3.988-4.221 6.739-3.272a5.315 5.315 0 0 1 3.032 2.692 5.307 5.307 0 0 1 .239 4.047 219.521 219.521 0 0 0-7.223 25.906 5.295 5.295 0 0 1-5.531 4.178Zm18.02-51.964a5.306 5.306 0 0 1-4.933-5.117 5.29 5.29 0 0 1 .543-2.512 228.5 228.5 0 0 1 14.025-24.481 5.285 5.285 0 0 1 5.423-2.29 5.3 5.3 0 0 1 3.427 8.116 217.467 217.467 0 0 0-13.372 23.343 5.31 5.31 0 0 1-5.113 2.941Zm30.243-45.946a5.297 5.297 0 0 1-3.072-1.25 5.304 5.304 0 0 1-.596-7.471 229.672 229.672 0 0 1 19.582-20.298 5.299 5.299 0 0 1 7.155 7.815 218.585 218.585 0 0 0-18.673 19.354 5.299 5.299 0 0 1-4.396 1.85Zm40.547-37.165a5.298 5.298 0 0 1-2.719-9.6 231.89 231.89 0 0 1 23.913-14.924 5.306 5.306 0 0 1 4.033-.425 5.303 5.303 0 0 1 1.83.964c.54.439.988.98 1.319 1.592a5.294 5.294 0 0 1-2.13 7.181 220.63 220.63 0 0 0-22.814 14.242 5.286 5.286 0 0 1-3.432.97Zm48.332-26.194a5.305 5.305 0 0 1-4.576-3.354 5.298 5.298 0 0 1 2.998-6.863 227.844 227.844 0 0 1 26.826-8.64 5.299 5.299 0 0 1 2.617 10.267 217.31 217.31 0 0 0-25.575 8.237 5.26 5.26 0 0 1-2.29.353Zm53.256-13.578a5.295 5.295 0 0 1-.299-10.54 229.805 229.805 0 0 1 28.141-1.795c2.932.044 5.304 2.367 5.308 5.291a5.297 5.297 0 0 1-5.285 5.309c-8.973.015-17.936.585-26.838 1.707-.348.043-.692.05-1.027.028Zm82.099 4.891a5.26 5.26 0 0 1-.924-.146 219.655 219.655 0 0 0-22.973-4.408 135.582 135.582 0 0 0-3.479-.454 5.3 5.3 0 0 1-4.469-3.831 5.292 5.292 0 0 1-.158-2.061c.345-2.911 3.011-5.064 5.89-4.63 1.229.151 2.455.306 3.685.483a230.452 230.452 0 0 1 24.057 4.622 5.3 5.3 0 0 1 3.948 5.957 5.298 5.298 0 0 1-5.577 4.468Z"/></g><g opacity=".3"><path fill="url(#j)" d="M893.338 847.65a5.3 5.3 0 0 1-3.175-9.231 5.292 5.292 0 0 1 3.825-1.344c8.81.483 17.642.432 26.447-.151 2.902-.166 5.445 2.012 5.638 4.935a5.298 5.298 0 0 1-4.935 5.638c-9.231.608-18.491.661-27.728.158l-.072-.005Zm-26.921-3.105a5.205 5.205 0 0 1-.571-.07 231.58 231.58 0 0 1-26.978-6.448 5.284 5.284 0 0 1-3.132-2.572 5.297 5.297 0 0 1-.397-4.034c.849-2.805 3.822-4.371 6.606-3.534a221.388 221.388 0 0 0 25.743 6.157 5.29 5.29 0 0 1 4.294 6.134 5.29 5.29 0 0 1-5.565 4.367Zm80.888-.496a5.298 5.298 0 0 1-4.928-4.962 5.301 5.301 0 0 1 1.103-3.571 5.301 5.301 0 0 1 3.187-1.953 219.787 219.787 0 0 0 25.637-6.548c2.795-.884 5.768.64 6.66 3.428a5.297 5.297 0 0 1-3.424 6.663 229.926 229.926 0 0 1-26.876 6.859 5.297 5.297 0 0 1-1.359.084Zm-132.662-15.26a5.327 5.327 0 0 1-1.789-.443 227.03 227.03 0 0 1-24.636-12.781 5.301 5.301 0 0 1-2.416-3.256 5.284 5.284 0 0 1 .594-4.012 5.31 5.31 0 0 1 7.266-1.819 217.725 217.725 0 0 0 23.489 12.185 5.301 5.301 0 0 1 2.694 6.99 5.304 5.304 0 0 1-5.202 3.136Zm184.153-1.279a5.298 5.298 0 0 1-1.867-10.097 217.422 217.422 0 0 0 23.301-12.513c1.2-.714 2.63-.93 3.98-.6a5.294 5.294 0 0 1 3.25 2.363c.73 1.184.97 2.609.66 3.966a5.28 5.28 0 0 1-2.32 3.287 229.908 229.908 0 0 1-24.43 13.12 5.306 5.306 0 0 1-2.574.474Zm46.024-28.409a5.258 5.258 0 0 1-2.92-1.124 5.3 5.3 0 0 1-1.78-2.578 5.305 5.305 0 0 1-.01-3.131 5.248 5.248 0 0 1 1.76-2.59 222.523 222.523 0 0 0 19.64-17.728 5.315 5.315 0 0 1 5.77-1.202 5.25 5.25 0 0 1 1.72 1.134c.5.487.9 1.067 1.17 1.706.27.64.41 1.328.42 2.023.01.695-.12 1.385-.39 2.03a5.243 5.243 0 0 1-1.13 1.727 230.395 230.395 0 0 1-20.59 18.587 5.269 5.269 0 0 1-3.66 1.146Zm37.89-38.62a5.213 5.213 0 0 1-2.86-1.086 5.204 5.204 0 0 1-1.36-1.554 5.258 5.258 0 0 1-.67-1.958 5.35 5.35 0 0 1 1.05-3.916 215.667 215.667 0 0 0 14.82-21.923 5.297 5.297 0 0 1 9.12 5.387 227.243 227.243 0 0 1-15.53 22.995 5.278 5.278 0 0 1-2.03 1.601c-.79.358-1.67.514-2.54.454Z"/><path fill="url(#k)" d="M768.019 800.841a5.275 5.275 0 0 1-2.896-1.109 231.537 231.537 0 0 1-10.43-8.64 5.306 5.306 0 0 1-.479-7.478 5.31 5.31 0 0 1 7.479-.478 220.73 220.73 0 0 0 9.947 8.244 5.296 5.296 0 0 1-3.621 9.461Z"/></g><path fill="url(#l)" d="M777.809 728.705a2.678 2.678 0 0 0 2.936 1.021l31.274-9.153a141.981 141.981 0 0 0 38.923 24.495l5.298 32.13c.091.55.35 1.057.743 1.453.393.395.9.657 1.449.751l38.531 6.56a2.68 2.68 0 0 0 2.799-1.354l15.632-28.568a141.92 141.92 0 0 0 44.835-10.234l26.484 18.985a2.68 2.68 0 0 0 3.109.008l31.888-22.607c.45-.323.79-.779.98-1.305a2.75 2.75 0 0 0 .04-1.631l-9.16-31.274a142.013 142.013 0 0 0 24.5-38.923l32.13-5.298c.55-.091 1.06-.35 1.45-.743.4-.393.66-.9.75-1.449l6.56-38.532c.1-.55.02-1.115-.23-1.616a2.64 2.64 0 0 0-1.12-1.182l-28.57-15.632a142.05 142.05 0 0 0-10.23-44.835l18.98-26.485c.33-.452.5-.995.5-1.552s-.17-1.101-.49-1.556l-22.61-31.885a2.671 2.671 0 0 0-2.93-1.021l-31.28 9.153a141.95 141.95 0 0 0-38.922-24.494l-5.299-32.131a2.679 2.679 0 0 0-2.192-2.204l-38.532-6.559a2.674 2.674 0 0 0-2.798 1.354l-15.632 28.568a141.92 141.92 0 0 0-44.835 10.234l-26.483-18.986a2.68 2.68 0 0 0-3.109-.008l-31.884 22.607a2.68 2.68 0 0 0-1.021 2.936l9.152 31.274a141.927 141.927 0 0 0-24.493 38.923l-32.131 5.298a2.677 2.677 0 0 0-2.203 2.193l-6.56 38.531a2.68 2.68 0 0 0 1.354 2.799l28.567 15.632a141.953 141.953 0 0 0 10.234 44.835l-18.986 26.484a2.684 2.684 0 0 0-.008 3.108l22.61 31.885Z"/><path fill="#fff" d="M904.209 654.907c-8.51-.584-16.581-3.899-23.185-9.61-8.125-7.024-13.061-16.834-13.899-27.619-1.734-22.256 14.741-41.796 36.73-43.556 22.019-1.717 41.287 14.934 43.018 37.195.841 10.786-2.518 21.257-9.455 29.481-6.938 8.229-16.625 13.229-27.279 14.075a40.335 40.335 0 0 1-5.93.034Zm4.796-70.134a29.397 29.397 0 0 0-4.321.024c-16.173 1.295-28.292 15.667-27.017 32.043.618 7.93 4.247 15.15 10.224 20.314 5.979 5.169 13.583 7.66 21.419 7.046 7.834-.626 14.962-4.303 20.064-10.352 5.105-6.054 7.575-13.756 6.957-21.691-1.159-14.896-13.016-26.401-27.326-27.384Z" opacity=".56"/><path fill="#fff" d="M900.841 713.772a99.706 99.706 0 0 1-29.583-6.628l-.846-.338a5.284 5.284 0 0 1-2.508-2.099 5.326 5.326 0 0 1-.431-4.802 5.279 5.279 0 0 1 6.865-2.95 88.885 88.885 0 0 0 18.225 5.153h.002c.343.059.688.114 1.028.168 14.791 2.385 29.613.973 43.374-3.908a89.288 89.288 0 0 0 21.299-10.991l.163-.114c.165-.119.331-.232.494-.351 19.375-13.808 32.242-34.371 36.228-57.902a90.947 90.947 0 0 0 1.081-9.132c1.377-20.457-4.244-40.601-16.203-57.556-13.739-19.472-34.201-32.399-57.613-36.403-23.401-3.995-46.981 1.392-66.358 15.194-19.374 13.808-32.242 34.37-36.228 57.902a90.039 90.039 0 0 0-1.065 9.013c-.877 13.052 1.094 26.148 5.824 38.346a5.318 5.318 0 0 1-.086 4.061 5.298 5.298 0 0 1-2.918 2.809 5.276 5.276 0 0 1-6.839-3.022c-5.29-13.648-7.499-28.303-6.52-42.901.227-3.38.624-6.747 1.19-10.087 4.461-26.33 18.855-49.334 40.535-64.782 21.677-15.444 48.03-21.503 74.236-17.001 26.197 4.48 49.088 18.944 64.457 40.734 13.386 18.964 19.666 41.501 18.126 64.389a103.01 103.01 0 0 1-1.2 10.214c-8.641 50.971-54.463 86.407-104.729 82.984Z" opacity=".56"/><path fill="url(#m)" d="M1187.87 1943 1139 2280h567l-73.85-337h-444.28Z"/><path fill="url(#n)" d="M218 850.758V1853.06c0 82.45 65.651 149.88 148.009 152 365.791 9.44 1645.151 32.34 1993.361 27.2 59.84-.89 108.33-48.82 110.05-108.69 6.72-232.85 17.62-792.77-22.73-1052.725-8.5-54.743-54.67-95.678-110-97.449-306.48-9.813-1662.688-40.972-2010.733-33.149C265.93 741.596 218 790.669 218 850.758Z"/><path fill="url(#o)" d="M302 845.861v951.159c0 48.09 38.619 87.27 86.723 87.99l1942.067 23.98c47.69.71 86.78-37.64 86.96-85.31l3.25-942.665c.13-34.086-27.04-62.017-61.14-62.846L371.547 778.02C333.414 777.094 302 807.737 302 845.861Z"/><path fill="#fff" d="M2419.39 1960h-.04l-2116.72-36.57a2.682 2.682 0 0 1-1.878-.83 2.74 2.74 0 0 1-.752-1.93c.025-1.5 1.26-2.65 2.722-2.67l2116.718 36.57c.69.03 1.35.34 1.82.85.48.51.75 1.18.74 1.89-.01.7-.28 1.38-.77 1.88-.48.5-1.14.79-1.84.81Z" opacity=".65"/><path fill="url(#p)" d="M1827.25 2373H998.745c-22.508 0-39.411-16.07-35.059-33.32l10.631-42.16c3.197-12.68 17.108-21.99 33.633-22.51l798.71-24.99c17.26-.54 32.54 8.65 36.3 21.83l19.17 67.14c4.98 17.45-12.01 34.01-34.88 34.01Z"/><path fill="#fff" d="M1447.23 2286.8c-.7-.02-1.36-.3-1.84-.8a2.634 2.634 0 0 1-.03-3.69c.48-.49 1.14-.79 1.83-.82l34.09-.49c1.42.01 2.7 1.15 2.72 2.61 0 .35-.06.7-.19 1.02-.13.33-.32.62-.57.87a2.692 2.692 0 0 1-1.88.81l-34.09.49h-.04ZM998.687 2349c-.388 0-.772-.08-1.125-.24-.353-.16-.667-.4-.919-.69a2.597 2.597 0 0 1-.543-1 2.63 2.63 0 0 1-.066-1.14l4.866-30.12c1.25-7.83 5.26-14.96 11.31-20.15a34.16 34.16 0 0 1 21.79-8.19l361.53-5.23h.04c.69.02 1.36.3 1.84.79.49.5.76 1.16.77 1.84 0 .69-.26 1.36-.74 1.85-.48.5-1.14.8-1.83.83l-361.53 5.23a28.78 28.78 0 0 0-18.35 6.89c-5.1 4.37-8.48 10.38-9.53 16.97l-4.87 30.12c-.1.63-.42 1.19-.9 1.6-.489.41-1.105.64-1.743.64Z"/><path fill="#fff" d="M1374.64 912.092h51.09v901.038h-51.09V912.092Zm85.36 0h51.09v901.038H1460V912.092Zm85.36 0h51.08v901.038h-51.08V912.092Zm85.36 0h51.08v901.038h-51.08V912.092Zm85.35 0h51.09v901.038h-51.09V912.092Zm85.36 0h51.09v901.038h-51.09V912.092Zm85.36 0h51.08v901.038h-51.08V912.092Z" opacity=".53"/><path fill="url(#q)" d="M1379 1346h52v475h-52v-475Z"/><path fill="url(#r)" d="M1463 1509h52v312h-52v-312Z"/><path fill="url(#s)" d="M1547 1105h51v714h-51v-714Z"/><path fill="url(#t)" d="M1630 1650h52v171h-52v-171Z"/><path fill="url(#u)" d="M1714 1201h52v619h-52v-619Z"/><path fill="url(#v)" d="M1798 1309h51v511h-51v-511Z"/><path fill="url(#w)" d="M1881 1425h52v396h-52v-396Z"/><path fill="#fff" d="m1248.21 1822-795.844-5.98c-15.7-.12-28.366-12.88-28.366-28.58v-408.86c0-15.79 12.796-28.58 28.58-28.58h795.84c15.78 0 28.58 12.79 28.58 28.58v414.84c0 15.87-12.93 28.7-28.79 28.58Z" opacity=".44"/><path fill="#fff" d="M1125.49 1535.32 1023.07 1427l-146.858 159.77-103.625-111.84-97.186 109.89-74.526-90.56L454 1647.21v110.61c0 14.62 11.79 26.5 26.403 26.61L1221.2 1790c14.77.11 26.8-11.84 26.8-26.61v-300.91l-122.51 72.84Z" opacity=".44"/><path fill="#fff" d="M1125.31 1532.3h2.69V1790h-2.69v-257.7ZM1021.05 1427h2.69v361.51h-2.69V1427Zm-146.657 157.82h2.691v202.59h-2.691v-202.59Zm-100.738-105.93h2.692v308.52h-2.692v-308.52Zm-99.805 102.65h2.692v205.87h-2.692v-205.87ZM601 1486.58h2.691v298.85H601v-298.85Z"/><path fill="url(#x)" d="M607 1507c12.15 0 22-10.07 22-22.5s-9.85-22.5-22-22.5-22 10.07-22 22.5 9.85 22.5 22 22.5Z"/><path fill="url(#y)" d="M693 1581.5c0 8.01-6.492 14.5-14.5 14.5-8.009 0-14.5-6.49-14.5-14.5s6.491-14.5 14.5-14.5c8.008 0 14.5 6.49 14.5 14.5Z"/><path fill="url(#z)" d="M791 1477c0 8.28-6.492 15-14.5 15s-14.5-6.72-14.5-15c0-8.28 6.492-15 14.5-15s14.5 6.72 14.5 15Z"/><path fill="url(#A)" d="M891 1584.5c0 8.01-6.716 14.5-15 14.5-8.285 0-15-6.49-15-14.5s6.716-14.5 15-14.5c8.284 0 15 6.49 15 14.5Z"/><path fill="url(#B)" d="M1034 1424c0 8.28-6.49 15-14.5 15s-14.5-6.72-14.5-15c0-8.28 6.49-15 14.5-15s14.5 6.72 14.5 15Z"/><path fill="url(#C)" d="M1136 1530.5c0 8.01-6.49 14.5-14.5 14.5s-14.5-6.49-14.5-14.5 6.49-14.5 14.5-14.5 14.5 6.49 14.5 14.5Z"/><path fill="#fff" d="M660.068 1275.38H441.841c-9.129 0-16.529 5.15-16.529 11.51 0 6.36 7.4 11.51 16.529 11.51h218.227c9.129 0 16.53-5.15 16.53-11.51 0-6.36-7.401-11.51-16.53-11.51Zm0-50.97H441.841c-9.129 0-16.529 5.15-16.529 11.51 0 6.36 7.4 11.51 16.529 11.51h218.227c9.129 0 16.53-5.15 16.53-11.51 0-6.36-7.401-11.51-16.53-11.51Zm0-50.97H441.841c-9.129 0-16.529 5.15-16.529 11.51 0 6.36 7.4 11.51 16.529 11.51h218.227c9.129 0 16.53-5.15 16.53-11.51 0-6.36-7.401-11.51-16.53-11.51ZM957.49 1275.38H739.263c-9.129 0-16.53 5.15-16.53 11.51 0 6.36 7.401 11.51 16.53 11.51H957.49c9.129 0 16.53-5.15 16.53-11.51 0-6.36-7.401-11.51-16.53-11.51Zm0-50.97H739.263c-9.129 0-16.53 5.15-16.53 11.51 0 6.36 7.401 11.51 16.53 11.51H957.49c9.129 0 16.53-5.15 16.53-11.51 0-6.36-7.401-11.51-16.53-11.51Zm0-50.97H739.263c-9.129 0-16.53 5.15-16.53 11.51 0 6.36 7.401 11.51 16.53 11.51H957.49c9.129 0 16.53-5.15 16.53-11.51 0-6.36-7.401-11.51-16.53-11.51ZM1254.91 1275.38h-218.22c-9.13 0-16.53 5.15-16.53 11.51 0 6.36 7.4 11.51 16.53 11.51h218.22c9.13 0 16.53-5.15 16.53-11.51 0-6.36-7.4-11.51-16.53-11.51Zm0-50.97h-218.22c-9.13 0-16.53 5.15-16.53 11.51 0 6.36 7.4 11.51 16.53 11.51h218.22c9.13 0 16.53-5.15 16.53-11.51 0-6.36-7.4-11.51-16.53-11.51Zm0-50.97h-218.22c-9.13 0-16.53 5.15-16.53 11.51 0 6.36 7.4 11.51 16.53 11.51h218.22c9.13 0 16.53-5.15 16.53-11.51 0-6.36-7.4-11.51-16.53-11.51Z" opacity=".48"/><path fill="#fff" d="M2159 1426c55.78 0 101-45.22 101-101s-45.22-101-101-101-101 45.22-101 101 45.22 101 101 101Z" opacity=".91"/><path fill="url(#D)" d="M2217.79 1303.44c3.2 7.79 4.85 16.14 4.84 24.56 0 35.69-28.94 64.63-64.63 64.63s-64.63-28.94-64.63-64.63 28.94-64.63 64.63-64.63c1.09 0 2.18.03 3.26.08v-16.38c-1.09-.04-2.17-.07-3.26-.07-44.74 0-81 36.26-81 81s36.26 81 81 81 81-36.26 81-81c0-11.01-2.2-21.51-6.19-31.09l-15.02 6.53Z"/><path fill="#fff" d="M2242.2 1472h-165.4c-10.38 0-18.8 8.51-18.8 19s8.42 19 18.8 19h165.4c10.38 0 18.8-8.51 18.8-19s-8.42-19-18.8-19Z" opacity=".5"/><path fill="#fff" d="M2158 1095c55.78 0 101-45.22 101-101 0-55.781-45.22-101-101-101s-101 45.219-101 101c0 55.78 45.22 101 101 101Z" opacity=".91"/><path fill="url(#E)" d="M2192.85 1051.68a64.783 64.783 0 0 1-34.56 9.95c-35.82 0-64.86-28.94-64.86-64.631 0-35.693 29.04-64.629 64.86-64.629 1.1 0 2.19.03 3.27.083V916.07a82.956 82.956 0 0 0-3.27-.07c-44.9 0-81.29 36.265-81.29 81 0 44.74 36.39 81 81.29 81 15.67 0 30.3-4.42 42.71-12.07l-8.15-14.25Z"/><path fill="#fff" d="M2243.2 1141h-165.4c-10.38 0-18.8 8.51-18.8 19s8.42 19 18.8 19h165.4c10.38 0 18.8-8.51 18.8-19s-8.42-19-18.8-19Z" opacity=".5"/><path fill="#fff" d="M2259.2 1663.17c3.08-55.68-39.55-103.32-95.24-106.41-55.68-3.08-103.32 39.56-106.4 95.24-3.09 55.68 39.55 103.32 95.23 106.41 55.69 3.08 103.33-39.56 106.41-95.24Z" opacity=".91"/><path fill="url(#F)" d="M2213.71 1694.34c-11.66 17.07-31.29 28.29-53.55 28.29-35.77 0-64.76-28.94-64.76-64.63s28.99-64.63 64.76-64.63c1.09 0 2.18.03 3.26.08v-16.38c-1.08-.04-2.17-.07-3.26-.07-44.82 0-81.16 36.27-81.16 81 0 44.74 36.34 81 81.16 81 27.72 0 52.2-13.88 66.84-35.06l-13.29-9.6Z"/><path fill="#fff" d="M2076.52 1839h162.96c10.23 0 18.52-8.28 18.52-18.5s-8.29-18.5-18.52-18.5h-162.96c-10.23 0-18.52 8.28-18.52 18.5s8.29 18.5 18.52 18.5Z" opacity=".5"/><path fill="url(#G)" d="m2394.51 229.592-954.75-4.591c-11.5-.105-20.85 12.626-20.76 28.289l2.12 377.848c.08 15.752 9.67 28.322 21.24 27.849l949.31-20.336c11.04-.452 19.86-12.667 20-27.704l3.33-352.919c.14-15.572-9.05-28.332-20.49-28.436Z"/><path fill="#fff" d="M1442.27 634c-1.77 0-3.14-1.669-3.16-3.799L1437 252.854c-.01-.991.26-1.86.79-2.586.77-1.048 1.71-1.268 2.36-1.268l954.73 4.586c.65.005 1.58.234 2.34 1.286.53.73.79 1.597.78 2.581l-3.33 352.453c-.02 2.087-1.32 3.711-3.03 3.78h-.02L1442.27 634Zm-2.13-382.554c-.06 0-.18 0-.37.265-.22.298-.32.669-.32 1.129l2.11 377.347c.01.836.45 1.369.68 1.369l949.33-20.313c.25-.019.65-.564.66-1.359l3.32-352.452c.01-.458-.1-.826-.32-1.129-.19-.268-.31-.27-.36-.27l-954.73-4.587Z"/><path fill="#fff" d="M1478.34 424.233h46.5v177.683h-46.5V424.233Zm77.69 61.067h46.5v116.616h-46.5V485.3Zm77.69-150.923h46.5v267.539h-46.5V334.377Zm77.7 203.267h46.49v64.273h-46.49v-64.273Zm77.69-167.499h46.5v231.771h-46.5V370.145Zm77.69 40.13h46.5v191.641h-46.5V410.275Zm77.69 43.619h46.5v148.022h-46.5V453.894Zm77.69-173.604h46.5v321.626h-46.5V280.29Zm77.7 34.023h46.49v287.603h-46.49V314.313Zm77.69 51.47h46.49v236.133h-46.49V365.783Zm77.69 177.825h46.5v58.308h-46.5v-58.308Zm77.69-113.268h46.5v171.576h-46.5V430.34Z" opacity=".6"/><path fill="url(#H)" d="m1283.23 660.422-921.195-4.421c-11.103-.102-20.119 12.16-20.034 27.246l2.04 363.923c.085 15.17 9.338 27.27 20.498 26.82l915.951-19.59c10.65-.43 19.16-12.2 19.3-26.68l3.21-339.911c.14-14.997-8.73-27.286-19.77-27.387Z"/><path fill="#fff" d="M364.085 1051c-1.705 0-3.03-1.61-3.043-3.67L359 682.724c-.004-.956.252-1.795.762-2.499.745-1.013 1.649-1.225 2.278-1.225l921.95 4.432c.63.004 1.52.225 2.26 1.241.5.706.76 1.544.75 2.494l-3.21 340.553c-.02 2.02-1.28 3.59-2.93 3.65h-.02L364.085 1051Zm-2.05-369.639c-.058 0-.175 0-.362.256-.209.286-.31.647-.309 1.092l2.042 364.611c.004.8.433 1.32.654 1.32l916.73-19.63c.24-.02.63-.54.63-1.31l3.22-340.555c0-.443-.1-.799-.31-1.092-.19-.258-.31-.261-.36-.261l-921.935-4.431Z"/><path fill="#fff" d="M598.546 883.926c37.238-37.24 37.237-97.616-.003-134.855-37.239-37.238-97.616-37.237-134.854.002-37.239 37.24-37.238 97.617.002 134.855 37.24 37.238 97.616 37.237 134.855-.002ZM830.101 883.928c37.239-37.24 37.238-97.616-.002-134.855-37.24-37.238-97.616-37.237-134.855.003-37.238 37.239-37.237 97.616.003 134.854 37.24 37.239 97.616 37.238 134.854-.002ZM1062.46 887.112c37.23-37.239 37.23-97.616-.01-134.854-37.24-37.238-97.613-37.237-134.851.002-37.238 37.24-37.237 97.616.002 134.855 37.24 37.238 97.619 37.237 134.859-.003Z"/><path fill="url(#I)" d="M587.964 796.306a60.86 60.86 0 0 1 4.574 23.194c0 33.71-27.328 61.038-61.038 61.038-33.71 0-61.038-27.328-61.038-61.038 0-33.71 27.328-61.038 61.038-61.038 1.032 0 2.059.027 3.079.078v-15.473A77.097 77.097 0 0 0 531.5 743c-42.25 0-76.5 34.25-76.5 76.5s34.25 76.5 76.5 76.5 76.5-34.25 76.5-76.5c0-10.403-2.08-20.319-5.842-29.361l-14.194 6.167Z"/><path fill="url(#J)" d="M794.374 871.98a59.804 59.804 0 0 1-32.329 9.457c-33.51 0-60.675-27.506-60.675-61.437s27.165-61.437 60.675-61.437c1.026 0 2.046.027 3.061.078v-15.574a78.102 78.102 0 0 0-3.061-.067C720.046 743 686 777.474 686 820s34.046 77 76.045 77A74.995 74.995 0 0 0 802 885.522l-7.626-13.542Z"/><path fill="url(#K)" d="M1047.43 854.542c-11.03 16.233-29.6 26.895-50.66 26.895-33.83 0-61.255-27.506-61.255-61.437s27.425-61.437 61.255-61.437c1.036 0 2.066.027 3.09.078v-15.574a79.631 79.631 0 0 0-3.09-.067c-42.399 0-76.77 34.474-76.77 77s34.371 77 76.77 77c26.23 0 49.38-13.196 63.23-33.328l-12.57-9.13Z"/><path fill="#fff" d="M603.698 955H449.523c-9.678 0-17.523 8.059-17.523 18s7.845 18 17.523 18h154.175c9.677 0 17.522-8.059 17.522-18 .001-9.941-7.845-18-17.522-18Zm235.133 0H684.656c-9.677 0-17.522 8.059-17.522 18s7.845 18 17.522 18h154.175c9.678 0 17.522-8.059 17.522-18 .001-9.941-7.844-18-17.522-18Zm79.472 36h154.177c9.67 0 17.52-8.059 17.52-18s-7.84-18-17.52-18H918.303c-9.677 0-17.522 8.059-17.522 18s7.845 18 17.522 18Z" opacity=".5"/><path fill="url(#L)" d="M497.955 2440s-5.285 30.11-7.877 59.91c-1.012 11.65 7.912 21.77 19.521 22.25 39.441 1.66 123.809 4.87 154.082 3.51 4.551-.2 7.527-4.89 5.842-9.15a14.899 14.899 0 0 0-7.601-8.06L522.563 2444l-24.608-4Z"/><path fill="url(#M)" d="m495 2421.53 4.308 35.82s24.774 11.37 41.692-1.44L530.74 2416l-35.74 5.53Z"/><path fill="url(#N)" d="M498.765 1740.02c-1.835 9.39-9.853 468.83 39.039 674.72.798 3.35-.897 6.82-4.08 8.12-7.5 3.08-22.201 7.54-39.819 8.13-5.456.19-10.348-3.38-11.886-8.64-13.976-47.76-80.945-287.1-89.68-515.73-9.762-255.48 0-8.7 0-8.7l5.725-157.92 100.701.02Z"/><path fill="url(#O)" d="M340.877 2457s-8.446 15.11-16.621 55.26c-1.477 7.25 3.607 14.19 10.996 14.92 13.073 1.28 33.199 2.92 49.321 2.81 7.432-.05 13.232-6.49 12.335-13.85-1.785-14.65-7.348-38.7-24.534-57.44l-31.497-1.7Z"/><path fill="url(#P)" d="m334 2409.1 9.887 53.98s9.775 7.28 29.113 2l-4.719-58.08-34.281 2.1Z"/><path fill="url(#Q)" d="M306.397 1753.36c-39.996 241.8 8.676 597.62 25.091 667.26 1.005 4.27 4.44 7.53 8.754 8.25 7.327 1.22 19.39 2.21 31.283-1.25 4.097-1.19 6.976-4.9 7.144-9.17 2.201-56.3-1.762-401.95 35.505-538.56a31.093 31.093 0 0 1 11.948-17.12l72.332-51.51L504 1728l-197.603 25.36Z"/><path fill="url(#R)" d="M559.512 1282.67c-120.181-1.99-252.787 31.6-252.787 31.6-35.823 209.31-6.264 450.74-6.264 450.74 93.041 24.43 197.997-14.94 197.997-14.94 15.464-87.49 87.615-333.7 87.615-333.7 58.72-7.3 107.092-24.27 146.927-46.69-30.385-35.27-44.71-80.15-50.932-106.68-42.491 13.22-85.488 20.29-122.556 19.67Z"/><path fill="url(#S)" d="M909 1101.11c-11.835-14.26-26.812-7.52-26.812-7.52-17.729 74.71-110.686 135.28-206.188 164.88 6.237 26.49 20.596 71.31 51.055 106.53C885.547 1276.11 909 1101.11 909 1101.11Z"/><path fill="url(#T)" d="M903.887 1100.61c1.235 3.9-13.073 9.85-21.498-6.12-.294-7.65-4.976-40.44-.376-46.67 24.504-33.2 72.011-74.82 72.011-74.82 8.029 7.874 1.415 15.609 1.415 15.609l-23.047 23.861c4.82 8.66 10.701 15.96 13.456 26.44 2.087 7.93.81 16.4-3.22 23.62-4.045 7.24-9.564 16.66-14.782 24.03-9.877 13.94-23.959 14.05-23.959 14.05Z"/><path fill="url(#U)" d="m922.389 1028-20.844 17.71-6.545 17.63 18.585 20.66s6.249-34.98 10.894-42.55c4.644-7.57 2.236-11.24-2.09-13.45Z"/><path fill="url(#V)" d="M358 1429.88 311.855 1313S199.48 1389.6 181 1486.73c21.233 1.57 59.871 7.11 97.689 26.27 8.31-45.86 79.311-83.12 79.311-83.12Z"/><path fill="url(#W)" d="M454.329 1541.83s-125.97 71.15-168.475 10.4c-8.825-12.61-10.934-25.15-8.761-37.1-37.759-19.06-76.336-24.57-97.535-26.13-5.564 29.12-2.622 60.09 14.5 91.4 74.453 136.11 276.942-7.53 276.942-7.53l-16.671-31.04Z"/><path fill="url(#X)" d="m433.276 1630.58 68.974-239.67a7.01 7.01 0 0 1 5.941-5.03c12.497-1.45 48.708-5.52 90.518-9.04 50.361-4.24 108.845-7.67 143.793-4.75 4.968.41 7.971 5.64 5.761 10.09-19.874 40-101.621 202.73-142.558 256.04a7.054 7.054 0 0 1-2.513 2.06c-.988.48-2.075.73-3.174.72l-160.031-1.48c-4.657-.05-7.992-4.49-6.711-8.94Z"/><path fill="url(#Y)" d="m605.04 1353.2 49.794-8.15c2.652-.43 4.824 2.06 3.982 4.56l-4.929 14.69a3.534 3.534 0 0 1-1.113 1.6c-.517.42-1.143.69-1.808.78l-47.917 6.29c-2.479.32-4.523-1.89-3.953-4.28l3.052-12.82c.161-.68.521-1.29 1.036-1.76a3.614 3.614 0 0 1 1.856-.91Z"/><path fill="url(#Z)" d="m568.09 1395.19 4.082-21.13a4.872 4.872 0 0 1 1.509-2.68 4.954 4.954 0 0 1 2.821-1.26l100.084-10.09c3.369-.34 6.066 2.72 5.275 6l-6.363 26.33a4.858 4.858 0 0 1-1.641 2.62 4.937 4.937 0 0 1-2.892 1.12l-97.801 4.89c-3.183.16-5.675-2.68-5.074-5.8Z"/><path fill="url(#aa)" d="M452.661 1573.55s-9.619-39.23-5.739-53.15c3.88-13.92 11.398-31.81 36.458-27.84 25.059 3.98 54.62 14.45 54.62 14.45s-1.493 18.13-20.539 12.28l11.811 9.07s-1.688 14.51-17.775 6.76l10.984 12.02s-6.909 11.92-18.745 4.27c-11.836-7.64-17.51 26.87-51.075 22.14Z"/><path fill="url(#ab)" d="m438.695 1181-38.471 110.2a3.956 3.956 0 0 0 1.827 4.78c10.487 5.74 48.268 22.34 93.798-6.25 4.743-2.98 7.972-7.84 8.693-13.36L517 1181h-78.305Z"/><path fill="url(#ac)" d="M520.943 1076s41.959 78.73 36.581 110.54c-5.379 31.8-57.381 29.52-102.792 3.69L423 1105.21l97.943-29.21Z"/><path fill="url(#ad)" d="M458.385 1147.34a3.27 3.27 0 0 0 1.42-4.78c-3.358-5.14-9.656-15.63-11.664-24.82 0 0-7.537-4.84 19.183-11.25 26.719-6.41 66.566-16.36 74.941-39.15 8.166-22.23-13.29-78.127-47.519-33.59-1.302 1.69-3.853 1.73-5.154.04-5.611-7.33-20.364-22.52-40.846-13.31-19.166 8.62-21.326 22.7-21.063 29.8.077 2.08-1.784 3.71-3.831 3.31-9.691-1.85-32.946-3.44-43.8 20.47-8.94 19.7-3.13 30.85 2.163 36.3a3.255 3.255 0 0 1-1.388 5.4c-6.369 1.95-14.594 7.37-13.77 22.32 1.139 20.68 24.203 18.86 30.769 17.91 1.076-.15 2.159.22 2.888 1.03 5.631 6.24 30.998 32.76 58.453 35.96 2.378.27 4.22-2.08 3.442-4.35l-11.882-34.62a3.267 3.267 0 0 1 .095-2.37c.327-.75.923-1.36 1.672-1.69l5.891-2.61Z"/><path fill="url(#ae)" d="M462.62 1154.25s-30.289-20.7-32.502-3.27c-2.213 17.43 27.276 25.25 41.882 18.75l-9.38-15.48Z"/><defs><linearGradient id="a" x1="2677.4" x2="912.601" y1="2476.11" y2="931.807" gradientUnits="userSpaceOnUse"><stop stop-color="#B37CFF"/><stop offset="1" stop-color="#F895E7"/></linearGradient><linearGradient id="b" x1="991.209" x2="1479.29" y1="263.737" y2="296.9" gradientUnits="userSpaceOnUse"><stop stop-color="#B37CFF"/><stop offset="1" stop-color="#F895E7"/></linearGradient><linearGradient id="c" x1="1511.75" x2="1540.25" y1="169.964" y2="171.9" gradientUnits="userSpaceOnUse"><stop stop-color="#B37CFF"/><stop offset="1" stop-color="#F895E7"/></linearGradient><linearGradient id="d" x1="1642.57" x2="1662.13" y1="403.922" y2="405.251" gradientUnits="userSpaceOnUse"><stop stop-color="#B37CFF"/><stop offset="1" stop-color="#F895E7"/></linearGradient><linearGradient id="e" x1="1148.46" x2="1651.19" y1="593.869" y2="628.028" gradientUnits="userSpaceOnUse"><stop stop-color="#B37CFF"/><stop offset="1" stop-color="#F895E7"/></linearGradient><linearGradient id="f" x1="1091.15" x2="1119.29" y1="696.423" y2="698.335" gradientUnits="userSpaceOnUse"><stop stop-color="#B37CFF"/><stop offset="1" stop-color="#F895E7"/></linearGradient><linearGradient id="g" x1="2445.68" x2="706.268" y1="1024.61" y2="117.431" gradientUnits="userSpaceOnUse"><stop stop-color="#A737D5"/><stop offset="1" stop-color="#EF497A"/></linearGradient><linearGradient id="h" x1="681.955" x2="695.867" y1="655.422" y2="656.367" gradientUnits="userSpaceOnUse"><stop stop-color="#B37CFF"/><stop offset="1" stop-color="#F895E7"/></linearGradient><linearGradient id="i" x1="686.943" x2="959.607" y1="498.752" y2="517.279" gradientUnits="userSpaceOnUse"><stop stop-color="#B37CFF"/><stop offset="1" stop-color="#F895E7"/></linearGradient><linearGradient id="j" x1="788.767" x2="1099.97" y1="773.513" y2="794.658" gradientUnits="userSpaceOnUse"><stop stop-color="#B37CFF"/><stop offset="1" stop-color="#F895E7"/></linearGradient><linearGradient id="k" x1="753.236" x2="774.518" y1="790.65" y2="792.096" gradientUnits="userSpaceOnUse"><stop stop-color="#B37CFF"/><stop offset="1" stop-color="#F895E7"/></linearGradient><linearGradient id="l" x1="2289.51" x2="552.977" y1="1335.94" y2="428.506" gradientUnits="userSpaceOnUse"><stop stop-color="#A737D5"/><stop offset="1" stop-color="#EF497A"/></linearGradient><linearGradient id="m" x1="1431.47" x2="1408.49" y1="2457.55" y2="2002.03" gradientUnits="userSpaceOnUse"><stop stop-color="#2B3582"/><stop offset="1" stop-color="#150E42"/></linearGradient><linearGradient id="n" x1="218" x2="2476" y1="1386" y2="1386" gradientUnits="userSpaceOnUse"><stop stop-color="#2B3582"/><stop offset="1" stop-color="#150E42"/></linearGradient><linearGradient id="o" x1="1383.32" x2="1259.41" y1="954.656" y2="2966.4" gradientUnits="userSpaceOnUse"><stop stop-color="#FDF53F"/><stop offset="1" stop-color="#D93C65"/></linearGradient><linearGradient id="p" x1="1435.35" x2="1163.87" y1="2286.5" y2="2880.98" gradientUnits="userSpaceOnUse"><stop stop-color="#2B3582"/><stop offset="1" stop-color="#150E42"/></linearGradient><linearGradient id="q" x1="924.213" x2="1716.51" y1="2304.16" y2="1091.43" gradientUnits="userSpaceOnUse"><stop stop-color="#A737D5"/><stop offset="1" stop-color="#EF497A"/></linearGradient><linearGradient id="r" x1="1019.76" x2="1812.95" y1="2368.92" y2="1155.79" gradientUnits="userSpaceOnUse"><stop stop-color="#A737D5"/><stop offset="1" stop-color="#EF497A"/></linearGradient><linearGradient id="s" x1="994.492" x2="1791" y1="2343.88" y2="1146.13" gradientUnits="userSpaceOnUse"><stop stop-color="#A737D5"/><stop offset="1" stop-color="#EF497A"/></linearGradient><linearGradient id="t" x1="1166.52" x2="1953.51" y1="2465.69" y2="1255.3" gradientUnits="userSpaceOnUse"><stop stop-color="#A737D5"/><stop offset="1" stop-color="#EF497A"/></linearGradient><linearGradient id="u" x1="1120.12" x2="1911.36" y1="2438.76" y2="1226.49" gradientUnits="userSpaceOnUse"><stop stop-color="#A737D5"/><stop offset="1" stop-color="#EF497A"/></linearGradient><linearGradient id="v" x1="1214.12" x2="2009.66" y1="2493.44" y2="1296.09" gradientUnits="userSpaceOnUse"><stop stop-color="#A737D5"/><stop offset="1" stop-color="#EF497A"/></linearGradient><linearGradient id="w" x1="1286.38" x2="2079.51" y1="2553.95" y2="1340.85" gradientUnits="userSpaceOnUse"><stop stop-color="#A737D5"/><stop offset="1" stop-color="#EF497A"/></linearGradient><linearGradient id="x" x1="625.401" x2="529.28" y1="1427.61" y2="1711.75" gradientUnits="userSpaceOnUse"><stop stop-color="#FDF53F"/><stop offset="1" stop-color="#D93C65"/></linearGradient><linearGradient id="y" x1="690.627" x2="629.785" y1="1544.84" y2="1728.78" gradientUnits="userSpaceOnUse"><stop stop-color="#FDF53F"/><stop offset="1" stop-color="#D93C65"/></linearGradient><linearGradient id="z" x1="788.627" x2="723.963" y1="1439.07" y2="1628.05" gradientUnits="userSpaceOnUse"><stop stop-color="#FDF53F"/><stop offset="1" stop-color="#D93C65"/></linearGradient><linearGradient id="A" x1="888.545" x2="829.349" y1="1547.84" y2="1732.97" gradientUnits="userSpaceOnUse"><stop stop-color="#FDF53F"/><stop offset="1" stop-color="#D93C65"/></linearGradient><linearGradient id="B" x1="1031.63" x2="966.964" y1="1386.07" y2="1575.05" gradientUnits="userSpaceOnUse"><stop stop-color="#FDF53F"/><stop offset="1" stop-color="#D93C65"/></linearGradient><linearGradient id="C" x1="1133.63" x2="1072.79" y1="1493.84" y2="1677.78" gradientUnits="userSpaceOnUse"><stop stop-color="#CB236D"/><stop offset="1" stop-color="#4C246D"/></linearGradient><linearGradient id="D" x1="2295.02" x2="1944.22" y1="1197.96" y2="1530.88" gradientUnits="userSpaceOnUse"><stop stop-color="#FDF53F"/><stop offset="1" stop-color="#D93C65"/></linearGradient><linearGradient id="E" x1="2273.15" x2="1961.69" y1="887.204" y2="1183.85" gradientUnits="userSpaceOnUse"><stop stop-color="#FDF53F"/><stop offset="1" stop-color="#D93C65"/></linearGradient><linearGradient id="F" x1="2275.42" x2="1963.98" y1="1548.82" y2="1844.96" gradientUnits="userSpaceOnUse"><stop stop-color="#FDF53F"/><stop offset="1" stop-color="#D93C65"/></linearGradient><linearGradient id="G" x1="1367.63" x2="2891.22" y1="-381.574" y2="1903.17" gradientUnits="userSpaceOnUse"><stop stop-color="#53D8FF"/><stop offset="1" stop-color="#3840F7"/></linearGradient><linearGradient id="H" x1="780.689" x2="994.587" y1="709.832" y2="1498.17" gradientUnits="userSpaceOnUse"><stop stop-color="#53D8FF"/><stop offset="1" stop-color="#3840F7"/></linearGradient><linearGradient id="I" x1="660.911" x2="329.601" y1="696.685" y2="1011.11" gradientUnits="userSpaceOnUse"><stop stop-color="#FDF53F"/><stop offset="1" stop-color="#D93C65"/></linearGradient><linearGradient id="J" x1="869.495" x2="573.682" y1="715.626" y2="992.879" gradientUnits="userSpaceOnUse"><stop stop-color="#FDF53F"/><stop offset="1" stop-color="#D93C65"/></linearGradient><linearGradient id="K" x1="1105.8" x2="809.82" y1="716.214" y2="996.269" gradientUnits="userSpaceOnUse"><stop stop-color="#FDF53F"/><stop offset="1" stop-color="#D93C65"/></linearGradient><linearGradient id="L" x1="659.269" x2="145.434" y1="2398.39" y2="2953.76" gradientUnits="userSpaceOnUse"><stop stop-color="#CB236D"/><stop offset="1" stop-color="#4C246D"/></linearGradient><linearGradient id="M" x1="495" x2="541.001" y1="2439" y2="2439" gradientUnits="userSpaceOnUse"><stop stop-color="#F9B776"/><stop offset="1" stop-color="#F47960"/></linearGradient><linearGradient id="N" x1="1442.7" x2="-240.928" y1="1060.02" y2="2805.64" gradientUnits="userSpaceOnUse"><stop stop-color="#53D8FF"/><stop offset="1" stop-color="#3840F7"/></linearGradient><linearGradient id="O" x1="548.806" x2="38.44" y1="2294.73" y2="2851.78" gradientUnits="userSpaceOnUse"><stop stop-color="#CB236D"/><stop offset="1" stop-color="#4C246D"/></linearGradient><linearGradient id="P" x1="334" x2="373" y1="2437" y2="2437" gradientUnits="userSpaceOnUse"><stop stop-color="#F9B776"/><stop offset="1" stop-color="#F47960"/></linearGradient><linearGradient id="Q" x1="1383.01" x2="-296.237" y1="1002.24" y2="2748.07" gradientUnits="userSpaceOnUse"><stop stop-color="#53D8FF"/><stop offset="1" stop-color="#3840F7"/></linearGradient><linearGradient id="R" x1="227.805" x2="944.363" y1="1658.13" y2="1143.14" gradientUnits="userSpaceOnUse"><stop stop-color="#CB236D"/><stop offset="1" stop-color="#4C246D"/></linearGradient><linearGradient id="S" x1="676" x2="909" y1="1228.5" y2="1228.5" gradientUnits="userSpaceOnUse"><stop stop-color="#F9B776"/><stop offset="1" stop-color="#F47960"/></linearGradient><linearGradient id="T" x1="854.962" x2="700.564" y1="1184.92" y2="1538.38" gradientUnits="userSpaceOnUse"><stop stop-color="#F9B776"/><stop offset="1" stop-color="#F47960"/></linearGradient><linearGradient id="U" x1="905.84" x2="970.638" y1="1067.51" y2="968.092" gradientUnits="userSpaceOnUse"><stop stop-color="#F9B776"/><stop offset="1" stop-color="#F47960"/></linearGradient><linearGradient id="V" x1="138.415" x2="856.677" y1="1526.23" y2="1011.02" gradientUnits="userSpaceOnUse"><stop stop-color="#CB236D"/><stop offset="1" stop-color="#4C246D"/></linearGradient><linearGradient id="W" x1="176.999" x2="470.999" y1="1564" y2="1564" gradientUnits="userSpaceOnUse"><stop stop-color="#F9B776"/><stop offset="1" stop-color="#F47960"/></linearGradient><linearGradient id="X" x1="554.422" x2="715.071" y1="1354.16" y2="2026.91" gradientUnits="userSpaceOnUse"><stop stop-color="#9CFFFB"/><stop offset="1" stop-color="#9BFFFA"/></linearGradient><linearGradient id="Y" x1="654.93" x2="621.647" y1="1247.08" y2="1395.78" gradientUnits="userSpaceOnUse"><stop stop-color="#53D8FF"/><stop offset="1" stop-color="#3840F7"/></linearGradient><linearGradient id="Z" x1="636.927" x2="620.751" y1="1309.37" y2="1407.02" gradientUnits="userSpaceOnUse"><stop stop-color="#53D8FF"/><stop offset="1" stop-color="#3840F7"/></linearGradient><linearGradient id="aa" x1="445.999" x2="538" y1="1533" y2="1533" gradientUnits="userSpaceOnUse"><stop stop-color="#F9B776"/><stop offset="1" stop-color="#F47960"/></linearGradient><linearGradient id="ab" x1="400.001" x2="517" y1="1243.5" y2="1243.5" gradientUnits="userSpaceOnUse"><stop stop-color="#F9B776"/><stop offset="1" stop-color="#F47960"/></linearGradient><linearGradient id="ac" x1="543.245" x2="415.688" y1="1166.83" y2="1088.78" gradientUnits="userSpaceOnUse"><stop stop-color="#F9B776"/><stop offset="1" stop-color="#F47960"/></linearGradient><linearGradient id="ad" x1="349.565" x2="514.8" y1="1005.44" y2="1135.65" gradientUnits="userSpaceOnUse"><stop stop-color="#2B3582"/><stop offset="1" stop-color="#150E42"/></linearGradient><linearGradient id="ae" x1="511.452" x2="395.153" y1="1197.23" y2="1126.01" gradientUnits="userSpaceOnUse"><stop stop-color="#F9B776"/><stop offset="1" stop-color="#F47960"/></linearGradient></defs></svg>