<svg xmlns="http://www.w3.org/2000/svg" width="2600" height="2600" fill="none"><g clip-path="url(#a)"><path fill="#FFD45B" d="M2270 1358.02c0 537.36-435.62 972.98-972.99 972.98C759.649 2331 324 1895.38 324 1358.02 324 820.635 759.645 385 1297.01 385c537.37.004 972.99 435.635 972.99 973.02Z"/><path stroke="#F59121" stroke-dasharray="6 6" stroke-miterlimit="10" stroke-width="3" d="M2000.14 1268c-6.79 41.85 6.29 89.88 28.1 129.17 13.08 17.47 30.53 30.57 47.97 43.67 34.9 17.47 69.79 8.73 104.68 8.73 109.03 8.74 213.71 4.37 322.75 4.37 52.34 0 87.23 48.03 95.95 100.43 4.36 56.76-26.17 117.89-82.86 130.99-283.5 0-567 0-848.56.34M599.865 1725c6.79-41.85-6.295-89.88-28.103-129.18-13.084-17.47-30.529-30.56-47.977-43.66-34.889-17.48-69.781-8.74-104.674-8.74-109.038-8.73-213.712-4.36-322.747-4.36-52.34 0-87.232-48.04-95.953-100.43-4.36-56.76 26.168-117.9 82.87-131 283.493 0 566.987 0 848.547-.34"/><path stroke="#fff" stroke-dasharray="6 6" stroke-miterlimit="10" stroke-width="3" d="M1242 1098.06c88.71-8.11 192.95 30.34 225.87 118.2 10.98 175.74 10.98 345.98 5.49 521.71 0 49.43 38.4 82.38 82.3 104.34 49.38 21.97 109.73 10.99 159.1-16.47 27.44-16.47 32.92-43.93 49.39-65.9 10.97-21.97 5.48-49.42 5.48-71.39-10.97-115.33 0-230.65-3.19-346.76"/><path stroke="#F59121" stroke-dasharray="6 6" stroke-miterlimit="10" stroke-width="3" d="M1297 1027.47c-52.6 8.54-112.97-7.91-162.36-35.342-21.95-16.457-38.41-38.402-54.88-60.343-21.95-43.885-10.97-87.767-10.97-131.656-10.98-137.138-5.49-268.795-5.49-405.928 0-65.826-60.37-109.716-126.226-120.684-71.343-5.484-148.178 32.913-164.646 104.228 0 356.557 0 713.125-.428 1067.255"/><path fill="#fff" stroke="#000" stroke-linejoin="round" stroke-miterlimit="10" stroke-width="4" d="M149.061 820.888c9.713-31.036 25.321-60.57 47.076-86.688l-.296.312-29.391-60.044 53.13-43.276 52.713 41.001-.342.273a249.779 249.779 0 0 1 94.233-28.416L387.885 581l68.006 7.006 8.294 66.029a253.09 253.09 0 0 1 86.659 46.726l59.6-29.292 43.315 53.288-40.811 52.512c15.883 29.873 25.172 61.933 28.268 94.446L704 893.195l-6.925 68.303-65.961 8.275a251.54 251.54 0 0 1-46.722 86.837l29.158 59.62-53.141 43.26-52.294-40.73a251.076 251.076 0 0 1-94.435 28.17L392.049 1210l-68.107-7-8.244-66.26c-31.079-9.53-60.568-25.34-86.51-46.8l-59.756 29.37-43.265-53.23 40.909-52.66c-15.728-29.795-24.955-61.945-28.008-94.283L76 897.505l6.929-68.256 66.132-8.361Zm313.541 15.475c-32.626-40.133-91.437-46.079-131.51-13.454-40.077 32.664-46.127 91.489-13.539 131.642 32.592 40.122 91.488 46.249 131.542 13.657 40.076-32.641 46.154-91.723 13.507-131.845Z"/><path stroke="#000" stroke-miterlimit="10" stroke-width="4" d="M514.331 1033.52c-73.689 69.92-190.037 66.82-259.897-6.9-69.856-73.731-66.761-190.17 6.901-260.086M554 978.768a180.643 180.643 0 0 1-17.526 29.462M297.641 802.953c55.377-52.572 142.829-50.231 195.342 5.176 52.517 55.423 50.189 142.941-5.18 195.501"/><path stroke="#000" stroke-miterlimit="10" stroke-width="4" d="M281 832a142.712 142.712 0 0 1 13-23"/><path fill="#F59121" stroke="#000" stroke-linecap="round" stroke-width="3" d="M720 2357h1050v122H720v-122Z"/><path fill="#000" d="M1753.95 2404 739 2407.09V2419l1015-3.08-.05-11.92Z"/><path fill="#F59121" d="M1718 2367h73v121h-73v-121Z"/><path stroke="#fff" stroke-miterlimit="10" stroke-width="3" d="M1809.29 2462h.01l17.69-.06c16.62-.05 30.07-13.85 30.01-30.83l-.12-43.44c-.02-16.96-13.56-30.69-30.17-30.67l-17.71.07.29 104.93Z"/><path stroke="#FFF5F5" stroke-linecap="round" stroke-width="3" d="m795 2471.92-.341-116.34c-1.707-.14-3.399-.4-5.111-.58L643 2413.64 791.732 2472c1.084-.07 2.176-.07 3.268-.08Z"/><path fill="#231F20" stroke="#FFF5F5" stroke-miterlimit="10" stroke-width="3" d="M689.934 2397 649 2412.62l41 15.38-.066-31Z"/><path fill="#F59121" d="M2475 2040h-798v-872l798 872Zm-652.8-145.14h323.19l-323.19-353.17v353.17Z"/><path stroke="#000" stroke-miterlimit="10" stroke-width="3" d="M1787 1298h-68.82m68.82 101.57h-68.82m36.31-50.78H1718m36.49 101.57H1718m69 50.79h-68.82m68.82 101.56h-68.82m36.31-50.78H1718m36.49 101.57H1718m69 50.8h-68.82m68.82 101.55h-68.82m36.31-50.78H1718m36.49 101.58H1718m69 50.78h-68.82M1787 2009h-68.82m36.31-50.78H1718"/><path stroke="#fff" stroke-dasharray="6 2" stroke-miterlimit="6" stroke-width="3" d="M239 1566h310v309H239v-309Z"/><path fill="#fff" stroke="#000" stroke-miterlimit="10" stroke-width="3" d="M173 1509.97h80.939v80.88H173v-80.88Zm291.397 0h80.942v80.88h-80.942v-80.88ZM173 1819.12h80.939V1900H173v-80.88Zm291.397 0h80.942V1900h-80.942v-80.88ZM738.6 1256H1208v634.71H738.6V1256Z"/><path fill="#fff" stroke="#000" stroke-miterlimit="10" stroke-width="3" d="M707 1867.02v156.28c0 20.83 16.895 37.7 37.786 37.7h394.424c20.85 0 37.79-16.88 37.79-37.7v-156.28H707Zm470-581.86v-68.45c0-20.79-16.94-37.71-37.79-37.71H744.79c-20.891 0-37.786 16.92-37.786 37.71v68.45H1177Z"/><path fill="#000" d="M941.096 2019c8.255.05 14.969 6.37 14.904 14.07-.024 3.7-1.613 7.23-4.422 9.84-2.809 2.61-6.61 4.08-10.574 4.09h-.078c-3.976-.04-7.774-1.54-10.57-4.18-2.795-2.64-4.36-6.2-4.356-9.91.045-3.7 1.655-7.24 4.482-9.85 2.826-2.6 6.64-4.06 10.614-4.06Z"/><path stroke="#000" stroke-miterlimit="10" stroke-width="3" d="M985.948 1183H855m173 0h-19.36"/><path fill="#F59121" stroke="#000" stroke-miterlimit="10" stroke-width="3" d="M774 1340h338v267H774v-267Z"/><path fill="#C7B299" d="M787 1358h304v233H787v-233Z"/><path fill="#fff" d="M1084.44 1364.52v215.96H795.556v-215.96h288.884ZM1101 1348H779v249h322v-249Z"/><path fill="#fff" stroke="#000" stroke-miterlimit="10" stroke-width="3" d="M1028 1429.49c0 20.73-17.01 37.51-37.982 37.51-20.984 0-38.018-16.78-38.018-37.51 0-20.7 17.034-37.49 38.018-37.49 20.972 0 37.982 16.79 37.982 37.49Z"/><path fill="#fff" d="m1079 1594-42.84-46.18-70.685 40.73-74.848-99.55L800 1591.49"/><path stroke="#fff" stroke-miterlimit="10" stroke-width="3" d="m1079 1594-42.84-46.18-70.685 40.73-74.848-99.55L800 1591.49"/><path fill="#F59121" d="M859 1661h172v13H859v-13Z"/><path fill="#000" d="M757 1691h376v13H757v-13Z"/><path fill="#C7B299" d="M757 1805.38h362V1818H757v-12.62Zm0-23.38h362v12.63H757V1782Z"/><path fill="#F59121" d="M768 1718h179v46H768v-46Z"/><path fill="#000" d="M938 1718h176v45H938v-45Z"/><path stroke="#fff" stroke-miterlimit="10" stroke-width="3" d="M2563 1755v16h-15"/><path stroke="#fff" stroke-dasharray="6.51 4.34" stroke-miterlimit="10" stroke-width="3" d="M2526 1606h-202"/><path stroke="#fff" stroke-miterlimit="10" stroke-width="3" d="M2315 1605h-16v-17"/><path stroke="#fff" stroke-dasharray="6.42 4.28" stroke-miterlimit="10" stroke-width="3" d="M2299 1561v-182"/><path stroke="#000" stroke-miterlimit="10" stroke-width="3" d="M2299 1362v-15h14"/><path stroke="#000" stroke-dasharray="6.51 4.34" stroke-miterlimit="10" stroke-width="3" d="M2335 1345h201"/><path stroke="#000" stroke-miterlimit="10" stroke-width="3" d="M2548 1514h14v15"/><path stroke="#fff" stroke-dasharray="6.42 4.28" stroke-miterlimit="10" stroke-width="3" d="M2562 1557v184"/><path stroke="#000" stroke-miterlimit="10" stroke-width="3" d="M2306 1296h294v232h-294v-232Z"/><path fill="#F59121" d="M2336 1311h263v201h-263v-201Z"/><path fill="#fff" d="M2583.55 1318.5v184h-246.1v-184h246.1ZM2600 1302h-279v217h279v-217Z"/><path fill="#fff" d="M2545 1540.49c0 4.4-.88 8.76-2.58 12.82a33.388 33.388 0 0 1-7.37 10.87c-3.16 3.11-6.9 5.58-11.03 7.27a34.465 34.465 0 0 1-26.02 0 34.007 34.007 0 0 1-11.04-7.26 33.694 33.694 0 0 1-7.37-10.88 33.032 33.032 0 0 1-2.59-12.82c0-18.49 15.24-33.49 34.01-33.49 18.76 0 33.99 15 33.99 33.49Z"/><path fill="#fff" d="m2589 1517-37.61-40.9-62.08 36.07-65.73-88.17-79.58 90.77"/><path stroke="#fff" stroke-miterlimit="10" stroke-width="3" d="m2589 1517-37.61-40.9-62.08 36.07-65.73-88.17-79.58 90.77"/><path stroke="#000" stroke-miterlimit="10" stroke-width="3" d="M907.165 813.049V1079m-23.823-274.204a23.858 23.858 0 0 0 7.163 16.523 23.822 23.822 0 0 0 33.333 0A23.857 23.857 0 0 0 931 804.796a23.857 23.857 0 0 0-7.162-16.523 23.825 23.825 0 0 0-33.333 0 23.858 23.858 0 0 0-7.163 16.523ZM1272.56 346h119.52L1809 598.282c-.16 3.253-.31 111.339-.31 111.339H659V592.45L1272.56 346Z"/><path stroke="#000" stroke-miterlimit="10" stroke-width="3" d="M1268.29 555.233c35.94-39.092 65.95-78.184 101.89-117.276h-101.36M1264.98 317c.42 85.828.42 168.628 0 254m118.59-254c.45 85.828.45 168.628 0 254m2.43-6.352h-125"/><path stroke="#000" stroke-miterlimit="10" stroke-width="3" d="M1246 443.8 1354.76 326h-108.23M1774 574.699V671l-118.25-96.783M1650 592.478V688l-118-96"/><path stroke="#000" stroke-miterlimit="10" stroke-width="3" d="M1547 592.478V688l-118-96"/><path stroke="#000" stroke-miterlimit="10" stroke-width="3" d="M1444 592.478V688c-39.33-32.003-78.67-64.001-118-96"/><path stroke="#000" stroke-miterlimit="10" stroke-width="3" d="M1342 592.478V688c-39.33-32.003-78.67-64.001-118-96"/><path stroke="#000" stroke-miterlimit="10" stroke-width="3" d="M1239 592.478V688l-118-96"/><path stroke="#000" stroke-miterlimit="10" stroke-width="3" d="M1136 592.478V688l-118-96"/><path stroke="#000" stroke-miterlimit="10" stroke-width="3" d="M1034 592.478V688l-118-96"/><path stroke="#000" stroke-miterlimit="10" stroke-width="3" d="M932 592.478V688c-39.001-31.998-78.001-63.998-117-96M772.863 600.485v97.004c-39.39-32.499-72.819-64.994-112.21-97.489M1816 602.351H658m1158 103.091H658m3.982-99.766v94.774m611.468 13.895h116.07c-38.87 39.548-77.76 79.103-116.65 118.655M1261.58 847H1378c-38.99 39.337-77.99 78.667-117 118M1261.58 977H1378c-39 39.34-78 78.67-117 118M1261.58 1105H1378c-38.99 39.34-77.99 78.67-117 118M1261.58 1234H1378c-38.99 39.33-77.99 78.67-117 118M1261.58 1364H1379c-39.32 39.67-78.66 79.33-118 119M1261.58 1492H1379c-39.32 39.67-78.66 79.33-118 119M1261.58 1624H1378c-38.99 39.33-77.99 78.67-117 118M1261.58 1751H1378c-38.99 39.67-77.99 79.32-117 119"/><path stroke="#000" stroke-miterlimit="10" stroke-width="3" d="M1261.57 1814.15h114.99c-38.51 39.29-77.04 78.58-115.56 117.85m2.79-1158v1154.69M1386 774v1154.69m-118.26-3.97h112.34"/><path fill="#fff" stroke="#000" stroke-miterlimit="10" stroke-width="3" d="M1136 1997h377v60h-377v-60Z"/><path fill="#fff" stroke="#000" stroke-miterlimit="10" stroke-width="3" d="M1086.22 1975.24H1599V2011h-512.78v-35.76ZM769 783h292.16v71.518H769V783Z"/><path fill="#fff" d="M2458 918.115c0 1.433-.08 2.633-.23 3.615-.12.82-.36 1.618-.71 2.369-.24.511-.61.949-1.08 1.27-.39.243-.84.373-1.31.376h-24.05v26.145c.01.483-.13.958-.39 1.364-.25.384-.7.714-1.32.994-.62.299-1.42.52-2.47.667-1.28.168-2.57.245-3.87.23-1.53 0-2.82-.078-3.85-.23a8.548 8.548 0 0 1-2.47-.667 3.327 3.327 0 0 1-1.37-.994 2.222 2.222 0 0 1-.41-1.364v-26.145h-24a2.345 2.345 0 0 1-1.25-.376 3.227 3.227 0 0 1-1.04-1.27 8.223 8.223 0 0 1-.75-2.369 20.837 20.837 0 0 1-.26-3.615c0-1.402.08-2.59.23-3.607.15-.991.37-1.787.65-2.381.22-.497.55-.936.97-1.281.36-.254.79-.386 1.23-.377h24.22v-26.075c0-.532.13-.994.41-1.445.34-.478.82-.846 1.37-1.06.61-.303 1.43-.52 2.47-.66 1.03-.151 2.32-.229 3.85-.229 1.56 0 2.84.078 3.87.229 1.05.14 1.85.357 2.47.66.62.272 1.07.629 1.32 1.06.25.451.39.913.39 1.445v26.075h24.28c.41 0 .8.128 1.21.377.39.268.72.695 1 1.281.28.594.49 1.386.66 2.381.15 1.017.23 2.205.23 3.607ZM95.182 1367.17c0 1.54-.086 2.83-.246 3.89-.183 1.05-.428 1.89-.759 2.55a3.372 3.372 0 0 1-1.155 1.36c-.427.26-.916.41-1.417.41H65.734v28.12c.01.52-.135 1.03-.417 1.47a3.36 3.36 0 0 1-1.412 1.06c-.845.37-1.74.61-2.658.72-1.382.18-2.775.26-4.168.25-1.386.01-2.77-.07-4.145-.25a9.054 9.054 0 0 1-2.654-.72 3.763 3.763 0 0 1-1.479-1.06c-.3-.43-.453-.95-.435-1.47v-28.12H22.56c-.48-.01-.948-.15-1.351-.41a3.462 3.462 0 0 1-1.125-1.36 8.737 8.737 0 0 1-.794-2.55 21.231 21.231 0 0 1-.287-3.89c0-1.51.085-2.79.245-3.88.163-1.07.397-1.92.696-2.56.239-.53.599-1.01 1.051-1.38.387-.27.852-.42 1.327-.41h26.043v-28.04c0-.57.14-1.07.435-1.56.375-.51.888-.9 1.48-1.13.65-.33 1.54-.56 2.653-.72 1.374-.18 2.76-.26 4.145-.24 1.685 0 3.05.08 4.168.24 1.113.16 1.98.39 2.658.72.578.22 1.071.62 1.412 1.13.273.48.417 1.01.417 1.56v28.04h26.12c.44 0 .868.14 1.296.41.413.29.778.75 1.07 1.38.312.64.533 1.49.716 2.56.16 1.09.245 2.38.245 3.88Z"/><path fill="#231F20" d="M126 2364h332v10.95H126V2364Zm113.578 35.06H458V2410H239.578v-10.94Z"/><path fill="#fff" d="M447 2022c-139.588 0-258.784 68.49-306 164.99 47.219 96.5 166.416 165.01 306 165.01s258.773-68.51 306-165.01C705.773 2090.49 586.584 2022 447 2022Z"/><path fill="#fff" stroke="#000" stroke-width="3" d="M293 2185c0-86.14 69.399-156 154.998-156C533.612 2029 603 2098.86 603 2185c0 86.16-69.391 156-155.002 156C362.407 2341 293 2271.16 293 2185Z"/><path stroke="#000" stroke-miterlimit="10" stroke-width="3" d="M447 2022c-139.588 0-258.784 68.49-306 164.99 47.219 96.5 166.416 165.01 306 165.01s258.773-68.51 306-165.01C705.773 2090.49 586.584 2022 447 2022Z"/><path stroke="#000" stroke-miterlimit="10" stroke-width="3" d="M605 2043.26c-42.255-13.07-84.047-23.18-132.823-20.95C332.922 2028.62 212.713 2106.95 170 2205"/><path fill="#F59121" d="M490.7 2112.94 446.998 2187v-86c-47.485 0-85.998 38.51-85.998 86 0 47.51 38.513 86 85.998 86 47.493 0 86.002-38.49 86.002-86-.004-31.54-17.005-59.1-42.3-74.06Z"/><path stroke="#000" stroke-miterlimit="10" stroke-width="3" d="M504.39 2282.4c-52.416 30.05-119.428 12.23-149.687-39.81-30.267-52.01-12.305-118.53 40.114-148.59M535 2256.38a105.009 105.009 0 0 1-14.261 14.53"/><path fill="#fff" stroke="#000" stroke-linejoin="bevel" stroke-miterlimit="10" stroke-width="3" d="M1902.9 1277.77h-1.59c18.07 21.68 31.19 96.86 38 125.23h208.2c6.68-27.75 19.45-102.39 36.93-123.75 43.24-38.64 70.52-94.76 70.56-157.41.07-116.38-94.17-210.793-210.4-210.84-116.28-.043-210.58 94.31-210.6 210.69-.02 61.87 26.54 117.53 68.9 156.08Z"/><path fill="#F59121" d="M1949 1565.35c3.16 49.63 60.07 41.48 93.98 41.85 34.58.36 94.36 9.35 95.02-43.2"/><path stroke="#000" stroke-width="3" d="M1949 1565.35c3.16 49.63 60.07 41.48 93.98 41.85 34.58.36 94.36 9.35 95.02-43.2"/><path stroke="#000" stroke-miterlimit="10" stroke-width="3" d="M2013.92 1153.71V1392m66-238.29V1392m-108.17-235.64h150.34m-209.46 30.05c-38.35-66.45-15.6-151.41 50.79-189.774 66.38-38.359 151.25-15.605 189.58 50.844m-207.2 177.73a134.749 134.749 0 0 1-18.52-18.09"/><path fill="#fff" d="M1954 1527v-91Z"/><path stroke="#000" stroke-width="3" d="M1954 1527v-91"/><path fill="#000" d="M2033 1546.34h109V1563h-109v-16.66Zm0-32.34h109v16.66h-109V1514Z"/><path fill="#fff" stroke="#000" stroke-miterlimit="10" stroke-width="3" d="M2004.47 758.354c-29.77 0-55.71 16.659-69.03 41.166h-418.4L1477.13 756h-61.53l-42.6 46.458h88.77v69.091H1373L1415.6 918h61.53l39.91-43.501h418.4c13.32 24.488 39.26 41.155 69.02 41.155 43.3 0 78.54-35.27 78.54-78.646 0-43.372-35.23-78.654-78.53-78.654Zm0 116.013c-20.58 0-37.33-16.76-37.33-37.367 0-20.622 16.75-37.379 37.33-37.379 20.56 0 37.32 16.761 37.32 37.379 0 20.607-16.76 37.367-37.32 37.367Z"/><path fill="#fff" stroke="#000" stroke-miterlimit="10" stroke-width="2" d="M1528 1163h91v91h-91v-91Z"/><path stroke="#000" stroke-miterlimit="10" stroke-width="2" d="m1536 1170 73 75m0-75-73 75"/><path fill="#fff" stroke="#000" stroke-miterlimit="10" stroke-width="2" d="M2461 2028h90v89h-90v-89Z"/><path stroke="#000" stroke-miterlimit="10" stroke-width="2" d="m2470 2034 73 75m0-75-73 75"/><path fill="#fff" stroke="#000" stroke-linejoin="round" stroke-miterlimit="10" stroke-width="3" d="M2019 2166.69c5.67-18.2 14.87-35.11 27.07-49.76l-.17.18-16.9-34.47 30.54-24.84 30.3 23.54-.2.16c16.8-8.98 35.22-14.52 54.18-16.31l12.47-36.19 39.09 4.02 4.77 37.9c18.2 5.59 35.12 14.7 49.81 26.81l34.26-16.81 24.9 30.59-23.46 30.13a144.262 144.262 0 0 1 16.25 54.21l36.09 12.33-3.98 39.21-37.92 4.75a144.104 144.104 0 0 1-26.86 49.83l16.76 34.21-30.54 24.84-30.06-23.38a144.588 144.588 0 0 1-54.29 16.17l-12.43 36.19-39.14-4.01-4.75-38.04a144.507 144.507 0 0 1-49.73-26.86l-34.35 16.86-24.87-30.56 23.5-30.21a145.227 145.227 0 0 1-16.09-54.11l-36.25-12.42 3.98-39.17 38.02-4.79Zm180.24 8.88c-18.76-23.03-52.56-26.45-75.6-7.72-23.04 18.74-26.52 52.51-7.79 75.55 18.74 23.03 52.6 26.55 75.63 7.84 23.03-18.74 26.52-52.64 7.76-75.67Z"/><path stroke="#000" stroke-miterlimit="10" stroke-width="3" d="M2228.33 2287.2c-42.11 39.89-108.59 38.13-148.51-3.93-39.92-42.08-38.15-108.51 3.94-148.4M2251 2255.96c-2.8 5.91-6.15 11.54-10.02 16.81m-136.48-117.11c31.65-30 81.62-28.67 111.64 2.95 30 31.62 28.67 81.55-2.97 111.54"/><path stroke="#000" stroke-miterlimit="10" stroke-width="3" d="M2095 2173c1.95-4.22 4.3-8.24 7-12"/><path fill="#fff" stroke="#000" stroke-miterlimit="10" stroke-width="2.5" d="M2227.88 450.83c-77.54 77.55-203.21 77.561-280.76.027-77.49-77.49-77.51-203.195.06-280.756 77.47-77.472 203.18-77.472 280.68.023 77.52 77.538 77.51 203.219.02 280.706Z"/><path fill="#fff" d="M2204.57 450.517c-64.65 64.641-169.46 64.641-234.08.015-64.66-64.657-64.65-169.441 0-234.094 64.58-64.576 169.39-64.607 234.04.043 64.63 64.634 64.62 169.437.04 234.036Z"/><path fill="#fff" stroke="#000" stroke-miterlimit="10" stroke-width="2.5" d="M2178.26 425.048c-50.4 50.61-132.08 50.595-182.49 0-50.36-50.559-50.37-132.555.04-183.157 50.35-50.532 132.02-50.521 182.37.031 50.4 50.602 50.42 132.598.08 183.126Z"/><path fill="#F59121" d="M2149.83 398.591c-35 35.191-91.64 35.218-126.6.043-34.97-35.155-34.98-92.1.02-127.306 34.89-35.089 91.58-35.128 126.55.027 34.96 35.179 34.9 92.151.03 127.236Z"/><path fill="#FFD45B" d="M2119.01 366.806c-17.4 17.593-45.61 17.585-62.99.016-17.38-17.57-17.36-46.072.05-63.669 17.33-17.543 45.5-17.542 62.87.031 17.39 17.574 17.41 46.092.07 63.622Z"/><path fill="#F59121" d="M2225.76 297.032 2305 297l-24.79 36.98-79.21.02 24.76-36.968Z"/><path fill="#fff" d="m2293.46 303.151-16.86 25.69-64.07.016 16.85-25.678 64.08-.028ZM2314 292l-20.54.008-64.09.028h-5.9l-3.27 4.976-16.85 25.678L2192 340l20.53-.004 64.07-.016h5.9l3.27-4.976 16.86-25.69L2314 292Z"/><path fill="#F59121" d="m2202 334 75.43.031 23.57 35.907-75.42.062-23.58-36Z"/><path fill="#fff" d="m2212.19 337.679 63.05.023 16.56 24.569-63.03.049-16.58-24.641ZM2192 327l11.15 16.574 16.58 24.645 3.22 4.781 5.83-.004 63.04-.049 20.18-.015-11.16-16.559-16.57-24.565-3.22-4.766-5.81-.004-63.05-.023L2192 327Z"/><path fill="#000" stroke="#000" stroke-miterlimit="10" d="M2077.37 335.993c-2.97.007-5.37-1.097-5.37-2.493 0-1.386 2.4-2.5 5.4-2.493l197.18-.007c2.98.02 5.42 1.141 5.42 2.5.01 1.379-2.42 2.5-5.42 2.5l-197.21-.007Z"/><path stroke="#000" stroke-linecap="round" stroke-miterlimit="10" stroke-width="2" d="M2078.51 369a35.813 35.813 0 0 1-12.52-6.14 35.599 35.599 0 0 1-9.2-10.443 35.405 35.405 0 0 1-4.48-13.156c-.62-4.635-.31-9.346.91-13.862a35.585 35.585 0 0 1 6.16-12.462 35.697 35.697 0 0 1 10.49-9.164 35.843 35.843 0 0 1 13.21-4.468c4.65-.611 9.38-.302 13.92.908"/></g><defs><clipPath id="a"><path fill="#fff" d="M0 0h2600v2600H0z"/></clipPath></defs></svg>