<svg xmlns="http://www.w3.org/2000/svg" width="2600" height="2600" fill="none"><g clip-path="url(#a)"><path fill="#DBCBB9" d="M225.393 2553.9s-283.197-197.41-168.615-672.64c119.973-497.59 828.237-371.45 1089.332-754.73 261.1-383.273 666.5-541.868 1030.67-389.882 364.17 151.986 522.21 1467.012 171.78 1830.462L225.393 2553.9ZM644.394 161.114h864.476v487.691H644.394V161.114Z"/><path fill="#F4EDDF" d="M1480.48 194.114v422h-808v-422h808Z"/><path fill="#DBCBB9" d="M779.48 298.114h377.48v27.85H779.48v-27.85Zm0 65.721h594v27.85h-594v-27.85Zm0 56.81h594v27.85h-594v-27.85Zm0 56.81h594v27.85h-594v-27.85Zm0 56.809h594v27.85h-594v-27.85ZM1284.98 345.114c26.79 0 48.5-20.819 48.5-46.5s-21.71-46.5-48.5-46.5-48.5 20.819-48.5 46.5 21.71 46.5 48.5 46.5Z"/><path fill="#101E1E" d="M1776.93 340.584s-19.55-22.184-8-104.952c11.56-82.767 79.11-133.111 150.21-124.58 71.11 8.531 147.68-8.441 227.54 83.621 49.87 57.489 72.88 279.017 13.33 370.321-59.55 91.298-311.98 63.144-380.41 25.599-68.44-37.545-53.33-184.304-2.67-250.009Z"/><path fill="#39577F" d="M1764.53 580.114s-180.34 162.42-249.05 307.689l201.57 98.311 105.36-95.373 32.07-161.405s-6.11-52.823-12.22-61.632c-6.11-8.808-77.73-87.59-77.73-87.59Z"/><path fill="#2A4056" d="M1773.05 604.114s-116.24 179.33-146.56 303.233c-30.33 123.903 64.01 159.763 64.01 159.763l85.92-83.142 30.32-145.097 6.74-81.514-40.43-153.243Z"/><path fill="#E5A187" d="M1376.48 723.353s-71.11-82.078-86.39-77.784c-16.53 4.65 13.75 51.138 13.75 51.138s-105.58-64.865-122.65-62.531c-17.06 2.334 43.75 47.357 43.75 47.357s-67.15-34.631-72.91-27.376c-5.76 7.25 65.32 49.408 65.32 49.408s-61.04-28.974-68.76-23.805c-7.71 5.174 60.12 47.688 60.12 47.688s-60.33-28.268-63.18-21.272c-2.85 6.997 116.71 96.946 191.57 110.938 0 .006 34.42-78.14 39.38-93.761Z"/><path fill="#39577F" d="M1762.48 918.464s-29.87 132.846-131.72 132.646c-101.85-.2-383.89-66.197-383.89-66.197s-13.49-152.698 118.91-299.799l396.7 233.35Z"/><path fill="#39577F" d="M2344.48 1713.03s-377.17 88.08-743-3.67c0 0 15.99-171.69 47.26-412.46 3.67-27.83 7.48-56.59 11.54-86.1 26.18-192.38 61.12-417.246 104.45-630.686h430.62s41.84 247.541 81.36 526.326c13.41 94.11 26.5 191.76 37.65 284.63 14.65 121.69 25.93 235.24 30.12 321.96Z"/><path fill="#2A4056" d="M2136.56 657.114s-96.32 187.838-134.3 332.634c0 0 134.3 46.962 141.09 40.442 6.78-6.52 21.7-95.226 21.7-95.226s1.35-106.966-2.71-116.093c-4.08-9.134-4.08-61.31-4.08-61.31l-21.7-100.447Zm177.92 734.366c-267.01 14.27-579.04-68.98-666-94.04 3.68-27.78 7.48-56.5 11.54-85.97 23.49-50.68 51.94-107.25 62.39-108.49 19.02-2.3 178.3-6.89 178.3-6.89l376.09 11.17c13.43 93.97 26.52 191.49 37.68 284.22Z"/><path fill="#39577F" d="M2192.85 579.115c105.22-.726 158.63 443.405 158.63 443.405l-241.81 21.59s-43.43-464.123 83.18-464.995Z"/><path fill="#DC786E" d="m2015.75 420.114 5.73 178.415s-90.82 18.783-144 .785l34.37-160.417 103.9-18.783Z"/><path fill="#E5A187" d="M1787.62 284.238c-19.24 62.654-52.61 208.055 83.47 233.841 136.08 25.786 157.82-121.19 157.82-121.19s41.18-28.044 43.4-64.355c2.22-36.311-17.72-56.289-40.23-45.474-22.51 10.816-27.69 60.462-27.69 60.462s-23.9-15.218-30.39-45.825c0 0-101.9-20.565-130.1-75.583 0 0-46.29 25.58-56.28 58.124Z"/><path fill="#DC786E" d="M1844.37 374.87c-3.89 11.435-7.09 23.622-7.83 35.682-.61 10.017 3.2 21.404 14.28 24.422 4.24 1.157 6.05-5.188 1.82-6.345-9.73-2.654-9.88-14.302-8.85-22.113 1.33-10.151 3.88-20.18 7.18-29.895 1.37-4.036-5.23-5.763-6.6-1.751Zm197.87-73.624c-4.35 1.146-7.17 4.37-9.29 8.048a151.918 151.918 0 0 0-7.03 14.175c-4.32 9.726-7.86 20.301-7.74 30.997.05 4.496 1.41 9.199 5.65 11.665 3.59 2.091 8.98 1.794 10.85-2.296 1.81-3.988 1.11-9.575.38-13.726a35.403 35.403 0 0 0-5.81-13.805c-2.43-3.509-8.35-.218-5.91 3.321 4.02 5.811 6.03 12.623 5.37 19.616-.14 1.57-.16 2.206-1.8.958-1.31-.988-1.67-2.794-1.84-4.291-.39-3.6.21-7.49.9-11.023 1.41-7.29 4.05-14.32 7.2-21.065 1.53-3.278 3.17-6.521 4.87-9.72 1.38-2.576 2.89-5.685 6.02-6.509 4.24-1.115 2.44-7.466-1.82-6.345Z"/><path fill="#101E1E" d="M1915.41 374.717c0 14.025-6.88 25.397-15.35 25.397-8.48 0-15.35-11.372-15.35-25.397 0-14.025 6.87-25.398 15.35-25.398 8.47 0 15.35 11.373 15.35 25.398Zm-12.51-39.655c4.31.683 7.75 1.952 11.34 4.159 1.8 1.11 2.91 1.951 4.49 3.421.77.713 1.5 1.457 2.18 2.244.78.884 1.02 1.201 1.74 2.232.95 1.36 2.74 1.969 4.27 1.097 1.38-.786 2.07-2.811 1.12-4.183-5.41-7.768-13.95-13.348-23.47-14.86-1.67-.263-3.36.42-3.84 2.134-.42 1.457.49 3.488 2.17 3.756Zm-109.36 39.655c0 14.025 6.88 25.397 15.35 25.397 8.48 0 15.35-11.372 15.35-25.397 0-14.025-6.87-25.398-15.35-25.398-8.47 0-15.35 11.373-15.35 25.398Zm10.85-45.545c-9.52 1.512-18.06 7.092-23.47 14.86-.95 1.366-.26 3.391 1.12 4.183 1.55.885 3.32.275 4.28-1.097 1.06-1.525 2.24-2.897 3.8-4.36.76-.714 1.56-1.397 2.38-2.037.48-.366-.57.39.3-.213.63-.452 1.27-.879 1.93-1.281a29.188 29.188 0 0 1 11.34-4.159c1.66-.268 2.59-2.292 2.18-3.756-.5-1.744-2.19-2.409-3.86-2.14Z"/><path fill="#fff" d="M1826.03 454.666s55.59.654 82.16-5.552c0 0-16.78 26.378-43.21 27.71-26.43 1.338-38.95-22.158-38.95-22.158Zm17.02 116.283s-50.49 159.146-58.57 289.185c0 0 145.42 36.876 274.68 1.943 0 0 9.19-211.237-8.99-290.813.01-.006-136.42-21.668-207.12-.315Z"/><path fill="#873D2A" d="M1891.48 1276.11h-326.34l-63.66-509.996h326.34l63.66 509.996Z"/><path fill="#B64A30" d="M1870.48 1276.11h-326.34l-63.66-509.996h326.34l63.66 509.996Z"/><path fill="#E5A187" d="M1919.09 976.772s-97.91-51.925-110.58-42.518c-13.7 10.178 32.39 43.113 32.39 43.113s-123.6-23.643-138.68-15.45c-15.09 8.199 59.03 29.005 59.03 29.005s-76.09-8.83-78.71 0c-2.62 8.824 80.02 23.328 80.02 23.328s-68.21-5.67-73.46 1.89c-5.24 7.57 74.48 23.56 74.48 23.56s-67.27-5.27-67.27 2.3c0 7.56 146.27 49.8 221.7 36.56 0 0 2.39-85.391 1.08-101.788Z"/><path fill="#39577F" d="M2352.19 1022.93s22.38 134.22-72.68 169.84c-95.06 35.63-383.04 73.34-383.04 73.34s-70.31-137.45-2.46-320.996l458.18 77.816Z"/><path fill="#7C3C0E" d="M1583.48 1225.11h822v1316h-822v-1316Z"/><path fill="#984911" d="M1460.48 1225.11h821v1316h-821v-1316Z"/><path fill="#D5992F" d="M1326.13 1225.71h1221.35v112.4H1326.13v-112.4Zm-244.71-359.563H874.48l103.47-556.033 103.47 556.033Zm-201.938-4.033h196.928l-98.46-529.145-98.468 529.145Z"/><path fill="#7C3C0E" d="M1099.48 870.114c0 40.319-54.84 73-122.5 73-67.654 0-122.5-32.687-122.5-73h245Z"/><path fill="#D5992F" d="M840.01 858.181h275.47v15.933H840.01v-15.933Zm-545.218 8.191H87.481l103.655-556.258 103.656 556.258Zm-202.3-4.035h197.283l-98.639-529.359-98.645 529.359Z"/><path fill="#7C3C0E" d="M314.48 870.114c0 40.319-55.069 73-123 73s-123-32.687-123-73h246Z"/><path fill="#D5992F" d="M53.48 858.114h275v16h-275v-16Z"/><path fill="#7C3C0E" d="M570.48 248.114h28v660h-28v-660Z"/><path fill="#7C3C0E" d="M557.48 879.114h54v251.996h-54V879.114Z"/><path fill="#D5992F" d="M557.48 879.114h54v9h-54v-9Z"/><path fill="#DA7C2E" d="M495.48 1107.11h178v41h-178v-41Z"/><path fill="#7C3C0E" d="M435.534 1128.09h297.893v55.02H435.534v-55.02ZM980.48 298.114v13.262H757.497c-25.404 0-50.431 5.946-72.839 17.467-23.138 11.898-59.406 19.559-100.181 19.559s-77.036-7.661-100.181-19.559c-22.42-11.496-47.437-17.496-72.838-17.467H188.48v-13.262h792Z"/><path fill="#DA7C2E" d="M610.325 232.888a24.592 24.592 0 0 1-1.851 9.751 25.13 25.13 0 0 1-5.575 8.298 25.901 25.901 0 0 1-8.436 5.556 26.451 26.451 0 0 1-9.986 1.954c-3.428 0-6.823-.664-9.985-1.954a25.901 25.901 0 0 1-8.436-5.556 25.134 25.134 0 0 1-5.576-8.298 24.574 24.574 0 0 1-1.85-9.751c.106-6.606 2.876-12.906 7.711-17.541 4.836-4.635 11.35-7.233 18.136-7.233 6.787 0 13.301 2.598 18.136 7.233 4.836 4.635 7.606 10.935 7.712 17.541Zm396.155 72.667a24.73 24.73 0 0 1-1.85 9.751 25.157 25.157 0 0 1-5.579 8.298 25.916 25.916 0 0 1-8.435 5.557 26.473 26.473 0 0 1-9.986 1.953 26.47 26.47 0 0 1-9.986-1.953 25.916 25.916 0 0 1-8.435-5.557 25.118 25.118 0 0 1-5.576-8.298 24.59 24.59 0 0 1-1.851-9.751c.106-6.606 2.876-12.906 7.712-17.541s11.35-7.232 18.136-7.232 13.3 2.597 18.136 7.232c4.834 4.635 7.604 10.935 7.714 17.541Zm-792.301 0a24.59 24.59 0 0 1-1.851 9.751 25.118 25.118 0 0 1-5.576 8.298 25.916 25.916 0 0 1-8.435 5.557 26.47 26.47 0 0 1-9.986 1.953 26.47 26.47 0 0 1-9.986-1.953 25.916 25.916 0 0 1-8.435-5.557 25.118 25.118 0 0 1-5.576-8.298 24.57 24.57 0 0 1-1.85-9.751c.106-6.606 2.875-12.906 7.711-17.541s11.35-7.232 18.136-7.232 13.3 2.597 18.136 7.232c4.836 4.635 7.606 10.935 7.712 17.541Z"/><path fill="#D5992F" d="M371.48 1249.11h426v1012h-426v-1012Z"/><path fill="#B36023" d="M398.48 1290.11h9.987v930h-9.987v-930Zm60.172 0h9.987v930h-9.987v-930Zm60.166 0h9.987v930h-9.987v-930Zm60.166 0h9.987v930h-9.987v-930Zm60.172 0h9.987v930h-9.987v-930Zm60.166 0h9.986v930h-9.986v-930Zm60.172 0h9.986v930h-9.986v-930Z"/><path fill="#B36023" d="M861.713 1351.11H307.248c-47.919 0-86.768-37.38-86.768-83.5 0-46.11 38.849-83.5 86.768-83.5h554.465c47.919 0 86.767 37.39 86.767 83.5 0 46.12-38.848 83.5-86.767 83.5Z"/><path fill="#D5992F" d="M875.981 1310.11c25.128 0 45.499-19.47 45.499-43.5 0-24.02-20.371-43.5-45.499-43.5-25.129 0-45.501 19.48-45.501 43.5 0 24.03 20.372 43.5 45.501 43.5ZM294.48 1310.11c24.853 0 45-19.47 45-43.5 0-24.02-20.147-43.5-45-43.5-24.852 0-45 19.48-45 43.5 0 24.03 20.148 43.5 45 43.5ZM263.48 2224.11h641v74h-641v-74Z"/><path fill="#B36023" d="M123.48 2268.11h921v273h-921v-273Z"/><path fill="#2A4056" d="M1384.48 1762.11h496v779h-496v-779Z"/><path fill="#2A4056" d="M1384.48 1762.11h496v779h-496v-779Z"/><path fill="#39577F" d="M1384.48 1762.11h249v779h-249v-779Z"/><path fill="#D5992F" d="M1444.48 1850.11h128v603h-128v-603Z"/><path fill="#2A4056" d="M1717.48 1762.11h497v779h-497v-779Z"/><path fill="#873D2A" d="M1717.48 1762.11h497v779h-497v-779Z"/><path fill="#B64A30" d="M1717.48 1762.11h250v779h-250v-779Z"/><path fill="#D5992F" d="M1777.48 1850.11h130v603h-130v-603Z"/><path fill="#2A4056" d="M2051.48 1762.11h496v779h-496v-779Z"/><path fill="#636219" d="M2051.48 1762.11h496v779h-496v-779Z"/><path fill="#7D7C34" d="M2051.48 1762.11h249v779h-249v-779Z"/><path fill="#D5992F" d="M2111.48 1850.11h129v603h-129v-603Z"/><path fill="#873D2A" d="M1284.48 2231.11h1093v310h-1093v-310Z"/><path fill="#B64A30" d="M927.48 2231.11h1092v310h-1092v-310Z"/><path fill="#F4EDDF" d="M927.48 2258.11h1052v256h-1052v-256Z"/><path fill="#DBCBB9" d="M927.48 2370.11h1052v144h-1052v-144Z"/><path fill="#D5992F" d="m1736.48 2513.11-60.21-26.83-59.79 26.83v-169h120v169Z"/><path fill="#B36023" d="M941.981 2100.11c162.099 0 293.499-126.25 293.499-282 0-155.74-131.4-282-293.499-282-162.096 0-293.501 126.26-293.501 282 0 155.75 131.405 282 293.501 282Z"/><path fill="#D5992F" d="M1126.84 1996.11c102.14-98.24 102.13-257.52-.01-355.75-102.14-98.24-267.746-98.24-369.885 0-102.14 98.24-102.137 257.52.006 355.75 102.143 98.24 267.749 98.24 369.889 0Z"/><path fill="#B36023" d="m1105.48 1742.96-211.493 193.15-115.507-136.64 46.606-36.4 74.56 88.25 164.464-150.21 41.37 41.85Z"/><path fill="#D5992F" d="M2569.86 2600.11H31.104c-8.122 0-15.911-3.1-21.654-8.64-5.743-5.53-8.97-13.03-8.97-20.86 0-7.82 3.227-15.32 8.97-20.86 5.743-5.53 13.532-8.64 21.654-8.64H2569.85c4.03 0 8.01.77 11.72 2.25 3.72 1.48 7.09 3.65 9.94 6.39 2.84 2.74 5.1 5.99 6.64 9.57s2.33 7.42 2.33 11.29c0 3.88-.79 7.71-2.33 11.29a29.372 29.372 0 0 1-6.64 9.57c-2.84 2.74-6.22 4.91-9.93 6.4-3.72 1.48-7.7 2.24-11.72 2.24Z"/></g><defs><clipPath id="a"><path fill="#fff" d="M0 0h2600v2600H0z"/></clipPath></defs></svg>