<svg xmlns="http://www.w3.org/2000/svg" width="2300" height="2300" fill="none"><g clip-path="url(#a)"><path fill="#5AA0E0" d="M1895.87 2172.16c-172.48 33.03-350.19 19.27-713.28-15.3-203.893-19.41-613.839 12.75-818.463 15.3C214.946 2174.02 94 2003.64 94 1795.77V499.388c0-207.875 121.198-388.618 270.127-376.39 138.304 11.354 341.733 56.308 553.793 28.783 252.21-32.738 730.93-60.557 977.95-28.783C2044.43 142.105 2166 291.513 2166 499.388V1795.77c0 207.87-122.33 348.09-270.13 376.39Z"/><path fill="#BBE3FF" d="M1995.92 1253.39c-13.23 0-27.97 31.89-27.97 77.65 0 45.76 14.74 77.65 27.97 77.65 13.23 0 27.97-31.89 27.97-77.65 0-45.76-14.74-77.65-27.97-77.65Zm0 165.61c-21.82 0-38.28-37.81-38.28-87.96 0-50.15 16.46-87.97 38.28-87.97s38.28 37.82 38.28 87.97-16.46 87.96-38.28 87.96Z"/><path fill="#BBE3FF" d="M1946.42 1285.83c-8.96 0-15.35 2.23-17.75 6.38-6.62 11.46 13.63 40.17 53.26 63.05 18.61 10.74 37.68 17.92 53.72 20.23 14.03 2.04 24.31-.08 27.51-5.62 6.62-11.46-13.63-40.17-53.26-63.05-18.6-10.74-37.68-17.93-53.72-20.24-3.5-.5-6.78-.75-9.76-.75Zm98.99 100.73c-3.48 0-7.23-.28-11.23-.86-17.31-2.49-37.69-10.13-57.4-21.51-43.43-25.07-67.96-58.23-57.04-77.13 5.55-9.61 19.02-13.4 37.91-10.68 17.31 2.49 37.7 10.13 57.41 21.51 43.43 25.07 67.94 58.23 57.04 77.13-4.38 7.58-13.68 11.54-26.69 11.54Z"/><path fill="#BBE3FF" d="M1981.93 1306.82c-39.63 22.88-59.88 51.59-53.26 63.05 3.2 5.54 13.49 7.65 27.51 5.62 16.04-2.31 35.12-9.49 53.72-20.23 39.63-22.88 59.88-51.59 53.26-63.05-3.2-5.54-13.48-7.65-27.51-5.63-16.04 2.31-35.11 9.5-53.72 20.24Zm-35.51 79.74c-13.01 0-22.3-3.96-26.68-11.54-10.91-18.9 13.61-52.06 57.04-77.13 19.71-11.38 40.09-19.02 57.4-21.51 18.9-2.72 32.37 1.07 37.92 10.68 10.91 18.9-13.61 52.06-57.04 77.13-19.71 11.38-40.1 19.02-57.41 21.51-3.99.58-7.74.86-11.23.86Z"/><path fill="#BBE3FF" d="M1995.92 1321.64c-5.19 0-9.4 4.21-9.4 9.4 0 5.18 4.21 9.4 9.4 9.4 5.18 0 9.39-4.22 9.39-9.4 0-5.19-4.21-9.4-9.39-9.4Zm0 29.11c-10.87 0-19.72-8.84-19.72-19.71 0-10.87 8.85-19.71 19.72-19.71s19.71 8.84 19.71 19.71c0 10.87-8.84 19.71-19.71 19.71ZM967.854 800.341c-32.977 0-60.84 73.195-60.84 159.836 0 86.633 27.863 159.833 60.84 159.833 32.986 0 60.836-73.2 60.836-159.833 0-86.641-27.85-159.836-60.836-159.836Zm0 329.989c-39.9 0-71.153-74.74-71.153-170.153s31.253-170.15 71.153-170.15c39.896 0 71.156 74.737 71.156 170.15 0 95.413-31.26 170.153-71.156 170.153Z"/><path fill="#BBE3FF" d="M868.658 864.888c-19.122 0-33.216 4.958-39.224 15.368-7.581 13.124-.98 34.56 18.101 58.811 20.36 25.871 52.288 52.081 89.903 73.793 75.032 43.33 152.352 55.79 168.842 27.23 16.49-28.56-32.97-89.284-108.003-132.606-47.679-27.527-96.292-42.596-129.619-42.596Zm197.632 200.772c-35.41 0-84.297-15.16-134.014-43.87-82.625-47.698-131.725-112.135-111.775-146.69 19.955-34.546 100.298-24.252 182.929 23.455 82.63 47.702 131.72 112.145 111.78 146.695-7.95 13.76-25.48 20.41-48.92 20.41Z"/><path fill="#BBE3FF" d="M937.439 907.484c-37.615 21.716-69.543 47.927-89.903 73.797-19.081 24.249-25.682 45.689-18.101 58.809 16.487 28.57 93.813 16.09 168.843-27.23 75.032-43.318 124.492-104.042 108.002-132.604-16.49-28.561-93.81-16.091-168.841 27.228Zm-68.016 158.176c-23.446 0-40.972-6.64-48.921-20.41-9.941-17.21-3.215-42.2 18.929-70.344 21.151-26.878 54.128-53.995 92.846-76.351 82.633-47.702 162.983-58.001 182.933-23.455 19.95 34.555-29.15 98.992-111.78 146.69-49.707 28.71-98.601 43.87-134.007 43.87Z"/><path fill="#BBE3FF" d="M967.854 936.33c-13.147 0-23.842 10.695-23.842 23.846 0 13.147 10.695 23.842 23.842 23.842 13.152 0 23.847-10.695 23.847-23.842 0-13.151-10.695-23.846-23.847-23.846Zm0 58.006c-18.832 0-34.155-15.327-34.155-34.16 0-18.837 15.323-34.159 34.155-34.159 18.837 0 34.166 15.322 34.166 34.159 0 18.833-15.329 34.16-34.166 34.16Z"/><mask id="b" width="1942" height="62" x="190" y="1900" maskUnits="userSpaceOnUse" style="mask-type:luminance"><path fill="#fff" d="M2101.03 1961.42H220.963c-16.666 0-30.303-13.63-30.303-30.3s13.637-30.3 30.303-30.3h55.164c10.847 10.23 25.541 16.73 42.487 16.73h728.006c16.95 0 31.64-6.5 42.48-16.73h363.01c17.01 10.13 36.62 15.52 56.7 15.52h293.23c20.07 0 39.67-5.4 56.67-15.52h242.32c16.67 0 30.31 13.63 30.31 30.3s-13.64 30.3-30.31 30.3Z"/></mask><g mask="url(#b)"><path fill="url(#c)" d="M2101.03 1961.42H220.963c-16.666 0-30.303-13.63-30.303-30.3s13.637-30.3 30.303-30.3h55.164c10.847 10.23 25.541 16.73 42.487 16.73h728.006c16.95 0 31.64-6.5 42.48-16.73h363.01c17.01 10.13 36.62 15.52 56.7 15.52h293.23c20.07 0 39.67-5.4 56.67-15.52h242.32c16.67 0 30.31 13.63 30.31 30.3s-13.64 30.3-30.31 30.3Z"/></g><mask id="d" width="192" height="614" x="1559" y="874" maskUnits="userSpaceOnUse" style="mask-type:luminance"><path fill="#fff" d="M1750.91 1487.43h-190.97V874.492h190.97v612.938Z"/></mask><g mask="url(#d)"><path fill="url(#e)" d="M1750.91 1487.43h-190.97V874.492h190.97v612.938Z"/></g><mask id="f" width="229" height="60" x="1541" y="874" maskUnits="userSpaceOnUse" style="mask-type:luminance"><path fill="#fff" d="M1756.68 933.018h-202.51c-7.02 0-12.71-5.691-12.71-12.71v-33.106c0-7.02 5.69-12.71 12.71-12.71h202.51c7.02 0 12.71 5.69 12.71 12.71v33.106c0 7.019-5.69 12.71-12.71 12.71Z"/></mask><g mask="url(#f)"><path fill="url(#g)" d="M1756.68 933.018h-202.51c-7.02 0-12.71-5.691-12.71-12.71v-33.106c0-7.02 5.69-12.71 12.71-12.71h202.51c7.02 0 12.71 5.69 12.71 12.71v33.106c0 7.019-5.69 12.71-12.71 12.71Z"/></g><mask id="h" width="653" height="595" x="1329" y="1322" maskUnits="userSpaceOnUse" style="mask-type:luminance"><path fill="#fff" d="M1802.04 1916.34h-293.23c-20.08 0-39.69-5.39-56.7-15.52-6.49-3.87-12.61-8.43-18.22-13.65-64.06-59.47-104.18-144.47-104.18-238.8 0-179.9 145.82-325.72 325.71-325.72 7.53 0 15.09.25 22.72.77 162.38 11.01 293.33 143.63 302.47 306.12 5.73 101.73-35.29 194.09-103.51 257.5-5.66 5.27-11.83 9.87-18.39 13.78-17 10.12-36.6 15.52-56.67 15.52Zm-393.63-417.04c-26.48 43.56-41.67 94.48-41.67 149.06 0 80.13 33.53 157.11 92.28 211.81 13.5 12.38 31.06 19.13 49.74 19.13h259.03c45.71 0 90.02-19.92 117.64-56.34 41.21-54.34 62.18-121.85 58.19-191.25-2.67-48.25-17.25-93.39-40.84-132.41h-494.37Z"/></mask><g mask="url(#h)"><path fill="url(#i)" d="M1802.04 1916.34h-293.23c-20.08 0-39.69-5.39-56.7-15.52-6.49-3.87-12.61-8.43-18.22-13.65-64.06-59.47-104.18-144.47-104.18-238.8 0-179.9 145.82-325.72 325.71-325.72 7.53 0 15.09.25 22.72.77 162.38 11.01 293.33 143.63 302.47 306.12 5.73 101.73-35.29 194.09-103.51 257.5-5.66 5.27-11.83 9.87-18.39 13.78-17 10.12-36.6 15.52-56.67 15.52Zm-393.63-417.04c-26.48 43.56-41.67 94.48-41.67 149.06 0 80.13 33.53 157.11 92.28 211.81 13.5 12.38 31.06 19.13 49.74 19.13h259.03c45.71 0 90.02-19.92 117.64-56.34 41.21-54.34 62.18-121.85 58.19-191.25-2.67-48.25-17.25-93.39-40.84-132.41h-494.37Z"/></g><mask id="j" width="579" height="381" x="1366" y="1499" maskUnits="userSpaceOnUse" style="mask-type:luminance"><path fill="#fff" d="M1767.79 1879.3h-259.03c-18.68 0-36.24-6.75-49.74-19.13-58.75-54.7-92.28-131.68-92.28-211.81 0-54.58 15.19-105.5 41.67-149.06h494.37c23.59 39.02 38.17 84.16 40.84 132.41 3.99 69.4-16.97 136.91-58.19 191.25-27.62 36.42-71.93 56.34-117.64 56.34Zm-224.52-85.25c-12.04 0-21.81 9.76-21.81 21.8 0 12.04 9.77 21.8 21.81 21.8s21.8-9.76 21.8-21.8c0-12.04-9.76-21.8-21.8-21.8Zm279-22.51c-5.04 0-9.14 4.09-9.14 9.14 0 5.05 4.1 9.15 9.14 9.15 5.06 0 9.15-4.1 9.15-9.15 0-5.05-4.09-9.14-9.15-9.14Zm-180.06-39.39c-5.05 0-9.15 4.09-9.15 9.14 0 5.05 4.1 9.15 9.15 9.15 5.05 0 9.14-4.1 9.14-9.15 0-5.05-4.09-9.14-9.14-9.14Zm-163.42-58.38c-5.05 0-9.15 4.09-9.15 9.14 0 5.05 4.1 9.15 9.15 9.15 5.05 0 9.14-4.1 9.14-9.15 0-5.05-4.09-9.14-9.14-9.14Zm313.95-45.72c-12.05 0-21.81 9.76-21.81 21.8 0 12.05 9.76 21.81 21.81 21.81 12.03 0 21.8-9.76 21.8-21.81 0-12.04-9.77-21.8-21.8-21.8Zm-153.34-12.66c-5.05 0-9.15 4.09-9.15 9.14 0 5.05 4.1 9.15 9.15 9.15 5.04 0 9.14-4.1 9.14-9.15 0-5.05-4.1-9.14-9.14-9.14Zm-101.99-84.41c-19.43 0-35.17 15.75-35.17 35.17s15.74 35.17 35.17 35.17c19.42 0 35.16-15.75 35.16-35.17s-15.74-35.17-35.16-35.17Zm167.4 9.62c-5.05 0-9.14 4.09-9.14 9.14 0 5.05 4.09 9.15 9.14 9.15 5.05 0 9.15-4.1 9.15-9.15 0-5.05-4.1-9.14-9.15-9.14Z"/></mask><g mask="url(#j)"><path fill="url(#k)" d="M1767.79 1879.3h-259.03c-18.68 0-36.24-6.75-49.74-19.13-58.75-54.7-92.28-131.68-92.28-211.81 0-54.58 15.19-105.5 41.67-149.06h494.37c23.59 39.02 38.17 84.16 40.84 132.41 3.99 69.4-16.97 136.91-58.19 191.25-27.62 36.42-71.93 56.34-117.64 56.34Zm-224.52-85.25c-12.04 0-21.81 9.76-21.81 21.8 0 12.04 9.77 21.8 21.81 21.8s21.8-9.76 21.8-21.8c0-12.04-9.76-21.8-21.8-21.8Zm279-22.51c-5.04 0-9.14 4.09-9.14 9.14 0 5.05 4.1 9.15 9.14 9.15 5.06 0 9.15-4.1 9.15-9.15 0-5.05-4.09-9.14-9.15-9.14Zm-180.06-39.39c-5.05 0-9.15 4.09-9.15 9.14 0 5.05 4.1 9.15 9.15 9.15 5.05 0 9.14-4.1 9.14-9.15 0-5.05-4.09-9.14-9.14-9.14Zm-163.42-58.38c-5.05 0-9.15 4.09-9.15 9.14 0 5.05 4.1 9.15 9.15 9.15 5.05 0 9.14-4.1 9.14-9.15 0-5.05-4.09-9.14-9.14-9.14Zm313.95-45.72c-12.05 0-21.81 9.76-21.81 21.8 0 12.05 9.76 21.81 21.81 21.81 12.03 0 21.8-9.76 21.8-21.81 0-12.04-9.77-21.8-21.8-21.8Zm-153.34-12.66c-5.05 0-9.15 4.09-9.15 9.14 0 5.05 4.1 9.15 9.15 9.15 5.04 0 9.14-4.1 9.14-9.15 0-5.05-4.1-9.14-9.14-9.14Zm-101.99-84.41c-19.43 0-35.17 15.75-35.17 35.17s15.74 35.17 35.17 35.17c19.42 0 35.16-15.75 35.16-35.17s-15.74-35.17-35.16-35.17Zm167.4 9.62c-5.05 0-9.14 4.09-9.14 9.14 0 5.05 4.09 9.15 9.14 9.15 5.05 0 9.15-4.1 9.15-9.15 0-5.05-4.1-9.14-9.15-9.14Z"/></g><mask id="l" width="45" height="44" x="1770" y="1628" maskUnits="userSpaceOnUse" style="mask-type:luminance"><path fill="#fff" d="M1792.73 1671.66c-12.04 0-21.8-9.76-21.8-21.81 0-12.04 9.76-21.8 21.8-21.8 12.04 0 21.81 9.76 21.81 21.8 0 12.05-9.77 21.81-21.81 21.81Z"/></mask><g mask="url(#l)"><path fill="url(#m)" d="M1792.73 1671.66c-12.04 0-21.8-9.76-21.8-21.81 0-12.04 9.76-21.8 21.8-21.8 12.04 0 21.81 9.76 21.81 21.8 0 12.05-9.77 21.81-21.81 21.81Z"/></g><mask id="n" width="45" height="44" x="1521" y="1794" maskUnits="userSpaceOnUse" style="mask-type:luminance"><path fill="#fff" d="M1543.27 1837.65c-12.05 0-21.81-9.76-21.81-21.8 0-12.04 9.76-21.8 21.81-21.8 12.04 0 21.8 9.76 21.8 21.8 0 12.04-9.76 21.8-21.8 21.8Z"/></mask><g mask="url(#n)"><path fill="url(#o)" d="M1543.27 1837.65c-12.05 0-21.81-9.76-21.81-21.8 0-12.04 9.76-21.8 21.81-21.8 12.04 0 21.8 9.76 21.8 21.8 0 12.04-9.76 21.8-21.8 21.8Z"/></g><mask id="p" width="19" height="19" x="1633" y="1732" maskUnits="userSpaceOnUse" style="mask-type:luminance"><path fill="#fff" d="M1642.21 1750.44c-5.05 0-9.15-4.1-9.15-9.15 0-5.05 4.1-9.14 9.15-9.14 5.05 0 9.14 4.09 9.14 9.14 0 5.05-4.09 9.15-9.14 9.15Z"/></mask><g mask="url(#p)"><path fill="url(#q)" d="M1642.21 1750.44c-5.05 0-9.15-4.1-9.15-9.15 0-5.05 4.1-9.14 9.15-9.14 5.05 0 9.14 4.09 9.14 9.14 0 5.05-4.09 9.15-9.14 9.15Z"/></g><mask id="r" width="19" height="19" x="1630" y="1615" maskUnits="userSpaceOnUse" style="mask-type:luminance"><path fill="#fff" d="M1639.4 1633.68c-5.05 0-9.15-4.1-9.15-9.15 0-5.05 4.1-9.14 9.15-9.14 5.04 0 9.14 4.09 9.14 9.14 0 5.05-4.1 9.15-9.14 9.15Z"/></mask><g mask="url(#r)"><path fill="url(#s)" d="M1639.4 1633.68c-5.05 0-9.15-4.1-9.15-9.15 0-5.05 4.1-9.14 9.15-9.14 5.04 0 9.14 4.09 9.14 9.14 0 5.05-4.1 9.15-9.14 9.15Z"/></g><mask id="t" width="19" height="19" x="1813" y="1771" maskUnits="userSpaceOnUse" style="mask-type:luminance"><path fill="#fff" d="M1822.27 1789.83c-5.05 0-9.14-4.1-9.14-9.15 0-5.05 4.09-9.14 9.14-9.14 5.06 0 9.15 4.09 9.15 9.14 0 5.05-4.09 9.15-9.15 9.15Z"/></mask><g mask="url(#t)"><path fill="url(#u)" d="M1822.27 1789.83c-5.05 0-9.14-4.1-9.14-9.15 0-5.05 4.09-9.14 9.14-9.14 5.06 0 9.15 4.09 9.15 9.14 0 5.05-4.09 9.15-9.15 9.15Z"/></g><mask id="v" width="19" height="19" x="1695" y="1540" maskUnits="userSpaceOnUse" style="mask-type:luminance"><path fill="#fff" d="M1704.81 1558.88c-5.05 0-9.14-4.09-9.14-9.14 0-5.05 4.09-9.14 9.14-9.14 5.05 0 9.15 4.09 9.15 9.14 0 5.05-4.1 9.14-9.15 9.14Z"/></mask><g mask="url(#v)"><path fill="url(#w)" d="M1704.81 1558.88c-5.05 0-9.14-4.09-9.14-9.14 0-5.05 4.09-9.14 9.14-9.14 5.05 0 9.15 4.09 9.15 9.14 0 5.05-4.1 9.14-9.15 9.14Z"/></g><mask id="x" width="19" height="20" x="1469" y="1673" maskUnits="userSpaceOnUse" style="mask-type:luminance"><path fill="#fff" d="M1478.79 1692.06c-5.05 0-9.15-4.1-9.15-9.15 0-5.05 4.1-9.14 9.15-9.14 5.05 0 9.14 4.09 9.14 9.14 0 5.05-4.09 9.15-9.14 9.15Z"/></mask><g mask="url(#x)"><path fill="url(#y)" d="M1478.79 1692.06c-5.05 0-9.15-4.1-9.15-9.15 0-5.05 4.1-9.14 9.15-9.14 5.05 0 9.14 4.09 9.14 9.14 0 5.05-4.09 9.15-9.14 9.15Z"/></g><mask id="z" width="71" height="72" x="1502" y="1530" maskUnits="userSpaceOnUse" style="mask-type:luminance"><path fill="#fff" d="M1537.41 1601.32c-19.43 0-35.17-15.75-35.17-35.17s15.74-35.17 35.17-35.17c19.42 0 35.16 15.75 35.16 35.17s-15.74 35.17-35.16 35.17Z"/></mask><g mask="url(#z)"><path fill="url(#A)" d="M1537.41 1601.32c-19.43 0-35.17-15.75-35.17-35.17s15.74-35.17 35.17-35.17c19.42 0 35.16 15.75 35.16 35.17s-15.74 35.17-35.16 35.17Z"/></g><mask id="B" width="337" height="102" x="1527" y="700" maskUnits="userSpaceOnUse" style="mask-type:luminance"><path fill="#fff" d="M1842.03 801.637H1549.3c-11.94 0-21.71-9.775-21.71-21.717 0-11.941 9.77-21.717 21.71-21.717h20.06c2.4-11.385 12.55-20.005 24.62-20.005h44.22c-.02-.552-.16-1.072-.16-1.633 0-19.637 16.06-35.701 35.7-35.701h7.06c19.64 0 35.7 16.064 35.7 35.701 0 .561-.14 1.081-.16 1.633h20.79c12.07 0 22.22 8.62 24.62 20.005h80.28c11.94 0 21.71 9.776 21.71 21.717 0 11.942-9.77 21.717-21.71 21.717Z"/></mask><g mask="url(#B)"><path fill="url(#C)" d="M1842.03 801.637H1549.3c-11.94 0-21.71-9.775-21.71-21.717 0-11.941 9.77-21.717 21.71-21.717h20.06c2.4-11.385 12.55-20.005 24.62-20.005h44.22c-.02-.552-.16-1.072-.16-1.633 0-19.637 16.06-35.701 35.7-35.701h7.06c19.64 0 35.7 16.064 35.7 35.701 0 .561-.14 1.081-.16 1.633h20.79c12.07 0 22.22 8.62 24.62 20.005h80.28c11.94 0 21.71 9.776 21.71 21.717 0 11.942-9.77 21.717-21.71 21.717Z"/></g><mask id="D" width="853" height="648" x="256" y="1270" maskUnits="userSpaceOnUse" style="mask-type:luminance"><path fill="#fff" d="M1046.62 1917.55H318.615c-16.947 0-31.64-6.5-42.488-16.73-19.762-18.66-26.752-49.71-11.313-76.46l319.998-554.25v100.42h-13.363l-17.586 30.46a57.6 57.6 0 0 0-2.015-.64 39.52 39.52 0 0 0-.819-.96s-9.034-3.33-17.963-3.33c-5.575 0-11.113 1.3-14.384 5.52-5.962 7.69-23.695 61.56-32.039 115.82l-165.576 286.71c-20.666 35.88 5.186 80.64 46.59 80.64h629.949c41.404 0 67.254-44.76 46.524-80.64L915.952 1582.1h44.601l139.867 242.26c15.44 26.75 8.45 57.8-11.31 76.46-10.85 10.23-25.54 16.73-42.49 16.73Zm-147.978-442.68h-44.597l-60.232-104.34h-13.391v-100.42l118.22 204.76Z"/></mask><g mask="url(#D)"><path fill="url(#E)" d="M1046.62 1917.55H318.615c-16.947 0-31.64-6.5-42.488-16.73-19.762-18.66-26.752-49.71-11.313-76.46l319.998-554.25v100.42h-13.363l-17.586 30.46a57.6 57.6 0 0 0-2.015-.64 39.52 39.52 0 0 0-.819-.96s-9.034-3.33-17.963-3.33c-5.575 0-11.113 1.3-14.384 5.52-5.962 7.69-23.695 61.56-32.039 115.82l-165.576 286.71c-20.666 35.88 5.186 80.64 46.59 80.64h629.949c41.404 0 67.254-44.76 46.524-80.64L915.952 1582.1h44.601l139.867 242.26c15.44 26.75 8.45 57.8-11.31 76.46-10.85 10.23-25.54 16.73-42.49 16.73Zm-147.978-442.68h-44.597l-60.232-104.34h-13.391v-100.42l118.22 204.76Z"/></g><mask id="F" width="197" height="586" x="584" y="785" maskUnits="userSpaceOnUse" style="mask-type:luminance"><path fill="#fff" d="M780.423 1370.53h-20.985l1.596-4.47 4.977-13.95-57.532-20.51-4.977 13.95-8.91 24.98h-109.78V785.56h195.611v584.97Z"/></mask><g mask="url(#F)"><path fill="url(#G)" d="M780.423 1370.53h-20.985l1.596-4.47 4.977-13.95-57.532-20.51-4.977 13.95-8.91 24.98h-109.78V785.56h195.611v584.97Z"/></g><mask id="H" width="233" height="46" x="566" y="785" maskUnits="userSpaceOnUse" style="mask-type:luminance"><path fill="#fff" d="M786.31 830.553H578.923c-6.937 0-12.558-5.626-12.558-12.558v-19.877c0-6.937 5.621-12.558 12.558-12.558H786.31c6.936 0 12.558 5.621 12.558 12.558v19.877c0 6.932-5.622 12.558-12.558 12.558Z"/></mask><g mask="url(#H)"><path fill="url(#I)" d="M786.31 830.553H578.923c-6.937 0-12.558-5.626-12.558-12.558v-19.877c0-6.937 5.621-12.558 12.558-12.558H786.31c6.936 0 12.558 5.621 12.558 12.558v19.877c0 6.932-5.622 12.558-12.558 12.558Z"/></g><mask id="J" width="739" height="515" x="313" y="1370" maskUnits="userSpaceOnUse" style="mask-type:luminance"><path fill="#fff" d="M997.607 1884.75H367.658c-41.404 0-67.256-44.76-46.59-80.63l165.576-286.72c-.727 4.71-1.38 9.42-1.95 14.11-7.126 58.65-.548 160.62-.548 160.62l67.252-1.71s.451-39.3 1.44-79.81c4.172-.27 7.903-.65 11.187-1.08a20.44 20.44 0 0 0-1.969 8.79c0 3.63.934 7.03 2.581 9.98-.906 33.54-.943 61.81-.943 61.81l16.91.31s1.113-22.09 2.764-51.56c10.994-.41 19.78-9.45 19.78-20.54 0-10.27-7.544-18.79-17.402-20.3.322-5.3.654-10.63.989-15.92h32.407l-1.748 4.86-12.875 36.11c-5.686 15.88 2.622 33.36 18.497 39.04a30.357 30.357 0 0 0 10.239 1.78c12.549 0 24.325-7.78 28.782-20.29l21.933-61.5h231.983l128.177 222.02c20.73 35.87-5.12 80.63-46.523 80.63Zm-610.198-61.28a5.34 5.34 0 1 0 0 10.68 5.341 5.341 0 1 0 0-10.68Zm479.384-16.46c-7.034 0-12.738 5.7-12.738 12.74 0 7.03 5.704 12.74 12.738 12.74 7.038 0 12.742-5.71 12.742-12.74 0-7.04-5.704-12.74-12.742-12.74Zm-241.086 3.96a5.347 5.347 0 0 0-5.341 5.34c0 2.96 2.392 5.36 5.341 5.36 2.953 0 5.345-2.4 5.345-5.36 0-2.94-2.392-5.34-5.345-5.34Zm-97.083-35.58c-7.034 0-12.738 5.7-12.738 12.75 0 7.03 5.704 12.73 12.738 12.73 7.038 0 12.742-5.7 12.742-12.73 0-7.05-5.704-12.75-12.742-12.75Zm115.211-60.08a5.337 5.337 0 0 0-5.34 5.34c0 2.95 2.387 5.34 5.34 5.34a5.344 5.344 0 0 0 5.345-5.34c0-2.95-2.396-5.34-5.345-5.34Zm-190.788-17.41c-7.037 0-12.74 5.71-12.74 12.74s5.703 12.74 12.74 12.74 12.741-5.71 12.741-12.74-5.704-12.74-12.741-12.74Zm297.03-41.35a5.338 5.338 0 0 0-5.341 5.34c0 2.96 2.388 5.34 5.341 5.34a5.335 5.335 0 0 0 5.345-5.34c0-2.95-2.392-5.34-5.345-5.34Zm58.36-61.93c-7.038 0-12.742 5.7-12.742 12.74s5.704 12.74 12.742 12.74c7.033 0 12.737-5.7 12.737-12.74s-5.704-12.74-12.737-12.74Zm-172.482-97.04h-40.457c1.923-8.39 4.168-16.61 6.459-24.96l3.85.98s3.51 1 9.122 2.58a5499.76 5499.76 0 0 0 22.319 6.34 13.276 13.276 0 0 0-1.293 5.75v9.31Zm218.091-22.71h-88.518l-.032-.84c-6.73-.64-24.684-2-41.809-3.25l35.751-100.25h34.376l60.232 104.34Zm-189.308-20.61c-27.435-16.36-52.739-27.18-56.429-29a3585.8 3585.8 0 0 1-7.102-3.47c-4.342-3.72-8.786-5.05-8.786-5.05s-.014.23-.032.64c-.161-.06-.322-.11-.483-.17 0 0 .234-2.11-4.182-4l-.657 2.31-18.157-13.03-14.738-1.4c-.101-.03-.207-.07-.308-.1l17.586-30.46h123.142l-29.854 83.73Z"/></mask><g mask="url(#J)"><path fill="url(#K)" d="M997.607 1884.75H367.658c-41.404 0-67.256-44.76-46.59-80.63l165.576-286.72c-.727 4.71-1.38 9.42-1.95 14.11-7.126 58.65-.548 160.62-.548 160.62l67.252-1.71s.451-39.3 1.44-79.81c4.172-.27 7.903-.65 11.187-1.08a20.44 20.44 0 0 0-1.969 8.79c0 3.63.934 7.03 2.581 9.98-.906 33.54-.943 61.81-.943 61.81l16.91.31s1.113-22.09 2.764-51.56c10.994-.41 19.78-9.45 19.78-20.54 0-10.27-7.544-18.79-17.402-20.3.322-5.3.654-10.63.989-15.92h32.407l-1.748 4.86-12.875 36.11c-5.686 15.88 2.622 33.36 18.497 39.04a30.357 30.357 0 0 0 10.239 1.78c12.549 0 24.325-7.78 28.782-20.29l21.933-61.5h231.983l128.177 222.02c20.73 35.87-5.12 80.63-46.523 80.63Zm-610.198-61.28a5.34 5.34 0 1 0 0 10.68 5.341 5.341 0 1 0 0-10.68Zm479.384-16.46c-7.034 0-12.738 5.7-12.738 12.74 0 7.03 5.704 12.74 12.738 12.74 7.038 0 12.742-5.71 12.742-12.74 0-7.04-5.704-12.74-12.742-12.74Zm-241.086 3.96a5.347 5.347 0 0 0-5.341 5.34c0 2.96 2.392 5.36 5.341 5.36 2.953 0 5.345-2.4 5.345-5.36 0-2.94-2.392-5.34-5.345-5.34Zm-97.083-35.58c-7.034 0-12.738 5.7-12.738 12.75 0 7.03 5.704 12.73 12.738 12.73 7.038 0 12.742-5.7 12.742-12.73 0-7.05-5.704-12.75-12.742-12.75Zm115.211-60.08a5.337 5.337 0 0 0-5.34 5.34c0 2.95 2.387 5.34 5.34 5.34a5.344 5.344 0 0 0 5.345-5.34c0-2.95-2.396-5.34-5.345-5.34Zm-190.788-17.41c-7.037 0-12.74 5.71-12.74 12.74s5.703 12.74 12.74 12.74 12.741-5.71 12.741-12.74-5.704-12.74-12.741-12.74Zm297.03-41.35a5.338 5.338 0 0 0-5.341 5.34c0 2.96 2.388 5.34 5.341 5.34a5.335 5.335 0 0 0 5.345-5.34c0-2.95-2.392-5.34-5.345-5.34Zm58.36-61.93c-7.038 0-12.742 5.7-12.742 12.74s5.704 12.74 12.742 12.74c7.033 0 12.737-5.7 12.737-12.74s-5.704-12.74-12.737-12.74Zm-172.482-97.04h-40.457c1.923-8.39 4.168-16.61 6.459-24.96l3.85.98s3.51 1 9.122 2.58a5499.76 5499.76 0 0 0 22.319 6.34 13.276 13.276 0 0 0-1.293 5.75v9.31Zm218.091-22.71h-88.518l-.032-.84c-6.73-.64-24.684-2-41.809-3.25l35.751-100.25h34.376l60.232 104.34Zm-189.308-20.61c-27.435-16.36-52.739-27.18-56.429-29a3585.8 3585.8 0 0 1-7.102-3.47c-4.342-3.72-8.786-5.05-8.786-5.05s-.014.23-.032.64c-.161-.06-.322-.11-.483-.17 0 0 .234-2.11-4.182-4l-.657 2.31-18.157-13.03-14.738-1.4c-.101-.03-.207-.07-.308-.1l17.586-30.46h123.142l-29.854 83.73Z"/></g><mask id="L" width="27" height="27" x="795" y="1594" maskUnits="userSpaceOnUse" style="mask-type:luminance"><path fill="#fff" d="M808.435 1620.1c-7.038 0-12.742-5.7-12.742-12.74s5.704-12.74 12.742-12.74c7.034 0 12.738 5.7 12.738 12.74s-5.704 12.74-12.738 12.74Z"/></mask><g mask="url(#L)"><path fill="url(#M)" d="M808.435 1620.1c-7.038 0-12.742-5.7-12.742-12.74s5.704-12.74 12.742-12.74c7.034 0 12.738 5.7 12.738 12.74s-5.704 12.74-12.738 12.74Z"/></g><mask id="N" width="26" height="26" x="854" y="1807" maskUnits="userSpaceOnUse" style="mask-type:luminance"><path fill="#fff" d="M866.792 1832.49c-7.033 0-12.737-5.71-12.737-12.74 0-7.04 5.704-12.74 12.737-12.74 7.038 0 12.742 5.7 12.742 12.74 0 7.03-5.704 12.74-12.742 12.74Z"/></mask><g mask="url(#N)"><path fill="url(#O)" d="M866.792 1832.49c-7.033 0-12.737-5.71-12.737-12.74 0-7.04 5.704-12.74 12.737-12.74 7.038 0 12.742 5.7 12.742 12.74 0 7.03-5.704 12.74-12.742 12.74Z"/></g><mask id="P" width="27" height="26" x="515" y="1775" maskUnits="userSpaceOnUse" style="mask-type:luminance"><path fill="#fff" d="M528.622 1800.87c-7.033 0-12.737-5.7-12.737-12.73 0-7.05 5.704-12.75 12.737-12.75 7.038 0 12.742 5.7 12.742 12.75 0 7.03-5.704 12.73-12.742 12.73Z"/></mask><g mask="url(#P)"><path fill="url(#Q)" d="M528.622 1800.87c-7.033 0-12.737-5.7-12.737-12.73 0-7.05 5.704-12.75 12.737-12.75 7.038 0 12.742 5.7 12.742 12.75 0 7.03-5.704 12.73-12.742 12.73Z"/></g><mask id="R" width="26" height="27" x="440" y="1697" maskUnits="userSpaceOnUse" style="mask-type:luminance"><path fill="#fff" d="M453.046 1723.38c-7.036 0-12.739-5.71-12.739-12.74s5.703-12.74 12.739-12.74c7.037 0 12.741 5.71 12.741 12.74s-5.704 12.74-12.741 12.74Z"/></mask><g mask="url(#R)"><path fill="url(#S)" d="M453.046 1723.38c-7.036 0-12.739-5.71-12.739-12.74s5.703-12.74 12.739-12.74c7.037 0 12.741 5.71 12.741 12.74s-5.704 12.74-12.741 12.74Z"/></g><mask id="T" width="12" height="11" x="638" y="1715" maskUnits="userSpaceOnUse" style="mask-type:luminance"><path fill="#fff" d="M643.835 1725.99a5.338 5.338 0 0 1-5.341-5.34c0-2.95 2.388-5.34 5.341-5.34a5.345 5.345 0 0 1 5.345 5.34c0 2.95-2.397 5.34-5.345 5.34Z"/></mask><g mask="url(#T)"><path fill="url(#U)" d="M643.835 1725.99a5.338 5.338 0 0 1-5.341-5.34c0-2.95 2.388-5.34 5.341-5.34a5.345 5.345 0 0 1 5.345 5.34c0 2.95-2.397 5.34-5.345 5.34Z"/></g><mask id="V" width="12" height="12" x="744" y="1656" maskUnits="userSpaceOnUse" style="mask-type:luminance"><path fill="#fff" d="M750.075 1667.23a5.332 5.332 0 0 1-5.341-5.34c0-2.95 2.388-5.34 5.341-5.34a5.341 5.341 0 0 1 5.345 5.34c0 2.96-2.392 5.34-5.345 5.34Z"/></mask><g mask="url(#V)"><path fill="url(#W)" d="M750.075 1667.23a5.332 5.332 0 0 1-5.341-5.34c0-2.95 2.388-5.34 5.341-5.34a5.341 5.341 0 0 1 5.345 5.34c0 2.96-2.392 5.34-5.345 5.34Z"/></g><mask id="X" width="11" height="12" x="382" y="1823" maskUnits="userSpaceOnUse" style="mask-type:luminance"><path fill="#fff" d="M387.409 1834.15a5.34 5.34 0 1 1 0-10.68 5.341 5.341 0 1 1 0 10.68Z"/></mask><g mask="url(#X)"><path fill="url(#Y)" d="M387.409 1834.15a5.34 5.34 0 1 1 0-10.68 5.341 5.341 0 1 1 0 10.68Z"/></g><mask id="Z" width="12" height="12" x="620" y="1810" maskUnits="userSpaceOnUse" style="mask-type:luminance"><path fill="#fff" d="M625.706 1821.67c-2.949 0-5.341-2.4-5.341-5.36 0-2.94 2.392-5.34 5.341-5.34 2.953 0 5.345 2.4 5.345 5.34 0 2.96-2.392 5.36-5.345 5.36Z"/></mask><g mask="url(#Z)"><path fill="url(#aa)" d="M625.706 1821.67c-2.949 0-5.341-2.4-5.341-5.36 0-2.94 2.392-5.34 5.341-5.34 2.953 0 5.345 2.4 5.345 5.34 0 2.96-2.392 5.36-5.345 5.36Z"/></g><mask id="ab" width="42" height="41" x="562" y="1598" maskUnits="userSpaceOnUse" style="mask-type:luminance"><path fill="#fff" d="M583.366 1638.86c.709-12.64 1.518-26.64 2.379-40.84 9.857 1.51 17.401 10.03 17.401 20.3 0 11.09-8.786 20.13-19.78 20.54Zm-18.731-10.56a20.395 20.395 0 0 1-2.58-9.98c0-3.14.704-6.13 1.969-8.79.409-.05.809-.1 1.205-.16-.235 6.39-.428 12.75-.594 18.93Z"/></mask><g mask="url(#ab)"><path fill="url(#ac)" d="M583.366 1638.86c.709-12.64 1.518-26.64 2.379-40.84 9.857 1.51 17.401 10.03 17.401 20.3 0 11.09-8.786 20.13-19.78 20.54Zm-18.731-10.56a20.395 20.395 0 0 1-2.58-9.98c0-3.14.704-6.13 1.969-8.79.409-.05.809-.1 1.205-.16-.235 6.39-.428 12.75-.594 18.93Z"/></g><path fill="#03254E" d="M1441.85 1883.46H989.275l109.055-151.31h316.26l27.26 151.31Z"/><path fill="#11477C" d="M1553.79 940.512C1504.44 892.253 1445 854.243 1379 830.006l-74.16 74.161c70.23 17.204 133.23 53.001 183.43 101.863 74.63 72.63 121.03 174.08 121.03 286.17 0 220.24-179.18 399.42-399.43 399.42-145.18 0-272.533-77.87-342.439-194.04-4.472-7.41-8.727-14.96-12.706-22.71H752.891c3.082 7.66 6.325 15.24 9.788 22.71 77.947 169.1 249.091 286.74 447.191 286.74 271.37 0 492.13-220.76 492.13-492.12 0-137.66-56.79-262.29-148.21-351.688Z"/><path fill="#03254E" d="M1104.91 1582.1H584.15c-10.539 0-19.086-8.54-19.086-19.08v-46.35c0-10.54 8.547-19.09 19.086-19.09h520.76c10.54 0 19.08 8.55 19.08 19.09v46.35c0 10.54-8.54 19.08-19.08 19.08Z"/><path fill="#5094CC" d="M1061.28 1488.27v9.31H635.955v-9.31c0-7.4 5.998-13.4 13.4-13.4h398.525c7.4 0 13.4 6 13.4 13.4Z"/><path fill="#03254E" d="M1570.84 1919.9H989.197v-38.17h581.643v38.17Z"/><path fill="#F0F5F7" d="m1031.13 1251.03 70.74-106.08-49.21-32.82-70.744 106.08 49.214 32.82Z"/><path fill="#11477C" d="m1066.1 1239.29 54.55-81.81-86.77-57.87-54.558 81.81 86.778 57.87Z"/><path fill="#F0F5F7" d="m1541.14 598.819-411.77 617.431-153.102-102.1 411.772-617.437 153.1 102.106Z"/><path fill="#03254E" d="m1564.43 603.772 23.71-35.557a8.792 8.792 0 0 0-2.44-12.204L1410.43 439.12c-4.04-2.696-9.51-1.601-12.2 2.443l-23.72 35.553c-2.69 4.044-1.6 9.508 2.44 12.204l175.27 116.89a8.807 8.807 0 0 0 12.21-2.438Z"/><path fill="#F0F5F7" d="m1629.86 402.343-84.53 126.748-94.54-63.047 84.53-126.753 94.54 63.052Z"/><path fill="#03254E" d="m1636.68 408.433 14.54-21.804c3.84-5.759 2.29-13.547-3.47-17.392l-88.74-59.175c-5.76-3.841-13.54-2.286-17.39 3.478l-14.54 21.804c-3.84 5.764-2.29 13.547 3.47 17.393l88.74 59.174c5.76 3.841 13.54 2.286 17.39-3.478Z"/><path fill="#F0F5F7" d="m1359.36 587.282-28.45 42.669-24-16.003a9.61 9.61 0 0 1-2.67-13.34l17.79-26.666c2.94-4.421 8.91-5.612 13.33-2.664l24 16.004ZM1310.61 660.385l-28.46 42.669-23.99-16.008c-4.43-2.944-5.62-8.919-2.67-13.335l17.79-26.666c2.94-4.421 8.91-5.612 13.33-2.668l24 16.008ZM1261.86 733.488l-28.46 42.665-23.99-16.008c-4.42-2.944-5.62-8.915-2.67-13.331l17.79-26.671c2.94-4.416 8.91-5.612 13.33-2.663l24 16.008Z"/><path fill="#03254E" d="m1128.97 1234.53 5.39-8.1c1.75-2.61 1.04-6.15-1.57-7.9l-159.941-106.66a5.695 5.695 0 0 0-7.903 1.58l-5.391 8.09a5.692 5.692 0 0 0 1.578 7.9l159.937 106.66a5.698 5.698 0 0 0 7.9-1.57ZM1462.07 879.355c0 54.588-44.25 98.835-98.83 98.835-54.59 0-98.84-44.247-98.84-98.835 0-54.584 44.25-98.831 98.84-98.831 54.58 0 98.83 44.247 98.83 98.831Z"/><path fill="#F0F5F7" d="M1422.54 879.354c0 32.752-26.55 59.303-59.3 59.303-32.76 0-59.31-26.551-59.31-59.303 0-32.747 26.55-59.298 59.31-59.298 32.75 0 59.3 26.551 59.3 59.298Z"/><path fill="#03254E" d="M1296.67 1760c0 32-25.94 57.94-57.94 57.94-32 0-57.94-25.94-57.94-57.94 0-32 25.94-57.93 57.94-57.93 32 0 57.94 25.93 57.94 57.93Z"/><path fill="#F0F5F7" d="M1273.49 1760c0 19.2-15.57 34.77-34.76 34.77-19.2 0-34.76-15.57-34.76-34.77 0-19.19 15.56-34.76 34.76-34.76 19.19 0 34.76 15.57 34.76 34.76Z"/><path fill="#C3D3DD" d="m1975.17 1862.32-276-132.4a6.53 6.53 0 0 1 0-11.78l263.72-126.51-263.72-126.49a6.556 6.556 0 0 1-3.71-5.9c0-2.51 1.45-4.8 3.72-5.89l263.7-126.49-263.7-126.49a6.522 6.522 0 0 1-3.72-5.89c0-2.51 1.45-4.8 3.72-5.89l275.99-132.38 5.65 11.79-263.7 126.48 263.7 126.49a6.522 6.522 0 0 1 0 11.78l-263.7 126.49 263.71 126.5a6.53 6.53 0 0 1 3.71 5.89c0 2.51-1.45 4.8-3.71 5.89l-263.72 126.51 263.72 126.51-5.66 11.78Z"/><path fill="#DCE8EF" d="m1704.83 1862.32-5.66-11.78 263.72-126.51-263.72-126.51a6.552 6.552 0 0 1-3.71-5.89 6.53 6.53 0 0 1 3.71-5.89l263.71-126.5-263.7-126.49a6.522 6.522 0 0 1 0-11.78l263.7-126.49-263.7-126.48 5.64-11.79 276 132.38a6.544 6.544 0 0 1 3.72 5.89c0 2.52-1.45 4.81-3.72 5.89l-263.7 126.49 263.7 126.49a6.544 6.544 0 0 1 3.72 5.89c0 2.52-1.45 4.81-3.71 5.9l-263.72 126.49 263.72 126.51a6.53 6.53 0 0 1 0 11.78l-276 132.4Z"/><path fill="#11477C" d="M2022.06 1073.02h-347.75c-4.11 0-7.45-3.33-7.45-7.44v-52.54c0-4.11 3.34-7.45 7.45-7.45h347.75c4.11 0 7.44 3.34 7.44 7.45v52.54c0 4.11-3.33 7.44-7.44 7.44ZM2022.06 1920.63h-347.75c-4.11 0-7.45-3.33-7.45-7.44v-52.54c0-4.11 3.34-7.45 7.45-7.45h347.75c4.11 0 7.44 3.34 7.44 7.45v52.54c0 4.11-3.33 7.44-7.44 7.44Z"/><path fill="#F8FAFB" d="M1464.79 1807.02c28.05 0 50.86 22.82 50.86 50.86 0 28.05-22.81 50.87-50.86 50.87h-409.9v-101.73h409.9Z"/><path fill="#CED7E0" d="M1491.99 1884.72h-437.11v-4.24h437.11v4.24ZM1500.61 1868.23h-445.73v-4.24h445.73v4.24ZM1500.61 1851.76h-445.73v-4.23h445.73v4.23ZM1492.02 1835.29h-437.14v-4.22h437.14v4.22Z"/><mask id="ad" width="482" height="124" x="1045" y="1796" maskUnits="userSpaceOnUse" style="mask-type:luminance"><path fill="#fff" d="M1045.22 1796.54h419.57c33.83 0 61.34 27.52 61.34 61.34 0 33.82-27.51 61.35-61.34 61.35h-419.57v-20.96h419.57c22.27 0 40.39-18.12 40.39-40.39s-18.12-40.39-40.39-40.39h-419.57v-20.95Z"/></mask><g mask="url(#ad)"><path fill="url(#ae)" d="M1045.22 1796.54h419.57c33.83 0 61.34 27.52 61.34 61.34 0 33.82-27.51 61.35-61.34 61.35h-419.57v-20.96h419.57c22.27 0 40.39-18.12 40.39-40.39s-18.12-40.39-40.39-40.39h-419.57v-20.95Z"/></g><path fill="#F8FAFB" d="M1157.18 1786.07c-28.05 0-50.87-22.83-50.87-50.87s22.82-50.86 50.87-50.86h409.89v101.73h-409.89Z"/><path fill="#CED7E0" d="M1567.08 1712.6h-437.11v-4.23h437.11v4.23ZM1567.08 1729.09h-445.73v-4.23h445.73v4.23ZM1567.08 1745.56h-445.73v-4.23h445.73v4.23ZM1567.08 1762.02h-437.13v-4.23h437.13v4.23Z"/><mask id="af" width="482" height="124" x="1095" y="1673" maskUnits="userSpaceOnUse" style="mask-type:luminance"><path fill="#fff" d="M1576.75 1796.54h-419.57c-33.83 0-61.34-27.51-61.34-61.34 0-33.82 27.51-61.34 61.34-61.34h419.57v20.95h-419.57c-22.28 0-40.39 18.12-40.39 40.39s18.11 40.39 40.39 40.39h419.57v20.95Z"/></mask><g mask="url(#af)"><path fill="url(#ag)" d="M1576.75 1796.54h-419.57c-33.83 0-61.34-27.51-61.34-61.34 0-33.82 27.51-61.34 61.34-61.34h419.57v20.95h-419.57c-22.28 0-40.39 18.12-40.39 40.39s18.11 40.39 40.39 40.39h419.57v20.95Z"/></g><path fill="#F8FAFB" d="M1088.86 1663.38c-28.05 0-50.87-22.82-50.87-50.86s22.82-50.87 50.87-50.87h409.89v101.73h-409.89Z"/><path fill="#CED7E0" d="M1498.76 1589.21h-437.11v-2.82h437.11v2.82ZM1498.76 1605.7h-445.73v-2.82h445.73v2.82ZM1498.76 1622.17h-445.73v-2.82h445.73v2.82ZM1498.76 1638.64h-437.13v-2.83h437.13v2.83Z"/><mask id="ah" width="482" height="123" x="1027" y="1551" maskUnits="userSpaceOnUse" style="mask-type:luminance"><path fill="#fff" d="M1508.43 1673.86h-419.57c-33.83 0-61.34-27.52-61.34-61.34 0-33.82 27.51-61.34 61.34-61.34h419.57v20.95h-419.57c-22.28 0-40.39 18.12-40.39 40.39s18.11 40.39 40.39 40.39h419.57v20.95Z"/></mask><g mask="url(#ah)"><path fill="url(#ai)" d="M1508.43 1673.86h-419.57c-33.83 0-61.34-27.52-61.34-61.34 0-33.82 27.51-61.34 61.34-61.34h419.57v20.95h-419.57c-22.28 0-40.39 18.12-40.39 40.39s18.11 40.39 40.39 40.39h419.57v20.95Z"/></g><path fill="#FFC8AF" d="M1839.11 994.833c-1.79-12.682-7.39-30.962-10.34-45.153-2.95-14.187-29.13-13.161-22.22 6.596 6.91 19.752 9.86 34.817 9.86 34.817s-.66 8.713 9.64 9.407c10.3.7 13.48-3.845 13.06-5.667ZM1841.34 828.763c-15.04-1.265-16.11-85.454-13.8-121.192 2.32-35.742 10.83-63.461 29.19-61.92 18.36 1.545 22.13 30.295 18.45 65.922-3.68 35.627-18.79 118.455-33.84 117.19Z"/><path fill="#FFC8AF" d="M1913.12 984.207c-12.41 5.009-58.03-103.979-67.98-128.625-9.96-24.643-18.56-51.428-4.65-57.05 13.92-5.621 26.33 19.624 36.29 44.271 9.95 24.647 48.75 136.39 36.34 141.404Z"/><path fill="#FFC8AF" d="M1920.86 997.34c-8.13 5.59-24.97 9.2-26.5 6.36-1.56-2.79 1.09-10.831 3.42-16.6l.03-.05c.7-1.707 1.36-3.225 1.86-4.343.6-1.412 1-2.24 1-2.24s-26.96-106.531-21.97-107.883c5.41-1.463 41.49 104.263 41.49 104.263s.18.667.48 1.61l.41 1.366 2.75 9.168c.35 1.113 3 4.324-2.97 8.349Z"/><path fill="#11477C" d="M1920.86 997.34c-8.13 5.59-24.97 9.2-26.5 6.36-1.56-2.79 1.09-10.831 3.42-16.6l.03-.05c.7-1.707 1.36-3.225 1.86-4.343.51 1.068 1.29 2.641 1.9 4.039 1.06 2.438 2.45 2.466 7.42-.796 3.49-2.286 8.98-4.751 12.09-6.127 0 0 3.22 6.739 4.1 9.067.41 1.085 1.65 4.425-4.32 8.45Z"/><path fill="#FFC8AF" d="M1913.5 598.758c-10.04 4.177-39.71-51.911-50.53-76.649-10.83-24.739-14.93-46.166-2.67-51.267 12.25-5.102 24.56 12.916 34.47 38.037 9.92 25.116 28.78 85.703 18.73 89.879Z"/><path fill="#FFC8AF" d="M1856.8 702.341c-8.76-4.02 18.39-69.649 26.74-87.869 8.35-18.216 18.5-36.828 28.33-32.324 9.84 4.503 2.37 24.352-5.98 42.568-8.35 18.216-40.32 81.641-49.09 77.625Z"/><path fill="#FFC8AF" d="M1864.03 685.441c10.68 3.965 1.55 22.011-1.8 28.051-5.44 9.839-20.64 14.711-24.49 12.654-3.85-2.056 10.14-23.409 9.67-24.628-.48-1.224-6.86 10.948-10.28 8.634-3.41-2.309 5.07-16.721 10.62-21.141 5.54-4.421 9.58-6.054 16.28-3.57ZM1769.56 833.239c-14.74-3.22-4.81-86.825 2.15-121.96 6.97-35.13 19.03-61.502 37.03-57.573 18.01 3.928 17.98 32.922 9.68 67.767-8.31 34.84-34.1 114.981-48.86 111.766Z"/><path fill="#FFC8AF" d="M1830.1 992.575c-12.77 4.006-51.66-107.719-59.62-133.078-7.95-25.365-14.38-52.749-.07-57.243 14.32-4.489 24.68 21.671 32.63 47.031 7.96 25.364 39.83 139.288 27.06 143.29Z"/><path fill="#11477C" d="m1839.11 994.833.06 12.567c.01 1.27-1.01 2.3-2.28 2.3l-40.43.22c-3.55.01-5.08-4.46-2.26-6.6 5.87-4.388 15.26-8.837 22.21-12.227 1.66 1.44 4.18 5.934 7.09 6.459 2.88.529 15.61-2.719 15.61-2.719Z"/><path fill="#FFC8AF" d="M1663.76 518.36c6.31-7.19 60.95 37.251 75.89 50.351 14.94 13.106 29.74 28.037 22.67 36.101-7.08 8.064-23.81-4.669-38.75-17.77-14.94-13.105-66.12-61.492-59.81-68.682Z"/><path fill="#FFC8AF" d="M1675.04 525.917c-2.84 8.326-16.96 1.647-21.69-.805-7.71-3.997-8.98-16.021-7.47-19.034 1.51-3.013 13.76 8.758 14.69 8.362.93-.391-6.87-6.09-5.16-8.772 1.71-2.682 13.01 3.565 16.54 7.756 3.52 4.19 4.87 7.277 3.09 12.493ZM1875.55 679.189l-93.65-3.896-4.11-160.218 6.47-40.236 43.26-15.911 27.85 5.317c15.84 3.022 27.11 17.14 26.55 33.254l-10.16 113.394 3.79 68.296Z"/><path fill="#FFC8AF" d="M1837.96 439.194v32.195s-6.81 4.067-22.73 4.067c-8.58 0-10.51-4.067-10.51-4.067v-11.9l33.24-20.295Z"/><path fill="#FFC8AF" d="M1841.71 415.159c-.08 1.163-.11 2.258-.19 3.312l.03 1.164c.8 19.113-11.47 39.578-29.94 42.361l-.42.078-.63.032c-3.95.493-18.25 1.656-23.48-4.098-6.13-6.771-11.59-19.187-11.59-27.665 0-8.482 1.55-10.492 1.55-13.915 0-2.668-1.44-11.026-1.46-14.655-.13-17.057 11.35-33.98 31.74-33.98 30.59 0 35.25 26.822 34.39 47.366Z"/><path fill="#D3807C" d="M1781.33 473.767c-6.5 6.035-11.57 16.597-12.79 38.208-.35 6.04-4.82 22.618 3.28 42.821 14.28 35.609 5.53 79.782 5.53 79.782l97.04 3.579s2.04-65.053 5.35-85.804c10.01-62.619-.07-82.772-17.52-87.666-26.14-7.333-74.38 3.04-80.89 9.08Z"/><path fill="#FFC8AF" d="M1757.33 607.158c-10.44-2.695-.42-64.814 5.79-90.859s15.76-45.457 28.52-42.173c12.75 3.289 11.72 24.9 4.56 50.702-7.16 25.806-28.42 85.021-38.87 82.33Z"/><path fill="#11477C" d="M1875.36 612.77c-.81 20.36 14.55 47.058 16.93 67.34 4.75 40.627-23.35 116.72-23.35 121.637 0 4.918 26.3 70.928 36.49 111.178 0 0-5.72 8.229-33.27 13.239 0 0-42.25-91.95-46.17-112.7-3.92-20.751.89-196.894.89-196.894l48.48-3.8Z"/><path fill="#11477C" d="M1832.7 616.109h-53.14s-12.23 48.167-20.1 113.28c-7.87 65.113-5.36 84.433-3.93 94.811 1.43 10.373 37.33 108.403 37.33 108.403s18.32 2.503 37-8.588c0 0-12.08-55.812-22.45-81.572-10.38-25.76-11.51-31.482-11.51-31.482s29.87-63.682 37.32-109.121c7.46-45.439-.52-85.731-.52-85.731Z"/><path fill="#fff" d="M1919.19 590.161c-1.89 19.877-14.21 43.406-23.54 58.71-3.47 5.667-6.46 10.175-8.4 12.981-1.41 2.015-2.26 3.169-2.26 3.169l-.49-1.706-7.93-29.201-2.13-7.861.73-1.224 10.79-19.081 10.85-19.016-4.87-7.742-3.3-5.244-13.89-22.25-4.88-7.746 9.33-68.094s43.03 81.811 39.99 114.305Z"/><path fill="#DFE5EA" d="m1888.64 573.946-13.89-22.25 6.46-67.427 7.43 89.677ZM1895.66 648.871c-3.48 5.667-6.47 10.175-8.41 12.981l-2.75 1.463-7.93-29.201-1.4-9.085 10.79-19.081c2.63 7.986 7.75 25.365 9.7 42.923Z"/><path fill="#fff" d="m1889.17 739.049-135.88 2.484c15.5-69.92 19.87-110.216 21.94-135.056 1.75-21.206.09-32.89-2.34-47.058-.33-1.886-.69-3.818-1.06-5.842-6.07-34.546 0-68.586 0-68.586 2.02-5.842 8.14-14.996 23.14-18.032 9.79-2.024 43.42-5.842 43.42-5.842 17.3-1.012 40.85 5.842 43.19 21.344 3.55 23.736 2.53 68.08-.5 101.614-3.04 33.534 7.08 42.642 12.19 79.718 5.06 37.122-2.07 73.186-4.1 75.256Z"/><path fill="#DFE5EA" d="M1775.26 606.5c1.7-21.215.05-32.922-2.38-47.062 12.37-24.629 32.49-64.014 32.49-64.014s-9.02 68.402-30.11 111.076Z"/><path fill="#fff" d="M1792.41 546.724s-19.43 62.104-33.15 62.104c-13.71 0-28.95-13.717-43.05-25.525-14.1-11.813-38.1-37.72-38.1-37.72l15.62-18.29 55.25 43.056s14.48-83.444 25.53-92.207c11.05-8.763 36.7-8.933 32.38 17.908-2.67 16.574-14.48 50.674-14.48 50.674Z"/><path fill="#11477C" d="M1769.82 391.211c.13.998.33 2.029.59 3.087 2.1 8.547 8.79 13.515 8.12 22.843-.64 8.874.65 16.33 5.26 24.141 10.32 17.48-3.93 13.607-1.07 40.43 1.41 13.183 13.92 18.607 38.62 18.243 24.7-.354 51.9-.713 51.18-19.32-.28-7.226-2.87-12.53-6.8-18.483-4.74-7.185-8.81-13.215-6.23-22.066 1.08-3.68 2.61-7.286 2.84-11.114.56-9.342-6.14-12.351-11.34-18.409-5.59-6.509-2.31-17.503-4.19-25.346-6.08-25.484-32.49-28.478-53.94-21.569-13.14 4.227-25.06 12.512-23.04 27.563Z"/><path fill="#FFC8AF" d="M1175.36 1529.22c-3.04-13.48 70.18-37.64 102.03-45.48 31.85-7.83 58.41-8.05 62.12 8.41 3.72 16.47-20.35 27.68-52.47 34.3-32.13 6.61-108.63 16.26-111.68 2.77Z"/><path fill="#FFC8AF" d="M1188.48 1565.22c-4.26-13.15 66.46-43.89 97.46-54.6s57.43-13.34 62.63 2.71c5.21 16.06-17.74 29.42-49.13 38.94-31.39 9.51-106.69 26.1-110.96 12.95ZM1192.5 1700.31l.59 12.27c0 1.74-1.42 3.16-3.18 3.16h-33.06c-3 0-4.28-3.81-1.87-5.61 4.99-3.69 11.97-8.06 18.42-9.23.57-.11 5.28-103.68 10.27-103.73 4.53-.05 8.83 103.14 8.83 103.14Z"/><path fill="#FFC8AF" d="M1184.34 1704.77c-12.25 0-15.62-108.28-15.62-132.62 0-24.35 1.88-50.04 15.62-50.04 13.75 0 15.63 25.69 15.63 50.04 0 24.34-3.37 132.62-15.63 132.62Z"/><path fill="#559DCE" d="M1193.09 1702.58v11.51c0 1.15-.94 2.1-2.1 2.1h-37.03c-3.25 0-4.63-4.12-2.03-6.06 5.39-3.99 14.01-8.02 20.39-11.09 1.51 1.33 3.8 5.45 6.46 5.95 2.64.5 14.31-2.41 14.31-2.41Z"/><path fill="#FFC8AF" d="M1221.02 1733.25v11.58c0 1.06-2.48 5.59-4.81 6.56-8.33 3.55-24.31 1.45-24.94-1.43-.64-2.88 3.82-9.19 7.4-13.69l.02-.03c2.31-2.88 4.24-5.01 4.24-5.01s4.49-100.53 9.22-100.39c5.15.17 8.87 102.41 8.87 102.41Z"/><path fill="#FFC8AF" d="M1212.87 1737.8c-12.2 1.12-23.42-106.5-25.64-130.74-2.22-24.24-2.69-50 11-51.25 13.68-1.26 17.9 24.16 20.12 48.4 2.22 24.25 6.73 132.47-5.48 133.59Z"/><path fill="#559DCE" d="M1221.02 1734.78v10.05c0 1.06-2.48 5.59-4.81 6.56-8.33 3.55-24.31 1.45-24.94-1.43-.64-2.88 3.82-9.19 7.4-13.69l.02-.03c1.73-1.46 10.52-.66 11.99.06 1.5.72 4.92 2.82 5.64 2.71.75-.12 4.7-4.23 4.7-4.23Z"/><path fill="#FFC8AF" d="M1124.96 1387.39c4.87-7.36 60.43 26.45 75.74 36.57 15.32 10.12 30.73 21.93 25.27 30.19-5.46 8.27-22.37-1.29-37.68-11.4-15.31-10.13-68.2-47.99-63.33-55.36Z"/><path fill="#FFC8AF" d="M1136.54 1393.19c-3 8.79-17.89 1.74-22.89-.85-8.13-4.22-9.47-16.91-7.88-20.09 1.59-3.18 14.52 9.25 15.5 8.83.99-.42-7.25-6.43-5.44-9.26 1.8-2.83 13.73 3.76 17.45 8.18 3.72 4.43 5.14 7.68 3.26 13.19ZM1219.48 1459.73c-9.51-2.68.96-59.35 7.19-83.07 6.23-23.72 15.38-41.29 26.98-38.01 11.61 3.27 10.21 23.03 3.12 46.51-7.09 23.48-27.79 77.25-37.29 74.57Z"/><path fill="#F0F5F7" d="M1148.53 1415.55c.48.6 1.09 1.15 1.74 1.7 7.37 6.44 41 41.98 61.96 44.54 2.02.27 3.94.22 5.68-.22 19.87-4.91 36.09-63.65 36.09-63.65l.27-.77 15.39-41.43 37.51-28.22-28.88-6.94-2.35 18.02-11.24-5.35-3.44-1.75s-14.74 5.24-18.29 9.01c-18.02 19-31.01 84.56-32.1 84.56 0 0-40.84-22.87-50.12-26.58l-12.22 17.08Z"/><path fill="#DCE8EF" d="M1212.23 1461.79c2.02.27 3.94.22 5.69-.22 19.86-4.91 36.08-63.65 36.08-63.65l.27-.77-10.32-35.43s5.02 39.59-4.09 61.69c-7.32 17.69-22.06 33.03-27.63 38.38Z"/><path fill="#FFC8AF" d="m1360.35 1513.51-80.24-13.13-22.53-115.09-10.72-42.16 35.12-25.22 25.86-2.43c14.7-1.39 28.22 8.14 31.83 22.45 0 0 18.01 76.34 20.04 102.33 3.14 40.24.64 73.25.64 73.25Z"/><path fill="#0F1519" d="M1278.68 1482.12s-55.54 13.97-83.36 27.72c-27.82 13.76-29.96 23.85-30.88 52.59-.91 28.73 5.51 133.9 5.51 133.9s6.84 5.62 25.89 4.03c0 0 10.1-108.42 10.27-132.4.18-23.99 118.84-40.38 118.84-40.38s16.2-28.74-2.45-38.22-43.82-7.24-43.82-7.24Z"/><path fill="#1D262D" d="M1358.57 1519.21c-.91 14.48-40.96 41.13-80.7 48.75-39.75 7.61-51.67 8.53-52.28 10.06-.61 1.53 0 153.77 0 153.77s-12.72 7.65-25.62-3.05c0 0-15.9-110.67-15.63-141.85.28-31.19 8.76-36.39 19.19-41.58 10.44-5.2 96.75-50.34 96.75-50.34l58.29 24.24Z"/><path fill="#FFC8AF" d="m1285.7 1296.4 8.22 22.51s-4.95 11.12-18.95 15.19c-7.55 2.19-10.28-.89-10.28-.89l-3.04-10.47 24.05-26.34Z"/><path fill="#F2B49C" d="M1244.94 1280.55c-2.65 1.62-1 11.55-.5 11.36.51-.19.1-8.35 2.29-10.26 2.2-1.91-1.79-1.1-1.79-1.1ZM1234.28 1284.03c2.14 1.47 2.94 8.86 3.07 9.5.13.63-3.26-8.27-3.26-8.27l.19-1.23Z"/><path fill="#414042" d="m1257.21 1277.39.33 1.13-12.18 3.48c-.1-.05-.75-.94-.42-1.45 1.73-2.67 12.27-3.16 12.27-3.16ZM1225.61 1286.52l.35 1.21 8.47-2.6c.12-.03.01-1.17-.42-1.45-2.2-1.48-8.4 2.84-8.4 2.84ZM1254.91 1286.23c.39 1.34-.38 2.75-1.73 3.14a2.54 2.54 0 0 1-3.14-1.73 2.54 2.54 0 0 1 1.73-3.14 2.54 2.54 0 0 1 3.14 1.73Z"/><path fill="#414042" d="M1256.95 1283.51c-1.46-.3-3.45-.52-5.45.06-2.01.59-3.57 1.83-4.64 2.88l10.09-2.94ZM1234.88 1292.04c.4 1.35-.38 2.75-1.72 3.14a2.53 2.53 0 1 1-1.41-4.86c1.34-.39 2.74.38 3.13 1.72Z"/><path fill="#414042" d="M1235.4 1289.78c-1.08-.42-2.52-.8-3.93-.39-1.4.41-2.42 1.5-3.11 2.43l7.04-2.04Z"/><path fill="#E0BD96" d="M1243.21 1302.92c2.43-.71 4.35-1.48 4.54-.82.19.67-1.55 2.04-3.98 2.75-2.43.7-4.64.48-4.83-.19-.19-.67 1.84-1.03 4.27-1.74Z"/><path fill="#F2B49C" d="M1246.1 1312.88c1.79-.52 3.19-1.09 3.33-.6.14.49-.98 2.02-2.76 2.54-1.79.52-3.56-.18-3.7-.67-.14-.48 1.35-.76 3.13-1.27ZM1236.76 1311.31l-.42.56.58.58c.19 0 4.56-.03 8.63-1.22 4.07-1.18 7.91-3.53 8.07-3.62l.19-.8-.79-.19c-.04.02-3.88 2.37-7.8 3.5-3.91 1.14-8.26 1.17-8.3 1.17l-.16.02Z"/><path fill="#FFC8AF" d="M1282.85 1274.31c.23 1.04.48 2.01.68 2.95l.33 1.02c5.58 16.61.02 37.74-15.52 44.91l-.34.17-.55.19c-3.35 1.44-15.63 6.12-21.7 2.4-7.12-4.39-15.08-13.91-17.26-21.38-2.16-7.46-1.32-9.61-2.19-12.63-.69-2.34-4.08-9.33-5.03-12.51-4.46-14.97 1.31-32.78 19.24-38 26.9-7.81 37.85 14.59 42.34 32.88Z"/><path fill="#F2B49C" d="M1258.5 1326.49c8.25-1.98 16.8-13.1 18.75-17.58 1.94-4.5.81-14.22.81-14.22s2.49-.36 3.62-3.39c0 0 .95 4.12-.23 5.96-1.19 1.84-2.14 2.43-2.19 3.52-.06 1.09 1.78 14.38-3.93 19.93-5.72 5.54-16.83 5.78-16.83 5.78Z"/><path fill="#1D262D" d="M1225.02 1260.51s7.79 3.74 18.32 9.77c10.54 6.03 18.5 6.25 18.5 6.25l10.92 7.94 5.02-2.47 7.92 14.4s1.56-11.69.28-24.4c-1.3-12.71-8.69-34.77-23.34-38.65-14.65-3.88-43.23 15.52-46.24 20.71-3.02 5.19-7.56 13.61 5.81 27.94 0 0-2.86-7.56-1.79-14.02 1.08-6.46 4.6-7.47 4.6-7.47Z"/><path fill="#FFC8AF" d="M1275.03 1276.82c2-1.12 6.52-4.34 7.77 3.41 2.15 13.38-5.66 14.76-5.66 14.76-.08-1.96-.16-4.74-.46-7.9-2.42-.63-.25-3-.58-4.53l-.16-.94c-.21-1.57-.53-3.11-.91-4.8Z"/><path fill="#F2B49C" d="M1275.94 1281.62s1.7-2.99 3.75-2.59c2.06.4 1.99 4.9 1.29 7.77-.7 2.88-2.21 3.55-2.68 2.94-.47-.6 2.25-2.96.8-3.8-1.45-.84-2.65-.71-2.75-1.42-.09-.71-.41-2.9-.41-2.9Z"/><path fill="#1D262D" d="M1268.64 1272.77c1.5 3.35 2.39 7.03 3.37 10.55.55 1.96.91 4.07 1.66 5.95.39.96 1.05 4.32 2.28 4.47 1.87.24.3-9.34.18-10.56-.06-.67-.21-8-.74-8.18l-6.75-2.23Z"/><path fill="#2672B2" d="M1361.31 1519.21c-60.09-6.74-92.52-35.22-92.52-35.22s-6.6-57.93-10.29-73.42c-3.68-15.49-16.59-48.83-14.79-60.42 1.88-11.6 9.52-15.56 15.49-17.64 0 0-.23-2.1 4.14-3.98l1.49 5.22 9.65 8.27 3.06-17.02.76-4.44 2.22 3.19c5.14-1.96 10.7-5.41 16.05-7.21 9.06-3.04 17.54-3.98 22.43-4.11 14.31-.35 26.19 36.67 37.09 91.34 10.91 54.66 5.22 115.44 5.22 115.44Z"/><path fill="#F0F5F7" d="m1254.87 1529.16 41.38 47.33s67.15-27.19 69.17-72.23c.93-21.01-.17-43.07-2.51-64.36-.33-3.11-.66-6.17-1.04-9.17-2.62-21.02-6.28-41.06-10.1-58.2-8.19-36.85-15.01-51.53-23.52-57.97-8.52-6.5-30.19.81-30.74 1.2 0 0-12.86 27.62-13.38 52.42-.96 46.24 8.03 71.34 6.66 106.82-.11 3.56-.6 6.99-1.36 10.21-1.15 5.13-3 9.83-5.3 14.09-10.37 19.65-29.26 29.86-29.26 29.86Z"/><path fill="#DCE8EF" d="M1284.13 1499.3c6.5-3.01 25.01-12.62 52.63-33.96 14.41-11.14 22.11-19.49 26.15-25.44-.33-3.11-.66-6.17-1.04-9.17l-61.63 33.63-10.81 20.85c-1.15 5.13-3 9.83-5.3 14.09ZM1313.56 1374.6s10.57 42.65 5.11 49.81c-5.45 7.17-36.16 47.77-36.16 47.77s57.66-45.38 56.98-50.5c-.68-5.12-25.93-47.08-25.93-47.08Z"/><path fill="#F0F5F7" d="M1258.45 1332.63s.34 18.42 4.1 39.06c3.75 20.65 18.25 80.59 15.07 107.43-3.19 26.84-33.21 38.66-33.21 38.66l-12.74-24.1s31.6-3.47 32.07-10.47c.23-3.41-2.16-46.63-7.5-69.83-5.22-22.61-12.93-42.74-13.82-56.7-1.28-20.08 16.03-24.05 16.03-24.05Z"/><path fill="#4290C6" d="m1258.79 1327.51 6.06 6.22-.14-.47-2.08-7.2-1.61.23-2.23 1.22ZM1278.28 1320.56l7.3 10.48c4.63-6.56 10.99-14.5 10.99-14.5l-6.83-6.18-11.46 10.2Z"/><path fill="#206FA5" d="m1259.1 1331.57.56 7 5.24-4.68-.05-.16-6.06-6.22.31 4.06Z"/><path fill="#BACDD6" d="M1260.58 1502.28s-7.07 1.23-17.19 3.08l8.7 23.55 72.5-16.26.1-.01-64.11-10.36Z"/><path fill="#DCE8EF" d="m1169.12 1518.71 82.97 10.2-29.08-78.43c-1.05.06-81.19-1.8-81.19-1.8l27.3 70.03Z"/><path fill="#D4E2E8" d="m1169.12 1518.71.27 5.39 13.97 1.89 53.55 7.54 15.52 2.2-.34-6.82-82.97-10.2Z"/><path fill="#C3D3DD" d="m1252.09 1528.91.34 6.82 71.82-17.84.34-5.24-72.5 16.26ZM1141.82 1448.68l3.39-1.49 80.06 2.03 29.31 79.13-2.49.56-29.08-78.43-81.19-1.8Z"/><path fill="#FFC8AF" d="M1352.21 1436.29c-9.53 2.88-31.41-50.96-38.99-74.49-7.59-23.54-9.36-43.44 2.28-46.96 11.64-3.52 21.19 14.03 27.91 37.83 6.72 23.79 18.34 80.73 8.8 83.62Z"/><path fill="#FFC8AF" d="M1261.75 1501.41c-5.68-6.76 42.54-50.41 56.6-62.21 14.06-11.8 29.77-23.22 36.14-15.63 6.36 7.58-7.61 21.08-21.66 32.88-14.06 11.8-65.41 51.72-71.08 44.96Z"/><path fill="#FFC8AF" d="M1274.36 1490.27c7.28 7.47-7.36 18.81-12.5 22.5-8.36 6.01-21.76.9-24.13-2.31-2.38-3.22 16.64-9.85 16.73-11.05.08-1.2-10.14 4-12.05.75-1.92-3.26 10.75-11.85 17.08-13.33 6.32-1.49 10.3-1.25 14.87 3.44Z"/><path fill="#F0F5F7" d="m1281.14 1472.69 11.94 15.53c2.73-1.26 68.19-47.12 68.19-57.87 0-10.7-12.01-72.77-20.58-95.48-8.57-22.72-19.76-24.24-27.19-21.3-13.65 5.3-10.97 26.1-8.35 39.97 2.68 13.87 25.27 68.07 24.46 69.28-.77 1.19-16.16 16.71-26.97 27.52-7.68 7.68-17.57 17.16-21.5 22.35Z"/><path fill="#FFC8AF" d="M514.202 1740.33c13.947-.45 18.984-78.12 18.556-111.23-.423-33.11-6.946-59.1-23.975-58.56-17.029.54-21.882 26.9-20.194 59.97 1.688 33.07 11.666 110.26 25.613 109.82ZM558.675 1732.23c13.947-.44 18.979-78.11 18.556-111.22-.423-33.11-6.951-59.1-23.98-58.56-17.025.54-21.878 26.91-20.189 59.97 1.688 33.07 11.665 110.26 25.613 109.81ZM546.765 1910.69l-.593 12.39c0 1.75 1.435 3.19 3.211 3.19h33.368c3.036 0 4.324-3.84 1.895-5.65-5.041-3.74-12.084-8.14-18.602-9.32-.575-.11-5.327-119.75-10.364-119.81-4.577-.05-8.915 119.2-8.915 119.2Z"/><path fill="#FFC8AF" d="M554.999 1915.21c12.374 0 15.774-124.4 15.774-148.97 0-24.57-1.9-50.51-15.774-50.51-13.873 0-15.769 25.94-15.769 50.51 0 24.57 3.395 148.97 15.769 148.97Z"/><path fill="#11477C" d="M546.172 1912.98v11.62c0 1.17.947 2.12 2.12 2.12h37.38c3.28 0 4.669-4.15 2.052-6.1-5.442-4.04-14.145-8.1-20.585-11.21-1.527 1.35-3.832 5.51-6.523 6.01-2.668.5-14.444-2.44-14.444-2.44Z"/><path fill="#FFC8AF" d="M491.496 1916.05V1927.74c0 1.07 2.503 5.64 4.853 6.63 8.404 3.57 24.541 1.45 25.181-1.46.644-2.91-3.864-9.27-7.471-13.81l-.028-.03c-2.327-2.9-4.277-5.06-4.277-5.06s-4.536-116.57-9.306-116.43c-5.203.17-8.952 118.47-8.952 118.47Z"/><path fill="#FFC8AF" d="M499.716 1920.65c12.323 1.12 23.644-122.6 25.884-147.07 2.245-24.47 2.719-50.47-11.095-51.74-13.818-1.27-18.073 24.39-20.314 48.86-2.244 24.47-6.798 148.82 5.525 149.95Z"/><path fill="#11477C" d="M491.496 1917.59v10.15c0 1.07 2.503 5.64 4.853 6.63 8.404 3.57 24.541 1.45 25.181-1.46.644-2.91-3.864-9.27-7.471-13.81l-.028-.03c-1.748-1.48-10.616-.67-12.097.06-1.509.73-4.973 2.85-5.7 2.73-.754-.11-4.738-4.27-4.738-4.27Z"/><path fill="#FFC8AF" d="M798.04 1485.57c.216-8.91-65.315-12.95-83.839-13.4-18.52-.46-38.102.44-38.341 10.44-.244 9.98 19.274 11.83 37.793 12.28 18.52.45 84.171-.41 84.387-9.32Z"/><path fill="#FFC8AF" d="M699.775 1491.45c4.692-8.8-43.906-40.77-65.536-52.8-21.633-12.03-40.829-17.65-46.552-6.91-5.722 10.75 9.651 23.54 31.708 34.78 22.053 11.23 75.693 33.73 80.38 24.93ZM781.42 1483.98c-2.549 9.93 14.798 12.02 20.884 13.22 7.87 1.56 13.004-8.26 13.455-12.16.455-3.9-12.268-2.02-12.926-3-.663-.98 10.58-1.54 10.621-5.25.042-3.7-14.945-4.84-21.054-3-6.109 1.83-9.389 3.98-10.98 10.19Z"/><path fill="#FFC8AF" d="M792.401 1473.79c6.109-1.84 21.096-.7 21.054 3-.041 3.71-11.283 4.27-10.621 5.25l-14.867-6.56c1.283-.64 2.741-1.18 4.434-1.69ZM815.469 1483.99c-1.026-1.63-4.922-2.62-7.19-2.55-2.263.06-4.807 3.56-6.656 7-1.854 3.43 5.474 7.81 5.474 7.81l5.23-5.2 3.142-7.06Z"/><path fill="#fff" d="M766.37 1495.3c-2.282.62-5.129 1.06-8.464 1.1-10.833.35-54.602 3.51-74.69-1.4-15.088-3.69-51.272-13.95-68.287-18.82-5.612-1.58-9.122-2.58-9.122-2.58l-11.054-2.81-40.567-10.27-10.659-48.33 29.123-7.01 2.369 18.15 11.362-5.39 3.418-1.76s13.814 6.8 18.51 9.08c4.646 2.29 43.594 18.86 77.887 42.81 0 0 64.998 4.6 79.3 5.96l.874 21.27Z"/><path fill="#DFE5EA" d="M614.928 1476.18c-5.612-1.58-9.122-2.58-9.122-2.58l-11.054-2.81c2.677-10.09 11.845-44.44 11.845-44.44s9.03 8.75 6.311 23.88c-1.798 10.09 1.054 20.34 2.02 25.95Z"/><path fill="#FFC8AF" d="m489.799 1599.93 81.001-13.26 22.738-116.17 10.819-42.56-35.447-25.45-26.105-2.47c-14.835-1.4-24.666 7.7-28.318 22.15 0 0-21.983 77.58-24.035 103.81-3.174 40.62-.653 73.95-.653 73.95Z"/><path fill="#FFC8AF" d="m565.164 1380.77-8.303 22.71s4.991 11.24 19.127 15.34c7.618 2.22 10.378-.9 10.378-.9l3.068-10.56-24.27-26.59Z"/><path fill="#F2B49C" d="M606.299 1364.77c2.677 1.64 1.012 11.66.501 11.47-.511-.2-.097-8.43-2.309-10.36-2.213-1.92 1.808-1.11 1.808-1.11ZM617.062 1368.28c-2.162 1.49-2.967 8.95-3.095 9.59-.134.64 3.284-8.34 3.284-8.34l-.189-1.25Z"/><path fill="#414042" d="m593.911 1361.58-.331 1.14 12.291 3.52c.111-.06.759-.96.428-1.48-1.743-2.7-12.388-3.18-12.388-3.18ZM625.816 1370.8l-.354 1.23-8.561-2.63c-.115-.04 0-1.19.428-1.47 2.231-1.49 8.487 2.87 8.487 2.87ZM596.238 1370.5a2.557 2.557 0 0 0 1.743 3.17c1.357.4 2.779-.39 3.17-1.74a2.554 2.554 0 0 0-1.744-3.17 2.564 2.564 0 0 0-3.169 1.74Z"/><path fill="#414042" d="M594.178 1367.76c1.472-.31 3.477-.52 5.501.06 2.029.59 3.602 1.85 4.679 2.9l-10.18-2.96ZM616.455 1376.38a2.544 2.544 0 0 0 1.738 3.16 2.555 2.555 0 1 0-1.738-3.16Z"/><path fill="#414042" d="M615.926 1374.08c1.09-.42 2.553-.8 3.965-.39 1.417.42 2.452 1.52 3.142 2.46l-7.107-2.07Z"/><path fill="#E0BD96" d="M608.047 1387.36c-2.456-.72-4.388-1.5-4.581-.83-.194.66 1.564 2.05 4.02 2.76 2.452.72 4.678.49 4.871-.18.194-.67-1.853-1.05-4.31-1.75Z"/><path fill="#F2B49C" d="M605.126 1397.4c-1.799-.52-3.215-1.09-3.358-.6-.143.49.989 2.04 2.788 2.57 1.803.52 3.592-.18 3.73-.68.147-.49-1.357-.76-3.16-1.29ZM614.56 1395.82l.423.57-.589.58c-.189 0-4.605-.03-8.712-1.22-4.104-1.2-7.981-3.57-8.147-3.67l-.193-.81.805-.19c.041.02 3.914 2.39 7.866 3.54 3.951 1.15 8.344 1.18 8.386 1.18l.161.02Z"/><path fill="#FFC8AF" d="M568.036 1358.47c-.235 1.06-.483 2.03-.69 2.99l-.331 1.02c-5.631 16.77-.019 38.1 15.658 45.33l.35.17.561.2c3.381 1.45 15.769 6.18 21.896 2.41 7.19-4.43 15.23-14.04 17.42-21.57 2.185-7.53 1.334-9.71 2.217-12.75.686-2.36 4.117-9.42 5.079-12.64 4.503-15.1-1.321-33.08-19.426-38.35-27.149-7.88-38.208 14.73-42.734 33.19Z"/><path fill="#11477C" d="M580.093 1363.67c2.76-5.36 8.5-6.56 12.433-10.58 1.693-1.73 1.896-3.72 2.82-5.87 3.409-7.9 10.028-4.87 16.454-2.37 3.74 1.45 7.264 3.93 11.105 5.05 6.017 1.76 12.162-.59 17.733-2.7 4.995-1.9 7.659-4.88 7.222-10.57-.23-3.04-1.79-5.94-4.467-7.41-2.548-1.41-5.064-1.15-7.843-1.03-3.804.18-5.009-1.27-7.613-3.91-2.249-2.28-4.347-4.94-7.585-5.54-2.668-.5-4.982.31-7.609.36-2.934.04-5.037-1.21-7.571-2.62-19.624-10.85-36.014 13.61-41.17 29.57-4.182 12.94-3.243 26.29-.571 39.32l12.374-22.13 4.288.43Z"/><path fill="#FFC8AF" d="M575.924 1361.01c-2.01-1.13-6.578-4.38-7.834 3.43-2.18 13.51 5.7 14.91 5.7 14.91.083-1.98.161-4.79.474-7.97 2.438-.65.248-3.03.588-4.58l.157-.95c.211-1.58.538-3.13.915-4.84Z"/><path fill="#F2B49C" d="M575.01 1365.85s-1.716-3.01-3.79-2.62c-2.075.4-2.001 4.96-1.297 7.86.703 2.89 2.226 3.57 2.704 2.96.479-.61-2.277-2.99-.809-3.84 1.463-.84 2.677-.71 2.774-1.43.092-.72.418-2.93.418-2.93Z"/><path fill="#11477C" d="M582.378 1356.92c-1.514 3.38-2.415 7.09-3.404 10.65-.548 1.97-.916 4.1-1.675 6-.391.97-1.062 4.36-2.304 4.52-1.891.24-.295-9.43-.184-10.66.064-.68.225-8.08.754-8.26l6.813-2.25Z"/><path fill="#F2B49C" d="M592.618 1411.14c-8.335-1.99-16.96-13.22-18.924-17.75-1.964-4.53-.824-14.34-.824-14.34s-2.516-.37-3.652-3.42c0 0-.961 4.15.23 6 1.201 1.86 2.157 2.46 2.213 3.56.059 1.1-1.804 14.52 3.965 20.12 5.768 5.6 16.992 5.83 16.992 5.83Z"/><path fill="#11477C" d="M485.508 1606s5.952 95.29 5.98 105.72c.023 10.44-4.554 161.21-1.831 198.9 0 0 9.683 4.2 23.598 0 0 0 13.547-136.86 14.784-166.14 1.169-27.66 6.381-84.94 6.381-84.94s2.898 39.43 2.318 52.47c-.58 13.05-.373 152.88 6.293 196.37 0 0 12.802 3.48 23.938-2.32 0 0 5.718-163.32 8.036-192.6 2.319-29.28 4.058-113.53 4.058-113.53l-90.216-3.3-3.339 9.37Z"/><path fill="#2672B2" d="M483.681 1605.67c66.102 12.12 98.693 0 98.693 0s6.518-94.02 10.231-109.65c3.716-15.64 16.757-49.29 14.936-61-1.895-11.71-9.605-15.7-15.636-17.81 0 0 .235-2.11-4.181-4l-1.5 5.26-9.742 8.35-3.087-17.18-.773-4.48-2.24 3.22c-5.184-1.98-10.796-5.47-16.201-7.28-9.145-3.07-17.706-4.02-22.641-4.15-14.444-.35-26.432 37.02-37.44 92.19-11.008 55.19-10.419 116.53-10.419 116.53Z"/><path fill="#fff" d="M484.145 1692.13s-6.578-101.96.547-160.62c7.13-58.66 27.508-121.56 33.99-129.93 8.496-10.96 32.347-2.19 32.347-2.19s24.67 27.41 21.652 64.96c-1.881 23.42-17.268 64.97-18.911 113.75-1.646 48.8-2.373 112.32-2.373 112.32l-67.252 1.71ZM608.396 1447.98c-6.017 25.4-13.993 47.5-17.107 73.11-.35 2.41-.571 4.83-.787 7.33-.262 3.2-.529 6.57-.791 10.04-4.43 59.03-9.108 151.96-9.108 151.96l-16.91-.31s.143-109.07 6.721-152.92c.087-.53.175-1.06.216-1.58 1.012-6.45 2.02-12.37 3.073-17.85 5.966-30.88 12.457-47.02 14.605-56.23 2.544-10.96 4.112-44.78 4.112-44.78s21.837 6.48 15.976 31.23Z"/><mask id="aj" width="165" height="333" x="602" y="1331" maskUnits="userSpaceOnUse" style="mask-type:luminance"><path fill="#fff" d="M633.253 1663.89c-3.399 0-6.854-.57-10.239-1.78-15.875-5.68-24.182-23.16-18.497-39.04l12.876-36.11 1.748-4.86.846-2.35 14.646-41.08c1.62-.48 3.253-.91 4.876-1.35 1.307-.36 2.627-.7 3.956-1l-31.983 89.23c-4.283 12.01 2.005 25.28 14.016 29.57 2.557.92 5.175 1.35 7.746 1.35 9.508 0 18.446-5.91 21.818-15.36l56.989-159.68h-48.916l-14.426 40.26c-2.576-.28-5.156-.55-7.732-.81l8.307-23.3 3.795-10.63 11.657-32.69 29.854-83.73 8.91-24.98 4.977-13.95 57.532 20.51-4.977 13.95-1.596 4.47-35.751 100.25-9.605 26.92-20.07 56.28-3.767 10.54-6.275 17.58-21.932 61.5c-4.458 12.51-16.234 20.29-28.783 20.29Z"/></mask><g mask="url(#aj)"><path fill="url(#ak)" d="M633.253 1663.89c-3.399 0-6.854-.57-10.239-1.78-15.875-5.68-24.182-23.16-18.497-39.04l12.876-36.11 1.748-4.86.846-2.35 14.646-41.08c1.62-.48 3.253-.91 4.876-1.35 1.307-.36 2.627-.7 3.956-1l-31.983 89.23c-4.283 12.01 2.005 25.28 14.016 29.57 2.557.92 5.175 1.35 7.746 1.35 9.508 0 18.446-5.91 21.818-15.36l56.989-159.68h-48.916l-14.426 40.26c-2.576-.28-5.156-.55-7.732-.81l8.307-23.3 3.795-10.63 11.657-32.69 29.854-83.73 8.91-24.98 4.977-13.95 57.532 20.51-4.977 13.95-1.596 4.47-35.751 100.25-9.605 26.92-20.07 56.28-3.767 10.54-6.275 17.58-21.932 61.5c-4.458 12.51-16.234 20.29-28.783 20.29Z"/></g><mask id="al" width="103" height="176" x="610" y="1481" maskUnits="userSpaceOnUse" style="mask-type:luminance"><path fill="#fff" d="M633.246 1656.47c-2.571 0-5.189-.43-7.746-1.35-12.011-4.29-18.299-17.56-14.017-29.57l31.984-89.23c.479-.11.962-.21 1.449-.31 2.829-.57 5.7-.94 8.584-.94.883 0 1.762.03 2.645.1 3.928.34 7.746 1.45 11.638 2.06 4.314.68 8.703.75 13.078.81.257 0 .519.01.781.01.769 0 1.532-.04 2.282-.21 2.015-.47 3.662-1.9 5.102-3.38.648-.67 1.283-1.39 1.619-2.26.331-.87.303-1.94-.295-2.65-.455-.54-1.15-.8-1.817-1.03-5.073-1.72-10.368-2.71-15.653-3.6-8.037-1.35-16.096-2.36-24.169-3.23l14.426-40.26h48.916l-56.989 159.68c-3.372 9.45-12.31 15.36-21.818 15.36Zm2.852-36.26c-.561 0-1.113.25-1.486.72-.648.82-.501 2.01.318 2.65.345.28.758.4 1.168.4.561 0 1.113-.24 1.481-.71.649-.82.506-2.01-.313-2.66a1.9 1.9 0 0 0-1.168-.4Zm8.947-24.09c-1.334 0-2.659.6-3.547 1.72a4.512 4.512 0 0 0 .755 6.33c.828.65 1.808.96 2.783.96a4.504 4.504 0 0 0 2.792-8.04 4.495 4.495 0 0 0-2.783-.97Zm22.816-20.44a1.88 1.88 0 0 0-1.49.73 1.883 1.883 0 0 0 1.481 3.05 1.887 1.887 0 0 0 1.173-3.37 1.9 1.9 0 0 0-1.164-.41Zm-27.444-14.52a1.89 1.89 0 1 0 1.486 3.06c.644-.82.502-2.01-.317-2.65-.35-.27-.759-.41-1.169-.41Zm22.232-22.72c-2.148 0-4.282.95-5.713 2.78-2.484 3.15-1.937 7.72 1.214 10.2a7.227 7.227 0 0 0 4.495 1.55c2.148 0 4.277-.94 5.708-2.77a7.257 7.257 0 0 0-1.214-10.2 7.235 7.235 0 0 0-4.49-1.56Zm1.684-26.19c-.562 0-1.113.24-1.486.72a1.88 1.88 0 0 0 .317 2.65c.345.27.759.41 1.169.41.556 0 1.108-.25 1.481-.73a1.88 1.88 0 0 0-1.481-3.05Zm29.279-17.62c-.561 0-1.118.25-1.491.72-.644.82-.501 2.01.318 2.65.349.28.759.4 1.168.4.561 0 1.113-.24 1.486-.71.648-.83.506-2.01-.317-2.66-.345-.27-.759-.4-1.164-.4Z"/></mask><g mask="url(#al)"><path fill="url(#am)" d="M633.246 1656.47c-2.571 0-5.189-.43-7.746-1.35-12.011-4.29-18.299-17.56-14.017-29.57l31.984-89.23c.479-.11.962-.21 1.449-.31 2.829-.57 5.7-.94 8.584-.94.883 0 1.762.03 2.645.1 3.928.34 7.746 1.45 11.638 2.06 4.314.68 8.703.75 13.078.81.257 0 .519.01.781.01.769 0 1.532-.04 2.282-.21 2.015-.47 3.662-1.9 5.102-3.38.648-.67 1.283-1.39 1.619-2.26.331-.87.303-1.94-.295-2.65-.455-.54-1.15-.8-1.817-1.03-5.073-1.72-10.368-2.71-15.653-3.6-8.037-1.35-16.096-2.36-24.169-3.23l14.426-40.26h48.916l-56.989 159.68c-3.372 9.45-12.31 15.36-21.818 15.36Zm2.852-36.26c-.561 0-1.113.25-1.486.72-.648.82-.501 2.01.318 2.65.345.28.758.4 1.168.4.561 0 1.113-.24 1.481-.71.649-.82.506-2.01-.313-2.66a1.9 1.9 0 0 0-1.168-.4Zm8.947-24.09c-1.334 0-2.659.6-3.547 1.72a4.512 4.512 0 0 0 .755 6.33c.828.65 1.808.96 2.783.96a4.504 4.504 0 0 0 2.792-8.04 4.495 4.495 0 0 0-2.783-.97Zm22.816-20.44a1.88 1.88 0 0 0-1.49.73 1.883 1.883 0 0 0 1.481 3.05 1.887 1.887 0 0 0 1.173-3.37 1.9 1.9 0 0 0-1.164-.41Zm-27.444-14.52a1.89 1.89 0 1 0 1.486 3.06c.644-.82.502-2.01-.317-2.65-.35-.27-.759-.41-1.169-.41Zm22.232-22.72c-2.148 0-4.282.95-5.713 2.78-2.484 3.15-1.937 7.72 1.214 10.2a7.227 7.227 0 0 0 4.495 1.55c2.148 0 4.277-.94 5.708-2.77a7.257 7.257 0 0 0-1.214-10.2 7.235 7.235 0 0 0-4.49-1.56Zm1.684-26.19c-.562 0-1.113.24-1.486.72a1.88 1.88 0 0 0 .317 2.65c.345.27.759.41 1.169.41.556 0 1.108-.25 1.481-.73a1.88 1.88 0 0 0-1.481-3.05Zm29.279-17.62c-.561 0-1.118.25-1.491.72-.644.82-.501 2.01.318 2.65.349.28.759.4 1.168.4.561 0 1.113-.24 1.486-.71.648-.83.506-2.01-.317-2.66-.345-.27-.759-.4-1.164-.4Z"/></g><mask id="an" width="71" height="36" x="699" y="1331" maskUnits="userSpaceOnUse" style="mask-type:luminance"><path fill="#fff" d="m769.668 1358.4-1.831 5.14a4.68 4.68 0 0 1-5.98 2.83l-59.179-21.1a4.681 4.681 0 0 1-2.834-5.98l1.831-5.14a4.676 4.676 0 0 1 5.975-2.83l59.184 21.1a4.682 4.682 0 0 1 2.834 5.98Z"/></mask><g mask="url(#an)"><path fill="url(#ao)" d="m769.668 1358.4-1.831 5.14a4.68 4.68 0 0 1-5.98 2.83l-59.179-21.1a4.681 4.681 0 0 1-2.834-5.98l1.831-5.14a4.676 4.676 0 0 1 5.975-2.83l59.184 21.1a4.682 4.682 0 0 1 2.834 5.98Z"/></g><mask id="ap" width="10" height="10" x="640" y="1596" maskUnits="userSpaceOnUse" style="mask-type:luminance"><path fill="#fff" d="M645.034 1605.13c-.975 0-1.955-.31-2.783-.96a4.512 4.512 0 0 1-.754-6.33 4.532 4.532 0 0 1 3.547-1.72c.975 0 1.955.32 2.783.97a4.505 4.505 0 0 1 .754 6.32 4.508 4.508 0 0 1-3.547 1.72Z"/></mask><g mask="url(#ap)"><path fill="url(#aq)" d="M645.034 1605.13c-.975 0-1.955-.31-2.783-.96a4.512 4.512 0 0 1-.754-6.33 4.532 4.532 0 0 1 3.547-1.72c.975 0 1.955.32 2.783.97a4.505 4.505 0 0 1 .754 6.32 4.508 4.508 0 0 1-3.547 1.72Z"/></g><mask id="ar" width="5" height="5" x="691" y="1494" maskUnits="userSpaceOnUse" style="mask-type:luminance"><path fill="#fff" d="M693.606 1498.4a1.84 1.84 0 0 1-1.168-.4 1.887 1.887 0 0 1 1.173-3.37 1.887 1.887 0 0 1 1.481 3.06c-.373.47-.925.71-1.486.71Z"/></mask><g mask="url(#ar)"><path fill="url(#as)" d="M693.606 1498.4a1.84 1.84 0 0 1-1.168-.4 1.887 1.887 0 0 1 1.173-3.37 1.887 1.887 0 0 1 1.481 3.06c-.373.47-.925.71-1.486.71Z"/></g><mask id="at" width="5" height="5" x="665" y="1575" maskUnits="userSpaceOnUse" style="mask-type:luminance"><path fill="#fff" d="M667.851 1579.46a1.884 1.884 0 0 1-1.481-3.05 1.88 1.88 0 0 1 1.49-.73 1.9 1.9 0 0 1 1.164.41 1.887 1.887 0 0 1-1.173 3.37Z"/></mask><g mask="url(#at)"><path fill="url(#au)" d="M667.851 1579.46a1.884 1.884 0 0 1-1.481-3.05 1.88 1.88 0 0 1 1.49-.73 1.9 1.9 0 0 1 1.164.41 1.887 1.887 0 0 1-1.173 3.37Z"/></g><mask id="av" width="4" height="4" x="634" y="1620" maskUnits="userSpaceOnUse" style="mask-type:luminance"><path fill="#fff" d="M636.098 1623.98c-.409 0-.823-.12-1.168-.4a1.884 1.884 0 0 1-.318-2.65 1.902 1.902 0 0 1 2.655-.32c.818.65.961 1.84.312 2.66-.368.47-.92.71-1.481.71Z"/></mask><g mask="url(#av)"><path fill="url(#aw)" d="M636.098 1623.98c-.409 0-.823-.12-1.168-.4a1.884 1.884 0 0 1-.318-2.65 1.902 1.902 0 0 1 2.655-.32c.818.65.961 1.84.312 2.66-.368.47-.92.71-1.481.71Z"/></g><mask id="ax" width="5" height="4" x="638" y="1561" maskUnits="userSpaceOnUse" style="mask-type:luminance"><path fill="#fff" d="M640.412 1564.94c-.405 0-.819-.13-1.164-.4a1.89 1.89 0 0 1 1.168-3.38c.41 0 .819.14 1.169.41a1.887 1.887 0 0 1-1.173 3.37Z"/></mask><g mask="url(#ax)"><path fill="url(#ay)" d="M640.412 1564.94c-.405 0-.819-.13-1.164-.4a1.89 1.89 0 0 1 1.168-3.38c.41 0 .819.14 1.169.41a1.887 1.887 0 0 1-1.173 3.37Z"/></g><mask id="az" width="5" height="5" x="662" y="1512" maskUnits="userSpaceOnUse" style="mask-type:luminance"><path fill="#fff" d="M664.332 1516.03c-.409 0-.823-.14-1.168-.41a1.88 1.88 0 0 1-.318-2.65c.373-.48.925-.72 1.486-.72a1.88 1.88 0 0 1 1.481 3.05 1.87 1.87 0 0 1-1.481.73Z"/></mask><g mask="url(#az)"><path fill="url(#aA)" d="M664.332 1516.03c-.409 0-.823-.14-1.168-.41a1.88 1.88 0 0 1-.318-2.65c.373-.48.925-.72 1.486-.72a1.88 1.88 0 0 1 1.481 3.05 1.87 1.87 0 0 1-1.481.73Z"/></g><mask id="aB" width="15" height="15" x="655" y="1538" maskUnits="userSpaceOnUse" style="mask-type:luminance"><path fill="#fff" d="M662.643 1552.97c-1.578 0-3.16-.5-4.494-1.55-3.151-2.48-3.699-7.05-1.215-10.2a7.233 7.233 0 0 1 5.714-2.78c1.573 0 3.155.51 4.489 1.56a7.256 7.256 0 0 1 1.214 10.2 7.212 7.212 0 0 1-5.708 2.77Z"/></mask><g mask="url(#aB)"><path fill="url(#aC)" d="M662.643 1552.97c-1.578 0-3.16-.5-4.494-1.55-3.151-2.48-3.699-7.05-1.215-10.2a7.233 7.233 0 0 1 5.714-2.78c1.573 0 3.155.51 4.489 1.56a7.256 7.256 0 0 1 1.214 10.2 7.212 7.212 0 0 1-5.708 2.77Z"/></g><path fill="#021F44" d="M627.983 1540.87h-.115l-31.137-1.97-7.02-.44c.262-3.47.529-6.84.791-10.04.216-2.5.437-4.92.787-7.33.207-1.72.441-3.42.69-5.11.041.01.078.01.119.01l33.93 3.42c4.986.5 9.968.97 14.95 1.47l-6.343 17.79c-.888.26-1.771.53-2.645.82-1.035.35-2.848 1.38-4.007 1.38Z"/><path fill="#1D5E9A" d="M570.629 1535.61c-4.701-1.01-8.657-2.23-11.606-3.69 1.574-8.63 3.34-16.81 5.065-24.46l5.929 9.6 3.685.7c-1.053 5.48-2.061 11.4-3.073 17.85Z"/><path fill="#C3D3DD" d="M559.023 1531.92c-1.288-.64-2.378-1.32-3.261-2.06-10.35-8.55-18.46-27.85-24.339-46.66a361.301 361.301 0 0 1-3.289-11.31c-5.175-19.13-7.806-35.23-7.806-35.23l19.385 31.37 6.357 10.25 18.018 29.18c-1.725 7.65-3.491 15.83-5.065 24.46ZM589.712 1538.46c-7.061-.7-13.598-1.62-19.081-2.85 1.012-6.45 2.019-12.37 3.073-17.85l4.471.83-2.498-4.25c5.433.54 10.87 1.09 16.302 1.64-.248 1.69-.483 3.39-.69 5.11-.349 2.41-.57 4.83-.786 7.33-.262 3.2-.529 6.57-.791 10.04Z"/><mask id="aD" width="15" height="19" x="634" y="1520" maskUnits="userSpaceOnUse" style="mask-type:luminance"><path fill="#fff" d="m634.635 1538.67 6.343-17.79c2.576.26 5.157.53 7.733.81l-5.244 14.63c-1.33.3-2.65.64-3.956 1-1.624.44-3.257.87-4.876 1.35Z"/></mask><g mask="url(#aD)"><path fill="url(#aE)" d="m634.635 1538.67 6.343-17.79c2.576.26 5.157.53 7.733.81l-5.244 14.63c-1.33.3-2.65.64-3.956 1-1.624.44-3.257.87-4.876 1.35Z"/></g><mask id="aF" width="48" height="18" x="643" y="1521" maskUnits="userSpaceOnUse" style="mask-type:luminance"><path fill="#fff" d="M681.642 1538.05c-.262 0-.524-.01-.782-.01-4.374-.06-8.763-.13-13.078-.81-3.891-.61-7.709-1.72-11.638-2.06-.883-.07-1.761-.1-2.645-.1-2.884 0-5.754.37-8.583.94-.488.1-.971.2-1.449.31l5.244-14.63c8.073.87 16.132 1.88 24.168 3.23 5.286.89 10.58 1.88 15.654 3.6.667.23 1.362.49 1.817 1.03.598.71.626 1.78.294 2.65-.335.87-.97 1.59-1.619 2.26-1.44 1.48-3.086 2.91-5.101 3.38-.75.17-1.514.21-2.282.21Z"/></mask><g mask="url(#aF)"><path fill="url(#aG)" d="M681.642 1538.05c-.262 0-.524-.01-.782-.01-4.374-.06-8.763-.13-13.078-.81-3.891-.61-7.709-1.72-11.638-2.06-.883-.07-1.761-.1-2.645-.1-2.884 0-5.754.37-8.583.94-.488.1-.971.2-1.449.31l5.244-14.63c8.073.87 16.132 1.88 24.168 3.23 5.286.89 10.58 1.88 15.654 3.6.667.23 1.362.49 1.817 1.03.598.71.626 1.78.294 2.65-.335.87-.97 1.59-1.619 2.26-1.44 1.48-3.086 2.91-5.101 3.38-.75.17-1.514.21-2.282.21Z"/></g><path fill="#4290C6" d="m592.319 1412.18-6.118 6.27.134-.47 2.111-7.26 1.628.22 2.245 1.24ZM572.649 1405.16l-7.374 10.57c-4.674-6.62-11.095-14.63-11.095-14.63l5.901-7.12 12.568 11.18Z"/><path fill="#206FA5" d="m592.011 1416.27-.571 7.07-5.29-4.72.051-.17 6.118-6.27-.308 4.09Z"/><path fill="#FFC8AF" d="M564.498 1523.18c9.623-2.93-2.213-60.38-9.048-84.39-6.827-24.01-16.505-41.71-28.249-38.14-11.739 3.58-9.913 23.67-2.208 47.41 7.7 23.74 29.886 78.05 39.505 75.12Z"/><path fill="#FFC8AF" d="M676.949 1527.09c.971-8.86-63.986-18.44-82.4-20.46-18.413-2.02-38-2.79-39.095 7.15-1.086 9.93 18.202 13.42 36.621 15.44 18.413 2.02 83.904 6.74 84.874-2.13Z"/><path fill="#FFC8AF" d="M660.114 1524.81c-1.918 10.36 16.735 11.67 23.111 11.88 10.386.36 10.557-11.07 10.75-15.1.198-4.03-11.284.7-12.025-.26-.745-.96 10.746-2.33 10.53-6.13-.216-3.81-15.672-3.92-21.809-1.61-6.141 2.3-9.352 4.73-10.557 11.22Z"/><path fill="#fff" d="m645.049 1513.42-.548 20.56c-18.377.13-79.221.14-89.088-9.6-11.27-11.09-34.822-78.51-39.21-95.26-4.343-16.75-.175-31.09 14.738-32.15 15.129-1.05 21.142 17.59 25.921 33.25 4.779 15.65 18.156 71.88 18.156 71.88s63.802 10.44 70.031 11.32Z"/><mask id="aH" width="489" height="148" x="754" y="399" maskUnits="userSpaceOnUse" style="mask-type:luminance"><path fill="#fff" d="M1211.41 546.167H785.616c-17.375 0-31.589-14.214-31.589-31.589 0-17.369 14.214-31.588 31.589-31.588h29.177c3.492-16.56 18.253-29.095 35.811-29.095h64.327c-.037-.8-.244-1.564-.244-2.373 0-28.566 23.373-51.934 51.934-51.934h10.267c28.562 0 51.932 23.368 51.932 51.934 0 .809-.2 1.573-.24 2.373h30.25c17.56 0 32.32 12.535 35.81 29.095h116.77c17.37 0 31.59 14.219 31.59 31.588 0 17.375-14.22 31.589-31.59 31.589Z"/></mask><g mask="url(#aH)"><path fill="url(#aI)" d="M1211.41 546.167H785.616c-17.375 0-31.589-14.214-31.589-31.589 0-17.369 14.214-31.588 31.589-31.588h29.177c3.492-16.56 18.253-29.095 35.811-29.095h64.327c-.037-.8-.244-1.564-.244-2.373 0-28.566 23.373-51.934 51.934-51.934h10.267c28.562 0 51.932 23.368 51.932 51.934 0 .809-.2 1.573-.24 2.373h30.25c17.56 0 32.32 12.535 35.81 29.095h116.77c17.37 0 31.59 14.219 31.59 31.588 0 17.375-14.22 31.589-31.59 31.589Z"/></g><mask id="aJ" width="381" height="78" x="373" y="640" maskUnits="userSpaceOnUse" style="mask-type:luminance"><path fill="#fff" d="M736.639 717.862H390.75c-9.349 0-17-7.655-17-17.002 0-9.352 7.651-17.006 17-17.006h9.461c0-12.54 10.258-22.798 22.793-22.798h56.661c4.968-12.015 16.799-20.539 30.553-20.539h42.49c18.184 0 33.065 14.881 33.065 33.065 0 3.607-.727 7.02-1.808 10.272h152.674c9.348 0 17.002 7.654 17.002 17.006 0 9.347-7.654 17.002-17.002 17.002Z"/></mask><g mask="url(#aJ)"><path fill="url(#aK)" d="M736.639 717.862H390.75c-9.349 0-17-7.655-17-17.002 0-9.352 7.651-17.006 17-17.006h9.461c0-12.54 10.258-22.798 22.793-22.798h56.661c4.968-12.015 16.799-20.539 30.553-20.539h42.49c18.184 0 33.065 14.881 33.065 33.065 0 3.607-.727 7.02-1.808 10.272h152.674c9.348 0 17.002 7.654 17.002 17.006 0 9.347-7.654 17.002-17.002 17.002Z"/></g><path fill="#BBE3FF" d="M1269.63 352.387c-14.01 14.007-36.81 14.007-50.82-.005-14.01-14.007-14.01-36.8 0-50.811 14.01-14.007 36.81-14.007 50.81 0 14.01 14.011 14.01 36.809.01 50.816Zm-71.73-62.164c-17.2 21.528-16.94 52.973.59 74.234 19.91 24.16 54.02 28.056 78.52 11.712l37.8 37.803a4.087 4.087 0 0 0 5.78 0l10.62-10.617a4.082 4.082 0 0 0 0-5.782l-37.81-37.808c15.32-22.958 12.87-54.349-7.38-74.589-24.62-24.628-65.75-22.944-88.12 5.047ZM514.395 1261.35h-71.622c-11.089 0-20.107 9.02-20.107 20.11v35.81c0 11.08 9.018 20.1 20.107 20.1h40.668l11.003 11.06a11.175 11.175 0 0 0 7.908 3.28c1.435 0 2.879-.28 4.255-.85 4.177-1.72 6.9-5.79 6.9-10.31v-3.18h.888c11.086 0 20.106-9.02 20.106-20.1v-35.81c0-11.09-9.02-20.11-20.106-20.11Zm0 11.16c4.931 0 8.951 4.01 8.951 8.95v35.81c0 4.93-4.02 8.95-8.951 8.95h-12.043v14.33l-14.274-14.33h-45.305c-4.936 0-8.952-4.02-8.952-8.95v-35.81c0-4.94 4.016-8.95 8.952-8.95h71.622ZM1455.81 1074.14c-9.06-9.04-21.52-14.63-35.3-14.63-1.85 0-3.77.1-5.65.33-22.59 2.47-41.09 20.73-43.85 43.23-.26 2.08-.39 4.15-.39 6.2 0 16.03 7.64 31.18 20.74 40.63 5.49 3.97 9.81 9.2 12.74 15.12h11.11l-13.55-46.12 18.85 11.34 18.89-11.34-13.56 46.12h11.22c2.99-5.94 7.41-11.25 13.1-15.44 12.68-9.36 20.28-24.41 20.28-40.17 0-13.75-5.59-26.21-14.63-35.27Zm-33.61 62.67-1.69 1-7.93-4.77 7.93 27.01 7.97-27.01-6.28 3.77Zm-22.65 39.43h41.96v-6h-41.96v6Zm0 11.97h41.96v-6h-41.96v6Zm1.92 5.19c-.66 0-1.29-.1-1.92-.27.06 3.29 2.72 5.95 6.04 5.95h3.2v1.17c0 2.52 2.02 4.55 4.51 4.55h14.42a4.54 4.54 0 0 0 4.55-4.55v-1.17h3.2c3.28 0 5.97-2.66 6.04-5.95-.63.17-1.26.27-1.93.27h-38.11ZM436.756 950.42h-67.827v9.756h67.827v-9.756Zm-14.09 18.593h-53.737v9.752h53.737v-9.752Zm27.287 30.038h-31.276a4.881 4.881 0 0 0-4.877 4.879v40.77h-59.208V917.019h95.361v82.032Zm-26.401 36.519v-26.76h21.194l-21.194 26.76Zm31.278-128.303H349.715a4.874 4.874 0 0 0-4.877 4.876v137.437a4.88 4.88 0 0 0 4.877 4.88h68.962l.139-.02.944-.11.567-.19.463-.16.588-.37.336-.22.785-.78 36.155-45.65c.321-.41.553-.86.728-1.33l.113-.44.174-1.04.038-.22v-91.787a4.875 4.875 0 0 0-4.877-4.876Zm-18.074 24.564h-67.827v9.752h67.827v-9.752ZM1162.37 343.826h-4.6v-4.6h4.6v4.6ZM1120.95 343.827h-9.2v-4.6h9.2v4.6Zm23.01 0h-9.2v-4.6h9.2v4.6Zm-54.25 2.199-1.43-4.37a49.04 49.04 0 0 1 9.41-2.075l.54 4.568c-2.89.345-5.76.975-8.52 1.877Zm-18.36 11.509-3.3-3.188a48.929 48.929 0 0 1 7.32-6.256l2.63 3.772a45.33 45.33 0 0 0-6.65 5.672Zm-10.82 18.763-4.42-1.265a49.384 49.384 0 0 1 3.54-8.961l4.1 2.103a44.372 44.372 0 0 0-3.22 8.123Zm-1.71 22.204h-4.6v-9.204h4.6v9.204Zm0 23.005h-4.6v-9.2h4.6v9.2Zm0 23.005h-4.6v-9.2h4.6v9.2Zm0 23.009h-4.6v-9.205h4.6v9.205Zm0 23.004h-4.6v-9.2h4.6v9.2Zm0 23.005h-4.6v-9.2h4.6v9.2Zm0 23.009h-4.6v-9.204h4.6v9.204Zm0 23.005h-4.6v-9.2h4.6v9.2Zm0 23.004h-4.6v-9.2h4.6v9.2Zm0 23.005h-4.6v-9.2h4.6v9.2Zm0 23.009h-4.6v-9.204h4.6v9.204Zm0 23.005h-4.6v-9.205h4.6v9.205Zm0 23.004h-4.6v-9.2h4.6v9.2Zm0 23.01h-4.6v-9.205h4.6v9.205Zm0 23.004h-4.6v-9.204h4.6v9.204Zm0 23.005h-4.6v-9.2h4.6v9.2Zm0 23.009h-4.6v-9.205h4.6v9.205Zm0 23.005h-4.6v-9.205h4.6v9.205ZM1058.82 808.054h-4.6v-4.6h4.6v4.6ZM402.842 1316.09h-4.6v-4.6h4.6v4.6ZM305.737 994.838l-2.569-3.814a37.925 37.925 0 0 1 8.571-4.315l1.531 4.338a33.389 33.389 0 0 0-7.533 3.791Zm-12.786 16.402-4.327-1.56a37.917 37.917 0 0 1 4.367-8.54l3.8 2.59a33.49 33.49 0 0 0-3.84 7.51Zm-1.96 21.58h-4.6v-9.04h4.6v9.04Zm0 22.61h-4.6v-9.04h4.6v9.04Zm0 22.6h-4.6v-9.04h4.6v9.04Zm0 22.6h-4.6v-9.04h4.6v9.04Zm0 22.61h-4.6v-9.04h4.6v9.04Zm0 22.61h-4.6v-9.05h4.6v9.05Zm0 22.6h-4.6v-9.04h4.6v9.04Zm0 22.6h-4.6v-9.04h4.6v9.04Zm0 22.6h-4.6v-9.04h4.6v9.04Zm0 22.61h-4.6v-9.04h4.6v9.04Zm0 22.6h-4.6v-9.04h4.6v9.04Zm-4.437 22.82a39.148 39.148 0 0 1-.163-3.57v-5.69h4.6v5.69c0 1.06.046 2.11.145 3.14l-4.582.43Zm9.446 21.68a38.236 38.236 0 0 1-5.426-7.91l4.087-2.1a33.398 33.398 0 0 0 4.777 6.95l-3.438 3.06Zm20.445 11.9a37.627 37.627 0 0 1-9.063-3.18l2.066-4.11a33.235 33.235 0 0 0 7.959 2.79l-.962 4.5Zm23.027.83h-9.044v-4.6h9.044v4.6Zm22.601 0h-9.04v-4.6h9.04v4.6Zm22.607 0h-9.043v-4.6h9.043v4.6ZM330.565 989.156h-4.6v-4.6h4.6v4.6ZM499.469 1221.19c0 5.87-4.757 10.63-10.622 10.63-5.86 0-10.617-4.76-10.617-10.63 0-5.86 4.757-10.61 10.617-10.61 5.865 0 10.622 4.75 10.622 10.61ZM530.947 1221.19c0 5.87-4.752 10.63-10.617 10.63-5.865 0-10.617-4.76-10.617-10.63 0-5.86 4.752-10.61 10.617-10.61 5.865 0 10.617 4.75 10.617 10.61ZM562.423 1221.19c0 5.87-4.752 10.63-10.617 10.63-5.865 0-10.617-4.76-10.617-10.63 0-5.86 4.752-10.61 10.617-10.61 5.865 0 10.617 4.75 10.617 10.61ZM921.629 683.058c-6.431 0-11.666 5.23-11.666 11.666 0 6.431 5.235 11.661 11.666 11.661s11.665-5.23 11.665-11.661c0-6.436-5.234-11.666-11.665-11.666Zm0 27.927c-8.97 0-16.266-7.296-16.266-16.261 0-8.97 7.296-16.266 16.266-16.266 8.97 0 16.265 7.296 16.265 16.266 0 8.965-7.295 16.261-16.265 16.261ZM921.629 641.653c-6.431 0-11.666 5.231-11.666 11.666 0 6.431 5.235 11.661 11.666 11.661s11.665-5.23 11.665-11.661c0-6.435-5.234-11.666-11.665-11.666Zm0 27.927c-8.97 0-16.266-7.291-16.266-16.261 0-8.97 7.296-16.266 16.266-16.266 8.97 0 16.265 7.296 16.265 16.266 0 8.97-7.295 16.261-16.265 16.261ZM921.629 600.249c-6.431 0-11.666 5.23-11.666 11.661 0 6.435 5.235 11.665 11.666 11.665s11.665-5.23 11.665-11.665c0-6.431-5.234-11.661-11.665-11.661Zm0 27.926c-8.97 0-16.266-7.295-16.266-16.265 0-8.966 7.296-16.261 16.266-16.261 8.97 0 16.265 7.295 16.265 16.261 0 8.97-7.295 16.265-16.265 16.265ZM1396.18 1276.83h-16.66v-16.65h16.66v16.65ZM1396.18 1310.18h-16.66v-16.66h16.66v16.66ZM1396.18 1343.52h-16.66v-16.65h16.66v16.65ZM1985.46 772.197v16.652h-16.66v-16.652h16.66ZM2018.8 772.197v16.652h-16.66v-16.652h16.66ZM2052.14 772.197v16.652h-16.65v-16.652h16.65ZM1886.53 390.204h-4.6v-4.6h4.6v4.6ZM1910.08 390.203h-9.42v-4.6h9.42v4.6Zm23.54 0h-9.42v-4.6h9.42v4.6Zm22.92.727a24.618 24.618 0 0 0-5.94-.727h-2.85v-4.6h2.85c2.39 0 4.76.29 7.05.865l-1.11 4.462Zm16.02 13.257a23.949 23.949 0 0 0-4.93-6.987l3.24-3.275a28.682 28.682 0 0 1 5.86 8.317l-4.17 1.945Zm6.87 22.205h-4.6v-9.421h4.6v9.421Zm0 23.538h-4.6v-9.412h4.6v9.412Zm0 23.547h-4.6v-9.421h4.6v9.421Zm0 23.538h-4.6v-9.416h4.6v9.416Zm0 23.543h-4.6v-9.416h4.6v9.416Zm0 23.548h-4.6v-9.421h4.6v9.421Zm0 23.538h-4.6v-9.416h4.6v9.416Zm0 23.543h-4.6v-9.417h4.6v9.417Zm0 23.542h-4.6v-9.416h4.6v9.416Zm0 23.543h-4.6v-9.416h4.6v9.416Zm0 23.543h-4.6v-9.416h4.6v9.416Zm0 23.543h-4.6v-9.416h4.6v9.416Zm0 23.543h-4.6v-9.417h4.6v9.417Zm0 23.542h-4.6v-9.416h4.6v9.416ZM1979.43 751.249h-4.6v-4.6h4.6v4.6ZM2046.12 806.232h-4.6v-4.6h4.6v4.6ZM2046.12 829.159h-4.6v-9.167h4.6v9.167Zm0 22.927h-4.6v-9.168h4.6v9.168Zm0 22.926h-4.6v-9.172h4.6v9.172Zm0 22.927h-4.6v-9.173h4.6v9.173Zm0 22.921h-4.6v-9.167h4.6v9.167Zm0 22.927h-4.6v-9.168h4.6v9.168Zm0 22.926h-4.6v-9.168h4.6v9.168Zm0 22.927h-4.6v-9.173h4.6v9.173Zm0 22.93h-4.6v-9.18h4.6v9.18Zm0 22.92h-4.6v-9.17h4.6v9.17Zm0 22.93h-4.6v-9.17h4.6v9.17Zm0 22.93h-4.6v-9.18h4.6v9.18Zm0 22.92h-4.6v-9.17h4.6v9.17Zm0 22.92h-4.6v-9.16h4.6v9.16Zm0 22.93h-4.6v-9.17h4.6v9.17Zm0 22.93h-4.6v-9.17h4.6v9.17Zm0 22.92h-4.6v-9.17h4.6v9.17Zm0 22.92h-4.6v-9.16h4.6v9.16Zm0 22.93h-4.6v-9.17h4.6v9.17ZM2046.12 1260.18h-4.6v-4.6h4.6v4.6ZM894.7 1118.15h-4.6v-4.6h4.6v4.6ZM894.7 1141.55h-4.6v-9.36h4.6v9.36Zm0 23.4h-4.6v-9.36h4.6v9.36Zm0 23.4h-4.6v-9.36h4.6v9.36Zm0 23.4h-4.6v-9.36h4.6v9.36Zm0 23.4h-4.6v-9.36h4.6v9.36Zm0 23.4h-4.6v-9.36h4.6v9.36Zm-3.621 23.89a31.533 31.533 0 0 1-.979-7.79v-2.06h4.6v2.06c0 2.25.28 4.48.837 6.65l-4.458 1.14Zm15.015 19.46a30.858 30.858 0 0 1-7.875-6.25l3.404-3.1a26.409 26.409 0 0 0 6.711 5.34l-2.24 4.01Zm23.883 3.97-9.402-.01.092-4.6 9.31.01v4.6Zm23.4 0h-9.356v-4.6h9.356v4.6Zm23.4 0h-9.356v-4.6h9.356v4.6Zm23.403 0h-9.359v-4.6h9.359v4.6Zm23.4 0h-9.36v-4.6h9.36v4.6Zm23.4 0h-9.36v-4.6h9.36v4.6Zm23.4 0h-9.36v-4.6h9.36v4.6Zm23.4 0h-9.36v-4.6h9.36v4.6Zm23.4 0h-9.36v-4.6h9.36v4.6Zm23.4 0h-9.36v-4.6h9.36v4.6Zm23.4 0h-9.36v-4.6h9.36v4.6Zm23.4 0h-9.36v-4.6h9.36v4.6ZM1206.11 1305.87h-4.6v-4.6h4.6v4.6ZM952.362 614.21h-4.6v-4.6h4.6v4.6ZM977.96 614.21h-10.239v-4.6h10.239v4.6Zm25.6 0h-10.245v-4.6h10.245v4.6Zm25.6 0h-10.24v-4.6h10.24v4.6ZM1049.12 614.21h-4.6v-4.6h4.6v4.6Z"/><path fill="#BBE3FF" d="M293.291 1217.56h-4.6v-4.6h4.6v4.6ZM412.301 1130.4h-9.13v-4.6h9.13v4.6Zm22.826 0h-9.132v-4.6h9.132v4.6Zm22.826 0h-9.13v-4.6h9.13v4.6Zm22.824 0h-9.131v-4.6h9.131v4.6Zm22.826 0h-9.127v-4.6h9.127v4.6Zm22.825 0h-9.127v-4.6h9.127v4.6Zm22.825 0h-9.131v-4.6h9.131v4.6Zm-168.191.92-1.245-4.43a29.63 29.63 0 0 1 7.971-1.09h1.688v4.6h-1.684c-2.291 0-4.555.32-6.73.92Zm-15.561 13.01-4.132-2.03a29.444 29.444 0 0 1 5.75-8l3.234 3.27a24.782 24.782 0 0 0-4.852 6.76Zm-2.499 21.39h-4.6v-9.13h4.6v9.13Zm-.027 22.92-4.596-.18.023-9.05h4.6v7.94c0 .44-.009.87-.027 1.29Zm-10.474 21.61-3.006-3.49a25.56 25.56 0 0 0 5.358-6.4l3.957 2.35a30.337 30.337 0 0 1-6.309 7.54Zm-36.387 7.31h-9.13v-4.6h9.13v4.6Zm16.67 0h-2.975v-4.6h2.975c1.899 0 3.784-.2 5.601-.61l1.006 4.49c-2.147.49-4.371.72-6.607.72ZM567.709 1130.4h-4.6v-4.6h4.6v4.6ZM520.742 479.03h151.741v-13.8H520.742v13.8ZM520.742 509.21h151.741v-13.8H520.742v13.8ZM452.365 486.68l18.183 19.862 30.075-35.824-10.571-8.874-19.955 23.768-7.553-8.252-10.179 9.32ZM520.742 539.391h151.741v-13.8H520.742v13.8ZM520.742 569.571h90.352v-13.8h-90.352v13.8ZM598.911 606.735h-4.6v-8.786h4.6v8.786Zm-4.393 23.262a29.155 29.155 0 0 1-.207-3.491v-5.971h4.6v5.975c0 .999.059 1.978.174 2.944l-4.567.543Zm12.636 20.654a29.234 29.234 0 0 1-7.167-6.872l3.698-2.733a24.658 24.658 0 0 0 6.04 5.792l-2.571 3.813Zm23.363 4.968h-7.098a28.69 28.69 0 0 1-2.286-.092l.373-4.586c.63.051 1.269.078 1.913.078h7.098v4.6Zm23 0h-9.2v-4.6h9.2v4.6Zm23 0h-9.2v-4.6h9.2v4.6Zm23 0h-9.2v-4.6h9.2v4.6Zm23 0h-9.2v-4.6h9.2v4.6Zm23 0h-9.2v-4.6h9.2v4.6Zm23 0h-9.2v-4.6h9.2v4.6Zm23 0h-9.2v-4.6h9.2v4.6Zm23 0h-9.2v-4.6h9.2v4.6Zm23 0h-9.2v-4.6h9.2v4.6Zm23 0h-9.2v-4.6h9.2v4.6Zm23 0h-9.2v-4.6h9.2v4.6Z"/></g><defs><linearGradient id="c" x1="1150" x2="1150" y1="123.8" y2="1858.31" gradientUnits="userSpaceOnUse"><stop stop-color="#9BC0E0"/><stop offset=".03" stop-color="#9BC0E0"/><stop offset="1" stop-color="#82B1DA"/></linearGradient><linearGradient id="e" x1="1655.43" x2="1655.43" y1="1729.98" y2="1040.29" gradientUnits="userSpaceOnUse"><stop stop-color="#DCE8EF"/><stop offset="1" stop-color="#F0F5F7"/></linearGradient><linearGradient id="g" x1="1541.46" x2="1769.39" y1="903.752" y2="903.752" gradientUnits="userSpaceOnUse"><stop stop-color="#F9FBFC"/><stop offset="1" stop-color="#F0F5F7"/></linearGradient><linearGradient id="i" x1="1655.42" x2="1655.42" y1="1729.98" y2="1040.29" gradientUnits="userSpaceOnUse"><stop stop-color="#DCE8EF"/><stop offset="1" stop-color="#F0F5F7"/></linearGradient><linearGradient id="k" x1="1655.42" x2="1655.42" y1="1811.64" y2="1503.83" gradientUnits="userSpaceOnUse"><stop stop-color="#1A6AAE"/><stop offset="1" stop-color="#4B93BA"/></linearGradient><linearGradient id="m" x1="1655.42" x2="1655.42" y1="1811.64" y2="1503.83" gradientUnits="userSpaceOnUse"><stop stop-color="#72A8D1"/><stop offset="1" stop-color="#90C0D8"/></linearGradient><linearGradient id="o" x1="1655.42" x2="1655.42" y1="1811.64" y2="1503.83" gradientUnits="userSpaceOnUse"><stop stop-color="#72A8D1"/><stop offset="1" stop-color="#90C0D8"/></linearGradient><linearGradient id="q" x1="1655.42" x2="1655.42" y1="1811.64" y2="1503.83" gradientUnits="userSpaceOnUse"><stop stop-color="#72A8D1"/><stop offset="1" stop-color="#90C0D8"/></linearGradient><linearGradient id="s" x1="1655.42" x2="1655.42" y1="1811.64" y2="1503.83" gradientUnits="userSpaceOnUse"><stop stop-color="#72A8D1"/><stop offset="1" stop-color="#90C0D8"/></linearGradient><linearGradient id="u" x1="1655.42" x2="1655.42" y1="1811.64" y2="1503.83" gradientUnits="userSpaceOnUse"><stop stop-color="#72A8D1"/><stop offset="1" stop-color="#90C0D8"/></linearGradient><linearGradient id="w" x1="1655.42" x2="1655.42" y1="1811.64" y2="1503.83" gradientUnits="userSpaceOnUse"><stop stop-color="#72A8D1"/><stop offset="1" stop-color="#90C0D8"/></linearGradient><linearGradient id="y" x1="1655.42" x2="1655.42" y1="1811.64" y2="1503.83" gradientUnits="userSpaceOnUse"><stop stop-color="#72A8D1"/><stop offset="1" stop-color="#90C0D8"/></linearGradient><linearGradient id="A" x1="1655.42" x2="1655.42" y1="1811.64" y2="1503.83" gradientUnits="userSpaceOnUse"><stop stop-color="#72A8D1"/><stop offset="1" stop-color="#90C0D8"/></linearGradient><linearGradient id="C" x1="1150" x2="1150" y1="123.799" y2="1858.31" gradientUnits="userSpaceOnUse"><stop stop-color="#BDDAF2"/><stop offset=".03" stop-color="#BDDAF2"/><stop offset="1" stop-color="#A3CBED"/></linearGradient><linearGradient id="E" x1="394.131" x2="994.826" y1="1509.13" y2="1509.13" gradientUnits="userSpaceOnUse"><stop stop-color="#DCE8EF"/><stop offset="1" stop-color="#F0F5F7"/></linearGradient><linearGradient id="G" x1="394.131" x2="994.826" y1="1165.18" y2="1165.18" gradientUnits="userSpaceOnUse"><stop stop-color="#DCE8EF"/><stop offset="1" stop-color="#F0F5F7"/></linearGradient><linearGradient id="I" x1="875.402" x2="686.817" y1="808.054" y2="808.054" gradientUnits="userSpaceOnUse"><stop stop-color="#F0F5F7"/><stop offset="1" stop-color="#fff"/></linearGradient><linearGradient id="K" x1="682.618" x2="682.618" y1="1404.25" y2="1768.74" gradientUnits="userSpaceOnUse"><stop stop-color="#DF697B"/><stop offset="1" stop-color="#BE2773"/></linearGradient><linearGradient id="M" x1="682.616" x2="682.616" y1="1404.25" y2="1768.73" gradientUnits="userSpaceOnUse"><stop stop-color="#EBA7B4"/><stop offset="1" stop-color="#D781B0"/></linearGradient><linearGradient id="O" x1="682.617" x2="682.617" y1="1404.25" y2="1768.74" gradientUnits="userSpaceOnUse"><stop stop-color="#EBA7B4"/><stop offset="1" stop-color="#D781B0"/></linearGradient><linearGradient id="Q" x1="682.616" x2="682.616" y1="1404.25" y2="1768.74" gradientUnits="userSpaceOnUse"><stop stop-color="#EBA7B4"/><stop offset="1" stop-color="#D781B0"/></linearGradient><linearGradient id="S" x1="682.617" x2="682.617" y1="1404.25" y2="1768.74" gradientUnits="userSpaceOnUse"><stop stop-color="#EBA7B4"/><stop offset="1" stop-color="#D781B0"/></linearGradient><linearGradient id="U" x1="682.617" x2="682.617" y1="1404.25" y2="1768.73" gradientUnits="userSpaceOnUse"><stop stop-color="#EBA7B4"/><stop offset="1" stop-color="#D781B0"/></linearGradient><linearGradient id="W" x1="682.616" x2="682.616" y1="1404.25" y2="1768.74" gradientUnits="userSpaceOnUse"><stop stop-color="#EBA7B4"/><stop offset="1" stop-color="#D781B0"/></linearGradient><linearGradient id="Y" x1="682.618" x2="682.618" y1="1404.25" y2="1768.73" gradientUnits="userSpaceOnUse"><stop stop-color="#EBA7B4"/><stop offset="1" stop-color="#D781B0"/></linearGradient><linearGradient id="aa" x1="682.617" x2="682.617" y1="1404.25" y2="1768.74" gradientUnits="userSpaceOnUse"><stop stop-color="#EBA7B4"/><stop offset="1" stop-color="#D781B0"/></linearGradient><linearGradient id="ac" x1="682.616" x2="682.616" y1="1404.25" y2="1768.74" gradientUnits="userSpaceOnUse"><stop stop-color="#EBA7B4"/><stop offset="1" stop-color="#D781B0"/></linearGradient><linearGradient id="ae" x1="1045.21" x2="1526.13" y1="1857.88" y2="1857.88" gradientUnits="userSpaceOnUse"><stop stop-color="#2672B2"/><stop offset="1" stop-color="#4B93BA"/></linearGradient><linearGradient id="ag" x1="1556.33" x2="1136.2" y1="1735.2" y2="1735.2" gradientUnits="userSpaceOnUse"><stop stop-color="#FBD14C"/><stop offset=".089" stop-color="#FBD14C"/><stop offset="1" stop-color="#FAC00A"/></linearGradient><linearGradient id="ai" x1="1027.52" x2="1508.43" y1="1612.52" y2="1612.52" gradientUnits="userSpaceOnUse"><stop stop-color="#DF697B"/><stop offset="1" stop-color="#BE2773"/></linearGradient><linearGradient id="ak" x1="632.37" x2="726.46" y1="1646.14" y2="1364.08" gradientUnits="userSpaceOnUse"><stop stop-color="#F0F5F7"/><stop offset="1" stop-color="#fff"/></linearGradient><linearGradient id="am" x1="610.136" x2="712.05" y1="1568.95" y2="1568.95" gradientUnits="userSpaceOnUse"><stop stop-color="#FBD14C"/><stop offset=".089" stop-color="#FBD14C"/><stop offset="1" stop-color="#FAC00A"/></linearGradient><linearGradient id="ao" x1="736.635" x2="731.154" y1="1344.41" y2="1357.32" gradientUnits="userSpaceOnUse"><stop stop-color="#F9FBFC"/><stop offset="1" stop-color="#F0F5F7"/></linearGradient><linearGradient id="aq" x1="610.134" x2="712.048" y1="1568.95" y2="1568.95" gradientUnits="userSpaceOnUse"><stop stop-color="#FDE49A"/><stop offset=".089" stop-color="#FDE49A"/><stop offset="1" stop-color="#FCDA74"/></linearGradient><linearGradient id="as" x1="610.135" x2="712.049" y1="1568.95" y2="1568.95" gradientUnits="userSpaceOnUse"><stop stop-color="#FDE49A"/><stop offset=".089" stop-color="#FDE49A"/><stop offset="1" stop-color="#FCDA74"/></linearGradient><linearGradient id="au" x1="610.135" x2="712.049" y1="1568.95" y2="1568.95" gradientUnits="userSpaceOnUse"><stop stop-color="#FDE49A"/><stop offset=".089" stop-color="#FDE49A"/><stop offset="1" stop-color="#FCDA74"/></linearGradient><linearGradient id="aw" x1="610.136" x2="712.05" y1="1568.95" y2="1568.95" gradientUnits="userSpaceOnUse"><stop stop-color="#FDE49A"/><stop offset=".089" stop-color="#FDE49A"/><stop offset="1" stop-color="#FCDA74"/></linearGradient><linearGradient id="ay" x1="610.135" x2="712.049" y1="1568.95" y2="1568.95" gradientUnits="userSpaceOnUse"><stop stop-color="#FDE49A"/><stop offset=".089" stop-color="#FDE49A"/><stop offset="1" stop-color="#FCDA74"/></linearGradient><linearGradient id="aA" x1="610.135" x2="712.049" y1="1568.95" y2="1568.95" gradientUnits="userSpaceOnUse"><stop stop-color="#FDE49A"/><stop offset=".089" stop-color="#FDE49A"/><stop offset="1" stop-color="#FCDA74"/></linearGradient><linearGradient id="aC" x1="610.134" x2="712.048" y1="1568.95" y2="1568.95" gradientUnits="userSpaceOnUse"><stop stop-color="#FDE49A"/><stop offset=".089" stop-color="#FDE49A"/><stop offset="1" stop-color="#FCDA74"/></linearGradient><linearGradient id="aE" x1="632.372" x2="726.462" y1="1646.14" y2="1364.07" gradientUnits="userSpaceOnUse"><stop stop-color="#B8CBD6"/><stop offset="1" stop-color="#C3D3DD"/></linearGradient><linearGradient id="aG" x1="610.135" x2="712.05" y1="1568.95" y2="1568.95" gradientUnits="userSpaceOnUse"><stop stop-color="#C0AD42"/><stop offset=".089" stop-color="#C0AD42"/><stop offset="1" stop-color="#BF9F09"/></linearGradient><linearGradient id="aI" x1="1150" x2="1150" y1="123.799" y2="1858.31" gradientUnits="userSpaceOnUse"><stop stop-color="#BDDAF2"/><stop offset=".03" stop-color="#BDDAF2"/><stop offset="1" stop-color="#A3CBED"/></linearGradient><linearGradient id="aK" x1="1150" x2="1150" y1="123.8" y2="1858.31" gradientUnits="userSpaceOnUse"><stop stop-color="#BDDAF2"/><stop offset=".03" stop-color="#BDDAF2"/><stop offset="1" stop-color="#A3CBED"/></linearGradient><clipPath id="a"><path fill="#fff" d="M0 0h2300v2300H0z"/></clipPath></defs></svg>