<svg xmlns="http://www.w3.org/2000/svg" width="3399" height="2667" fill="none"><g clip-path="url(#a)"><path fill="#EBF3FA" d="M3278.66 2660.87H244.084S-167.592 2169.9 94.321 1592.28c261.913-577.64 613.68-287.16 596.647-959.457C673.949-39.503 1499.97-97.247 1762.9 97.687c262.93 194.95 261.35 429.718 804.13 352.04 542.79-77.662 646.5 569.883 505.27 899.913-9.56 22.34-16.94 43.47-22.38 63.5a366.74 366.74 0 0 0-2.99 11.71c-92.57 387.49 629.03 439.13 231.73 1236.02Z"/><path fill="#A8D29F" d="M484.662 2654.71H661.32c9.467-9.76-6.55-31.96-23.286-33.45-7.27-.68-16.461 1.18-26.964 3.88-2.43-39.3-16.314-215.99-68.635-208.89-58.83 7.95 0 77.81 16.63 119.17 12.32 30.63 25.317 74.56 31.255 95.3-4.777 1.27-9.722 2.5-14.773 3.63-7.797-29.14-36.81-127.17-73.706-121.47-43.319 6.7-25.907 46 4.797 69.33 22.526 17.15 50.188 41.54 63.331 53.32-11.136 2.21-22.759 3.7-34.549 3.36-30.261-.87-45.031 9.99-50.758 15.82ZM3156.93 2654.71h-139.34c-7.47-7.71 5.18-25.21 18.37-26.39 5.73-.53 12.99.93 21.26 3.07 1.93-31 12.88-170.36 54.14-164.77 46.4 6.28 0 61.38-13.11 94-9.73 24.17-19.97 58.82-24.65 75.17 3.76 1 7.66 1.96 11.65 2.86 6.15-22.98 29.03-100.31 58.13-95.8 34.16 5.27 20.44 36.27-3.79 54.68-17.76 13.53-39.57 32.77-49.95 42.05 8.79 1.75 17.95 2.93 27.25 2.65 23.87-.67 35.53 7.89 40.04 12.48Z"/><path fill="#DFEBFD" d="M839.838 1639.45s-29.676-332.3-237.165-399.67c0 0-40.448-12.35-59.734 40.64-19.287 52.99 62.337 65.73 110.559 95.49 48.223 29.77 156.341 141.42 186.34 263.54Z"/><path fill="#DFEBFD" d="M841.638 1605.21s-147.341-196.88-257.355-168.18c-110.014 28.7-75.887 92.22-42.739 85.28 33.148-6.93 97.369-36 158.34-3.55 60.972 32.46 141.754 86.45 141.754 86.45ZM2624.51 2444.13s35.35-395.81 282.5-476.05c0 0 48.18-14.7 71.15 48.41 22.98 63.12-74.25 78.29-131.69 113.74-57.44 35.45-186.22 168.44-221.96 313.9Z"/><path fill="#DFEBFD" d="M2622.38 2403.34s175.49-234.52 306.54-200.32c131.03 34.2 90.39 109.85 50.91 101.6-39.49-8.26-115.98-42.89-188.61-4.24-72.62 38.66-168.84 102.96-168.84 102.96Z"/><path fill="#CDDFF9" d="M810.784 1759.86s9.449 182.32-18.53 182.37c-27.981.05 1.503-204.09 1.503-204.09s-127.953-100.13-181.978-101.88c0 0 66.705 186.69 39.579 178.34-27.129-8.34-103.954-198.68-103.954-198.68s-136.296-52.44-168.907 44.82c-32.611 97.24-1.559 152.99 18.468 162.39 20.027 9.39 152.842 27.27 147.268 47.7-5.574 20.45-98.532 40.51-146.556 14.12 0 0 38.281 173.91 111.462 176.42 73.18 2.49 101.107-48.64 146.307-46.09 45.201 2.54 76.43 22.15 52.552 33.45-23.878 11.3-98.65-9.96-138.616 22.02-39.966 31.98-71.586 50.63-6.127 77.5 65.458 26.89 187.072 34.55 217.57-24.71l3.814-7.4c-1.984 4.96-3.814 7.4-3.814 7.4 11.498 10.67 25.814 55.42 35.438 89.55 1.278 5.75 3.417 13.77 6.691 24.71 1.279 4.91 2.292 8.94 2.989 11.74 16.349 75.67-8.845 198.29-8.845 198.29l13.873 6.86c44.545-120.71-.752-232.2-.752-232.2-27.858-87.19-18.894-158.2-18.894-158.2s138.104-68.6 89.971-197.15c0 0-40.765-80.63-90.512-107.28Z"/><path fill="#DFEBFD" d="M2870.8 1469.74c-24.64-127.43-200.99-95.16-200.99-95.16s-125.11 216.08-159.88 219.91c-34.75 3.86 77.31-210.12 77.31-210.12-66.86-10.64-240.55 82.3-240.55 82.3s3.68 258.22-30.79 251.54c-34.48-6.68 6.33-228.84 6.33-228.84-65.57 21.01-128.69 110.59-128.69 110.59-79.88 146.82 79.33 263.97 79.33 263.97s-.3 89.51-48.59 190.24c0 0-10.78 18.52-22.09 50.29l17.7.72c1.61-5.71 3.35-11.22 5.26-16.51 0-.03.02-.06.04-.09.03-.07.06-.15.08-.23 1.31-3.28 3.18-7.93 5.5-13.6.02 0 .02-.02.02-.02 0-.02.01-.02.01-.03 5.77-12.64 9.69-22.01 12.18-28.77.01-.02.01-.05.01-.06 17.33-39.73 42.12-91.4 57.99-101.79 0 0-1.86-3.44-3.51-10.03 1.12 3.2 2.29 6.53 3.51 10.03 28.1 80.15 179.2 99.5 264.17 81.93 84.96-17.59 48.98-48.02 4.84-96.85-44.14-48.82-139.68-40.35-167.3-59.92-27.62-19.56 14-36.3 70.11-28.72 56.11 7.57 82.34 77.1 172.93 91.35 90.58 14.26 165.57-190.71 165.57-190.71-63.4 21.11-174.75-25.6-178.34-52.07-3.6-26.49 162.92-17.03 189.11-23.86 26.18-6.82 73.36-68.09 48.73-195.49Z"/><path fill="#A0D694" d="M2118.54 890.07s96.48-42.854 109.62 4.932c13.16 47.769-109.62-4.932-109.62-4.932Z"/><path fill="#A0D694" d="M2195.11 959.911c-14.51 40.269-76.62-69.808-76.62-69.808s91.1 29.539 76.62 69.808Z"/><path fill="#A8D29F" d="M1847.29 638.725s-12.88-138.796 33.21-143.631c46.1-4.818-33.21 143.631-33.21 143.631Z"/><path fill="#A8D29F" d="M1929.74 555.876c32.12 29.748-82.44 82.931-82.44 82.931s50.32-112.678 82.44-82.931Z"/><path fill="#A0D694" d="M1294.78 482.617s-94.96-106.992-58.51-152.416c36.43-45.441 58.51 152.416 58.51 152.416Z"/><path fill="#A0D694" d="M1315.07 337.974c45.42-3.39-20.23 144.69-20.23 144.69s-25.2-141.301 20.23-144.69Z"/><path fill="#6385DB" d="m2731.74 2654.73-1720.24 7.02c-.87-.85-1.52-1.64-1.94-2.35-.09-.16-.18-.35-.25-.49-2.48-5.51-14.117-16.21-31.52-31.41v-.01c-35.447-30.99-94.82-80.73-149.08-143.26a607.137 607.137 0 0 1-9.102-10.69 530.95 530.95 0 0 1-8.003-9.73c-106.086-130.83-179.145-310.78 15.324-492.06 320.211-298.53-422.178-319.91 181.031-1146.356 4.65-6.361 969.92-21.123 982.72-4.193 212.04 280.629 160.63 634.949 182.78 802.879 62.67 474.84 746.27 197.73 558.28 1030.65Z"/><path fill="#EF873A" d="M2490.43 2661.75H726.399c30.553-103.6 133.415-355.03 253.785-440.92 185.846-132.61 618.506-187.38 965.536-124.8 403.73 72.79 536.16 449.94 544.71 565.72Z"/><path fill="#FFB27D" d="M1507.49 2336.77c-198.07 3.71-208.66-81.02-217.38-171.78-3.62-37.59-5.97-102.52-8.46-180.4-1.05-32.62-2.13-67.51-3.33-103.6-2.29-69.59-6.7-141.11-10.65-196.83-4.34-60.93-8.15-102.96-8.15-102.96l400.55-115.91 23.81-6.86c10.77 381.68 104.95 552.02 115.19 616.77 21.54 136.21-161.54 259.13-291.58 261.57Z"/><path fill="#F4A269" d="M1659.7 1638.55c-44.37 140.56-154.67 326.31-378.05 346.03-1.05-32.62-2.13-67.51-3.33-103.6-2.29-69.58-6.7-141.11-10.65-196.83l392.03-45.6Z"/><path fill="#FFB27D" d="M1172.78 1848.36s532.48 60.07 558.12-344.16c25.63-404.21 111.61-668.693-227.29-724.141-338.89-55.431-414.8 92.584-450.32 224.971-35.51 132.39-18.37 817.27 119.49 843.33Z"/><path fill="#6385DB" d="M1856.2 1418.41c-52.67 58.33-73.19 146.7-128.15 115.11 0 0 .04-.31.13-.9.03-.31.08-.72.15-1.19.05-.4.1-.85.17-1.35.04-.37.09-.75.13-1.17 1.61-12.87 5.98-51.08 7.34-94.74v-.09c.37-12.16.51-24.71.3-37.24-1.28-75.01-15.31-149.6-68.59-132.17-11.39 3.72-22.38 6.23-33.03 7.59-167.6 21.57-243.79-236.79-319.37-362.511-24.32-40.477-48.58-67.205-75.82-66.402-29.56.868-59.7 18.649-87.4 48.702-60.2 65.326-108.81 188.761-114.7 323.501 0 .11-.01.24-.01.33v.02c-4.88 107.17-73.958-154.14 18.13-344.331 19.68-40.622 868.44-37.345 884.93 11.196 2.13 6.216 4.17 12.593 6.15 19.082 87.75 288.193 18.9 395.613-90.36 516.563Z"/><path fill="#23569E" d="M1991.62 826.785c0 2.634-.62 5.253-1.86 7.823-.81 1.766-1.96 3.549-3.35 5.3-.09.097-.17.225-.27.321-5.3 6.425-14.36 12.658-26.74 18.569-5.41 2.586-11.47 5.108-18.16 7.597-.46.161-.93.338-1.42.514a355.089 355.089 0 0 1-9.09 3.197c-.72.241-1.43.465-2.16.706a495.34 495.34 0 0 1-15.72 4.723c-8.86 2.505-18.37 4.915-28.51 7.228-2.98.674-6 1.349-9.08 2.024-1.11.225-2.21.465-3.34.706a820.977 820.977 0 0 1-21.08 4.177c-7.68 1.429-15.65 2.811-23.85 4.144h-.02c-5.84.948-11.79 1.895-17.88 2.779-2.7.401-5.41.787-8.16 1.188-3.11.434-6.24.868-9.41 1.285-3.43.466-6.89.916-10.4 1.349a1611.424 1611.424 0 0 1-48.48 5.478c-1.15.128-2.28.225-3.43.337-.06.016-.1.016-.16.016-2.27.225-4.54.434-6.82.643-11.86 1.108-24 2.136-36.39 3.051-.25.017-.52.033-.77.049-3.34.241-6.68.482-10.04.706-11.68.82-23.57 1.558-35.64 2.217-2.07.112-4.15.209-6.23.321-4.53.241-9.08.45-13.67.659-7.3.337-14.66.642-22.08.915-2.19.081-4.39.161-6.61.225-2.18.081-4.37.161-6.55.209-11.83.386-23.81.691-35.91.9-15.99.273-32.18.433-48.57.433-10.01 0-19.95-.048-29.81-.176-3.02-.033-6.04-.065-9.03-.113l-11.54-.193c-2.11-.032-4.22-.064-6.32-.128-3.34-.064-6.68-.129-9.99-.225-22.42-.546-44.35-1.365-65.7-2.458a2249.96 2249.96 0 0 1-55.91-3.533c-4.51-.354-9-.691-13.46-1.076-2.26-.177-4.53-.37-6.77-.563-3.7-.305-7.36-.642-11.01-.963-5.58-.498-11.09-1.044-16.56-1.575-3.45-.353-6.87-.69-10.28-1.06a1674.115 1674.115 0 0 1-39-4.593c-1.97-.241-3.92-.498-5.86-.772-16.37-2.2-31.92-4.577-46.65-7.099-15.39-2.666-29.84-5.493-43.26-8.497a693 693 0 0 1-13.18-3.084 659.75 659.75 0 0 1-11.58-2.94c-7.25-1.943-14.08-3.919-20.5-5.959-1.34-.433-2.7-.867-4.01-1.301-11.97-3.935-22.34-8.031-31.01-12.32-.13-.064-.29-.16-.45-.224-.75-.37-1.52-.739-2.24-1.125-.08-.048-.17-.112-.25-.144-17.82-9.285-27.5-19.275-27.5-29.668 0-.482.01-.931.06-1.397.33-4.08 2.18-8.112 5.44-12.047 1.99-2.441 4.54-4.835 7.59-7.212 9.45-7.325 23.82-14.312 42.45-20.833 7.22-2.522 15.08-4.979 23.54-7.357 18.24-5.124 39.28-9.894 62.71-14.231 6-1.108 12.18-2.201 18.5-3.261 30.63-5.092 64.79-9.493 101.76-13.058 3.63-.354 7.29-.707 10.96-1.045l1.53-.144c2.93-.241 5.88-.498 8.85-.755 3.05-.257 6.13-.53 9.21-.787 14.35-1.14 29.06-2.185 44.09-3.1a2319.54 2319.54 0 0 1 33.56-1.783h.01c27.51-1.285 55.96-2.152 85.1-2.538 2.13-.032 4.25-.048 6.39-.064 9.96-.129 20.02-.177 30.12-.177 2.22 0 4.44 0 6.66.016 16.31.032 32.43.225 48.33.562 33.72.675 66.4 1.976 97.73 3.823 4.47.289 8.91.563 13.33.836 2.07.144 4.13.273 6.19.417 4.97.354 9.89.691 14.8 1.076 9.62.707 19.1 1.494 28.4 2.313 16.3 1.462 32.09 3.084 47.33 4.851 13.08 1.51 25.71 3.116 37.9 4.851 4.92.691 9.78 1.397 14.57 2.136 3.95.595 7.84 1.205 11.68 1.831 19.17 3.117 36.99 6.49 53.27 10.104 5.4 1.204 10.62 2.425 15.69 3.678 12.88 3.18 24.65 6.521 35.17 10.023 3.88 1.285 7.59 2.586 11.11 3.903 2.04.755 4.02 1.526 5.94 2.297 7.31 2.956 13.76 5.959 19.33 9.043 6.25 3.486 11.36 7.068 15.28 10.714.48.466.95.932 1.41 1.381 3.31 3.373 5.61 6.843 6.78 10.344.64 1.864.95 3.711.95 5.59Z"/><path fill="#1E3D70" d="M1208.53 899.146c-16.37-2.2-31.92-4.577-46.65-7.099-15.39-2.666-29.84-5.493-43.26-8.497a693 693 0 0 1-13.18-3.084c-3.97-.964-7.84-1.96-11.58-2.939-.02 0-.02-.033-.02-.033-17.65-33.442-28.9-64.571-30.4-92.198-2.27-41.875 8.68-81.131 8.68-81.131 47.07 12.978 72.55 38.373 93.16 69.823 40.98 62.467 43.25 125.158 43.25 125.158Z"/><path fill="#FFB27D" d="M1625.91 1291.01s31.56-87.72 96.2-67.31c64.66 20.42 50.45 92.51 30.02 139.25-20.44 46.76-46.7 103.43-106.13 94.56-59.45-8.87-20.09-166.5-20.09-166.5Z"/><path fill="#82B378" d="M2031.04 821.644c-10.21 1.783-22.79 16.239-40.64 26.664-8.9 5.188-18.46 7.854-31 10.489-5.41 2.586-11.47 5.107-18.16 7.597-.46.161-.93.338-1.42.514 9.68-17.476 23.98-39.337 42.66-57.439 22.2-21.492 50.58-37.683 84.81-34.936 0 0 17.95 1.751 19.82 26.68 1.86 24.913-32.96 16.383-56.07 20.431Z"/><path fill="#A8D29F" d="M1181.95 895.322a2945.765 2945.765 0 0 0-20.69-109.529c-1.45-6.891-2.89-13.67-4.33-20.352-.21-.979-.42-1.975-.63-2.939-10.73-49.472-21.37-92.391-30.82-127.568-13.27-49.569-24.12-83.91-29.4-99.908-1.18-3.63-2.09-6.297-2.67-8.015a81.63 81.63 0 0 1-.64-1.831c-.06-.177-.1-.29-.12-.354l-.88.466-1.33.707-2.44 1.269-.66.353-.51.257c.04.128.18.466.39 1.076.23.691.59 1.719 1.04 3.068.45 1.285.98 2.875 1.6 4.754 5.19 15.71 16.64 51.673 30.65 104.31 9.09 34.165 19.27 75.333 29.53 122.556 4.94 22.777 9.91 46.951 14.78 72.426v.016c.16.803.31 1.59.46 2.393 3.42 17.958 6.79 36.574 10.09 55.801l6.58 1.044Z"/><path fill="#F77D48" d="M1019.52 488.092c12.25 16.865 69.53 44.011 73.49 39.754 3.96-4.24-11.06-76.81-23.29-93.692-12.23-16.865-33.38-18.472-47.24-3.582-13.87 14.89-15.19 40.638-2.96 57.52Z"/><path fill="#F77D48" d="M1107.33 429.271c-11.05 18.038-21.09 91.878-16.85 95.717 4.22 3.838 59.48-28.977 70.53-47.015 11.04-18.038 7.98-43.578-6.84-57.022-14.83-13.444-35.8-9.718-46.84 8.32Z"/><path fill="#F77D48" d="M1173.23 507.769c-17.84-5.911-77.96 9.718-79.35 15.918-1.38 6.2 43.9 56.797 61.75 62.708 17.84 5.927 36.23-6.891 41.09-28.592 4.87-21.716-5.65-44.107-23.49-50.034Z"/><path fill="#F77D48" d="M1132.61 605.653c-1.78-22.407-35.1-85.292-40.35-84.665-5.25.61-28.07 70.096-26.29 92.504 1.79 22.391 18.14 38.806 36.54 36.638 18.4-2.169 31.88-22.086 30.1-44.477Z"/><path fill="#F77D48" d="M1041.42 600.835c16.37-10.456 51.63-71.767 49.18-77.453-2.46-5.686-63.94-5.156-80.3 5.301-16.372 10.457-22.674 35.096-14.081 55.014 8.591 19.917 28.831 27.595 45.201 17.138Z"/><path fill="#fff" d="M1079.71 521.278c.95-7.324 6.61-12.303 12.62-11.147 6.01 1.173 10.1 8.047 9.15 15.372-.96 7.308-6.61 12.304-12.62 11.131-6.01-1.156-10.11-8.047-9.15-15.356Z"/><path fill="#A8D29F" d="M1186.79 625.618c-18.18 27.241-37.82 141.461-31.43 147.79 6.39 6.312 94.26-40.365 112.44-67.607 18.2-27.226 14.81-67.253-7.56-89.387s-55.25-18.022-73.45 9.204ZM1107.14 753.349c18.89 11.212 60.67 79.413 58.03 85.966-2.63 6.57-72.49 8.513-91.39-2.698-18.88-11.212-26.73-38.936-17.52-61.937 9.21-22.986 31.99-32.543 50.88-21.331ZM1069.35 870.267c-11.97-3.935-22.34-8.031-31.01-12.32-.13-.064-.29-.16-.45-.225-.74-.385-1.48-.755-2.24-1.124-.08-.048-.17-.113-.25-.145-8.57-4.256-18.4-8.079-29.63-10.954-56.919-14.617-125.719 103.442-158.077 62.884-32.356-40.59 21.619-94.206 107.795-105.915 22.203-3.004 41.499 1.895 57.912 10.874 25.68 14.022 44.31 37.987 55.95 56.925Z"/><path fill="#1E3D70" d="M1298.01 908.672c-2.26-.177-4.53-.37-6.77-.562-3.7-.305-7.36-.643-11.01-.964-5.58-.498-11.09-1.044-16.56-1.574-3.45-.354-6.87-.691-10.28-1.06-13.42-1.43-26.43-2.956-39-4.594.22-14.408 4.29-99.138 66.52-153.573 16.19-14.167 36.33-26.262 61.37-34.55 0 0 2.01 11.195 2.31 29.763.63 36.703-5.37 102.206-46.58 167.114ZM1800.93 897.781c-3.11.434-6.24.867-9.41 1.285-3.43.466-6.88.916-10.39 1.349a1612.172 1612.172 0 0 1-48.49 5.478c-1.14.128-2.28.225-3.43.337-.06.016-.1.016-.15.016-2.27.225-4.54.434-6.83.642-12.11 1.125-24.5 2.169-37.16 3.101-3.34.24-6.67.481-10.04.706-1.78-31.755.34-99.137 40.18-164.656 15.55-25.571 36.86-50.886 65.92-73.662 0 0 12.4 30.085 19.32 83.364 4.8 36.96 6.95 85.083.48 142.04Z"/><path fill="#A8D29F" d="M1729.17 532.215c-.04.097-.15.45-.35 1.028-.23.659-.57 1.623-.99 2.908-.44 1.236-.94 2.778-1.55 4.577-5 15.067-15.98 49.601-29.44 100.15-7.68 28.896-16.19 63.045-24.83 101.771-2.57 11.549-5.19 23.532-7.77 35.884-1.67 7.999-3.36 16.143-5.02 24.463a2937.28 2937.28 0 0 0-19.83 109.915c-2.07.113-4.14.209-6.23.321 6.7-41.874 13.91-81.067 21.22-117.191 1.12-5.558 2.27-11.083 3.39-16.48 2.69-12.866 5.37-25.315 8.05-37.329 9.16-41.12 18.17-77.116 26.23-107.265 12.76-47.609 23.19-80.585 28.24-95.925 1.15-3.486 2.03-6.056 2.58-7.694.3-.835.5-1.397.63-1.751.04-.16.08-.257.09-.305l.82.434 1.33.69 2.35 1.221.63.337.45.241Z"/><path fill="#F77D48" d="M1793.81 494.003c-11.76 16.191-66.76 42.261-70.56 38.181-3.8-4.08 10.61-73.759 22.35-89.966 11.76-16.191 32.07-17.733 45.37-3.437 13.31 14.295 14.58 39.015 2.84 55.222Z"/><path fill="#F77D48" d="M1709.5 437.527c10.61 17.332 20.24 88.215 16.19 91.893-4.06 3.695-57.13-27.804-67.74-45.135-10.59-17.332-7.66-41.843 6.58-54.741 14.23-12.914 34.37-9.348 44.97 7.983Z"/><path fill="#F77D48" d="M1646.22 512.893c17.13-5.67 74.86 9.332 76.2 15.291 1.33 5.943-42.16 54.532-59.29 60.203-17.13 5.686-34.8-6.602-39.46-27.451-4.67-20.849 5.42-42.357 22.55-48.043Z"/><path fill="#F77D48" d="M1685.23 606.874c1.7-21.507 33.7-81.886 38.74-81.292 5.04.595 26.95 67.318 25.25 88.826-1.72 21.507-17.42 37.248-35.09 35.176-17.67-2.088-30.62-21.202-28.9-42.71Z"/><path fill="#F77D48" d="M1772.78 602.248c-15.71-10.039-49.56-68.892-47.21-74.353 2.35-5.461 61.39-4.963 77.1 5.076 15.72 10.039 21.76 33.699 13.52 52.829-8.25 19.131-27.69 26.503-43.41 16.448Z"/><path fill="#fff" d="M1736.02 525.857c-.92-7.02-6.35-11.806-12.11-10.682-5.78 1.108-9.72 7.71-8.79 14.745.92 7.02 6.35 11.822 12.11 10.698 5.78-1.124 9.71-7.726 8.79-14.761Z"/><path fill="#A8D29F" d="M1652.58 669.469c9.57 14.311 19.89 74.369 16.54 77.694-3.37 3.325-49.57-21.219-59.13-35.547-9.56-14.311-7.77-35.353 3.98-46.998 11.76-11.63 29.05-9.461 38.61 4.851ZM1619.87 732.982c13.88 17.315 33.2 94.254 29.15 99.073-4.06 4.835-66.78-20.56-80.67-37.875-13.89-17.316-13.61-45.055.62-61.953 14.23-16.898 37.02-16.561 50.9.755Z"/><path fill="#A8D29F" d="M1709.59 687.283c-13.29 7.887-42.69 55.898-40.84 60.507 1.85 4.626 51.01 5.992 64.32-1.895 13.28-7.903 18.81-27.419 12.33-43.593-6.49-16.175-22.51-22.905-35.81-15.019Z"/><path fill="#1E3D70" d="M1941.93 787.416c-.71 21.267-4.3 48.718-13.35 83.397a506.95 506.95 0 0 1-15.73 4.722c-8.86 2.506-18.37 4.915-28.51 7.228-2.98.675-6 1.349-9.08 2.024-1.1.225-2.21.466-3.33.707a830.598 830.598 0 0 1-21.09 4.176c-2.14-19.709-4.24-74.208 29.12-119.858 12.17-16.641 29.06-32.109 52.38-44.268 0 0 11.05 17.476 9.59 61.872Z"/><path fill="#82B378" d="M2022.35 728.771c-14.16 12.448-35.07 37.714-55.15 69.984-13.24 21.282-26.13 45.601-36.47 71.349-5.61 1.847-11.59 3.646-17.88 5.429 3.04-27.306 8.47-59.447 17.97-92.021 18.65-63.8 52.99-129.223 116.18-163.339 0 0 28.91-14.971 48.39 21.684 19.46 36.686-40.05 57.857-73.04 86.914Z"/><path fill="#A0D694" d="m1964.05 1103.09-.12 2.19c-.08 1.04-.16 2.13-.25 3.27v.02c-1.14 14.68-3.53 34.97-6.26 58.18-.83 7.19-1.71 14.66-2.6 22.39-.18 1.54-.35 3.07-.54 4.62v.04c-2.4 21.12-4.89 43.97-7.03 67.68-.2 2.2-.4 4.4-.58 6.6v.02a1551.89 1551.89 0 0 0-3.37 45.49c-.09 1.33-.16 2.67-.22 4v.01c-1.25 22.24-1.95 44.56-1.8 66.36 0 1.33.02 2.67.03 4 .19 16.21.85 32.09 2.15 47.35.23 2.71.46 5.41.74 8.06 0 .02 0 .04.01.05 1.03 10.44 2.38 20.59 4.09 30.3a285.4 285.4 0 0 0 2.01 10.55l-2.19.67c-.7-3.34-1.36-6.74-1.95-10.18.01-.02 0-.02 0-.02-1.6-9.02-2.88-18.39-3.91-28.04 0-.02 0-.05-.01-.08-.39-3.68-.74-7.41-1.06-11.16v-.05c-1.2-14.19-1.86-28.88-2.11-43.87.01-.02.01-.02 0-.03-.03-2.46-.05-4.92-.07-7.41-.15-22.31.57-45.18 1.86-67.92v-.02c.03-.64.08-1.29.12-1.93 1.05-18.02 2.46-35.91 4.03-53.36v-.01c.01-.26.05-.53.08-.79 2.19-24.14 4.73-47.37 7.19-68.76.1-1 .22-1.96.33-2.91.88-7.61 1.74-14.97 2.57-22.04 2.93-24.98 5.45-46.53 6.47-61.31.01-.21.02-.42.04-.63.04-.72.09-1.46.12-2.21.83-19.45-2.66-48.08-10.68-78.76v-.03c-.21-.8-.43-1.62-.65-2.44-6.22-23.162-15.01-47.384-26.45-69.647-.62-1.189-1.23-2.377-1.86-3.55-5.22-9.798-10.96-19.178-17.22-27.868-8.59-11.918-17.67-21.877-27.17-29.812-.72-.61-1.43-1.172-2.14-1.751a97.044 97.044 0 0 0-3.72-2.859c-8.78-6.473-17.87-11.292-27.31-14.424 0 0-.01.016-.02 0a86.117 86.117 0 0 0-22.24-4.24c-1.3-.081-2.61-.129-3.89-.161-1.19-.032-2.38-.048-3.54-.048-.43 0-.85 0-1.29.016h-.01c-39 .353-64.57 18.793-80.99 39.256-1.14.129-2.28.225-3.43.338 16.95-22.182 44.12-42.662 86.55-42.357.02-.016.02 0 .02 0 2.18 0 4.42.064 6.67.193 10.14.578 19.94 2.859 29.43 6.891 8.05 3.373 15.85 7.983 23.38 13.829.64.45 1.25.948 1.87 1.43.02.016.04.032.05.064.05.032.1.081.16.113.01 0 .01 0 .01.016 3.34 2.698 6.65 5.654 9.9 8.85.01.016.02.032.04.048 6.67 6.57 13.14 14.183 19.37 22.793 6.31 8.738 12.07 18.166 17.31 28.013.04.064.08.144.12.209 0 0 0 .016.01.016 12.53 23.563 22.04 49.536 28.64 74.292.38 1.47.78 2.92 1.15 4.38 7.78 30.54 11.09 58.87 10.16 78.08Z"/><path fill="#A0D694" d="M1945.43 1260.02s-38.5 4.6-54.9 45.47c0 0 30.38 5.06 54.9-45.47ZM1941.53 1314.02s-37.14 13.13-47.11 56.98c0 0 30.62-1.82 47.11-56.98ZM1939.99 1383.33s-27.96 20.05-28.58 58.23c0 0 24.58-9.22 28.58-58.23ZM1941.05 1434.28s-22.52 28.45-14.69 65.43c0 0 21.64-16.92 14.69-65.43ZM1946.75 1471.32s-8.2 38.22 13.5 65.81c0 0 12.06-27.66-13.5-65.81ZM1941.28 1434.28s8.63 38.07 38.75 48.75c0 0-.91-31.29-38.75-48.75ZM1939.99 1383.33s8.63 38.09 38.74 48.75c0 0-.92-31.29-38.74-48.75ZM1942.42 1312.95s3.39 39.29 31.67 55.82c0 0 3.3-31.05-31.67-55.82ZM1945.43 1260.17s3.94 45.61 36.77 64.79c0 0 3.84-36.06-36.77-64.79ZM1954.32 1188.46s-38.56-3.56-60.53 33.25c0 0 29.2 11.36 60.53-33.25ZM1954.31 1188.61s-2.6 45.76 27.01 71.56c0 0 8.89-34.71-27.01-71.56ZM1962.98 1102.08s-38.62 2.7-56.39 42.72c0 0 30.19 6.56 56.39-42.72ZM1962.96 1102.22s2.42 45.78 34.59 66.57c0 0 5.03-35.84-34.59-66.57ZM1951.66 1020.24s-34.83 20.48-38.64 65.75c0 0 29.94-8.02 38.64-65.75ZM1951.7 1020.37s16.64 41.15 52.88 45.36c0 0-6.62-35.45-52.88-45.36ZM1923.85 945.969s-36.89 36.992-30.6 92.711c0 0 34.03-20.3 30.6-92.711ZM1923.93 946.131s29.86 43.481 74.4 35.642c0 0-16.47-40.22-74.4-35.642ZM1877.16 886.167s-36.23 48.316-21.94 109.112c0 0 35.22-29.169 21.94-109.112ZM1877.27 886.33s38.92 42.63 87.48 25.282c0 0-23.6-41.569-87.48-25.282ZM1814.07 865.047s-18.47 61.423 13.68 111.088c0 0 23.51-43.256-13.68-111.088ZM1814.22 865.127s49.29 21.491 88.81-16.979c0 0-34.77-27.579-88.81 16.979ZM1729.05 906.246c-2.27.225-4.54.434-6.82.643-9.17-61.005 15.73-86.384 15.73-86.384 9.66 36.558-1.64 69.727-8.91 85.741Z"/><path fill="#82B378" d="M1938.35 678.208s-17.42 54.452-42.7 95.283c-11.77 19.001-25.23 35.032-39.44 41.296-44.74 19.677-56.8 25.266-58.51 29.282-1.02 2.345-3.93 31.466-6.18 54.998-3.43.466-6.89.915-10.4 1.349 3.69-34.984 12.8-97.114 33.89-142.538 5.37-11.629 11.53-22.134 18.59-30.824 47.61-58.644 104.75-48.846 104.75-48.846ZM1460.92 916.285l-11.53-.193c-2.11-.032-4.22-.064-6.32-.128-3.34-.064-6.68-.128-9.99-.225-12.75-45.906-1.6-70.016-1.6-70.016 29.42 23.13 29.5 66.514 29.44 70.562ZM1685.84 909.941l-.77.048c-3.34.241-6.68.482-10.04.707-11.68.819-23.57 1.558-35.64 2.217-2.07.112-4.15.208-6.23.321-4.53.241-9.08.45-13.67.659 3.93-20.93 18.47-59.496 71.73-81.244 0 0 7.4 34.421-5.38 77.292Z"/><path fill="#A0D694" d="M1608.59 880.996s-40.76-12.834-36.08-32.687c4.69-19.869 36.08 32.687 36.08 32.687Z"/><path fill="#A0D694" d="M1596.08 835.732c12.59-9.493 12.53 45.264 12.53 45.264s-25.12-35.755-12.53-45.264Z"/><path fill="#1E3D70" d="M1590.8 915.032c-2.18.081-4.37.161-6.54.209-11.84.386-23.82.691-35.92.9-15.98.273-32.18.433-48.56.433-10.02 0-19.96-.048-29.81-.176-3.03-.033-6.05-.065-9.04-.113l-11.54-.193c-2.11-.032-4.22-.064-6.32-.128-3.34-.064-6.67-.129-9.99-.225-22.42-.546-44.35-1.365-65.7-2.458 2.61-23.708 17.79-96.567 105.41-86.496 74.24 8.545 105.91 59.496 118.01 88.247Z"/><path fill="#A8D29F" d="M1570.94 289.641c-.04.128-.17.465-.37 1.06-.25.69-.61 1.718-1.06 3.068-.42 1.284-.96 2.875-1.59 4.754-5.2 15.677-16.64 51.641-30.64 104.31-13.48 50.628-29.35 116.693-44.33 194.998v.016c-.14.803-.3 1.59-.46 2.393v.064a3039.054 3039.054 0 0 0-22.84 136.868c-8.01 55.914-15.03 115.794-20.26 178.92-2.11-.032-4.22-.064-6.32-.129 5.2-63.029 12.19-122.845 20.19-178.726 12.01-83.927 26.29-158.954 40.31-222.594.95-4.305 1.9-8.529 2.85-12.705 9.02-40.156 17.87-75.462 25.87-105.273 13.27-49.569 24.13-83.894 29.4-99.893 1.2-3.63 2.11-6.312 2.69-8.015.29-.867.5-1.478.62-1.831.07-.177.11-.289.13-.337l.83.45 1.39.722 2.47 1.285.63.338.49.257Z"/><path fill="#F99746" d="M1638.25 249.838c-12.24 16.882-69.53 44.012-73.49 39.771-3.95-4.257 11.06-76.827 23.29-93.692 12.24-16.882 33.39-18.488 47.25-3.582 13.86 14.89 15.18 40.638 2.95 57.503Z"/><path fill="#F99746" d="M1550.45 191.033c11.06 18.038 21.08 91.862 16.85 95.7-4.22 3.839-59.47-28.96-70.53-47.014-11.05-18.039-7.99-43.562 6.83-57.022 14.83-13.444 35.8-9.718 46.85 8.336Z"/><path fill="#F99746" d="M1484.55 269.531c17.84-5.927 77.96 9.701 79.34 15.901 1.39 6.2-43.9 56.797-61.74 62.724-17.83 5.911-36.23-6.891-41.09-28.607-4.87-21.7 5.66-44.107 23.49-50.018Z"/><path fill="#F99746" d="M1525.16 367.399c1.79-22.391 35.1-85.276 40.36-84.665 5.25.61 28.06 70.112 26.28 92.503-1.77 22.408-18.13 38.807-36.54 36.639-18.39-2.169-31.86-22.07-30.1-44.477Z"/><path fill="#F99746" d="M1616.36 362.581c-16.36-10.457-51.64-71.751-49.18-77.437 2.45-5.686 63.93-5.172 80.3 5.284 16.37 10.473 22.68 35.097 14.08 55.03-8.59 19.918-28.84 27.595-45.2 17.123Z"/><path fill="#2A4E96" d="M1578.06 283.024c-.95-7.308-6.59-12.304-12.61-11.131-6.02 1.156-10.11 8.031-9.16 15.355.96 7.325 6.61 12.304 12.63 11.148 6-1.173 10.11-8.047 9.14-15.372Z"/><path fill="#A8D29F" d="M1461.84 397.645c18.63 18.905 50 109.353 45.56 115.826-4.43 6.473-83.17-14.81-101.8-33.699-18.64-18.905-21.14-52.621-5.61-75.301 15.53-22.68 43.22-25.732 61.85-6.826ZM1550.63 515.095c-18.88 11.211-60.65 79.412-58.02 85.982 2.63 6.554 72.48 8.497 91.38-2.715 18.88-11.211 26.74-38.935 17.53-61.92-9.22-23.002-31.99-32.559-50.89-21.347ZM1548.47 791.478s-24.74 19.789-88.86 15.806c-64.1-3.952-81.59-45.859-86.26-40.188-1.11 1.365-3.65 11.693-6.87 26.599-3.96 18.407-8.93 43.77-13.56 67.912a4879.21 4879.21 0 0 0-6.73 35.659 50.486 50.486 0 0 1-9.28-3.872c1.04-6.649 2.22-13.765 3.5-21.218 5-29.603 11.37-63.8 17.89-89.516 4.91-19.371 9.89-33.94 14.45-38.132 17.8-16.48 60-47.417 101.46-29.796 41.49 17.588 74.26 76.746 74.26 76.746ZM1390.14 650.034c-46.5 55.159-94.04 59.126-95.6 69.165a421.305 421.305 0 0 0-3.06 24.302c-.08.643-.13 1.285-.19 1.944-2.24 22.52-3.16 46.163-3.28 68.908-.23 35.787 1.5 69.518 3.23 93.756-3.69-.305-7.36-.642-11-.963-.73-29.475-1.24-71.51.09-115.2.43-15.211 1.13-30.615 2.11-45.746.04-.803.08-1.606.13-2.409 4.08-61.648 12.96-118.525 31.2-139.358 46.78-53.424 136.89-75.429 140.08-76.2 3.18-.787-17.22 66.675-63.71 121.801Z"/><path fill="#82B378" d="M1412.33 878.682s-.35.289-1.01.819c-4.81 3.807-26.65 19.789-52.24 19.821-4.32 0-8.63-.707-12.91-2.056-3.12-.931-6.22-2.233-9.26-3.871-4.25-2.184-8.34-4.979-12.26-8.16-15.2-12.577-27.34-31.835-31.5-51.11-1.37-6.377-3.15-13.091-5.14-19.773-2.35-7.774-5-15.452-7.68-22.407-6.79-17.621-13.73-30.567-16.21-28.302-4.33 3.951-8.4 22.102-8.77 49.938-.23 15.886 4.35 58.355 8.32 91.989-3.45-.353-6.87-.69-10.28-1.06-5.87-55.608-10.7-140.289 12.18-154.745a32.66 32.66 0 0 1 4.39-2.378c3.94-1.863 8.18-3.035 12.61-3.597 2.86-.338 5.86-.45 8.91-.29 2.95.161 5.98.53 9.02 1.157 19.78 3.999 41.07 17.685 57.8 38.004 2.89 3.501 5.62 7.179 8.18 11.034 6.51 9.75 11.98 20.657 15.9 32.479 0 0 1.02 2.634 2.79 6.746 4.89 11.42 15.52 34.374 25.66 44.38.49.482 1.01.948 1.5 1.382Z"/><path fill="#A8D29F" d="M1597.41 914.807c-4.37.161-8.76.305-13.15.434-3.16-4.45-10.13-13.332-17.48-16.448-6.28-2.667-12.85.401-18.44 17.347-3.29 9.927-6.26 24.672-8.62 45.826-6.41 57.194-61.24 51.124-61.24 51.124-12.7-37.085-14.64-70.399-8.51-96.693 7.61-32.687 27.68-54.564 55.04-59.463 45.03-8.015 68.6 47.962 72.4 57.873ZM1203.62 783.175c1.61-8.834 8.81-14.408 16.07-12.432 7.27 1.96 11.84 10.73 10.23 19.564-1.62 8.85-19.94 33.474-19.94 33.474s-7.98-31.771-6.36-40.606ZM1872.84 2428.84c13.15 6.49 60.13 1.24 61.65-3.32 1.51-4.56-29.21-48.16-42.36-54.63-13.14-6.49-28.12 1.22-33.45 17.23-5.33 16 1 34.23 14.16 40.72ZM1991.36 2456.15c-7.39 14.75-10.71 72.02-7.26 74.59 3.46 2.57 43.75-27.3 51.14-42.05 7.37-14.76 3.55-33.99-8.58-42.98-12.11-8.98-27.92-4.31-35.3 10.44ZM1928.03 2568.25c13.53 5.25 60.05-4.34 61.27-9.03 1.23-4.69-32.13-45.29-45.64-50.55-13.51-5.25-27.98 3.83-32.29 20.29-4.32 16.45 3.15 34.04 16.66 39.29Z"/><path fill="#A8D29F" d="M1996.47 2623.7c-.05-1.3-5.25-130.96-63.57-197.91l1.24-1.59c58.86 67.56 64.08 198.08 64.14 199.4l-1.81.1ZM2191.13 2431.64c-8.18 6.62-40.68 10.97-42.22 8.13-1.56-2.85 14.35-37.61 22.54-44.24 8.19-6.62 19.24-3.89 24.67 6.07 5.44 9.98 3.21 23.42-4.99 30.04ZM2113.78 2470.14c6.69 8.77 15.46 47.11 13.41 49.42-2.06 2.33-32.82-11.16-39.51-19.93-6.69-8.77-6.27-22.49.93-30.63 7.21-8.14 18.48-7.63 25.17 1.14ZM2169.51 2535.59c-8.58 5.84-41.25 7.17-42.63 4.2-1.35-2.99 16.67-36.18 25.26-42.02 8.58-5.85 19.43-2.11 24.22 8.33 4.8 10.44 1.74 23.65-6.85 29.49Z"/><path fill="#A8D29F" d="M2129.35 2584.76c-.1-.9-11.32-89.8 20.67-145.07l-1.03-.87c-32.28 55.77-20.98 145.28-20.87 146.18l1.23-.24ZM2071.62 2616.13l-3.72-.72c-14.61-230.16-72.35-395.33-73.16-397.56l3.38-1.79c.8 2.29 58.97 168.53 73.5 400.07Z"/><path fill="#fff" d="M1955.56 2194.68c7.13 9.82 40.47 25.61 42.77 23.13 2.31-2.47-6.44-44.7-13.55-54.51-7.13-9.83-19.44-10.76-27.5-2.09-8.07 8.66-8.83 23.64-1.72 33.47Z"/><path fill="#fff" d="M2006.66 2160.45c-6.43 10.49-12.26 53.46-9.81 55.69 2.47 2.24 34.63-16.85 41.05-27.35 6.43-10.51 4.65-25.36-3.98-33.19-8.62-7.82-20.82-5.65-27.26 4.85Z"/><path fill="#fff" d="M2045.01 2206.14c-10.38-3.46-45.36 5.65-46.18 9.25-.81 3.61 25.56 33.06 35.93 36.51 10.39 3.44 21.1-4.02 23.93-16.66 2.83-12.62-3.29-25.67-13.68-29.1Z"/><path fill="#fff" d="M2021.37 2263.1c-1.03-13.05-20.43-49.64-23.48-49.28-3.06.37-16.33 40.81-15.3 53.84 1.04 13.04 10.55 22.58 21.27 21.33 10.71-1.27 18.55-12.85 17.51-25.89Z"/><path fill="#fff" d="M1968.31 2260.3c9.51-6.09 30.04-41.76 28.61-45.09-1.43-3.31-37.2-3-46.73 3.09-9.53 6.08-13.2 20.43-8.2 32.02 5.01 11.6 16.79 16.07 26.32 9.98Z"/><path fill="#F77D48" d="M1990.58 2213.99c.56-4.26 3.86-7.16 7.35-6.49 3.5.69 5.89 4.69 5.33 8.95-.56 4.26-3.85 7.16-7.35 6.49-3.49-.69-5.88-4.69-5.33-8.95Z"/><path fill="#A8D29F" d="M2070.55 2380.82c-10.58 15.84-22.01 82.32-18.29 86 3.71 3.67 54.85-23.49 65.44-39.34 10.58-15.84 8.61-39.15-4.41-52.03-13.01-12.88-32.14-10.49-42.74 5.37ZM1772.97 2424.68c.75 1.37 34.6 71.03 66.4 183.04-1.32-.47-2.44-.69-3.75-1.14-31.42-110.19-64.51-178.49-65.26-179.86l2.61-2.04Z"/><path fill="#fff" d="M1733.99 2411.98c7.12 7.55 37.65 16.62 39.41 14.13 1.77-2.47-9.83-38-16.95-45.55-7.13-7.55-17.94-6.65-24.14 2.02-6.2 8.69-5.45 21.83 1.68 29.4Z"/><path fill="#fff" d="M1775.23 2375c-4.61 10.06-5.63 48.27-3.26 49.88 2.35 1.6 28.54-19.54 33.14-29.57 4.6-10.04 1.64-22.73-6.61-28.34-8.24-5.6-18.67-2.01-23.27 8.03Z"/><path fill="#fff" d="M1812.94 2409.41c-9.36-1.54-38.97 11.27-39.33 14.53-.35 3.25 25.38 25.19 34.74 26.73 9.37 1.54 17.98-6.44 19.25-17.84 1.27-11.39-5.29-21.88-14.66-23.42Z"/><path fill="#fff" d="M1797.75 2462.3c-2.14-11.19-22.49-40.33-25.11-39.59-2.63.74-10.36 37.81-8.22 49 2.14 11.22 11.32 18.19 20.53 15.58 9.2-2.6 14.94-13.78 12.8-24.99Z"/><path fill="#fff" d="M1751.29 2467.31c7.71-6.65 22.19-40.57 20.64-43.25-1.55-2.69-32.68 2.6-40.38 9.23-7.72 6.64-9.56 19.63-4.11 29.03 5.45 9.38 16.13 11.63 23.85 4.99Z"/><path fill="#F77D48" d="M1766.31 2423.88c.07-3.79 2.66-6.78 5.78-6.68 3.11.09 5.56 3.24 5.47 7.03-.08 3.79-2.66 6.78-5.78 6.68-3.11-.11-5.57-3.26-5.47-7.03Z"/><path fill="#A8D29F" d="M1829.65 2499.74c-5.94 11.76-8.77 57.54-6.01 59.61 2.76 2.06 35.05-21.67 40.99-33.42 5.94-11.76 2.93-27.15-6.74-34.38-9.66-7.23-22.31-3.56-28.24 8.19ZM2274.81 2619.7l4.06-.79c15.97-251.55 79.09-432.08 79.97-434.54l-3.69-1.94c-.89 2.49-64.45 184.19-80.34 437.27Z"/><path fill="#fff" d="M2401.65 2159.06c-7.77 10.73-44.22 27.99-46.74 25.3-2.52-2.72 7.03-48.87 14.82-59.61 7.77-10.73 21.23-11.74 30.04-2.28 8.82 9.47 9.66 25.86 1.88 36.59Z"/><path fill="#fff" d="M2345.8 2121.65c7.04 11.47 13.41 58.43 10.72 60.87-2.69 2.45-37.83-18.42-44.87-29.9-7.02-11.47-5.06-27.71 4.36-36.27 9.43-8.55 22.77-6.19 29.79 5.3Z"/><path fill="#fff" d="M2303.88 2171.59c11.35-3.78 49.59 6.16 50.47 10.12.89 3.93-27.92 36.12-39.27 39.88-11.35 3.76-23.05-4.39-26.14-18.18-3.09-13.82 3.6-28.07 14.94-31.82Z"/><path fill="#fff" d="M2329.72 2233.83c1.13-14.25 22.32-54.24 25.68-53.84 3.33.38 17.84 44.59 16.72 58.83-1.14 14.25-11.55 24.69-23.26 23.31-11.7-1.38-20.26-14.04-19.14-28.3Z"/><path fill="#fff" d="M2387.73 2230.78c-10.41-6.65-32.85-45.65-31.28-49.27 1.56-3.61 40.66-3.29 51.07 3.36 10.41 6.67 14.42 22.33 8.96 35-5.46 12.67-18.34 17.56-28.75 10.91Z"/><path fill="#F77D48" d="M2363.38 2180.16c-.62-4.66-4.21-7.82-8.04-7.08-3.82.74-6.42 5.12-5.82 9.76.61 4.66 4.21 7.84 8.03 7.1 3.82-.75 6.44-5.12 5.83-9.78Z"/><path fill="#A8D29F" d="M2265.4 2429.86c11.57 17.31 24.06 89.98 19.99 93.99-4.05 4.03-59.95-25.67-71.52-43-11.57-17.31-9.42-42.77 4.82-56.86 14.22-14.08 35.14-11.45 46.71 5.87Z"/><path fill="#A8D29F" d="M2332.81 2446.34c-16.31 10.21-51.71 70.65-49.32 76.32 2.4 5.67 63.4 5.77 79.69-4.45 16.31-10.21 22.74-34.58 14.35-54.43-8.4-19.85-28.41-27.66-44.72-17.44ZM1727.93 2655.52s18.67-59.77 86.5-63.53c67.83-3.76 114.53 45.04 170.56 22.52 56.04-22.52 148.78-73.36 236.52-39.5 87.74 33.86 102.53 80.51 102.53 80.51h-596.11Z"/><path fill="#FFB27D" d="M2544.61 1745.22c-56.89-17.62-119.42-125.05-119.42-125.05l16.02-16.91c16.57 23.79 85.53 64.78 85.53 64.78-.37-21.78.1-41.63 1.23-59.72 7.65-122.88 45.7-163.82 56.1-172.8 1.67-1.46 2.64-2.07 2.64-2.07s.04.9.09 2.58c.14 3.65.42 11.01.71 21.11 2.11 75.2 4.63 302.81-42.9 288.08Z"/><path fill="#F99746" d="M2590.2 1577.48c-.13 6.73-.31 13.49-.55 20.25-1.83 54.68-6.72 109.02-17.74 140.82-2.71 7.81-5.78 14.27-9.29 19.02-5.08 6.94-11.04 10.3-18.05 9.05-38.42-6.83-48.44-50.49-50.47-82.95-1.28-20.21.55-36.08.55-36.08s18.93-.09 21.97-3.53c6.3-7.07 9.06-41.06 10.75-78.72 2.21-49.38 2.79-104.88 6.67-114.43 11.07-27.31 53.84-27.31 53.84-27.31s4 74.37 2.32 153.88Z"/><path fill="#233862" d="M2635.52 1298.56s-31.68 22.71-12.25 66.73c0 0-27.73-6.18-33.73-16.27 0 0 .7 4.21 1.73 6.33 0 0-25.49-7.03-33.84-20-8.34-12.94 32.58-168.1 98.86-127.92 0 0 60.61 13.69 36.87 95.61-23.74 81.9-1.31 89.14-1.31 89.14s-7.04 1.74-10.05.76c0 0-3.96-3.46-4.19-6.7 0 0-.14 4.93.66 6.78 0 0-24.82-5.01-34.49-20.05-9.67-15.02-15.47-58.26-8.26-74.41Z"/><path fill="#FFB27D" d="m2589.77 1430.43-.1.05c-.2-.03-.16-.05.1-.05ZM2666.78 1403.44c.92 10.16 2.03 19.26 2.53 23.62 1.11 9.71-74.71 3.38-79.54 3.37 3.36-1.78 13.66-41.49 16.91-56.64 3.95-18.37 7.05-38.23 7.05-38.23l53.54 4.13 3.18.23a274.66 274.66 0 0 0-4.36 25.07c-.12 1.04-.25 2.1-.35 3.13-.98 8.64-.12 22.78 1.04 35.32Z"/><path fill="#233862" d="M2606.34 1328.99s-8.68-33.5-6.91-59.2c1.24-18.35 22.69-80.91 74.28-54.29 0 0 15.16 6.89 27.18 23.64 9.55 13.32 21.87 39.39-9.25 90l-9.04 17.57-76.26-17.72Z"/><path fill="#ED7D2B" d="m2596.59 1582.75-2.84 110.62s-10.04 20.95-21.84 45.18c-3.02 6.24-6.16 12.68-9.29 19.02-5.08 6.94-11.04 10.3-18.05 9.05-38.42-6.83-48.44-50.49-50.47-82.95-1.28-20.21.55-36.08.55-36.08s18.93-.09 21.97-3.53c6.3-7.07 9.06-41.06 10.75-78.72l26.23-18.04 36.6 30.18 6.39 5.27Z"/><path fill="#ED975D" d="M2666.78 1403.44c-37.46-13.34-53.35-66.01-53.35-66.01 15.85.57 36.47 13.95 52.66 27.56-.11 1.04-.25 2.1-.35 3.13-.98 8.64-.12 22.78 1.04 35.32Z"/><path fill="#FFB27D" d="M2669.42 1384.94s-67.65-20.35-56.6-71.45c11.07-51.09 9.78-88.13 53.46-77.29 43.66 10.84 47.8 33.01 47.52 51.16-.29 18.15-26.49 101.56-44.38 97.58Z"/><path fill="#233862" d="M2717.97 1258.32c-20.14-38.79-44.16-42.82-44.26-42.82-17.2-14.03-39.95 20.41-39.95 20.41-12.47 35.19-38.75 49.2-38.75 49.2s10.28 13.19 40.51 13.44c9.24.09 18.58-4.91 27.12-11.87-16.55 19.68-35.8 31.5-35.8 31.5 36.27-7.77 61.66-56.42 66.16-65.61 4.88 9.56 9.74 20.67 9.99 27.56.53 14.09-3.79 41.36 2.82 42.52 0 0 25.72-38.21 12.16-64.33Z"/><path fill="#fff" d="M2658.86 1352.19s.85 7.77 4.93 9.62c4.07 1.83 14.89 5.17 15.99 4.35 1.09-.83 5.15-6.89 5.15-6.89s-17.05-7.96-26.07-7.08Z"/><path fill="#FFB27D" d="M2633.6 2133.78c-.87 4.36-1.72 8.68-2.57 12.97-5.09 25.8-9.84 49.73-12.84 69.75-3.88 26.07-4.8 45.44.31 53.6 21 33.54 0 299.66 0 299.66l-23.93 29.99S2553 2337 2541.72 2295.83c-5.12-18.71-12.59-98.66-19.19-180.25-.34-4.1-.66-8.18-.99-12.26-1.13-14.28-2.24-28.49-3.29-42.37-5.92-77.21-10.35-143.33-10.35-143.33s44.1-37.73 84.16-41.94c23.61-2.5 45.81 6.64 56.77 41.94 15.97 51.37-.21 140.05-15.23 216.16Z"/><path fill="#ED975D" d="M2626.87 2151.44c-30.86-40.97-51.2-99.62-88.86-181.74-3.2-41.78 23.86-81.47 54.05-94.02 23.61-2.5 45.81 6.64 56.77 41.94 15.97 51.37-6.94 157.72-21.96 233.82Z"/><path fill="#FFB27D" d="m2753.08 1626.28 161.03 50.63v22.88s-160.24-2.28-170.58-24.01c-10.34-21.73 9.55-49.5 9.55-49.5ZM2914.1 2380.64l-7.52 37.83s-217.82-136.95-245.99-163.25c-11.32-10.56-26.27-67.94-40.13-132.86-20.62-96.75-38.81-210.21-38.81-210.21s30.54-142.96 112.29-55.47c48.9 52.35 41.3 153.24 35.94 231.7-3.56 52.64-6.13 95.21 10.1 106.24 31.63 21.49 124.47 120.5 153.86 188.62l20.26-2.6Z"/><path fill="#F99746" d="M2832.1 1626.28c10.42 18 4.68 52.92-17.17 81.05-13.56 17.44-31.93 27.77-61.85 22.41-13.04-2.33-36.01-20.08-48.02-49.41-1.78-4.39-6.33-17.25-6.33-17.25s-16.59 20.2-17.21 24.03c-.28 1.71-1.72 16.99-1.94 19.08-.25 2.52 1.23 11.79 1.23 11.79s-79.23 42.18-144.73-5.85c0 0-15.5-122.46-5.27-227.22 1.97-20.08 44.06-47.46 57.07-61.32 2.93-3.12 5.9-12.52 5.1-18.56-.66-5.1 4.17-13.73 8.22-12.16 7.82 3.06 29.98 16.39 45.56 11.3 7.76-2.51 17.61-13.43 25.14-10.93 9.2 3.06-.51 30.01 4.7 30.35 7.18.43 39.44 1.04 49.23 17.5 8.03 13.46 12.29 38.6 26.26 86.16 0 0 .02.03.03.12 26.22 89.22 64.7 72.48 79.98 98.91Z"/><path fill="#ED7D2B" d="M2698.73 1663.08s-7.99-22.67-13.81-60.56c-1.63-10.68-69.17 71.45-52.25 104.81 16.92 33.35 66.06-44.25 66.06-44.25Z"/><path fill="#23569E" d="M2796.05 2005.24s-21.22 7.39-53.09 15.56c-65.86 16.92-177.24 37.19-241.02 2.57 0 0 4.07-114.2 15.16-200.52 8.87-69.07 17.09-114.4 17.09-114.4s59.3 18.09 119.51 4.05c.58-.13 1.14-.26 1.72-.4 7.89-1.91 15.78-4.4 23.54-7.55 0 0 45.46 79.32 68.91 134.51 16.23 38.18 48.18 166.18 48.18 166.18Z"/><path fill="#163560" d="M2796.05 2005.24s-21.22 7.39-53.09 15.56c-6.85.9-13.98 1.75-21.35 2.57-106.89-166.13-67.47-310.45-67.47-310.45.42-.27.86-.56 1.28-.82 7.89-1.91 15.78-4.4 23.54-7.55 0 0 45.46 79.32 68.91 134.51 16.23 38.18 48.18 166.18 48.18 166.18Z"/><path fill="#FFB27D" d="M2914.11 1676.9s29.53-17.71 41.28-19.42c11.74-1.71 31.48-2.29 31.48 0s-21.14 18.27-26.79 19.42c-5.63 1.16-16.44 10.88-13.14 12.04 3.29 1.14 20.67-3.73 20.9 0 .24 3.71-10.57 5.99-12.45 8.85-1.88 2.85-8.45 6.29-19.02 4.57-10.57-1.72-22.26-2.57-22.26-2.57v-22.89Z"/><path fill="#2B478B" d="M2960.53 2398.53c-.59-1.35-1.58-2.37-2.75-2.9-.43-.2-.77-.36-.81-.37-.98-.29-5.46-2.09-8.43-10.77-1.95-5.71-2.55-10.39-4.34-16.04l-7.35-15.45c-7.7-12.34-10.4-9.45-10.4-9.45s-2.01 3.13-4.98 7.28c-4.9 6.82-12.43 16.37-17.76 18.81-3.79 1.72-6.15 4.59-7.6 7.24-1.86 3.34-2.27 6.36-2.27 6.36s15.8 3.34 14.41 12.82c-2.68 18.34-2.04 21.67-1.77 22.28l.1.11s26.93 17.17 35.55 20.54c15.33 5.98 23.33 18.65 28.3 24.45 2.01 2.35 4.79 3.42 7.54 2.89 2.34-.45 5.1-1.17 7.23-2.29 1.99-1.06 2.79-4 1.75-6.33l-26.42-59.18ZM2642.53 2613.08l-12.91 8.51c-4.68 2.01-8.55 2.59-13.3 4.81-7.21 3.37-12.29 9.97-12.52 11.16-3.65 18-8.96 17.46-8.96 17.46h-51.68c-2.45-1.5 1.69-14.22 3.68-16.61 4.9-5.88 19.56-2.91 24.92-21.4 3.02-10.37 17.89-42.66 17.89-42.66l.11-.11c.5-.3 3.24-.98 18.23 2.81 7.73 1.95 10.94-17.17 10.94-17.17s2.47.6 5.16 2.94c2.14 1.85 4.42 4.82 5.73 9.48 1.86 6.53 9.46 15.98 14.92 22.15 3.33 3.72 5.83 6.26 5.83 6.26s2.3 3.37-8.04 12.37Z"/><path fill="#FFB27D" d="M2441.21 1603.26s2.39-19.92-1.83-33.04c-4.46-13.86-5.45-28.89-9.03-22.92-3.56 5.98-.55 22.84-3.68 22.3-1.37-.25-5.6-3.15-7.26-11.26-2.11-10.3 3.02-23.83-4.02-22.51-6.72 1.27-15.73 39.27-11.26 49.59 4.46 10.32 21.06 34.76 21.06 34.76l16.02-16.92Z"/><path fill="#EA7147" d="M2597.16 1729.73c-43.93 0-62.04-18.39-63.38-19.64l-2.84-25.19c.42.39 59.36 43.47 150.58 2.2l-1.94 19.09c-35.07 15.85-59.61 23.54-82.42 23.54Z"/><path fill="#2B478B" d="M392.971 2660.72c.304.1.647.15.972.15 3.011.01 6.004-3.46 6.957-8.32l33.341-171.34 2.954-15.21 49.982-256.87 2.955-15.21 41.861-215.18 2.955-15.22 41.765-214.61 2.956-15.23 53.546-275.26 2.955-15.2 44.186-227.07 2.954-15.18 21.941-112.79c1.049-5.38-.799-10.49-4.137-11.36-3.316-.9-6.88 2.76-7.929 8.18l-22.57 115.97-2.955 15.18-44.166 227.07-2.956 15.2-53.565 275.26-2.955 15.23-41.748 214.61-2.973 15.22-41.861 215.18-2.954 15.21L424.5 2466l-2.955 15.21-32.711 168.16c-1.068 5.39.781 10.47 4.137 11.35ZM94.106 2660.72c.323.1.65.15.972.15 3.031.01 6.024-3.42 6.959-8.32l32.996-169.82 2.974-15.22 49.963-257.16 2.974-15.23 41.86-215.41 2.956-15.23 41.765-214.85 2.954-15.25 53.566-275.56 2.955-15.21 44.188-227.32 2.953-15.19 22.265-114.61c1.048-5.4-.801-10.49-4.136-11.37-3.317-.92-6.882 2.78-7.93 8.19l-22.893 117.79-2.956 15.19-44.187 227.32-2.954 15.21-53.547 275.56-2.974 15.25-41.746 214.85-2.955 15.23-41.88 215.41-2.954 15.23-49.982 257.16-2.955 15.22-32.388 166.62c-1.048 5.41.801 10.49 4.137 11.37Z"/><path fill="#2B478B" d="M385.668 1147.05h303.818l2.878-15.27H388.546l-2.878 15.27ZM331.817 1421.5h301.495l2.857-15.26H334.674l-2.857 15.26ZM264.83 1752.26h308.954l2.927-15.3H267.777l-2.947 15.3ZM220.13 1983.25h308.936l2.926-15.29H223.057l-2.927 15.29ZM175.296 2214.81H484.25l2.927-15.29H178.223l-2.927 15.29ZM122.358 2488.26h308.953l2.928-15.29H125.285l-2.927 15.29Z"/><path fill="#EF9E67" d="M847.521 593.334s-12.995 8.674-17.446 0c-4.451-8.657 8.722-5.846 8.722-5.846l8.724 5.846Z"/><path fill="#C94C43" d="m823.014 633.279-3.567-1.06a9.878 9.878 0 0 0-4.626-.257c-4.731.851-8.818 5.092-10.019 11.083l-25.772-7.694c-7-2.088-14.092 2.538-16.71 10.457l-3.802-1.14c5.169-17.284 13.503-31.836 23.572-42.261 10.593-11.002 23.09-17.46 35.808-17.733 4.03-.112 8.097.418 12.132 1.623 28.751 8.577 45.972 48.492 41.232 92.021l-2.759-.819c.693-8.497-3.852-16.608-10.851-18.68l-25.758-7.71c1.59-7.871-2.407-15.886-8.88-17.83Zm-69.687 151.758 13.18 3.919 63.238 18.874c25.069 7.485 50.589-11.356 56.735-41.859l3.702-18.407a358.753 358.753 0 0 0 10.449-11.822c58.055-68.844 135.219-26.214 135.219-26.214.46-2.281.46-4.353.19-6.136-.79-5.429-3.97-8.497-3.97-8.497-48.38-29.073-111.388-22.134-138.863-17.123-8.699 1.574-13.829 2.956-13.829 2.956l-1.762-.514c5.497-47.85-13.833-92.022-46.031-101.627a44.22 44.22 0 0 0-20.645-1.173c-12.897 2.265-25.29 10.023-35.72 21.877-9.901 11.244-18.019 26.166-23.096 43.626-7.199-1.06-14.126 4.577-15.889 13.364l-13.545 67.237c-5.481 27.178 8.316 54.853 30.637 61.519Z"/><path fill="#B23B38" d="M890.183 747.564a357.861 357.861 0 0 0 10.449-11.822c58.055-68.843 135.218-26.214 135.218-26.214.46-2.28.46-4.352.2-6.135-10.83-6.104-50.963-25.636-95.589-8.337-52.29 20.287-60.868 31.129-50.278 52.508ZM753.327 785.038l13.18 3.919c-20.135-8.979-3.511-65.438 5.729-102.398 9.239-36.96 31.575-24.913 31.575-24.913 3.252-12.416 13.34-13.605 13.34-13.605-.846-11.243 5.863-14.761 5.863-14.761l-3.567-1.06a9.878 9.878 0 0 0-4.626-.257c-4.731.851-8.818 5.092-10.019 11.083l-25.772-7.694c-7-2.088-14.092 2.538-16.71 10.457l-3.802-1.141c5.169-17.283 13.503-31.836 23.572-42.26 10.593-11.003 23.09-17.46 35.808-17.733-2.185-1.558-4.616-3.855-6.958-7.26-12.897 2.265-25.29 10.023-35.72 21.877-9.901 11.243-18.019 26.166-23.096 43.625-7.199-1.06-14.126 4.578-15.889 13.364l-13.545 67.238c-5.481 27.177 8.316 54.853 30.637 61.519Z"/><path fill="#FFB27D" d="M809.78 576.212c35.075-17.476 42.174 14.441 42.174 14.441-3.661-1.061-6.109-6.988-13.157.738-10.313 11.308-17.801 17.525-28.305 13.22l-12.554.144-1.416-22.857s6.649-4.336 13.258-5.686ZM510.505 387.911s26.912 38.871 61.183 22.615c0 0 7.373-21.7 7.476-37.714.012-1.96.033-3.871.057-5.686.184-18.022.682-28.126.682-28.126s-.008.001-.033-.016c-1.559-.787-52.39-26.181-52.348-24.077.873 48.733-17.017 73.004-17.017 73.004Z"/><path fill="#ED975D" d="M532.626 326.521c4.902 11.067 21.72 32.703 46.596 40.606.183-18.022.682-28.125.682-28.125s-.008 0-.033-.016c-1.408-.45-48.703-15.726-47.245-12.465Z"/><path fill="#FFB27D" d="M590.55 337.121s-57.165 16.367-64.986-27.13c-7.821-43.481-20.467-70.658 15.701-82.946 36.167-12.288 46.266 2.425 51.778 16.159 5.51 13.749 12.175 88.552-2.493 93.917Z"/><path fill="#A9453D" d="M527.521 321.846c-.78.61-13.08 5.204-36.375-51.271-3.656-8.867-6.148-28.062 2.377-45.008 8.522-16.945 31.576-28.366 56.992-31.643 22.814-2.955 35.165 7.582 40.725 16.866 9.345 15.597 16.141 44.413.847 39.289-5.106-1.703-20.922-5.012-30.289-1.687-9.092 3.245-12.227 20.801-12.905 26.359-.677 5.557-1.72 10.167-13.081 5.204-11.362-4.963-5.137 19.596-3.318 24.302 0 0 1.544 12.513-4.973 17.589Z"/><path fill="#202E51" d="M381.867 1406.37h-34.614c-7.255 0-15.319-8.85-17.337-25.04-2.017-16.2-16.933-25.03-20.163-38.28-3.229-13.25 13.311-31.92 13.311-31.92l2.766-4.32 2.876-4.51 27.419 7.85s.675 7.95 1.099 18.07c.293 7.31.454 15.76.111 23.17-.807 17.68 4.067 36.7 16.964 40.14 12.907 3.43 7.568 14.84 7.568 14.84ZM622.833 1406.37h-91.752c-.878-.21-1.544-.44-1.948-.69-6.125-3.73-4.208-32.27-3.472-41.11.141-1.62.243-2.58.243-2.58s32.263-31.41 36.703-7.36c.141.75.302 1.48.474 2.22 5.602 22.5 30.638 32.73 45.099 35.57 11.051 2.19 13.917 10.03 14.653 13.95Z"/><path fill="#F99746" d="M604.34 762.328s-4.9 74.417-10.66 163.853c-7.826 121.509-17.239 270.769-18.171 299.029-1.61 49.11-8.069 127.65-8.069 127.65s-15.316 18.65-45.975 10.8c0 0-27.318-112.12-35.12-230.74-.122-1.94-.243-3.9-.363-5.86-7.259-120.76-18.548-375.045-18.548-375.045l136.906 10.313Z"/><path fill="#ED7D2B" d="M604.34 762.327s-4.9 74.418-10.66 163.853l-107.335 206.74c-.122-1.94-.243-3.9-.363-5.86-7.259-120.76-18.548-375.045-18.548-375.045l136.906 10.312Z"/><path fill="#F99746" d="M581.964 771.161s-88.317 269.499-146.39 396.149c-58.072 126.64-76.219 161.99-76.219 161.99s-33.271-16.21-36.295-27.24c0 0 22.207-244.51 61.097-304.113 21.973-33.683 47.787-134.748 48.997-170.085 1.21-35.354 7.865-105.306 7.865-105.306l140.945 48.605Z"/><path fill="#FFB27D" d="m378.948 722.204-.934 17.331s-.186 7.083.118 13.091c.526 10.408-.363 23.483-17.038 33.49 0 0-11.264 5.526-11.72-5.14-.457-10.681 3.86-8.336 2.945-23.371-.916-15.018 1.062-27.547 9.229-32.334l6.701-9.412 10.699 6.345Z"/><path fill="#1E3D70" d="M368.673 734.813c9.775 3.823 11.34 2.956 11.34 2.956s47.581-105.434 52.4-115.087c4.819-9.654 101.02-118.236 101.02-118.236L508.71 392.218S399.294 564.696 387.478 589.432c-19.526 40.911-30.965 135.889-30.965 135.889s4.481 6.489 12.16 9.492Z"/><path fill="#2A4E96" d="M621.38 548.504c-.344 23.033-1.443 48.942-2.926 75.252l-.274 4.691c-.948 16.287-1.978 32.622-3.159 48.556a1759.81 1759.81 0 0 1-1.503 18.906l-.08.835c-.041 2.329-.273 4.851-.484 7.148-4.825 59.672-9.88 106.815-10.818 107.538-1.121.916-2.382 1.365-3.765 1.172-12.857-1.975-51.215 1.575-82.62-6.73-26.5-6.81-49.317-19.708-73.497-37.104-3.208-2.313-10.525-8.433-9.93-12.994.586-5.028 1.666-12.288 3.038-21.412 4.764-31.739 12.989-86.335 15.794-150.248a819.4 819.4 0 0 1 2.371-35.209c2.694-30.117 7.014-58.708 12.806-84.102 10.768-47.208 34.04-83.525 53.89-97.676 2.595-1.767 9.102 9.236 21.917 19.243 11.838 9.236 22.581 6.28 34.702 4.995l12.385 19.869c12.918 18.279 26.673 42.614 30.426 77.212.284 2.554.525 5.269.727 8.144 1.04 14.103 1.292 31.932 1 51.914Z"/><path fill="#1E3D70" d="M621.382 548.503c-.345 23.033-1.444 48.942-2.927 75.252l-.273 4.69c-73.437-55.961-84.748-158.343-84.748-158.343 36.127 1.927 64.827 12.031 86.947 26.487 1.04 14.103 1.292 31.932 1.001 51.914Z"/><path fill="#2A4E96" d="M806.929 592.563c.757-13.252-4.882-15.453-4.882-15.453s-110.725-24.431-120.137-28.028c-9.413-3.615-89.897-105.515-89.897-105.515s-30.851-42.356-56.11-33.008c-21.952 8.128-30.532 28.977-33.453 48.83-3.481 23.66 5.479 47.464 22.311 60.041 37.787 28.206 113.433 83.782 131.249 90.143 39.653 14.151 146.187 1.14 146.187 1.14s4.138-7.726 4.732-18.15Z"/><path fill="#FFB27D" d="M377.96 745.478s2.663 15.163 4.267 20.159c1.602 4.979-4.986 2.152-6.588-4.562-1.602-6.714 2.321-15.597 2.321-15.597Z"/><path fill="#2B478B" d="m756.605 2663.45-191.784-917.12 11.041-3.42 191.784 917.12-11.041 3.42Z"/><path fill="#2E3552" d="M3356.57 2667H-113.878c-2.267 0-4.122-2.25-4.122-5.01v-2.25c0-2.76 1.855-5.03 4.122-5.03H3356.57c2.27 0 4.12 2.27 4.12 5.03v2.25c0 2.76-1.85 5.01-4.12 5.01Z"/></g><defs><clipPath id="a"><path fill="#fff" d="M0 0h3399v2667H0z"/></clipPath></defs></svg>