<svg xmlns="http://www.w3.org/2000/svg" width="1008" height="1007" fill="none"><path fill="#F1F7F8" d="M72.326 548.458c27.114-3.421 53.435-6.608 80.327-9.864v25.131H1.564c.875-11.262 2.347-21.824 2.404-32.394.255-47.629.355-95.264-.092-142.891-.093-9.888-2.748-19.751-3.876-30.324 1.544-.685 2.743-.673 5.406-.609 14.24-.135 27.016-.321 39.791-.507 4.063.172 8.126.343 13.823.55 3.82-.137 6.007-.31 8.193-.482 6.7.165 13.4.33 21.894.511 17.905-.146 34.016-.307 50.126-.469 1.337.082 2.674.163 4.931.953.921 8.579.921 16.45.921 25.23l-111.24-15.067v87.223c10.413-4.641 19.919-9.066 29.573-13.14 14.883-6.281 29.853-5.7 44.453.792 2.298 1.021 5.212 4.889 4.854 6.911-1.448 8.16-4.066 16.111-6.409 24.716-25.267-24.171-41.61-19.851-68.492-10.061-2.176.792-4.074 5.482-4.145 8.408-.395 16.294-.186 32.601-.185 48.904v31.797l29.805-4.641c2.744-.148 5.49-.295 9.027-.677Z"/><path fill="#FBFDFD" d="M1006.79 290.274c-.1.378-.2.756-1.19 2.038-20.128.904-39.374.904-59.67.904 1.546 29.387 3.028 57.599 4.523 85.811.088 1.663-.282 3.709.541 4.897 1.528 2.203 3.468 4.483 5.777 5.726 33.601 18.079 37.184 62.254 7.163 85.686-2.962 2.311-5.32 7.452-5.257 11.234.303 18.174 1.534 36.331 2.458 54.945h-54.782c.862-18.364 1.294-36.255 2.759-54.061.514-6.245-1.471-9.508-6.14-13.123-26.776-20.73-26.623-61.785 1.531-80.306 9.763-6.423 13.716-12.688 12.8-23.351-.056-.655.104-1.326.138-1.991 1.253-24.835 2.504-49.669 3.761-74.646h-81.438v114.912c-56.055-56.867-122.124-86.343-200.309-85.479-78.516.867-144.106 32.11-199.557 91.105V292.899H279.121V240h15.504c233.606.001 467.211.001 700.817.019 3.656 0 7.308.232 10.968.356.03.345.05.691.08 2.453.11 16.759.21 32.103.3 47.446Z"/><path fill="#0CB7EA" d="M161.194 456.773c2.24-39.984 21.103-67.488 57.521-82.127 22.248-8.942 45.754-11.547 69.601-11.094 39.769.755 71.236 17.047 93.461 50.383 20.204 30.305 16.587 71.125-8.225 93.289-13.13 11.728-34.742 13.669-52.589 4.722-15.271-7.655-25.344-25.623-22.725-43.097 1.564-10.44 4.901-20.664 8.02-30.807 4.059-13.201 8.009-26.501 2.616-40.004-6.066-15.188-18.142-22.528-34.352-22.811-16.16-.283-28.478 6.928-35.816 21.121-16.435 31.791-10.74 63.407 18.654 88.926 23.302 20.23 49.307 37.312 73.595 56.447 26.314 20.731 53.881 40.34 77.652 63.74 66.132 65.103 36.204 159.775-20.312 202.045-62.659 46.865-164.884 52.096-231.719 11.47-56.332-34.241-79.099-103.299-55.108-166.87 15.352-40.681 42.254-70.657 84.226-83.279 46.757-14.061 90.663-6.121 127.644 27.198 23.088 20.802 21.223 61.368-2.108 77.658-13.49 9.417-28.289 8.657-43.172 4.636-7.034-1.901-13.689-5.157-20.638-7.423-31.85-10.388-62.387.162-81.235 27.918-31.136 45.85-15.075 101.888 36.278 123.42 36.736 15.403 74.394 20.248 110.494-1.543 32.551-19.649 53.824-48.059 59.818-86.506 3.246-20.817-2.389-39.118-17.263-53.942-7.427-7.402-9.113-13.817-5.756-24.536 10.817-34.534-5.706-71.919-38.203-91.57-34.661-20.961-71.925-29.121-112.023-23.157-6.273.933-9.998-.882-13.382-5.786-16.115-23.353-25.938-48.677-24.954-78.421Zm190.923 47.568c5.77-1.333 11.483-3.049 17.322-3.909 8.824-1.3 9.247-5.273 4.012-11.236.899-1.125 1.371-2.102 2.147-2.633 15.536-10.612 16.91-28.266 4.59-41.92-3.488-3.865-11.924-10.062-2.488-17.384 1.067-.828 1.242-4.991.336-5.701-1.676-1.313-4.534-1.805-6.756-1.52-1.793.23-3.375 2.107-6.388 4.168.267-3.678-.149-5.832.635-7.377 3.562-7.016 3.403-10.63-5.794-13.471-6.137-1.896-15.319-3.987-16.016-14.036-.074-1.069-3.133-2.934-4.583-2.741-8.469 1.125-13.321-4.161-18.872-9.125-5.181-4.631-10.944-5.168-15.615 1.592 12.24 10.635 14.108 14.716 13.75 31.5-.119 5.596-2.473 11.483-1.329 16.694 2.243 10.222-1.179 18.672-6.604 26.219-9.265 12.888-8.617 24.652 3.107 35.195 1.081.972 2.417 2.881 2.132 3.955-1.875 7.04 3.595 7.228 7.715 9.106 3.983 1.816 7.902 3.972 11.417 6.564 5.502 4.057 12.65 2.451 15.637-3.947 0 0-.002.005 1.645.007Zm7.831 114.032c-.281 10.818 1.253 22.108-1.395 32.312-2.278 8.778-4.511 16.448 2.819 22.644 6.576 5.559 4.505 17.354 15.299 19.547 4.712.958 6.659 3.997 3.639 8.914-1.148 1.87-1.697 4.387-1.729 6.62-.248 17.808-.084 35.625-.628 53.421-.098 3.21-2.479 6.616-4.497 9.439-3.225 4.511-7.028 8.61-10.587 12.883-1.89 3.591-4.663 6.26-7.188 9.146-4.586 5.24-8.656 10.986-13.611 15.836-7.278 7.123-6.997 9.275 2.156 13.649 3.933-1.969 7.453-5.325 10.496-4.938 7.28.927 7.843-2.788 7.771-8.079-.081-5.992.195-11.861 7.751-14.592.58 1.674.799 2.961 1.432 3.997 1.443 2.365 3.088 4.607 4.652 6.898 2.541-2.516 7.623-5.635 7.194-7.449-2.157-9.116 4.038-9.596 9.557-10.09 8.333-.745 11.973-4.989 13.859-12.945 1.121-4.732 4.754-9.119 8.016-13.028 4.081-4.891 11.557-8.441 12.969-13.785 4.082-15.448 5.094-31.686 8.765-47.271 3.373-14.321-2.179-27.456-2.806-41.146-.354-7.753-3.644-12.149-9.394-16.091-6.168-4.23-12.021-8.623-8.812-17.892.606-1.749-1.37-5.087-3.06-6.799-4.308-4.366-9.334-8.019-13.7-12.334-8.878-8.773-17.374-17.938-26.368-26.587-1.678-1.613-5.193-1.135-7.432-2.388-3.609-2.02-7.094-4.415-10.185-7.155-2.188-1.94-3.799-4.611-5.387-7.132-4.687-7.44-9.122-4.116-13.62.148-5.225 4.953-4.242 10.647 1.177 13.265 7.856 3.796 10.684 10 13.188 17.408 2.543 7.528 6.003 14.747 9.659 23.574Zm-84.625-80.242 30.95 14.356 11.3-3.032 1.307 13.387c1.117.298 3.848 1.986 5.283 1.227 4.017-2.127 7.497-5.264 11.19-8.003-2.699-2.657-5.216-5.539-8.146-7.911-3.208-2.597-6.829-4.678-10.215-7.062-11.988-8.441-23.508-17.682-36.137-25.011-5.309-3.081-10.584-4.575-11.977-11.391-.245-1.195-2.548-1.921-3.817-2.965-4.144-3.409-8.345-6.758-12.328-10.348-1.944-1.752-3.071-5.052-5.224-5.825-11.518-4.136-13.295-15.374-17.637-24.306-3.832-7.883-5.408-16.862-7.952-25.267-2.538-1.014-8.109-1.947-8.303-3.537-.936-7.654-.421-15.484-.421-23.252l3.127-.161 5.543 10.303 3.554-.564c0-4.888-.392-9.817.12-14.65.439-4.144.597-10.139 3.187-11.879 6.625-4.45 7.9-9.634 6.094-18.363-3.175 1.678-6.188 2.532-8.154 4.457-4.625 4.526-7.906 9.311-16.207 9.271-5.193-.025-11.423 5.473-15.404 10.046-6.89 7.915-12.547 16.936-18.393 25.711-1.919 2.88-3.311 6.329-4.056 9.714-.774 3.516.555 7.722-.821 10.838-5.795 13.12-4.544 26.167.519 38.729 4.769 11.835-.297 28.383 16.248 34.934 1.27.503 1.519 4.08 1.882 6.287 1.348 8.201 6.725 11.86 14.775 9.762 3.509-.914 7.077-3.28 10.405-2.935 19.415 2.017 38.767 4.642 59.708 7.44Zm42.098 288.35-12.405 6.381.626 3.086c5.339-.792 10.873-.963 15.958-2.565 4.35-1.369 8.223-4.32 12.115-6.865.162-.106-1.944-4.752-2.454-4.648-4.289.879-8.453 2.373-13.84 4.611ZM299 374.015l1.503-2.522-4.136.019c.512.836 1.024 1.671 2.633 2.503Z"/><path fill="#283E50" d="M1007.21 289.571c-.51-14.64-.61-29.983-.57-46.247.43 14.568.71 30.056.57 46.247ZM552.493 613.603c-.162-.002.009-.519.009-.519s.153.52-.009.519Z"/><path fill="#02BDF3" d="M359.65 617.637c-3.358-8.09-6.818-15.309-9.361-22.838-2.504-7.408-5.332-13.611-13.188-17.407-5.419-2.619-6.402-8.312-1.177-13.266 4.498-4.264 8.934-7.588 13.62-.148 1.588 2.521 3.199 5.192 5.387 7.132 3.091 2.74 6.576 5.135 10.186 7.156 2.238 1.253 5.753.774 7.431 2.387 8.994 8.649 17.49 17.814 26.368 26.587 4.366 4.315 9.392 7.968 13.7 12.334 1.69 1.712 3.666 5.05 3.06 6.799-3.209 9.27 2.644 13.663 8.812 17.892 5.75 3.942 9.04 8.338 9.395 16.091.626 13.69 6.178 26.826 2.805 41.146-3.671 15.585-4.683 31.823-8.765 47.271-1.412 5.344-8.888 8.894-12.969 13.785-3.262 3.909-6.895 8.296-8.016 13.028-1.886 7.956-5.526 12.2-13.858 12.946-5.519.493-11.715.973-9.558 10.089.43 1.814-4.653 4.933-7.194 7.45-1.563-2.292-3.209-4.534-4.652-6.899-.632-1.035-.852-2.323-1.431-3.997-7.557 2.731-7.833 8.6-7.752 14.592.072 5.291-.491 9.006-7.77 8.08-3.044-.388-6.564 2.968-10.497 4.938-9.153-4.374-9.433-6.527-2.155-13.65 4.955-4.85 9.024-10.595 13.61-15.836 2.525-2.885 5.298-5.554 7.189-9.146 3.558-4.273 7.361-8.371 10.587-12.883 2.017-2.822 4.398-6.229 4.496-9.438.544-17.797.38-35.614.629-53.422.031-2.233.58-4.75 1.728-6.619 3.02-4.917 1.073-7.957-3.639-8.915-10.794-2.193-8.722-13.988-15.299-19.547-7.33-6.195-5.097-13.866-2.819-22.644 2.648-10.204 1.114-21.493 1.097-33.048ZM274.539 537.942c-20.156-2.609-39.508-5.234-58.923-7.25-3.329-.346-6.897 2.02-10.406 2.935-8.05 2.097-13.427-1.562-14.775-9.762-.363-2.208-.612-5.785-1.882-6.288-16.545-6.551-11.478-23.099-16.248-34.934-5.063-12.561-6.314-25.608-.519-38.728 1.377-3.116.048-7.323.821-10.839.745-3.384 2.137-6.833 4.056-9.713 5.847-8.776 11.503-17.797 18.394-25.712 3.98-4.573 10.21-10.071 15.403-10.046 8.301.041 11.582-4.745 16.207-9.271 1.967-1.924 4.979-2.779 8.154-4.457 1.807 8.73.531 13.914-6.093 18.363-2.591 1.74-2.749 7.735-3.188 11.88-.512 4.833-.119 9.762-.119 14.649l-3.555.564-5.543-10.303-3.127.161c0 7.768-.514 15.599.421 23.252.194 1.59 5.765 2.523 8.303 3.537 2.545 8.405 4.12 17.384 7.952 25.267 4.342 8.933 6.119 20.17 17.637 24.306 2.153.774 3.28 4.073 5.225 5.826 3.982 3.589 8.184 6.938 12.327 10.347 1.269 1.044 3.573 1.77 3.817 2.966 1.393 6.815 6.669 8.309 11.977 11.39 12.63 7.33 24.149 16.57 36.137 25.011 3.386 2.384 7.007 4.465 10.215 7.062 2.93 2.372 5.447 5.254 8.146 7.911-3.692 2.739-7.173 5.877-11.19 8.003-1.435.76-4.166-.929-5.283-1.227l-1.307-13.387-11.299 3.032c-9.424-4.371-20.187-9.363-31.735-14.545Zm32.502 4.889-2.46-1.691-.691 1.63c.828.249 1.655.497 3.151.061ZM350.477 504.332c-2.992 6.4-10.14 8.006-15.642 3.949-3.515-2.592-7.434-4.748-11.417-6.563-4.12-1.879-9.59-2.066-7.715-9.107.286-1.073-1.051-2.982-2.132-3.955-11.724-10.543-12.372-22.306-3.107-35.194 5.425-7.547 8.847-15.997 6.604-26.219-1.144-5.211 1.21-11.099 1.329-16.695.358-16.783-1.51-20.864-13.75-31.499 4.671-6.761 10.434-6.224 15.615-1.592 5.551 4.963 10.403 10.25 18.872 9.124 1.45-.192 4.509 1.672 4.584 2.741.696 10.05 9.878 12.141 16.015 14.037 9.197 2.841 9.356 6.455 5.794 13.471-.784 1.544-.368 3.698-.635 7.376 3.013-2.061 4.595-3.937 6.388-4.167 2.222-.285 5.08.206 6.756 1.52.906.709.731 4.872-.336 5.7-9.436 7.323-1 13.52 2.488 17.385 12.32 13.653 10.946 31.308-4.59 41.92-.776.53-1.248 1.507-2.146 2.632 5.235 5.963 4.811 9.936-4.013 11.236-5.839.861-11.552 2.576-18.225 3.75-.903-.158-1.302-.193-1.302-.193l.565.343ZM318.014 826.017c4.794-1.773 8.958-3.268 13.247-4.147.51-.104 2.617 4.542 2.454 4.649-3.892 2.545-7.764 5.495-12.115 6.865-5.084 1.601-10.619 1.773-15.958 2.565l-.625-3.087c4.134-2.127 8.269-4.254 12.997-6.845ZM298.452 374.017c-1.061-.834-1.573-1.669-2.085-2.505l4.137-.019c-.502.841-1.003 1.682-2.052 2.524Z"/><path fill="#F89F40" d="M811.965 652.626c-2.891-2.097-5.564-4.664-8.744-6.134-2.353-1.086-5.367-.744-8.912-.257-.525 3.507-1.053 6.743.246 8.857 2.866 4.664 6.653 8.764 11.88 15.397-9.542 3.038-16.792 5.9-24.308 7.558-5.661 1.249-9.043-1.284-9.84-7.966-1.61-13.509-4.271-26.891-6.334-40.35-.381-2.489-.615-5.301.147-7.613 4.165-12.626 1.199-17.551-11.756-21.971-7.011-2.391-13.698-6.183-19.941-10.249-6.574-4.282-11.868-10.826-18.785-14.2-6.835-3.334-14.923-3.38-21.584 2.344-6.787 5.833-5.392 11.025 2.496 14.958 7.171 3.577 13.443 8.953 20.115 13.531 9.411 6.457 18.13 14.677 28.481 18.742 6.921 2.719 8.821 4.783 9.576 11.796 1.998 18.558.283 38.188 13.269 54.238 1.055 1.305.176 5.888-1.334 7.245-5.403 4.855-11.747 8.66-17.18 13.487-3.747 3.328-6.77 7.546-9.779 11.616-4.966 6.717-8.344 15.722-14.868 19.834-5.586 3.521-6.664 6.128-5.801 11.406 0 0-.099-.13-.772-.028-5.304 2.455-10.012 4.668-14.546 7.195-5.466 3.046-10.445 7.344-16.241 9.331-9.266 3.177-13.677-.063-12.816-9.812 1.04-11.767 2.486-23.796 6.077-34.966 4.573-14.229 7.449-28.511 5.313-43.089-.925-6.307-5.059-16.065-9.52-17.192-12.855-3.25-23.691-6.621-30.691-19.446-6.934-12.704-7.01-22.142 3.456-32.304 2.601-2.524 5.896-4.317 8.655-6.697 11.43-9.858 27.048-17.085 22.844-36.857-.371-1.746 1.956-5.235 3.856-6.103 12.527-5.721 15.275-16.472 15.877-28.676.172-3.478 1.124-6.917 1.717-10.374l2.936.149c.515 2.745.969 5.504 1.558 8.234 1.92 8.907 13.238 15.957 22.509 12.887 8.743-2.896 4.995-10.253 3.837-16.133-1.398-7.093-.374-13.069 5.551-17.917 7.478-6.118 14.58-12.697 22.069-18.8 13.638-11.116 14.633-10.775 28.814-1.434 8.8 5.797 18.878 10.531 28.308 1.976 5.519-5.008 9.079-12.175 13.154-17.859 3.358 4.411 8.445 9.955 12.172 16.298 3.98 6.773 6.755 14.266 9.92 21.504 10.887 24.907 15.503 51.137 17.582 78.124 1.937 25.145-5.213 48.709-10.175 72.737-1.596 7.735-7.114 7.943-12.094 5.944-8.46-3.395-16.366-8.18-24.473-12.44-4.009-2.106-7.95-4.343-11.921-6.521ZM742.585 404.875c-.904-.106-1.807-.212-3.763-.603-1.919-.112-3.341-.207-3.571.271-3.167 6.593-6.037 13.329-9.263 19.892-1.914 3.895-5.972 7.44-6.221 11.325-.947 14.736-18.385 26.397-32.146 19.801.276 10.316-5.969 11.589-14.248 11.063-3.387-.216-7.174 1.282-10.329 2.887-7.672 3.901-15.08 8.321-22.832 12.665-1.967-11.552 4.412-23.877 13.571-30.332 4.269-3.01 9.205-7.699 10.123-12.358 3.06-15.525 4.437-31.382 6.677-48.813-11.25 2.788-20.154 1.033-27.101-6.329-7.118-7.543-14.792-7.355-23.48-3.074-8.584 4.231-17.144 9.139-26.295 11.385-6.647 1.632-13.913-.465-12.393 10.345.416 2.957-2.168 7.986-.994 8.859 2.8 2.08 7.001 2.894 10.673 3.004 3.554.107 7.134-1.42 10.737-2.028 15.439-2.609 25.397 6.219 22.397 21.237-1.002 5.012-6.217 9.537-10.433 13.225-.765.67-5.847-4.179-9.252-5.83-9.145-4.436-18.417-8.623-27.766-12.611-1.134-.484-3.197.599-4.575 1.397-8.05 4.656-14.003 10.767-15.362 20.631-.465 3.375-2.4 6.643-4.079 9.736-3.95 7.277-1.451 12.712 4.664 17.032 5.521 3.901 9.912 5.972 15.393-1.82 4.331-6.157 12.219-9.812 18.528-14.579l3.553 2.049c1.25 6.3 2.481 12.603 3.755 18.898 1.972 9.74-3.339 16.983-7.248 25.201-2.582 5.428-3.946 6.508-9.708 6.068-13.111-1.002-26.434-1.811-39.458-.531-10.104.993-19.886 5.267-29.84 8.091l-8.057 23.227c-1.666-.707-3.095-.918-3.944-1.734-13.144-12.624-15.518-12.787-31.386-3.397-5.228 3.094-10.974 6.87-7.396 12.959 2.989 5.085 4.234 13.629 15.453 11.048 12.306-2.83 19.11 7.153 14.905 18.637-.701 1.913-.137 4.529.467 6.641 3.598 12.562 16.161 13.473 25.131 19.055 2.445 1.52 6.021 2.165 7.403 4.297 9.295 14.342 18.652 28.538 31.827 39.794 3.75 3.205 7.676 6.666 10.099 10.836 2.677 4.606 6.567 11.443 4.937 15.061-4.668 10.364-11.027 20.279-18.282 29.085-8.476 10.286-18.606 19.207-28.005 28.734-3.475 3.522-6.911 7.082-10.365 10.624l-2.704-1.383c0-13.524.873-27.12-.238-40.552-1.181-14.273-1.499-28.438-12.94-40.653-10.365-11.065-15.24-25.56-6.134-41.282 2.44-4.212 4.341-11.842 2.204-15.036-7.482-11.187-16.709-21.232-25.519-31.499-7.154-8.337-14.704-16.332-21.998-24.551-5.097-5.744-9.269-12.677-15.297-17.125-6.248-4.611-6.624-8.333-4.017-15.051 2.277-5.868 2.222-12.642 3.197-19.016 0 0-.14-.118.72.014 3.762.133 6.666.133 7.828.133 2.859-6.949 4.247-13.238 7.669-18.092 10.337-14.664 20.205-30.002 32.645-42.743 12.013-12.304 26.301-22.79 40.839-32.129 21.597-13.876 44.239-26.142 71.293-25.545 1.286.028 2.563-2.435 3.956-3.604 1.422-1.193 2.899-3.02 4.498-3.189 9.525-1.006 19.124-1.338 28.642-2.404 34.466-3.858 66.669 5.9 98.496 16.861 6.541 2.253 14.578 6.059 14.359 15.825Z"/><path fill="#DBA05E" d="M431.13 500.21c-.465 5.912-.409 12.686-2.687 18.555-2.607 6.717-2.231 10.439 4.017 15.05 6.028 4.449 10.2 11.382 15.298 17.126 7.293 8.218 14.843 16.213 21.997 24.55 8.811 10.267 18.037 20.312 25.519 31.499 2.137 3.195.236 10.824-2.204 15.036-9.106 15.723-4.23 30.217 6.134 41.283 11.442 12.214 11.76 26.379 12.94 40.652 1.111 13.432.238 27.028.238 40.552l2.704 1.383c3.454-3.542 6.89-7.102 10.365-10.624 9.399-9.527 19.53-18.448 28.005-28.734 7.255-8.805 13.614-18.721 18.282-29.085 1.63-3.617-2.26-10.455-4.937-15.061-2.423-4.17-6.349-7.631-10.099-10.835-13.175-11.257-22.532-25.453-31.827-39.795-1.382-2.132-4.958-2.777-7.403-4.297-8.969-5.582-21.533-6.493-25.13-19.055-.605-2.112-1.168-4.728-.468-6.641 4.206-11.484-2.599-21.467-14.904-18.636-11.22 2.58-12.465-5.964-15.453-11.049-3.579-6.089 2.167-9.865 7.395-12.958 15.868-9.39 18.242-9.228 31.386 3.396.849.816 2.278 1.027 3.944 1.734l8.057-23.227c9.955-2.824 19.736-7.098 29.84-8.091 13.024-1.28 26.347-.471 39.458.531 5.763.44 7.126-.64 9.708-6.068 3.909-8.218 9.22-15.461 7.249-25.2-1.275-6.295-2.506-12.599-3.756-18.899l-3.553-2.049c-6.309 4.767-14.197 8.422-18.528 14.579-5.481 7.792-9.872 5.722-15.393 1.821-6.115-4.321-8.613-9.755-4.663-17.033 1.678-3.092 3.613-6.361 4.078-9.736 1.359-9.864 7.313-15.975 15.362-20.631 1.378-.797 3.441-1.88 4.576-1.396 9.348 3.987 18.62 8.174 27.765 12.61 3.405 1.652 8.487 6.5 9.253 5.83 4.215-3.688 9.43-8.213 10.432-13.224 3-15.018-6.958-23.847-22.397-21.238-3.603.608-7.183 2.135-10.737 2.028-3.672-.11-7.873-.923-10.673-3.004-1.174-.872 1.411-5.901.995-8.859-1.521-10.81 5.745-8.713 12.392-10.344 9.151-2.247 17.711-7.154 26.296-11.385 8.687-4.282 16.361-4.47 23.479 3.073 6.947 7.362 15.852 9.118 27.102 6.329-2.241 17.431-3.618 33.288-6.678 48.813-.918 4.66-5.854 9.348-10.123 12.358-9.159 6.455-15.538 18.78-13.571 30.332 7.752-4.344 15.161-8.764 22.832-12.665 3.155-1.605 6.942-3.103 10.329-2.887 8.279.526 14.524-.747 14.249-11.063 13.761 6.596 31.198-5.065 32.145-19.8.25-3.886 4.307-7.431 6.221-11.326 3.226-6.562 6.097-13.299 9.264-19.892.229-.478 1.651-.383 2.896-.123-3.927 12.991-7.599 25.815-12.685 38.051-7.729 18.593-25.023 23.934-42.547 27.504-13.669 2.784-26.471 6.154-36.086 17.285-1.803 2.087-6.716 3.938-8.586 2.926-2.601-1.406-4.875-5.491-5.212-8.65-1.473-13.835 5.677-24.13 15.006-33.335 13.208-13.034 16.701-28.872 13.322-48.499-10.475 6.046-15.047.769-20.282-7.768-2.397-3.908-12.481-6.576-17.309-4.852-13.24 4.729-25.542 12.083-37.357 20.602 5.361-.908 10.702-1.956 16.086-2.696 12.672-1.742 21.184 3.119 26.321 14.836 4.433 10.11 1.728 26.914-6.798 31.95-3.786 2.237-10.725 1.465-15.247-.37-8.876-3.604-17.002-9.024-25.554-13.473-6.593-3.429-11.782-1.694-14.427 5.338-3.53 9.385-6.647 18.925-9.941 28.399l3.284 2.27c3.817-2.086 7.798-3.924 11.406-6.324 4.146-2.758 7.751-6.349 11.966-8.98 8.282-5.169 14.039-3.283 16.927 5.885 4.482 14.227 5.429 28.748 1.268 43.27-3.419 11.934-7.948 15.026-19.807 11.894-17.832-4.709-34.887-2.595-51.904 3.496-12.009 4.298-20.393 10.932-19.978 25.163.096 3.28-1.861 6.62-3.558 12.174-4.844-6.933-7.672-12.311-11.78-16.406-2.883-2.875-8.208-6.323-11.211-5.42-5.987 1.801-12.972 5.245-16.119 10.191-3.437 5.404 3.503 6.284 7.59 6.959 16.949 2.798 27.806 14.729 39.124 25.95.791.783.802 2.353 1.424 4.357l-18.112-2.459c-1.108.04-1.394.192-1.68.345l.762.311c-.04 7.317 4.413 10.878 10.862 12.123 13.357 2.577 22.081 11.145 30.168 21.34a947.192 947.192 0 0 0 35.97 42.677c6.414 7.174 8.885 14.432 3.037 22.353-10.2 13.817-20.052 28.135-31.977 40.364-10.93 11.208-20.506 22.295-24.584 37.829-.94 3.578-6.277 6.002-9.591 8.957-2.105-3.978-6.045-7.981-5.991-11.93.208-15.287 1.598-30.563 2.722-45.83 1.041-14.141-2.461-26.893-10.286-38.754-4.008-6.075-6.985-12.837-10.36-19.323-5.989-11.511-6.318-22.968.943-34.046 4.346-6.633 3.644-12.578-1.746-18.024-9.58-9.68-19.821-18.765-28.776-28.984-6.408-7.312-10.785-16.369-16.81-24.066-3.535-4.516-8.124-8.518-12.961-11.627-6.305-4.054-8.899-8.225-5.275-15.566 3.376-6.84 5.914-14.094 9.331-21.627Zm84.876 253.338c-5.689-2.756-5.856-2.569-5.248 8.217 2.384-3.179 3.761-5.016 5.248-8.217Z"/><path fill="#DBA05E" d="M742.99 405.412c-.186-10.302-8.223-14.109-14.764-16.362-31.827-10.961-64.03-20.719-98.496-16.861-9.518 1.066-19.117 1.398-28.642 2.404-1.599.169-3.076 1.996-4.498 3.189-1.393 1.169-2.67 3.632-3.956 3.604-27.054-.597-49.696 11.67-71.293 25.545-14.538 9.34-28.826 19.825-40.839 32.129-12.44 12.741-22.308 28.079-32.645 42.743-3.422 4.854-4.81 11.143-7.669 18.092-1.162 0-4.066 0-7.801-.22 13.825-33.952 36.762-61.197 65.334-83.862 28.928-22.948 61.603-39.087 97.936-44.737 28.668-4.458 57.756-5.226 87.117.126 24.647 4.492 48.136 12.018 69.441 23.711 22.501 12.35 44.645 26.026 61.19 47.473 17.25 22.36 34.47 44.426 44.873 70.897 20.361 51.808 21.47 104.34 5.435 157.488-1.744 5.78-4.304 8.568-10.532 7.329-16.499-3.28-30.439-10.839-41.15-24.771 3.906 1.475 7.846 3.712 11.855 5.818 8.108 4.26 16.013 9.045 24.473 12.441 4.981 1.999 10.498 1.79 12.095-5.944 4.962-24.029 12.112-47.593 10.174-72.738-2.079-26.986-6.694-53.217-17.582-78.124-3.164-7.238-5.94-14.731-9.92-21.504-3.727-6.343-8.814-11.887-12.172-16.298-4.075 5.684-7.635 12.851-13.154 17.859-9.43 8.555-19.508 3.821-28.308-1.975-14.181-9.342-15.175-9.683-28.814 1.433-7.489 6.103-14.591 12.682-22.069 18.8-5.924 4.848-6.949 10.824-5.551 17.917 1.158 5.88 4.906 13.237-3.837 16.133-9.271 3.07-20.588-3.979-22.509-12.887-.588-2.73-1.043-5.488-1.558-8.234l-2.935-.149c-.594 3.457-1.546 6.896-1.717 10.374-.603 12.204-3.351 22.955-15.878 28.676-1.9.868-4.227 4.358-3.855 6.103 4.204 19.772-11.415 26.999-22.844 36.857-2.76 2.38-6.055 4.173-8.656 6.697-10.466 10.162-10.39 19.6-3.456 32.304 7 12.826 17.836 16.197 30.691 19.446 4.461 1.128 8.596 10.885 9.52 17.193 2.136 14.577-.74 28.859-5.313 43.088-3.591 11.17-5.037 23.199-6.077 34.966-.861 9.749 3.55 12.989 12.816 9.812 5.796-1.987 10.776-6.285 16.241-9.331 4.534-2.527 9.242-4.74 14.622-7.224-9.723 10.089-20.052 20.545-35.5 22.944-11.485 1.783-15.548-1.137-14.122-12.579 1.757-14.082 5.391-27.92 7.783-41.937 1.996-11.695 3.762-23.458 4.91-35.261 1.138-11.706-5.926-16.965-16.385-20.199-18.765-5.802-27.396-16.5-28.232-32.979-.561-11.049 2.94-20.283 11.891-27.149 9.483-7.274 18.963-14.55 29.562-22.683-11.876-9.406-4.782-16.802 2.785-22.9 11.053-8.906 15.925-19.654 15.323-33.859-.162-3.82 4.224-7.833 6.522-11.757 2.669 3.527 6.712 6.694 7.746 10.648 2.929 11.196 8.247 15.661 18.54 13.594.129-.303.441-.673.36-.9-7.463-20.697 5.823-32.986 18.589-45.292 4.509-4.346 9.616-8.131 14.734-11.773 9.578-6.816 21.808-5.007 32.912 4.53 11.527 9.901 14.705 9.934 23.193-2.777 2.195-3.286 2.174-10.581-.04-13.877-14.896-22.172-34.662-39.676-56.425-54.873-5.807-4.055-12.68-6.582-19.469-10.347Zm10.329-3.682-2.437-.86-.555 1.592c1.013.068 2.026.135 2.992-.732Z"/><path fill="#DBA05E" d="M719.653 754.699c-1.507-5.081-.429-7.689 5.158-11.21 6.523-4.112 9.901-13.117 14.867-19.834 3.009-4.069 6.032-8.287 9.779-11.616 5.434-4.826 11.777-8.631 17.18-13.487 1.51-1.357 2.389-5.94 1.334-7.244-12.985-16.051-11.271-35.681-13.269-54.239-.755-7.012-2.655-9.077-9.576-11.795-10.35-4.066-19.07-12.286-28.481-18.743-6.672-4.578-12.944-9.954-20.115-13.53-7.888-3.934-9.283-9.126-2.496-14.959 6.662-5.724 14.749-5.678 21.584-2.344 6.917 3.374 12.211 9.918 18.785 14.2 6.243 4.066 12.93 7.858 19.941 10.25 12.955 4.419 15.921 9.344 11.757 21.97-.763 2.312-.529 5.125-.147 7.613 2.063 13.459 4.723 26.841 6.333 40.35.797 6.682 4.18 9.215 9.84 7.966 7.516-1.658 14.766-4.52 24.308-7.558-5.227-6.633-9.013-10.732-11.88-15.397-1.299-2.114-.771-5.35-.483-8.292 6.171 7.097 11.752 14.41 17.344 21.736-6.523 9.321-26.734 17.158-37.036 13.198-3.117-1.198-6.148-6.041-6.78-9.642-1.835-10.454-2.315-21.14-3.58-31.704-.456-3.807-1.632-7.527-2.479-11.286l-2.926.074c0 3.249-.354 6.544.067 9.737 1.303 9.893 3.03 19.73 4.353 29.621 1.491 11.15 5.471 20.02 21.447 21.278-7.394 6.516-12.482 11.934-18.457 16.067-11.695 8.092-21.249 17.305-27.628 30.637-3.458 7.228-11.905 12.069-18.744 18.183Zm22.564-134.643c8.587 3.005 16.204 1.662 24.259-6.485-5.35-3.31-10.179-6.285-14.994-9.282-10.336-6.432-21.404-11.961-30.797-19.56-10.552-8.536-16.952-9.264-24.975-1.279 10.11 8.44 20.312 17.112 30.699 25.557 4.605 3.745 9.583 7.03 15.808 11.049Z"/><path fill="#173E5F" d="M742.563 421.442c.23.581.097 1.155-.035 1.728-.109-.578-.218-1.157.035-1.728Z"/><path fill="#0CB7EA" d="M306.707 543.174c-1.162.094-1.989-.155-2.817-.404l.691-1.63c.82.564 1.64 1.128 2.126 2.034Z"/><path fill="#0CB7EA" d="M161.194 456.773c2.24-39.984 21.103-67.488 57.521-82.127 22.248-8.942 45.754-11.547 69.601-11.094 39.769.755 71.236 17.047 93.461 50.383 20.204 30.305 16.587 71.125-8.225 93.289-13.13 11.728-34.742 13.669-52.589 4.722-15.271-7.655-25.344-25.623-22.725-43.097 1.564-10.44 4.901-20.664 8.02-30.807 4.059-13.201 8.009-26.501 2.616-40.004-6.066-15.188-18.142-22.528-34.352-22.811-16.16-.283-28.478 6.928-35.816 21.121-16.435 31.791-10.74 63.407 18.654 88.926 23.302 20.23 49.307 37.312 73.595 56.447 26.314 20.731 53.881 40.34 77.652 63.74 66.132 65.103 36.204 159.775-20.312 202.045-62.659 46.865-164.884 52.096-231.719 11.47-56.332-34.241-79.099-103.299-55.108-166.87 15.352-40.681 42.254-70.657 84.226-83.279 46.757-14.061 90.663-6.121 127.644 27.198 23.088 20.802 21.223 61.368-2.108 77.658-13.49 9.417-28.289 8.657-43.172 4.636-7.034-1.901-13.689-5.157-20.638-7.423-31.85-10.388-62.387.162-81.235 27.918-31.136 45.85-15.075 101.888 36.278 123.42 36.736 15.403 74.394 20.248 110.494-1.543 32.551-19.649 53.824-48.059 59.818-86.506 3.246-20.817-2.389-39.118-17.263-53.942-7.427-7.402-9.113-13.817-5.756-24.536 10.817-34.534-5.706-71.919-38.203-91.57-34.661-20.961-71.925-29.121-112.023-23.157-6.273.933-9.998-.882-13.382-5.786-16.115-23.353-25.938-48.677-24.954-78.421Zm190.923 47.568c5.77-1.333 11.483-3.049 17.322-3.909 8.824-1.3 9.247-5.273 4.012-11.236.899-1.125 1.371-2.102 2.147-2.633 15.536-10.612 16.91-28.266 4.59-41.92-3.488-3.865-11.924-10.062-2.488-17.384 1.067-.828 1.242-4.991.336-5.701-1.676-1.313-4.534-1.805-6.756-1.52-1.793.23-3.375 2.107-6.388 4.168.267-3.678-.149-5.832.635-7.377 3.562-7.016 3.403-10.63-5.794-13.471-6.137-1.896-15.319-3.987-16.016-14.036-.074-1.069-3.133-2.934-4.583-2.741-8.469 1.125-13.321-4.161-18.872-9.125-5.181-4.631-10.944-5.168-15.615 1.592 12.24 10.635 14.108 14.716 13.75 31.5-.119 5.596-2.473 11.483-1.329 16.694 2.243 10.222-1.179 18.672-6.604 26.219-9.265 12.888-8.617 24.652 3.107 35.195 1.081.972 2.417 2.881 2.132 3.955-1.875 7.04 3.595 7.228 7.715 9.106 3.983 1.816 7.902 3.972 11.417 6.564 5.502 4.057 12.65 2.451 15.637-3.947 0 0-.002.005 1.645.007Zm7.831 114.032c-.281 10.818 1.253 22.108-1.395 32.312-2.278 8.778-4.511 16.448 2.819 22.644 6.576 5.559 4.505 17.354 15.299 19.547 4.712.958 6.659 3.997 3.639 8.914-1.148 1.87-1.697 4.387-1.729 6.62-.248 17.808-.084 35.625-.628 53.421-.098 3.21-2.479 6.616-4.497 9.439-3.225 4.511-7.028 8.61-10.587 12.883-1.89 3.591-4.663 6.26-7.188 9.146-4.586 5.24-8.656 10.986-13.611 15.836-7.278 7.123-6.997 9.275 2.156 13.649 3.933-1.969 7.453-5.325 10.496-4.938 7.28.927 7.843-2.788 7.771-8.079-.081-5.992.195-11.861 7.751-14.592.58 1.674.799 2.961 1.432 3.997 1.443 2.365 3.088 4.607 4.652 6.898 2.541-2.516 7.623-5.635 7.194-7.449-2.157-9.116 4.038-9.596 9.557-10.09 8.333-.745 11.973-4.989 13.859-12.945 1.121-4.732 4.754-9.119 8.016-13.028 4.081-4.891 11.557-8.441 12.969-13.785 4.082-15.448 5.094-31.686 8.765-47.271 3.373-14.321-2.179-27.456-2.806-41.146-.354-7.753-3.644-12.149-9.394-16.091-6.168-4.23-12.021-8.623-8.812-17.892.606-1.749-1.37-5.087-3.06-6.799-4.308-4.366-9.334-8.019-13.7-12.334-8.878-8.773-17.374-17.938-26.368-26.587-1.678-1.613-5.193-1.135-7.432-2.388-3.609-2.02-7.094-4.415-10.185-7.155-2.188-1.94-3.799-4.611-5.387-7.132-4.687-7.44-9.122-4.116-13.62.148-5.225 4.953-4.242 10.647 1.177 13.265 7.856 3.796 10.684 10 13.188 17.408 2.543 7.528 6.003 14.747 9.659 23.574Zm-84.625-80.242 30.95 14.356 11.3-3.032 1.307 13.387c1.117.298 3.848 1.986 5.283 1.227 4.017-2.127 7.497-5.264 11.19-8.003-2.699-2.657-5.216-5.539-8.146-7.911-3.208-2.597-6.829-4.678-10.215-7.062-11.988-8.441-23.508-17.682-36.137-25.011-5.309-3.081-10.584-4.575-11.977-11.391-.245-1.195-2.548-1.921-3.817-2.965-4.144-3.409-8.345-6.758-12.328-10.348-1.944-1.752-3.071-5.052-5.224-5.825-11.518-4.136-13.295-15.374-17.637-24.306-3.832-7.883-5.408-16.862-7.952-25.267-2.538-1.014-8.109-1.947-8.303-3.537-.936-7.654-.421-15.484-.421-23.252l3.127-.161 5.543 10.303 3.554-.564c0-4.888-.392-9.817.12-14.65.439-4.144.597-10.139 3.187-11.879 6.625-4.45 7.9-9.634 6.094-18.363-3.175 1.678-6.188 2.532-8.154 4.457-4.625 4.526-7.906 9.311-16.207 9.271-5.193-.025-11.423 5.473-15.404 10.046-6.89 7.915-12.547 16.936-18.393 25.711-1.919 2.88-3.311 6.329-4.056 9.714-.774 3.516.555 7.722-.821 10.838-5.795 13.12-4.544 26.167.519 38.729 4.769 11.835-.297 28.383 16.248 34.934 1.27.503 1.519 4.08 1.882 6.287 1.348 8.201 6.725 11.86 14.775 9.762 3.509-.914 7.077-3.28 10.405-2.935 19.415 2.017 38.767 4.642 59.708 7.44Zm42.098 288.35-12.405 6.381.626 3.086c5.339-.792 10.873-.963 15.958-2.565 4.35-1.369 8.223-4.32 12.115-6.865.162-.106-1.944-4.752-2.454-4.648-4.289.879-8.453 2.373-13.84 4.611ZM299 374.015l1.503-2.522-4.136.019c.512.836 1.024 1.671 2.633 2.503Z"/><path fill="#02BDF3" d="M274.539 537.942c-20.156-2.609-39.508-5.234-58.923-7.25-3.329-.346-6.897 2.02-10.406 2.935-8.05 2.097-13.427-1.562-14.775-9.762-.363-2.208-.612-5.785-1.882-6.288-16.545-6.551-11.478-23.099-16.248-34.934-5.063-12.561-6.314-25.608-.519-38.728 1.377-3.116.048-7.323.821-10.839.745-3.384 2.137-6.833 4.056-9.713 5.847-8.776 11.503-17.797 18.394-25.712 3.98-4.573 10.21-10.071 15.403-10.046 8.301.041 11.582-4.745 16.207-9.271 1.967-1.924 4.979-2.779 8.154-4.457 1.807 8.73.531 13.914-6.093 18.363-2.591 1.74-2.749 7.735-3.188 11.88-.512 4.833-.119 9.762-.119 14.649l-3.555.564-5.543-10.303-3.127.161c0 7.768-.514 15.599.421 23.252.194 1.59 5.765 2.523 8.303 3.537 2.545 8.405 4.12 17.384 7.952 25.267 4.342 8.933 6.119 20.17 17.637 24.306 2.153.774 3.28 4.073 5.225 5.826 3.982 3.589 8.184 6.938 12.327 10.347 1.269 1.044 3.573 1.77 3.817 2.966 1.393 6.815 6.669 8.309 11.977 11.39 12.63 7.33 24.149 16.57 36.137 25.011 3.386 2.384 7.007 4.465 10.215 7.062 2.93 2.372 5.447 5.254 8.146 7.911-3.692 2.739-7.173 5.877-11.19 8.003-1.435.76-4.166-.929-5.283-1.227l-1.307-13.387-11.299 3.032c-9.424-4.371-20.187-9.363-31.735-14.545Zm32.502 4.889-2.46-1.691-.691 1.63c.828.249 1.655.497 3.151.061ZM318.014 826.017c4.794-1.773 8.958-3.268 13.247-4.147.51-.104 2.617 4.542 2.454 4.649-3.892 2.545-7.764 5.495-12.115 6.865-5.084 1.601-10.619 1.773-15.958 2.565l-.625-3.087c4.134-2.127 8.269-4.254 12.997-6.845Z"/><path fill="#0CB7EA" d="M306.707 543.174c-1.162.094-1.989-.155-2.817-.404l.691-1.63c.82.564 1.64 1.128 2.126 2.034ZM350.475 504.332l-.563-.343s.399.034.479.192c.079.157.084.151.084.151Z"/><path fill="#F89F40" d="M515.951 754.23c-1.432 2.519-2.81 4.356-5.194 7.535-.608-10.786-.44-10.973 5.194-7.535Z"/><path fill="#283E50" d="M496.483 584.319c-.283-.079-.537-.183-.791-.287.286-.152.572-.304.868-.124.009.332-.049.386-.077.411Z"/><path fill="#F89F40" d="M753.342 402.198c-.989.399-2.002.332-3.015.264l.555-1.592c.813.286 1.625.573 2.46 1.328Z"/></svg>