<svg xmlns="http://www.w3.org/2000/svg" width="2347" height="2300" fill="none"><path fill="#FFE49A" d="M2041.02 2071.02c-195.38 29.77-396.67 17.36-807.96-13.78-230.94-17.49-695.299 11.49-927.082 13.78C136.998 2072.7 0 1919.18 0 1731.87V563.763c0-187.307 137.283-350.168 305.978-339.151 156.662 10.232 387.09 50.738 627.295 25.937 285.687-29.499 827.947-54.566 1107.747-25.937C2209.29 241.83 2347 376.454 2347 563.763V1731.87c0 187.31-138.56 313.65-305.98 339.15Z"/><path fill="#B2C9C6" d="M764.005 1077.61c-7.676 6.6-11.699 5.63-13.847 2-2.147-3.63-1.605-8.54 6.07-15.14 13.983-12.04 24.629-11.28 24.629-11.28s-2.665 12.21-16.852 24.42ZM779.435 1342.46l-1.786.01c0-.34-.22-33.74-13.058-81.31-11.846-43.9-37.163-109.2-90.513-170.96l1.235-1.55c53.643 62.1 79.094 127.77 90.998 171.93 12.909 47.88 13.123 81.55 13.124 81.88Z"/><path fill="#B2C9C6" d="m729.222 1168.08-1.581-1c29.964-69.31 3.087-146.65 2.814-147.42l1.639-.85c.278.78 27.491 79.04-2.872 149.27ZM699.875 1136.18c-18.057 1.94-32.511-7.49-32.676-7.6l.862-1.89c.183.13 18.705 12.18 39.74 5.68l.444 2.08a44.95 44.95 0 0 1-8.37 1.73ZM672.006 1078.38c10.164 9.21 11.385 14.84 9.164 18.41-2.222 3.56-7.046 3.7-17.209-5.52-18.514-16.79-23.44-31.35-23.44-31.35s12.701 1.42 31.485 18.46Z"/><path fill="#B2C9C6" d="M671.453 1121.13c11.995 5.1 14.568 10.02 13.342 14.23-1.229 4.2-5.793 6.09-17.788 1-21.851-9.28-30.189-21.38-30.189-21.38s12.466-3.26 34.635 6.15ZM715.528 1100.07c2.959 10.8.995 15.14-2.515 16.54-3.51 1.4-7.235-.68-10.193-11.47-5.39-19.67-1.641-31.71-1.641-31.71s8.881 6.69 14.349 26.64ZM735.2 1009.72c4.052 14.54 2.417 20.01-1.088 21.43-3.503 1.42-7.549-1.75-11.6-16.29-7.381-26.476-4.603-41.845-4.603-41.845s9.803 9.84 17.291 36.705Z"/><path fill="#BED5DC" d="M1179.77 1911.66c556.5 0 1007.63-82.27 1007.63-183.75 0-101.49-451.13-183.76-1007.63-183.76-556.507 0-1007.641 82.27-1007.641 183.76 0 101.48 451.134 183.75 1007.641 183.75Z"/><path fill="#42428E" d="m600.523 1850.47-.57-1.04c.059-.05 5.929-4.77 6.738-10.28a7.85 7.85 0 0 0-1.107-5.38c-.719-1.18-1.597-1.72-2.664-1.72-5.093.09-12.471 12.76-12.544 12.89l-1.343 2.33.407-2.79c.017-.12 1.61-11.32-1.632-14.67-1.008-1.04-2.445-1.19-4.274-.44-1.923.79-3.26 2.24-3.971 4.31-2.128 6.17 1.76 15.9 1.8 16l-.932.55c-.169-.42-4.13-10.35-1.826-17.03.832-2.41 2.378-4.1 4.595-5.01 2.198-.9 3.977-.68 5.284.67 2.698 2.79 2.545 9.71 2.239 13.42 2.384-3.72 7.832-11.4 12.183-11.48 1.418.03 2.592.72 3.512 2.22 1.193 1.95 1.627 4.09 1.295 6.35-.891 6.04-6.934 10.9-7.19 11.1ZM1935.03 1712.96l-.67-1.22c.07-.06 6.94-5.59 7.88-12.04.33-2.24-.1-4.36-1.29-6.3-.83-1.35-1.83-2.01-3.06-2.01-.02 0-.04 0-.06.01-5.96.1-14.59 14.93-14.68 15.08l-1.57 2.72.48-3.27c.02-.13 1.88-13.24-1.91-17.15-1.18-1.23-2.87-1.4-5-.52-2.25.93-3.82 2.62-4.65 5.04-2.49 7.22 2.06 18.61 2.11 18.73l-1.09.64c-.2-.49-4.84-12.11-2.14-19.93.97-2.82 2.78-4.79 5.38-5.86 2.57-1.06 4.65-.79 6.18.79 3.16 3.26 2.98 11.36 2.62 15.7 2.79-4.35 9.16-13.35 14.25-13.43 1.64 0 3.04.84 4.11 2.6 1.4 2.27 1.91 4.77 1.52 7.42-1.05 7.07-8.11 12.76-8.41 13ZM849.837 1800.35c-.341-.27-8.345-6.71-9.521-14.7-.442-3 .134-5.82 1.711-8.39 1.212-1.98 2.791-2.93 4.627-2.93 5.81.1 13.107 10.47 16.22 15.34-.413-4.86-.663-14.2 2.946-17.92 1.724-1.78 4.07-2.08 6.974-.89 2.931 1.21 4.974 3.43 6.075 6.62 3.051 8.85-2.199 22.01-2.425 22.56l-1.165-.68c.053-.13 5.218-13.08 2.39-21.28-.95-2.75-2.731-4.68-5.294-5.74-2.44-1-4.363-.8-5.711.59-4.322 4.47-2.202 19.36-2.18 19.51l.511 3.49-1.681-2.91c-.098-.17-9.904-17.01-16.679-17.13-1.447.01-2.604.73-3.567 2.3-1.354 2.21-1.853 4.63-1.477 7.18 1.077 7.33 8.882 13.62 8.96 13.68l-.714 1.3ZM1011.68 1657.54c-.21-2.96-1.11-5.08-2.67-6.28-3.44-2.64-9.031-.22-9.087-.19l-1.939.85 1.385-1.84c.04-.06 4.011-5.4 3.191-9.27-.31-1.47-1.31-2.57-2.983-3.28-7.028-2.97-12.795 14.31-13.076 15.17-.006.02-.011.03-.012.04l-.949-.45c.002-.01.006-.02.01-.03.096-.31 1.146-3.81-.138-6.21-.787-1.47-2.325-2.29-4.57-2.42-2.103-.12-3.554.48-4.317 1.77-1.473 2.49-.062 6.84-.048 6.88l-.946.46c-.067-.21-1.626-5.02.164-8.05.979-1.66 2.731-2.42 5.196-2.28 2.596.15 4.407 1.15 5.383 2.98.485.91.704 1.92.772 2.89 2.305-5.48 7.053-14.37 12.87-11.91 2.014.86 3.234 2.25 3.634 4.14.66 3.13-1.16 6.81-2.4 8.85 2.06-.6 5.72-1.2 8.4.86 1.85 1.42 2.91 3.85 3.15 7.22l-1.02.1ZM1354.98 1803.4c-.55-.67-13.37-16.61-8.72-26.08.74-1.49 1.61-2.19 2.63-2.04 3.41.47 7.14 11.16 9.07 17.53-.64-7.96-1.37-23.69 2.25-29.01.78-1.16 1.74-1.79 2.85-1.87 1.08-.07 1.96.39 2.63 1.39 3.26 4.86.31 22.04-1.3 30.08 1.2-2.36 2.91-4.99 4.66-5.29.84-.14 1.49.23 1.86 1.05 1.06 2.34-.4 8.3-4.67 14.22l-.64-.67c4.2-5.83 5.35-11.33 4.56-13.06-.2-.44-.51-.6-.99-.52-2.25.39-4.87 6.27-5.7 8.51l-.8-.35c.07-.27 6.29-27.46 2.36-33.33-.49-.73-1.12-1.06-1.92-1-.87.06-1.61.55-2.24 1.49-4.58 6.74-1.65 32.65-1.62 32.91l-.83.23c-1.51-5.77-6.2-20.82-9.63-21.29-.65-.09-1.24.41-1.8 1.55-4.32 8.79 8.47 24.68 8.6 24.84l-.61.71Z"/><path fill="#BED5DC" d="M1507.86 1860.74s-26.21-32.23-17.19-50.58c9.02-18.36 24.24 39.42 24.24 39.42s-7.89-68.32 8.45-69.51c16.35-1.18 0 69.51 0 69.51s6.07-16.48 11.98-17.5c5.92-1.02 4.23 13.98-6.34 28.66h-21.14Z"/><path fill="#42428E" d="M1509.74 1861.55c-.08-.09-7.58-9.36-13.72-21.07-8.37-15.98-10.37-28.67-5.93-37.7 1.66-3.38 3.65-4.92 5.92-4.62 7.7 1.06 16.13 25.24 20.47 39.59-.45-5.74-.93-13.3-1.11-21.25-.51-22.58 1.56-37.45 6.15-44.2 1.78-2.61 3.94-4.03 6.43-4.21 2.42-.19 4.42.87 5.93 3.12 7.34 10.96.7 49.68-2.94 67.79 2.72-5.31 6.58-11.23 10.52-11.91 1.86-.33 3.35.51 4.18 2.36 2.38 5.27-.9 18.69-10.51 32.05l-1.45-1.52c9.45-13.13 12.04-25.52 10.28-29.42-.45-.99-1.16-1.37-2.23-1.18-5.07.87-10.99 14.14-12.85 19.17l-1.8-.77c.04-.16 3.62-15.74 6.03-32.79 3.14-22.29 2.89-36.93-.72-42.33-1.11-1.65-2.53-2.38-4.32-2.26-1.97.14-3.62 1.24-5.06 3.36-10.32 15.19-3.71 73.58-3.64 74.17l-1.87.5c-3.42-12.98-13.99-46.91-21.7-47.97-1.47-.21-2.8.94-4.05 3.49-9.74 19.82 19.07 55.62 19.36 55.97l-1.37 1.63Z"/><path fill="#BED5DC" d="M2119.24 1695.42s-33.68-41.66-22.09-65.39c11.59-23.73 31.15 50.98 31.15 50.98s-10.14-88.34 10.86-89.87c21.01-1.53 0 89.87 0 89.87s7.79-21.32 15.39-22.63c7.61-1.32 5.43 18.07-8.15 37.04h-27.16Z"/><path fill="#42428E" d="M2121.65 1696.46c-.1-.12-9.73-12.1-17.62-27.23-10.76-20.66-13.32-37.05-7.62-48.73 2.13-4.36 4.68-6.37 7.6-5.97 5.82.8 12.64 11.93 20.29 33.08 2.33 6.43 4.39 12.85 6 18.18-1.85-23.16-4-69.25 6.52-84.74 2.27-3.35 5.04-5.16 8.23-5.4 3.12-.22 5.67 1.12 7.6 4 9.47 14.11.94 64.21-3.75 87.66 3.49-6.87 8.45-14.51 13.51-15.38 2.39-.42 4.29.66 5.37 3.03 3.08 6.79-1.13 24.14-13.5 41.44l-1.87-1.95c12.16-17.01 15.48-33.03 13.2-38.06-.58-1.27-1.49-1.75-2.85-1.51-6.52 1.13-14.12 18.28-16.5 24.79l-2.33-1c.05-.2 4.66-20.36 7.75-42.42 4.04-28.85 3.71-47.78-.96-54.72-1.41-2.12-3.23-3.06-5.52-2.9-2.51.19-4.62 1.59-6.47 4.31-13.29 19.56-4.79 95.16-4.7 95.93l-2.41.65c-4.39-16.79-17.97-60.66-27.89-62.02-1.88-.26-3.58 1.22-5.19 4.52-12.51 25.62 24.5 71.9 24.88 72.37l-1.77 2.07Z"/><path fill="#BED5DC" d="M212.296 1712.49s-33.726-41.46-22.122-65.07c11.605-23.62 31.188 50.73 31.188 50.73s-10.154-87.91 10.881-89.44c21.034-1.53 0 89.44 0 89.44s7.797-21.21 15.413-22.53c7.614-1.31 5.439 17.99-8.161 36.87h-27.199Z"/><path fill="#42428E" d="M214.71 1713.54c-.096-.12-9.747-12.05-17.643-27.11-10.776-20.56-13.342-36.88-7.628-48.51 2.132-4.34 4.689-6.34 7.612-5.93 5.819.8 12.652 11.88 20.31 32.92 2.334 6.41 4.399 12.82 6.018 18.12-1.858-23.01-4.014-68.85 6.491-84.32 2.282-3.36 5.064-5.18 8.271-5.42 3.123-.21 5.692 1.13 7.628 4.02 9.447 14.1.908 63.91-3.784 87.22 3.5-6.83 8.465-14.45 13.538-15.33 2.397-.41 4.311.67 5.384 3.04 3.062 6.78-1.164 24.05-13.533 41.23l-1.865-1.95c12.162-16.89 15.498-32.83 13.23-37.85-.576-1.28-1.486-1.77-2.868-1.52-6.531 1.12-14.145 18.19-16.528 24.67l-2.317-1c.046-.2 4.657-20.24 7.75-42.18 4.045-28.68 3.725-47.52-.927-54.46-1.426-2.13-3.244-3.09-5.56-2.91-2.527.18-4.656 1.59-6.51 4.33-13.265 19.53-4.769 94.66-4.682 95.42l-2.398.65c-4.401-16.7-17.999-60.36-27.928-61.72-1.891-.27-3.594 1.21-5.209 4.49-12.53 25.5 24.534 71.55 24.91 72.01l-1.762 2.09Z"/><path fill="#BED5DC" d="M1051.46 1780.87s-17.19-21.13-11.28-33.16c5.92-12.04 15.9 25.85 15.9 25.85s-5.18-44.8 5.54-45.58c10.72-.78 0 45.58 0 45.58s3.98-10.81 7.86-11.48c3.88-.67 2.77 9.17-4.16 18.79h-13.86Z"/><path fill="#42428E" d="M1052.69 1781.4c-.05-.06-4.97-6.13-9-13.81-5.49-10.48-6.8-18.8-3.88-24.72 1.08-2.22 2.38-3.23 3.88-3.03 2.96.41 6.44 6.06 10.35 16.78 1.19 3.27 2.24 6.53 3.06 9.24-.94-11.73-2.04-35.09 3.31-42.98 1.17-1.71 2.58-2.64 4.22-2.76 1.59-.1 2.9.57 3.89 2.05 4.81 7.18.46 32.57-1.93 44.45 1.78-3.48 4.31-7.37 6.9-7.81 1.22-.21 2.19.34 2.74 1.55 1.56 3.45-.59 12.26-6.9 21.01l-.95-.99c6.2-8.61 7.9-16.74 6.75-19.29-.3-.66-.76-.9-1.47-.78-3.32.57-7.2 9.27-8.42 12.58l-1.18-.51c.09-.41 9.29-40.58 3.48-49.26-.73-1.08-1.65-1.58-2.84-1.48-1.28.09-2.37.81-3.31 2.2-6.77 9.96-2.43 48.25-2.39 48.64l-1.22.33c-2.25-8.51-9.18-30.76-14.24-31.46-.97-.14-1.83.62-2.65 2.29-6.39 13 12.5 36.47 12.69 36.7l-.89 1.06Z"/><path fill="#B2C9C6" d="M1670.17 1413.28s203.09-864.716 395.6-789.447c192.51 75.271-242.56 543.077-295.07 797.057l-100.53-7.61Z" opacity=".6"/><path fill="#B2C9C6" d="M1813.9 1367.94s248.51-518.448 385.9-430.114c137.4 88.334-243.08 301.964-310.67 455.704l-75.23-25.59Z" opacity=".6"/><path fill="#B2C9C6" d="M1855.88 1382.7c45.07-107.2 124.23-204.08 182.7-266.48 63.39-67.64 116.76-110.43 117.29-110.85l-2.2-4c-.53.42-54.13 43.39-117.73 111.26-58.73 62.67-138.26 160.02-183.61 267.9l3.55 2.17Z"/><path fill="#B2C9C6" d="M2182.26 1458.44c-59.66 20.59-43.58 130.26-113.66 115.23-59.27-12.74-64.54-18.84-83.62 3.02-6.54 7.5-12.06 16.18-16.61 25.57-5.45 11.27-16.24 28.08-33.75 33.24-106.97 31.48-265.46-149.78-158.36-265.08 7.73-8.32 19.44-12.22 32.44-15.75 70.54-19.06 94.9 18.63 145.52-87.1 50.64-105.76 134.76 33.44 182.28 24.54 47.51-8.91 88.69-29.53 129.27 28.59 40.57 58.17-23.85 117.2-83.51 137.74Z"/><g fill="#74A1BD" opacity=".5"><path d="m1818.39 1508.09-2.49-3.89c1.42-1.33 146.03-133.14 459.39-166.84l.36 4.9c-312.18 33.58-455.84 164.51-457.26 165.83ZM2005.7 1346.48c-43.84-41.64-53.07-76.73-53.44-78.2l3.9-1.44c.09.35 9.34 35.19 52.07 75.78l-2.53 3.86Z"/><path d="M2015.76 1398.9c-12.98-23.8-13.82-59.51-2.43-103.26 8.53-32.77 21.03-58.92 21.16-59.18l3.53 2.47c-.49 1.01-48.69 102.55-18.85 157.27l-3.41 2.7ZM2097.89 1383.81c-5.2-4.58-8.04-7.6-8.17-7.74l2.73-3.66c.59.64 60.43 64.18 143.12 54.61l.39 4.89c-66.63 7.72-118.71-31.02-138.07-48.1Z"/><path d="M2144.77 1494.15c-20.29-23.94-27.07-48.94-29.19-65.68-2.3-18.24.22-30.68.32-31.2l3.96 1.19c-.09.48-9.39 48.34 27.77 92.17l-2.86 3.52Z"/></g><path fill="#B2C9C6" d="M1800.7 754.501c1.79-22.643 8.29-28.691 15.65-27.842 7.36.849 12.8 8.273 11 30.916-3.27 41.247-18.18 59.646-18.18 59.646s-11.79-20.873-8.47-62.72ZM2177.1 1215.63c19.77-4.09 26.72 2.27 28.05 11.61 1.33 9.34-3.47 18.13-23.24 22.22-36 7.45-55.81-5.86-55.81-5.86s14.47-20.41 51-27.97ZM2118 1178.34c10.65-18.78 18.77-20.28 24.87-15.25 6.1 5.04 7.88 14.7-2.77 33.47-19.4 34.2-39.83 41.62-39.83 41.62s-1.95-25.14 17.73-59.84ZM614.687 1491.96S443.13 913.36 314.682 975.393c-128.45 62.037 186.197 356.997 231.713 527.337l68.292-10.77Z"/><path fill="#9BBCB6" d="M534.778 1417.63s-199.838-389.6-303.228-318.28c-103.389 71.33 191.596 224.21 246.187 339.92l57.041-21.64Z"/><path fill="#74A1BD" d="M502.957 1430.07c-36.497-80.73-98.862-152.64-144.751-198.74-49.75-49.98-91.37-81.23-91.784-81.54l1.604-3.12c.417.31 42.217 31.69 92.13 81.84 46.094 46.31 108.748 118.56 145.474 199.8l-2.673 1.76Z"/><path fill="#CFD3A3" d="M539.802 1624.44c-37.948-6.15-82.437-11.49-128.079-16.3-4.432-9.53-6.053-17.59-6.053-17.59-25.115-39.39-20.661-33.42-86.017-28.58-46.879 3.44-47.617-46.1-63.75-84.13-.289-.7-.591-1.38-.895-2.07-6.278-14.12-14.892-26.45-29.093-33.57-15.066-7.55-30.205-18-43.165-30.22-1.077-1.01-2.14-2.04-3.188-3.08-25.58-25.4-41.377-57.66-28.415-86.98.304-.69.626-1.38.965-2.07 2.37-4.81 5.534-9.55 9.58-14.15 42.166-47.93 77.978-23.84 120.612-9.65 23.575 7.85 61.328-24.24 96.638-37.08.504-.19 1.014-.37 1.518-.55 27.989-9.75 54.284-6.83 70.532 38.44 0 .01.005.01.005.02.331.91.662 1.83.989 2.72 36.445 99.78 62.105 69.24 124.323 95.41 11.572 4.87 21.927 9.93 28.264 18.52 59.091 80.14 5.518 172.24-64.771 210.91Z"/><path fill="#C4C695" d="m554.008 1533.95 2.62-3.24c-1.182-1.4-121.752-140.26-405.099-211l-.761 4.43c282.282 70.48 402.061 208.42 403.24 209.81ZM397.042 1362.41c43.709-32.46 55.215-63.34 55.682-64.64l-3.44-1.81c-.11.31-11.619 30.96-54.214 62.6l1.972 3.85Z"/><path fill="#C4C695" d="M383.263 1409.02c13.942-20.09 17.838-52.61 11.27-94.03-4.918-31.03-14.053-56.52-14.146-56.78l-3.44 1.81c.359.99 35.492 99.91 3.435 146.1l2.881 2.9ZM309.544 1384.77c5.15-3.53 8.008-5.92 8.137-6.03l-2.167-3.7c-.599.51-60.844 50.93-135.558 31.64l-.784 4.43c60.202 15.54 111.184-13.22 130.372-26.34Z"/><path fill="#C4C695" d="M257.033 1479.6c20.641-19.29 29.027-41.26 32.427-56.29 3.7-16.37 2.494-28.06 2.442-28.55l-3.724.59c.049.45 4.347 45.36-33.446 80.67l2.301 3.58Z"/><path fill="#B2C9C6" d="M189.208 1226.85c-11.283-7.64-12.629-14.23-10.148-19.56 2.481-5.34 7.848-7.39 19.131.24 20.553 13.91 25.996 30.28 25.996 30.28s-14.125 3.14-34.979-10.96Z"/><path fill="#F7B686" d="M637.052 754.238s30.391-1.691 35.231-57.92c4.975-57.798-50 0-50 0l14.769 57.92Z"/><path fill="#F7B686" d="M606.045 569.877c1.851.879 32.612 10.932 46.235 66.877 13.621 55.946-32.107 11.837-32.107 11.837l-14.128-78.714Z"/><path fill="#2F1A31" d="M565.526 1340.68s.419 20.11 11.7 25.78c11.283 5.67 43.975 10.79 31.76 23.72-7.009 7.41-40.044 2.62-49.369 2.62-9.328 0-18.084 4.9-25.016-2.63-7.624-8.28.001-49.49.001-49.49s8.049 5.05 15.287 4.83c10.432-.33 15.637-4.83 15.637-4.83ZM435.953 1340.68s.418 20.1 11.7 25.77c11.284 5.68 43.976 10.8 31.759 23.72-7.008 7.42-40.043 2.63-49.369 2.63-9.327 0-18.083 4.9-25.014-2.63-7.624-8.28.001-49.5.001-49.5s8.049 5.06 15.287 4.83c10.428-.32 15.636-4.82 15.636-4.82Z"/><path fill="#6F4975" d="M649.387 789.467s2.086 84.166-20.192 245.623c-16.083 116.56-35.069 234.02-44.384 290.33-3.331 20.15-17.381 34.87-34.03 35.68l-8.948.43c-18.002.87-32.613-17.78-31.297-39.94l22.6-380.973 5.572-125.389 110.679-25.761Z"/><path fill="#2F1A31" d="M445.607 863.534c1.026 10.245 49.061 9 107.875.023 58.812-8.977 104.591-24.341 103.563-34.583-1.027-10.245-48.47-11.49-107.284-2.513-58.812 8.975-105.181 26.827-104.154 37.073Z"/><path fill="#6F4975" d="M581.866 849.582 456.304 1335.96c-5.256 20.36-20.455 34.31-37.771 34.67l-7.547.16c-17.819.36-31.442-19.51-28.192-41.12l68.685-457.025c.997-5.432 4.322-9.751 8.668-11.262 23.551-8.191 124.029-31.917 121.719-11.801Z"/><path fill="#CFD3A3" d="M465.239 583.505s16.708-56.681 76.22-54.102c59.513 2.578 104.451 96.883 115.583 299.571 0 0-97.453-25.771-211.612 34.346 0 0-6.329-197.202 19.809-279.815Z"/><path fill="#CFD3A3" d="m423.445 580.092 42.162 32.542s108.374 13.075 137.145 6.78c28.77-6.294 33.246-31.802 33.246-31.802s-27.369-45.268-79.449-56.511c-4.894-1.064-9.823-1.24-15.086-1.695-8.834-.756-17.667-.43-26.327.696-51.454 6.696-91.691 49.99-91.691 49.99Z"/><path fill="#020202" d="m525.748 1066.98-2.006-.8 27.002-98.989c6.237-22.859 19.066-41.936 36.124-53.723l1.05 2.209c-16.604 11.473-29.095 30.049-35.166 52.311l-27.004 98.992Z"/><path fill="#E28569" d="m582.276 516.778-.159-.813c.076-.022 7.659-2.255 9.804-8.491 1.114-3.236.583-7.021-1.575-11.252a790.855 790.855 0 0 0-2.809-5.436c-5.907-11.358-8.118-15.607-6.499-24.903l.677.171c-1.561 8.967.448 12.827 6.408 24.289a735.451 735.451 0 0 1 2.811 5.444c2.283 4.472 2.83 8.514 1.625 12.011-2.283 6.629-9.957 8.888-10.283 8.98Z"/><path fill="#E28569" d="M581.374 465.969s-2.635 14.393 5.272 29.458c7.907 15.064-.699 26.073-11.412 20.279-10.713-5.794-14.796 10.674-28.491 1.571s34.631-51.308 34.631-51.308Z"/><path fill="#F7B686" d="M518.083 529.612c5.917-.764 11.057-5.243 13.411-11.834l7.376-20.654 2.14-5.995 12.584-35.249-2.181 36.528-1.312 21.925-.375 6.251c-.304 5.1 2.651 9.612 6.825 10.517l.073.016c2.239 4.391 5.332 13.319-3.91 16.864-10.859 4.168-28.424-6.141-34.728-18.358l.097-.011Z"/><path fill="#2F1A31" d="M538.837 496.516c.005.201.017.403.031.605.721 11.776 11.168 17.276 11.168 17.276l.063-.065 1.312-21.925c-3.194-1.41-7.743-2.86-10.404-1.281-1.39.826-2.265 2.479-2.17 5.39Z"/><path fill="#F7B686" d="M583.432 461.721c0-23.385-12.744-42.341-28.462-42.341-15.719 0-28.462 18.958-28.462 42.341 0 23.385 12.742 42.342 28.462 42.342 15.718 0 28.462-18.957 28.462-42.342Z"/><path fill="#F7B686" d="M530.315 468.107c3.223 3.712 7.73 4.092 10.067.85 2.338-3.242 1.619-8.88-1.605-12.593-3.224-3.712-7.732-4.091-10.069-.849-2.336 3.242-1.617 8.88 1.607 12.592Z"/><path fill="#DB6B49" d="M570.296 489.121s-9.723.271-19.446-3.848c0 0-.808 11.555 9.723 12.33 6.124.451 9.723-8.482 9.723-8.482Z"/><path fill="#fff" d="M570.297 489.121s-2.353 2.354-7.842 2.325c-5.488-.029-11.603-6.173-11.603-6.173s11.715 3.882 19.445 3.848Z"/><path fill="#060633" d="M557.72 462.131a.701.701 0 0 0 .432-.464c.134-.399-.027-.854-.359-1.014-.195-.095-4.553-2.796-8.381 2.252-.24.318-.236.807.023 1.105.259.296.619.213.915-.028 2.975-2.41 6.798-1.957 6.961-1.881a.538.538 0 0 0 .409.03ZM552.6 470.71c-.05 1.861.818 3.406 1.939 3.449 1.121.043 2.069-1.432 2.118-3.294.049-1.863-.82-3.406-1.94-3.449-1.121-.044-2.069 1.431-2.117 3.294ZM580.831 466.199a.583.583 0 0 0 .544-.23.898.898 0 0 0-.011-1.102c-.151-.177-3.325-4.677-8.46-1.767-.324.184-.475.638-.328 1.032.145.393.503.48.856.395 3.509-.863 6.903 1.312 7.028 1.458a.603.603 0 0 0 .371.214ZM573.383 471.78c-.633 1.699-.317 3.526.704 4.08 1.024.554 2.365-.374 2.999-2.073.633-1.699.318-3.526-.705-4.08-1.022-.556-2.363.374-2.998 2.073Z"/><path fill="#E28569" d="M567.052 427.054s-.612 14.691-15.827 17.196c-15.215 2.505-25.708 10.267-23.665 23.484 2.044 13.216 26.568 40.636 8.544 51.256-18.024 10.621-14.189-9.183-33.73-4.591-19.54 4.591-23.064-26.874-9.611-45.135 13.455-18.26 8.006-66.582 58.461-64.439 50.456 2.143 31.968 50.685 31.968 50.685s-16.169-12.232-16.14-28.456Z"/><path fill="#fff" d="m530.915 521.71-.153-.458c3.722-1.812 5.912-4.381 6.694-7.853 2.163-9.616-7.293-24.396-15.636-37.436-2.212-3.459-4.303-6.727-6.157-9.849-5.162-8.691-5.618-19.061-1.189-27.062 4.919-8.887 14.268-12.649 24.402-9.815 9.791 2.736 16.514.281 20.431-2.263 4.244-2.756 6.201-6.204 6.22-6.239l.341.277c-.078.14-8.072 14.025-27.084 8.707-9.964-2.784-19.146.896-23.969 9.607-4.397 7.944-3.955 17.85 1.181 26.499 1.85 3.113 3.939 6.378 6.15 9.833 8.401 13.132 17.923 28.016 15.707 37.869-.807 3.583-3.141 6.336-6.938 8.183Z"/><path fill="#6F4975" d="M578.85 493.95c-1.511 0-2.984-.508-4.357-1.546-6.122-4.591-8.429-18.452-5.143-30.878 2.013-7.615 5.774-13.31 10.049-15.207 2.553-1.127 5.117-.861 7.394.882 6.123 4.569 8.431 18.409 5.145 30.858-2.013 7.637-5.775 13.332-10.05 15.229-1.015.442-2.031.662-3.038.662Zm-8.292-31.938c-3.121 11.786-1.053 24.853 4.612 29.113 1.912 1.434 4.092 1.655 6.279.729 3.916-1.743 7.386-7.086 9.281-14.259 3.12-11.809 1.061-24.876-4.604-29.113-1.921-1.434-4.081-1.678-6.287-.728-3.918 1.742-7.388 7.063-9.281 14.258Z"/><path fill="#fff" d="M536.424 453.446c-2.282 12.09 1.368 25.07 8.153 28.993 6.785 3.922 14.137-2.698 16.42-14.788 2.284-12.09-1.364-25.07-8.151-28.993-6.786-3.922-14.137 2.698-16.422 14.788ZM569.078 462.54c-2.29 12.145.759 25.315 6.808 29.416 6.049 4.101 12.81-2.42 15.1-14.566 2.289-12.145-.759-25.316-6.808-29.416-6.051-4.1-12.811 2.421-15.1 14.566Z" opacity=".3"/><path fill="#6F4975" d="M549.372 483.951c-1.529 0-3.057-.419-4.539-1.28-7.487-4.216-11.54-18.165-9.043-31.1 1.437-7.505 4.768-13.288 9.132-15.848 3.049-1.766 6.234-1.788 9.245-.089 7.477 4.237 11.533 18.188 9.042 31.099-1.445 7.526-4.786 13.31-9.16 15.871-1.539.883-3.112 1.347-4.677 1.347Zm.266-48.052c-1.402 0-2.801.397-4.156 1.193-3.963 2.339-7.13 7.879-8.467 14.832-2.36 12.251 1.383 25.427 8.348 29.378 2.644 1.456 5.463 1.434 8.126-.066 3.972-2.318 7.149-7.88 8.493-14.855 2.353-12.249-1.389-25.426-8.345-29.377-1.309-.73-2.656-1.105-3.999-1.105Z"/><path fill="#6F4975" d="M570.422 467.065c-.265 0-.531-.11-.751-.331-.128-.132-3.193-3.023-8.484-1.809-.622.11-1.262-.354-1.391-1.127-.128-.772.293-1.523.934-1.655 6.389-1.611 10.278 2.229 10.452 2.384.495.508.567 1.413.146 2.008-.229.353-.567.53-.906.53Z"/><path fill="#2F1A31" d="M422.847 581.214c-1.462 5.12 9.564 14.7 24.628 21.401 15.065 6.702 28.462 7.985 29.925 2.867 1.463-5.12-9.565-14.7-24.629-21.403-15.063-6.701-28.462-7.984-29.924-2.865Z"/><path fill="#F7B686" d="m526.257 758.304.503-37.153c.069-5.076-3.17-9.332-7.37-9.696-21.358-1.842-36.308-9.83-44.499-23.797-11.374-19.396-10.174-49.52-7.005-70.412 1.622-10.69-1.304-17.84-12.014-24.693 0 0-9.213-6.113-20.573-8.445-4.552-.935-9.068 1.271-10.244 6.654a269.065 269.065 0 0 0-5.351 36.959c-2.695 36.637 3.164 68.502 16.947 92.159 16.914 29.033 44.181 45.096 81.125 47.826 4.538.335 8.406-3.924 8.481-9.402Z"/><path fill="#E08B65" d="M447.719 710.198c-.821 0-1.686-.162-2.578-.489-2.376-.87-4.675-2.833-6.474-5.528-3.805-5.7-4.17-12.99-.812-16.251 3.359-3.26 9.187-1.277 12.993 4.422 3.805 5.697 4.169 12.989.811 16.249a5.519 5.519 0 0 1-3.94 1.597Zm-5.935-21.353c-1.004 0-1.914.33-2.633 1.027-2.428 2.36-1.913 8.198 1.125 12.748 1.542 2.307 3.482 3.981 5.466 4.708 1.843.675 3.484.439 4.621-.666 2.429-2.357 1.914-8.194-1.124-12.746-2.141-3.206-5.063-5.071-7.455-5.071Z" opacity=".5"/><path fill="#6F4975" d="M492.893 852.43s117.377-27.038 155.435-14.285l-18.249 32.615-67.845 4.628-69.341-22.958Z"/><path fill="#2F1A31" d="m540.289 715.014 101.179.047c2.118 0 3.999-1.624 4.668-4.03l21.051-75.709c1.061-3.813-1.308-7.75-4.665-7.751l-97.3-.046c-4.434-.001-8.371 3.396-9.772 8.436l-19.825 71.303c-1.06 3.812 1.308 7.749 4.664 7.75Z"/><path fill="#2F1A31" d="m546.641 715.017 101.178.046c2.119.001 4-1.622 4.67-4.029l21.05-75.71c1.059-3.813-1.31-7.75-4.667-7.751l-97.298-.046c-4.434-.002-8.371 3.397-9.773 8.436l-19.824 71.303c-1.062 3.813 1.307 7.749 4.664 7.751Z"/><path fill="#DEEBE9" d="M617.55 668.821c.001-2.875-2.748-4.048-5.149-4.048-2.402-.002-6.321 3.153-6.299 7.18.026 4.347 2.844 4.914 5.244 4.915 2.401 0 6.202-4.386 6.204-8.047Z"/><path fill="#436E8E" d="m553.851 665.802-.634-.205c.204-.926 5.042-22.766 8.298-29.828 3.304-7.161 7.343-8.568 7.514-8.623l.176.763c-.041.012-3.956 1.398-7.115 8.246-3.218 6.974-8.188 29.419-8.239 29.647ZM543.631 702.563l-.623-.251 7.895-28.394.622.251-7.894 28.394Z"/><path fill="#F7B686" d="M672.891 687.975s1.675 15.893-9.476 17.403c-14.208 1.921-33.683-13.419-24.696-14.798 7.966-1.223 19.675.571 19.675.571s-29.73-5.098-26.964-12.724c2.767-7.625 28.294-2.792 28.294-2.792s-28.654-8.495-24.221-14.54 27.629-1.845 27.629-1.845-28.309-6.355-23.03-13.216c5.28-6.86 19.482.262 25.995 1.513 6.154 1.181 7.662 6.694 6.512 14.292 0 0 2.262 8.541.54 13.225-.66 1.797.55 3.938.547 5.354-.005 2.71-.805 7.557-.805 7.557ZM511.551 709.098s7.5-27.374 20.344-34.077c12.843-6.703 33.451-3.555 26.222 2.639-7.229 6.192-18.28 11.028-18.28 11.028s24.013-8.993 23.324-1.311c-.688 7.683-21.634 15.263-21.634 15.263s29.28-7.958 26.683-.952c-2.599 7.003-24.877 12.857-24.877 12.857s27.487-6.09 24.31 1.96c-3.176 8.051-22.741 4.856-23.43 12.537-.687 7.683-5.573 37.919-23.516 38.221l-9.146-58.165Z"/><path fill="#DD8964" d="m531.275 695.051-.933-.534c1.976-5.013 9.112-6.388 9.414-6.444l.157 1.233c-.067.013-6.897 1.33-8.638 5.745ZM531.161 710.289l-.827-.745c3.898-6.286 10.83-7.474 11.124-7.521l.138 1.233c-.069.011-6.802 1.175-10.435 7.033ZM533.692 721.599l-.967-.438c1.731-5.559 10.171-7.165 10.529-7.232l.156 1.232c-.081.015-8.199 1.562-9.718 6.438ZM661.786 706.255c-4.286 0-9.083-1.424-9.39-1.516l.252-1.208c3.051.919 11.541 2.731 14.143.125l.66.958c-1.231 1.233-3.375 1.641-5.665 1.641Z"/><path fill="#CFD3A3" d="m1875.92 1314.75-302.72.84-344.62 10.35-.9 31.29 333.34-17.46c33.5 1.39 59.63 38.39 58.37 82.65-1.27 44.25-29.45 78.99-62.95 77.6l-332.45-13.83-.66 23.12 647.98 34.45c43.48 1.81 80.07-50.8 81.71-108.24 1.64-57.44-33.62-118.96-77.1-120.77Z"/><path fill="#CFD3A3" d="M1648.96 1422.88c1.64-57.45-32.28-105.48-75.76-107.29l-344.62 10.35-.9 31.3 333.34-17.47c33.5 1.39 59.63 38.39 58.37 82.65-1.27 44.25-29.45 78.99-62.95 77.6l-332.45-13.83-.66 37.47 343.92-.05c43.48 1.81 80.07-43.29 81.71-100.73Z"/><path fill="#E6EDFF" d="m1561.02 1339.85-333.34 17.39c30.07 5.84 39.12 42.69 43.27 62.36 8.43 39.87-16.61 62.8-46.95 66.13l-.01.55 332.44 13.82c33.5 1.4 61.69-33.35 62.95-77.6 1.27-44.25-24.86-81.25-58.36-82.65Z"/><path fill="#2F1A31" d="m1354.41 1437.96-.04 2.19 199.42 5.58.04-2.19-199.42-5.58Z"/><path fill="#B7B784" d="M1627.85 1487.35c-.96 0-1.9-.49-2.47-1.39-.91-1.42-.54-3.36.82-4.31.22-.15 21.73-15.72 25.23-59.31 3.47-43.31-25.55-59.97-25.84-60.13-1.46-.81-2.01-2.69-1.24-4.21.78-1.52 2.58-2.08 4.03-1.29 1.34.75 32.77 18.79 28.98 66.15-3.76 46.82-26.89 63.3-27.87 63.98-.51.35-1.08.51-1.64.51Z"/><path fill="#2F1A31" d="m1477.17 1414.57-148.63 2.79.03 2.19 148.63-2.8-.03-2.18Z"/><path fill="#B7B784" d="M1715.88 1479.71c-.03 0-.06-.01-.1-.01l-53.33-2.21c-1.05-.05-2-.75-2.51-1.86-.5-1.1-.49-2.45.04-3.54.09-.19 9.32-19.4 14.69-45.24 5.18-24.87-8.86-50.78-9-51.04a4.184 4.184 0 0 1-.12-3.73c.54-1.18 1.48-1.77 2.7-1.84l50.61 2.1c.93.04 1.8.61 2.33 1.54 31.62 54.6-2.69 104.08-3.04 104.57-.57.8-1.4 1.26-2.27 1.26Zm-48.44-9.2 47.06 1.96c5.01-7.81 27.84-47.8 2.64-93.02l-43.73-1.81c4.23 9.74 11.34 30.29 7.04 50.96-3.96 19.03-9.8 34.31-13.01 41.91Z"/><path fill="#436E8E" d="m1226.93 1518.99 304.24.39 344.1 25.12-.03 31.31-332.62-31.74c-33.52-.04-60.72 35.81-60.76 80.09-.04 44.28 27.1 80.21 60.62 80.26l332.64.42-.02 23.13-648.36-.83c-43.51-.06-78.74-46.7-78.69-104.18.05-57.47 35.37-104.02 78.88-103.97Z"/><path fill="#436E8E" d="M1452.29 1623.35c.05-57.47 35.37-104.02 78.88-103.97l344.1 25.11-.03 31.32-332.62-31.74c-33.51-.05-60.72 35.81-60.76 80.09-.04 44.28 27.1 80.21 60.62 80.26l332.64.42-.02 23.13-344.12-.44c-43.51-.06-78.74-46.7-78.69-104.18Z"/><path fill="#E6EDFF" d="m1542.62 1544.15 332.62 31.66c-30.22 4.55-40.35 40.99-45.09 60.46-9.59 39.49 14.76 63.48 44.98 68.11l-.01.55-332.64-.43c-33.52-.04-60.66-35.97-60.62-80.25.04-44.28 27.24-80.14 60.76-80.1Z"/><path fill="#2F1A31" d="M1559.89 1654.2v2.18l268.49.36v-2.19l-268.49-.35ZM1624.36 1622.51l-.09 2.18 205.9 12.71.09-2.19-205.9-12.7Z"/><path fill="#E28569" d="m1218.92 1118.47 309.91-7.51 350.95 16.64.53 31.89-339.37-23.69c-34.14.83-61.21 38.07-60.46 83.17s29.04 81 63.18 80.17l338.84-8.21.4 23.56-660.44 16c-44.33 1.07-81.05-45.52-82.02-104.07-.98-58.54 34.16-106.88 78.48-107.95Z"/><path fill="#E28569" d="M1450.35 1218.92c-.98-58.55 34.16-106.88 78.48-107.96l350.95 16.64.54 31.89-339.38-23.69c-34.14.83-61.21 38.07-60.46 83.17s29.04 81 63.19 80.17l338.84-8.21.39 23.56-350.53 8.49c-44.32 1.07-81.05-45.52-82.02-104.06Z"/><path fill="#E6EDFF" d="m1540.94 1135.89 339.37 23.6c-30.7 5.42-40.37 42.8-44.84 62.76-9.07 40.48 16.17 64.28 47.03 68.21v.56l-338.84 8.21c-34.14.83-62.43-35.07-63.18-80.17-.75-45.11 26.32-82.34 60.46-83.17Z"/><path fill="#2F1A31" d="m1833.88 1241.05-273.49 6.36.03 2.23 273.5-6.36-.04-2.23Z"/><path fill="#D3715B" d="M1458.33 1287.43c-.52 0-1.05-.18-1.52-.57-.88-.72-21.69-18.35-24.52-67.43-2.86-49.65 25.91-68.04 27.14-68.8 1.33-.83 2.96-.19 3.64 1.41.68 1.6.16 3.56-1.17 4.39-1.1.69-26.82 17.33-24.21 62.54 2.65 45.96 21.97 62.34 22.17 62.5 1.23 1.02 1.55 3.05.71 4.54-.53.92-1.37 1.42-2.24 1.42Z"/><path fill="#2F1A31" d="m1625.52 1213.41-.05 2.23 209.96 7.57.06-2.22-209.97-7.58Z"/><path fill="#D3715B" d="M1387.68 1269.77c-7.32 0-13.96-4.78-17.38-12.58-6.11-13.91-14.36-41.86-.98-72.63 3.24-7.44 9.71-12.16 16.89-12.34l10.93-.26c6.09-.14 11.82 3.03 15.68 8.73 3.83 5.65 5.27 12.96 3.95 20.06-1.46 7.87-1.54 15.23-.24 21.89 1 5.12 2.25 10.36 3.71 15.56 2.01 7.19 1.09 14.89-2.54 21.11-3.66 6.28-9.4 9.97-15.76 10.12l-13.85.34h-.41Zm-1.36-91.02c-5.21.12-9.89 3.51-12.21 8.84-12.23 28.12-4.64 53.77.97 66.55 2.53 5.75 7.5 9.26 12.9 9.1l13.85-.33c4.62-.11 8.79-2.79 11.44-7.35 2.63-4.5 3.3-10.07 1.84-15.27-1.51-5.4-2.81-10.83-3.85-16.15-1.49-7.63-1.41-15.98.23-24.82.95-5.13-.09-10.41-2.86-14.5-2.8-4.13-6.99-6.46-11.38-6.34l-10.93.27Z"/><path fill="#E28569" d="m967.677 1396.28-284.869-10.31-322.848 9.08-.813 26.35 312.274-15.07c31.386 1.14 55.898 32.26 54.75 69.52-1.149 37.26-27.525 66.54-58.909 65.4l-311.464-11.28-.599 19.46 607.077 21.99c40.744 1.47 74.974-36.54 76.464-84.9 1.5-48.36-30.32-88.76-71.063-90.24Z"/><path fill="#E28569" d="M753.875 1476.2c1.49-48.36-30.327-88.76-71.067-90.23l-322.848 9.08-.813 26.35 312.274-15.07c31.386 1.14 55.898 32.26 54.75 69.52-1.149 37.26-27.525 66.54-58.909 65.4l-311.464-11.28-.599 19.46 322.207 11.67c40.741 1.47 74.976-36.53 76.469-84.9Z"/><path fill="#E6EDFF" d="m671.419 1406.41-312.272 14.99c28.175 4.89 36.684 35.9 40.592 52.45 7.926 33.56-15.515 52.9-43.93 55.73l-.014.46 311.462 11.28c31.386 1.14 57.76-28.14 58.908-65.4 1.15-37.26-23.361-68.38-54.746-69.51Z"/><path fill="#2F1A31" d="m400.9 1489.22-.048 1.94 251.384 9.1.049-1.94-251.385-9.1ZM592.865 1469.39l-193.121 3.54.025 1.94 193.12-3.54-.024-1.94Z"/><path fill="#6F4975" d="M356.03 1551.19h256.135l289.707 20.77v26.36l-280.046-26.36c-28.219 0-51.096 30.22-51.096 67.49 0 37.28 22.877 67.5 51.096 67.5h280.046v19.47H356.03c-36.632 0-66.327-39.23-66.327-87.62 0-48.38 29.695-87.61 66.327-87.61Z"/><path fill="#6F4975" d="M545.838 1638.8c0-48.38 29.695-87.61 66.327-87.61l297.171 18.31-7.464 28.82-280.046-26.36c-28.219 0-51.096 30.22-51.096 67.49 0 37.28 22.877 67.5 51.096 67.5h280.046v19.47H612.165c-36.632 0-66.327-39.23-66.327-87.62Z"/><path fill="#E6EDFF" d="m621.824 1572.03 280.047 26.29c-25.441 3.86-33.941 34.55-37.91 50.95-8.048 33.25 12.469 53.43 37.91 57.29v.46H621.824c-28.218 0-51.095-30.22-51.095-67.5 0-37.27 22.877-67.49 51.095-67.49Z"/><path fill="#2F1A31" d="M862.432 1664.62H636.395v1.84h226.037v-1.84Z"/><path fill="#5F3B66" d="M420.561 1692.82c-.729-.63-17.857-15.77-19.538-56.82-1.701-41.53 22.587-56.31 23.622-56.92l1.982 4.9-.99-2.45.994 2.45c-.925.55-22.645 13.93-21.095 51.75 1.575 38.44 17.484 52.51 17.644 52.65l-2.619 4.44Z"/><path fill="#2F1A31" d="m690.586 1637.93-.076 1.84 173.342 10.47.076-1.84-173.342-10.47Z"/><path fill="#5F3B66" d="M351.278 1585.13h13.779c12.064 0 20.797 13.73 17.821 27.82-1.745 8.26-2.516 17.63-.841 27.04 1.224 6.88 2.71 13.31 4.252 19.09 3.811 14.29-5.125 28.89-17.569 28.89h-17.183c-6.889 0-13.218-4.63-16.365-12.02-6.835-16.05-15.07-46.32-.094-79.19 3.253-7.14 9.443-11.63 16.2-11.63Z"/><path fill="#6F4975" d="m1865.99 1129.15-824.11-10.19c-17.64-.22-31.84-15.68-31.84-34.68V542.49c0-18.952 14.12-34.396 31.72-34.686l813.48-13.418c17.72-.293 32.33 14.896 32.69 33.984l10.63 565.39c.37 19.58-14.38 35.61-32.57 35.39Z"/><path fill="#E7F2F0" d="M1866.3 555.526v509.564c0 10.85-7.29 19.64-16.29 19.64h-791.74c-9 0-16.29-8.79-16.29-19.64V555.526c0-10.846 7.29-19.64 16.29-19.64h791.74c9 0 16.29 8.794 16.29 19.64Z"/><path fill="#2F1A31" d="M1866.3 1022.01v16.12c0 9.94-6.68 18-14.92 18h-474.14c-1.05-.32-2.08-.71-3.09-1.15 33.74-39.53 98.69-101.557 187.46-122.495a260.845 260.845 0 0 1 38.18-6.189c.33-.035.67-.071 1-.093 18.87-1.58 37.74-.755 56.33 1.603 3.77.476 7.52 1.01 11.26 1.602 5.54.883 10.94 1.823 16.23 2.845 88.8 17.06 145.59 53.093 181.69 89.757Z"/><path fill="#F7B686" d="M1660.82 954.623c10.06-18.648-4.39-20.263-8.96-39.112l-14.14-58.325-4.12-16.98-24.2-99.838-4.67 98.755-2.8 59.277-.88 18.762c-.6 12.737-3.51 14.488-11.49 25.413-3.24 4.426-15.32 22.328.13 31.322 13.86 8.071 58.32 4.5 71.13-19.274Z"/><path fill="#2F1A31" d="M1656.17 834.736s80.63-33.936 68.6-106.275c-12.03-72.339-73.52 65.454-73.52 65.454l-3.24 37.835 8.16 2.986ZM1637.99 855.583c-.08.537-.16 1.072-.27 1.605-5.41 31.216-35.63 41.415-35.63 41.415l-.15-.201 2.8-59.277c9.16-2.392 22.04-4.302 28.87 1.083 3.57 2.816 5.49 7.616 4.38 15.375Z"/><path fill="#F7B686" d="M1531.86 755.343c6.26-57.488 43.38-99.017 82.92-92.757 39.53 6.26 66.51 57.937 60.25 115.423-6.26 57.489-43.38 99.017-82.92 92.757-39.53-6.26-66.51-57.936-60.25-115.423Z"/><path fill="#2F1A31" d="M1665.87 764.205s-23.8 5.796-33.9-15.584c-10.1-21.379-16.05-39.678-57.33-37.81-41.28 1.869-74.75-27.342-73-53.855 1.74-26.513 24.34-35.218 45.07-22.542 20.74 12.677.3-15.165 24.01-31.097 23.71-15.932 51.78 29.124 74.74 27.343 22.97-1.78 92.77 23.871 79.31 97.8l-58.9 35.745Z"/><path fill="#F7B686" d="M1674.87 785.4c-7.32 5.616-16.62 3.775-20.79-4.113-4.16-7.888-1.6-18.834 5.72-24.451 7.32-5.615 16.63-3.773 20.79 4.114 4.16 7.889 1.6 18.834-5.72 24.45Z"/><path fill="#fff" d="M1555.35 671.235c-7.35 0-12.85-1.724-16.44-5.157-6.26-5.988-6.67-11.327-4.98-14.325 2.01-3.554 7.53-4.817 13.31-.779 9.88 6.915 17.13 5.796 17.2 5.786l.14 1.175c-.31.053-7.63 1.204-17.84-5.934-5.27-3.69-10.24-2.683-12 .421-1.44 2.558-.95 7.243 4.78 12.726 11.85 11.344 43.73-.668 44.05-.791l.3 1.131c-.09.03-8.23 3.123-17.76 4.744-3.94.668-7.53 1.003-10.76 1.003ZM1686.4 653.579c-8.45-7.199-18.79-6.483-30.77-5.653-6.07.421-12.34.856-19.18.403-20.58-1.36-37.66-24.878-38.26-27.263l.94-.346c.42 1.47 16.72 25.057 37.37 26.423 6.79.451 13.04.015 19.08-.403 12.16-.844 22.66-1.573 31.39 5.868l-.57.971ZM1710.24 714.967c-.04 0-.08-.001-.12-.005-3.09-.239-7.98-11.302-8.14-16.924-.08-2.877 1.1-3.499 1.81-3.612 5.78-.937 8.54 16.029 8.65 16.75l.02.104-.01.105c-.4 2.927-1.4 3.582-2.21 3.582Zm-6-19.389c-.11 0-.21.008-.32.025-.25.039-1.02.163-.96 2.396.15 5.274 4.88 15.596 7.23 15.778.7.055 1.1-1.292 1.27-2.483-.74-4.558-3.39-15.716-7.22-15.716Z"/><path fill="#060633" d="M1589.88 762.276c-.38-.286-.64-.774-.68-1.347-.06-.971.53-1.823 1.34-1.904.47-.049 11.37-2.399 16.87 11.578.34.882.06 1.934-.66 2.368-.73.435-1.45-.033-1.97-.793-5.09-7.587-13.61-9.671-14-9.635-.33.033-.64-.07-.9-.267ZM1596.22 784.917c-.92 4.063-3.64 6.705-6.09 5.9-2.44-.803-3.68-4.75-2.76-8.813.92-4.064 3.65-6.705 6.09-5.901 2.45.805 3.68 4.751 2.76 8.814ZM1535.73 757.035c-.34-.071-.63-.38-.79-.881-.26-.843 0-1.91.57-2.386.34-.279 7.85-7.847 14.92 2.045.45.623.47 1.713.03 2.467-.44.754-1.07.696-1.61.264-5.4-4.313-12.12-1.947-12.4-1.716-.23.193-.48.257-.72.207ZM1549.08 775.124c.43 4.179-1.26 7.873-3.77 8.251-2.51.38-4.9-2.699-5.34-6.877-.43-4.182 1.26-7.875 3.77-8.255 2.51-.378 4.9 2.702 5.34 6.881Z"/><path fill="#020202" d="M1587.7 840.539c-12.99 0-23.14-9.57-23.29-9.711-.44-.424-.51-1.198-.16-1.729.35-.532.99-.619 1.44-.197.81.783 20.14 18.951 39.27 2.24.46-.401 1.1-.274 1.43.275.33.552.23 1.322-.23 1.72-6.29 5.496-12.66 7.402-18.46 7.402Z"/><path fill="#020202" d="M1607.02 838.221a.813.813 0 0 1-.11-.007c-.56-.07-.97-.675-.91-1.352.15-1.779-.23-4.831-2.9-9.274-.1-.165-.17-.281-.2-.339-.3-.577-.15-1.337.33-1.698.47-.358 1.1-.187 1.4.386.02.04.06.11.12.204 2.45 4.074 3.56 7.766 3.28 10.974-.05.634-.5 1.106-1.01 1.106Z"/><path fill="#fff" d="M1529.3 827.36c-3.68 0-7.3-1.291-10.7-3.856-9.28-6.983-15.79-22.561-17.43-41.672-2.67-31.099 8.37-62.235 24.62-69.409 6.01-2.658 12.13-1.856 17.67 2.321 9.27 6.984 15.79 22.562 17.43 41.673 2.67 31.098-8.37 62.235-24.62 69.408-2.32 1.026-4.66 1.535-6.97 1.535Zm3.44-112.798c-1.96 0-3.94.432-5.91 1.301-15.02 6.631-25.18 36.056-22.64 65.593 1.54 17.994 7.53 32.553 16.01 38.941 4.72 3.557 9.92 4.244 15.03 1.989 15.02-6.633 25.18-36.057 22.64-65.592-1.55-17.996-7.53-32.554-16.02-38.944-2.9-2.186-5.98-3.288-9.11-3.288Z"/><path fill="#fff" d="M1641.45 756.836c.46 29.724-13.38 58.039-30.89 63.243-17.52 5.202-32.09-14.674-32.55-44.399-.45-29.725 13.38-58.039 30.9-63.242 17.52-5.203 32.09 14.674 32.54 44.398ZM1561.12 758.918c.44 29.858-12.06 58.97-27.92 65.027-15.86 6.056-29.08-13.239-29.53-43.097-.45-29.859 12.05-58.971 27.92-65.028 15.86-6.055 29.08 13.242 29.53 43.098Z" opacity=".3"/><path fill="#fff" d="M1603.69 821.389c-5.53 0-10.78-2.207-15.44-6.542-9.22-8.583-14.71-24.114-15.07-42.608-.6-31.797 14.58-62.16 33.85-67.681 7.78-2.231 15.26-.275 21.62 5.647 9.22 8.583 14.71 24.112 15.07 42.606.6 31.798-14.58 62.16-33.85 67.682-2.09.599-4.15.896-6.18.896Zm9.49-114.056c-1.79 0-3.61.261-5.45.788-17.95 5.145-32.08 33.87-31.51 64.035.33 17.128 5.52 32.003 13.88 39.791 5.62 5.226 12.21 6.948 19.07 4.984 17.95-5.145 32.08-33.871 31.51-64.036-.33-17.128-5.52-32.003-13.88-39.791-4.11-3.824-8.75-5.771-13.62-5.771Z"/><path fill="#fff" d="M1579.77 769.465c-.37 0-.75-.087-1.11-.27-12.03-6.138-20.54-.84-20.63-.785-1.38.884-3.1.252-3.83-1.416-.74-1.669-.21-3.74 1.17-4.626.45-.282 11.02-6.865 25.5.526 1.44.735 2.12 2.742 1.51 4.481-.46 1.305-1.51 2.09-2.61 2.09Z"/><path fill="#2F1A31" d="m1725.13 729.323-.72-1.721c11.65-7.067 8.67-22.541 8.64-22.695l1.55-.458c.04.171 3.3 17.125-9.47 24.874ZM1733.55 749.927c-.06-.118-6.3-11.645-13.08-13.463l.34-1.882c7.43 1.991 13.82 13.799 14.09 14.298l-1.35 1.047Z"/><path fill="#96A7E2" d="M1397.41 828.014h-221.67c-6.37 0-11.57-6.275-11.57-13.946V659.729c0-7.671 5.2-13.946 11.57-13.946h221.67c6.36 0 11.57 6.274 11.57 13.946v154.339c0 7.67-5.21 13.946-11.57 13.946Z" opacity=".5"/><path fill="#96A7E2" d="M1348.26 777.848h-221.68c-6.36 0-11.56-6.276-11.56-13.946V609.565c0-7.672 5.2-13.948 11.56-13.948h221.68c6.36 0 11.56 6.275 11.56 13.948v154.337c0 7.67-5.2 13.946-11.56 13.946Z"/><path fill="#EAA97D" d="M1346.12 995.438c-.01.049-.01.099-.02.152-.55 4.61-1.07 9.96-1.54 15.95l-.01.01c-.96 12.08-1.71 26.74-1.93 43.08h-123.5c.71-44.86 4.38-75.527 4.62-77.465v-.013l10.14 1.533 49.12 7.401 1.92.29 2.4.356 55.1 8.16 3.69.546h.01Z"/><path fill="#EAA97D" d="M1223.48 977.129s1.68-94.992 13.83-111.059c12.15-16.067 104.19-3.63 111.06 19.276 6.86 22.904-2.26 110.096-2.26 110.096l-122.63-18.313Z"/><path fill="#E08B65" d="M1277.54 1023.62c-.62 0-1.14-.59-1.17-1.34-.02-.41-.39-10.15 1.17-20.74 2.14-14.587 6.74-23.245 13.68-25.737 25.66-9.221 39.91-27.448 40.05-27.631.44-.572 1.18-.605 1.66-.073.47.531.5 1.425.06 1.997-.59.77-14.83 18.977-41.11 28.416-14.56 5.234-13.19 43.238-13.17 43.628.03.78-.47 1.44-1.11 1.48h-.06Z"/><path fill="#EAA97D" d="M1350.81 906.879s3.78-147.095-8.82-149.617c-18.42-3.691-25.74 57.262-28.9 101.547-3.15 44.286 37.72 48.07 37.72 48.07Z"/><path fill="#F7B686" d="M1306.26 824.213c6.66 1.373 13.34-1.089 16.46 43.824 1.57 22.463 2.85 93.171-14.72 89.609-17.58-3.564-23.59-83.703-23.59-83.703s.36 91.885-14.98 82.295c-15.34-9.591-21.19-82.293-21.19-82.293s4.59 89.501-12.98 77.869c-17.57-11.634-22.94-59.302-21.46-79.759 1.84-25.568 17.36-27.061 33.86-28.36 0 0 16.32-12.198 27.13-9.943 4.14.867 18.42-12.228 31.47-9.539Z"/><path fill="#EAA97D" d="M1344.55 1011.55s17.41-17.246 28.97-50.812c11.55-33.567 37.3-66.513 29.94-79.818-7.35-13.305-44.13 16.382-56.21 46.207-12.09 29.822-2.7 84.423-2.7 84.423Z"/><path fill="#96A7E2" d="M1866.3 1035.89v29.2c0 10.85-7.29 19.64-16.29 19.64h-791.74c-9 0-16.29-8.79-16.29-19.64v-19.48c95.95-1.75 637.12-7.68 824.32-9.72Z"/><path fill="#E7F2F0" d="m1806.31 1056.59-712.53 4.73.03 7.6 712.54-4.73-.04-7.6Z"/><path fill="#E28569" d="m1451.68 1058.91-.86 7.6-357.02 2.41-.03-7.61 357.91-2.4Z"/><path fill="#E28569" d="M1439.43 1062.71c0-7.07 4.76-12.8 10.62-12.8 5.86 0 10.62 5.73 10.62 12.8s-4.76 12.8-10.62 12.8c-5.86 0-10.62-5.73-10.62-12.8Z"/><path fill="#CED891" d="M1758.2 570.678c0-5.23 3.51-9.472 7.85-9.472s7.85 4.24 7.85 9.472c0 5.231-3.51 9.472-7.85 9.472s-7.85-4.241-7.85-9.472Z"/><path fill="#6F4975" d="M1786.59 570.678c0-5.23 3.52-9.472 7.86-9.472 4.33 0 7.85 4.24 7.85 9.472 0 5.231-3.52 9.472-7.85 9.472-4.34 0-7.86-4.241-7.86-9.472Z"/><path fill="#E28569" d="M1815.69 570.678c0-5.23 3.52-9.472 7.86-9.472s7.85 4.24 7.85 9.472c0 5.231-3.51 9.472-7.85 9.472-4.34.001-7.86-4.241-7.86-9.472ZM1248.09 717l8.09-22.975c1.12-3.174 4.4-4.27 6.71-2.246l10.82 9.456c2.46 2.158 5.96.755 6.86-2.754l6.23-24.186c.75-2.902 3.34-4.477 5.72-3.475l5.96 2.512c1.84.776 3.88.018 5.04-1.871l.95-1.544c2.55-4.158 8.03-1.981 8.03 3.193v45.99c0 2.963-1.99 5.366-4.45 5.366h-55.87c-3.19 0-5.34-3.927-4.09-7.466Z"/><path fill="#DEEBE9" d="M1316.02 739.622h-.14l-166.56-3.295c-4.37-.086-7.89-4.116-8.2-9.374l-3.38-58.34c-.16-2.781.61-5.447 2.17-7.505s3.7-3.219 6.01-3.273l169.94-3.878c2.25-.059 4.4.973 6.01 2.884 1.62 1.91 2.51 4.465 2.51 7.191v65.513c0 2.724-.89 5.274-2.5 7.184-1.58 1.87-3.65 2.893-5.86 2.893Zm0-83.712-.13.001-169.94 3.879c-1.86.041-3.58.979-4.84 2.638-1.26 1.658-1.88 3.807-1.75 6.049l3.38 58.34c.24 4.238 3.08 7.485 6.61 7.555l166.56 3.295c1.83.055 3.54-.791 4.83-2.33 1.3-1.539 2.02-3.598 2.02-5.791v-65.514c0-2.199-.72-4.257-2.02-5.797-1.27-1.503-2.94-2.325-4.72-2.325Z"/><path fill="#DEEBE9" d="M1220.4 702.54h-60.2c-1.32 0-3.36-1.665-3.54-3.249-.36-3.248 2.21-4.177 3.54-4.177l60.2 1.617c1.32 0 2.41 1.307 2.41 2.905 0 1.597-1.09 2.904-2.41 2.904ZM1204.76 688.902h-45.43c-1 0-2.54-1.337-2.68-2.61-.27-2.61 1.67-3.356 2.67-3.356l45.44 1.298c1 0 1.82 1.049 1.82 2.333 0 1.285-.82 2.335-1.82 2.335ZM1204.76 716.283h-45.43c-1 0-2.54-1.338-2.68-2.611-.27-2.609 1.67-3.356 2.67-3.356l45.44 1.298c1 0 1.82 1.05 1.82 2.334 0 1.282-.82 2.335-1.82 2.335ZM1204.18 623.749h-60.19c-1.33 0-3.37-1.664-3.54-3.248-.36-3.249 2.21-4.177 3.53-4.177l60.2 1.616c1.33 0 2.41 1.306 2.41 2.904 0 1.597-1.08 2.905-2.41 2.905ZM1188.54 637.487h-45.43c-1 0-2.54-1.336-2.67-2.608-.27-2.611 1.67-3.357 2.67-3.357l45.43 1.298c1.01 0 1.82 1.05 1.82 2.333 0 1.283-.82 2.334-1.82 2.334Z"/><path fill="#F7B686" d="M1315.6 1482.95c4.28 9.2 47.28 89.53 38.28 168.08l-46.8-20.4-21.39-105.9 29.91-41.78Z"/><path fill="#E28569" d="M1128.71 1450.03s28.75-62.19 98.75-44.99c70 17.19 108.19 138 89.21 377.29 0 0-111.2-53.31-255.79-10.33 0 0 23.8-231.74 67.83-321.97Z"/><path fill="#E28569" d="m1075.32 1424.9 49.2 59.23s126.14 41.1 161.17 40.6c35.03-.49 48.82-31.37 48.82-31.37s-29.56-56.46-89.39-82a153.28 153.28 0 0 0-17.66-6.32c-10.33-2.99-20.83-4.71-31.25-5.46-61.94-4.45-120.89 25.32-120.89 25.32Z"/><path fill="#2F1A31" d="M1075.32 1424.9c-7.87 10.31 4.26 21.57 17.85 37.93 13.58 16.35 27.62 25.89 31.35 21.3 3.72-4.59-4.27-21.57-17.85-37.92-13.59-16.36-27.74-26.04-31.35-21.31Z"/><path fill="#F7B686" d="M1117.98 1484.37s.73-11.83-11.6-26.93c-7.43-9.1-16.83-15.04-23.13-18.33-3.75-1.96-8.08.24-9.57 4.87l-3.94 12.26 18.37 14.26 29.87 13.87Z"/><path fill="#6F4975" d="M1204.92 1703.76s-151.79-99.19-206.196 9.01c-40.273 80.1 20.266 154.69 244.816 147.11 0 0 22.2-12.53 16.79-77.55-2.14-25.76-55.41-78.57-55.41-78.57Z"/><path fill="#6F4975" d="M1204.92 1703.76s202.15-99.86 242.15-37.44c45.97 71.75 1.89 193.56-211.2 150.02l-25.97-34.01-4.98-78.57Z"/><path fill="#020202" d="m1243.79 1860.3-.5-.84c23.58-20.28 17.24-72.37 16.66-76.75l-153.23-67.25.3-.96 153.69 67.45.04.29c.08.57 7.97 56.61-16.96 78.06Z"/><path fill="#2F1A31" d="M1261.62 1800.22s37.26 1.82 54.76 12.17 8.15 35.62-27.38 34.94c-35.54-.67-32.84-7.05-32.84-7.05s6.75-22.18 5.46-40.06Z"/><path fill="#F7B686" d="M1213.93 1708.51c12.34.01 22.48-3.76 30.69-11.23 15.53-14.12 18.41-36.63 16.16-51.61l-14.85-10.41c-.74-4.92-29.4 13.34-29.35 13.32-.13.05-13.68 4.78-60.64-24.16-32.7-20.15-49.18-48.75-50.38-87.42-.91-29.16 9.87-45.53 12.42-52.63.34-.94-15.8-20.45-15.34-22.44l-12.1-7.41c.39-1.67-11.63-7.39-11.46-7.87l-9.34 9.59c-4.61 12.85-14.41 42.36-13.15 83.02 1.32 42.24 15.78 100.53 77.22 138.39 33.5 20.65 59.8 30.86 80.12 30.86Z"/><path fill="#2F1A31" d="M1223.9 1710.89h130.99c2.74 0 5.18-2.11 6.04-5.22l27.23-98.04c1.37-4.93-1.7-10.03-6.05-10.03h-125.97c-5.74 0-10.84 4.4-12.65 10.93l-25.64 92.32c-1.37 4.94 1.7 10.04 6.05 10.04Z"/><path fill="#2F1A31" d="M1232.12 1710.89h130.99c2.74 0 5.18-2.11 6.04-5.22l27.23-98.04c1.37-4.93-1.7-10.03-6.05-10.03h-125.97c-5.74 0-10.84 4.4-12.65 10.93l-25.64 92.32c-1.37 4.94 1.7 10.04 6.05 10.04Z"/><path fill="#DEEBE9" d="M1323.9 1651.03c0-3.72-3.56-5.24-6.67-5.24s-8.18 4.09-8.15 9.3c.04 5.63 3.68 6.36 6.79 6.36s8.03-5.68 8.03-10.42Z"/><path fill="#2F1A31" d="M1183.92 1697.03h179.26v13.86h-182.99c-2.12 0-3.85-2.08-3.85-4.65v-.07c0-5.05 3.39-9.14 7.58-9.14Z"/><path fill="#436E8E" d="m1241.43 1647.16-.82-.26c.26-1.2 6.52-29.48 10.73-38.62 4.27-9.28 9.5-11.1 9.73-11.17l.22.98c-.05.02-5.12 1.82-9.21 10.69-4.16 9.03-10.58 38.09-10.65 38.38ZM1222.07 1697.54v-1.02c4.29 0 5.36-2.15 5.37-2.17l10.18-36.68.8.33-10.2 36.76c-.08.19-1.29 2.78-6.15 2.78Z"/><path fill="#E08B65" d="M1096.16 1623.52c-.46 0-.95-.08-1.45-.24-2.82-.91-5.92-4.32-8.09-8.89-3.32-7-3.41-14.25-.2-16.5 1-.7 2.23-.85 3.56-.41 2.82.91 5.92 4.31 8.09 8.88 3.32 7 3.41 14.25.21 16.5-.63.44-1.34.66-2.12.66Zm-8.06-10.15c1.92 4.05 4.69 7.16 7.05 7.93.9.29 1.66.22 2.27-.21 2.3-1.62 1.93-7.9-.83-13.71-1.92-4.05-4.68-7.16-7.04-7.92-.9-.29-1.67-.22-2.27.2-2.31 1.63-1.94 7.9.82 13.71Z"/><path fill="#F7B686" d="M1195.13 1399.43c8.6-.31 15.13-1.37 20.08-8.4l15.32-21.73 4.46-6.32 26.22-37.2-13.77 43.5-8.27 26.11-2.61 8.26c-1.78 5.61.57 8.22 2.22 14.79.67 2.65 5.19 19.02-6.58 19.12-14.67.13-33.22-20.43-37.3-38.18.08.01.15.05.23.05Z"/><path fill="#2F1A31" d="M1226.27 1355.34s-28.87-33.46-12.22-61.71c16.66-28.24 20.82 45.33 20.82 45.33l-4.65 17.01-3.95-.63ZM1230.68 1368.55c-.06.25-.11.5-.15.75-2.68 14.68 8.55 26.14 8.55 26.14l.09-.05 8.27-26.11c-3.51-3.17-8.68-7.01-12.45-6.3-1.97.37-3.55 1.98-4.31 5.57Z"/><path fill="#F7B686" d="M1291.81 1350.37c6.51-26.15-2.66-52.68-20.47-59.25-17.81-6.58-37.53 9.29-44.04 35.44-6.51 26.15 2.65 52.68 20.46 59.26 17.82 6.58 37.53-9.29 44.05-35.45Z"/><path fill="#2F1A31" d="M1233.4 1322.78s9.2 8.07 16.9 1.25c7.71-6.81 13.16-13.27 30.42-2.8 17.26 10.48 36.15 5.77 39.64-6.02 3.49-11.8-4.73-20.83-15.57-20.24-10.85.58 2.29-6.58-5.25-18.98s-26.67.37-36.15-5.77c-9.48-6.15-43.26-11.49-49.34 23.41l19.35 29.15Z"/><path fill="#F7B686" d="M1226.19 1329.77c2.21 4.13 6.46 5.52 9.49 3.11 3.03-2.41 3.69-7.72 1.47-11.84-2.21-4.13-6.47-5.52-9.5-3.11-3.02 2.42-3.68 7.72-1.46 11.84Z"/><path fill="#fff" d="M1301.29 1311.12c-7.25 0-17.08-10.67-17.54-11.16l.85-1.13c.12.13 11.6 12.59 18.24 10.55 2.55-.78 3.99-2.24 3.76-3.8-.21-1.49-2.04-2.91-4.59-2.59-5.62.69-8.67-1.61-8.8-1.71l.69-1.28c.02.02 2.83 2.11 7.98 1.48 3.45-.43 5.65 1.66 5.97 3.83.28 1.91-.81 4.36-4.7 5.55-.59.18-1.21.26-1.86.26ZM1271.48 1281.91c-2.39 0-4.87-.43-7.22-1.54-3.01-1.42-5.62-3.09-8.14-4.69-4.89-3.13-9.13-5.82-13.72-4.74l-.24-1.49c5.04-1.19 9.45 1.62 14.55 4.88 2.49 1.59 5.07 3.23 8.01 4.62 8.77 4.14 19.04-1.85 19.68-2.5l.93 1.04c-.55.76-6.84 4.42-13.85 4.42ZM1222.81 1291.82c-.18 0-.36-.03-.51-.1-.42-.2-1.08-.8-.67-2.66l.1-.24c.7-1.22 4.36-7.21 6.89-5.3.33.25 1.01 1 .34 2.62-.84 2.03-4.21 5.68-6.15 5.68Zm.02-2.24c-.12.58-.04.76-.04.76.34.13 2.16-.91 3.89-3.07 1.23-1.53 1.33-2.32 1.29-2.44-1.12-.85-3.7 2.3-5.14 4.75Z"/><path fill="#060633" d="M1266.02 1339.76c.21-.04.4-.19.51-.42.18-.4.06-.91-.27-1.13-.19-.13-4.45-3.7-9.02 1.02-.29.29-.34.81-.1 1.17.24.35.62.32.96.12 3.38-2.07 7.34-.97 7.5-.86.13.09.28.12.42.1ZM1259.71 1347.99c-.25 1.96.48 3.74 1.65 3.96 1.17.23 2.33-1.17 2.58-3.13.26-1.96-.48-3.74-1.65-3.96-1.16-.23-2.32 1.17-2.58 3.13ZM1289.89 1350.19c.15.05.33-.01.47-.19.25-.3.31-.82.14-1.16-.1-.2-2.08-5.21-6.67-2.61-.29.16-.47.62-.41 1.05.07.42.35.55.65.49 2.98-.59 5.46 2 5.54 2.17.07.13.17.22.28.25ZM1281.32 1354.83c-.85 1.7-.72 3.68.29 4.43 1.01.75 2.52-.01 3.37-1.7.85-1.69.72-3.68-.29-4.43-1.01-.75-2.51.01-3.37 1.7Z"/><path fill="#020202" d="M1261.78 1375.67c-4.11 0-10.31-1.46-13.99-9.3-.13-.28-.05-.63.18-.79.23-.16.52-.06.65.22 5.48 11.67 16.94 8.28 17.06 8.24.26-.08.51.11.58.42.07.31-.09.62-.34.7-.05.01-1.74.51-4.14.51Z"/><path fill="#020202" d="M1246.81 1368.4c-.05 0-.1-.01-.15-.02-.25-.11-.38-.43-.3-.74.39-1.44 1.45-2.76 3.15-3.94l.08-.06c.22-.17.52-.09.66.17.15.27.09.62-.13.8-.02.01-.07.05-.14.09-1.84 1.29-2.49 2.51-2.71 3.31-.07.24-.26.39-.46.39Z"/><path fill="#2F1A31" d="m1300.95 1491.01-2 .79 7.73 28.35 2-.79-7.73-28.35Z"/><path fill="#fff" d="M1285.16 1382.86c-2.46 0-4.69-1.11-6.49-3.26-5.76-6.88-5.49-22.84.61-35.56 3.75-7.83 9.02-13 14.08-13.82 3.02-.49 5.74.6 7.88 3.15 5.76 6.89 5.49 22.84-.61 35.56-3.75 7.84-9.02 13-14.08 13.82-.47.08-.93.11-1.39.11Zm9.57-51.03c-.39 0-.78.03-1.18.1-4.63.74-9.5 5.59-13.04 12.97-5.79 12.09-6.17 27.11-.84 33.48 1.81 2.16 4.12 3.08 6.69 2.67 4.63-.75 9.5-5.6 13.04-12.97 5.79-12.1 6.16-27.12.83-33.49-1.52-1.82-3.41-2.76-5.5-2.76Z"/><path fill="#fff" d="M1244.96 1325.34c-4.94 12.66-3.57 28.06 3.05 34.39 6.62 6.34 15.98 1.22 20.92-11.44 4.94-12.65 3.57-28.05-3.05-34.39-6.62-6.34-15.99-1.22-20.92 11.44ZM1278.79 1345.06c-4.95 12.71-4.28 28.14 1.5 34.46s14.48 1.13 19.43-11.59c4.96-12.72 4.29-28.14-1.49-34.46s-14.48-1.13-19.44 11.59Z" opacity=".3"/><path fill="#fff" d="M1255.42 1363.13c-2.59 0-5.03-1.03-7.19-3.06-7.31-6.89-8.92-23.48-3.59-36.99 3.1-7.88 7.93-13.26 13.24-14.77 3.64-1.04 7.12-.12 10.07 2.65 7.31 6.88 8.92 23.47 3.59 36.98-3.11 7.88-7.94 13.27-13.24 14.78-.98.28-1.94.41-2.88.41Zm5.32-53.51c-.83 0-1.68.12-2.54.36-4.81 1.37-9.4 6.54-12.28 13.84-5.06 12.82-3.63 28.48 3.19 34.89 2.59 2.44 5.65 3.25 8.86 2.34 4.81-1.37 9.4-6.55 12.28-13.84 5.06-12.83 3.63-28.48-3.18-34.9-1.9-1.78-4.05-2.69-6.33-2.69Z"/><path fill="#fff" d="M1279.63 1350.47c-.39 0-.79-.21-1.05-.62-.12-.19-2.88-4.32-8.89-4.5-.74-.02-1.32-.76-1.3-1.64.02-.89.65-1.56 1.36-1.57 7.35.22 10.8 5.53 10.94 5.75.45.71.34 1.71-.25 2.25-.24.23-.52.33-.81.33Z"/><path fill="#F7B686" d="M761.33 1126.21s-54.118 84.32-50.44 149.5c3.678 65.19 67.779 13.09 67.779 13.09l5.52-154.36-22.859-8.23Z"/><path fill="#2F1A31" d="M687.184 1709.84s.468 19.16-10.024 25.27c-10.493 6.1-41.385 13.02-29.202 24.56 6.99 6.62 38.221-.01 47.095-.6 8.876-.58 17.42 3.54 23.692-4.06 6.9-8.36-2.131-47.1-2.131-47.1s-7.443 5.31-14.341 5.55c-9.94.34-15.089-3.62-15.089-3.62ZM590.496 1709.72s.469 19.16-10.024 25.27c-10.492 6.1-41.384 13.02-29.202 24.56 6.99 6.62 38.221-.01 47.095-.6 8.877-.58 17.42 3.53 23.692-4.06 6.899-8.36-2.132-47.11-2.132-47.11s-7.441 5.32-14.339 5.56c-9.941.34-15.09-3.62-15.09-3.62Z"/><path fill="#436E8E" d="M578.988 1678.07c7.858-125.54 9.709-210.24 42.651-264.66 36.054-59.56 132.712-101.68 169.983-104.31 60.78-4.28 89.419 6.63 89.419 6.63 45.622 114.4-25.839 129.58-78.698 132.71-1.746.1-3.499.22-5.259.35-32.003 2.43-88.905 12.23-110.442 50.58-17.053 30.37-28.889 73-33.881 182.95-.956 21.1-15.635 37.47-33.152 36.89 0 0-43.448 4.01-40.621-41.14Z"/><path fill="#436E8E" d="M665.253 1684.53c-1.035-125.88-4.276-190.15 27.056-245.93 20.13-35.84 50.401-62.9 89.975-80.41 28.242-12.5 61.462-20.17 98.732-22.8 60.779-4.28 88.091-13.14 88.091-13.14C1018.3 1468.7 838.363 1437.61 791.52 1500c-20.411 27.19-45.701 78.89-50.692 188.85-.958 21.1-15.636 37.46-33.153 36.88 0 0-42.044 4.83-42.422-41.2Z"/><path fill="#020202" d="m665.552 1560.89-.698-.04c.031-.75 3.125-75.6 13.562-101.83 13.207-33.2 51.496-67.85 91.043-82.39l.203.8c-39.377 14.48-77.487 48.95-90.618 81.95-10.375 26.08-13.461 100.76-13.492 101.51Z"/><path fill="#96A7E2" d="M925.989 1089.74s-25.857-53.3-85.463-36.94c-59.606 16.35-83.892 89.77-88.161 266.07 0 0 55.184-2.45 200.168 55.54 17.173 6.87 42.364 1.42 33.546-33.85-16.39-65.58-32.268-196.38-60.09-250.82Z"/><path fill="#96A7E2" d="m991.564 1105.31-61.312 13.89s-107.212 38.24-137.226 38.54c-30.013.3-42.434-26.17-42.434-26.17s24.207-49.55 74.942-72.92c4.764-2.21 9.758-4.17 14.993-5.84 8.788-2.81 17.719-5.27 26.659-5.39 101.206-1.4 124.378 57.89 124.378 57.89Z"/><path fill="#2F1A31" d="M991.563 1105.31c1.327 5.82-11.526 15.55-28.705 21.72-17.18 6.17-32.183 6.44-33.51.61-1.326-5.83 11.526-15.55 28.706-21.72 17.179-6.17 32.182-6.44 33.509-.61Z"/><path fill="#F7B686" d="M867.079 1047.43c-6.55.64-12.892-2.94-16.571-9.5l-11.532-20.57-3.346-5.97-19.679-35.105 8.612 39.075 5.173 23.46 1.474 6.68c1.203 5.46-1.232 11.09-5.603 13.11l-.077.03c-1.677 5.32-3.507 15.78 7.124 17.32 12.491 1.82 29.781-13.72 34.529-28.54-.035 0-.069.01-.104.01Z"/><path fill="#74A1BD" d="M852.061 961.25s-.248 6.795 4.954 19.411c7.609 18.459-9.587 30.829-15.192 26.349-.695-.55-5.147-33.895-5.147-33.895l5.239-5.585 10.146-6.28Z"/><path fill="#2F1A31" d="M838.906 1016.69c.029.23.052.45.07.67 1.23 12.95-9.16 21.51-9.16 21.51l-.079-.05-5.173-23.46c3.224-2.32 7.91-5.02 11.066-3.97 1.65.55 2.882 2.12 3.276 5.3Z"/><path fill="#F7B686" d="M784.585 990.038c-3.999-25.364 6.582-49.095 23.631-53.003 17.049-3.909 34.112 13.485 38.111 38.849 3.998 25.366-6.582 49.096-23.632 53.006-17.047 3.91-34.112-13.49-38.11-38.852Z"/><path fill="#74A1BD" d="M797.675 950.513c1.079 1.214-.055 25.955 37.133 23.276 37.188-2.679 7.011-50.785-19.961-45.847-38.946 7.133-39.632 39.777-34.138 50.209 5.495 10.434 16.966-27.638 16.966-27.638Z"/><path fill="#74A1BD" d="M849.041 908.644s-14.231 16.892.262 26.397c14.493 9.505 49.838 7.013 43.725 30.061-6.115 23.047-9.386 55.868 8.155 55.848 17.542-.01 27.959-4 37.419 10.67 9.459 14.67 38.603-2.44 33.045-21.21-5.558-18.764 18.099-41.824 4.005-57.031-14.093-15.21-44.127-24.359-54.683-45.989-10.558-21.633-60.343-11.822-71.928 1.254ZM829.621 967.183s17.806 15.458 15.702 35.917c0 0 6.816-13.31 6.339-17.585-.475-4.277-5.172-19.034-5.172-19.034l-16.869.702Z"/><path fill="#F7B686" d="M843.293 983.76c-2.862 4.827-7.686 6.361-10.775 3.425-3.09-2.936-3.274-9.23-.413-14.058 2.863-4.827 7.687-6.363 10.776-3.426 3.092 2.938 3.275 9.232.412 14.059Z"/><path fill="#fff" d="M937.978 1031.82c-4.568-20.73-14.697-21.66-25.42-22.65-4.252-.39-8.65-.8-12.845-2.42-1.997-.77-3.394-2.1-4.155-3.97-1.903-4.67.304-12.027 2.86-20.547 3.722-12.411 7.941-26.477 1.646-37.395-12.195-21.149-30.646-22.068-30.832-22.075-10.742.819-16.303-.635-16.943-4.445-.646-3.845 4.381-8.123 6.236-8.905 15.03-6.338 32.409-8.897 57.586 15.096 19.857 18.923 18.493 29.574 16.766 43.055-.381 2.977-.775 6.053-.956 9.397-.143 2.646.316 4.606 1.407 5.992 2.426 3.088 7.836 3.013 13.075 2.936 6.771-.095 13.77-.195 15.655 6.294 1.476 5.075-.202 11.107-1.825 16.947-1.663 5.98-3.234 11.62-1.301 15.57 1.263 2.58 3.954 4.3 8.232 5.24l-.232 1.53c-4.668-1.03-7.647-2.98-9.112-5.97-2.233-4.57-.571-10.54 1.187-16.87 1.554-5.59 3.16-11.361 1.832-15.933-1.58-5.434-7.813-5.347-14.423-5.251-5.513.079-11.213.159-14.028-3.422-1.331-1.695-1.922-4.106-1.756-7.166.185-3.412.583-6.523.969-9.532 1.662-12.982 2.975-23.235-16.291-41.597-24.688-23.53-41.678-21.041-56.361-14.848-1.784.751-5.827 4.557-5.396 7.127.22 1.303 2.182 4.218 15.657 3.197.251.007 19.352.956 31.912 22.742 6.678 11.582 2.148 26.681-1.491 38.814-2.456 8.187-4.576 15.255-2.915 19.329.608 1.49 1.717 2.53 3.391 3.18 4.05 1.56 8.371 1.96 12.548 2.35 11.195 1.03 21.767 2 26.569 23.79l-1.246.41ZM828.609 960.044c-11.535 0-18.949-9.58-19.031-9.688l.867-.96c.089.117 8.931 11.511 22.215 8.816l.194 1.4a21.215 21.215 0 0 1-4.245.432Z"/><path fill="#6F4975" d="M794.873 1017.71c-2.305.53-4.757.17-7.08-1.07-3.75-2-6.824-6.06-8.436-11.14-3.007-9.48-.074-19.738 6.539-22.863 2.83-1.336 6.033-1.196 9.02.395 3.75 1.998 6.826 6.058 8.437 11.139 3.008 9.479.073 19.739-6.541 22.859-.629.3-1.277.53-1.939.68Zm-6.896-34.85a8.753 8.753 0 0 0-1.804.626c-6.23 2.943-8.97 12.672-6.111 21.694 1.541 4.85 4.47 8.73 8.037 10.63 2.801 1.49 5.797 1.62 8.44.38 6.228-2.95 8.969-12.68 6.11-21.694-1.541-4.856-4.47-8.732-8.038-10.632-2.179-1.161-4.478-1.5-6.634-1.004ZM823.948 1005.79c-2.307.53-4.757.17-7.08-1.07-3.75-2-6.825-6.056-8.436-11.137-3.008-9.482-.075-19.738 6.539-22.863 2.83-1.335 6.033-1.198 9.019.395 3.751 1.997 6.826 6.057 8.437 11.139 3.008 9.481.074 19.736-6.54 22.866-.629.29-1.28.52-1.939.67Zm-6.896-34.848c-.617.14-1.22.349-1.805.626-6.23 2.944-8.97 12.673-6.111 21.69 1.541 4.856 4.471 8.732 8.037 10.632 2.802 1.49 5.799 1.63 8.439.38 6.229-2.94 8.97-12.674 6.111-21.691-1.54-4.857-4.471-8.733-8.037-10.632-2.179-1.161-4.477-1.5-6.634-1.005Z"/><path fill="#6F4975" d="M799.966 996.713a.334.334 0 0 1-.332-.119.524.524 0 0 1-.012-.643c.143-.18 3.595-4.433 10.738-4.77.209-.01.383.186.392.438.008.252-.152.464-.362.473-6.822.319-10.19 4.448-10.223 4.49a.358.358 0 0 1-.201.131Z"/><path fill="#DB6B49" d="M803.098 1016.59s10.59-2.12 20.432-9.01c0 0 2.852 12.34-8.438 15.79-6.563 2.01-11.994-6.78-11.994-6.78Z"/><path fill="#fff" d="M803.098 1016.59s2.953 1.97 8.901.57c5.95-1.39 11.531-9.58 11.531-9.58s-12.043 7.13-20.432 9.01Z"/><path fill="#060633" d="M812.541 984.091c-.217-.02-.422-.159-.547-.396-.213-.401-.116-.933.215-1.188.196-.151 4.461-4.166 9.477.36.316.284.395.816.163 1.203-.23.387-.633.386-.997.199-3.637-1.875-7.707-.434-7.87-.31a.642.642 0 0 1-.441.132ZM819.566 992.122c.373 2.009-.306 3.898-1.514 4.225-1.207.326-2.488-1.04-2.86-3.046-.372-2.008.305-3.897 1.514-4.224 1.208-.325 2.488 1.037 2.86 3.045ZM788.175 994.252a.615.615 0 0 1-.63-.115c-.322-.273-.402-.809-.176-1.199.134-.229 2.808-5.9 8.875-4.019.384.118.623.573.532 1.038-.091.462-.465.648-.86.641-3.956-.063-7.264 3.14-7.374 3.33a.762.762 0 0 1-.367.324ZM797.205 998.451c.978 1.689.948 3.749-.066 4.599-1.014.86-2.628.18-3.606-1.5-.979-1.686-.948-3.747.065-4.602 1.015-.856 2.63-.184 3.607 1.503Z"/><path fill="#F7B686" d="M970.971 1261.58c-22.068 38.44-49.374 59.56-107.425 72.32l-2.222-44.82c70.766-31.3 78.572-133.12 74.948-158.84-.343-2.44.456-4.89 2.084-6.4 5.403-4.99 19.405-15.14 44.427-15.73 2.226-.06 4.196 1.74 4.767 4.34 10.469 47.54 9.455 103.78-16.579 149.13Z"/><path fill="#E08B65" d="M948.452 1275.08c-.959 0-1.89-.22-2.767-.67-4.587-2.36-6.198-10.34-3.593-17.77 1.489-4.25 4.157-7.66 7.136-9.11 2.054-1 4.098-1.03 5.914-.1 4.586 2.36 6.199 10.33 3.593 17.77-1.49 4.25-4.158 7.66-7.137 9.11-1.061.52-2.12.77-3.146.77Zm3.923-25.89c-.773 0-1.579.2-2.393.59-2.493 1.22-4.749 4.13-6.035 7.81-2.175 6.2-1.04 12.75 2.529 14.58 1.312.68 2.823.64 4.367-.11 2.495-1.22 4.751-4.13 6.037-7.81 2.174-6.2 1.039-12.75-2.53-14.58a4.263 4.263 0 0 0-1.975-.48Z" opacity=".3"/><path fill="#F7B686" d="M861.323 1289.08s-34.451-2.36-43.347 6.55c-8.895 8.91-14.674 28.4-8.186 24.28 6.486-4.11 13.572-12.12 13.572-12.12s-14.469 17.98-9.518 20.24c4.953 2.26 17.412-13.52 17.412-13.52s-15.805 23.05-10.553 23.35c5.251.31 17.155-17.3 17.155-17.3s-13.993 22.15-7.887 22.34c6.106.18 11.466-18.4 16.419-16.14 4.952 2.26 19.13 15.29 26.02-.55l-11.087-37.13Z"/><path fill="#DD8964" d="m823.708 1308.09-.694-.6c.147-.25 3.632-6.05 7.456-5.96l-.021 1.03h-.092c-3.319 0-6.614 5.48-6.649 5.53ZM831.608 1314.8l-.704-.59c.14-.24 3.456-5.96 8.754-7.07l.147 1.01c-4.949 1.05-8.166 6.59-8.197 6.65ZM838.206 1320.86l-.696-.6c.175-.3 4.31-7.21 8.355-6.65l-.095 1.02c-3.545-.46-7.526 6.16-7.564 6.23Z"/><path fill="#2F1A31" d="M824.202 1352.99H709.918c-2.393 0-4.518-1.84-5.274-4.56l-23.748-85.53c-1.197-4.31 1.481-8.75 5.271-8.75h109.905c5.01 0 9.455 3.84 11.036 9.53l22.368 80.55c1.196 4.31-1.482 8.76-5.274 8.76Z"/><path fill="#2F1A31" d="M817.032 1352.99H702.746c-2.393 0-4.517-1.84-5.273-4.56l-23.749-85.53c-1.197-4.31 1.481-8.75 5.271-8.75h109.906c5.009 0 9.455 3.84 11.035 9.53l22.369 80.55c1.196 4.31-1.483 8.76-5.273 8.76Z"/><path fill="#DEEBE9" d="M736.951 1300.77c0-3.25 3.106-4.57 5.818-4.57 2.712 0 7.139 3.56 7.112 8.11-.03 4.91-3.213 5.55-5.924 5.55-2.712 0-7.006-4.96-7.006-9.09Z"/><path fill="#2F1A31" d="M859.079 1340.9H702.688v12.08h159.644c1.857 0 3.361-1.81 3.361-4.05v-.06c0-4.4-2.961-7.97-6.614-7.97Z"/><path fill="#436E8E" d="M808.906 1297.39c-.057-.26-5.663-25.61-9.293-33.49-3.579-7.77-7.988-9.3-8.033-9.32l.198-.86c.191.06 4.754 1.65 8.484 9.75 3.675 7.97 9.131 32.64 9.362 33.69l-.718.23ZM825.796 1341.35c-4.236 0-5.291-2.26-5.334-2.36l-8.933-32.15.705-.28 8.908 32.08c.011 0 .965 1.81 4.655 1.81l-.001.9Z"/><path fill="#2F1A31" d="M1001.26 547.907s-4.572 48.521 4.63 48.111c9.21-.411 27.88-21.179 64.41-16.398 36.53 4.783 81.1 16.035 109.59-40.794 28.49-56.831-32.82-75.653-32.82-75.653l-145.81 84.734Z"/><path fill="#6F4975" d="m1079.18 547.106-184.952 11.748-3.593-10.034 180.735-151.179 179.3-18.831 3.22 8.978-174.71 159.318Z"/><path fill="#E28569" d="M958.86 721.775c.943-4.371 4.489-6.926 7.918-5.707 3.431 1.221 5.447 5.754 4.504 10.129-.941 4.371-4.486 6.925-7.917 5.708-3.43-1.224-5.446-5.757-4.505-10.13Z"/><path fill="#E28569" d="M964.418 724.013c-6.67-.607-7.58 76.786-7.58 76.786s4.366 2.571 6.496 1.939c2.132-.631 3.135-11.09 3.135-11.09l.298 10.955s7.31.264 9.825-2.027c0 0-1.624-75.603-12.174-76.563ZM962.025 718.33l-.993-157.857c-1.354-14.327 3.922-28.394 13.742-36.626l80.316-67.336c1.76-1.477 4.19-.951 5.41 1.176.61 1.061.39 2.518-.49 3.255l-85.247 71.464c-6.56 5.498-10.08 14.898-9.166 24.466l1.116 163.303-4.688-1.845Z"/><path fill="#96A7E2" d="M1149.82 1007.93h-69.21c-7.93 0-14.35-7.74-14.35-17.299v-114.52c0-9.557 6.42-17.302 14.35-17.302h69.21c7.93 0 14.35 7.746 14.35 17.302v114.52c0 9.559-6.42 17.299-14.35 17.299Z" opacity=".5"/><path fill="#DEEBE9" d="M1145.7 909.346h-60.2c-1.32 0-3.36-1.666-3.54-3.248-.36-3.249 2.21-4.177 3.54-4.177l60.2 1.615c1.32 0 2.41 1.308 2.41 2.904 0 1.599-1.09 2.906-2.41 2.906ZM1130.06 895.707h-45.43c-1.01 0-2.54-1.337-2.68-2.61-.27-2.609 1.67-3.355 2.67-3.355l45.44 1.296c1 0 1.82 1.051 1.82 2.336 0 1.284-.82 2.333-1.82 2.333ZM1130.06 923.087h-45.43c-1.01 0-2.54-1.337-2.68-2.61-.27-2.609 1.67-3.355 2.67-3.355l45.44 1.297c1 0 1.82 1.05 1.82 2.335 0 1.284-.82 2.333-1.82 2.333ZM1145.7 964.103h-60.2c-1.32 0-3.36-1.664-3.54-3.248-.36-3.247 2.21-4.175 3.54-4.175l60.2 1.615c1.32 0 2.41 1.307 2.41 2.905 0 1.597-1.09 2.903-2.41 2.903ZM1130.06 950.465h-45.43c-1.01 0-2.54-1.337-2.68-2.609-.27-2.61 1.67-3.356 2.67-3.356l45.44 1.298c1 0 1.82 1.049 1.82 2.334 0 1.284-.82 2.333-1.82 2.333ZM1130.06 977.844h-45.43c-1.01 0-2.54-1.337-2.68-2.61-.27-2.609 1.67-3.356 2.67-3.356l45.44 1.298c1 0 1.82 1.049 1.82 2.334 0 1.284-.82 2.334-1.82 2.334Z"/></svg>