<svg xmlns="http://www.w3.org/2000/svg" width="2300" height="2300" fill="none"><g clip-path="url(#a)"><g opacity=".8"><path fill="#B4BEE6" d="M1189.42 816.669c-80.69-13.812-157.17-51.906-223.168-109.659-98.572-86.264-304.857-233.056-501.639-159.938C193.191 647.926 191.976 939.68 262.676 1098.16c70.7 158.49 572.051 622.59 1222.014 548.74 581.62-66.08 694.96-822.481 384.76-959.351-269.04-118.717-360.83 183.76-680.03 129.12ZM2026.74 736.187c13.93 0 25.22-14.091 25.22-31.472s-11.29-31.472-25.22-31.472-25.22 14.091-25.22 31.472 11.29 31.472 25.22 31.472Z" opacity=".5"/><path fill="#B4BEE6" d="M380.219 497.392c7.742-1.65 15.567 3.311 18.292 11.874 4.648 14.606-7.523 30.958-23.899 23.625-14.13-12.132-7.98-32.604 5.607-35.499ZM1981.1 450.351c12.83-14.875 12.83-38.992 0-53.866-12.83-14.875-33.63-14.875-46.46 0-12.83 14.875-12.83 38.991 0 53.866s33.63 14.875 46.46 0Z"/><path fill="#B4BEE6" d="M479.805 467.357c4.946 20.465-5.349 41.704-22.996 47.439-17.651 5.735-35.969-6.202-40.916-26.663-4.949-20.465 5.349-41.704 22.997-47.439 17.647-5.739 35.966 6.198 40.915 26.663Z" opacity=".8"/><path fill="#B4BEE6" d="M1792.89 1613.73c7.34-3.29 15.83-.1 19.88 7.73 6.9 13.35-2.43 32.04-19.7 28.36-15.83-8.87-13.07-30.31-.18-36.09ZM1885.92 1562.75c8.14 19.04 1.43 42.13-14.99 51.57-16.41 9.44-36.33 1.66-44.47-17.38-8.15-19.04-1.44-42.12 14.98-51.57 16.42-9.44 36.34-1.66 44.48 17.38ZM1916.21 365.117c0 12.941-9.05 23.434-20.21 23.434s-20.21-10.49-20.21-23.434c0-12.94 9.04-23.429 20.21-23.429 11.16-.004 20.21 10.489 20.21 23.429Z"/></g><path fill="#B4BEE6" d="M1970.04 789.614c-.03-209.334-150.36-438.717-337.45-452.571-3.29-.245-6.61-.455-9.96-.638-268.22-14.493-288.66 364.801-531.33 407.579-242.675 42.778-427.997-173.182-718.375-32.281C112.13 838.247 41.495 1549.33 807.753 1577.85c613.067 22.82 1162.367-163.68 1162.287-788.236Z" opacity=".8"/><path fill="#CED3E6" d="M1230 1834.44c340.54 0 616.6-16.51 616.6-36.88s-276.06-36.88-616.6-36.88-616.602 16.51-616.602 36.88 276.062 36.88 616.602 36.88Z"/><path fill="#fff" d="M1631.02 1797.36H812.768v-41.08c0-34.22 23.922-61.95 53.428-61.95h711.394c29.51 0 53.43 27.73 53.43 61.95v41.08ZM1367.89 1473.55h-296.6v220.77h296.6v-220.77Z"/><path fill="#CED3E6" d="m1071.29 1541.34 296.6-27.53.04-40.26-296.6.41-.04 67.38Z"/><path fill="#fff" d="M1854.2 561.883v865.777c0 25.38-17.74 45.95-39.63 45.95H598.546c-21.885 0-39.63-20.57-39.63-45.95V561.883c0-25.375 17.745-45.948 39.63-45.948H1814.57c.6 0 1.18.011 1.76.046.43.024.86.047 1.29.094h.05c.3.023.61.058.92.101.51.046 1.01.124 1.53.206.33.047.66.101.99.183.16.023.32.058.48.093.32.059.64.125.97.218 18.06 4.28 31.64 22.807 31.64 45.007Z"/><path fill="#CED3E6" d="M1237.23 1435.47c11.46-11.46 12.73-31.51 2.85-44.8-9.88-13.28-27.18-14.76-38.63-3.3-11.46 11.45-12.74 31.51-2.85 44.79 9.88 13.28 27.17 14.77 38.63 3.31Z"/><path fill="#39393B" d="M1822.56 516.872a9.938 9.938 0 0 0-.97-.218c-.16-.035-.32-.07-.48-.093a9.823 9.823 0 0 0-.99-.183c-.52-.082-1.02-.159-1.53-.206-.31-.047-.61-.082-.92-.101h-.05c-.43-.047-.85-.07-1.29-.094-.58-.035-1.17-.046-1.76-.046H598.546c-21.885 0-39.63 20.574-39.63 45.949v801.75H1854.2V561.883c0-22.2-13.58-40.727-31.64-45.011Zm-19.73 766.678c0 6.91-4.83 12.5-10.78 12.5H621.073c-5.957 0-10.779-5.59-10.779-12.5V588.002c0-6.906 4.822-12.497 10.779-12.497H1792.05c5.96 0 10.78 5.591 10.78 12.497v695.548Z"/><path fill="#CED3E6" d="M1802.83 588.002v695.548c0 6.91-4.83 12.5-10.78 12.5H621.073c-5.956 0-10.778-5.59-10.778-12.5V588.002c0-6.906 4.822-12.497 10.778-12.497H1792.05c5.95-.004 10.78 5.587 10.78 12.497Z"/><path fill="#fff" d="M1802.83 588.002v65.639H610.295v-65.639c0-6.906 4.822-12.497 10.778-12.497H1792.05c5.95-.004 10.78 5.587 10.78 12.497Z"/><path fill="#DF615C" d="M1710.46 613.525c0 5.863-4.1 10.618-9.16 10.618-5.06 0-9.16-4.755-9.16-10.618s4.1-10.618 9.16-10.618c5.06 0 9.16 4.755 9.16 10.618Z"/><path fill="#21B573" d="M1740.14 613.525c0 5.863-4.1 10.618-9.16 10.618-5.06 0-9.16-4.755-9.16-10.618s4.1-10.618 9.16-10.618c5.06 0 9.16 4.755 9.16 10.618Z"/><path fill="#D2DCEC" d="M1654.96 624.757H722.591c-4.493 0-8.171-4.261-8.171-9.474v-3.521c0-5.21 3.678-9.474 8.171-9.474h932.369c4.49 0 8.17 4.264 8.17 9.474v3.521c0 5.21-3.68 9.474-8.17 9.474Z"/><path fill="#000" d="M653.353 613.521v10.396c0 1.467-1.37 2.385-2.467 1.65l-7.765-5.198-7.765-5.198c-1.097-.735-1.097-2.568 0-3.303l7.765-5.198 7.765-5.198c1.097-.735 2.467.183 2.467 1.65v10.399ZM666.994 613.521v10.396c0 1.467 1.373 2.385 2.467 1.65l7.765-5.198 7.764-5.198c1.098-.735 1.098-2.568 0-3.303l-7.764-5.198-7.765-5.198c-1.098-.735-2.467.183-2.467 1.65v10.399Z"/><path fill="#39393B" d="m1752.55 622.474-.55-.642c-.86-.996-.86-2.607 0-3.603l12.44-14.422c.86-.996 2.25-.996 3.1 0l.55.638c.86.996.86 2.606 0 3.602l-12.43 14.423c-.86 1-2.25 1-3.11.004Z"/><path fill="#39393B" d="m1767.54 622.474.55-.642c.86-.996.86-2.607 0-3.603l-12.43-14.422c-.86-.996-2.25-.996-3.11 0l-.55.638c-.86.996-.86 2.606 0 3.602l12.44 14.423c.86 1 2.25 1 3.1.004Z"/><path fill="#fff" d="M1643.28 1268.07H766.648c-11.903 0-21.55-11.19-21.55-24.99V694.471c0-13.8 9.647-24.986 21.55-24.986h876.632c11.9 0 21.55 11.186 21.55 24.986v548.609c0 13.8-9.65 24.99-21.55 24.99Z"/><path fill="#CED3E6" d="M998.813 1110.25H785.907c-5.587 0-10.114-5.25-10.114-11.72V970.238c0-6.478 4.53-11.726 10.114-11.726h212.906c5.587 0 10.117 5.252 10.117 11.726v128.292c0 6.47-4.53 11.72-10.117 11.72ZM1619.55 856.868h-212.91c-5.59 0-10.11-5.248-10.11-11.726V716.854c0-6.478 4.53-11.726 10.11-11.726h212.91c5.58 0 10.11 5.248 10.11 11.726v128.288c0 6.474-4.53 11.726-10.11 11.726ZM1003.57 846.997H780.801c-2.96 0-5.356-2.782-5.356-6.21v-.568c0-3.431 2.4-6.209 5.356-6.209h222.769c2.96 0 5.35 2.782 5.35 6.209v.568c.01 3.428-2.39 6.21-5.35 6.21ZM1003.57 792.042H780.801c-2.96 0-5.356-2.782-5.356-6.21v-.568c0-3.431 2.4-6.209 5.356-6.209h222.769c2.96 0 5.35 2.781 5.35 6.209v.568c.01 3.428-2.39 6.21-5.35 6.21ZM1003.57 901.948H780.801c-2.96 0-5.356-2.782-5.356-6.209v-.569c0-3.431 2.4-6.209 5.356-6.209h222.769c2.96 0 5.35 2.782 5.35 6.209v.569c.01 3.431-2.39 6.209-5.35 6.209ZM1624.3 975.755h-222.42c-2.96 0-5.36-2.782-5.36-6.21v-.568c0-3.432 2.4-6.209 5.36-6.209h222.42c2.96 0 5.36 2.781 5.36 6.209v.568c0 3.428-2.4 6.21-5.36 6.21ZM1624.3 920.799h-222.42c-2.96 0-5.36-2.782-5.36-6.21v-.568c0-3.432 2.4-6.209 5.36-6.209h222.42c2.96 0 5.36 2.781 5.36 6.209v.568c0 3.428-2.4 6.21-5.36 6.21ZM1624.3 1030.71h-222.42c-2.96 0-5.36-2.78-5.36-6.21v-.57c0-3.43 2.4-6.21 5.36-6.21h222.42c2.96 0 5.36 2.78 5.36 6.21v.57c0 3.43-2.4 6.21-5.36 6.21Z"/><path fill="#39393B" d="M745.097 1175.1h919.733v87.43c0 3.05-2.14 5.53-4.78 5.53H749.872c-2.637 0-4.778-2.48-4.778-5.53v-87.43h.003Z"/><path fill="#fff" d="M1598.89 1209.57v-7.89h8.5v-7.01h-11.53c-1.67 0-3.02 1.57-3.02 3.51v11.39h6.05ZM1598.89 1223.59h-6.05v11.99c0 1.93 1.36 3.5 3.02 3.5h11.53v-7.01h-8.5v-8.48ZM1625.1 1209.57h6.04v-11.39c0-1.94-1.35-3.51-3.02-3.51h-11.09v7.01h8.07v7.89ZM1625.1 1223.59v8.48h-8.07v7.01h11.09c1.67 0 3.02-1.57 3.02-3.5v-11.99h-6.04Z"/><path fill="#CED3E6" d="M1664.83 1157.63H745.098v17.48h919.732v-17.48Z"/><path fill="#39393B" d="M811.912 687.736h10.376v26.356h13.892v9.33h-24.268v-35.686ZM839.037 687.736h10.376v35.686h-10.376v-35.686ZM887.311 687.736l-13.013 35.686h-10.201l-13.017-35.686h11.168l7.342 20.85 7.517-20.85h10.204ZM913.905 714.349v9.073h-25.591v-35.686h25.017v9.073h-14.819v4.179h13.017v8.664h-13.017v4.693l15.393.004Z"/><path fill="#DF615C" d="M794.83 705.291c0 8.104-5.668 14.672-12.654 14.672-6.99 0-12.655-6.568-12.655-14.672 0-8.104 5.665-14.672 12.655-14.672 6.989-.004 12.654 6.568 12.654 14.672ZM1544.99 1098.36c0 7.12-4.98 12.89-11.12 12.89-6.14 0-11.11-5.77-11.11-12.89 0-7.11 4.97-12.88 11.11-12.88 6.14-.01 11.12 5.76 11.12 12.88ZM1554.65 1130.98h-41.56s4.72-15.31 20.46-15.31c.12 0 .22.01.32.01s.2-.01.32-.01c15.73 0 20.46 15.31 20.46 15.31Z"/><path fill="#39393B" d="M1592.98 1090.57v8.08l-11.2 30.93h-12.4l10.67-28.82h-6.49v5.69h-9.38v-15.89h28.8v.01ZM1622.5 1119.38v10.2h-26.98v-8.08l12.17-13.04c2.31-2.51 2.64-4.01 2.64-5.35 0-1.89-1.11-3.06-3.27-3.06-2.02 0-3.94 1.28-4.95 3.62l-8.56-4.96c2.46-5.35 7.31-9.03 14.57-9.03 7.98 0 13.6 4.79 13.6 12.2 0 3.85-.86 7.31-5.76 12.43l-4.81 5.08h11.35v-.01Z"/><path fill="#EA9B7A" d="M1455.07 813.32s8.28 30.907 29.05 33.323c16.77 1.942 29.89-18.601 34.33-26.569 1.05-1.907 1.62-3.093 1.62-3.093s1.22-.051 3.02-.374c4.22-.747 11.62-2.968 13.84-9.474 3.16-9.271-12.81-12.671-12.81-12.671s6.85-9.377 4.18-14.952c-2.63-5.486-13.28-4.996-13.28-4.996s10.29-10.341 5.61-17.158c-7.04-10.244-17.26 3.934-18.11 4.758.62-1.101 26.98-47.555 18.59-49.423-7.34-1.63-31.57 35.872-38.06 46.144-1.03 1.626-1.61 2.567-1.61 2.567s-.5-.326-1.37-.813c-4.14-2.322-16.7-8.306-23.24.063-7.91 10.108-1.76 52.668-1.76 52.668Z"/><path fill="#D46A43" d="M1506.27 800.13c-3.16 2.914-5.77 6.595-6.37 9.968-.39 2.179.06 4.093 1.3 5.536.85.996 2.19 1.774 3.8 2.377 4.02 1.514 9.68 1.95 13.45 2.059 1.06-1.907 1.61-3.093 1.61-3.093s1.23-.043 3.04-.37a1.427 1.427 0 0 0-.87-.257c-6 .156-16.4-.607-18.76-3.354-.3-.361-.63-.937-.42-2.147.67-3.708 5.84-9.318 10.63-11.532.77-.35 1.18-1.3.95-2.218-.21-.934-.99-1.51-1.8-1.358-3.93.72-14.86 1.693-18.3-2.299-.49-.584-.43-.949-.39-1.144.16-.875.96-1.899 2.11-2.949 2.35-2.136 6.15-4.373 8.95-5.642.33-.151.58-.393.75-.708.29-.494.37-1.12.17-1.708-.32-.961-1.26-1.435-2.1-1.062-1.25.564-5.65 2.661-9.01 5.525-1.22 1.046-2.31 2.194-3.06 3.408-.48.767-.81 1.564-.97 2.373-.2 1.156-.15 2.88 1.27 4.545 3.04 3.525 9.13 4.182 14.02 4.05Z"/><path fill="#D46A43" d="M1490.68 773.015c.48.529.64 1.339.38 2.043-.82 2.241-1.24 4.361-1.05 5.886.17 1.21.64 1.623 1.04 1.841.65.35 1.62.474 2.8.416 2.93-.136 7.16-1.354 10.95-2.751a1.66 1.66 0 0 1-.76.708c-2.8 1.269-6.6 3.506-8.95 5.642-.38.047-.76.07-1.12.089-1.17.047-2.26-.027-3.17-.28a5.523 5.523 0 0 1-1.11-.439c-1.6-.864-2.58-2.487-2.86-4.677-.29-2.311.24-5.109 1.26-7.914.43-1.19 1.74-1.498 2.55-.607.01.016.02.028.04.043Z"/><path fill="#D46A43" d="M1461.9 779.242c.34.264 5.6 4.256 11.45 6.454 3.24 1.218 6.67 1.891 9.53 1.066 2.37-.681 4.16-2.264 5.32-4.715 4.11-8.692-1.46-18.275-5.14-23.212-1.03 1.626-1.61 2.568-1.61 2.568s-.51-.327-1.37-.813c3.15 4.05 8.63 12.621 5.3 19.659-.71 1.518-1.78 2.463-3.26 2.887-5.55 1.595-15.2-4.517-18.44-7.003-.74-.572-1.75-.342-2.23.525-.5.856-.29 2.012.45 2.584ZM1478.38 829.348c.52.198 1.13.074 1.57-.385.66-.689.72-1.868.13-2.638-3.2-4.14-4.58-8.665-4.1-13.454 1.22-12.275 13.9-22.679 14.03-22.784.73-.591.91-1.755.4-2.599-.51-.844-1.52-1.051-2.25-.459-.57.463-13.99 11.489-15.38 25.418-.59 5.898 1.06 11.403 4.9 16.376.19.249.43.427.7.525Z"/><path fill="#21B573" d="m1277.7 676.162 16.34 47.949c2.45 8.026 4.93 16.026 7.45 23.99 2.49 7.98 4.98 15.932 7.54 23.822 2.57 7.879 5.1 15.742 7.7 23.496a991.275 991.275 0 0 0 7.94 22.838c2.66 7.428 5.41 14.715 8.13 21.193 1.34 3.214 2.7 6.229 3.84 8.583l.77 1.548.32.623c.07.14.07.175.09.272.1.304.15.514.17.677.05.327-.06.494.06.798.1.299.49.712 1.36 1.151 1.71.88 5.39 1.529 10.04 1.273 4.64-.238 10.15-1.319 15.89-3.016a158.33 158.33 0 0 0 17.9-6.606c12.22-5.381 24.74-12.182 37.09-19.788 12.38-7.567 21.47-13.691 33.51-22.426 3.84 20.702 16.48 37.428 34.77 45.4-11.71 12.373-23.98 23.866-36.92 34.799-12.99 10.847-26.6 21.138-41.6 30.199-7.51 4.521-15.35 8.836-23.82 12.516-8.48 3.685-17.54 6.922-27.73 8.964-5.1 1-10.49 1.724-16.26 1.821-5.76.098-11.91-.365-18.35-1.801-6.44-1.447-13.18-3.887-19.7-7.641-6.52-3.712-12.73-8.719-18.02-14.478a87.913 87.913 0 0 1-7.28-9.045l-1.58-2.335-1.3-2.035c-.45-.7-.8-1.307-1.2-1.957-.38-.63-.8-1.307-1.14-1.906-2.9-4.953-5.26-9.47-7.47-13.886-4.39-8.793-8.13-17.15-11.74-25.48-3.57-8.33-6.87-16.582-10.11-24.815-3.22-8.228-6.36-16.426-9.34-24.659-3-8.221-5.95-16.43-8.81-24.655-2.84-8.237-5.62-16.473-8.37-24.721-2.7-8.264-5.38-16.532-7.98-24.835l-3.84-12.485-1.87-6.287c-.64-2.124-1.23-4.159-1.88-6.427l75.4-30.628Z"/><path fill="#217C58" d="M1322.19 875.582c.62 0 1.24-.331 1.65-.957.07-.121 7.94-12.213 14.81-17.901.92-.766 1.14-2.26.48-3.334-.67-1.074-1.95-1.323-2.88-.557-7.39 6.12-15.38 18.403-15.71 18.925-.69 1.054-.5 2.556.41 3.346.37.323.81.478 1.24.478Z"/><path fill="#217C58" d="M1336.21 877.972c.15 0 .3-.019.45-.058 1.11-.284 1.81-1.564 1.57-2.852-.02-.101-1.92-10.287-.03-17.955.31-1.269-.33-2.595-1.42-2.957-1.09-.362-2.23.373-2.55 1.642-2.18 8.851-.12 19.842-.03 20.305.21 1.121 1.07 1.875 2.01 1.875Z"/><path fill="#39393B" d="M1317.06 1133.45c-38.17 25.49-130.49 38.62-190.7 10.88-22.1-10.17-25.97-16.42-24.3-62.4.06-1.71.13-3.43.21-5.13.16-3.62.36-7.23.59-10.81a736.359 736.359 0 0 1 1.92-23.93c.16-1.67.32-3.31.49-4.94 1.38-13.48 3.57-25.58 5.6-34.93.37-1.69.74-3.293 1.09-4.795 2.13-9.182 3.86-14.691 3.86-14.691 9.71 1.809 19.71 2.879 29.77 3.342 1.42.07 2.84.128 4.26.167 52.08 1.596 105.07-12.08 129.63-19.48 1.48-.448 2.86-.872 4.12-1.269 6.38-1.988 9.98-3.283 9.98-3.283s2.25 4.571 5.42 12.111c.58 1.397 1.19 2.887 1.83 4.475 5 12.434 11.38 30.503 15.01 49.333.05.22.09.46.13.69.31 1.62.62 3.26.92 4.9.06.32.12.65.17.99 2.49 13.66 4.77 27.99 6.31 41.7.2 1.77.38 3.52.56 5.25 3.02 30.05 3.47 44.92-6.87 51.82Z"/><path fill="#585859" d="M1317.06 1034.66c-.09-.05-.19-.11-.28-.16-7.77-4.9-14.6-12.32-20.48-22.17-.79-1.33-1.57-2.71-2.34-4.15h-.01c-5.92-11.12-10.76-24.963-14.48-41.452 1.48-.447 2.86-.871 4.12-1.268 3.66 16.244 8.41 29.791 14.23 40.53.75 1.44 1.56 2.82 2.37 4.16 4.61 7.6 9.83 13.6 15.64 17.93.05.23.09.47.14.7.31 1.62.61 3.25.91 4.9.06.32.12.65.18.98ZM1149.85 986.204c-1.69 17.346-5.02 32.026-9.94 43.966-.65 1.57-1.32 3.1-2.04 4.57-4.02 8.46-8.95 15.34-14.77 20.62-7.13 6.47-14.37 9.39-20.24 10.63.11-1.73.23-3.47.35-5.18 5.14-1.24 11.32-3.92 17.34-9.42 5.02-4.57 9.32-10.46 12.91-17.63.73-1.46 1.44-2.97 2.1-4.54 4.96-11.54 8.31-25.97 10.02-43.183 1.43.07 2.84.128 4.27.167Z"/><path fill="#585859" d="M1300.82 978.755a323.406 323.406 0 0 1-9.48 4.649c-1.31.615-2.65 1.237-4.02 1.848-19.65 8.894-45.4 18.048-73.18 21.358-1.07.12-2.14.25-3.2.36-25.21 2.67-50.86 1.44-72-.85-1.51-.17-3-.33-4.47-.52-8.93-1.05-16.93-2.27-23.59-3.42.36-1.69.73-3.295 1.08-4.797a463.579 463.579 0 0 0 24.25 3.487c1.45.15 2.92.32 4.4.48 21.56 2.26 47.68 3.39 73.1.34 27.11-3.241 52.25-12.115 71.54-20.792h.01c1.36-.614 2.69-1.225 3.98-1.84a286.88 286.88 0 0 0 9.77-4.778c.57 1.397 1.18 2.891 1.81 4.475Z"/><path fill="#39393B" d="M1360.13 1343.78c-5.57-99.83-18.23-192.39-36.76-267.4l-102.38 55.27c3.17 90.87 18.93 153.81 37.04 212.13h102.1Z"/><path fill="#585859" d="M1274.59 1343.78c-29.71-98.25-34.91-178.63-34.97-179.66-.09-1.35-1.11-2.38-2.28-2.29-1.18.09-2.06 1.28-1.98 2.63.06 1.04 5.25 81.13 34.72 179.31l4.51.01Z"/><path fill="#39393B" d="M1200.64 1343.78c6.31-70.91 13.61-158.02 14.52-191.76l-113.09-70.09s-19.93 79.77-6.86 261.85h105.43Z"/><path fill="#585859" d="m1190.28 1343.78 18.96-181.61c.17-1.54-.78-2.94-2.11-3.13-1.33-.19-2.54.91-2.7 2.45l-19.04 182.29h4.89ZM1225 1135.92c.14 1.35 1.19 2.32 2.36 2.17l.01-.01c1.17-.16 2.01-1.39 1.86-2.75-.95-9.21-1.85-18.66-2.72-28.11l-.45-4.99c-2.77-30.88-5.01-61.29-6.49-82.78-.12-1.74-.24-3.42-.34-5.04-.32-4.72-.6-8.9-.83-12.45-1.43.02-2.87.03-4.28.02.23 3.55.51 7.77.83 12.54.11 1.62.23 3.31.35 5.04 1.47 21.3 3.68 51.45 6.42 82.14.15 1.7.31 3.4.45 5.09.9 9.79 1.84 19.6 2.83 29.13Z"/><path fill="#585859" d="M1214.34 1104.87c.71.25 3.9 1.31 7.84 1.92 1.38.22 2.84.38 4.33.43 1.36.04 2.73 0 4.07-.17 2.57-.33 4.98-1.15 6.87-2.74 2.34-1.97 3.61-4.98 3.66-8.67.17-9.72-2.26-49.28-4.08-77.24-.11-1.72-.22-3.4-.32-5.03-.3-4.47-.57-8.53-.8-11.99-1.42.08-2.85.15-4.28.21.24 3.48.52 7.59.81 12.12.1 1.62.21 3.3.33 5.03 1.81 27.88 4.24 67.38 4.08 76.81-.03 2.17-.64 3.69-1.92 4.77-2.04 1.72-5.42 2.12-8.86 1.91a37.84 37.84 0 0 1-4.34-.53c-2.54-.46-4.79-1.1-6.16-1.57-1.13-.39-2.32.35-2.66 1.66-.34 1.31.3 2.7 1.43 3.08Z"/><path fill="#39393B" d="m1085.49 716.418 163.21-4.879c-5.06-8.217-4.6-86.633-6.86-102.83-2.33-16.711-.53-49.851 1.63-76.919 4.14-51.991-32.24-96.524-77.22-93.967-.67.039-1.35.081-2.04.132-68.61 5.066-73.66 73.222-67.27 114.491 5.82 37.592 9.91 140.017-11.45 163.972Z"/><path fill="#fff" d="m1120.91 962.19 13.16 63.98c32.88-3.04 71.78-8.56 101.07-26.11 0 0 39.03 15.22 58.82 8.11l-14.49-45.98h-158.56Z"/><path fill="#21B573" d="M1314.1 1009.56c-37.91-.29-60.68-5.99-81.36-25.623-38.78 46.723-134.58 48.513-134.58 48.513 9.59-35.888 12.71-99.322 12.71-99.322-.76-6.594-1.16-13.442-1.76-20.387-.6-6.937-1.4-13.963-2.96-20.9-9.45-31.639-20.52-54.326-30.35-87.015-.64-2.129-1.29-4.226-1.94-6.354-.43-1.381-.86-2.754-1.31-4.136-3.23-10.224-6.7-20.418-10.35-30.238-15.86-42.852-18.41-91.151 19.74-105.889 2.77-1.07 5.5-2.097 8.16-3.073 18.05-6.614 33.08-10.96 37.27-12.131.76-.211 1.15-.323 1.15-.323l80.09 7.692 7.62.735c11.19 1.451 23.05 1.078 30.55 2.996 6.59 1.684 10.58 1.268 17.3 3.567 15.78 5.416 15.34 30.017 20.24 60.598.08.525.17 1.05.25 1.595.03.163.07.354.09.513.87 5.202 1.89 10.346 3.05 15.427 1.29 5.688 2.74 11.302 4.25 16.777 9.23 33.588 20.36 49.003 18.47 70.137-1.73 19.138-18.57 45.241-23.04 50.808-1.03 1.28-1.64 1.965-1.64 1.965.01.089.01.191.03.292.06.755.14 1.564.24 2.408.34 3.225.82 7.058 1.44 11.392 1.38 16.162 3.35 30.802 5.58 43.852 1.21 7.026 2.5 13.602 3.83 19.69 8 36.861 17.23 56.434 17.23 56.434Z"/><path fill="#217C58" d="M1296.88 953.13c-10.83 6.665-19.6 11.092-19.6 11.092l-8.08-17.644c7.75-3.217 16.04-8.015 23.85-13.139 1.77 5.475 3.42 11.023 3.83 19.691ZM1122.11 936.573s36.45 17.932 63.41 20.963l-4.11 19.407s-44.19-8.458-61.89-23.056l2.59-17.314ZM1292.29 870.711c.55 0 1.09-.249 1.49-.743.99-1.206 24.13-29.83 16.06-55.956-2.23-7.256-4.84-14.586-7.6-22.351-8.38-23.558-17.88-50.264-20.31-84.903-.1-1.315-1.1-2.299-2.23-2.19-1.13.109-1.98 1.26-1.89 2.579 2.49 35.382 12.12 62.453 20.61 86.338 2.74 7.708 5.33 14.987 7.54 22.138 7.2 23.344-14.94 50.774-15.17 51.05-.78.957-.75 2.47.07 3.381.41.439.92.657 1.43.657ZM1225 768.651c0 2.879-2.01 5.214-4.5 5.214-2.48 0-4.49-2.335-4.49-5.214 0-2.879 2.01-5.213 4.49-5.213 2.49 0 4.5 2.334 4.5 5.213ZM1231.68 814.817c0 2.879-2.01 5.214-4.49 5.214-2.49 0-4.5-2.335-4.5-5.214 0-2.879 2.01-5.213 4.5-5.213 2.48.003 4.49 2.334 4.49 5.213ZM1235.71 861.747c0 2.879-2.02 5.213-4.5 5.213s-4.5-2.334-4.5-5.213 2.02-5.214 4.5-5.214 4.5 2.335 4.5 5.214ZM1237.43 910.022c0 2.879-2.01 5.214-4.49 5.214-2.49 0-4.5-2.335-4.5-5.214 0-2.879 2.01-5.213 4.5-5.213 2.48 0 4.49 2.334 4.49 5.213ZM1237.23 960.23c0 2.879-2.01 5.214-4.49 5.214-2.49 0-4.5-2.335-4.5-5.214 0-2.879 2.01-5.213 4.5-5.213 2.48 0 4.49 2.334 4.49 5.213ZM1199.42 650.272s17.4-1.821 29.59 1.93l-1.32 52.975-10.4 2.591 8.76 9.992-10.5 35.545s-14.35-59.146-16.13-103.033ZM1128.52 642.678l-31.82 10.092 37.36 57.59 28.02-2.591-9.83 24.842 63.29 20.69s-73.3-80.696-79.16-109.868l-7.86-.755Z"/><path fill="#fff" d="M1134.07 646.993s18.27 45.128 81.47 106.313c0 0-3.38-48.128-16.1-99.718 0 0-37.19 15.018-65.37-6.595Z"/><path fill="#217C58" d="M1224.36 791.088c-20.81 0-63.28-34.565-65.08-36.036-.77-.63-.96-1.867-.41-2.762s1.61-1.109 2.38-.475c.44.354 43.38 35.312 63.12 35.312 18.88 0 23.06-23.912 23.1-24.157.18-1.074 1.07-1.782 2.01-1.572.92.206 1.53 1.245 1.35 2.323-.05.268-4.79 27.367-26.47 27.367Z"/><path fill="#EA9B7A" d="m1199.42 650.273.85 12.509c1.6 23.309-12.7 29.923-33.52 17.57-16.44-9.758-30.4-24.336-32.68-33.359l65.35 3.28Z"/><path fill="#217C58" d="M1169.61 888.342c.34.685.96 1.07 1.6 1.07.32 0 .63-.086.92-.28.3-.203 30.37-19.847 67.08-11.536 18.65 4.221 34.51 3.793 46.82.599-.09-.844-.18-1.65-.24-2.408l-.03-.3s.61-.685 1.64-1.961c-12.04 3.545-28.15 4.229-47.48-.14-38.1-8.622-68.36 11.182-69.63 12.026-.89.592-1.19 1.899-.68 2.93Z"/><path fill="#39393B" d="M1233.76 494.677s9.24 42.054 3.32 49.388c-5.92 7.334-14.67-8.412-14.67-8.412s4.31-39.288 11.35-40.976Z"/><path fill="#D46A43" d="M1223.57 550.356s9.55-13.084 14.95 0c5.4 13.085 1.24 39.565-13.29 35.23l-1.66-35.23Z"/><path fill="#fff" d="M1215.19 582.909c-5.32 2.871-9.01 9.119-9.01 16.352 0 9.945 6.98 18.037 15.56 18.037s15.56-8.092 15.56-18.037c0-7.143-3.6-13.329-8.81-16.247-1.78-1-3.75-1.619-5.83-1.759-.37-1.113-.69-2.249-1.1-3.342.06 0 .12-.008.18-.008 2.56 0 4.99.603 7.19 1.7 6.59 3.249 11.23 10.84 11.23 19.656 0 11.773-8.26 21.352-18.42 21.352-10.16 0-18.42-9.579-18.42-21.352 0-7.929 3.75-14.858 9.3-18.543l2.57 2.191Z"/><path fill="#EA9B7A" d="M1199.44 617.505v36.082s-16.4 31.152-65.37-6.595c9.27-12.006 9.56-35.21 5.81-49.05 0 0 3.58 2.806 9.52 5.871 1.21.631 2.51 1.288 3.9 1.965 12.24 5.953 30.65 13.12 46.14 11.727Z"/><path fill="#39393B" d="M1199.44 617.505v16.889c-13.31-3.435-36.65-11.855-50.04-30.581 1.21.631 2.51 1.288 3.9 1.965 12.24 5.953 30.65 13.12 46.14 11.727Z"/><path fill="#EA9B7A" d="M1226.05 605.704c-26.15 31.359-84.18-6.07-86.05-7.283a.422.422 0 0 0-.04-.035c-.54-2.806-1.02-5.591-1.46-8.346-3.69-23.325-3.92-44.992-1.88-65.573-.98-21.707 10.17-41.919 27.78-49.365 18.25-7.708 34.62 1.591 44.45 5.108 14.84 5.307 24.18 27.55 24.27 59.24.1 38.895-.58 58.465-7.07 66.254Z"/><path fill="#39393B" d="M1230.01 503.286a274.48 274.48 0 0 1-18.62 2.303l-3.5-19.371-1.12 19.761c-11.74.918-23.94 1.28-36.44 1.299l-1.56-20.407-3.42 20.395c-9.25-.05-18.65-.264-28.12-.564-7.57-40.646 30.43-58.36 62.4-49.913 31.96 8.454 30.38 46.497 30.38 46.497Z"/><path fill="#39393B" d="M1161.49 494.668s-11.78 18.209-5.33 35.114c6.45 16.909 1.96 33.491-1.12 45.848 0 0-6.68-27.223-22.41-32.309-15.73-5.081-7.6-54.99 28.86-48.653Z"/><path fill="#D46A43" d="M1203.62 588.586c3.45.607 6.24-.463 6.41-.533.59-.23.9-.969.7-1.642-.2-.677-.83-1.035-1.42-.805-.05.019-5.46 2.062-9.97-1.755-.5-.424-1.2-.296-1.56.28-.37.576-.26 1.385.24 1.809 1.86 1.572 3.82 2.335 5.6 2.646Z"/><path fill="#fff" d="M1220.23 568.316s-18.17 7.361-31.84-3.089c0 0 4.8 14.259 16.57 15.605 11.78 1.35 15.27-12.516 15.27-12.516Z"/><path fill="#39393B" d="M1191.27 510.627s5.43.622 3.52 6.388c-1.9 5.766-12.79-.587-20.58 10.035 0 0-3.31-13.832 17.06-16.423ZM1215.86 510.627s-5.43.622-3.52 6.388c1.9 5.766 12.79-.587 20.58 10.035 0 0 3.31-13.832-17.06-16.423Z"/><path fill="#D46A43" d="M1188.32 553.373c0 2.934-5.22 5.315-11.65 5.315-6.43 0-11.64-2.381-11.64-5.315 0-2.933 5.21-5.314 11.64-5.314 6.43 0 11.65 2.381 11.65 5.314Z" opacity=".8"/><path fill="#D46A43" d="M1235.76 558.529c-.9.105-1.84.156-2.8.156-6.43 0-11.65-2.381-11.65-5.319 0-2.933 5.22-5.314 11.65-5.314.86 0 1.71.046 2.53.132l.27 10.345Z"/><path fill="#39393B" d="M1189.65 539.447c0 4.031-1.58 7.299-3.53 7.299-1.94 0-3.52-3.268-3.52-7.299 0-4.03 1.58-7.299 3.52-7.299 1.95 0 3.53 3.269 3.53 7.299ZM1224.04 539.447c0 4.031-1.57 7.299-3.52 7.299-1.94 0-3.52-3.268-3.52-7.299 0-4.03 1.58-7.299 3.52-7.299 1.95 0 3.52 3.269 3.52 7.299ZM1210.55 554.824c1.67 0 2.8-.323 2.89-.351.39-.116.72-.412.91-.824.19-.409.22-.891.09-1.331l-5.3-17.578c-.26-.864-1.07-1.323-1.82-1.019-.74.299-1.14 1.248-.88 2.112l4.71 15.652c-1.43.082-3.66-.093-5.85-1.462-.7-.436-1.57-.133-1.94.673-.37.805-.11 1.813.58 2.245a12.43 12.43 0 0 0 6.61 1.883ZM1151.32 582.063c-.17.452-4.74 12.742-11.31 16.353-.01 0-.01.008-.01.008a.457.457 0 0 1-.04-.039c-.53-2.805-1.01-5.591-1.45-8.346.24-.046 6.88-1.389 12.81-7.976Z"/><path fill="#EA9B7A" d="M1144.95 554.07s-13.9-21.648-24.09-4.638c-8.39 14.018 7.41 51.346 24.41 37.709l-.32-33.071Z"/><path fill="#fff" d="M1130.54 587.388c-5.31 2.871-9 9.201-9 16.434 0 9.944 6.98 18.037 15.55 18.037 8.59 0 15.56-8.093 15.56-18.037 0-7.144-3.6-13.326-8.8-16.248-1.79-1-3.76-1.618-5.83-1.758-.37-1.113-.69-2.249-1.11-3.342.07 0 .12-.008.19-.008 2.55 0 4.98.603 7.19 1.7 6.59 3.253 11.22 10.839 11.22 19.656 0 11.773-8.26 21.356-18.42 21.356-10.15 0-18.41-9.579-18.41-21.356 0-7.929 3.85-14.995 9.4-18.679.8.824 1.61 1.606 2.46 2.245Z"/><path fill="#39393B" d="M1143.05 580.952c.05 0 .1-.004.15-.011.79-.102 1.36-.919 1.27-1.829-1.74-18.415-15.1-24.788-15.67-25.052-.73-.343-1.56.078-1.85.926-.3.848.06 1.813.79 2.155.53.245 12.34 5.961 13.89 22.333.08.852.69 1.478 1.42 1.478Z"/><path fill="#39393B" d="M1129.7 570.898c.31 0 .63-.121.9-.37 1.24-1.167 5.01-4.042 7.48-3.307.77.226 1.54-.307 1.74-1.194.2-.887-.26-1.79-1.03-2.02-4.3-1.276-9.42 3.409-10 3.95-.61.579-.7 1.622-.2 2.334.28.397.69.607 1.11.607Z"/><path fill="#217C58" d="M1034.75 896.746s4.57 11.419-.7 36.393c-5.27 24.975-14.11 40.619-14.11 40.619s-22.08-38.868 14.81-77.012Z"/><path fill="#EA9B7A" d="M937.32 872.878c.054 1.257.131 2.513.228 3.755.138 1.233.289 2.459.467 3.684.09.599.174 1.222.288 1.809l.356 1.763c.953 4.75 2.406 8.972 4.017 12.87.822 1.856 1.698 3.766 2.6 5.4.46.825.913 1.689 1.386 2.487l1.416 2.295c3.836 6.034 7.876 10.528 11.825 14.399 3.957 3.852 7.876 6.996 11.715 9.848 1.919 1.435 3.832 2.735 5.728 4.007a178.158 178.158 0 0 0 5.648 3.626c3.761 2.268 7.456 4.381 11.147 6.334 7.379 3.91 14.709 7.221 22.009 10.233 7.3 2.996 14.58 5.668 21.85 8.116a442.584 442.584 0 0 0 21.81 6.812c7.29 2.078 14.58 3.949 21.9 5.735 2.67.638 6.3 1.051 10.13 1.389 5.84.521 12.18.887 16.33 1.696 1-6.995-4.1-12.648-3.09-19.644 1.17-8.178 2.35-16.375 3.63-24.542l-2.92-7.307a389.67 389.67 0 0 1-13.31-3.949c-.14-.046-.27-.081-.41-.128a381.673 381.673 0 0 1-19.26-6.68 400.304 400.304 0 0 1-19.24-7.762 302.41 302.41 0 0 1-18.5-8.867c-5.99-3.144-11.81-6.463-17.22-9.995-2.7-1.763-5.33-3.556-7.76-5.463-1.2-.941-2.4-1.879-3.52-2.844a66.963 66.963 0 0 1-3.18-2.93 42.898 42.898 0 0 1-4.085-4.486c-.338-.42-.647-.832-.929-1.229l-.05-.07 1.04-1.654 1.864-2.96c.96-1.541 1.92-3.09 2.97-4.665 2.08-3.136 4.1-6.26 6.21-9.404l6.41-9.427c4.35-6.276 8.68-12.602 13.14-18.885l3.32-4.724 3.37-4.708 4.72-6.614 2.01-2.817 2.45-3.412 4.32-6.018 6.83-9.4c4.54-6.28 9.09-12.548 13.68-18.804l27.41-37.491.17-.237c11.55-15.808 9.86-39.482-3.76-52.874-13.52-13.279-33.71-11.45-45.32 3.957l-7.19 9.578-7.05 9.56c-2.35 3.19-4.68 6.404-6.99 9.618-2.33 3.206-4.66 6.419-6.96 9.66-4.61 6.463-9.19 12.968-13.76 19.485l-6.8 9.831-.9 1.319-5.865 8.583a933.243 933.243 0 0 0-6.725 9.972l-3.342 5.011-1.5 2.288-1.826 2.778a1336.616 1336.616 0 0 0-13.201 20.422l-6.497 10.47c-2.161 3.521-4.302 7.147-6.446 10.719-1.074 1.754-2.141 3.634-3.208 5.505l-3.188 5.587-.802 1.404-.201.347-.101.179-.157.288-.661 1.252c-.443.841-.866 1.689-1.302 2.525-.212.409-.423.884-.628 1.347l-.617 1.381c-.406.937-.812 1.836-1.195 2.817a144.706 144.706 0 0 0-1.087 3.054l-.517 1.541c-.161.525-.322 1.085-.48 1.634a143.307 143.307 0 0 0-.882 3.311c-.272 1.136-.487 2.33-.708 3.497-.215 1.187-.43 2.346-.564 3.595a112.665 112.665 0 0 0-.383 3.685c-.094 1.241-.127 2.505-.161 3.758l-.02 1.876c.014.641.05 1.268.074 1.898Z"/><path fill="#000" d="M1078.83 919.1s-5.25-5.926-11.69-4.381c0 0-15.22 29.931-7.33 55.601 0 0 3.54 3.697 10.94 2.977 0 0-7.37-30.869 8.08-54.197Z"/><path fill="#000" d="M1049.27 945.221c.48 9.836 7.74 17.364 16.22 16.816 8.49-.549 14.98-8.972 14.51-18.808-.48-9.835-7.74-17.364-16.22-16.815-8.49.549-14.98 8.972-14.51 18.807Z"/><path fill="#fff" d="M1065.28 957.542c6.33-.412 11.19-6.719 10.84-14.065-.35-7.345-5.79-12.983-12.13-12.574-6.34.412-11.2 6.719-10.85 14.065.36 7.345 5.8 12.987 12.14 12.574Z"/><path fill="#D46A43" d="M1091.8 976.518c5.84.521 12.18.887 16.33 1.696 1-6.995-4.1-12.648-3.09-19.644 1.17-8.178 2.35-16.372 3.63-24.542l-2.92-7.307a391.949 391.949 0 0 1-13.31-3.949c-.14-.047-.27-.082-.41-.128-1.8 11.629-4.63 36-.23 53.874Z"/><path fill="#21B573" d="M1106.13 697.641c3.12 11.687.74 24.418-6.17 33.662-12.97 17.36-37.73 50.886-51.46 71.942-19.17 29.418-43.43 66.329-43.43 66.329s17.45 17.784 29.68 27.172c0 0-29.94 29.328-14.81 77.012 0 0-53.776-34.261-81.001-67.192-19.879-24.048-14.365-54.053 3.796-82.751 9.164-14.481 79.855-107.884 104.955-140.55 9.27-12.061 23.88-16.897 37.06-11.63 8.41 3.37 17.3 10.673 21.38 26.006Z"/><path fill="#EA9B7A" d="M1093.04 931.525s2.11-14.259 5.29-27.974c2.66-11.438 8.03-14.975 8.03-14.975 1.16 7.782 2.81 12.474 3.03 26.647 0 0 2.98-3.209 8.41-1.941 5.44 1.272 24.18 5.883 24.42 10.898.55 11.469-22.93 6.023-22.93 6.023s25.13 5.489 24.49 13.527c-.51 6.506-23.27 7.739-23.27 7.739s21.93.233 19.3 9.361c-2.8 9.699-23.14 3.591-23.14 3.591s14.65 8.155 13.24 11.579c-2.04 4.929-10.72 6.318-24.76 2.35-14.37-4.066-12.11-46.825-12.11-46.825Z"/><path fill="#217C58" d="M1067.12 782.252c-.53.094-1.1-.066-1.54-.502-.82-.801-.92-2.217-.23-3.17l32.47-44.7c.7-.95 1.92-1.07 2.74-.273.82.802.92 2.218.23 3.171l-32.47 44.7c-.32.436-.75.697-1.2.774Z"/><path fill="#217C58" d="m1102.43 749.12-12.27 2.182c-1.06.187-2.05-.653-2.21-1.883-.16-1.229.56-2.377 1.62-2.564l12.28-2.183c1.06-.186 2.05.654 2.21 1.884.16 1.229-.57 2.377-1.63 2.564ZM970.27 879.259c.198.304.479.498.778.564.339.074.695-.008.99-.268 9.262-7.98 25.738-8.828 33.902-8.711-.34-.417-.64-.833-.93-1.23l-.05-.066 1.04-1.657c-.74-.012-1.54-.02-2.41-.012-5.113-5.692-18.871-11.213-19.468-11.45-.661-.265-1.383.14-1.604.91-.228.766.121 1.595.785 1.86.124.05 10.6 4.252 16.362 8.797-8.98.455-21.261 2.427-29.127 9.209-.567.482-.688 1.4-.268 2.054Z"/><path fill="#CED3E6" d="M452.822 1964c236.035 0 427.379-13.54 427.379-30.24s-191.344-30.24-427.379-30.24c-236.035 0-427.379 13.54-427.379 30.24S216.787 1964 452.822 1964Z"/><path fill="#EA9B7A" d="m515.205 988.801.53 2.949.396 2.362.705 4.474c.432 2.904.835 5.764 1.204 8.594.718 5.67 1.312 11.24 1.843 16.81a644.394 644.394 0 0 1 2.258 33.19c.423 11.03.574 22.03.466 33.04-.137 11-.537 21.99-1.178 32.96-.664 10.98-1.64 21.94-2.832 32.87-.667 5.45-1.258 10.92-2.053 16.36-.386 2.72-.739 5.45-1.155 8.16l-1.295 8.15c-.416 2.71-.933 5.41-1.413 8.12-.5 2.7-.949 5.41-1.493 8.1-1.087 5.38-2.117 10.78-3.349 16.13-.604 2.68-1.168 5.36-1.809 8.03l-1.949 8-.487 1.99-.245 1-.52 2.04c-.493 1.9-1.013 3.54-1.567 5.23a90.014 90.014 0 0 1-1.695 4.56c-.587 1.47-1.161 2.74-1.761 4.07l-.886 1.85c-.302.62-.601 1.21-.893 1.76l-.896 1.7-.886 1.58c-.604 1.08-1.177 2-1.775 3-2.352 3.8-4.651 7-6.899 9.91a137.419 137.419 0 0 1-6.611 7.9c-4.325 4.81-8.52 8.92-12.664 12.75-8.272 7.61-16.355 14.04-24.432 20.04-16.121 11.95-32.114 22.26-48.228 31.94-16.083 9.68-32.248 18.64-48.502 27.2-8.141 4.25-16.299 8.4-24.493 12.46-4.097 2.03-8.201 4.05-12.332 6.03l-6.228 2.93-6.416 2.97-28.124-73.68 5.456-3.24 5.608-3.37 11.251-6.8c7.493-4.57 14.956-9.22 22.362-13.95 14.832-9.4 29.48-19.05 43.741-28.96 7.127-4.95 14.124-10.03 20.976-15.13 6.846-5.12 13.513-10.33 19.829-15.62 6.295-5.29 12.298-10.67 17.426-15.88 2.543-2.6 4.862-5.16 6.701-7.45 1.822-2.24 3.184-4.35 3.46-5.04.003-.06.063-.15.03-.14-.007-.01-.014-.01-.014-.01-.023.02-.047.04-.063.07l-.088.13c-.04.06-.063.11-.104.19-.117.2-.181.35-.335.68-.104.25-.292.68-.423 1.08-.191.5-.326.96-.527 1.65l-.124.49c-.034.15-.003 0 .007-.06l.04-.2.164-.83.326-1.66 1.315-6.62c.43-2.21.792-4.45 1.195-6.67.829-4.43 1.473-8.92 2.181-13.38.356-2.24.621-4.49.94-6.73.298-2.25.634-4.49.875-6.75 1.131-9 2-18.06 2.732-27.14.668-9.09 1.117-18.21 1.443-27.33.272-9.14.335-18.28.205-27.41-.104-9.13-.423-18.26-.967-27.33-.51-9.07-1.221-18.11-2.164-27-.477-4.43-.997-8.84-1.591-13.13-.282-2.14-.577-4.25-.882-6.3l-.463-2.96-.353-2.09 87.499-22.639Z"/><path fill="#A92F4B" d="m421.693 1013.93-15.986 140.46c23.852 15.49 46.486 26.58 67.267 30.97l-51.281-171.43Z"/><path fill="#D46A43" d="M455.61 1231.03c-.342 0-.691-.09-1.013-.3-12.413-7.84-29.493-14.4-29.664-14.47-1.114-.42-1.721-1.82-1.352-3.11.369-1.29 1.563-1.99 2.684-1.57.715.28 17.617 6.77 30.366 14.83 1.03.65 1.412 2.15.849 3.34-.386.82-1.115 1.28-1.87 1.28Z"/><path fill="#D46A43" d="M426.778 1216.86c-1.067 0-1.989-.94-2.11-2.2-.131-1.35.711-2.57 1.879-2.71 8.812-1.14 20.389-1.21 20.879-1.21h.01c1.171 0 2.121 1.09 2.124 2.45.003 1.36-.943 2.47-2.117 2.47-.118 0-11.843.07-20.426 1.18-.081.01-.161.02-.239.02Z"/><path fill="#EA9B7A" d="m197.006 1793.48-22.03 41.73-41.972-21.54 19.053-44.83 44.949 24.64Z"/><path fill="#FAAF3A" d="m.084 1837.37 158.752 81.47c2.131-1.87 4.121-5.08 5.99-9.15 6.936-15.06 12.141-42.1 16.023-58.85.443-1.96.88-3.78 1.299-5.41.708-2.77 1.359-5.04 1.97-6.64 4.882-12.78-5.718-15.61-5.718-15.61-23.037 10.02-30.771-26.7-44.822-23.17 0 0-6.026 1.46-23.65 8.13-17.614 6.69-42.369 4.36-63.996 3.85-27.916-.68-38.952 7.3-43.254 14.49-3.403 5.7-2.594 10.89-2.594 10.89Z"/><path fill="#C77E2E" d="m.084 1837.37 158.752 81.48c2.131-1.88 4.121-5.09 5.99-9.16L2.681 1826.48c-3.406 5.7-2.597 10.89-2.597 10.89Z"/><path fill="#C77E2E" d="m142.639 1910.53 4.715 2.42c-2.325-8.64-3.077-20.47 2.718-33.85 7.708-17.79 21.802-25.22 30.778-28.25.443-1.96.879-3.78 1.299-5.41-9.433 2.62-26.533 10.2-35.771 31.51-5.534 12.77-5.557 24.41-3.739 33.58Z"/><path fill="#fff" d="M108.481 1820.39c1.175.6 2.594.23 3.416-1 .97-1.45.742-3.53-.507-4.66l-8.828-7.94c-1.245-1.13-3.044-.86-4.014.59-.97 1.44-.741 3.53.507 4.65l8.829 7.94c.188.17.389.31.597.42ZM121.987 1815.87c1.174.61 2.594.23 3.416-1 .97-1.44.742-3.53-.507-4.65l-8.828-7.94c-1.245-1.13-3.044-.86-4.014.58-.969 1.45-.741 3.54.507 4.66l8.829 7.94c.188.17.386.31.597.41ZM96.008 1821.98c1.175.61 2.594.23 3.416-1 .97-1.44.742-3.53-.506-4.65l-8.829-7.94c-1.245-1.13-3.043-.86-4.013.58-.97 1.45-.742 3.54.507 4.66l8.825 7.94c.191.17.392.31.6.41ZM83.641 1823.32c1.175.6 2.594.23 3.416-1 .97-1.45.742-3.53-.506-4.65l-8.83-7.95c-1.247-1.13-3.046-.86-4.012.59-.97 1.45-.742 3.53.506 4.65l8.829 7.95c.188.17.39.3.597.41ZM70.56 1823.71c1.174.61 2.594.23 3.416-1 .97-1.45.742-3.53-.507-4.65l-8.825-7.95c-1.249-1.12-3.047-.86-4.014.59-.97 1.45-.741 3.53.507 4.65l8.829 7.95c.184.17.382.3.594.41ZM56.897 1822.76c1.175.6 2.594.22 3.416-1.01.97-1.44.742-3.53-.507-4.65l-8.828-7.94c-1.248-1.13-3.044-.86-4.014.58-.97 1.45-.741 3.54.507 4.66l8.829 7.94c.188.17.386.31.597.42Z"/><path fill="#39393B" d="M295.576 1390.92c14.732-16.81 130.968-54.4 208.144-29.41 8.843 19.73 20.087 69.73-7.56 115.97-101.448 19.22-158.064 58.79-158.064 58.79s-35.97 96.38-57.345 131.75c-21.372 35.38-70.392 147.7-70.392 147.7l-73.847-36.58s118.957-342.45 159.064-388.22Z"/><path fill="#585859" d="M218.261 1794.53c-.272 0-.547-.07-.815-.19l-72.274-34.84c-1.084-.52-1.597-1.96-1.148-3.22.45-1.26 1.691-1.85 2.779-1.33l72.274 34.83c1.084.53 1.597 1.97 1.147 3.23-.339.94-1.131 1.52-1.963 1.52Z"/><path fill="#585859" d="M206.112 1787.48a1.82 1.82 0 0 1-.782-.17c-1.091-.5-1.624-1.93-1.191-3.2.147-.44 15.271-44.18 50.546-106.25 35.036-61.64 71.673-165.84 72.039-166.89.443-1.26 1.681-1.86 2.768-1.35 1.088.51 1.611 1.95 1.171 3.21-.369 1.05-37.16 105.69-72.428 167.75-35.036 61.64-49.996 104.92-50.143 105.34-.333.97-1.131 1.56-1.98 1.56Z"/><path fill="#EA9B7A" d="m383.401 1800.84-5.573 48.49h-45.902l1.772-49.94 49.703 1.45Z"/><path fill="#FAAF3A" d="M218.659 1933.38h173.608c1.292-2.72 1.993-6.58 2.285-11.17 1.084-17.03-3.597-44.2-5.889-61.34-.279-2-.517-3.87-.705-5.56-.319-2.86-.517-5.25-.517-6.99 0-13.99-10.674-11.59-10.674-11.59-17.567 19.98-37.459-9.98-49.076-.15 0 0-5.004 4.16-18.789 18.53-13.775 14.38-37.221 23.87-57.177 33.55-25.764 12.49-33.066 24.96-34.496 33.55-1.124 6.8 1.43 11.17 1.43 11.17Z"/><path fill="#C77E2E" d="M218.659 1933.38h173.608c1.292-2.72 1.993-6.58 2.285-11.17H217.233c-1.128 6.8 1.426 11.17 1.426 11.17Z"/><path fill="#C77E2E" d="M374.551 1933.38h5.158c-5.148-6.81-9.963-17.28-9.332-32.23.835-19.89 11.13-33.29 18.281-40.28-.278-2-.517-3.87-.705-5.56-7.708 6.83-20.697 21.79-21.711 45.61-.597 14.28 3.443 24.93 8.309 32.46Z"/><path fill="#fff" d="M311.843 1866.99c1.285 0 2.45-1.01 2.775-2.52.383-1.78-.553-3.58-2.087-4.02l-10.845-3.12c-1.534-.44-3.084.64-3.467 2.42-.379 1.78.554 3.58 2.087 4.02l10.846 3.12c.231.06.463.1.691.1ZM322.622 1856.52c1.282 0 2.453-1.01 2.776-2.53.382-1.77-.554-3.57-2.088-4.01l-10.845-3.12c-1.534-.45-3.084.64-3.466 2.42-.38 1.77.553 3.57 2.087 4.01l10.845 3.12c.232.07.463.11.691.11ZM300.999 1874.29c1.281 0 2.449-1 2.775-2.52.382-1.78-.554-3.57-2.088-4.02l-10.845-3.12c-1.534-.44-3.084.64-3.466 2.42-.383 1.78.553 3.58 2.087 4.02l10.845 3.12c.232.07.463.1.692.1ZM290.156 1881.32c1.285 0 2.449-1.01 2.775-2.52.382-1.78-.554-3.58-2.087-4.02l-10.846-3.12c-1.533-.44-3.084.64-3.466 2.42-.379 1.78.553 3.58 2.087 4.02l10.845 3.12c.232.07.463.1.692.1ZM278.331 1887.82c1.286 0 2.45-1.02 2.776-2.52.379-1.78-.554-3.58-2.088-4.02l-10.845-3.12c-1.534-.44-3.087.64-3.466 2.42-.38 1.78.553 3.58 2.087 4.02l10.845 3.12c.232.07.463.1.691.1ZM265.505 1893.36c1.285 0 2.453-1.01 2.775-2.52.383-1.77-.553-3.57-2.087-4.01l-10.845-3.13c-1.534-.44-3.087.65-3.467 2.42-.379 1.78.554 3.58 2.088 4.02l10.845 3.12c.232.07.463.1.691.1Z"/><path fill="#DF615C" d="M731.223 1399.68c-.067.81-.168 1.59-.245 2.34-.352.33-.698.63-1.034.92-26.945 23.98-58.385 39.92-90.505 48.98-1.127.32-2.245.63-3.382.92a255.135 255.135 0 0 1-16.564 3.83 250.237 250.237 0 0 1-22.395 3.29c-6.571.68-13.108 1.08-19.561 1.21-27.771.59-54.13-3.61-76.408-11.84-.849-.31-1.698-.63-2.54-.97a143.941 143.941 0 0 1-16.718-7.7c-.808-.43-1.607-.86-2.382-1.32a121.94 121.94 0 0 1-9.339-5.89c.453-12.42.597-27.28.486-43.17-.01-1.31.001-2.63-.023-3.96-.185-22.1-.782-45.93-1.523-67.74a94.067 94.067 0 0 1-.101-3.08 3797.04 3797.04 0 0 0-1.289-31.84c-.06-1.02-.094-2.06-.144-3.03-.369-8.15-.742-15.4-1.084-21.36-.084-1.51-.161-3.01-.268-4.49-.057-1.18-.128-2.33-.195-3.48v-.01c-.268-4.21-.58-8.3-.882-12.35-.464-6.45-1-12.71-1.574-18.81-.658-6.93-1.363-13.68-2.111-20.21-.825-7-1.681-13.75-2.591-20.28a933.795 933.795 0 0 0-3.046-20.08c-3.735-22.66-7.933-42.1-12.124-58.89-.302-1.15-.581-2.27-.876-3.4a689.005 689.005 0 0 0-5.047-18.71c-.369-1.29-.732-2.54-1.084-3.79-9.312-32.11-17.043-51.48-17.171-64.48-.268-27.04 16.775-35.72 34.553-46.614.843-.518 1.681-1.016 2.507-1.541 2.996-1.871 6-3.844 8.909-5.988a62.404 62.404 0 0 0 3.634-2.821c.826-.673 1.624-1.353 2.4-2.019 7.06-6.291 13.234-14.212 17.238-25.402l67.227-16.426s6.443 3.832 17.204 7.197c1.017.323 2.054.634 3.154.926a85.3 85.3 0 0 0 3.953.996c.849.207 1.735.389 2.635.564.674.148 1.379.292 2.093.409 6.437 1.171 13.9 1.91 22.312 1.716.842-.02 1.702-.039 2.567-.09.598-.031 1.202-.058 1.826-.089 5.704-.331 11.147.506 16.362 2.459h.01c1 .361 1.993.77 2.97 1.237 21.838 10.123 39.009 40.381 50.14 86.866 3.087 12.92 6.134 25.5 9.087 37.81.319 1.35.641 2.7.96 4.02.647 2.71 1.278 5.38 1.919 8.06l.01.01c.245.98.463 1.94.688 2.92a2971.71 2971.71 0 0 1 6.631 28.25v.02c.228.98.453 1.98.681 2.98.01.01.01.01.01.02.128.53.245 1.04.363 1.56l1.221 5.43c7.436 33.28 13.664 65.32 17.641 97.66.825 6.72 1.563 13.46 2.194 20.23.161 1.65.329 3.48.497 5.52.033.37.067.75.111 1.13.06.7.127 1.41.194 2.16.034.36.067.73.094 1.1 1.077 12.24 2.463 29.22 3.819 47.92.077.98.161 1.99.218 2.98 3.124 43.6 5.899 95.43 3.688 118.23Z"/><path fill="#A92F4B" d="M526.677 971.773c26.862-6.563 41.345-45.497 41.963-47.186.412-1.132-.044-2.439-1.021-2.918-.976-.479-2.104.047-2.516 1.183-.148.401-14.879 40.031-40.758 44.898-25.466 4.801-35.61-16.936-36.03-17.862-.489-1.085-1.64-1.517-2.59-.941-.936.568-1.305 1.906-.819 2.999.114.257 11.778 25.539 40.053 20.208a46.209 46.209 0 0 0 1.718-.381ZM553.905 1385.89c25.241-6.17 51.314-21.19 77.374-44.8 35.761-32.42 59.258-70.01 59.489-70.38.621-1 .423-2.39-.436-3.11-.863-.72-2.064-.49-2.681.5-.232.38-23.456 37.52-58.808 69.54-32.426 29.37-82.015 60.33-134.105 41.03-1.01-.37-2.091.27-2.413 1.44-.325 1.17.235 2.43 1.245 2.8 19.224 7.12 39.499 8.07 60.335 2.98Z"/><path fill="#A92F4B" d="M538.799 1363.56c.01-.01.02-.01.03-.01 39.302-10.37 60.419-79.16 61.298-82.09.349-1.16-.181-2.43-1.181-2.83-.997-.41-2.094.2-2.447 1.37-.208.69-21.301 69.38-58.522 79.21-1.034.27-1.681 1.46-1.446 2.66.234 1.19 1.244 1.94 2.268 1.69ZM466.215 1254.78c4.872-3.88 9.459-8.73 13.073-14.2 8.759-13.25 9.936-26.78 3.306-38.12-1.326-2.25-2.554-4.34-3.705-6.27-13.516-22.87-14.929-25.26-13.745-62.88.376-11.84-2.506-21.15-8.543-27.64-4.067-4.38-9.034-6.93-13.789-8.39.296 1.13.581 2.25.883 3.41 3.95 1.42 7.913 3.65 11.171 7.17 5.466 5.88 8.064 14.41 7.721 25.35-1.221 38.58.537 41.55 14.198 64.66 1.138 1.94 2.366 4.01 3.678 6.27 8.047 13.74 1.443 27.6-3.218 34.64-3.111 4.71-7.03 8.99-11.232 12.52l.004.01c.064 1.15.141 2.3.198 3.47ZM723.491 1230.56c-5.224 3.52-10.305 5.77-15.144 6.94-13.057 3.2-24.348-1.38-31.633-9.87-8.692-10.15-12.074-27.6-1.709-41.3 10.01-13.25 5.705-20.31.262-29.26-5.359-8.81-12.04-19.76-5.097-39.01 3.987-11.1 10.137-18.67 18.255-22.47 4.063-1.92 8.194-2.7 12.063-2.82.229.99.453 1.98.682 2.98-3.796.04-7.859.74-11.802 2.6-7.453 3.5-13.124 10.54-16.842 20.87-6.393 17.72-.682 27.08 4.839 36.14 5.61 9.21 10.912 17.93-.43 32.94-8.356 11.05-7.705 26.36 1.597 37.24 9.406 10.98 26.141 14.77 44.674 1.76.06.7.128 1.42.195 2.16.03.36.063.73.09 1.1ZM548.198 1241.74c6.48 12.9 20.49 19.11 33.332 14.77a50.626 50.626 0 0 0 6.043-2.53c16.47-8.18 35.483-27.43 42.755-49.84 5.61-17.29 3.885-34.97-4.994-51.13-13.147-23.9-20.771-46.09-22.053-64.16-.758-10.69-7.097-18.99-16.141-21.14-9.08-2.14-17.751 2.59-22.08 12.11-.231.5-.463 1-.691 1.52-11.074 25.06-4.463 43.18 1.372 59.17 6.118 16.72 11.386 31.17-5.312 49.93-15.197 17.09-19.778 36.26-12.231 51.3Zm14.013-49.17c17.973-20.18 12.097-36.24 5.889-53.24-5.889-16.13-11.979-32.82-1.442-56.64l.661-1.49c2.013-4.39 5.07-7.62 8.684-9.42 3.228-1.6 6.876-2.06 10.617-1.16 7.913 1.88 13.446 9.13 14.111 18.48.755 10.5 3.426 21.99 8.01 34.4 3.631 9.83 8.446 20.2 14.439 31.1 8.547 15.56 10.141 31.87 4.748 48.5-7.895 24.34-30.157 44.83-47.113 50.56-11.728 3.97-24.51-1.67-30.395-13.41-6.916-13.79-2.5-31.6 11.791-47.68ZM436.682 1074.78c.355 1.25.714 2.5 1.08 3.79 8.95 4.16 17.205 3.99 23.808 2.38 3.346-.82 6.269-2.02 8.645-3.21 16.399-8.21 27.543-25.82 27.268-36.48-.101-4.01-1.836-6.92-4.883-8.21-17.637-7.45-24.845-20.97-27.516-51.668-.728-8.338-3.591-14.8-8.51-19.243-.836.521-1.671 1.031-2.507 1.537.215.175.416.354.634.529 4.521 3.918 7.161 9.796 7.833 17.465 2.791 32.08 10.432 46.25 29.19 54.17 2.084.89 3.131 2.68 3.198 5.51.245 9.69-10.704 26.14-25.721 33.67-7 3.5-19.023 6.97-32.519-.24ZM527.779 1079.72c3.158 3.98 8.268 5.46 13.318 4.22 1.682-.4 3.353-1.13 4.95-2.14 8.124-5.22 11.144-16.1 8.074-29.11-3.181-13.55 2.892-20.02 8.755-26.3 5.154-5.49 10.479-11.18 6.275-20.91-3.232-7.481-9.181-10.975-17.188-10.111-9.416 1.043-17.677 7.731-22.114 17.951-7.51 17.24-14.707 50.52-2.07 66.4Zm4.356-65.06c3.56-8.19 10.097-14.07 17.452-15.871.866-.21 1.738-.366 2.614-.455 6.97-.763 11.913 2.096 14.664 8.466 3.346 7.74-.459 11.8-5.721 17.41-5.832 6.23-13.087 13.97-9.483 29.27 2.725 11.59.164 21.22-6.845 25.71-5.272 3.39-11.789 2.75-15.148-1.48-11.758-14.79-4.728-46.52 2.467-63.05ZM490.02 1185.02c1.43 7.86 4.158 14.23 8.863 17.44 7.05 4.8 13.973 6.66 19.06 5.42 2.204-.54 4.07-1.66 5.459-3.38 4.151-5.17 2.789-14.48-3.771-25.51-7.598-12.79-.923-20.93 6.144-29.57 6.02-7.34 12.245-14.93 8.748-25.32-2.52-7.46-8.295-10.93-16.711-10.06-14.131 1.46-25.785 14.61-27.684 31.3-1.47 12.94-2.232 27.98-.108 39.68Zm2.651-39.29c.806-7.02 3.473-13.37 7.389-18.32 3.916-4.94 9.061-8.48 14.812-9.88a23.96 23.96 0 0 1 3.171-.55c7.363-.75 11.97 1.91 14.081 8.19 2.919 8.64-2.48 15.23-8.202 22.21-7.114 8.67-15.181 18.52-6.395 33.29 5.808 9.79 7.265 17.73 3.986 21.79-3.658 4.57-12.426 3.51-21.328-2.57-8.188-5.59-10.856-24.81-7.514-54.16ZM469.092 1318.58c10.299-4.32 13.755 1.66 18.775 10.33 4.486 7.75 10.057 17.39 22.59 20.81 4.255 1.16 8.359 1.13 12.208.19 10.101-2.47 18.342-11.2 22.302-21.02 5.339-13.18 2.983-26.36-6.168-34.36-3.983-3.48-6.087-6.77-6.463-10.06-.537-4.69 2.49-9.2 5.705-13.98 4.459-6.65 9.516-14.18 5.647-23.8-3.043-7.6-8.785-12.11-16.161-12.74-12.281-1.03-26.039 8.59-35.069 24.52-7.708 13.61-17.477 19.56-24.899 22.15.047.99.09 2.01.144 3.03 7.959-2.64 18.59-8.9 26.882-23.54 6.852-12.07 16.466-20.31 25.875-22.61 2.319-.57 4.624-.78 6.883-.59 6.406.55 11.386 4.46 14.033 11.04 3.201 7.97-.96 14.16-5.359 20.72-3.402 5.05-6.902 10.27-6.235 16.18.477 4.13 2.92 8.07 7.467 12.06 9.711 8.49 9.157 21.43 5.402 30.73-5.043 12.44-17.513 23.03-31.613 19.19-11.55-3.14-16.594-11.88-21.054-19.56-5.003-8.66-9.375-16.24-20.999-11.77.033 1.02.06 2.05.107 3.08Z"/><path fill="#A92F4B" d="M599.553 1282.54c.876 5.17 3.547 8.7 7.503 9.95 2.124.67 4.48.67 6.96.06 5.54-1.35 11.604-5.72 16.59-12.26 5.094-6.7 10.194-5.85 17.238-4.67 6.842 1.13 15.359 2.56 26.241-3.17 12.087-6.36 14.104-19.6 10.869-29.21-2.939-8.68-10.892-16.21-21.436-12.16-7.537 2.88-12.463 7.34-16.828 11.26-6.634 5.99-12.359 11.15-25.453 10.24-6.523-.46-11.731 1.56-15.463 6-7.255 8.62-6.285 23.18-6.241 23.79.016.06.01.11.02.17Zm2.53-.5c-.057-1.11-.654-14.04 5.533-21.4 3.198-3.78 7.729-5.5 13.47-5.09 14.064.98 20.443-4.77 27.188-10.86 4.399-3.96 8.942-8.06 16.06-10.8 8.959-3.42 15.731 3.02 18.231 10.45 2.825 8.33 1.03 19.85-9.53 25.41-10.201 5.37-17.973 4.09-24.819 2.93-3.953-.65-7.597-1.25-11.08-.4-2.906.71-5.708 2.44-8.456 6.04-6.466 8.5-15.084 13.14-20.953 11.31-2.983-.94-4.939-3.56-5.644-7.59ZM711.894 1354.12c-8.805 16.87-5.087 35.67 3.617 44.11 4.195 4.06 9.161 5.62 14.429 4.71.353-.3.688-.6 1.037-.92.088-.75.178-1.53.252-2.35-5.154 1.45-9.996.22-14.08-3.73-7.866-7.62-11.168-24.78-3.067-40.28 8.214-15.73 1.745-20.58-5.108-25.73-6.292-4.73-12.808-9.62-11.825-23.73.49-6.97 2.913-12.56 7.238-16.64 3.765-3.56 8.547-5.61 13.262-6.76 3.496-.86 6.939-1.21 9.885-1.34-.063-1.01-.14-2-.214-2.99-7.289.3-17.443 2.05-24.554 8.78-4.882 4.6-7.627 10.89-8.171 18.7-1.104 15.89 6.712 21.74 12.99 26.46 6.758 5.1 11.231 8.46 4.309 21.71ZM498.592 1448.36c.845.34 1.691.66 2.543.97.094-4.59 1.054-14.44 6.91-21.03 4.889-5.51 12.204-7.67 21.731-6.47 12.651 1.63 18.389 7.71 23.436 13.1 8.5 9.03 14.382 13.31 36.539-3.48 8.43-6.4 16.238-10.12 23.054-11.78 11.016-2.69 19.479-.05 23.909 5.24 5.449 6.51 5.171 16.79-.655 27.94 1.138-.29 2.259-.61 3.39-.93 5.265-11.44 5.01-22.05-.89-29.09-7.889-9.4-26.959-11.5-50.207 6.12-21.58 16.37-26.026 11.63-33.405 3.79-5.078-5.4-11.406-12.13-24.886-13.86-10.342-1.31-18.352 1.15-23.815 7.31-6.188 6.98-7.46 16.84-7.654 22.17ZM642.629 1400.5c3.219 7.98 13.822 14.56 23.725 12.14.426-.11.862-.23 1.282-.38 15.107-4.95 23.798-19.13 24.462-39.95.517-16.09-.771-31.91-13.637-38.74-.07-.02-.144-.07-.225-.08-.594-.17-14.815-4.18-23.677 2.81-3.722 2.93-5.94 7.36-6.594 13.13-1.168 10.21 1.5 16.46 3.44 21.01 2.406 5.6 3.496 8.16-3.893 14.01-5.466 4.34-7.242 10.19-4.883 16.05Zm6.329-13.58c8.789-6.96 7.527-11.29 4.752-17.79-1.896-4.46-4.265-9.99-3.205-19.3.561-4.91 2.41-8.63 5.5-11.06 7.547-5.95 20.188-2.78 21.51-2.42 9.194 4.94 12.684 15.35 12.023 35.85-.446 13.75-4.721 31.35-22.59 37.22-8.886 2.89-19.131-3.09-21.99-10.17-1.835-4.55-.453-8.81 4-12.33ZM479.495 1439.34c.778.46 1.574.89 2.372 1.32 5.376-7.29 7.587-15.21 6.537-23.51-1.678-13.48-11.392-24.73-17.785-30.81.02 1.33.024 2.65.027 3.96 5.99 6.1 13.819 15.99 15.228 27.27.94 7.54-1.141 14.76-6.161 21.48-.07.09-.141.2-.218.29Z"/><path fill="#39393B" d="M430.062 791.903s-38.1-9.326-38.979-26.177c-.815-15.57 15.037-13.917 15.037-13.917s-18.5-35.156-7.886-42.073c10.614-6.918 23.976 12.792 23.976 12.792s-9.704-41.692 3.259-38.701c12.962 2.992 14.627 25.909 14.627 25.909s43.049-17.781 67.529-9.249c16.661 5.809 20.597 24.41 20.597 24.41s9.909-6.855 16.949-2.626c7.017 4.214.604 18.535.604 18.535s10.859 9.7 7.537 25.091c-3.325 15.392-12.822 45.829-12.822 45.829l-110.428-19.823Z"/><path fill="#EA9B7A" d="m483.82 914.469 3.688 20.29a51.634 51.634 0 0 0 7.107 3.517c34.235 13.738 62.258-20.465 62.258-20.465l-12.785-70.355-53.083 59.018-7.185 7.995Z"/><path fill="#39393B" d="m483.82 914.47 3.688 20.29a51.634 51.634 0 0 0 7.107 3.517c23.718-18.197 36.829-54.275 36.829-54.275l-40.439 22.476-7.185 7.992ZM450.128 750.155s-41.449 14.948-16.859 62.508c0 0 20.272-49.342 16.859-62.508Z"/><path fill="#D46A43" d="M445.603 829.892s-12.413-11.186-15.557 3.801 6.184 41.49 20.493 33.285l-4.936-37.086Z"/><path fill="#EA9B7A" d="M443.677 880.229s7.57 41.965 45.191 32.674c37.388-9.221 56.687-49.501 57.727-51.404l.033-.05-1.194-8.918-6.191-46.283-3.306-24.737s-3.228-45.21-40.788-44.424c-27.442.572-51.254 11.696-60.834 30.698-3.527 7.007-5.121 15.092-4.248 24.114l6.815 44.222 1.671 10.839 5.124 33.269Z"/><path fill="#39393B" d="M520.431 811.721s-5.543 25.772-17.792 24.577c-12.248-1.194-25.851.409-35.291 8.622 0 0-18.969-3.28-27.929 7.664-6.007 7.338 8.117 62.037 34.328 64.01 26.215 1.972 57.721-16.251 60.848-45.28 3.128-29.028-1.573-51.94-1.573-51.94l-12.591-7.653Z"/><path fill="#fff" d="M459.621 857.207s21.168-2.517 31.557-9.395c0 0 4.644 23.97-13.259 26.028-14.372 1.654-18.298-16.633-18.298-16.633Z"/><path fill="#D46A43" d="M486.953 829.528c.553 3.054 6.429 4.206 13.124 2.568 6.691-1.634 11.667-5.435 11.114-8.489-.554-3.055-6.43-4.206-13.124-2.572-6.695 1.638-11.671 5.439-11.114 8.493ZM438.554 846.959a26.57 26.57 0 0 0 2.95-.552c6.687-1.634 11.664-5.44 11.107-8.494-.554-3.054-6.433-4.206-13.117-2.571-.907.221-1.779.482-2.611.778l1.671 10.839Z"/><path fill="#39393B" d="M484.289 812.62c.762 4.194 3.021 7.194 5.047 6.7 2.027-.494 3.047-4.296 2.286-8.49-.762-4.194-3.021-7.194-5.047-6.7-2.027.491-3.047 4.292-2.286 8.49ZM448.492 821.368c.762 4.194 3.02 7.194 5.047 6.7 2.024-.494 3.047-4.296 2.285-8.49-.761-4.194-3.023-7.194-5.047-6.7-2.023.491-3.047 4.292-2.285 8.49ZM470.737 837.989c.822-.203 1.349-1.136 1.175-2.09-.175-.953-.98-1.564-1.802-1.361-5.477 1.338-8.638-1.378-9.759-2.63 3.356-15.645 6.658-31.387 6.692-31.546.198-.945-.302-1.899-1.121-2.132-.816-.23-1.638.35-1.839 1.295-.034.164-3.463 16.513-6.886 32.441a1.99 1.99 0 0 0 .262 1.486c.181.276 4.456 6.692 13.278 4.537ZM498.904 788.943c-1.631-4.225-6.326-11.766-18.654-9.412-1.507.288-2.638 1.755-2.732 3.521-.117 2.218 1.423 4.097 3.339 4.027 3.362-.12 8.436.782 12.238 6.256 1.188 1.708 3.413 1.806 4.778.288l.319-.354c1.007-1.116 1.285-2.848.712-4.326ZM436.313 804.232c.023-4.63 1.694-13.727 13.795-17.341 1.476-.44 3.026.373 3.724 1.945.88 1.973.125 4.416-1.651 5.245-3.12 1.463-7.446 4.661-9.02 11.45-.49 2.121-2.493 3.249-4.271 2.502l-.413-.175c-1.316-.553-2.171-2.004-2.164-3.626ZM531.723 847.355c.255.425 7.345 12.069 14.875 14.143.017-.031.03-.051.03-.051l-1.194-8.917s-6.158.276-13.711-5.175Z"/><path fill="#EA9B7A" d="M533.055 816.602s10.372-26.064 24.187-10.949c11.386 12.458 1.782 54.512-17.872 45.708l-6.315-34.759Z"/><path fill="#39393B" d="M540.116 844.092c.748-.183 1.275-.996 1.198-1.898-1.49-17.446 9.748-26.399 10.228-26.772.698-.541.886-1.638.42-2.443-.467-.81-1.406-1.031-2.108-.491-.54.417-13.245 10.451-11.567 30.056.084.969.829 1.677 1.665 1.579.057-.007.11-.019.164-.031Z"/><path fill="#39393B" d="M552.104 830.237c.433-.105.822-.428 1.04-.918.383-.868.091-1.93-.658-2.378-.698-.416-6.919-3.987-11.15-1.567-.756.431-1.064 1.49-.692 2.361.373.872 1.285 1.233 2.037.802 2.43-1.389 7 .7 8.409 1.54.329.195.685.238 1.014.16ZM434.316 767.788c.534 1.404 1.306 2.544 2.329 3.357 8.933 7.109 25.637-.272 40.61-9.921 14.977-9.641 28.671 1.082 28.671 1.082-1.221 18.869 14.124 16.621 13.359 30.876-.769 14.267 3.701 31.744 3.701 31.744l9.137-3.731c.873-6.824 4.534-12.022 7.118-14.936l-3.312-24.741s-3.225-45.21-40.785-44.424c-27.436.568-51.247 11.688-60.828 30.694ZM714.669 1362.85s35.828 163.92-149.964 163.92c-99.24 0-146.404-11.11-146.404-11.11s-2.386 101.6-7 144.46c-4.614 42.86-20.976 149.65-20.976 149.65l-78.16 7.02s-12.486-371.94 35.416-406.19 116.773-35.27 235.026-48.42c0 0 106.166-20.84 132.062.67Z"/><path fill="#585859" d="M379.627 1780.07a2.15 2.15 0 0 1-.497-.07c-1.141-.32-1.845-1.65-1.574-2.97 10.795-52.32 15.087-127.28 18.537-187.5 3.399-59.37 5.423-90.6 10.751-96.06 5.859-6.01 23.262-3.86 52.09-.31 35.724 4.41 89.71 11.06 147.917 3.32 28.909-3.84 51.073-16.97 65.875-39.02 26.547-39.55 20.456-95.08 20.392-95.63-.157-1.35.658-2.59 1.822-2.77 1.168-.19 2.235.76 2.393 2.11.275 2.35 6.413 58.07-21.228 99.28-15.53 23.16-38.664 36.93-68.764 40.92-58.677 7.81-112.941 1.12-148.853-3.31-24.792-3.06-44.368-5.47-48.828-.9-1.007 1.03-3.007 6.13-5.081 28.66-1.53 16.64-2.788 38.6-4.245 64.03-3.459 60.41-7.765 135.6-18.644 188.32-.231 1.14-1.104 1.9-2.063 1.9Z"/><path fill="#585859" d="M313.015 1787.46c-1.114 0-2.05-1.01-2.12-2.31-.071-1.36.822-2.53 1.993-2.61l79.928-5.59c1.188-.09 2.178.96 2.252 2.31.07 1.36-.822 2.53-1.994 2.61l-79.928 5.59h-.131Z"/><path fill="#CED3E6" d="M528.032 1409.77H293.908c-.533 0-.963-.5-.963-1.12v-33.43c0-.61.433-1.12.963-1.12h234.124c.534 0 .966.51.966 1.12v33.43c-.003.62-.436 1.12-.966 1.12Z"/><path fill="#fff" d="M268.304 1409.77c-8.886 0-16.661-6.92-18.953-16.87l-44.143-191.68c-2.698-11.72 4.916-23.21 15.375-23.21h105.69c7.13 0 13.392 5.5 15.322 13.46l52.888 218.31H268.304v-.01Z"/><path fill="#CED3E6" d="m341.597 1191.47 52.449 216.5h12.077l-52.449-216.5c-1.943-7.96-8.191-13.47-15.326-13.47h-12.077c7.131 0 13.383 5.51 15.326 13.47ZM311.741 1297c2.403 12.03-4.067 21.79-14.446 21.79-10.383 0-20.748-9.76-23.147-21.79-2.403-12.04 4.067-21.8 14.449-21.8 10.379 0 20.741 9.76 23.144 21.8Z"/><path fill="#EA9B7A" d="M455.907 1331.67s-47.909 3.82-63.227 20.8l9.312 38.45s28.65-13.58 36.586-12.27c7.936 1.32 12.675 16.43 39.218 7.23l-21.889-54.21Z"/><path fill="#EA9B7A" d="m456.157 1329.15 5.403-2.56 5.61-2.73c3.749-1.85 7.497-3.73 11.235-5.66a757.573 757.573 0 0 0 22.278-11.94c14.725-8.21 29.184-16.9 43.134-26.16 13.929-9.25 27.399-19.06 39.707-29.57 3.064-2.63 6.067-5.29 8.963-7.99 2.886-2.71 5.678-5.44 8.349-8.21 5.278-5.54 10.114-11.22 13.879-16.73 1.879-2.73 3.553-5.48 4.795-7.91a58.604 58.604 0 0 0 3.114-7.43c1.886-5.49 3.362-12 4.366-19.11 1.983-14.33 2.057-30.85.768-47.78-1.275-16.97-3.842-34.46-7.258-51.88a557.164 557.164 0 0 0-5.765-26.04c-1.06-4.31-2.171-8.6-3.322-12.82-.577-2.11-1.165-4.2-1.755-6.24l-.889-3.01-.437-1.43-.208-.66-.094-.3-.043-.1c-10.104-24.45-1.208-53.758 19.875-65.476 21.08-11.715 46.362-1.401 56.469 23.044a53.957 53.957 0 0 1 2.406 7.217l1.279 5.105.339 1.35.265 1.1.49 2.09.909 4.05c.584 2.66 1.141 5.3 1.678 7.92a670.65 670.65 0 0 1 7.852 47.21c2.735 21.16 4.547 42.69 4.789 64.93.12 11.12-.185 22.44-1.084 33.98-.913 11.55-2.437 23.35-4.96 35.4-2.564 12.05-6.127 24.41-11.456 36.69-2.668 6.12-5.812 12.22-9.473 18.1-3.544 5.66-7.171 10.58-10.903 15.2-7.449 9.19-15.147 16.79-22.895 23.77-7.759 6.9-15.597 13.08-23.48 18.81-15.771 11.43-31.724 21.14-47.791 30.06-16.074 8.88-32.265 16.89-48.583 24.32a825.752 825.752 0 0 1-24.597 10.68 748.687 748.687 0 0 1-12.419 5.02l-6.275 2.43-6.537 2.44c-14.205 5.32-29.432-3.73-34.01-20.2-4.359-15.68 2.5-32.42 15.42-38.58l.862-.4Z"/><path fill="#D46A43" d="M652.206 1223.64c-.161 0-.322-.03-.483-.08-16.342-5.68-34.59-4.81-34.774-4.8-.927.04-1.712-.78-1.752-1.85-.04-1.08.674-1.99 1.601-2.03.768-.04 18.989-.93 35.892 4.95.886.31 1.392 1.39 1.124 2.42-.218.85-.886 1.39-1.608 1.39Z"/><path fill="#D46A43" d="M621.082 1218.7c-.469 0-.936-.23-1.268-.67-.607-.81-.53-2.04.171-2.74 6.094-6.12 13.762-8.79 14.084-8.91.889-.3 1.818.29 2.084 1.32.261 1.03-.245 2.11-1.131 2.41-.074.03-7.309 2.56-12.839 8.12-.319.32-.711.47-1.101.47Z"/><path fill="#DF615C" d="m711.943 1099.76-34.731 11.05-2.55.81-23.993 7.63-2.92.93-30.872 9.81-2.382-12.68-.537-3.04-5.57-29.8-.571-3-10.503-56.22c-2.852-12.99-4.732-29.256-3.154-42.523 2.315-19.648 17.181-45.132 44.596-46.844 4.899-.311 9.497.545 13.792 2.373.872.312 1.745.74 2.584 1.168 8.288 4.357 15.469 12.372 21.644 22.682.503.817.973 1.634 1.409 2.49 11.745 20.699 19.765 49.644 25.134 76.724.235 1.05.436 2.1.637 3.15 2.484 12.88 4.363 25.29 5.772 36.03.235 1.67.436 3.31.604 4.9a494.17 494.17 0 0 1 1.611 14.36Z"/><path fill="#A92F4B" d="M709.727 1080.5c-4.127-4.36-9.698-7.39-18.288-5.6-10.201 2.1-18.221-1.71-21.443-10.23-2.449-6.39-1.308-13.86 2.618-17.36 7.852-7 19.899-6.42 31.342-2.84-.202-1.05-.403-2.1-.638-3.15-11.745-3.46-24.026-3.69-32.281 3.62-3.692 3.31-5.403 9.07-4.799 15.02.201 1.98.671 3.97 1.376 5.91 3.758 9.85 12.852 14.32 24.295 11.95 9.228-1.95 14.328 2.21 18.422 7.58-.167-1.59-.369-3.23-.604-4.9ZM673.453 992.455c-7.114-11.944-1.778-19.842 4.732-27.857a35.224 35.224 0 0 0-1.41-2.49c-6.879 8.365-13.825 17.975-5.436 32.059 5.805 9.763 7.248 17.703 3.993 21.783-3.657 4.56-12.449 3.51-21.342-2.56-8.188-5.61-10.838-24.826-7.516-54.161.805-7.043 3.49-13.384 7.382-18.325.403-.506.839-1.012 1.275-1.479-.839-.428-1.711-.856-2.584-1.167-4.597 5.486-7.684 12.606-8.624 20.543-1.443 12.956-2.214 28.012-.1 39.684 1.443 7.855 4.161 14.245 8.859 17.465 7.046 4.79 13.993 6.66 19.06 5.41 2.214-.54 4.094-1.67 5.469-3.38 4.161-5.18 2.786-14.48-3.758-25.525ZM608.448 1081.84c-5.698-39.31-12.913-76.14-12.99-76.54-.154-.78-.829-1.28-1.51-1.1-.678.18-1.104.97-.95 1.75.078.39 7.245 36.99 12.926 76.13.376 1.55 2.524 1.63 2.524-.24Z"/><path fill="#A92F4B" d="M599.26 1034.38c-.235 0-.47-.07-.678-.23l-13.094-9.73c-.587-.43-.758-1.34-.382-2.02.375-.68 1.154-.88 1.745-.44l13.093 9.72c.588.44.759 1.35.383 2.03-.245.43-.651.67-1.067.67Z"/><path fill="#fff" d="M514.445 1038.59c-4.426 0-8.493-1.87-12.118-5.57-20.69-21.13-20.603-97.917-20.59-101.177.007-1.537 1.084-2.778 2.406-2.778h.01c1.329.008 2.403 1.264 2.396 2.805-.003.774-.097 77.5 18.96 96.97 3.255 3.32 6.795 4.64 10.815 4.02 25.456-3.89 37.053-89.828 39.375-122.614.107-1.537 1.268-2.681 2.597-2.553 1.326.125 2.312 1.475 2.202 3.012-.02.303-2.212 30.592-8.426 61.103-8.541 41.932-20.356 64.332-35.117 66.592-.849.13-1.685.19-2.51.19Z"/><path fill="#084FC7" d="M706.797 1755.95H455.871c-5.869 0-10.627-5.52-10.627-12.32 0-6.81 4.758-12.33 10.627-12.33h250.926c5.869 0 10.627 5.52 10.627 12.33 0 6.8-4.758 12.32-10.627 12.32Z"/><path fill="#0875F7" d="M432.787 1944.15c-.47 0-.947-.04-1.423-.11-5.819-.9-9.903-7.11-9.124-13.85l45.707-395.7c.708-6.12 5.211-10.69 10.537-10.69h204.721c5.332 0 9.842 4.59 10.537 10.71l44.996 395.7c.768 6.75-3.329 12.94-9.148 13.83-5.818.89-11.161-3.86-11.926-10.61l-43.777-384.98H487.782l-44.472 385.01c-.718 6.19-5.282 10.69-10.523 10.69Z"/><path fill="#0875F7" d="M537.775 1536.13h132.961c42.124 0 87.23-26.73 93.7-74.99 8.648-64.54 10.789-127.03 8.372-184.39-2.731-64.86-24.462-125.07-68.438-165.28 0 0 18.986 250.16 1.856 319.28-22.893 92.35-168.451 105.38-168.451 105.38ZM130.875 1020.95v74c0 9.78 6.846 17.72 15.282 17.72h115.89l34.99 14.55c3.594 1.5 7.033-2.59 5.654-6.71l-13.235-39.64v-59.92c0-9.79-6.845-17.72-15.288-17.72H146.16c-8.439-.01-15.285 7.93-15.285 17.72Z"/><path fill="#084FC7" d="M231.559 1060.05c0 7.08 4.949 12.82 11.053 12.82 6.104 0 11.054-5.74 11.054-12.82s-4.95-12.81-11.054-12.81-11.053 5.73-11.053 12.81ZM196.562 1060.05c0 7.08 4.95 12.82 11.054 12.82 6.107 0 11.054-5.74 11.054-12.82s-4.95-12.81-11.054-12.81-11.054 5.73-11.054 12.81ZM161.568 1060.05c0 7.08 4.95 12.82 11.057 12.82 6.108 0 11.057-5.74 11.057-12.82s-4.949-12.81-11.057-12.81c-6.107 0-11.057 5.73-11.057 12.81Z"/><path fill="#CED3E6" d="M2081.31 833.591c49.92 0 90.38-46.333 90.38-103.488s-40.46-103.488-90.38-103.488c-49.91 0-90.37 46.333-90.37 103.488s40.46 103.488 90.37 103.488Z"/><path fill="#21B573" d="M2081.31 820.117c49.92 0 90.38-46.333 90.38-103.488s-40.46-103.488-90.38-103.488c-49.91 0-90.37 46.333-90.37 103.488s40.46 103.488 90.37 103.488Z"/><path fill="#fff" d="M2081.31 800.76c40.58 0 73.48-37.667 73.48-84.132s-32.9-84.132-73.48-84.132c-40.58 0-73.47 37.667-73.47 84.132s32.89 84.132 73.47 84.132Z"/><path fill="#CED3E6" d="M2154.79 716.633a97.3 97.3 0 0 1-.23 6.649c-2.97-43.299-34.69-77.49-73.25-77.49s-70.27 34.191-73.24 77.49a97.3 97.3 0 0 1-.23-6.649c0-46.396 32.95-84.132 73.47-84.132 40.52 0 73.48 37.736 73.48 84.132Z"/><path fill="#39393B" d="M2081.32 725.383c-.57 0-1.13-.299-1.48-.848l-36.04-55.563c-.61-.933-.44-2.252.38-2.945.81-.692 1.96-.502 2.57.436l35.17 54.217 39.97-20.088c.92-.467 2.01.016 2.42 1.082.41 1.066-.02 2.307-.94 2.774l-41.32 20.76c-.24.117-.49.175-.73.175Z"/><path fill="#0875F7" d="M242.359 855.14h-24.452c-2.208 0-3.997-2.074-3.997-4.634V699.33c0-2.56 1.789-4.634 3.997-4.634h24.452c2.208 0 3.997 2.074 3.997 4.634v151.176c0 2.56-1.789 4.634-3.997 4.634Z"/><path fill="#084FC7" d="M237.513 780.413h-14.761c-2.161 0-3.916-2.031-3.916-4.54v-1.907c0-2.505 1.752-4.54 3.913-4.54h14.761c2.161 0 3.916 2.031 3.916 4.54v1.907c.004 2.505-1.748 4.54-3.913 4.54ZM246.356 707.654H213.91v6.194h32.446v-6.194ZM246.356 720.609H213.91v6.194h32.446v-6.194ZM246.356 816.227H213.91v6.194h32.446v-6.194ZM246.356 829.185H213.91v6.194h32.446v-6.194Z"/><path fill="#21B573" d="M180.465 855.14H150.02c-.551 0-1-.517-1-1.159V695.856c0-.638.446-1.16 1-1.16h30.445c.551 0 1 .518 1 1.16v158.125c-.003.638-.449 1.159-1 1.159Z"/><path fill="#217C58" d="M172.625 780.413h-14.762c-2.161 0-3.916-2.031-3.916-4.54v-1.907c0-2.505 1.752-4.54 3.916-4.54h14.762c2.161 0 3.916 2.031 3.916 4.54v1.907c-.004 2.505-1.755 4.54-3.916 4.54ZM181.465 707.654H149.02v6.194h32.445v-6.194ZM181.465 720.609H149.02v6.194h32.445v-6.194ZM181.465 816.227H149.02v6.194h32.445v-6.194ZM181.465 829.185H149.02v6.194h32.445v-6.194Z"/><path fill="#DF615C" d="M209.912 855.14h-24.453c-2.208 0-3.996-2.074-3.996-4.634V699.33c0-2.56 1.788-4.634 3.996-4.634h24.453c2.208 0 3.997 2.074 3.997 4.634v151.176c0 2.556-1.789 4.634-3.997 4.634Z"/><path fill="#A92F4B" d="M205.068 780.413h-14.761c-2.161 0-3.916-2.031-3.916-4.54v-1.907c0-2.505 1.751-4.54 3.916-4.54h14.761c2.161 0 3.916 2.031 3.916 4.54v1.907c0 2.505-1.751 4.54-3.916 4.54ZM213.909 707.654h-32.446v6.194h32.446v-6.194ZM213.909 720.609h-32.446v6.194h32.446v-6.194ZM213.909 816.227h-32.446v6.194h32.446v-6.194ZM213.909 829.185h-32.446v6.194h32.446v-6.194Z"/><path fill="#FAAF3A" d="m299.046 849.472-30.06 5.618c-.544.101-1.057-.327-1.144-.961l-21.708-156.11c-.087-.63.282-1.225.829-1.326l30.06-5.619c.543-.101 1.057.327 1.144.961l21.704 156.11c.091.63-.278 1.225-.825 1.327Z"/><path fill="#C77E2E" d="m284.054 776.585-20.584 3.848c-.473.089-.919-.284-.997-.837l-1.231-8.851c-.077-.548.245-1.066.721-1.155l20.584-3.848c.473-.09.923.284.997.836l1.231 8.852c.074.548-.248 1.066-.721 1.155ZM279.827 703.693l-32.034 5.989.851 6.119 32.034-5.989-.851-6.119ZM281.604 716.484l-32.034 5.989.851 6.119 32.034-5.989-.851-6.119ZM294.727 810.891l-32.034 5.989.851 6.119 32.034-5.989-.851-6.119ZM296.516 823.667l-32.034 5.989.851 6.119 32.034-5.989-.851-6.119Z"/><path fill="#CED3E6" d="M382.495 898.139H88.627l-6.44-19.807h307.646l-7.338 19.807Z" opacity=".8"/><path fill="#39393B" d="M389.833 854.79H82.187v23.543h307.646V854.79Z"/><path fill="#39393B" d="m113.537 878.332 8.225 19.986h19.385l5.517-19.986h-33.127ZM358.486 878.332l-8.224 19.986h-19.386l-5.517-19.986h33.127Z"/><path fill="#CED3E6" d="M1829.46 1964c244.71 0 443.1-13.54 443.1-30.24s-198.39-30.24-443.1-30.24c-244.72 0-443.1 13.54-443.1 30.24s198.38 30.24 443.1 30.24Z"/><path fill="#39393B" d="M2003.16 1947.89c-138.44-5.63-281.63-27.52-355.74-323.3-22.03-87.92-7.7-154.5 16.48-204.67 5.98-12.4 12.56-23.78 19.33-34.25l.01-.01c2.55-3.94 5.13-7.76 7.73-11.44 54.09-76.9 144.81-104.49 225.21-70.5 45.1 19.06 102.95 47.24 154.53 83.89 103.64 73.63 127.94 157.59 161.8 301.61 2.91 12.37 5.82 26.24 8.02 40.96 1.19 7.87 2.17 15.99 2.84 24.25 7.5 92.1-23.14 202.31-240.21 193.46Z"/><path fill="#585859" d="M2243.37 1754.44c-4.6 14.97-11.15 30.21-19.87 44.7-26.18 43.49-80.69 96.04-191.72 99.43-4.89.15-9.71.22-14.47.22-42.42 0-79.83-5.93-114.02-18.04-35.75-12.67-66.97-31.77-95.44-58.4-47.56-44.5-86.76-109.59-127.08-211.05-15.92-40.07-24.18-80.69-24.53-120.72-.22-23.86 2.35-47.54 7.66-70.66 5.98-12.4 12.56-23.79 19.33-34.25-1.72 4.6-3.38 9.41-4.96 14.42-14.5 46.12-24.49 119.48 10.3 207.04 70.77 178.08 152.83 287.26 342.99 281.48 107.44-3.27 159.85-53.56 184.89-95.18 13.08-21.72 20.48-43.7 24.09-63.25 1.18 7.88 2.16 15.99 2.83 24.26Z"/><path fill="#084FC7" d="M2045.33 1208.62s86.92 136.73 106.75 204.82-28.3 116.49-28.3 116.49l-44.68 19.43s-45.93-240.47-33.77-340.74Z"/><path fill="#fff" d="M2037.67 1591.59c-37.99 14.61-130.79 52.89-171.12 37.39-1.7-.66-3.3-1.4-4.81-2.26-4.4-2.48-7.93-5.83-10.4-10.18-15.81-27.91-31.49-144.96-24.44-213.77.88-8.59 1.31-17.93 1.45-27.73.21-14.42-.21-29.86-.73-45.4-1.99-58.45-9.93-98.8 11.63-112.99 19.35-12.75 43.84-22.72 59.46-27.05 9.67-2.68 25.5-8.3 36.6-8.04l48.06 10.13s41.48 8.02 51.06 16.21c9.57 8.19 14.46 44.25 31.75 77.28 17.29 33.04 21.05 66.17 4.53 102.43-14.37 31.54-11.84 19.58-13.72 71.34-2.31 63.4 54.85 104.15-19.32 132.64Z"/><path fill="#CED3E6" d="M1910.07 1294.48s52.09-15.62 118.55-1.23l1.6 53.28s-73.08-9.43-119.11 4.16l-1.04-56.21ZM1969.92 1249.48c-.7 0-1.42-.02-2.15-.07-28.46-1.7-54.54-30.82-55.64-32.06-.77-.87-.79-2.3-.04-3.19.75-.9 1.99-.91 2.76-.05.26.29 26.14 29.18 53.12 30.79 25.86 1.58 28.97-28.15 29.09-29.41.12-1.25 1.09-2.14 2.15-2 1.07.13 1.84 1.24 1.73 2.48-.03.34-3.44 33.51-31.02 33.51ZM1889.25 1516.14c-.2-.18-.38-.41-.52-.67-.58-1.12-.28-2.56.68-3.24 37.01-25.97 72.52-35.13 95.79-38.25 25.26-3.38 41.54-.64 42.22-.52 1.11.19 1.87 1.39 1.71 2.67-.17 1.29-1.2 2.17-2.31 1.98-.16-.03-16.54-2.76-41.31.57-22.83 3.07-57.67 12.09-93.99 37.58-.73.51-1.63.43-2.27-.12Z" opacity=".8"/><path fill="#0875F7" d="M1937.62 1612.79c-34.2-12.56-65.12-37.86-86.25-60.4-1.67-1.79-3.28-3.56-4.83-5.3-10.93-12.32-18.65-5.98-22-13.08-12.78-27.13-5.52-133.54 0-172.62 5.53-39.07-17.73-110.67-5.22-136.27 12.51-25.61 55.63-34.53 55.63-34.53s-6.1-8.25 5.48-17.69c11.58-9.43 42.39-5.53 42.39-5.53 1.47 169.13 22.13 326.23 14.8 445.42Z"/><path fill="#fff" d="M1904.01 1564.31c-.93 0-1.74-.79-1.89-1.88-15.56-117.32-.17-337.97-.01-340.19.08-1.22 1-2.12 2.05-2.02 1.05.1 1.83 1.17 1.75 2.38-.16 2.21-15.51 222.36-.02 339.16.16 1.2-.55 2.33-1.59 2.52-.1.02-.2.03-.29.03Z"/><path fill="#084FC7" d="M1935.3 1581.91c-.91 0-1.71-.76-1.87-1.83-20.35-134.75-21.98-367.23-21.99-369.56-.01-1.23.84-2.22 1.89-2.23h.01c1.05 0 1.9.98 1.91 2.19.01 2.33 1.63 234.45 21.93 368.84.18 1.2-.51 2.35-1.55 2.56-.11.02-.22.03-.33.03ZM1901.53 1209.16c-.17 0-.33-.03-.5-.08-16.12-4.97-25.98-16-26.39-16.47-.76-.85-.77-2.25-.03-3.13.74-.87 1.94-.89 2.69-.04.1.11 9.61 10.7 24.71 15.37 1.02.31 1.63 1.52 1.36 2.71-.23.99-1 1.64-1.84 1.64Z"/><path fill="#0875F7" d="M2085.77 1538.95s-12.2 47.6-57.56 70.27c-5.62-129.01-18.41-276.34-34.88-433.08 0 0 17.34-3.53 24.58 7.96 3.11 4.95 3.79 13.34 3.79 13.34s8.86 1.99 18.57 7.23c9.7 5.24 8.59 12.45 10.91 30.73 2.32 18.27 26.67 46.56 34.59 84.89 7.93 38.32-13.08 62.76-19.64 94.92-6.56 32.15 19.64 123.74 19.64 123.74Z"/><path fill="#fff" d="M2046.82 1558.91c-1.03 0-1.87-.95-1.9-2.14-4.39-175.52-32.04-332.34-32.32-333.9-.21-1.2.45-2.37 1.48-2.62s2.04.53 2.26 1.72c.28 1.57 28 158.75 32.39 334.66.03 1.23-.8 2.24-1.85 2.28h-.06Z"/><path fill="#084FC7" d="M2005.06 1214.02c-.91 0-1.72-.76-1.88-1.84-.18-1.2.52-2.34 1.56-2.55.13-.02 12.33-2.58 15.13-12.85.32-1.16 1.39-1.81 2.4-1.44 1 .37 1.56 1.61 1.24 2.77-3.51 12.86-17.54 15.77-18.13 15.89-.11.01-.21.02-.32.02ZM2042.38 1558.91c-.95 0-1.78-.82-1.89-1.94-13.43-129.39-34.63-336.19-34.84-338.26-.13-1.22.62-2.32 1.67-2.46 1.03-.15 1.99.72 2.11 1.93.22 2.08 21.42 208.88 34.84 338.26.13 1.21-.62 2.31-1.67 2.46-.07.01-.14.01-.22.01Z"/><path fill="#21B573" d="M1929.67 1651.83c5.79 4.81 14.95 9.83 28.65 14.88 77.84 28.72 149.22-17.63 149.22-17.63 4.32-24.72 1.65-52.81-5.54-63.09 2.26-3.65.77-8.02.77-8.02l71.64-86.23c-40.74 39.15-91.14 51.96-130.37 79.45h-.01c-11.31 7.92-21.47 14.9-28.92 19.74-11.37 7.4-25.87 8.13-40.09 5.86-27.7-4.44-54.28-20.27-54.28-20.27s-89.22-46.89-105.95-45.32c-13.01 1.2 56.98 85.93 114.88 120.63Z"/><path fill="#EA9B7A" d="M2067.56 1724.09s-22.97-7.65-30.02-16.29l-15.96 43.56 54.33 19.65s.75-38.26-8.35-46.92Z"/><path fill="#EBB12B" d="m2198.66 1849.97-70.23-180.72c-2.62-.24-5.9.59-9.58 2.15-13.62 5.75-32.77 21.62-45.11 30.94-1.43 1.1-2.79 2.1-4.02 2.98-2.08 1.49-3.85 2.66-5.21 3.37-10.82 5.66-5.12 12.43-5.12 12.43 20.19 11.71 7.89 46.4 20.2 54.52 0 0 5.24 3.52 21.95 12.06 16.71 8.52 33.54 29.09 49.11 45.95 20.09 21.76 32.7 24.32 39.93 22.34 5.72-1.59 8.08-6.02 8.08-6.02Z"/><path fill="#C77E2E" d="m2198.66 1849.97-70.23-180.72c-2.63-.24-5.9.59-9.58 2.15l71.73 184.58c5.72-1.58 8.08-6.01 8.08-6.01Z"/><path fill="#C77E2E" d="m2135.6 1687.69-2.09-5.37c-3.19 8.12-9.35 17.36-21.18 22.75-15.74 7.18-30.29 1.89-38.59-2.73-1.43 1.1-2.79 2.1-4.02 2.98 8.41 5.26 25.24 12.73 44.1 4.15 11.3-5.15 17.91-13.66 21.78-21.78Z"/><path fill="#fff" d="M2109.55 1779.82c-.52-1.33-1.78-2.14-3.08-1.86-1.53.32-2.54 2.02-2.27 3.79l1.97 12.56c.28 1.77 1.75 2.95 3.28 2.63 1.53-.33 2.55-2.03 2.27-3.8l-1.97-12.55c-.04-.27-.11-.53-.2-.77ZM2097.08 1772.84c-.52-1.34-1.77-2.14-3.07-1.87-1.53.33-2.55 2.03-2.27 3.8l1.97 12.55c.27 1.78 1.74 2.96 3.27 2.63 1.53-.32 2.55-2.02 2.27-3.79l-1.97-12.56c-.04-.27-.11-.52-.2-.76ZM2119.59 1788.16c-.52-1.34-1.77-2.14-3.07-1.87-1.54.33-2.55 2.03-2.27 3.8l1.97 12.55c.28 1.78 1.74 2.95 3.27 2.63 1.54-.32 2.55-2.02 2.27-3.8l-1.97-12.55c-.04-.27-.11-.52-.2-.76ZM2129.42 1796.61c-.52-1.34-1.78-2.15-3.07-1.87-1.53.32-2.55 2.02-2.27 3.8l1.97 12.55c.27 1.78 1.74 2.95 3.27 2.63 1.53-.33 2.55-2.03 2.27-3.8l-1.97-12.55c-.04-.27-.11-.53-.2-.76ZM2139.23 1806.28c-.52-1.33-1.77-2.14-3.07-1.86-1.53.32-2.54 2.02-2.26 3.79l1.97 12.56c.27 1.77 1.74 2.95 3.27 2.63 1.53-.33 2.55-2.03 2.27-3.8l-1.97-12.55c-.04-.28-.12-.53-.21-.77ZM2148.71 1817.39c-.52-1.33-1.77-2.14-3.07-1.86-1.53.32-2.55 2.02-2.27 3.8l1.97 12.55c.28 1.78 1.75 2.95 3.28 2.63 1.53-.32 2.54-2.02 2.26-3.8l-1.97-12.55c-.04-.28-.11-.53-.2-.77Z"/><path fill="#21B573" d="M1814.79 1531.19s-56.47-35.33-89.18-8.02c-59.8 49.94 41.68 146.01 157.77 192.93 116.09 46.91 153.79 40.52 153.79 40.52s25.22-8.05 16.27-55.45c0 0-66.91-29.5-101.74-60.39-34.82-30.9-58.55-68.77-136.91-109.59Z"/><path fill="#217C58" d="M2048.93 1714.96c-24.35-6.79-73.97-33.17-132.72-70.58-43.95-27.99-94.63-63.75-102.07-76.15-4.02-6.7-5.03-12.18-3.01-16.29 3.02-6.14 11.73-6.78 15.7-6.73 1.02.01 1.82 1.01 1.75 2.19-.07 1.08-.84 1.91-1.76 1.9-3.91-.03-10.7.75-12.63 4.68-1.6 3.26.67 8.28 2.85 11.92 5.99 10 48.42 41.49 100.86 74.89 45.17 28.75 103.52 62.3 131.85 70.19l-.82 3.98Z"/><path fill="#217C58" d="M2044.34 1694.88c-2.74 24.91-8.31 47.55-20.45 64.92 0 0 10.4 8.68 19.89 2.46 7.25-4.76 21.23-43.67 15.91-64.44-6.07-3.84-11.31-5.18-15.35-2.94Z"/><path fill="#EA9B7A" d="M1897.01 1719.17s23.08-5.17 29.62-14.34l18.43 42.23-53.06 23.82s-3.57-42.37 5.01-51.71Z"/><path fill="#EBB12B" d="m1774.07 1859.17 59.65-185.76c2.61-.45 5.92.12 9.68 1.4 13.93 4.68 33.95 19.03 46.8 27.38 1.5.98 2.9 1.88 4.18 2.66 2.17 1.32 4 2.35 5.4 2.95 11.13 4.81 6.49 8.44 6.49 8.44-21.93 11.93-5.87 50.48-17.68 59.53 0 0-5.02 3.92-21.21 13.73-16.17 9.8-31.78 31.63-46.34 49.65-18.79 23.28-31.23 26.81-38.56 25.39-5.81-1.14-8.41-5.37-8.41-5.37Z"/><path fill="#C77E2E" d="m1774.07 1859.17 59.65-185.76c2.61-.45 5.92.12 9.68 1.4l-60.92 189.73c-5.81-1.14-8.41-5.37-8.41-5.37Z"/><path fill="#C77E2E" d="m1827.64 1692.36 1.77-5.52c3.66 7.85 10.33 16.6 22.44 21.06 16.12 5.94 30.33-.46 38.35-5.71 1.49.98 2.9 1.88 4.18 2.66-8.08 5.9-24.45 14.66-43.76 7.56-11.57-4.27-18.66-12.25-22.98-20.05Z"/><path fill="#fff" d="M1858.94 1782.27c.44-1.37 1.65-2.27 2.96-2.1 1.54.2 2.66 1.82 2.48 3.61l-1.24 12.68c-.17 1.79-1.57 3.08-3.12 2.87-1.54-.2-2.66-1.82-2.48-3.61l1.24-12.68c.03-.26.08-.52.16-.77ZM1870.98 1774.34c.44-1.37 1.64-2.27 2.96-2.1 1.54.2 2.65 1.82 2.48 3.61l-1.25 12.68c-.17 1.79-1.57 3.08-3.11 2.88-1.55-.21-2.66-1.82-2.48-3.62l1.24-12.67c.03-.28.08-.54.16-.78ZM1849.4 1791.37c.44-1.38 1.64-2.28 2.96-2.1 1.55.2 2.66 1.82 2.48 3.61l-1.24 12.68c-.18 1.79-1.57 3.08-3.12 2.88-1.54-.21-2.66-1.83-2.48-3.62l1.24-12.68c.02-.27.08-.53.16-.77ZM1840.08 1800.56c.44-1.38 1.65-2.28 2.96-2.11 1.55.2 2.66 1.82 2.48 3.62l-1.24 12.67c-.17 1.8-1.57 3.08-3.12 2.88-1.54-.2-2.66-1.82-2.48-3.61l1.24-12.68c.03-.27.08-.53.16-.77ZM1830.85 1810.98c.43-1.38 1.64-2.28 2.95-2.11 1.55.2 2.66 1.83 2.48 3.62l-1.24 12.67c-.17 1.8-1.57 3.08-3.12 2.88-1.54-.2-2.66-1.82-2.48-3.61l1.24-12.68c.03-.27.08-.53.17-.77ZM1822.03 1822.79c.43-1.37 1.64-2.27 2.96-2.1 1.54.2 2.65 1.82 2.47 3.62l-1.24 12.67c-.17 1.79-1.57 3.08-3.11 2.88-1.55-.21-2.66-1.82-2.48-3.62l1.24-12.67c.02-.28.08-.53.16-.78Z"/><path fill="#21B573" d="M2151.42 1502.5s53.43-41.19 88.16-17.48c63.51 43.37-29.94 149.84-141.84 208.9-111.89 59.06-149.93 56.7-149.93 56.7s-25.75-5.33-20.59-53.48c0 0 64.3-36.49 96.53-70.96 32.23-34.48 52.87-74.7 127.67-123.68Z"/><path fill="#217C58" d="M2053.7 1716.14c-6.15 2.35-12.42 4.7-18.89 7.07-25.03 9.13-53.61 18.69-79.49 26.07l-.1 4.29c23.38-6.61 50.81-15.56 80.65-26.46 5.83-2.13 11.78-4.36 17.74-6.64l.09-4.33ZM1932.81 1710.39c23.71-9.35 71.03-40.9 126.58-84.4 41.55-32.54 89.19-73.54 95.61-86.68 3.47-7.1 4.05-12.66 1.71-16.54-3.5-5.8-12.22-5.5-16.17-5.04-1.01.12-1.73 1.21-1.57 2.38.16 1.06.99 1.8 1.91 1.7 3.88-.45 10.7-.4 12.94 3.31 1.85 3.07-.01 8.32-1.89 12.17-5.19 10.6-44.94 46.47-94.52 85.3-42.7 33.44-98.16 73.05-125.74 83.92l1.14 3.88Z"/><path fill="#217C58" d="M1935.79 1689.91c4.7 24.52 12.03 46.47 25.5 62.47 0 0-9.67 9.75-19.61 4.56-7.6-3.97-24.6-41.23-20.94-62.48 5.74-4.47 10.84-6.35 15.05-4.55Z"/><path fill="#0875F7" d="m1928.57 1493.38-4.3 71.08s-72.9-12.07-108.69-22.65c-10.42-3.08-22.13-7.04-32.84-13.64-19.75-12.18-36.15-33.37-34.93-74.69.38-13.26 2.59-28.6 7.08-46.4 26.05-103.23 69.66-189.9 69.66-189.9 56.14 27.86 51.42 74.22 51.42 74.22-16.01 49.53-51.42 155.01-51.42 155.01 20.55 29.1 104.02 46.97 104.02 46.97Z"/><path fill="#084FC7" d="M1824.55 1448.62c-.35 0-.7-.11-1.01-.33-6.19-4.45-23.09-9.07-23.26-9.11-1.02-.28-1.66-1.47-1.42-2.66.24-1.19 1.27-1.93 2.29-1.65.6.16 12.44 3.4 20.27 7.26-1.15-2.96-3.01-6.11-5.61-9.54-.69-.92-.62-2.32.17-3.12.79-.81 2-.72 2.69.2 4.5 5.92 7.04 11.28 7.76 16.38.12.85-.2 1.71-.83 2.2-.31.24-.68.37-1.05.37ZM1782.74 1528.17c-19.75-12.18-36.15-33.37-34.93-74.69 15.65 9.49 42.92 32.5 34.93 74.69Z"/><path fill="#084FC7" d="M1882.71 1482.47c-.15 0-.32-.02-.47-.07-36.12-10.79-58.05-33.39-58.97-34.35-.64-.67-.81-1.76-.42-2.65 25.75-58.71 42.05-105.33 51.28-146.72.26-1.18 1.3-1.89 2.32-1.59 1.02.31 1.63 1.52 1.37 2.7-9.22 41.34-25.4 87.79-50.89 146.06 4.88 4.66 25.54 23.09 56.26 32.27 1.02.31 1.63 1.51 1.37 2.7-.23.99-1 1.65-1.85 1.65Z"/><path fill="#084FC7" d="M1868.25 1331.61c-.41 0-.83-.16-1.19-.49-.82-.76-.96-2.15-.3-3.1l13.38-19.5c.65-.96 1.85-1.11 2.68-.36.82.76.96 2.16.3 3.11l-13.37 19.5c-.38.55-.94.84-1.5.84Z"/><path fill="#39393B" d="m1930.67 1152.44 64.78 10.73c42.07-4.88 55.47-24.27 62.35-65.27 3.46-20.61 1.17-38.84-2.23-52.35-.89-15.41-3.91-28.73-10.2-37.52-28.43-39.728-53.46-38.175-53.46-38.175-12.72-6.762-54.74-11.392-82.46 27.62-.01 0-.01.007-.01.007-.88.872-17.77 21.628-21.67 65.218-3.72 41.55 20.19 94.62 42.9 89.74Z"/><path fill="#39393B" d="M1966.84 980.763s6.74-69.254-46.27-60.476c-34.63 5.738-56.06 60.157-24.4 84.863 31.67 24.71 70.67-24.387 70.67-24.387Z"/><path fill="#EBB12B" d="M1901.5 1012.26c-.28 0-.55-.08-.81-.24-.81-.52-1.11-1.7-.66-2.64 12.28-25.886 29.79-37.328 42.32-42.366 13.59-5.467 24.15-4.805 24.59-4.774.93.066 1.63.984 1.58 2.058-.06 1.07-.83 1.895-1.78 1.828-.41-.031-41.31-2.225-63.77 45.134-.3.64-.88 1-1.47 1Z"/><path fill="#39393B" d="M1935.75 1136.8s-41.31-26.79-33.19-82.58c8.13-55.788 39.8-89.364 88.37-73.187 0 0-4.71 161.277-55.18 155.767ZM2050.64 1034.23s4.22 47.89-3.31 54.82c-7.53 6.93-14.91-12.01-14.91-12.01s10.27-42.29 18.22-42.81Z"/><path fill="#D46A43" d="M2031.62 1093.4s12.32-12.55 16.4 2.82c4.08 15.38-4.2 43.65-19.54 36.14l3.14-38.96Z"/><path fill="#21B573" d="M2046.78 1128.88c-1.69 1.79-3.56 3.35-5.59 4.62-7.74 4.83-17.86 5.41-29.99-2 0 0-15.52-23.42 7.42-64.73 0 0 21.05-6.42 33.08 8.34 1.32 1.62 2.54 3.5 3.61 5.69.65 1.32 1.25 2.77 1.78 4.33 4.27 12.56.31 32.58-10.31 43.75Z"/><path fill="#fff" d="M2046.23 1070.1c.96-5.52 1.94-12.35 2.58-19.95-.29.16-.59.26-.93.29-1.3.11-2.6-.49-3.86-1.58a232.74 232.74 0 0 1-2.31 18.83l4.52 2.41Z"/><path fill="#217C58" d="M2046.78 1128.87c-1.69 1.8-3.56 3.36-5.59 4.63 10.65-25.55 10.95-48.91 10.51-58.39 1.33 1.62 2.54 3.5 3.61 5.69-.01 10.72-1.4 28.38-8.53 48.07Z"/><path fill="#EA9B7A" d="m1995.7 1162.5-5.08 39.59s-20.9 31.08-69.31-19.61c5.51-16.12 13.95-36.83 11.79-52.72 0 0 3.53 3.76 9.61 8.24 1.25.92 2.58 1.89 4.01 2.9 12.59 8.85 31.78 20.2 48.98 21.6Z"/><path fill="#39393B" d="m1995.7 1162.5-2.38 18.53c-14.12-6.29-38.55-19.95-50.61-43.03 1.25.92 2.58 1.89 4.01 2.9 12.59 8.85 31.78 20.2 48.98 21.6Z"/><path fill="#EA9B7A" d="M2042.11 1095.16c-.53 4.09-1.06 7.95-1.58 11.59-3.88 27.31-7.44 42.02-13.98 47.84-33.11 29.45-91.51-22.6-93.38-24.28l-.05-.05c-.19-3.18-.32-6.33-.41-9.43-.77-26.29 2.03-50.11 7.17-72.3 1.99-24 17.06-44.07 37.44-48.91 21.1-5 37.75 8.31 48.04 14.02 15.54 8.64 22.66 34.81 18.28 69.59-.53 4.18-1.03 8.16-1.53 11.93Z"/><path fill="#39393B" d="M2012.51 1126.97c-18.51 0-25.92-20.54-26-20.77-.35-1 .06-2.14.92-2.54.86-.41 1.84.08 2.19 1.07.33.91 8.09 22.23 28.31 17.72.91-.21 1.79.49 1.97 1.54.17 1.06-.43 2.09-1.34 2.29-2.13.47-4.15.69-6.05.69ZM1998.27 1052.83c4.75-1.91 3.79-10.05-1.23-10.42-8.58-.64-22.32-.4-23.47 7.61-1.68 11.71 14.3 6.83 24.4 2.93.1-.05.2-.08.3-.12ZM2023.52 1056.27c-3.69-3.97.02-10.96 4.75-8.96 8.07 3.42 20.56 10.07 18.83 17.93-2.53 11.5-15.46-.43-23.35-8.72-.08-.09-.15-.17-.23-.25Z"/><path fill="#D46A43" d="M1998.86 1136.56c3.39.98 6.25.22 6.44.17.6-.17.97-.87.82-1.56-.14-.7-.74-1.13-1.34-.96-.06.01-5.61 1.46-9.79-2.83-.46-.48-1.17-.43-1.58.1-.41.54-.36 1.36.1 1.83 1.72 1.77 3.61 2.75 5.35 3.25Z"/><path fill="#39393B" d="M2010.48 1109.87c-.29-.16-.52-.45-.63-.83-.21-.75.14-1.55.79-1.8l8.08-3.08-4.79-5.64c-.27-.31-.39-.73-.35-1.16l1.49-15.51c.07-.78.68-1.34 1.36-1.25.67.08 1.16.79 1.09 1.57l-1.43 14.83 5.78 6.79c.3.35.42.86.32 1.34-.1.48-.41.86-.81 1.02l-9.97 3.8c-.32.12-.65.08-.93-.08Z"/><path fill="#D46A43" d="M1989.52 1095.04c-.41 3.22-6.47 4.84-13.52 3.62-7.06-1.21-12.45-4.81-12.03-8.03.41-3.22 6.47-4.84 13.52-3.63 7.06 1.22 12.44 4.82 12.03 8.04Z"/><path fill="#D46A43" d="M2042.11 1098.91c-.53 4.1-1.06 7.96-1.58 11.59-6.44-1.4-11.17-4.76-10.78-7.79.38-3.03 5.81-4.66 12.36-3.8Z" opacity=".8"/><path fill="#39393B" d="M1996.4 1083.51c-.56 4.42-2.75 7.71-4.89 7.34-2.13-.37-3.4-4.25-2.83-8.68.56-4.42 2.75-7.7 4.89-7.34 2.13.37 3.4 4.26 2.83 8.68ZM2034.15 1090.02c-.57 4.43-2.76 7.71-4.9 7.34-2.13-.37-3.4-4.25-2.84-8.67.57-4.43 2.76-7.71 4.9-7.34 2.13.37 3.41 4.25 2.84 8.67ZM1947.88 1114.5c-.24.47-6.99 13.09-14.71 15.8-.01 0-.01.01-.01.01-.02-.04-.04-.05-.04-.05-.19-3.18-.33-6.33-.42-9.43.28-.01 7.75-.22 15.18-6.33Z"/><path fill="#EA9B7A" d="M1944.84 1082.59s-12.21-26.39-25.78-9.65c-11.18 13.79.9 57.74 21.47 45.99l4.31-36.34Z"/><path fill="#39393B" d="M1938.97 1111.72c-.79-.14-1.38-.95-1.35-1.89.61-18.27-11.57-26.78-12.09-27.13-.75-.52-1.01-1.65-.57-2.52.45-.87 1.41-1.17 2.17-.66.59.4 14.35 9.92 13.67 30.45-.04 1.02-.78 1.81-1.65 1.77-.07 0-.13-.01-.18-.02Z"/><path fill="#39393B" d="M1925.74 1098.16c-.46-.08-.88-.38-1.14-.88-.44-.88-.19-2 .56-2.52.7-.48 6.99-4.66 11.53-2.44.8.39 1.18 1.47.84 2.41-.34.93-1.27 1.37-2.08.98-2.6-1.27-7.25 1.23-8.67 2.21-.33.23-.69.3-1.04.24Z"/><path fill="#fff" d="M1982.66 1106.75c-11.95-5.29-17.96-20.87-13.39-34.72 4.56-13.85 17.99-20.82 29.94-15.53 11.95 5.3 17.95 20.87 13.39 34.72-4.56 13.86-18 20.82-29.94 15.53Zm15.34-46.58c-10.2-4.52-21.67 1.43-25.57 13.26-3.9 11.83 1.23 25.13 11.43 29.65s21.68-1.43 25.58-13.26c3.9-11.83-1.24-25.13-11.44-29.65Z"/><path fill="#fff" d="M1969.99 1075.62a1.47 1.47 0 0 1-.61-.17c-12.55-6.67-24.33-1.58-24.45-1.53-.87.39-1.85-.12-2.18-1.13-.34-1.01.1-2.15.97-2.54.54-.24 13.24-5.72 27.07 1.63.85.45 1.22 1.61.83 2.6-.3.75-.96 1.19-1.63 1.14ZM2033.97 1113.47c-11.95-5.29-17.96-20.86-13.39-34.71 4.56-13.86 17.99-20.82 29.94-15.53 11.95 5.29 17.96 20.86 13.39 34.71-4.56 13.86-17.99 20.82-29.94 15.53Zm15.35-46.57c-10.21-4.52-21.68 1.43-25.58 13.26-3.89 11.83 1.24 25.13 11.44 29.65 10.2 4.51 21.67-1.43 25.57-13.26 3.9-11.83-1.23-25.14-11.43-29.65Z"/><path fill="#fff" d="M2011.5 1079.82c-.25-.15-.48-.38-.64-.69-.49-.92-.26-2.13.54-2.71.23-.17 5.88-4.16 11.74 1.05.74.67.88 1.9.31 2.76-.57.86-1.63 1.02-2.37.36-4.02-3.57-7.84-.87-7.88-.84-.54.39-1.18.39-1.7.07Z"/><path fill="#39393B" d="M2023.93 989.494c14.08 7.358 25.15 20.956 30.09 37.926 3.09 10.63 5.68 24.66-7.21 22.85-35.17-4.95-53.99-47.26-53.99-47.26s-6.85 38.99-34.47 34.22c-27.62-4.76-26.74-28.92-11.04-42.577 12.79-11.135 45.37-21.488 76.62-5.159Z"/><path fill="#39393B" d="M1959.44 1032.75s-15.72 19.56-10.08 40.62c5.63 21.06 6.02 37.93.14 49.24 0 0-1.52-22.17-8.52-38.98-5.74-13.79-11.11-24.3-6.96-40.22 2.85-10.92 9.74-21.42 25.42-10.66Z"/><path fill="#21B573" d="M1933.9 1128.24c-12.18 3.41-21.61 1.43-28.59-3.64-1.11-.81-2.16-1.7-3.15-2.66-14.64-14.2-15.72-43.66-6.76-58.1 3.17-5.11 6.83-8.53 10.66-10.71 1.16-.68 2.34-1.23 3.53-1.68 15.13-5.75 31.54 4.77 31.54 4.77 17.18 54.77-7.23 72.02-7.23 72.02Z"/><path fill="#fff" d="M1976.75 1152.18c-35.6-8.44-50.73-38.18-51.43-39.59-.57-1.14-.23-2.6.76-3.26.99-.66 2.25-.26 2.82.88.22.46 18.71 36.51 61.87 39.24 1.14.08 2.01 1.2 1.95 2.52-.06 1.31-1.03 2.32-2.17 2.25-4.91-.32-9.5-1.03-13.8-2.04Z"/><path fill="#243434" d="M2002.13 1153.57c-.73 4.14-4.22 6.81-7.78 5.96-3.57-.84-5.87-4.88-5.14-9.02.73-4.14 4.21-6.8 7.78-5.96 3.57.84 5.87 4.88 5.14 9.02Z"/><path fill="#217C58" d="M1905.31 1124.6c-1.11-.81-2.16-1.7-3.16-2.66 11.26-29.58 7.46-55.4 3.91-68.8 1.16-.69 2.33-1.24 3.53-1.68 3.78 14.19 7.93 41.77-4.28 73.14Z"/><path fill="#fff" d="M2049.85 1016.34c-2.99-6.5-6.32-10.83-7.95-12.98-1.37-4.61-2.86-8.972-5.08-13.049-7.45-13.695-19.25-22.084-35.06-24.932-17.09-3.062-31.92.841-44.06 11.637-3.8 3.366-7.16 7.257-10.15 11.462-4.17 5.871-7.61 12.362-10.44 18.882-9.78 22.72-12.13 46.07-12.16 46.4l-4.67-.59c.21-2.22 5.48-54.65 34.56-80.48 13.2-11.726 29.24-15.998 47.63-12.691 17.24 3.093 30.12 12.329 38.33 27.429 4.76 8.734 7.55 18.712 9.05 28.912Z"/><path fill="#39393B" d="m1872.79 1615.09-16.23-35.79c-4.05-8.92 1.59-19.62 10.29-19.51l255.12 3.19-7.53 45.82-241.65 6.29Z"/><path fill="#39393B" d="M2110.04 1605.01h-228.32c-5.51 0-9.48-5.17-8.87-11.56l15.57-163.55c.6-6.39 5.56-11.56 11.07-11.56h228.31c5.51 0 9.49 5.17 8.88 11.56l-15.57 163.55c-.6 6.39-5.56 11.56-11.07 11.56Z"/><path fill="#564C54" d="M1878.32 1612.07c-.08 0-.16-.01-.24-.02-1.06-.15-1.81-1.27-1.67-2.49l18.95-175.18c.13-1.22 1.09-2.09 2.15-1.94 1.05.16 1.8 1.27 1.67 2.5l-18.95 175.18c-.12 1.12-.95 1.95-1.91 1.95Z"/><path fill="#585859" d="M1989.39 1514.59c-.87 13.14 7.48 24.46 18.64 25.28 11.17.82 20.93-9.15 21.81-22.29.87-13.14-7.48-24.46-18.65-25.29-11.16-.82-20.92 9.16-21.8 22.3Z"/><path fill="#39393B" d="M2111.13 1619.26h-231.45c-5.09 0-9.01-5.2-8.32-11.05l2.2-18.7h248.41l-2.52 21.33c-.57 4.83-4.12 8.42-8.32 8.42Z"/><path fill="#EBB12B" d="m1943.41 1566.47-1.66 9.33 7.63.01-.85 11.11-8.83-.01-1.85 10.15h-10.09l1.85-10.15h-6.24l-1.85 10.15-10.09-.01 1.85-10.15h-7.63l.85-11.11 8.83.01 1.66-9.33-7.63-.01.85-11.11 8.83.01 1.86-10.15 10.09.01-1.86 10.14 6.24.01 1.85-10.15 10.09.01-1.84 10.14h7.63l-.86 11.11-8.83-.01Zm-10.09 0h-6.24l-1.66 9.33h6.24l1.66-9.33Z"/><path fill="#DF615C" d="M2174.06 1307.96c0 40.33 28.19 73.02 62.97 73.02s62.97-32.69 62.97-73.02c0-40.32-28.19-73.01-62.97-73.01s-62.97 32.69-62.97 73.01Z"/><path fill="#DF615C" d="m2204.82 1367.68-33.83 8.3 14.65-33.81 19.18 25.51Z"/><path fill="#fff" d="M2242.39 1292.29c0-3.42-2.86-5.19-6.38-5.19-4.09 0-7.9 2.87-9.89 7.5l-16.94-9.82c4.85-10.59 14.46-17.87 29.69-17.87 14.94 0 26.07 7.28 26.07 21.07 0 16.88-15.22 19.86-15.22 28.35h-19.61c0-13.34 12.28-17.31 12.28-24.04Zm-15.04 41.48c0-7.39 5.14-13.02 12.56-13.02 7.42 0 12.56 5.63 12.56 13.02 0 7.28-5.14 13.24-12.56 13.24-7.42 0-12.56-5.96-12.56-13.24Z"/><path fill="#21B573" d="M1548.11 1722.93s-25.73-46.88-88.2-89.48c-44.12-30.09-69.82-115.05-69.82-115.05s84.52 4.26 121.27 63.92c36.75 59.65 36.75 140.61 36.75 140.61Z"/><path fill="#39393B" d="M1548.39 1724.18c-.56 0-1.07-.43-1.22-1.08-11.88-52.01-37.9-89.73-57.63-112.21-21.37-24.36-40.14-36.54-40.33-36.66-.6-.39-.83-1.28-.49-1.99.34-.7 1.11-.95 1.71-.56.2.12 19.26 12.5 40.88 37.13 19.95 22.74 46.26 60.9 58.29 113.54.18.78-.22 1.58-.89 1.78-.11.04-.22.05-.32.05Z"/><path fill="#21B573" d="M1537.03 1721.86s-7.35-17.05-40.43-12.79c-33.07 4.26-51.45 25.57-110.24-12.78 0 0 44.1-42.6 91.87-34.08 47.77 8.51 51.45 29.82 58.8 59.65Z"/><path fill="#39393B" d="M1537.19 1723.32c-.42 0-.83-.25-1.07-.69-.15-.27-14.94-27.22-38.73-32.24-41.58-8.76-69.89 6.65-70.17 6.81-.62.35-1.38.04-1.68-.68-.3-.73-.04-1.6.59-1.95.29-.16 29.28-15.99 71.71-7.05 24.9 5.25 39.79 32.41 40.41 33.56.37.69.19 1.59-.4 2.01-.2.15-.43.23-.66.23Z"/><path fill="#21B573" d="M1551.47 1717.74s-2.89-18.77 25.84-38.25c28.72-19.48 54.43-15.12 81.84-86.59 0 0-57.32-3.64-91.25 36.28-33.93 39.91-25.9 59.55-16.43 88.56Z"/><path fill="#39393B" d="M1551.34 1719.31c-.65 0-1.2-.58-1.25-1.34-.1-1.36-2.14-33.45 15.13-54.91 29.42-36.55 60.83-43.93 61.14-44 .68-.15 1.34.37 1.48 1.16.13.79-.32 1.56-1 1.71-.31.07-30.95 7.31-59.79 43.12-16.52 20.52-14.48 52.36-14.46 52.68.06.8-.46 1.51-1.15 1.57-.03 0-.07.01-.1.01Z"/><path fill="#DF615C" d="M1585.29 1740.9h-80.54c-4.75 0-8.64-4.51-8.64-10.02v-4.2c0-5.51 3.89-10.02 8.64-10.02h80.54c4.75 0 8.64 4.51 8.64 10.02v4.2c0 5.52-3.89 10.02-8.64 10.02Z"/><path fill="#DF615C" d="M1545.4 1949.55c-65.71 0-107.52-12.13-100.8-65.8 4.26-34.06 27.17-67.43 43.34-87.26 2.28-2.79 4.42-5.31 6.36-7.53 6-6.86 10.03-10.83 10.03-10.83l.19-1.23 1.14-7.53 1.32-8.67 3.02-19.8 1.05-6.92 34.35-1.74 35.84 1.74.82 6.92 1.29 10.87 2.08 17.6.9 7.53.14 1.24s4.05 3.96 10.04 10.83c1.94 2.21 4.08 4.74 6.35 7.52 16.18 19.84 39.08 53.21 43.35 87.27 6.72 53.66-35.1 65.79-100.81 65.79Z"/><path fill="#A92F4B" d="M1586.32 1776.9h-81.8l1.14-7.53h79.77l.89 7.53ZM1602.86 1796.49h-114.92c2.28-2.79 4.42-5.31 6.36-7.53h102.21c1.94 2.22 4.08 4.74 6.35 7.53ZM1583.35 1751.77l-76.37 8.93 3.02-19.8h72.06l1.29 10.87Z"/><path fill="#fff" d="M872.486 1240.55h-30.999c-3.081 0-5.581-2.89-5.581-6.47v-24.78c0-3.57 2.497-6.47 5.581-6.47h30.999c3.081 0 5.581 2.9 5.581 6.47v24.78c-.004 3.58-2.5 6.47-5.581 6.47Z"/><path fill="#fff" d="M890.277 1202.84v37.71l-13.134-12.82v-12.07l13.134-12.82Z"/><path fill="#DD615C" d="M946.859 1253.09c14.956 0 27.08-14.06 27.08-31.4 0-17.34-12.124-31.4-27.08-31.4-14.956 0-27.08 14.06-27.08 31.4 0 17.34 12.124 31.4 27.08 31.4Z"/><path fill="#fff" d="M934.091 1239.8c.728 0 1.456-.33 2.01-.97l25.54-29.61c1.111-1.29 1.111-3.37 0-4.66s-2.909-1.29-4.02 0l-25.54 29.61c-1.111 1.29-1.111 3.37 0 4.66.554.65 1.282.97 2.01.97Z"/><path fill="#fff" d="M959.631 1239.8c.728 0 1.456-.33 2.01-.97 1.111-1.29 1.111-3.38 0-4.66l-25.54-29.61c-1.111-1.29-2.913-1.29-4.02 0-1.111 1.29-1.111 3.37 0 4.66l25.54 29.61c.554.65 1.282.97 2.01.97ZM793.537 1237.61h2.587c3.386 0 6.157-3.21 6.157-7.14v-30.75c0-3.93-2.771-7.14-6.157-7.14h-2.587c-3.386 0-6.158 3.21-6.158 7.14v30.75c0 3.93 2.768 7.14 6.158 7.14Z"/><path fill="#fff" d="M794.565 1248.29h.53c.691 0 1.259-.66 1.259-1.46v-18.21c0-.8-.568-1.46-1.259-1.46h-.53c-.691 0-1.258.66-1.258 1.46v18.21c0 .8.567 1.46 1.258 1.46Z"/><path fill="#fff" d="M782.511 1249.91h24.634c1.456 0 2.647-1.38 2.647-3.07v-1.28c0-1.69-1.191-3.07-2.647-3.07h-24.634c-1.456 0-2.648 1.38-2.648 3.07v1.28c.004 1.69 1.195 3.07 2.648 3.07Z"/><path fill="#A92F4B" d="M677.075 1109.1c-1.577-16.34-13.154-29.57-27.583-31.4-11.208-1.44-24.195-1.99-34.228.74-2.718.74-5.235 1.71-7.45 3.03l.571 3c7.819-4.87 21.845-6.23 40.805-3.81 6.073.77 11.61 3.73 15.972 8.17 4.329 4.43 7.484 10.31 8.826 16.96.235 1.21.436 2.41.537 3.66.067.74.134 1.47.134 2.17l2.55-.81c-.033-.59-.1-1.13-.134-1.71Zm-57.482 1.12c-1.98 1.64-3.859 3-5.638 4.05l.537 3.04c2.081-1.21 4.295-2.77 6.611-4.67 10.872-9.11 18.02-1.56 25.637 6.46.336.35.671.73 1.007 1.08l2.919-.93c-.738-.78-1.476-1.56-2.215-2.33-7.617-8.06-16.308-17.2-28.858-6.7Z"/></g><defs><clipPath id="a"><path fill="#fff" d="M0 0h2300v2300H0z"/></clipPath></defs></svg>