<svg xmlns="http://www.w3.org/2000/svg" width="2395" height="2384" fill="none"><path fill="#FDD9ED" d="M2034.52 585.385C1544.2 3.282 381.22 74.468 168.754 456.51c-89.316 160.602 54.338 259.27 10.032 751.57-29.782 330.93-107.425 427.77-34.346 549.33 137.478 228.68 598.162 195.2 764.605 183.1 384.315-27.94 1232.665-202.24 1334.005-729.68 59.12-307.695-166.68-575.759-208.53-625.445Z"/><path fill="#C9CED6" d="M2102.84 1307.35c21.8 10.79 49.19.88 61.18-22.14 11.98-23.02 4.03-50.42-17.78-61.22-1.13-.56-2.28-1.03-3.43-1.47 4.05-12.74 7.1-25.58 9.15-38.42 1.25 0 2.5-.02 3.78-.13 24.87-2.16 44.61-24.45 44.09-49.78-.52-25.33-21.11-44.11-45.98-41.95-1.3.11-2.58.31-3.85.53-2.6-12.55-6.16-24.81-10.65-36.68 1.15-.65 2.29-1.33 3.4-2.09 21.28-14.53 28.08-43.22 15.19-64.079-12.88-20.854-40.58-25.976-61.86-11.441-1.09.746-2.12 1.55-3.13 2.367a223.144 223.144 0 0 0-27.6-25.117c.7-1.122 1.39-2.258 2.01-3.45 11.98-23.018 27.64-48.16 5.67-58.619-50.83-24.193-72.64-3.482-84.62 19.535a48.682 48.682 0 0 0-1.67 3.616 229.988 229.988 0 0 0-37.09-6.902c.08-1.28.14-2.561.11-3.861-.52-25.329 7.19-39.036-17.78-39.51-54.44-1.032-72.81 22.01-72.29 47.339.03 1.324.14 2.618.27 3.904a257.779 257.779 0 0 0-36.65 13.263c-.57-1.129-1.16-2.252-1.83-3.343-12.89-20.855-40.59-25.977-61.87-11.44-21.28 14.539-28.08 43.228-15.2 64.083.66 1.069 1.39 2.068 2.12 3.054a271.71 271.71 0 0 0-26.4 29.871c-1.06-.64-2.13-1.27-3.26-1.83-21.8-10.8-49.19-.89-61.17 22.13-11.99 23.02-4.03 50.43 17.77 61.22 1.13.56 2.28 1.03 3.44 1.48-4.05 12.73-7.11 25.57-9.15 38.41-1.25 0-2.51.02-3.78.13-24.87 2.17-44.62 24.45-44.09 49.78.52 25.33 21.1 44.11 45.98 41.95 1.3-.11 2.57-.31 3.84-.53 2.6 12.55 6.16 24.81 10.65 36.68-1.14.65-2.28 1.33-3.39 2.09-21.28 14.53-28.09 43.22-15.2 64.08s55.56 30.54 76.84 16.01c1.09-.75-12.86-6.12-11.84-6.94 8.4 9.06 17.62 17.46 27.6 25.12-.71 1.12-1.39 2.26-2.01 3.45-11.99 23.02-4.03 50.43 17.77 61.22s49.19.88 61.18-22.13c.62-1.2 1.15-2.41 1.67-3.62 12.23 3.33 24.62 5.63 37.08 6.9-.08 1.28-.14 2.56-.11 3.86.52 25.33 21.11 44.11 45.98 41.95 24.87-2.16 44.62-24.45 44.09-49.78-.02-1.32-.14-2.62-.27-3.9 12.48-3.47 24.73-7.9 36.66-13.27.56 1.13 1.15 2.26 1.83 3.35 12.88 20.85 40.58 25.98 61.86 11.44 21.28-14.54 28.09-43.23 15.2-64.09-.66-1.06-1.38-2.06-2.12-3.05 9.43-9.19 18.25-19.17 26.41-29.87 1.05.65 2.12 1.28 3.25 1.84Zm-271.78 3.36c-79.15-39.19-108.05-138.7-64.53-222.27 43.52-83.57 142.96-119.551 222.12-80.36 79.16 39.18 108.05 138.69 64.53 222.26-43.51 83.57-142.96 119.55-222.12 80.37Z"/><path fill="#D8DEE8" d="M2155.74 1183.97c24.87-2.16 44.61-24.45 44.09-49.78-.52-25.33-21.1-44.11-45.98-41.95-1.3.11-2.58.31-3.84.53-2.6-12.55-6.16-24.81-10.65-36.68 1.14-.65 2.28-1.33 3.39-2.09 21.28-14.53 47.61-49.66 32.59-69.112-28.49-36.926-57.98-20.942-79.26-6.407-1.09.746-2.12 1.549-3.13 2.366a222.592 222.592 0 0 0-27.6-25.118c.7-1.121 1.39-2.257 2.01-3.448 6.52-12.527 7.1-26.338 2.79-38.08-20.55 35.274-40.83 70.695-60.75 106.309 63.15 45.12 83.26 134.03 43.79 209.83-33.45 64.24-99.94 100.31-164.87 95.79-2.89 7.32-5.74 14.68-8.84 21.94-8.41 19.68-17.97 38.95-27.55 58.21 6.02 1.1 12.07 1.97 18.13 2.59-.07 1.28-.13 2.56-.11 3.86.52 25.33 16.3 46.85 61.38 44.52 24.93-1.29 29.22-27.02 28.7-52.35-.03-1.32-.14-2.61-.28-3.9 12.48-3.47 24.73-7.9 36.66-13.26.57 1.13 1.16 2.25 1.83 3.34 12.89 20.86 57.6 29.72 78.88 15.18 21.28-14.54 11.07-46.97-1.82-67.82-.66-1.07-1.38-2.07-2.11-3.06 9.42-9.18 18.25-19.16 26.4-29.87 1.06.65 2.13 1.28 3.25 1.84 21.81 10.79 49.2.88 61.18-22.14 11.99-23.01 4.03-50.42-17.77-61.22-1.13-.55-2.28-1.02-3.44-1.47 4.05-12.74 7.1-25.58 9.15-38.42 1.25 0 2.5-.02 3.78-.13Z"/><path fill="#B7C0CE" d="M2126.29 1309.94c21.8 10.8 49.19.89 61.18-22.13 11.98-23.02 4.03-50.42-17.78-61.22-1.13-.56-2.28-1.03-3.44-1.48 4.06-12.73 7.11-25.57 9.16-38.41 1.25 0 2.5-.02 3.78-.13 24.87-2.16 44.61-24.45 44.09-49.78-.52-25.33-21.11-44.11-45.98-41.95-1.3.11-2.58.31-3.85.53-2.6-12.55-6.16-24.81-10.65-36.68 1.15-.65 2.29-1.33 3.4-2.09 21.28-14.53 28.08-43.22 15.19-64.079-12.88-20.855-40.58-25.977-61.86-11.441-1.09.746-2.12 1.55-3.13 2.367a223.152 223.152 0 0 0-27.6-25.118c.7-1.121 1.39-2.257 2.01-3.449 11.98-23.017 4.03-50.425-17.78-61.219-21.8-10.792-49.19-.882-61.17 22.135a48.682 48.682 0 0 0-1.67 3.616 229.88 229.88 0 0 0-37.09-6.902c.08-1.281.14-2.562.11-3.861-.52-25.329-21.1-44.111-45.98-41.948-24.87 2.161-44.61 24.448-44.09 49.777.03 1.325.14 2.619.27 3.904a257.779 257.779 0 0 0-36.65 13.263c-.57-1.129-1.16-2.251-1.83-3.343-12.89-20.856-40.59-25.977-61.87-11.44-21.28 14.538-28.08 43.228-15.19 64.083.65 1.069 1.38 2.068 2.11 3.054a271.802 271.802 0 0 0-26.4 29.871c-1.06-.64-2.13-1.27-3.26-1.83-21.8-10.8-49.19-.89-61.17 22.13-11.99 23.02-4.03 50.43 17.77 61.22 1.13.56 2.28 1.03 3.44 1.48-4.05 12.73-7.11 25.57-9.15 38.41-1.25 0-2.51.02-3.78.13-24.87 2.17-44.62 24.45-44.1 49.78.53 25.33 21.11 44.11 45.99 41.95 1.3-.11 2.57-.31 3.84-.53 2.6 12.55 6.16 24.81 10.65 36.68-1.14.65-2.28 1.33-3.39 2.09-21.28 14.53-28.09 43.22-15.2 64.08 12.89 20.85 40.59 25.98 61.87 11.44 1.09-.75 2.11-1.55 3.13-2.37 8.4 9.06 17.62 17.46 27.6 25.12-.71 1.12-1.39 2.26-2.01 3.45-11.99 23.02-4.03 50.43 17.77 61.22s49.19.88 61.18-22.14c.62-1.19 1.15-2.4 1.67-3.61 12.23 3.33 24.62 5.63 37.08 6.9-.08 1.28-.14 2.56-.11 3.86.52 25.33 21.11 44.11 45.98 41.95 24.87-2.16 44.62-24.45 44.09-49.78-.02-1.32-.14-2.62-.27-3.9 12.48-3.47 24.73-7.9 36.66-13.27.56 1.13 1.15 2.26 1.82 3.35 12.89 20.85 40.59 25.97 61.87 11.44 21.28-14.54 28.09-43.23 15.2-64.09-.66-1.06-1.39-2.06-2.12-3.05 9.42-9.19 18.25-19.17 26.4-29.87 1.06.65 2.13 1.28 3.26 1.83Zm-271.78 3.37c-79.15-39.19-108.05-138.7-64.53-222.27 43.52-83.57 142.97-119.551 222.12-80.37 79.16 39.19 108.05 138.7 64.53 222.27-43.51 83.57-142.96 119.55-222.12 80.37Z"/><mask id="a" width="794" height="1284" x="734" y="197" maskUnits="userSpaceOnUse" style="mask-type:luminance"><path fill="#fff" d="m1349.83 1480.78 177.18-124.94s-32.38-112.14-122.19-144.06c-183.24-65.13-111.95-217.059-91.85-285.05 30.31-102.535 11.15-205.78-116.29-166.742-127.43 39.037-139.34-188.887-65.92-347.604 71.85-155.314-169.852-369.466-357.017-47.228-111.774 192.439 42.541 346.732 101.472 442.712 58.93 95.98-73.27 200.582 55.698 277.652 110.167 65.83 237.637 80.59 227.307 186.55-10.34 105.95 37.5 182.84 191.61 208.71Z"/></mask><g mask="url(#a)"><path fill="url(#b)" d="m1349.83 1480.78 177.18-124.94s-32.38-112.14-122.19-144.06c-183.24-65.13-111.95-217.058-91.85-285.049 30.3-102.535 10.01-193.089-107.1-178.53-132.51 16.472-148.53-177.1-75.11-335.817 71.85-155.314-169.852-369.466-357.017-47.228-111.774 192.439 42.541 346.732 101.472 442.712 58.93 95.98-73.27 200.582 55.698 277.652 110.167 65.83 237.637 80.59 227.307 186.55-10.34 105.95 37.5 182.84 191.61 208.71Z"/></g><mask id="c" width="794" height="1284" x="734" y="197" maskUnits="userSpaceOnUse" style="mask-type:luminance"><path fill="#fff" d="m1349.83 1480.78 177.18-124.94s-32.38-112.14-122.19-144.06c-183.24-65.13-111.95-217.059-91.85-285.05 30.31-102.535 11.15-205.78-116.29-166.742-127.43 39.037-139.34-188.887-65.92-347.604 71.85-155.314-169.852-369.466-357.017-47.228-111.774 192.439 42.541 346.732 101.472 442.712 58.93 95.98-73.27 200.582 55.698 277.652 110.167 65.83 237.637 80.59 227.307 186.55-10.34 105.95 37.5 182.84 191.61 208.71Z"/></mask><g fill="#BEB8F2" mask="url(#c)" opacity=".5"><path d="m1438.41 1442.74 3.19-3.26c-2.06-1.92-208.17-195.6-353.12-447.673-133.534-232.224-240.97-562.972 5.53-819.874l-3.37-3.075c-109.734 114.36-159.661 252.601-148.401 410.88 8.994 126.439 56.857 265.846 142.261 414.351 145.29 252.641 351.84 446.711 353.91 448.651Z"/><path d="m949.874 645.681 3.377-3.07C848.523 533.006 768.669 328.716 767.874 326.666l-4.319 1.588c.799 2.061 80.976 207.179 186.319 317.427ZM945.336 540.02c69.174-165.279 214.034-211.536 215.494-211.983l-1.39-4.291c-1.48.452-148.35 47.268-218.378 214.573l4.274 1.701ZM1192.45 1151.57c-85.72-201.433 122.84-412.738 125.05-414.631l-2.81-3.564c-2.35 1.657-212.99 216.698-126.51 419.915l4.27-1.72ZM1137.25 1079.53l3.11-3.33c-105.44-93.792-284.608-83.144-286.407-83.024l.311 4.489c1.78-.117 179.016-10.623 282.986 81.865ZM1409.86 1408.31c-44.25-70.72 14.44-192.82 15.03-194.05l-4.16-1.93c-2.49 5.09-60.37 125.51-14.81 198.33l3.94-2.35ZM1360.41 1363.09l3.24-3.22c-47.98-45.86-172.32-46.94-213.18-47.3-5.78-.05-10.76-.1-11.65-.27l-1 4.39c1.25.27 4.56.31 12.6.38 40.41.35 163.35 1.43 209.99 46.02Z"/></g><path fill="url(#d)" d="M978.554 1352.57c67.116 7.27 101.706 61.49 120.436 104.55-3.6 5.26-4.3 9.19-6.72 15.26-21.83 54.82-43.13 73.67-73.41 124.39-6.51 10.92-35.634 37.29-48.243 47.33l-23.812 18.33s-151.215-35.07-140.356-120.66c10.859-85.6-128.423-136.67-198.79-172.59-43.21-22.06-55.725-45.64-70.267-56.23-153.946-112.11-233.206-95.51-260.299-161.95-29.909-73.34 58.122-114.56 29.91-196.022-31.858-91.986-165.495-101.188-175.692-194.806-1.749-16.05-3.097-32.588 3.378-53.171 15.985-50.807 64.816-69.05 49.427-122.519-30.934-107.474 12.062-224.05 129.333-236.678 115.74-12.462 215.169 151.638 211.573 403.983 18.428 179.742 47.095 200.161 126.435 236.143 55.571 25.2 223.365 57.64 227.053 161.92 3.691 104.28 23.314 194.4 100.044 202.72Z"/><mask id="e" width="990" height="1315" x="129" y="347" maskUnits="userSpaceOnUse" style="mask-type:luminance"><path fill="#fff" d="M1118.79 1513.78 953.969 1661.3s-158.378-33.94-147.519-119.53c10.859-85.6-128.422-136.66-198.79-172.59-190.924-97.46-35.202-288.18-268.774-433.435-62.123-38.632-195.439-90.937-207.575-175.572-13.826-96.423 72.596-106.928 52.805-175.691-30.934-107.473 12.063-224.05 129.333-236.678 115.74-12.462 215.169 151.638 211.574 403.982 18.428 179.744 47.095 200.161 126.433 236.143 55.572 25.201 223.366 57.641 227.055 161.921 3.688 104.28 23.312 194.4 100.042 202.72 116.757 12.65 140.237 161.21 140.237 161.21Z"/></mask><g fill="#FCFDFE" mask="url(#e)" opacity=".5"><path d="m1038.31 1572.65-2.89 3.28a2791.149 2791.149 0 0 1-55.493-46.84c-134.001-116.21-251.067-241.32-347.946-371.86-82.088-110.61-150.864-226.656-204.42-344.911-43.069-95.099-76.573-192.139-99.578-288.424-16.172-67.687-27.031-134.304-32.269-198.001-.915-11.1-1.21-22.55-1.495-33.624-.379-14.753-.772-30.008-2.637-44.554l4.237-.827c1.892 14.745 2.287 30.103 2.669 44.956.284 11.019.577 22.412 1.483 33.399 5.221 63.498 16.047 129.915 32.173 197.411 22.949 96.047 56.375 192.855 99.343 287.736 53.445 118.01 122.086 233.819 204.015 344.219 96.715 130.32 213.595 255.23 347.39 371.26a2780.882 2780.882 0 0 0 55.418 46.78Z"/><path d="m502.939 951.144-3.72 2.323c-89.873-148.996-379.093-246.589-382.004-247.556l1.645-3.966c2.925.972 293.487 99.012 384.079 249.199ZM793.51 1343.52l-3.451 2.7c-73.776-93.33-19.242-326.18-18.683-328.52l4.156.65c-.555 2.32-54.646 233.29 17.978 325.17ZM840.342 1392.57l-2.955 3.23c-59.104-50.79-169.957-86.98-312.137-101.91-7.149-.75-7.149-.75-7.742-1.25l2.916-3.26-1.459 1.63.765-1.99c.466.11 3.165.39 6.295.72 142.992 15.01 254.617 51.53 314.317 102.83ZM1004.59 1544.06l-3.71 2.34c-44.535-73.1 4.53-198.08 5.03-199.33l3.97 1.25c-.5 1.24-48.804 124.32-5.29 195.74ZM1034.83 1578.22c-67.057-22.34-144.367-26.03-236.344-11.28l-.373-4.12c92.685-14.86 170.655-11.12 238.367 11.44l-1.65 3.96ZM346.662 579.072l-3.831 2.123c-45.019-85.926-113.542-164.429-136.059-190.225-5.451-6.245-7.361-8.45-7.881-9.341l3.749-2.272c.407.675 3.522 4.244 7.468 8.764 22.589 25.878 91.33 104.633 136.554 190.951ZM397.836 730.993l-4.216.97c-15.057-91.024 97.8-250.199 102.611-256.932l3.437 2.213c-1.166 1.634-116.607 164.426-101.832 253.749Z"/></g><path fill="url(#f)" d="M1209.39 1243.93c-7.12 8.47-48.88-32.18-128.49-43.53-19.89-2.84-127.278-25.65-173.629 41.05l-26.994 38.85c-37.837-7.26-72.119-20.93-57.967-68.26 21.979-73.49-84.798-138.85-133.967-144.26-60.856-6.7-202.068-25.19-169.872-139.238 26.802-94.944 63.474-151.896-33.954-217.375-97.43-65.48-124.188-159.214-57.895-249.343 69.763-94.847-6.58-251.743 88.329-307.081 165.375-96.42 306.003 163.006 260.374 372.392-45.628 209.384 77.877 146.937 163.538 191.308 7.713 4.557 19.309 12.205 31.24 23.763 73.447 71.164 32.177 167.274 62.187 272.404 40.92 143.37 189.09 215.04 177.1 229.32Z"/><mask id="g" width="660" height="1154" x="390" y="134" maskUnits="userSpaceOnUse" style="mask-type:luminance"><path fill="#fff" d="m1049.11 1073.5-139.876 213.85c-37.739-5.41-102.732-22.45-86.924-75.31 21.979-73.49-84.798-138.85-133.967-144.26-60.856-6.7-202.068-25.19-169.873-139.239 26.802-94.943 63.475-151.895-33.954-217.374-97.429-65.48-124.187-159.215-57.893-249.343 69.763-94.847-6.582-251.742 88.328-307.079 165.375-96.422 306.002 163.004 260.374 372.39-45.628 209.384 77.877 146.938 163.538 191.308 116.947 60.575-7.573 202.321 10.257 269.811 13.977 52.906 65.81 75.336 99.99 85.246Z"/></mask><g fill="#FCFDFE" mask="url(#g)" opacity=".5"><path d="m950.364 1154.34-3.848 4.02C664.394 896.806 520.224 493.941 570.268 106.983l5.405.383c-49.832 385.327 93.742 786.507 374.691 1046.974Z"/><path d="m809.696 998.02-3.01 4.65c-130.528-77.969-306.338-24.466-308.1-23.916l-1.371-5.122c1.783-.559 179.895-54.806 312.481 24.388ZM899.879 1104.76l-4.808 2.8c-74.816-133.828 68.07-389.568 69.524-392.136l4.723 2.416c-1.436 2.539-142.833 255.637-69.439 386.92ZM633.895 664.126l-4.57 3.186c-68.618-100.251-258.478-124.487-260.387-124.72l.965-5.34c1.933.235 194.107 24.771 263.992 126.874ZM576.664 424.373l-5.449.122c4.911-141.632 144.133-282.383 145.543-283.789l3.769 3.669c-1.392 1.387-139.031 140.572-143.863 279.998Z"/></g><path fill="#97A6B7" d="M2002.97 1420.64V523.028c0-18.407-15.67-20.52-34.73-21.267L386.717 426.215c-24.067-.943-43.819 15.272-43.819 36.038v992.007l1660.072-33.62Z"/><path fill="#97A6B7" d="M342.898 1454.26v198.11c0 20.77 19.752 36.94 43.819 35.95l1574.463-78.42c19.07-.79 41.78-3.26 41.78-21.67v-173.34l-1660.062 39.37Z"/><path fill="#97A6B7" d="M1443.37 1821.81c-28.5-9.22-49.8-32.81-55.81-61.79l-41.48-200.19-354.861 12.29-43.672 208.55c-6.116 29.2 18.368 58.5 46.566 69.26l148.467 56.64a197.585 197.585 0 0 0 86.8 12.27l313.75-26.17c9.18-.77 16.53-7.8 17.6-16.82 1.07-9.01 7.49-19.14-1.25-21.97l-116.11-32.07Z"/><path fill="#D8DEE8" d="M1446.88 1809.63c-28.47-9.1-49.75-32.39-55.75-61.02l-41.45-197.66-346.2 12.14-43.633 205.93c-6.11 28.84 10.057 57.76 38.226 68.38l148.317 55.93c27.58 10.4 57.24 14.54 86.71 12.11l313.44-25.84c9.17-.76 16.52-7.7 17.58-16.6 1.07-8.91-4.44-17.31-13.18-20.11l-104.06-33.26ZM2014.52 523.023v897.637l-979.23 19.8-682.649 13.8V462.24c0-20.746 20.165-36.975 44.242-36.031l133.611 5.231L1979.3 488.217c19.08.74 35.22 16.408 35.22 34.806Z"/><path fill="url(#h)" d="M402.406 600.311v774.899c0 19.34 18.337 34.65 40.686 34.03l1501.058-41.62c17.92-.5 32.54-15.02 32.54-32.27V644.235L402.406 600.311Z"/><path fill="url(#i)" d="M1976.69 644.235v-79.314c0-16.897-14.32-31.243-31.87-31.882L442.262 478.384c-21.894-.796-39.856 14.052-39.856 32.997v88.929l1574.284 43.925Z"/><path fill="#fff" d="M512.242 539.979c0 6.659-6.225 11.865-13.913 11.628-7.699-.238-13.95-5.843-13.95-12.52s6.251-11.883 13.95-11.627c7.688.256 13.913 5.861 13.913 12.519ZM572.209 541.899c0 6.62-6.151 11.797-13.749 11.562-7.61-.235-13.788-5.806-13.788-12.444 0-6.638 6.178-11.814 13.788-11.561 7.598.252 13.749 5.823 13.749 12.443ZM631.478 543.797c0 6.581-6.08 11.729-13.59 11.497-7.521-.232-13.626-5.77-13.626-12.369 0-6.598 6.105-11.746 13.626-11.496 7.51.249 13.59 5.786 13.59 12.368Z"/><path fill="url(#j)" d="M2014.51 1414.89v173.34c0 18.4-16.03 34.1-35.1 34.89l-57.59 2.37L397 1688.31c-24.077 1-44.363-15.18-44.363-35.95v-205.75l680.613-5.92 981.26-25.8Z"/><path fill="#fff" d="m1921.58 1625.49-1524.697 62.82c-24.077 1-44.242-15.18-44.242-35.95V462.24c0-20.746 20.165-36.975 44.242-36.031l133.611 5.231c20.492 13.397 38.841 29.932 53.497 49.58.654.868 1.337 1.735 1.939 2.603 11.384 15.77 19.498 32.228 25.177 49.172 2.512 7.401 4.542 14.876 6.19 22.455 3.691 16.766 5.503 33.887 6.262 51.24 1.623 36.669-1.332 74.307-1.175 111.384.314 75.15 5.132 150.248 56.269 210.75 37.87 44.809 99.557 61.829 150.748 87.886 59.749 30.41 112.172 70.76 142.529 130.67 37.27 73.54 2.278 153.41 26.094 229.38a153.732 153.732 0 0 0 6.486 17.12c7.2 16.16 16.99 30.96 28.69 44.45.65.8 1.33 1.56 2.04 2.33 45.56 51.06 118.5 82.95 181.73 98.39 129.76 31.64 264.33-23.19 393.15-27.51 92.8-3.08 221.15 17.33 289.4 85.39 8.24 8.21 15.65 17.99 22.06 28.76Z" opacity=".54"/><path fill="url(#k)" d="M2108.1 402.553v269.635c0 29.132-18.36 56.098-49.98 78.129a222.77 222.77 0 0 1-24.82 14.958c-49.21 25.581-118.47 41.505-195.22 41.505-76.76 0-146.08-15.923-195.29-41.505-46.56-24.173-75.14-56.959-75.14-93.087V402.553h540.45Z"/><path fill="url(#l)" d="M2058.34 750.314c-7.58 5.273-15.91 10.285-24.93 14.958-49.21 25.581-118.52 41.505-195.28 41.505s-146.11-15.923-195.32-41.505c-46.55-24.173-75.16-56.959-75.16-93.087V532.268c38.61 16.34 91.76 48.344 101.72 100.057 15.58 80.922 129.65 108.331 243.06 90.058 49.96-8.066 102.27 4.594 145.91 27.931Z" opacity=".3"/><path fill="url(#m)" d="m2250.06 427.646-405.63-195.319-405.63 195.319h-15.27v6.357l422.06 203.15 422.07-203.15v-6.357h-17.6Z"/><path fill="url(#n)" d="M1844.43 223.021 1422.54 426.17l421.89 203.151 421.9-203.151-421.9-203.149Z"/><path fill="url(#o)" d="M2263.8 708.214c-3.1 0-6.44-2.446-6.44-5.463V436.46c0-6.024-3.38-11.325-9.56-11.325h-403.37c-3.09 0-5.6-2.002-5.6-5.019 0-3.017 2.51-5.018 5.6-5.018h403.37c12.35 0 22.43 9.314 22.43 21.362v266.291c0 3.017-3.34 5.463-6.43 5.463Z"/><path fill="url(#p)" d="m2278.34 659.82-4.94-8.269c-1.82-3.137-5.32-5.052-9.02-4.993-3.69.058-7.1 2.081-8.81 5.274l-4.43 8.606c-1.12 2.08-1.5 4.394-1.5 6.742v72.442c0 1.556 6.94 2.817 15.45 2.817 8.5 0 15.44-1.261 15.44-2.817v-72.647c0-2.508-.93-4.972-2.19-7.155Z"/><mask id="q" width="1501" height="1122" x="481" y="279" maskUnits="userSpaceOnUse" style="mask-type:luminance"><path fill="#fff" d="m791.389 1400.36 666.661-19.65 523.47-585.137-335.09-516.389L499.501 435.555l-17.509 927.555 309.397 37.25Z"/></mask><g mask="url(#q)"><path fill="url(#r)" d="M1807.37 834.179s12.92-15.6 37.14-16.579c24.19-.979 57.12-15.69 71.26-17.094 3.4-.339 5.09-1.338 5.38-2.588.6-2.575-15.09-6.17-29.01-6.498-24.7-.584-39.11 9.063-42.45 4.209-3.73-5.428 12.23-20.492 9.31-23.804-2.27-2.567-13.12 5.847-24.74 11.026-8.25 3.678-40.55 42.669-40.55 42.669l13.66 8.659Z"/><path fill="url(#s)" d="M1825 828.028c-1.98 93.621-48.53 178.662-123.07 220.532-3.09 1.73-6.23 3.4-9.43 4.99-136.19 67.8-272.67-46.93-289.09-61.198-4.25-3.678-24.58-21.817-45.78-51.92-23.89-33.856-48.87-82.892-53.18-143.386-1.76-24.757-7.12-100.249 33.02-123.134 41.32-23.559 107.07 22.132 133.78 40.682 112.97 78.481 115.69 174.823 177.82 184.607 27.83 4.382 72.07-7.934 138.52-95.689 12.48 8.176 24.94 16.348 37.41 24.516Z"/><path fill="url(#t)" d="M1701.93 1048.56c-3.08 1.73-6.23 3.4-9.42 4.99-136.2 67.8-272.68-46.93-289.1-61.198-4.25-3.679-24.57-21.818-45.77-51.92 6.59-29.097 15.55-67.665 15.55-67.665s58.45-7.08 86.18 60.462c10.01 24.404 22.11 48.177 42.6 65.3 20.65 17.301 36.64 14.661 62.69 10.701 23.96-3.63 49 14.19 69.76 22.77 21.49 8.88 43.78 18.05 67.51 16.56Z" opacity=".3"/></g><mask id="u" width="1501" height="1122" x="481" y="279" maskUnits="userSpaceOnUse" style="mask-type:luminance"><path fill="#fff" d="m791.389 1400.36 666.661-19.65 523.47-585.137-335.09-516.389L499.501 435.555l-17.509 927.555 309.397 37.25Z"/></mask><g mask="url(#u)"><path fill="url(#v)" d="M1337.7 1226.22c-5.35 132.9-4.27 282.81 8.71 446.52 12.84 161.84 35.07 308.89 60.96 438.72-15.28 2.95-30.56 5.9-45.83 8.85-36.27-38.7-81.41-98.68-100.39-180.07-11.78-50.51-5.63-75.57-11.55-137.05-9.4-97.88-36.16-150.7-62.44-230.91-23.61-72.05-50.44-177.18-60.46-315.9 70.24-10.04 140.57-20.1 211-30.16Z"/></g><mask id="w" width="1501" height="1122" x="481" y="279" maskUnits="userSpaceOnUse" style="mask-type:luminance"><path fill="#fff" d="m791.389 1400.36 666.661-19.65 523.47-585.137-335.09-516.389L499.501 435.555l-17.509 927.555 309.397 37.25Z"/></mask><g mask="url(#w)"><path fill="url(#x)" d="M1316.62 1847.29c-16.8-67.38-49.14-85.69-50.29-148.99-.82-44.78 15.13-48.17 14.08-91.04-1.61-65.02-39.35-99.69-58.3-140.85-20.01-43.45-27.67-112.87 26.26-227.43-40.59 5.8-81.15 11.6-121.67 17.39 10.02 138.72 36.85 243.86 60.46 315.9 26.28 80.21 53.04 133.03 62.44 230.92 5.92 61.48-.23 86.54 11.55 137.04 18.98 81.4 64.12 141.38 100.39 180.08 3.89-.75 7.77-1.5 11.65-2.25-39.22-48.01-53.05-90.42-56.57-124.67-5.72-55.72 16.94-78.14 0-146.1Z" opacity=".3"/></g><mask id="y" width="1501" height="1122" x="481" y="279" maskUnits="userSpaceOnUse" style="mask-type:luminance"><path fill="#fff" d="m791.389 1400.36 666.661-19.65 523.47-585.137-335.09-516.389L499.501 435.555l-17.509 927.555 309.397 37.25Z"/></mask><g mask="url(#y)"><path fill="url(#z)" d="M1185.36 1215.93a23745.957 23745.957 0 0 0-79.8 901.07c-15.4.76-30.8 1.51-46.19 2.27-13.31-28.88-30.68-72.79-41.24-128.19-12.82-67.27-6.97-106.22-10.5-175.22-3.97-77.37-14.743-94.94-30.268-193.27-31.498-199.48-47.241-299.18 2.706-357.15 16.223-18.84 66.452-65.47 205.292-49.51Z"/></g><mask id="A" width="1501" height="1122" x="481" y="279" maskUnits="userSpaceOnUse" style="mask-type:luminance"><path fill="#fff" d="m791.389 1400.36 666.661-19.65 523.47-585.137-335.09-516.389L499.501 435.555l-17.509 927.555 309.397 37.25Z"/></mask><g mask="url(#A)"><path fill="url(#B)" d="M787.27 689.39c82.794-27.762 209.367-58.311 364.57-50.663 90.11 4.44 176.79 14.72 238.32 32.59 8.33 46.989 7.59 99.938 15.92 146.948a1690.483 1690.483 0 0 1-2.72 186.105c-5.25 75.25-10.38 76.33-22.4 182.48-19.59 173.03-11.4 218.42-45.95 238.72-22.46 13.2-30.58-3.26-145.03-16.39-76.62-8.8-115.67-12.93-154.4-.25-52.691 17.24-70.312 47.23-92.026 37.06-20.816-9.75-23.466-46.15-25.98-109.56-3.876-97.83-3.638-164.28-3.995-188.07-1.641-109.16-28.944-192.776-63.893-299.809-21.847-66.908-44.849-121.085-62.416-159.161Z"/></g><mask id="C" width="1501" height="1122" x="481" y="279" maskUnits="userSpaceOnUse" style="mask-type:luminance"><path fill="#fff" d="m791.389 1400.36 666.661-19.65 523.47-585.137-335.09-516.389L499.501 435.555l-17.509 927.555 309.397 37.25Z"/></mask><g mask="url(#C)"><path fill="url(#D)" d="M1141.54 530.305c-1.22 27.489-5.41 49.092-9.07 63.838-4.2 16.894-6.8 21.165-10.01 24.562-4.84 5.115-11.98 9.215-51.47 16.575-21.47 4.001-24.19 3.689-24.77 5.783-2.83 10.222 53.11 49.126 113.34 44.317 36.89-2.945 71.35-21.97 69.89-33.171-1.47-11.274-38.39-7.549-48.23-28.377-6.84-14.487 2.72-33.873 13.64-49.746-8.76-18.997-44.56-24.796-53.32-43.781Z"/><path fill="url(#E)" d="M1210.38 559.053c11.9-8.332 18.84-27.428 13.44-42.714-4.64-13.152-16.95-18.852-24.32-22.266-21.34-9.888-52.48-9.707-69.12 7.77-9.86 10.356-5.89 39.921-5.46 45.141.48 5.904 3.9 9.001 6.31 14.137 3.33 7.122 8.51 18.405 16.84 37.175 2.44-3.924 5.76-8.685 10.13-13.588 1.69-1.889 8.38-9.224 16.53-14.448 16.35-10.477 24.38-3.311 35.65-11.207Z"/><path fill="url(#F)" d="M1133.36 579.974s6.5 29.044 36.2 36.711c26.6 6.868 50.15-50.967 37.71-68.976-4.16-6.009-14.69-11.4-24.57-11.809-5.84-.24-8.4 1.408-17.93.825-8.79-.535-10.77-2.192-13.9-.919-3.92 1.598-8.28 7.232-8.95 26.172-3.27-6.719-8.57-10.632-13.46-10.006-.78.103-2.98.744-4.61 2.277-5.88 5.547-2.68 16.164 9.51 25.725Z"/><path fill="url(#G)" d="M1150.88 531.891c.93 1.359-4.48 4.835-7.01 11.448-4.9 12.832 2.89 32.744 15.73 38.442 7.59 3.369 11.35-.71 24.8 2.177 8.33 1.789 14.67 5.029 18.58 7.347-.69 15.629-9.29 28.604-20.93 32.101-12.53 3.764-24.06-4.826-28.88-8.419-3.22-2.402-13.56-10.074-16.03-22.861-2.57-13.325 5.9-18.055 1.18-28.047-2.38-5.038-6.63-8.282-8.83-17.245-.6-2.434-.85-4.498-.97-5.868 9.11-4.99 21-11.044 22.36-9.075Z"/><path fill="url(#H)" d="M1191.75 593.483s-6.61 1.122-16.14-2.632c-.46-.184-1.03-.215-1.18.013-.53.859 4.31 7.095 10.59 7.353 4.47.181 8.95-2.679 8.73-3.854-.09-.495-1.03-.743-2-.88Z"/></g><mask id="I" width="1501" height="1122" x="481" y="279" maskUnits="userSpaceOnUse" style="mask-type:luminance"><path fill="#fff" d="m791.389 1400.36 666.661-19.65 523.47-585.137-335.09-516.389L499.501 435.555l-17.509 927.555 309.397 37.25Z"/></mask><g mask="url(#I)"><path fill="url(#J)" d="m863.65 1147.83 27.433-1.21s30.073-25.1 43.766-23.34c13.696 1.75 34.192 11.62 36.691 13.67 2.501 2.05-7.5 13.22-17.497 12-9.995-1.22-32.294 3.96-36.28 12.81-3.986 8.86-21.285 14.02-24.223 8.76l-36.876 6.94 6.986-29.63Z"/></g><mask id="K" width="1501" height="1122" x="481" y="279" maskUnits="userSpaceOnUse" style="mask-type:luminance"><path fill="#fff" d="m791.389 1400.36 666.661-19.65 523.47-585.137-335.09-516.389L499.501 435.555l-17.509 927.555 309.397 37.25Z"/></mask><g mask="url(#K)"><path fill="url(#L)" d="M871.947 1138.22c1.921 22.81-2.981 38.21-11.16 48.72-36.235 46.54-159.201 25.73-232.154-38.07-53.938-47.17-82.475-119.69-81.421-184.356 2.056-126.183 117.378-248.879 289.373-290.27l76.554 232.345c-106.252.561-170.703 80.909-161.151 138.841 7.119 43.17 56.73 82.53 119.959 92.79Z"/></g><mask id="M" width="1501" height="1122" x="481" y="279" maskUnits="userSpaceOnUse" style="mask-type:luminance"><path fill="#fff" d="m791.389 1400.36 666.661-19.65 523.47-585.137-335.09-516.389L499.501 435.555l-17.509 927.555 309.397 37.25Z"/></mask><g mask="url(#M)"><path fill="url(#N)" d="M1290.46 1368.06c-56.3-25.04-55.98-75.18-108.52-96.81-74.88-30.84-157.5 37.31-170.38 17.94-13.411-20.16 85.23-80.13 72.1-140.75-10.44-48.16-79.28-40.48-116.116-106.61-34.921-62.69-1.066-119.936-31.988-141.903-11.085-7.876-30.633-11.135-67.677 4.993 25.828 81.921 44.355 154.15 45.698 243.44.356 23.79.118 90.24 3.995 188.07 2.514 63.41 5.164 99.81 25.979 109.56 21.715 10.17 39.337-19.82 92.029-37.06 38.73-12.68 77.78-8.55 154.39.25 114.45 13.13 122.58 29.59 145.04 16.39 14.63-8.6 21.59-21.75 26.24-47.15-22.98 2.17-47.36.05-70.79-10.36Z" opacity=".3"/></g><path fill="url(#O)" d="m1841.15 1332.53-1350.383 25.51c-2.294.04-4.207-1.75-4.251-3.99l-.418-21.04c-.044-2.24 1.796-4.11 4.089-4.15l1350.383-25.51c2.29-.04 4.2 1.75 4.25 3.99l.42 21.04c.04 2.24-1.8 4.1-4.09 4.15Z"/><path fill="url(#P)" d="M1462.86 1357.31c18.04 0 32.67-14.26 32.67-31.86 0-17.59-14.63-31.85-32.67-31.85-18.05 0-32.68 14.26-32.68 31.85 0 17.6 14.63 31.86 32.68 31.86Z"/><path fill="#B7C0CE" d="M1584.42 2031.04c3.82 0 6.92-3.03 6.92-6.76v-530.37c0-1.7-6.12-3.08-13.66-3.08-7.55 0-13.67 1.38-13.67 3.08v530.37c0 3.73 3.1 6.76 6.93 6.76h13.48Z"/><path fill="#D8DEE8" d="m1597.09 1487.17-969.266 42.96v16.67l488.306 53.51 891.51-46.09v-23.19l-410.55-43.86Z" opacity=".8"/><path fill="#B7C0CE" d="m1116.13 1600.31-488.306-53.51v25.83l488.306 53.52 891.51-46.1v-25.83l-891.51 46.09Z"/><path fill="#B7C0CE" d="M1143.81 2157.33c3.83 0 6.93-3.02 6.93-6.75V1620.2c0-1.7-6.12-3.08-13.66-3.08-7.55 0-13.67 1.38-13.67 3.08v530.38c0 3.73 3.1 6.75 6.93 6.75h13.47Z"/><path fill="url(#Q)" d="M977.069 2063.33c-.925-4.97-17.396-9.47-25.55-2.81-4.05 3.3-6.838 10.01-4.495 13.04.852 1.1-2.639 3.03.705 3.07 11.095.13 30.261-8.36 29.34-13.3Z"/><path fill="url(#R)" d="m959.057 2063.35-17.086.83c5.919-10.49-1.198-39.03-1.198-39.03l18.45.53s-.454 8.29-1.579 20.59c-.385 4.22.325 10.56 1.413 17.08Z"/><path fill="url(#S)" d="M961.308 2063.1s-20.392-4.58-22.598-.63c-2.206 3.94-3.919 14.5 9.019 14.16 12.939-.34 14.729-10.18 13.579-13.53Z"/><path fill="url(#T)" d="M1081.09 2083.58c-1.63-4.8-18.58-7.01-25.7.7-3.54 3.83-5.33 10.85-2.58 13.52 1 .98-2.18 3.37 1.14 2.95 11-1.38 28.76-12.4 27.14-17.17Z"/><path fill="url(#U)" d="m1061.06 2088.2-16.79 3.22c4.32-11.22-6.93-38.47-6.93-38.47l18.34-2.05s.77 8.26 1.47 20.6c.24 4.22 1.87 10.4 3.91 16.7Z"/><path fill="url(#V)" d="M1065.46 2085.51s-20.85-1.75-22.47 2.45c-1.62 4.21-1.8 14.9 10.96 12.8 12.76-2.1 13.12-12.09 11.51-15.25Z"/><path fill="#26264F" d="m972.553 1639.7 72.037-164.54c3.6-8.22-1.23-17.63-10.14-19.73l-131.96-31.25c-7.133-1.69-14.459 1.96-17.235 8.58l-66.261 158.15c-3.3 7.87 1.05 16.81 9.393 19.3l126.183 37.64c7.25 2.16 15.006-1.35 17.983-8.15Z"/><path fill="url(#W)" d="m969.291 1631.78 67.289-153.69c3.36-7.68-1.15-16.46-9.47-18.43l-123.265-29.19c-6.662-1.58-13.505 1.83-16.097 8.02l-61.893 147.72c-3.082 7.35.98 15.7 8.773 18.03l117.865 35.16c6.772 2.02 14.017-1.27 16.798-7.62Z"/><path fill="url(#X)" d="m1010.83 1586.6 2.16-19.38 11.46-21.3c1.56-2.9 2.38-6.13 2.38-9.4v-21.15l-13.84 31.19s-9.07-8.01-12.53-9.69c-3.46-1.69-3.027 5.05-.43 7.58 2.59 2.53-1.301 23.19 1.29 25.29l-.86 12.65 10.37 4.21Z"/><path fill="url(#Y)" d="M814.443 1375.92c-40.303-38.26-108.543-45.3-159.902-26.83-83.396 30.01-105.675 121.33-112.208 148.11-14.231 58.33 10.63 53.71 5.347 162.26-3.561 73.17-17.444 121.58 14.698 151.73 7.344 6.9 15.558 10.5 31.989 17.71 65.159 28.58 123.581 23.66 159.081 20.23 39.064-3.77 58.807-5.93 69.166-19.39 16.546-21.5-.487-48.82-3.458-96.1-2.944-46.86 10.839-67.11 21.615-114.64 10.918-48.17 40.682-179.48-26.328-243.08Z"/><path fill="url(#Z)" d="M872.887 1395.44c13.513-5.41 19.529-18.53 20.803-21.38 5.339-11.95 5.6-14.16 5.333-17.72l-.547-4.81s-.073-.24-.16-.5c0 0-2.115-6.35-7.841-11.13-4.639-3.87-30.324 4.9-60.715 26.1-3.94 2.09-7.88 4.17-11.82 6.26-2.378-.31-5.935-.83-10.205-1.68-28.465-5.7-39.935-16.68-43.657-13.47-5.163 4.45 9.8 31.67 28.367 53.84 19.056 22.74 47.53 46.87 53.088 42.56.145-.11.375-.23.617-.78 1.244-2.87-6.762-29.63-5.803-41.13.877-10.52 7.248-14.57 11.119-18.33 2.474 1.1 11.468 6.16 21.421 2.17Z"/><path fill="#fff" d="M897.428 1368.07c-2.195-.49-2.959-3.53-7.134-4.4-2.138-.45-5.705-.44-5.705-.44-.41.03-.849.12-1.368.29-6.736 2.24-6.391 15.2-10.033 15.42-2.642.16-4.813-7.17-6.832-6.7-1.899.44-1.078 7.28-3.323 7.85-1.693.42-2.824-3.31-6.204-3.64-1.684-.16-2.238.69-5.949 1.98 0 0-3.098 1.08-6.009 1.56-6.939 1.14-17.533-5.96-17.472-12.51.029-3.29 2.738-3.85 5.064-8.23 4.213-7.93-.175-14.56.17-21.73.586-12.17 14.741-24.27 27.859-27.49 25.451-6.26 53.487 19.27 52.343 37.86-.645 10.49-10.722 21.25-15.407 20.18Z"/><path fill="url(#aa)" d="M872.802 1374.49c1.221-4.17-4.267-5.67-7.947-2.9-3.68 2.77-4.716 9.13-1.303 11.94 3.414 2.8 7.605-3.43 9.25-9.04Z"/><path fill="#fff" d="m877.627 1368.19-2.485 9.4s-3.593 10.83 2.931 10.58c5.33-.2 5.19.03 5.164.28-.005.05.186.22.194.22.045.04 1.685-1.49 2.884-2.98-.833 2.64-2.359 6.78-5.516 10.85-3.067 3.96-6.349 8.2-12.04 9.1-.328.05-6.448.93-10.985-2.67 0 0-1.784-1.41-6.305-9.69 0 0 12.299 3.44 13.804 2.49 4.09-2.58 2.013-9.33 6.779-19.15a39.093 39.093 0 0 1 5.575-8.43Z"/><path fill="url(#ab)" d="M719.724 1804.45c11.492-22.31-16.669-51.97 1.729-85.98 15.625-28.89 44.011-22.42 57.061-48.9 15.764-31.97-18.518-55.87-17.29-104.52 1.467-58.16 52.793-116.38 82.998-111.28 19.544 3.31 22.053 31.73 35.804 62.85-12.167 26.02-26.382 58.61-39.262 102.38-15.832 53.79-23.748 80.69-21.614 114.64 2.972 47.28 20.004 74.6 3.458 96.1-10.358 13.46-30.101 15.62-69.166 19.39-35.5 3.43-93.921 8.35-159.081-20.23-8.248-3.62-14.423-6.33-19.459-9 101.799 14.9 135.706 2.25 144.822-15.45Z" opacity=".3"/><path fill="url(#ac)" d="M1014.73 1582.81c-6.34-2.67-12.68-5.34-19.024-8.01-10.716 10.69-24.383 21.08-35.88 17.7-17.137-5.02-12.852-35.76-33.717-89.77-23.642-61.2-50.467-76.93-63.978-82.61-7.548-3.18-12.758-5.29-19.021-3.8-28.818 6.87-38.346 80.09-30.26 134.88 4.555 30.87 13.489 91.39 64.411 120.12 7.234 4.08 47.051 26.55 86.457 8.85 33.663-15.11 54.462-53.9 51.012-97.36Z"/><path fill="url(#ad)" d="M970.224 2027.43c-10.537 1.14-21.076 2.29-31.615 3.43-14.233-15.38-35.481-42.21-46.837-79.92-21.753-72.24 12.305-119.66-10.538-138.14-26.337-21.31-78.359 36.26-193.203 52.52-36.963 5.23-119.019 16.84-152.22-26.26-13.46-17.48-21.19-46.93-10.539-71.93 19.098-44.81 81.999-39.43 289.218-78.77 79.825-15.16 92.437-20.13 111.401-11.3 93.789 43.66 54.68 290.5 44.333 350.37Z"/><path fill="url(#ae)" d="m1064.29 2056.5-31.62 3.42c-14.23-15.38-35.48-42.2-46.836-79.91-21.754-72.25 12.305-119.67-10.538-138.15-26.337-21.31-78.359 36.27-193.203 52.52-36.962 5.23-119.019 16.85-152.219-26.26-13.46-17.47-21.191-46.93-10.539-71.92 19.097-44.81 81.999-39.43 289.218-78.78 79.825-15.16 92.437-20.12 111.397-11.3 93.79 43.66 54.68 290.51 44.34 350.38Z"/><path fill="url(#af)" d="M528.782 2180.45c0 38.41 78.247 69.55 174.771 69.55 96.524 0 174.771-31.14 174.771-69.55 0-.61.04-7.54 0-8.15-2.442-37.57-79.788-61.39-174.771-61.39-94.733 0-171.932 24.68-174.76 62.11-.054.71-.011 6.72-.011 7.43Z"/><path fill="url(#ag)" d="M528.777 2172.3c0 36.26 78.247 65.65 174.771 65.65 96.525 0 174.772-29.39 174.772-65.65 0-36.26-78.247-95.59-174.772-95.59-96.523.01-174.771 59.33-174.771 95.59Z"/><path fill="url(#ah)" d="M528.777 2172.3c0-36.26 78.247-95.59 174.771-95.59 44.568 0 85.216 12.67 116.088 29.85 2.161 4.41 3.168 8.8 2.758 12.97-2.004 20.4-36.128 32.94-55.715 37.08-49.325 10.41-73.412-18.34-114.081-17.25-25.144.68-59.988 13-101.315 65.15-14.305-9.51-22.506-20.5-22.506-32.21Z" opacity=".3"/><path fill="url(#ai)" d="M693.98 2109.65c6.983 1.69 13.499 1.63 19.628.11 5.559-1.38 9.377-6.4 9.377-11.99l-.001-192.15h-38.863v191.92c.001 5.77 4.121 10.72 9.859 12.11Z"/><path fill="url(#aj)" d="m908.895 1824.75-59.369-36.59c-2.47-13.67-30.455-156.67-144.069-201.58-46.202-18.26-95.925-16.09-123.211-14.9-54.471 2.37-93.325 4.06-112.012 29.39-23.996 32.53 16.251 62.04 7.917 155.09-3.398 37.94-12.04 54.8-1.276 79.94 12.896 30.11 42.799 46.8 66.05 56.2 27.795 15.73 76.188 38.16 140.105 43.62 107.663 9.2 188.04-35.83 215.681-53.06 12.291-3.78 21.526-13.74 24.14-26.05 2.649-12.48-2.911-25.25-13.956-32.06Z"/><path fill="#fff" d="M881.598 1850.81c-2.195-12.86-38.975-2.2-73.768-27.4-52.009-37.67-25.016-101.47-70.256-162.69-41.519-56.17-125.102-84.76-151.049-63.36-34.538 28.49 49.992 135.04 0 203.79-24.284 33.4-61.283 31.79-61.473 51.38-.303 30.95 91.78 66.63 179.151 65.07 93.929-1.68 180.877-46.36 177.395-66.79Z" opacity=".26"/><path fill="#26264F" d="m1736.2 1554.14-383.67-2.78v8.23c0 2.24 1.68 4.14 3.94 4.48l108.49 16.22c1.29.19 2.59.24 3.89.15l263.18-18.49c2.35-.17 4.17-2.07 4.17-4.37v-3.44Z"/><path fill="#26264F" d="m1596.97 1540.53-240.47 15.06c-4.3.27-7.8-2.59-7.8-6.4v-152.42c0-3.8 3.5-6.89 7.8-6.89h240.47c3.54 0 6.41 2.79 6.41 6.23v137.79c0 3.44-2.87 6.4-6.41 6.63Z"/><path fill="#26264F" d="m1600.8 1540.53-240.47 15.06c-4.3.27-7.8-2.59-7.8-6.4v-152.42c0-3.8 3.5-6.89 7.8-6.89h240.47c3.54 0 6.41 2.79 6.41 6.23v137.79c0 3.44-2.87 6.4-6.41 6.63Z"/><path fill="url(#ak)" d="m1593.31 1530.81-223.97 13.09c-3.5.2-6.35-2.15-6.35-5.25V1405.2c0-3.1 2.85-5.63 6.35-5.64l223.97-.83c2.92-.01 5.29 2.28 5.29 5.11v121.54c0 2.83-2.37 5.26-5.29 5.43Z"/><path fill="#fff" d="M1489.06 1394.05c0 1.42-1.24 2.57-2.76 2.58-1.53 0-2.78-1.15-2.78-2.57 0-1.41 1.24-2.57 2.78-2.57 1.52 0 2.76 1.15 2.76 2.56Z"/><path fill="#fff" d="M1543.84 1498.8c-18.64-8.85-33.29 2.36-47.43-8.7-8.57-6.71-4.36-11.71-14.91-21.74-11.68-11.1-19.28-7.37-31.03-17.36-14.84-12.63-7.42-22.46-20.2-31.54-15.52-11-32.25-.81-47.01-11.37-6.37-4.55-9.87-11.17-11.69-18.21h-14.45c-2.53 0-4.59 1.82-4.59 4.05v158.11c0 2.23 2.06 3.91 4.59 3.75l246.33-15.43c1.21-.08 2.28-.7 2.97-1.6-18.04-.58-29.11-5.92-36.19-11.44-13.86-10.79-11.45-21.43-26.39-28.52Z" opacity=".48"/><path fill="url(#al)" d="m1610.38 1540.1-257.85 15.86 112.43 16.81c1.29.2 2.59.25 3.89.15l267.35-18.78-121.71-13.93a24.55 24.55 0 0 0-4.11-.11Z"/><path fill="#26264F" d="m1390.16 1556.1 214.67-13.4 66.43 7.54-212.82 14.33-68.28-8.47Z" opacity=".3"/><path fill="url(#am)" d="M1659.23 2035.63s-56.4 3.83-57.23 7.42c-.83 3.59 38.28 17.47 51.94 17.98 13.67.52 24.91-3.42 23.67-9.06-1.23-5.64-6.02-19.84-6.02-19.84l-12.36 3.5Z"/><path fill="url(#an)" d="m1656.56 2011.2-1 25.95s8.58 4.72 15.39 2.01l7.57-27.37-21.96-.59Z"/><path fill="url(#ao)" d="M1501.5 2025.17s-56.4 3.82-57.23 7.41c-.83 3.59 38.28 17.47 51.94 17.99 13.67.52 24.91-3.42 23.67-9.07-1.23-5.64-6.02-19.83-6.02-19.83l-12.36 3.5Z"/><path fill="url(#ap)" d="m1498.83 2000.73-1 25.95s8.58 4.73 15.39 2.01l7.57-27.36-21.96-.6Z"/><path fill="url(#aq)" d="m1650.57 2014.87 31.61 3.42c14.23-15.38 35.48-42.2 46.84-79.91 21.89-72.71-9.82-125.11 10.54-138.15 28.8-18.46 91.23 87.8 191.45 85.07 41.11-1.12 94.78-20.75 115.41-63.51 3.11-6.46 18.41-40.25 3.51-71.93-15.38-32.7-91.67-46.94-243.63-74.07-65.23-11.65-98.17-17.46-111.4-11.3-93.79 43.66-54.68 290.51-44.33 350.38Z"/><path fill="url(#ar)" d="M1489.66 2015.31c10.9 1.85 21.8 3.7 32.71 5.55 13.24-19.02 33.27-48.81 55.68-86.61 46.71-78.8 45.86-94.81 67.45-104.95 45.68-21.47 80.2 36.52 193.2 52.51 36.96 5.24 119.02 16.85 152.22-26.26 13.46-17.47 21.19-46.93 10.54-71.92-19.1-44.81-82-39.43-289.22-78.78-80.81-15.34-91.83-18.08-111.4-11.29-109.32 37.9-111.45 269.98-111.18 321.75Z"/><path fill="url(#as)" d="M1716.05 1398.21c10.76-25.65 33.85-40.4 45.82-48.05 5.99-3.83 11.53-6.7 17.15-8.94 43.36-17.26 86.66-16.07 94.38-15.51 18.73 1.37 64.98 4.75 99.25 33.7 16.59 14.01 29.85 33.58 49.18 143.85 26.96 153.79 5.08 138.03 26.35 200.36 11.25 32.99 28.78 70.84 10.24 95.01-5.99 7.8-14.55 10.04-31.99 17.7-65.16 28.58-123.58 23.66-159.08 20.23-39.07-3.77-58.81-5.93-69.17-19.39-16.54-21.5.49-48.82 3.46-96.1 2.13-33.94-5.78-60.85-21.61-114.64-36.81-125.07-84.59-159.08-63.98-208.22Z"/><path fill="url(#at)" d="m1532.45 1551.36-41.64-7.81c-2.99-.56-6.06-.59-9.06-.09l-36.02 6.04s23.42 9.19 43.33 6.31c19.9-2.88 41.65 8.04 41.65 8.04l1.74-12.49Z"/><path fill="url(#au)" d="M1901.06 1791.88c-11.49-22.31 16.67-51.97-1.72-85.98-15.63-28.89-44.02-22.42-57.07-48.89-15.76-31.98 18.52-55.88 17.29-104.53-1.46-58.16-52.79-116.38-82.99-111.28-19.55 3.31-22.06 31.73-35.81 62.86 12.17 26.01 26.38 58.6 39.26 102.37 15.84 53.8 23.75 80.7 21.62 114.64-2.97 47.28-20.01 74.61-3.46 96.1 10.36 13.46 30.1 15.62 69.17 19.39 35.5 3.43 93.92 8.35 159.08-20.23 8.24-3.62 14.42-6.33 19.46-9-101.8 14.9-135.71 2.25-144.83-15.45Z" opacity=".3"/><path fill="url(#av)" d="m1521.85 1563.2 3.54-15.54c79.99 13.98 114.97-1.71 131.87-20.05 15.51-16.83 8.89-25.53 33.72-89.78 23.64-61.19 50.46-76.92 63.97-82.61 7.55-3.18 12.76-5.28 19.03-3.79 28.81 6.86 38.34 80.09 30.26 134.87-4.56 30.87-13.49 91.4-64.42 120.13-.93.53-2.41 1.36-4.37 2.38-6.41 3.35-31.89 15.3-82.08 6.47-59.18-10.41-116.91-43.48-131.52-52.08Z"/><path fill="url(#aw)" d="M1734.84 1349.32c-11.18-5.84-11.6-28.16-11.77-36.99 0-.3-.01-.7-.01-1.5.04-13.03.71-15.16 2.42-18.31l2.48-4.19s.18-.2.36-.39c1.93-2.09 9.93-6.6 11.77-7.12 5.86-1.67 23.02 16.3 37.74 46.7a253.86 253.86 0 0 1 12.09 15.75c2.85 4.02 9.02.66 13.28-1.93 17.27-10.51 26.85-13.62 29.04-11.42 4.12 4.12-8.31 31.17-32.54 48.51-35.02 18.71-65.64 30.08-65.55 23.07.05-3.12 23.46-24.36 27.32-35.26 3.54-9.99-.63-16.19-2.62-21.15-3.52 2.1-15.48 8.69-24.01 4.23Z"/><path fill="#fff" d="M1712.42 1285.66c.54 7.74 14.45 16.54 18.04 16.99.4.05 2.74.45 5.4 1.84.36.19.73.44 1.14.8 5.24 4.69-.42 16.42 2.82 18.05 2.36 1.19 7.37-4.68 9.02-3.46 1.56 1.15-2.01 7.09-.19 8.49 1.37 1.05 3.95-1.92 7.18-.9 2.49.8 3.96 3.01 4.63 4.15 5.19 8.74-3.59 52.33 5.48 63.18 16.45 19.68 129.93-22.85 126.83-59.14-1.84-21.56-43.81-29.15-91.31-59.56-4.16-2.66-16.35-9.08-33.44-13.51-3.54-.92-7.6-1.42-12.6-1.22-21.8.84-43.71 14.15-43 24.29Z"/><path fill="url(#ax)" d="M1742.01 1319.42c.6-4.3 6.24-3.52 8.47.46 2.23 3.97.55 10.21-3.73 11.44-4.28 1.23-5.55-6.13-4.74-11.9Z"/><path fill="url(#ay)" d="M2067 2143.33c0 38.41-78.25 69.55-174.77 69.55-96.53 0-175.03-31.14-175.03-69.55 0-2.4.03-6.89.02-9.22-.15-36.14 84.52-60.33 175.01-60.33 91.8 0 167.63 23.39 174.77 59.19.37 1.84 0 8.48 0 10.36Z"/><path fill="url(#az)" d="M2067 2135.17c0 36.26-78.25 65.65-174.77 65.65-96.53 0-174.77-29.39-174.77-65.65 0-36.25 78.24-95.58 174.77-95.58 96.52 0 174.77 59.33 174.77 95.58Z"/><path fill="url(#aA)" d="M2067 2135.17c0-36.25-78.25-95.58-174.78-95.58-44.56 0-85.21 12.66-116.08 29.85-2.16 4.41-3.17 8.8-2.76 12.97 2 20.39 36.13 32.94 55.71 37.07 49.33 10.42 73.42-18.34 114.09-17.24 25.14.67 59.98 12.99 101.31 65.15 14.3-9.52 22.51-20.51 22.51-32.22Z" opacity=".3"/><path fill="url(#aB)" d="M1901.8 2072.52c-6.99 1.7-13.5 1.63-19.63.11-5.56-1.37-9.38-6.39-9.38-11.98V1868.5h38.87v191.92c0 5.76-4.12 10.71-9.86 12.1Z"/><path fill="url(#aC)" d="m1686.88 1787.63 59.37-36.59c2.47-13.67 30.45-156.68 144.07-201.58 46.2-18.26 95.92-16.1 123.21-14.91 54.47 2.37 93.32 4.07 112.01 29.4 23.99 32.53-16.25 62.03-7.92 155.09 3.4 37.94 12.04 54.79 1.28 79.93-12.9 30.12-42.8 46.81-66.05 56.2-27.8 15.74-76.19 38.17-140.11 43.63-107.66 9.2-188.04-35.83-215.68-53.06-12.29-3.78-21.52-13.75-24.14-26.05-2.65-12.48 2.91-25.25 13.96-32.06Z"/><path fill="#fff" d="M1714.18 1813.69c2.19-12.87 38.97-2.2 73.76-27.4 52.01-37.67 25.02-101.48 70.26-162.69 41.52-56.18 125.1-84.77 151.05-63.37 34.54 28.5-49.99 135.04 0 203.79 24.28 33.4 61.28 31.79 61.47 51.38.31 30.95-91.78 66.64-179.15 65.08-93.93-1.68-180.88-46.37-177.39-66.79Z" opacity=".26"/><defs><linearGradient id="b" x1="917.606" x2="1272.92" y1="254.22" y2="1485.28" gradientUnits="userSpaceOnUse"><stop offset=".004" stop-color="#E38DDD"/><stop offset="1" stop-color="#9571F6"/></linearGradient><linearGradient id="d" x1="130.185" x2="1032.48" y1="428.187" y2="1901.87" gradientUnits="userSpaceOnUse"><stop stop-color="#FFC444"/><stop offset=".996" stop-color="#F36F56"/></linearGradient><linearGradient id="f" x1="474.147" x2="984.787" y1="319.08" y2="1366.34" gradientUnits="userSpaceOnUse"><stop stop-color="#FF9085"/><stop offset="1" stop-color="#FB6FBB"/></linearGradient><linearGradient id="h" x1="402.407" x2="1976.69" y1="1004.79" y2="1004.79" gradientUnits="userSpaceOnUse"><stop stop-color="#FF9085"/><stop offset="1" stop-color="#FB6FBB"/></linearGradient><linearGradient id="i" x1="2107.16" x2="983.288" y1="-203.181" y2="793.96" gradientUnits="userSpaceOnUse"><stop stop-color="#311944"/><stop offset="1" stop-color="#893976"/></linearGradient><linearGradient id="j" x1="352.637" x2="2014.51" y1="1551.62" y2="1551.62" gradientUnits="userSpaceOnUse"><stop stop-color="#fff"/><stop offset=".996" stop-color="#EBEFF2"/></linearGradient><linearGradient id="k" x1="1776.44" x2="1872.96" y1="2202.36" y2="-548.044" gradientUnits="userSpaceOnUse"><stop stop-color="#444B8C"/><stop offset=".847" stop-color="#26264F"/></linearGradient><linearGradient id="l" x1="1806.91" x2="1816.21" y1="806.022" y2="540.99" gradientUnits="userSpaceOnUse"><stop stop-color="#AA80F9"/><stop offset=".996" stop-color="#6165D7"/></linearGradient><linearGradient id="m" x1="1885.54" x2="1832.25" y1="140.288" y2="547.97" gradientUnits="userSpaceOnUse"><stop stop-color="#444B8C"/><stop offset=".996" stop-color="#26264F"/></linearGradient><linearGradient id="n" x1="1842.09" x2="1857.5" y1="574.3" y2="-449.052" gradientUnits="userSpaceOnUse"><stop stop-color="#444B8C"/><stop offset=".996" stop-color="#26264F"/></linearGradient><linearGradient id="o" x1="2297.42" x2="1823.92" y1="149.434" y2="994.096" gradientUnits="userSpaceOnUse"><stop stop-color="#FFC444"/><stop offset=".996" stop-color="#F36F56"/></linearGradient><linearGradient id="p" x1="2243.56" x2="2274.18" y1="899.107" y2="605.468" gradientUnits="userSpaceOnUse"><stop stop-color="#FFC444"/><stop offset=".996" stop-color="#F36F56"/></linearGradient><linearGradient id="r" x1="1881.4" x2="1744.63" y1="787.747" y2="895.979" gradientUnits="userSpaceOnUse"><stop stop-color="#FFC444"/><stop offset=".996" stop-color="#F36F56"/></linearGradient><linearGradient id="s" x1="1757.81" x2="1466.56" y1="631.638" y2="932.46" gradientUnits="userSpaceOnUse"><stop stop-color="#AA80F9"/><stop offset=".996" stop-color="#6165D7"/></linearGradient><linearGradient id="t" x1="1503.99" x2="1559.21" y1="1036.29" y2="905.429" gradientUnits="userSpaceOnUse"><stop stop-color="#AA80F9"/><stop offset=".996" stop-color="#6165D7"/></linearGradient><linearGradient id="v" x1="1451.71" x2="1225.05" y1="1977.65" y2="1367.83" gradientUnits="userSpaceOnUse"><stop stop-color="#311944"/><stop offset="1" stop-color="#893976"/></linearGradient><linearGradient id="x" x1="1410.44" x2="1183.85" y1="1992.72" y2="1383.09" gradientUnits="userSpaceOnUse"><stop stop-color="#311944"/><stop offset="1" stop-color="#893976"/></linearGradient><linearGradient id="z" x1="1306.13" x2="1007.98" y1="2005.98" y2="1428.49" gradientUnits="userSpaceOnUse"><stop stop-color="#311944"/><stop offset="1" stop-color="#893976"/></linearGradient><linearGradient id="B" x1="948.867" x2="1342.36" y1="1321.05" y2="388.558" gradientUnits="userSpaceOnUse"><stop stop-color="#AA80F9"/><stop offset=".996" stop-color="#6165D7"/></linearGradient><linearGradient id="D" x1="1085.94" x2="1214.93" y1="740.26" y2="498.722" gradientUnits="userSpaceOnUse"><stop stop-color="#FFC444"/><stop offset=".463" stop-color="#FFC244"/><stop offset=".63" stop-color="#FEBB46"/><stop offset=".749" stop-color="#FCB048"/><stop offset=".845" stop-color="#FA9F4C"/><stop offset=".926" stop-color="#F78951"/><stop offset=".996" stop-color="#F36F56"/></linearGradient><linearGradient id="E" x1="1070.87" x2="1190.82" y1="649.237" y2="499.561" gradientUnits="userSpaceOnUse"><stop stop-color="#444B8C"/><stop offset=".996" stop-color="#26264F"/></linearGradient><linearGradient id="F" x1="1170.73" x2="1104.46" y1="546.676" y2="798.065" gradientUnits="userSpaceOnUse"><stop stop-color="#FFC444"/><stop offset=".996" stop-color="#F36F56"/></linearGradient><linearGradient id="G" x1="1088.19" x2="1209.91" y1="664.863" y2="512.975" gradientUnits="userSpaceOnUse"><stop stop-color="#444B8C"/><stop offset=".996" stop-color="#26264F"/></linearGradient><linearGradient id="H" x1="1188.3" x2="1175.28" y1="583.653" y2="613.203" gradientUnits="userSpaceOnUse"><stop stop-color="#FFC444"/><stop offset="1" stop-color="#F36F56"/></linearGradient><linearGradient id="J" x1="904.933" x2="923.134" y1="1129.67" y2="1186.65" gradientUnits="userSpaceOnUse"><stop stop-color="#FFC444"/><stop offset=".996" stop-color="#F36F56"/></linearGradient><linearGradient id="L" x1="646.248" x2="1036.46" y1="1185.85" y2="261.127" gradientUnits="userSpaceOnUse"><stop stop-color="#AA80F9"/><stop offset=".996" stop-color="#6165D7"/></linearGradient><linearGradient id="N" x1="1023.12" x2="1416.84" y1="1352.31" y2="419.272" gradientUnits="userSpaceOnUse"><stop stop-color="#AA80F9"/><stop offset=".996" stop-color="#6165D7"/></linearGradient><linearGradient id="O" x1="1109.68" x2="1197.4" y1="748.376" y2="1708.09" gradientUnits="userSpaceOnUse"><stop stop-color="#311944"/><stop offset="1" stop-color="#893976"/></linearGradient><linearGradient id="P" x1="1415.44" x2="1693.95" y1="1279.55" y2="1563.17" gradientUnits="userSpaceOnUse"><stop stop-color="#FFC444"/><stop offset=".996" stop-color="#F36F56"/></linearGradient><linearGradient id="Q" x1="986.217" x2="950.519" y1="2048.98" y2="2073.31" gradientUnits="userSpaceOnUse"><stop stop-color="#444B8C"/><stop offset=".996" stop-color="#26264F"/></linearGradient><linearGradient id="R" x1="952.001" x2="949.317" y1="2072.37" y2="2017.17" gradientUnits="userSpaceOnUse"><stop stop-color="#FFC444"/><stop offset=".996" stop-color="#F36F56"/></linearGradient><linearGradient id="S" x1="983.493" x2="947.796" y1="2044.98" y2="2069.31" gradientUnits="userSpaceOnUse"><stop stop-color="#444B8C"/><stop offset=".996" stop-color="#26264F"/></linearGradient><linearGradient id="T" x1="1088.09" x2="1056.28" y1="2068.12" y2="2097.14" gradientUnits="userSpaceOnUse"><stop stop-color="#444B8C"/><stop offset=".996" stop-color="#26264F"/></linearGradient><linearGradient id="U" x1="1055.4" x2="1045.01" y1="2098.12" y2="2043.79" gradientUnits="userSpaceOnUse"><stop stop-color="#FFC444"/><stop offset=".996" stop-color="#F36F56"/></linearGradient><linearGradient id="V" x1="1084.82" x2="1053.02" y1="2064.54" y2="2093.55" gradientUnits="userSpaceOnUse"><stop stop-color="#444B8C"/><stop offset=".996" stop-color="#26264F"/></linearGradient><linearGradient id="W" x1="925.72" x2="987.162" y1="1540.5" y2="1416.18" gradientUnits="userSpaceOnUse"><stop stop-color="#FF9085"/><stop offset="1" stop-color="#FB6FBB"/></linearGradient><linearGradient id="X" x1="1005.93" x2="1049.29" y1="1507.42" y2="1752.45" gradientUnits="userSpaceOnUse"><stop stop-color="#FFC444"/><stop offset=".996" stop-color="#F36F56"/></linearGradient><linearGradient id="Y" x1="748.244" x2="647.764" y1="1476.87" y2="1775.89" gradientUnits="userSpaceOnUse"><stop stop-color="#AA80F9"/><stop offset=".996" stop-color="#6165D7"/></linearGradient><linearGradient id="Z" x1="865.939" x2="625.496" y1="1385.69" y2="1466.77" gradientUnits="userSpaceOnUse"><stop stop-color="#FFC444"/><stop offset=".996" stop-color="#F36F56"/></linearGradient><linearGradient id="aa" x1="920.061" x2="766.939" y1="1322.66" y2="1486.63" gradientUnits="userSpaceOnUse"><stop stop-color="#FFC444"/><stop offset=".996" stop-color="#F36F56"/></linearGradient><linearGradient id="ab" x1="917.737" x2="693.314" y1="1554.11" y2="1773.9" gradientUnits="userSpaceOnUse"><stop stop-color="#AA80F9"/><stop offset=".996" stop-color="#6165D7"/></linearGradient><linearGradient id="ac" x1="903.317" x2="799.208" y1="1567.93" y2="1877.75" gradientUnits="userSpaceOnUse"><stop stop-color="#AA80F9"/><stop offset=".996" stop-color="#6165D7"/></linearGradient><linearGradient id="ad" x1="674.608" x2="859.879" y1="1720.07" y2="1855.8" gradientUnits="userSpaceOnUse"><stop stop-color="#444B8C"/><stop offset=".996" stop-color="#26264F"/></linearGradient><linearGradient id="ae" x1="1081.2" x2="614.34" y1="1880.84" y2="1880.84" gradientUnits="userSpaceOnUse"><stop stop-color="#444B8C"/><stop offset=".996" stop-color="#26264F"/></linearGradient><linearGradient id="af" x1="689.512" x2="708.261" y1="2091.19" y2="2211.88" gradientUnits="userSpaceOnUse"><stop stop-color="#AA80F9"/><stop offset=".996" stop-color="#6165D7"/></linearGradient><linearGradient id="ag" x1="697.689" x2="720.172" y1="2231.53" y2="1992.38" gradientUnits="userSpaceOnUse"><stop stop-color="#AA80F9"/><stop offset=".996" stop-color="#6165D7"/></linearGradient><linearGradient id="ah" x1="822.484" x2="528.777" y1="2140.61" y2="2140.61" gradientUnits="userSpaceOnUse"><stop stop-color="#AA80F9"/><stop offset=".996" stop-color="#6165D7"/></linearGradient><linearGradient id="ai" x1="667.707" x2="852.262" y1="1940.16" y2="2281.4" gradientUnits="userSpaceOnUse"><stop stop-color="#AA80F9"/><stop offset=".996" stop-color="#6165D7"/></linearGradient><linearGradient id="aj" x1="510.625" x2="579.624" y1="1967.97" y2="1875.76" gradientUnits="userSpaceOnUse"><stop stop-color="#311944"/><stop offset="1" stop-color="#893976"/></linearGradient><linearGradient id="ak" x1="1362.99" x2="1598.6" y1="1471.32" y2="1471.32" gradientUnits="userSpaceOnUse"><stop stop-color="#FF9085"/><stop offset="1" stop-color="#FB6FBB"/></linearGradient><linearGradient id="al" x1="1352.53" x2="1736.2" y1="1556.51" y2="1556.51" gradientUnits="userSpaceOnUse"><stop stop-color="#444B8C"/><stop offset=".996" stop-color="#26264F"/></linearGradient><linearGradient id="am" x1="1632.58" x2="1644.57" y1="1957.75" y2="2114.28" gradientUnits="userSpaceOnUse"><stop offset=".004" stop-color="#26264F"/><stop offset="1" stop-color="#444B8C"/></linearGradient><linearGradient id="an" x1="1662.2" x2="1690.96" y1="2044.19" y2="1859.1" gradientUnits="userSpaceOnUse"><stop stop-color="#FFC444"/><stop offset=".996" stop-color="#F36F56"/></linearGradient><linearGradient id="ao" x1="1474.85" x2="1486.84" y1="1947.28" y2="2103.82" gradientUnits="userSpaceOnUse"><stop offset=".004" stop-color="#26264F"/><stop offset="1" stop-color="#444B8C"/></linearGradient><linearGradient id="ap" x1="1504.47" x2="1533.23" y1="2033.73" y2="1848.64" gradientUnits="userSpaceOnUse"><stop stop-color="#FFC444"/><stop offset=".996" stop-color="#F36F56"/></linearGradient><linearGradient id="aq" x1="1946.44" x2="1876.91" y1="1625.44" y2="1731.54" gradientUnits="userSpaceOnUse"><stop stop-color="#444B8C"/><stop offset=".996" stop-color="#26264F"/></linearGradient><linearGradient id="ar" x1="1489.65" x2="2006.45" y1="1855.46" y2="1855.46" gradientUnits="userSpaceOnUse"><stop stop-color="#444B8C"/><stop offset=".996" stop-color="#26264F"/></linearGradient><linearGradient id="as" x1="1766" x2="1990.47" y1="1477.31" y2="1697.15" gradientUnits="userSpaceOnUse"><stop stop-color="#FF9085"/><stop offset="1" stop-color="#FB6FBB"/></linearGradient><linearGradient id="at" x1="1490.93" x2="1485.93" y1="1544.64" y2="1568.03" gradientUnits="userSpaceOnUse"><stop stop-color="#FFC444"/><stop offset=".996" stop-color="#F36F56"/></linearGradient><linearGradient id="au" x1="1703.05" x2="1927.47" y1="1541.54" y2="1761.33" gradientUnits="userSpaceOnUse"><stop stop-color="#FF9085"/><stop offset="1" stop-color="#FB6FBB"/></linearGradient><linearGradient id="av" x1="1713.39" x2="1967.98" y1="1516.43" y2="1765.76" gradientUnits="userSpaceOnUse"><stop stop-color="#FF9085"/><stop offset="1" stop-color="#FB6FBB"/></linearGradient><linearGradient id="aw" x1="1691.09" x2="1868.9" y1="1295.62" y2="1438.86" gradientUnits="userSpaceOnUse"><stop stop-color="#FFC444"/><stop offset=".996" stop-color="#F36F56"/></linearGradient><linearGradient id="ax" x1="1695.67" x2="1894.2" y1="1285.46" y2="1445.38" gradientUnits="userSpaceOnUse"><stop stop-color="#FFC444"/><stop offset=".996" stop-color="#F36F56"/></linearGradient><linearGradient id="ay" x1="1861.5" x2="1891.39" y1="2071.82" y2="2142.23" gradientUnits="userSpaceOnUse"><stop stop-color="#AA80F9"/><stop offset=".996" stop-color="#6165D7"/></linearGradient><linearGradient id="az" x1="1885.47" x2="1913.4" y1="2196.54" y2="1929.81" gradientUnits="userSpaceOnUse"><stop stop-color="#AA80F9"/><stop offset=".996" stop-color="#6165D7"/></linearGradient><linearGradient id="aA" x1="1773.29" x2="2067" y1="2103.49" y2="2103.49" gradientUnits="userSpaceOnUse"><stop stop-color="#AA80F9"/><stop offset=".996" stop-color="#6165D7"/></linearGradient><linearGradient id="aB" x1="1848.84" x2="2016.46" y1="1908.41" y2="2144.97" gradientUnits="userSpaceOnUse"><stop stop-color="#AA80F9"/><stop offset=".996" stop-color="#6165D7"/></linearGradient><linearGradient id="aC" x1="2085.15" x2="2016.15" y1="1930.85" y2="1838.64" gradientUnits="userSpaceOnUse"><stop stop-color="#311944"/><stop offset="1" stop-color="#893976"/></linearGradient></defs></svg>