<svg xmlns="http://www.w3.org/2000/svg" width="3234" height="2667" fill="none"><path fill="#EBF3FA" d="M3037.18 2167.13c-57.2 0-146.16-6.17-147.41-4.06h-295.5l-86.5-.2h-774.44l-226.16-.22H910.933l-249.034-.2H211.555s-.745-1.7-2.239-5.08l-.249-.43s-.248-.42-.248-.63c-.995-1.69-379.566-756.99 237.539-1088.43 241.45-129.685-4.851-371.33 352.514-528.193 236.388-103.758 419.858-33.953 614.678 35.836 184.93 66.258 380.08 132.515 640.39 50.347 501.41-158.294 798.13 99.933 764.93 392.22-15.6 137.28 12.24 341.85 116.95 369.59 163.54 43.29 200.01 300.67 176.17 524.79-14.68 138.16-72.79 254.66-74.81 254.66Z"/><path fill="#E3EEFB" d="M1171.06 2155.72H684.457v-605h367.583v15.69h33.72v-15.69h85.3v204.65h-61.14v-14.7h-16.75v-53.72h-12.67v53.72h-6.24v-53.72h-12.67v53.72h-4.45v-53.72h-12.68v55.41c0 1.77.35 3.43.97 4.82v8.19H926.952v-14.7h-16.754v-53.72h-12.672v53.72h-6.247v-53.72h-12.674v53.72h-4.444v-53.72h-12.674v55.41c0 1.77.352 3.43.959 4.82v8.19H849v-14.7h-16.754v-53.72h-12.673v53.72h-6.247v-53.72h-12.673v53.72h-4.446v-53.72h-12.672v55.41c0 1.77.352 3.43.958 4.82v8.19H684.457v17.05h486.603v202.44H976.009V1960.99H959.254v-53.72h-12.672v53.72h-6.246v-53.72h-12.674v53.72h-4.445v-53.72h-12.674v55.41c0 1.77.352 3.42.961 4.82v7.36h-31.919V1960.99h-16.754v-53.72h-12.673v53.72h-6.246v-53.72h-12.673v53.72h-4.446v-53.72H814.12v55.41c0 1.77.352 3.42.96 4.82v7.36h-44.033V1960.99h-16.754v-53.72H741.62v53.72h-6.247v-53.72H722.7v53.72h-4.445v-53.72h-12.674v55.41c0 1.77.353 3.42.96 4.82v7.36h-22.084v17.05h486.603v163.81Zm-198.615-180.86h-57.378v-3.51c.532.22 1.093.34 1.673.34h.281c2.799 0 5.165-2.7 5.934-6.41h4.969c.768 3.71 3.135 6.41 5.935 6.41h.28c2.8 0 5.166-2.7 5.934-6.41h6.771c.768 3.71 3.134 6.41 5.933 6.41h.282c2.799 0 5.165-2.7 5.933-6.41h13.453v9.58Zm-96.423 0h-57.378v-3.51c.531.22 1.093.34 1.672.34h.281c2.799 0 5.166-2.7 5.934-6.41h4.97c.768 3.71 3.134 6.41 5.934 6.41h.28c2.8 0 5.167-2.7 5.934-6.41h6.771c.768 3.71 3.135 6.41 5.934 6.41h.281c2.799 0 5.165-2.7 5.934-6.41h13.453v9.58Zm-108.538 0h-57.379v-3.51a4.36 4.36 0 0 0 1.673.34h.28c2.8 0 5.167-2.7 5.935-6.41h4.969c.769 3.71 3.134 6.41 5.934 6.41h.281c2.799 0 5.166-2.7 5.934-6.41h6.771c.768 3.71 3.135 6.41 5.934 6.41h.281c2.8 0 5.165-2.7 5.934-6.41h13.453v9.58Zm338.886-219.49h-57.38v-4.34c.53.22 1.09.34 1.67.34h.28c2.8 0 5.16-2.7 5.94-6.41h4.97c.76 3.71 3.13 6.41 5.93 6.41h.28c2.8 0 5.17-2.7 5.93-6.41h6.78c.76 3.71 3.13 6.41 5.92 6.41h.29c2.8 0 5.17-2.7 5.93-6.41h13.46v10.41Zm-182.981 0H866.01v-4.34c.532.22 1.093.34 1.673.34h.281c2.8 0 5.166-2.7 5.935-6.41h4.969c.767 3.71 3.135 6.41 5.934 6.41h.281c2.799 0 5.165-2.7 5.934-6.41h6.771c.767 3.71 3.133 6.41 5.934 6.41h.28c2.801 0 5.166-2.7 5.934-6.41h13.453v10.41Zm-77.952 0h-57.379v-4.34c.532.22 1.092.34 1.673.34h.28c2.8 0 5.166-2.7 5.934-6.41h4.97c.768 3.71 3.134 6.41 5.935 6.41h.279c2.8 0 5.166-2.7 5.935-6.41h6.771c.768 3.71 3.134 6.41 5.934 6.41h.281c2.799 0 5.165-2.7 5.934-6.41h13.453v10.41Zm325.623-221.69h-108.94v-105.42h-58.25v105.42h-15.036v-72.65h-69.013v72.65h-47.823v-10.1h-16.755v-53.73H842.57v53.73h-6.247v-53.73h-12.672v53.73h-4.446v-53.73h-12.672v55.42c0 1.77.351 3.42.96 4.82v3.59h-13.448v-10.1H777.29v-53.73h-12.673v53.73h-6.246v-53.73h-12.673v53.73h-4.446v-53.73H728.58v55.42c0 1.77.352 3.42.96 4.82v3.59h-45.083v-186.7h187.687v14.13h33.716v-14.13h265.2v186.7Zm-302.625 0h-17.168c1.778-.99 3.16-3.14 3.714-5.81h13.454v5.81Zm-21.889 0h-14.199c1.778-.99 3.162-3.14 3.714-5.81h6.771c.554 2.67 1.937 4.82 3.714 5.81Zm-18.919 0h-12.398c1.778-.99 3.161-3.14 3.714-5.81h4.97c.553 2.67 1.936 4.82 3.714 5.81Zm-37.146 0h-17.167c1.778-.99 3.161-3.14 3.714-5.81h13.453v5.81Zm-21.886 0h-14.201c1.779-.99 3.162-3.14 3.715-5.81h6.772c.552 2.67 1.936 4.82 3.714 5.81Zm-18.92 0h-12.399c1.778-.99 3.161-3.14 3.714-5.81h4.97c.553 2.67 1.936 4.82 3.715 5.81Zm421.385-203.74h-95.38v-13h-16.77v-53.72h-12.66v53.72H1040v-53.72h-12.67v53.72h-4.45v-53.72h-12.68v55.41c0 1.78.36 3.43.97 4.82v6.49h-32.22v-13H962.195v-53.72h-12.673v53.72h-6.246v-53.72h-12.672v53.72h-4.447v-53.72h-12.672v55.41c0 1.78.351 3.43.96 4.82v6.49h-20.874v-13H876.816v-53.72h-12.673v53.72h-6.246v-53.72h-12.672v53.72h-4.447v-53.72h-12.673v55.41c0 1.78.352 3.43.96 4.82v6.49h-35.02v-13H777.29v-53.72h-12.673v53.72h-6.246v-53.72h-12.673v53.72h-4.446v-53.72H728.58v55.41c0 1.78.352 3.43.96 4.82v6.49h-45.083V928.97h486.603v170.28h-117.08v-14.7h-16.75v-53.73h-12.67v53.73h-6.25v-53.73h-12.68v53.73h-4.44v-53.73h-12.671v55.42c0 1.77.351 3.42.96 4.82v8.19H889.002v-14.7h-16.755v-53.73h-12.673v53.73h-6.246v-53.73h-12.673v53.73h-4.445v-53.73h-12.674v55.42c0 1.77.352 3.42.96 4.82v8.19H684.457v17.03h124.11v14.13h33.716v-14.13h132.12v14.13h33.707v-14.13h162.95v213.66Zm-98.95 0h-57.38v-2.64c.54.22 1.1.34 1.67.34h.28c2.8 0 5.17-2.7 5.94-6.41h4.97c.76 3.71 3.13 6.41 5.93 6.41h.29c2.8 0 5.16-2.7 5.93-6.41h6.77c.76 3.71 3.13 6.41 5.94 6.41h.27c2.8 0 5.17-2.7 5.93-6.41h13.46v8.71Zm-96.724 0h-57.378v-2.64c.532.22 1.093.34 1.672.34h.282c2.8 0 5.166-2.7 5.933-6.41h4.971c.767 3.71 3.133 6.41 5.933 6.41h.281c2.8 0 5.167-2.7 5.934-6.41h6.771c.767 3.71 3.133 6.41 5.933 6.41h.281c2.8 0 5.167-2.7 5.934-6.41h13.453v8.71Zm-85.379 0h-57.379v-2.64c.533.22 1.094.34 1.674.34h.281c2.8 0 5.166-2.7 5.933-6.41h4.971c.767 3.71 3.133 6.41 5.934 6.41h.281c2.8 0 5.166-2.7 5.933-6.41h6.771c.767 3.71 3.133 6.41 5.934 6.41h.28c2.801 0 5.167-2.7 5.934-6.41h13.453v8.71Zm-99.526 0h-57.379v-2.64c.533.22 1.094.34 1.673.34h.282c2.8 0 5.166-2.7 5.933-6.41h4.97c.767 3.71 3.133 6.41 5.934 6.41h.281c2.8 0 5.167-2.7 5.934-6.41h6.771c.768 3.71 3.134 6.41 5.934 6.41h.28c2.8 0 5.167-2.7 5.934-6.41h13.453v8.71Zm259.939-230.69h-57.378v-4.34c.533.22 1.094.34 1.674.34h.28c2.8 0 5.164-2.7 5.934-6.41h4.98c.76 3.71 3.13 6.41 5.92 6.41h.28c2.8 0 5.17-2.7 5.94-6.41h6.77c.77 3.71 3.13 6.41 5.93 6.41h.28c2.81 0 5.17-2.7 5.94-6.41h13.45v10.41Zm-164.981 0h-57.38v-4.34c.532.22 1.093.34 1.673.34h.281c2.8 0 5.166-2.7 5.935-6.41h4.969c.767 3.71 3.134 6.41 5.934 6.41h.28c2.8 0 5.166-2.7 5.935-6.41h6.77c.768 3.71 3.134 6.41 5.935 6.41h.28c2.8 0 5.167-2.7 5.934-6.41h13.454v10.41Z"/><path fill="#CBDDF8" d="M1171.06 1346.98h-265.2v-17.03h-12.289 20.874v1.7h3.563v-1.7h57.378v1.7h3.564v-1.7h32.22v1.7h3.56v-1.7h57.38v1.7h3.57v-1.7h95.38v17.03Zm-298.916 0H684.457v-17.03h45.083v1.7h3.562v-1.7h57.379v1.7h3.564v-1.7h35.02v1.7h3.563v-1.7h57.379-17.863v17.03ZM1171.06 1550.71h-85.3v-15.47h-33.72v15.47H684.457v-17.03h45.083v4.6h3.562v-4.34c.533.22 1.094.34 1.673.34h.282c.782 0 1.53-.22 2.219-.6h12.399c.689.38 1.437.6 2.219.6h.281c.782 0 1.53-.22 2.219-.6h14.201c.689.38 1.437.6 2.219.6h.28c.783 0 1.531-.22 2.22-.6h17.167v4.6h3.564v-4.6h13.448v4.6h3.562v-4.34a4.36 4.36 0 0 0 1.673.34h.281c.782 0 1.531-.22 2.22-.6h12.398c.689.38 1.438.6 2.22.6h.28c.783 0 1.531-.22 2.22-.6h14.199c.689.38 1.439.6 2.22.6h.281c.783 0 1.531-.22 2.22-.6h17.168v4.6h3.563v-4.6h47.823v.5h69.013v-.5h15.036v.5h58.25v-.5h108.94v17.03Z"/><path fill="#F5F9FD" d="M1171.06 928.971H684.457v-19.444h489.933-3.33v19.444ZM684.453 2155.72h-12.539V909.527h12.539V2155.72Z"/><path fill="#F5F9FD" d="M1183.6 2155.72h-12.54V909.527h12.54V2155.72Z"/><path fill="#CBDDF8" d="M1171.06 1116.29h-162.95v-17.04h-33.707v17.04h-132.12v-17.04h-33.716v17.04h-124.11v-17.04H1171.06v17.04ZM1171.06 1772.42H684.457v-17.05H1171.06v17.05ZM1171.06 1991.91H684.457v-17.05h22.084v.83h3.564v-.83h57.379v.83h3.563v-.83h44.033v.83h3.564v-.83h57.378v.83h3.563v-.83h31.919v.83h3.563v-.83h57.378v.83h3.564v-.83h195.051v17.05ZM830.125 1534.28h-.28c-.782 0-1.531-.22-2.22-.6-1.778-.99-3.161-3.14-3.714-5.81h1.8c.735 2.28 2.325 3.85 4.17 3.85h.208c1.844 0 3.435-1.57 4.17-3.85h1.8c-.552 2.67-1.936 4.82-3.714 5.81-.689.38-1.437.6-2.22.6Zm6.196-10.7h-1.628v-18.19h-9.416v18.19h-1.629v-53.73h12.673v53.73Z"/><path fill="#CBDDF8" d="M830.089 1531.73h-.208c-1.845 0-3.435-1.58-4.17-3.86h8.548c-.735 2.28-2.326 3.86-4.17 3.86Zm4.604-8.15h-9.416v-18.19h9.416v18.19ZM849.047 1534.28h-.281c-.781 0-1.531-.22-2.22-.6-1.777-.99-3.16-3.14-3.714-5.81h1.801c.735 2.28 2.325 3.85 4.169 3.85h.209c1.844 0 3.434-1.57 4.169-3.85h1.801c-.554 2.67-1.936 4.82-3.714 5.81-.689.38-1.437.6-2.22.6Zm6.196-10.7h-1.628v-23.68h-9.416v23.68h-1.629v-53.73h12.673v53.73Z"/><path fill="#CBDDF8" d="M849.011 1531.73h-.209c-1.844 0-3.434-1.58-4.169-3.86h8.547c-.735 2.28-2.325 3.86-4.169 3.86Zm4.604-8.15h-9.416v-23.68h9.416v23.68ZM813.004 1534.28h-.281a4.36 4.36 0 0 1-1.673-.34v-2.7c.528.31 1.106.48 1.709.48h.209c1.843 0 3.434-1.57 4.169-3.85h1.801c-.553 2.67-1.936 4.82-3.714 5.81-.689.38-1.438.6-2.22.6Zm-5.517-4.19c-.608-1.4-.96-3.05-.96-4.82v-55.42H819.2v53.73h-1.629v-23.68h-9.416v23.68h-.668v6.51Z"/><path fill="#CBDDF8" d="M812.969 1531.73h-.209c-.603 0-1.181-.18-1.709-.49v-3.37h6.087c-.735 2.28-2.326 3.86-4.169 3.86Zm4.603-8.15h-9.416v-23.68h9.416v23.68ZM811.051 1538.28h-3.563v-14.7 4.29h3.563v10.41ZM871.997 1538.28h-3.563v-10.41h3.563v10.41Z"/><path fill="#CBDDF8" d="M871.994 1527.87h-64.506v-4.29h64.506v4.29ZM1068.06 1751.37h-.29c-2.8 0-5.17-2.7-5.93-6.41h1.8c.73 2.28 2.33 3.86 4.17 3.86h.21c1.84 0 3.43-1.58 4.16-3.86h1.8c-.76 3.71-3.13 6.41-5.92 6.41Zm6.19-10.7h-1.63v-18.17h-9.41v18.17h-1.63v-53.72h12.67v53.72Z"/><path fill="#CBDDF8" d="M1068.02 1748.82h-.21c-1.84 0-3.44-1.58-4.17-3.86h8.55c-.74 2.28-2.32 3.86-4.17 3.86Zm4.6-8.15h-9.41v-18.17h9.41v18.17ZM1086.97 1751.37h-.28c-2.79 0-5.16-2.7-5.92-6.41h1.8c.73 2.28 2.32 3.86 4.16 3.86h.21c1.84 0 3.44-1.58 4.17-3.86h1.8c-.76 3.71-3.13 6.41-5.94 6.41Zm6.2-10.7h-1.63v-23.66h-9.41v23.66h-1.63v-53.72h12.67v53.72Z"/><path fill="#CBDDF8" d="M1086.94 1748.82h-.21c-1.85 0-3.44-1.58-4.17-3.86h8.55c-.74 2.28-2.33 3.86-4.17 3.86Zm4.6-8.15h-9.41v-23.66h9.41v23.66ZM1050.94 1751.37h-.29c-.58 0-1.13-.12-1.66-.33v-2.71c.52.31 1.1.49 1.7.49h.21c1.84 0 3.44-1.58 4.17-3.86h1.8c-.77 3.71-3.13 6.41-5.93 6.41Zm-5.52-4.19c-.61-1.39-.96-3.05-.96-4.82v-55.41h12.67v53.72h-1.63v-23.66h-9.42v23.66h-.66v6.51Z"/><path fill="#CBDDF8" d="M1050.91 1748.82h-.21c-.61 0-1.19-.18-1.71-.49v-3.37h6.08c-.73 2.28-2.33 3.86-4.16 3.86Zm4.6-8.15h-9.42v-23.66h9.42v23.66ZM1048.99 1755.37h-3.56v-14.7 4.29h3.56v10.41ZM1106.36 1755.37h3.56v-10.41h-3.56v10.41Z"/><path fill="#CBDDF8" d="M1109.92 1744.96h-64.49v-4.29h64.49v4.29ZM752.172 1534.28h-.28c-.782 0-1.531-.22-2.219-.6-1.779-.99-3.162-3.14-3.716-5.81h1.801c.735 2.28 2.326 3.85 4.17 3.85h.209c1.843 0 3.434-1.57 4.168-3.85h1.802c-.553 2.67-1.936 4.82-3.715 5.81-.689.38-1.437.6-2.22.6Zm6.197-10.7h-1.629v-18.19h-9.416v18.19h-1.629v-53.73h12.674v53.73Z"/><path fill="#CBDDF8" d="M752.137 1531.73h-.209c-1.844 0-3.435-1.58-4.17-3.86h8.547c-.734 2.28-2.325 3.86-4.168 3.86Zm4.603-8.15h-9.416v-18.19h9.416v18.19ZM771.094 1534.28h-.28c-.782 0-1.531-.22-2.22-.6-1.777-.99-3.161-3.14-3.714-5.81h1.8c.735 2.28 2.326 3.85 4.17 3.85h.208c1.844 0 3.435-1.57 4.17-3.85h1.8c-.554 2.67-1.937 4.82-3.714 5.81-.689.38-1.437.6-2.22.6Zm6.196-10.7h-1.628v-23.68h-9.416v23.68h-1.629v-53.73h12.673v53.73Z"/><path fill="#CBDDF8" d="M771.058 1531.73h-.208c-1.844 0-3.435-1.58-4.17-3.86h8.548c-.735 2.28-2.326 3.86-4.17 3.86Zm4.604-8.15h-9.416v-23.68h9.416v23.68ZM735.051 1534.28h-.281c-.58 0-1.141-.12-1.673-.34v-2.7c.528.31 1.106.48 1.709.48h.209c1.844 0 3.435-1.57 4.169-3.85h1.801c-.554 2.67-1.936 4.82-3.714 5.81-.689.38-1.437.6-2.22.6Zm-5.517-4.19c-.607-1.4-.96-3.05-.96-4.82v-55.42h12.673v53.73h-1.628v-23.68h-9.416v23.68h-.669v6.51Z"/><path fill="#CBDDF8" d="M735.015 1531.73h-.209c-.604 0-1.181-.18-1.709-.49v-3.37h6.087c-.734 2.28-2.325 3.86-4.169 3.86Zm4.604-8.15h-9.416v-23.68h9.416v23.68Z"/><path fill="#CBDDF8" d="M733.098 1538.28h-3.563v-14.7 4.29h3.563v10.41ZM794.044 1538.28h-3.564v-10.41h3.564v10.41Z"/><path fill="#CBDDF8" d="M794.04 1527.87h-64.505v-4.29h64.505v4.29ZM885.08 1751.37h-.282c-2.799 0-5.166-2.7-5.933-6.41h1.799c.736 2.28 2.326 3.86 4.17 3.86h.209c1.844 0 3.434-1.58 4.169-3.86h1.801c-.768 3.71-3.134 6.41-5.933 6.41Zm6.195-10.7h-1.628v-18.17h-9.416v18.17h-1.629v-53.72h12.673v53.72Z"/><path fill="#CBDDF8" d="M885.043 1748.82h-.209c-1.844 0-3.434-1.58-4.17-3.86h8.548c-.735 2.28-2.325 3.86-4.169 3.86Zm4.604-8.15h-9.417v-18.17h9.417v18.17ZM903.995 1751.37h-.28c-2.8 0-5.166-2.7-5.933-6.41h1.799c.736 2.28 2.326 3.86 4.17 3.86h.208c1.845 0 3.435-1.58 4.17-3.86h1.801c-.768 3.71-3.133 6.41-5.935 6.41Zm6.197-10.7h-1.629v-23.66h-9.415v23.66h-1.628v-53.72h12.672v53.72Z"/><path fill="#CBDDF8" d="M903.964 1748.82h-.208c-1.844 0-3.435-1.58-4.17-3.86h8.548c-.735 2.28-2.325 3.86-4.17 3.86Zm4.604-8.15h-9.416v-23.66h9.416v23.66ZM867.961 1751.37h-.281c-.579 0-1.141-.12-1.673-.33v-2.71c.528.31 1.106.49 1.71.49h.208c1.844 0 3.435-1.58 4.17-3.86h1.801c-.768 3.71-3.135 6.41-5.935 6.41Zm-5.518-4.19c-.606-1.39-.959-3.05-.959-4.82v-55.41h12.674v53.72h-1.629v-23.66h-9.416v23.66h-.67v6.51Z"/><path fill="#CBDDF8" d="M867.925 1748.82h-.208c-.604 0-1.182-.18-1.71-.49v-3.37h6.088c-.735 2.28-2.326 3.86-4.17 3.86Zm4.604-8.15h-9.416v-23.66h9.416v23.66Z"/><path fill="#CBDDF8" d="M866.009 1755.37h-3.564v-14.7 4.29h3.564v10.41ZM923.387 1755.37h3.562v-10.41h-3.562v10.41Z"/><path fill="#CBDDF8" d="M926.951 1744.96h-64.506v-4.29h64.506v4.29ZM807.124 1751.37h-.279c-2.801 0-5.167-2.7-5.934-6.41h1.799c.736 2.28 2.326 3.86 4.171 3.86h.208c1.844 0 3.435-1.58 4.17-3.86h1.8c-.768 3.71-3.134 6.41-5.935 6.41Zm6.197-10.7h-1.628v-18.17h-9.417v18.17h-1.628v-53.72h12.673v53.72Z"/><path fill="#CBDDF8" d="M807.09 1748.82h-.208c-1.845 0-3.436-1.58-4.171-3.86h8.549c-.735 2.28-2.326 3.86-4.17 3.86Zm4.604-8.15h-9.417v-18.17h9.417v18.17ZM826.047 1751.37h-.281c-2.8 0-5.165-2.7-5.934-6.41h1.8c.735 2.28 2.326 3.86 4.169 3.86h.21c1.843 0 3.434-1.58 4.169-3.86h1.801c-.768 3.71-3.135 6.41-5.934 6.41Zm6.196-10.7h-1.629v-23.66h-9.416v23.66h-1.628v-53.72h12.673v53.72Z"/><path fill="#CBDDF8" d="M826.012 1748.82h-.21c-1.843 0-3.434-1.58-4.169-3.86h8.548c-.735 2.28-2.326 3.86-4.169 3.86Zm4.603-8.15h-9.416v-23.66h9.416v23.66ZM790.007 1751.37h-.28c-.58 0-1.141-.12-1.673-.33v-2.71c.528.31 1.105.49 1.708.49h.209c1.844 0 3.435-1.58 4.17-3.86h1.8c-.767 3.71-3.134 6.41-5.934 6.41Zm-5.518-4.19c-.606-1.39-.958-3.05-.958-4.82v-55.41h12.672v53.72h-1.628v-23.66h-9.416v23.66h-.67v6.51Z"/><path fill="#CBDDF8" d="M789.972 1748.82h-.209c-.604 0-1.18-.18-1.708-.49v-3.37h6.087c-.735 2.28-2.326 3.86-4.17 3.86Zm4.604-8.15h-9.416v-23.66h9.416v23.66Z"/><path fill="#CBDDF8" d="M788.057 1755.37h-3.565v-14.7 4.29h3.565v10.41ZM845.434 1755.37h3.563v-10.41h-3.563v10.41Z"/><path fill="#CBDDF8" d="M848.999 1744.96h-64.507v-4.29H848.999v4.29ZM837.714 1971.69h-.28c-2.8 0-5.166-2.7-5.934-6.41h1.8c.735 2.28 2.326 3.85 4.17 3.85h.208c1.844 0 3.435-1.57 4.17-3.85h1.8c-.767 3.71-3.134 6.41-5.934 6.41Zm6.197-10.7h-1.629v-18.19h-9.416v18.19h-1.628v-53.72h12.673v53.72Z"/><path fill="#CBDDF8" d="M837.679 1969.13h-.208c-1.844 0-3.435-1.57-4.17-3.85h8.548c-.735 2.28-2.326 3.85-4.17 3.85Zm4.604-8.14h-9.416v-18.19h9.416v18.19ZM856.633 1971.69h-.281c-2.799 0-5.165-2.7-5.934-6.41h1.801c.735 2.28 2.326 3.85 4.169 3.85h.209c1.844 0 3.435-1.57 4.17-3.85h1.8c-.768 3.71-3.135 6.41-5.934 6.41Zm6.196-10.7h-1.627v-23.68h-9.417v23.68h-1.629v-53.72h12.673v53.72Z"/><path fill="#CBDDF8" d="M856.601 1969.13h-.209c-1.843 0-3.434-1.57-4.169-3.85h8.548c-.735 2.28-2.326 3.85-4.17 3.85Zm4.605-8.14h-9.417v-23.68h9.417v23.68ZM820.594 1971.69h-.281c-.58 0-1.141-.12-1.672-.34v-2.7c.528.31 1.104.48 1.708.48h.209c1.843 0 3.434-1.57 4.169-3.85h1.801c-.768 3.71-3.135 6.41-5.934 6.41Zm-5.517-4.19c-.608-1.4-.96-3.05-.96-4.82v-55.41h12.673v53.72h-1.629v-23.68h-9.416v23.68h-.668v6.51Z"/><path fill="#CBDDF8" d="M820.559 1969.13h-.209c-.604 0-1.18-.17-1.708-.48v-3.37h6.086c-.735 2.28-2.326 3.85-4.169 3.85Zm4.603-8.14h-9.416v-23.68h9.416v23.68ZM818.642 1975.69h-3.564v-14.7 4.29h3.564v10.41ZM879.583 1975.69h-3.563v-10.41h3.563v10.41Z"/><path fill="#CBDDF8" d="M879.583 1965.28h-64.505v-4.29H879.583v4.29ZM934.133 1971.69h-.28c-2.8 0-5.166-2.7-5.935-6.41h1.801c.735 2.28 2.325 3.85 4.169 3.85h.209c1.844 0 3.435-1.57 4.169-3.85h1.801c-.767 3.71-3.134 6.41-5.934 6.41Zm6.197-10.7h-1.63v-18.19h-9.415v18.19h-1.629v-53.72h12.674v53.72Z"/><path fill="#CBDDF8" d="M934.097 1969.13h-.209c-1.844 0-3.434-1.57-4.169-3.85h8.547c-.734 2.28-2.325 3.85-4.169 3.85Zm4.603-8.14h-9.415v-18.19h9.415v18.19ZM953.051 1971.69h-.281c-2.799 0-5.165-2.7-5.934-6.41h1.801c.735 2.28 2.326 3.85 4.169 3.85h.209c1.844 0 3.435-1.57 4.169-3.85h1.801c-.769 3.71-3.135 6.41-5.934 6.41Zm6.196-10.7h-1.628v-23.68h-9.416v23.68h-1.629v-53.72h12.673v53.72Z"/><path fill="#CBDDF8" d="M953.019 1969.13h-.209c-1.843 0-3.434-1.57-4.169-3.85h8.547c-.734 2.28-2.325 3.85-4.169 3.85Zm4.604-8.14h-9.416v-23.68h9.416v23.68ZM917.017 1971.69h-.281c-.58 0-1.141-.12-1.673-.34v-2.7c.528.31 1.105.48 1.709.48h.209c1.844 0 3.434-1.57 4.169-3.85h1.801c-.769 3.71-3.135 6.41-5.934 6.41Zm-5.517-4.19c-.608-1.4-.961-3.05-.961-4.82v-55.41h12.674v53.72h-1.629v-23.68h-9.416v23.68h-.668v6.51Z"/><path fill="#CBDDF8" d="M916.981 1969.13h-.209c-.604 0-1.181-.17-1.709-.48v-3.37h6.087c-.735 2.28-2.325 3.85-4.169 3.85Zm4.603-8.14h-9.416v-23.68h9.416v23.68ZM915.062 1975.69H911.5v-14.7 4.29h3.562v10.41ZM976.005 1975.69h-3.564v-10.41h3.564v10.41Z"/><path fill="#CBDDF8" d="M976.005 1965.28H911.5v-4.29h64.505v4.29ZM729.172 1971.69h-.281c-2.8 0-5.165-2.7-5.934-6.41h1.801c.734 2.28 2.325 3.85 4.169 3.85h.209c1.844 0 3.434-1.57 4.169-3.85h1.801c-.768 3.71-3.135 6.41-5.934 6.41Zm6.196-10.7h-1.629v-18.19h-9.416v18.19h-1.628v-53.72h12.673v53.72Z"/><path fill="#CBDDF8" d="M729.137 1969.13h-.209c-1.844 0-3.435-1.57-4.169-3.85h8.547c-.735 2.28-2.325 3.85-4.169 3.85Zm4.603-8.14h-9.416v-18.19h9.416v18.19ZM748.094 1971.69h-.281c-2.799 0-5.165-2.7-5.934-6.41h1.801c.735 2.28 2.325 3.85 4.169 3.85h.208c1.845 0 3.435-1.57 4.17-3.85h1.801c-.769 3.71-3.134 6.41-5.934 6.41Zm6.196-10.7h-1.628v-23.68h-9.416v23.68h-1.629v-53.72h12.673v53.72Z"/><path fill="#CBDDF8" d="M748.057 1969.13h-.208c-1.844 0-3.434-1.57-4.169-3.85h8.547c-.735 2.28-2.325 3.85-4.17 3.85Zm4.605-8.14h-9.416v-23.68h9.416v23.68ZM712.059 1971.69h-.28c-.58 0-1.141-.12-1.673-.34v-2.7c.528.31 1.104.48 1.708.48h.209c1.844 0 3.435-1.57 4.17-3.85h1.801c-.769 3.71-3.135 6.41-5.935 6.41Zm-5.517-4.19c-.607-1.4-.96-3.05-.96-4.82v-55.41h12.674v53.72h-1.629v-23.68h-9.416v23.68h-.669v6.51Z"/><path fill="#CBDDF8" d="M712.023 1969.13h-.209c-.604 0-1.18-.17-1.709-.48v-3.37h6.088c-.735 2.28-2.326 3.85-4.17 3.85Zm4.604-8.14h-9.416v-23.68h9.416v23.68Z"/><path fill="#CBDDF8" d="M710.106 1975.69h-3.563v-14.7 4.29h3.563v10.41ZM771.048 1975.69h-3.564v-10.41h3.564v10.41Z"/><path fill="#CBDDF8" d="M771.049 1965.28h-64.506v-4.29h64.506v4.29ZM752.172 1327.64h-.28c-2.801 0-5.167-2.7-5.935-6.41h1.801c.735 2.28 2.326 3.85 4.17 3.85h.209c1.844 0 3.434-1.57 4.169-3.85h1.801c-.767 3.71-3.135 6.41-5.935 6.41Zm6.197-10.7h-1.629v-18.17h-9.416v18.17h-1.629v-53.72h12.674v53.72Z"/><path fill="#CBDDF8" d="M752.137 1325.08h-.209c-1.844 0-3.435-1.57-4.17-3.85h8.548c-.735 2.28-2.325 3.85-4.169 3.85Zm4.603-8.14h-9.416v-18.18h9.416v18.18ZM771.094 1327.64h-.28c-2.8 0-5.166-2.7-5.935-6.41h1.801c.735 2.28 2.326 3.85 4.17 3.85h.208c1.844 0 3.435-1.57 4.17-3.85h1.8c-.768 3.71-3.134 6.41-5.934 6.41Zm6.196-10.7h-1.628v-23.66h-9.416v23.66h-1.629v-53.72h12.673v53.72Z"/><path fill="#CBDDF8" d="M771.058 1325.08h-.208c-1.844 0-3.435-1.57-4.17-3.85h8.548c-.735 2.28-2.326 3.85-4.17 3.85Zm4.604-8.14h-9.416v-23.66h9.416v23.66ZM735.051 1327.64h-.281c-.58 0-1.141-.12-1.673-.34v-2.68c.528.3 1.106.46 1.709.46h.209c1.844 0 3.435-1.57 4.17-3.85h1.8c-.767 3.71-3.134 6.41-5.934 6.41Zm-5.517-4.19c-.607-1.39-.96-3.04-.96-4.82v-55.41h12.673v53.72h-1.628v-23.66h-9.416v23.66h-.669v6.51Z"/><path fill="#CBDDF8" d="M735.015 1325.08h-.209c-.604 0-1.181-.16-1.709-.46v-3.39h6.088c-.735 2.28-2.326 3.85-4.17 3.85Zm4.604-8.14h-9.416v-23.66h9.416v23.66Z"/><path fill="#CBDDF8" d="M733.098 1331.65h-3.563v-14.71 4.29h3.563V1331.65ZM794.044 1331.65h-3.564v-10.42h3.564V1331.65Z"/><path fill="#CBDDF8" d="M794.04 1321.23h-64.505v-4.29h64.505v4.29ZM851.7 1327.64h-.282c-2.8 0-5.166-2.7-5.933-6.41h1.8c.735 2.28 2.326 3.85 4.169 3.85h.208c1.844 0 3.436-1.57 4.17-3.85h1.801c-.767 3.71-3.133 6.41-5.933 6.41Zm6.195-10.7h-1.629v-18.17h-9.415v18.17h-1.628v-53.72h12.672v53.72Z"/><path fill="#CBDDF8" d="M851.663 1325.08h-.209c-1.843 0-3.433-1.57-4.169-3.85h8.548c-.734 2.28-2.326 3.85-4.17 3.85Zm4.604-8.14h-9.415v-18.18h9.415v18.18ZM870.614 1327.64h-.28c-2.802 0-5.168-2.7-5.935-6.41h1.801c.734 2.28 2.325 3.85 4.17 3.85h.208c1.844 0 3.434-1.57 4.17-3.85h1.799c-.767 3.71-3.133 6.41-5.933 6.41Zm6.195-10.7h-1.628v-23.66h-9.415v23.66h-1.629v-53.72h12.672v53.72Z"/><path fill="#CBDDF8" d="M870.577 1325.08h-.207c-1.845 0-3.436-1.57-4.17-3.85h8.547c-.735 2.28-2.326 3.85-4.17 3.85Zm4.604-8.14h-9.415v-23.66h9.415v23.66ZM834.58 1327.64h-.282a4.36 4.36 0 0 1-1.673-.34v-2.68c.528.3 1.106.46 1.709.46h.209c1.844 0 3.435-1.57 4.17-3.85h1.8c-.767 3.71-3.133 6.41-5.933 6.41Zm-5.518-4.19c-.608-1.39-.96-3.04-.96-4.82v-55.41h12.673v53.72h-1.628v-23.66h-9.415v23.66h-.67v6.51Z"/><path fill="#CBDDF8" d="M834.546 1325.08h-.209c-.603 0-1.181-.16-1.709-.46v-3.39h6.088c-.735 2.28-2.326 3.85-4.17 3.85Zm4.604-8.14h-9.416v-23.66h9.416v23.66ZM832.626 1331.65h-3.564v-14.71 4.29h3.564V1331.65ZM890.004 1329.95h3.563v-8.71h-3.563v8.71Z"/><path fill="#CBDDF8" d="M893.568 1321.23h-64.506v-4.29h64.506v4.29ZM847.124 1095.25h-.28c-2.8 0-5.166-2.7-5.933-6.41h1.799c.736 2.28 2.326 3.85 4.17 3.85h.209c1.844 0 3.435-1.57 4.169-3.85h1.801c-.768 3.71-3.135 6.41-5.935 6.41Zm6.197-10.7h-1.629v-18.19h-9.416v18.19h-1.628v-53.73h12.673v53.73Z"/><path fill="#CBDDF8" d="M847.094 1092.7h-.209c-1.844 0-3.435-1.58-4.17-3.86h8.548c-.734 2.28-2.325 3.86-4.169 3.86Zm4.603-8.15h-9.416v-18.19h9.416v18.19ZM866.047 1095.25h-.28c-2.8 0-5.166-2.7-5.935-6.41h1.801c.735 2.28 2.326 3.85 4.17 3.85h.208c1.845 0 3.436-1.57 4.171-3.85h1.8c-.767 3.71-3.135 6.41-5.935 6.41Zm6.197-10.7h-1.628v-23.68H861.2v23.68h-1.63v-53.73h12.674v53.73Z"/><path fill="#CBDDF8" d="M866.01 1092.7h-.208c-1.844 0-3.435-1.58-4.17-3.86h8.549c-.735 2.28-2.326 3.86-4.171 3.86Zm4.605-8.15h-9.416v-23.68h9.416v23.68ZM830.012 1095.25h-.281c-.58 0-1.141-.12-1.673-.34v-2.7c.528.31 1.105.48 1.709.48h.209c1.844 0 3.435-1.57 4.17-3.85h1.801c-.769 3.71-3.135 6.41-5.935 6.41Zm-5.517-4.19c-.608-1.4-.96-3.05-.96-4.82v-55.42h12.674v53.73h-1.629v-23.68h-9.417v23.68h-.668v6.51Z"/><path fill="#CBDDF8" d="M829.977 1092.7h-.209c-.604 0-1.181-.18-1.709-.49v-3.37h6.088c-.735 2.28-2.326 3.86-4.17 3.86Zm4.604-8.15h-9.417v-23.68h9.417v23.68ZM828.058 1099.25h-3.562v-14.7 4.29h3.562v10.41ZM885.438 1099.25h3.563v-10.41h-3.563v10.41Z"/><path fill="#CBDDF8" d="M889.002 1088.84h-64.506v-4.29h64.506v4.29ZM1012.11 1095.25h-.28c-2.79 0-5.16-2.7-5.93-6.41h1.8c.73 2.28 2.32 3.85 4.17 3.85h.21c1.84 0 3.44-1.57 4.17-3.85h1.8c-.77 3.71-3.14 6.41-5.94 6.41Zm6.2-10.7h-1.63v-18.19h-9.41v18.19h-1.64v-53.73h12.68v53.73Z"/><path fill="#CBDDF8" d="M1012.08 1092.7h-.21c-1.85 0-3.44-1.58-4.17-3.86h8.54c-.73 2.28-2.33 3.86-4.16 3.86Zm4.6-8.15h-9.41v-18.19h9.41v18.19ZM1031.03 1095.25h-.28c-2.8 0-5.16-2.7-5.94-6.41h1.81c.73 2.28 2.32 3.85 4.17 3.85h.2c1.85 0 3.43-1.57 4.18-3.85h1.79c-.77 3.71-3.13 6.41-5.93 6.41Zm6.2-10.7h-1.63v-23.68h-9.42v23.68h-1.63v-53.73h12.68v53.73Z"/><path fill="#CBDDF8" d="M1030.99 1092.7h-.2c-1.85 0-3.44-1.58-4.17-3.86h8.54c-.74 2.28-2.33 3.86-4.17 3.86Zm4.61-8.15h-9.42v-23.68h9.42v23.68ZM994.993 1095.25h-.281a4.36 4.36 0 0 1-1.673-.34v-2.7c.528.31 1.106.48 1.71.48h.208c1.844 0 3.435-1.57 4.17-3.85h1.803c-.77 3.71-3.137 6.41-5.937 6.41Zm-5.517-4.19c-.609-1.4-.96-3.05-.96-4.82v-55.42h12.674v53.73h-1.63v-23.68h-9.415v23.68h-.669v6.51Z"/><path fill="#CBDDF8" d="M994.957 1092.7h-.209c-.603 0-1.181-.18-1.709-.49v-3.37h6.087c-.734 2.28-2.325 3.86-4.169 3.86Zm4.603-8.15h-9.415v-23.68h9.415v23.68Z"/><path fill="#CBDDF8" d="M993.04 1099.25h-3.563v-14.7 4.29h3.563v10.41ZM1050.41 1099.25h3.57v-10.41h-3.57v10.41Z"/><path fill="#CBDDF8" d="M1053.98 1088.84h-64.503v-4.29h64.503v4.29ZM937.078 1327.64h-.281c-2.8 0-5.166-2.7-5.933-6.41h1.799c.736 2.28 2.327 3.85 4.171 3.85h.207c1.845 0 3.436-1.57 4.17-3.85h1.801c-.767 3.71-3.134 6.41-5.934 6.41Zm6.196-10.7h-1.629v-18.17h-9.415v18.17h-1.628v-53.72h12.672v53.72Z"/><path fill="#CBDDF8" d="M937.038 1325.08h-.207c-1.844 0-3.435-1.57-4.171-3.85h8.548c-.734 2.28-2.325 3.85-4.17 3.85Zm4.604-8.14h-9.415v-18.18h9.415v18.18ZM956 1327.64h-.281c-2.8 0-5.166-2.7-5.933-6.41h1.8c.735 2.28 2.326 3.85 4.17 3.85h.209c1.843 0 3.434-1.57 4.169-3.85h1.8c-.767 3.71-3.133 6.41-5.934 6.41Zm6.196-10.7h-1.628v-23.66h-9.415v23.66h-1.63v-53.72h12.673v53.72Z"/><path fill="#CBDDF8" d="M955.961 1325.08h-.209c-1.844 0-3.436-1.57-4.17-3.85h8.548c-.735 2.28-2.326 3.85-4.169 3.85Zm4.603-8.14h-9.416v-23.66h9.416v23.66ZM919.957 1327.64h-.281c-.579 0-1.141-.12-1.672-.34v-2.68c.528.3 1.105.46 1.708.46h.209c1.844 0 3.435-1.57 4.169-3.85h1.801c-.767 3.71-3.134 6.41-5.934 6.41Zm-5.516-4.19c-.609-1.39-.961-3.04-.961-4.82v-55.41h12.673v53.72h-1.629v-23.66h-9.416v23.66h-.667v6.51Z"/><path fill="#CBDDF8" d="M919.922 1325.08h-.209c-.603 0-1.18-.16-1.708-.46v-3.39h6.086c-.734 2.28-2.325 3.85-4.169 3.85Zm4.603-8.14h-9.416v-23.66h9.416v23.66ZM918.005 1331.65h-3.564v-14.71 4.29h3.564V1331.65ZM978.946 1331.65h-3.563v-10.42h3.563V1331.65Z"/><path fill="#CBDDF8" d="M978.946 1321.23h-64.505v-4.29H978.946v4.29ZM1033.81 1327.64h-.29c-2.8 0-5.17-2.7-5.93-6.41h1.8c.73 2.28 2.33 3.85 4.17 3.85h.21c1.84 0 3.43-1.57 4.16-3.85h1.81c-.77 3.71-3.13 6.41-5.93 6.41Zm6.19-10.7h-1.62v-18.17h-9.42v18.17h-1.63v-53.72H1040v53.72Z"/><path fill="#CBDDF8" d="M1033.76 1325.08h-.21c-1.83 0-3.43-1.57-4.17-3.85h8.55c-.73 2.28-2.32 3.85-4.17 3.85Zm4.61-8.14h-9.42v-18.18h9.42v18.18ZM1052.72 1327.64h-.27c-2.81 0-5.18-2.7-5.94-6.41h1.8c.73 2.28 2.33 3.85 4.17 3.85h.21c1.85 0 3.43-1.57 4.17-3.85h1.79c-.76 3.71-3.13 6.41-5.93 6.41Zm6.19-10.7h-1.62v-23.66h-9.41v23.66h-1.63v-53.72h12.66v53.72Z"/><path fill="#CBDDF8" d="M1052.69 1325.08h-.22c-1.83 0-3.43-1.57-4.16-3.85h8.54c-.73 2.28-2.32 3.85-4.16 3.85Zm4.6-8.14h-9.41v-23.66h9.41v23.66ZM1016.68 1327.64h-.28c-.58 0-1.14-.12-1.67-.34v-2.68c.52.3 1.1.46 1.71.46h.21c1.84 0 3.43-1.57 4.17-3.85h1.79c-.76 3.71-3.13 6.41-5.93 6.41Zm-5.52-4.19c-.61-1.39-.96-3.04-.96-4.82v-55.41h12.67v53.72h-1.62v-23.66h-9.41v23.66h-.68v6.51Z"/><path fill="#CBDDF8" d="M1016.65 1325.08h-.21c-.61 0-1.19-.16-1.71-.46v-3.39h6.08c-.73 2.28-2.33 3.85-4.16 3.85Zm4.6-8.14h-9.41v-23.66h9.41v23.66Z"/><path fill="#CBDDF8" d="M1014.73 1331.65h-3.57v-14.71 4.29h3.57V1331.65ZM1075.67 1331.65h-3.56v-10.42h3.56V1331.65Z"/><path fill="#CBDDF8" d="M1075.67 1321.23h-64.51v-4.29h64.51v4.29ZM988.833 1534.18H919.82v-73.15h69.013v73.15ZM1062.11 1534.18h-58.25v-105.92h58.25v105.92Z"/><path fill="#F5F9FD" d="M842.278 1130.41h-33.716v-31.16h33.716V1130.41ZM1008.11 1130.41h-33.708v-31.16h33.708V1130.41ZM905.86 1361.11h-33.715v-31.17h33.715v31.17ZM1085.76 1566.41h-33.72v-31.17h33.72v31.17Z"/><path fill="#2C3A64" d="M1963.86 1171.97c.06-2.42 1.36-28.58 28.76-29.94 0 0-13.48 2.34-15.8 10.95 0 0 9.17-10.64 16.64-7.22 7.47 3.43 11.86 22.45 11.91 28.71.04 6.26-4.11 26.44-8.85 28.14-1.79.66-3.86.49-5.74.02 1.25 2.86 2.49 6.03 3.67 9.55 10.94 32.62-.34 64.52-9.6 60.98-5.93-2.25-7.61 12.47-7.61 12.47l-57.69-67.86s21.19-63.74 44.31-45.8Z"/><path fill="#FFB27D" d="M1806.64 1579.92c4.82 6.21 17.62-15.09 19.39-17.92.09-.26.18-.41.18-.41l-3.89-15.77s-16.79-.93-19.57 3.1c-2.77 4.04-1.39 24.41 3.89 31Z"/><path fill="#FFB27D" d="m1822.32 1545.82 1.67 16.32s.74 0 2.04-.14c4.08-.41 14-1.21 25.22-2.96 10.71-1.54 22.69-3.84 32.04-7.14 5.4-1.9 9.93-4.15 12.84-6.75 12.15-10.78 32.08-43.8 45.06-76.82.38-.81.66-1.62.93-2.43 4.37-11.31 7.9-22.56 9.94-32.85 1.13-5.65 1.8-11.01 1.93-15.93.28-8.48-.37-15.77-1.57-22.1-1.58-8.36-4.18-14.96-6.87-19.96-.37-.8-.74-1.62-1.29-2.27-4.46-7.69-8.82-10.92-8.82-10.92-1.77-1.08-3.66-.26-5.61 2.09-.22.24-.44.54-.66.81l-.03.05c-.28.38-.56.79-.84 1.22v.14c-.72 1.09-1.45 2.39-2.21 3.86l-.01.03c-1.38 2.72-2.8 6.03-4.18 9.86-.09.13-.18.26-.18.4-.46 1.22-.92 2.56-1.48 4.05-.19.26-.27.65-.36.93-1.03 3.11-2.05 6.34-3.08 9.71-11.4 36.11-23.54 90.82-33.65 107.14-2.35 3.78-9.26 9.54-17.62 15.65v.02c-.16.1-.32.22-.48.33l-.05.05c-6.97 5.08-14.9 10.36-22.01 14.94-11.4 7.29-20.67 12.67-20.67 12.67Z"/><path fill="#AFCDFB" d="M1865.11 1518.43c.55 1.78 2.98 10.23 6.91 18.83 3.2 6.97 7.38 14.04 12.36 17.67 3.8-2.67 10.67-6.61 13.59-9.21 10.53-9.35 25.56-35.88 37.82-64.3 1.87-4.35 3.67-8.71 5.39-13.09.38-.81.66-1.62.94-2.43 4.36-11.31 7.89-22.56 9.94-32.85l-22.24-69.09-.06-.18c-.08.13-.29.47-.6.99l-.03.05c-.62 1.06-1.68 2.86-3.04 5.22l-.01.03c-1.39 2.72-2.81 6.03-4.18 9.86-.09.13-.18.26-.18.4-.46 1.22-.93 2.56-1.49 4.05-.19.26-.27.66-.36.93-1.02 3.11-2.05 6.34-3.07 9.71-11.4 36.11-23.55 90.82-33.66 107.14-2.35 3.78-9.26 9.54-17.61 15.65v.02c-.19.39-.33.6-.42.6Z"/><path fill="#95B3EF" d="M1872.03 1537.26c3.19 6.97 7.38 14.04 12.35 17.67 3.81-2.67 10.68-6.61 13.59-9.21 10.54-9.35 25.56-35.88 37.82-64.3-.46-8.95-32.65 36.96-36.74 45.28-3.08 6.28-19.01 9.39-27.02 10.56Z"/><path fill="#A8D29F" d="M1808.18 1487.61c.07 1.93.12 2.95.12 2.95s.21-.99.64-2.86c3.46-15.53 20.39-92.18 35.8-177.52 21.31-118.06 39.7-252.77 15.5-265.22-45.85-23.6-54.3 165.04-54.43 304.24-.08 68.58 1.88 125.14 2.37 138.41Z"/><path fill="#A8D29F" d="M1763.33 1334.31c16.56 53.41 30.93 98.36 39.19 125.27 3.58 11.74 6.01 20.03 6.95 24.12-.81-6.64-2.97-24.48-6.05-49.87v-.04c-4.64-38.04-11.36-92.98-18.74-152.64-17.92-145.03-39.71-317.817-44.8-342.53-8.98-43.574-50.37-136.34-78.22-55.616-18.1 52.448 51.73 290.316 101.67 451.306ZM1759.98 1410.52c17.12 26.26 31.52 47.56 39.55 59.34 4.4 6.44 6.89 10.04 6.89 10.04s-4.38-13.59-11.85-35.28c-7.06-20.51-16.86-48.23-28.32-78.58-37.56-99.45-92.84-226.91-127.12-219.55-39.12 8.4 58.78 168.81 120.85 264.03Z"/><path fill="#82B378" d="M1808.18 1487.61c.24.02.5.05.76.09 3.46-15.53 20.39-92.18 35.8-177.52-7.19 15.65-20.18 36.63-38.93 39.02-.08 68.58 1.88 125.14 2.37 138.41ZM1763.32 1334.31c16.57 53.41 30.94 98.36 39.19 125.27.63-7.51.91-16.23.91-25.75v-.04c-4.64-38.04-11.36-92.98-18.74-152.64-2.89 20.83-8.89 43.9-21.36 53.16ZM1759.98 1410.52c17.12 26.26 31.52 47.56 39.55 59.34-.77-6.77-2.58-15.54-4.96-25.24-7.06-20.51-16.86-48.23-28.32-78.58-.26 12.72-1.51 31.68-6.27 44.48Z"/><path fill="#A8D29F" d="M1809.48 1483.74c.23 1.86.34 2.84.34 2.84.17-.14.06-1.1-.34-2.84Z"/><path fill="#ED7D2B" d="M1786.48 1675.49c22.83 94 88.43 295.32 114.42 374.05 5.86 17.76 20.7 24.86 32.69 15.64 8.99-6.9 13.99-21.29 12.45-35.9-6.93-65.88-26.34-247.75-37.61-326.82-16.2-113.65-25.44-228.32-58.67-258.16-9.14-8.2-19.03-12.01-28.68-13.05-4.87-.52-9.72-.29-14.45.61-1.14.22-2.25.47-3.37.75-2.8.74-5.56 1.68-8.24 2.85-1.06.43-2.1.91-3.13 1.44-3.58 1.77-7.04 3.9-10.33 6.32-13.99 10.34-25.26 25.9-29.67 42.71-13.28 50.54 12.88 100.2 34.59 189.56Z"/><path fill="#B5453C" d="m1943.77 2133.18 12.26 6.63s53.22-107.28 59.76-201.68c1.18-16.85.79-33.17-1.74-48.24 0 0 .52-4.33 1.43-11.96.42-3.56.94-7.85 1.53-12.77 1.73-14.41 4.11-34.12 6.83-56.57 6.27-51.66 14.38-117.7 20.68-166.25l-3.31-1.53-35.71-16.76-7.38-34.08-26.61-10.18s-5.94 16.91-11.26 96.71c-.97 10.47-1.86 22.01-2.53 34.52-2.08 38.22-2.23 85.62 2.53 139.8 1.22 13.89 2.76 28.21 4.67 42.92 1.4 10.79 1.61 25.49 1.02 42.36-2.68 77.16-22.17 197.08-22.17 197.08Z"/><path fill="#93312C" d="m1957.73 1711.02 57.76 166.91c.41-3.56.93-7.85 1.53-12.77 1.72-14.41 4.1-34.12 6.83-56.57 6.26-51.66 14.38-117.7 20.68-166.25l-3.31-1.53-35.71-16.76-7.39-34.08-26.6-10.18s-5.95 16.91-11.26 96.71a869.82 869.82 0 0 0-2.53 34.52Z"/><path fill="#B5453C" d="m1983.14 1601.22 1.33-16.67c22.4 8.64 82.26-24.17 82.26-24.17s21.7 27.73 18.85 94.19c-1.4 32.44-3.94 170.28-6.59 211.08-.95 14.77-1.8 25.3-2.14 29.5l-.01.05c-.1 1.27.21 2.48.65 3.6 3.91 9.64 7.15 19.67 9.8 29.94 26.04 100.85-4.01 225.08-4.01 225.08l-7.8-4.57s-17.1-138.24-31-199.31c-2.36-10.35-4.62-18.5-6.69-23.36-6.04-14.17-11.65-37.32-16.74-64.87-9.62-52.08-17.36-119.81-22.52-172.1-.7.04-15.39-88.39-15.39-88.39Z"/><path fill="#FFB27D" d="M1966.13 1407.85c38.52 3.07 30.05-80.37 27.7-79.95-4.71-3.57-13.18-20.95-18.07-50.01l-1.65 1.11-27.79 18.99s2.95 13.15 5.13 25.72c1.7 9.84 2.92 19.36 1.9 22.01-2.19 1.3-3.5 2.11-3.5 2.11l-.01.04c-.28 1.04 6.02 59.16 16.29 59.98Z"/><path fill="#ED985F" d="M1946.32 1298.01s2.95 13.12 5.13 25.72c16.24-6.6 21.17-31.42 22.66-44.72l-27.79 19Z"/><path fill="#FFB27D" d="M1942.89 1311.9s38.87-13.06 32.9-48.12c-5.98-35.04-4.98-60.33-30.05-53.47-25.06 6.86-27.58 21.96-27.55 34.37.04 12.4 14.45 69.72 24.7 67.22Z"/><path fill="#2C3A64" d="M1916 1224.77c4.18-12.7 9.09-12.01 12.17-9.76 18.27-24.55 36.17-4.5 36.17-4.5 6.89 24.2 21.84 34.1 21.84 34.1s-5.97 8.88-23.27 8.69c-5.3-.06-10.61-3.59-15.44-8.46 9.32 13.67 20.26 21.97 20.26 21.97-21.66-6.02-36.19-42.47-37.67-46.34-1.83 3.94-5.35 12.32-5.64 19.41-.4 9.62 1.87 28.29-1.92 29.01 0 0-12.76-25.05-6.5-44.12Z"/><path fill="#233862" d="M2037.93 2163.08h61.72s1.47-13.67-1.75-24.05c-3.08-9.95-7.93-14.48-6.77-26.5-3.92 5.86-10.3 12.43-19.23 10.68-1.09 2.58-7.05 16.36-10.71 20.17-4.03 4.22-22.01 2.72-23.26 19.7ZM1905.43 2163.08h61.72s2.3-14.31-1.75-24.05c-3.59-8.61-2.21-13.51.44-20.64-2.79 1.67-6.41 3.17-10.39 2.85-3.08-.26-6.33-2.29-9.17-4.7-2.67 4.41-14.03 23.14-17.59 26.84-4.04 4.22-22.01 2.72-23.26 19.7Z"/><path fill="#AFCDFB" d="m1929.77 1363.78 10.11 197.53 6.2 120.94c9.51 4.31 18.58 7.67 27.16 10.25.58-10.14 2.83-22.26 2.83-22.26-.09 6.35 5.02 18.52 8.05 25.15 79.03 18.39 116.08-31.7 116.08-31.7-3.07-44.35-16.39-134.07-32.33-209.27-3.32-15.64-6.75-30.66-10.22-44.49-7.91-31.49-12.93-47.94-17.19-60.67-8.1-24.23-44.33-22.71-44.33-22.71-6.98 36.55-26.15 59.33-26.15 59.33-10.22-8.73-17.84-39.39-17.84-39.39l-22.37 17.29Z"/><path fill="#FFB27D" d="M1866.34 1570.67c5.11-.04 13.17-.54 17.83-3.14 0 0-14.88-.3-11.72-7.15.57-1.24 7.97-.29 16.23-.29 3.38 0 11.76 6.74 11.33 7.05 5.98-1.15 11.42-2.83 13.18-3.39.47-.13.65-.26.65-.26l5.28 22.36s-1.1.41-3.05.95c-4.92 1.75-15.03 5.52-24.58 10.92-13.35 7.68-23.17-1.87-27.63-8.63-2.82-4.29-5.05-9.97-4.9-14.08.17-4.53 4.27-4.32 7.38-4.34Z"/><path fill="#95B3EF" d="M1988.14 1319.8s6.57.64 7.98 6.74c0 0-8.58 50.2-26.14 59.34l18.16-66.08Z"/><path fill="#95B3EF" d="M1969.98 1385.88s-16.39-39.64-16.33-45.58c0 0-6.77 3.82-6.35 9.92 0 0 14.13 32.92 22.68 35.66ZM2014.98 1368.01c-.47 2.38-59.63 139.67-60.93 167.01-1.29 27.34 24.88 11.88 25.29 8.32.41-3.56 35.64-175.33 35.64-175.33Z"/><path fill="#95B3EF" d="m1939.88 1561.31 6.2 120.94c84.63-35.43 89.28-295.01 89.28-295.01l-52.3 137.26-42.72 35.88s-.17.32-.46.93Z"/><path fill="#FFB27D" d="m1902.25 1572.38 3.24 17.25s4.08-1.08 10.58-2.83c1.94-.54 3.05-.95 3.05-.95 5.2-1.47 11.41-3.49 18.18-5.66h.1c11.58-4.03 24.56-8.89 35.5-14.28.99-.51 1.95-1.01 2.89-1.5 6.47-3.48 12.07-7.12 16.03-10.77.47-.4.84-.81 1.3-1.35 10.85-11.46 23.73-45.13 33.75-81.26 1.39-4.98 2.7-9.97 3.98-14.82 4.64-18.05 8.36-35.85 10.58-51.22 1.39-9.17 2.32-17.53 2.5-24.39.09-2.42.19-4.72.09-6.88-.18-39.07-19.19-43.12-21.7-38.68-3.15 5.53-6.48 14.55-9.92 25.47-5.28 17.39-10.83 39.9-16.03 62.28-2.88 12.26-5.66 24.52-8.44 35.85-1.58 6.86-3.16 13.32-4.64 19.26-2.88 11.33-5.47 20.48-7.79 26.28-1.48 3.78-5.74 9.04-11.41 14.96-1.49 1.59-3.1 3.21-4.79 4.89-9.38 9.26-21.32 19.58-31.93 28.26a670.87 670.87 0 0 1-14.19 11.46c-6.58 5.26-10.93 8.63-10.93 8.63Z"/><path fill="#AFCDFB" d="M1959.3 1524.03s-.68 32.58 20.31 48.44c24.27-12.73 37.24-65.31 47.27-101.44 1.38-4.98 2.69-9.97 3.97-14.82 4.64-18.05 8.36-35.85 10.58-51.22 1.39-9.17 2.32-17.53 2.5-24.39.09-2.42.19-4.72.09-6.88-.18-39.07-19.19-43.12-21.69-38.68-3.16 5.53-6.49 14.55-9.93 25.47-5.28 17.39-10.83 39.9-16.03 62.28-2.88 12.26-5.66 24.52-8.44 35.85-1.58 6.86-3.16 13.32-4.64 19.27-2.88 11.32-5.47 20.48-7.79 26.27-1.48 3.78-5.74 9.04-11.41 14.96-1.49 1.59-3.1 3.21-4.79 4.89Z"/><path fill="#ABDDDA" d="M1865 1518.21c.02.14.06.22.12.22l-.07-.27c-.08-.2-.09-.2-.05.05Z"/><path fill="#ED7D2B" d="M1429.85 1870.38c17.39 5.8 35.99 8.86 55.47 8.83 73.78-.1 159.51-44.6 234.41-154.08 0 0 1.89-89.52-20.72-167.55h-.03c-15.69-54.13-46.7-122.48-93.96-138.43-30.45-10.28-54.53-1.28-74.66 14.13-34.25 26.13-57.1 70.75-80.45 70.59-23.01-.16-49.38 9.01-73.18 26.67-3.9 2.88-7.74 5.97-11.45 9.33l-.02.03c-1.56 1.37-3.08 2.76-4.59 4.23l-.1.1c-33.35 32.16-57.93 82.77-54.11 148.78.89 15.3 3.41 31.72 7.97 49.27 16.21 62.53 59.35 109.46 115.42 128.1Z"/><path fill="#FFB583" d="M1576.7 1447.35s44.28-7.32 58.02 35.14c13.74 42.46-15.86 56.2-36.84 43.24-20.98-12.98-44.76-65.43-21.18-78.38Z"/><path fill="#EA6C2D" d="M1306.46 1693c.88 15.31 4.53 31.2 7.98 49.28 24.32 127.61 75.74 194.78 118.06 225.15 46.77 33.55 143.92 34.97 186.15 12.53 69.31-36.82 103.53-131.82 101.08-254.85 0 0 1.87-89.5-20.73-167.53h-.02s-57.02 187.92-221.35 201.99c-74.64 6.38-131.41-27.59-171.17-66.57Z"/><path fill="#A8D29F" d="M1410.19 1431.06c6.37-35.51 34.73-39.15 59.86-54.84 25.16-15.71 59.91-65.98 59.91-65.98s-34.74-9.44-78.53-5.53c-43.78 3.91-41.24 126.35-41.24 126.35Z"/><path fill="#82B378" d="M1410.19 1431.06c2.75-38.13 22.85-86.55 41.24-97.54 18.38-10.99 78.53-23.28 78.53-23.28s-34.74-9.44-78.53-5.53c-43.78 3.91-41.24 126.35-41.24 126.35Z"/><path fill="#EA6C2D" d="M1449.91 1503.87c-23.01-.16-49.38 9.01-73.19 26.67 21.87-14.2 47.3-12.36 67.76-10.52 19.07 1.71 33.81 3.41 37.3-7.86 7.74-25.07 47.06-76.91 48.58-78.88-34.25 26.13-57.1 70.75-80.45 70.59Z"/><path fill="#95C38B" d="M1360.66 1544.13c1.24-1 2.77-2.39 4.59-4.23a138.37 138.37 0 0 0-4.59 4.23Z"/><path fill="#82B378" d="M1478.83 1514.15c-11.68-45.95-43.77-77.67-68.64-96.2-19.79-14.74-49.32-30.61-63.51-37.94-3-1.54-5.75 3-4.34 7.14l3.74 10.98c3.75 10.99 10.59 19.06 18.77 22.08 25.15 9.26 80.8 35.4 102.16 92 2.4 6.36 13.92 10.14 11.82 1.94Z"/><path fill="#FFB93E" d="M1586.8 2162.8c125.31-15.88 250.4-75.41 372.56-177.2 20.37-16.98 33.86-45.95 37.87-78.14 1.8-14.44 1.69-29.49-.52-44.43-9.24-30.83-65.89-67.69-125.51-71.79-16.39-1.11-33 .22-48.94 4.86-124.4 36.21-280.88 57.2-374.81 20.71-96.05-37.31-214.54-94.39-318.47-209.63l-.03-.03c-10.12-11.07-284.883-248.27-284.883-248.27-35.109-18.76-51.079 39.37-51.079 39.37s29.448 20.43 98.581 95.7c69.112 75.25 74.544 279.75 74.557 279.81-.777 58.73 18.019 116.14 52.474 151.87 53.17 55.15 131.6 123.8 230.14 173.87 110.86 56.33 224.61 77.63 338.06 63.3Z"/><path fill="#FFA412" d="M1822.26 1796.1c-124.4 36.21-280.88 57.2-374.81 20.71-96.04-37.31-214.54-94.39-318.47-209.63l-.03-.03c-2.11-1.83-84.68-72.14-98.28 71.36-13.3 140.45 465.79 380.95 840.53 112.73-16.39-1.11-33 .21-48.94 4.86Z"/><path fill="#FFB27D" d="M1258.46 1388.66s2.43-7.96 4.01-11.71c1.58-3.77 8.3-14.8 9.45-12.31 1.14 2.5 5.72 19.31 3.28 24.02-2.43 4.7.16 12.88-11.94 17.85l-4.8-17.85Z"/><path fill="#95B3EF" d="M1123.94 1338.46s61.97 75.17 86.13 68.22c18.9-5.44 47.89-19.89 47.89-19.89l5.8 21.56s-26.01 51.26-53.11 51.6c-42.39.53-73.69-26.67-73.69-26.67l-13.02-94.82Z"/><path fill="#163560" d="M1015.28 2131.41s1.8 42.17 7.41 42.77c.75.09 28.47.09 28.47.09l35.4-.29s-.24-12.41-10.58-15.02c-10.35-2.63-27.66-13.2-33.93-33.07-6.6-20.9-26.77 5.52-26.77 5.52Z"/><path fill="#F99746" d="M1013.23 2134.33s10.76 5.24 19.16 5.24c9.37 0 17.89-3.7 17.89-3.7s2.02-28.48 13.17-91.21c5.84-32.89 14.19-75.16 26.07-127.7 32.82-145.2 42.81-230.12 43.72-238.17.05-.42.07-.64.07-.64l-.11-.07-100.93-64.4s12.48 200.1-3.44 276.91c-2.23 10.73-4.14 23.24-5.78 36.8-10.05 83.42-9.82 206.94-9.82 206.94Z"/><path fill="#ED7D2B" d="M1063.45 2044.66c5.85-32.89 14.19-75.16 26.07-127.7 32.83-145.2 42.81-230.12 43.72-238.17-.01-.24-.02-.46-.04-.71l-100.92-64.4s12.47 200.1-3.45 276.91c-2.23 10.73 34.62 154.07 34.62 154.07Z"/><path fill="#163560" d="M1094.11 2131.41s1.8 42.17 7.42 42.77c.74.09 28.47.09 28.47.09l35.39-.29s-.23-12.41-10.57-15.02c-10.36-2.63-27.67-13.2-33.94-33.07-6.59-20.9-26.77 5.52-26.77 5.52Z"/><path fill="#F99746" d="M1151.33 1618.39s1.31 129.67-14.12 288.88c-15.44 159.21-10.21 226.8-10.21 226.8s-10.6 4.99-14.88 5.5c-10.91 1.29-22.09-3.72-22.09-3.72s-22.09-159.27-15.75-238.96c6.32-79.69-30.26-273.45-30.26-273.45l107.31-5.05Z"/><path fill="#FFB27D" d="m1079.76 1314.94 19.71 18.77 28.46-7.7c-.39-3.35-2.27-17.2-3.99-29.74l-.3-2.2c-1.46-10.66-2.73-19.83-2.73-19.83l-26.59-17.05-9.91-6.36c.02.22.77 11.84.87 13.53 1.86 30.12-5.52 50.58-5.52 50.58Z"/><path fill="#AFCDFB" d="M1157.21 1623.99c-.4 68.45-3.54 228.57-5.85 231.82-24.53 34.41-132.41-9.43-138.13-47.33-5.71-37.93 21.74-486.1 63.63-504.01 8.69-3.71 55.16 18.13 55.16 18.13s7.3 27.72 12.08 63.03c1.77 13.08 7.55 106.43 10.93 168.82.89 16.63 1.62 31.05 2.05 41.17.17 4.17.21 14.36.13 28.37Z"/><path fill="#FCA56B" d="M1087.28 1264.9c5.83 14.38 27.6 26.8 36.66 31.37l-.3-2.2c-1.46-10.66-2.73-19.83-2.73-19.83l-26.58-17.05c-5.88-.11-9.46 1.8-7.05 7.71Z"/><path fill="#FFB27D" d="M1130.93 1271.89s-42.82 19.42-50.74-19.53c-7.91-38.96-18.76-62.68 8.25-76.74 27.02-14.04 35.36-1.46 40.18 10.6 4.81 12.07 13.25 79.61 2.31 85.67Z"/><path fill="#163560" d="M1126.94 1182.47s-2.74 45.34-9.19 43.37c-6.45-1.97-12.29-3.43-11.35 10.23.95 13.66 9.89 29.44-9.99 31.87-19.88 2.41-48.45-72.1-42.99-86.2 15.75-40.7 96.29-48.92 73.52.73Z"/><path fill="#95B3EF" d="M1120.63 1305.47c-.55-.34-31.87-20.77-35.54-19.01-3.66 1.75-8.23 18.03-8.23 18.03l55.16 18.13s-4.33-12.85-11.39-17.15Z"/><path fill="#1F4D84" d="m1328.05 1527.67-165.29 255.36c-3.24 5.01-8.71 5.24-12.16.54l-10.95-14.99c-3.45-4.7-3.61-12.65-.37-17.66l165.29-255.35c3.24-5.01 8.72-5.26 12.15-.54l10.96 14.97c3.44 4.72 3.62 12.67.37 17.67Z"/><path fill="#163560" d="m1235.29 1670.97-72.53 112.06c-3.24 5.01-8.71 5.24-12.16.54l-10.95-14.99c-3.45-4.7-3.61-12.65-.37-17.66l72.54-112.05 23.47 32.1ZM1493.34 1494.98c-16.52 25.5-37.12 42.07-58.92 49.58-37.45 12.87-78.5-.95-108.63-42.15-21.95-30.02-34.28-69.35-36.81-109.8-2.96-47.38 7.51-96.33 31.72-133.71 28.33-43.79 68.72-61.24 106.63-51.67 6.54 1.63 13 4.07 19.32 7.32 15.03 7.74 29.22 20.03 41.58 36.92 47.68 65.19 49.96 174.22 5.11 243.51Zm10.15-260.72c-.7-1.02-1.43-2.03-2.15-3.04-55.37-75.7-142.49-71.86-194.58 8.63-35.04 54.11-45.32 129.13-31.44 195.47 6.75 32.31 19.24 62.55 37.36 87.34 55.37 75.72 142.5 71.85 194.6-8.63 51.41-79.41 49.49-203.75-3.79-279.77Z"/><path fill="#CFE1F9" d="M1366.43 1538.83c-14.68-7.75-28.53-19.88-40.64-36.42-21.95-30.02-34.27-69.35-36.8-109.8-2.97-47.38 7.51-96.33 31.71-133.71 5.12-7.93 10.66-14.99 16.49-21.19 20.68-21.96 45.24-33.02 69.84-33.02 3.15 0 6.3.17 9.45.54 3.63.42 7.25 1.08 10.85 2-21.81 7.5-42.4 24.05-58.91 49.55-44.85 69.3-42.56 178.33 5.11 243.52 5.7 7.78 11.78 14.59 18.16 20.43-5.06 2.91-10.07 6.18-14.97 9.81-3.49 2.57-6.94 5.33-10.29 8.29Z"/><path fill="#D0A692" d="M1407 1549.21c-13.73 0-27.48-3.44-40.57-10.38 3.36-2.96 6.8-5.72 10.3-8.29 5.5-3.57 11.24-6.13 17.06-7.94 12.7 11.1 26.49 18.41 40.62 21.97-9 3.08-18.2 4.64-27.41 4.64Z"/><path fill="#CE9E93" d="M1376.72 1530.54c4.89-3.63 9.91-6.9 14.97-9.81.69.63 1.39 1.26 2.1 1.87-5.83 1.81-11.56 4.37-17.07 7.94Z"/><path fill="#6582AD" d="M1407 1549.21c-29.13 0-58.31-15.5-81.2-46.8-47.68-65.19-49.96-174.2-5.1-243.51 5.13-7.93 10.66-14.99 16.5-21.19-5.84 6.2-11.37 13.26-16.49 21.19-24.21 37.38-34.68 86.33-31.72 133.71 2.53 40.45 14.85 79.78 36.81 109.8 12.1 16.54 25.95 28.67 40.63 36.42 13.09 6.94 26.84 10.38 40.57 10.38 9.21 0 18.41-1.56 27.41-4.64h.02c-9 3.1-18.22 4.64-27.43 4.64Zm20.34-342v.02c-3.61-.92-7.23-1.58-10.86-2 3.63.42 7.25 1.08 10.86 1.98Z"/><path fill="#DEEBFD" d="M1391.69 1520.73c-6.38-5.84-12.47-12.65-18.16-20.43-47.67-65.2-49.97-174.22-5.11-243.52 16.51-25.5 37.1-42.05 58.91-49.55 2.69.67 5.37 1.48 8.04 2.42 19.18 6.84 37.45 20.76 52.85 41.83 11.93 16.28 21.01 35.32 27.22 55.78-10.16-1.71-25.02-3.5-42.42-3.5-6.84 0-14.08.27-21.59.95-34.92 3.12-40.38 81.65-41.15 113.3-.03-.01-.06-.04-.09-.06-19.79-14.74-49.33-30.61-63.51-37.94-.41-.21-.82-.32-1.21-.32-2.46 0-4.35 3.89-3.14 7.46l3.75 10.98c3.75 10.99 10.59 19.06 18.77 22.08 23.33 8.59 72.89 31.71 97 80.16-3.97 2.23-7.87 3.5-11.81 3.5h-.73c-18.12 0-38.29 5.75-57.62 16.86Zm80.03-27.65c-14.01-33.12-38.26-57.25-58.57-72.89 9.76-25.61 34.61-30.05 56.9-43.97 16.69-10.42 37.61-36.06 49.79-52.13 3.79 17.11 5.69 34.93 5.7 52.77a248.67 248.67 0 0 1-3.09 39.27c-1.63 10.23-3.92 20.29-6.87 30.04-16.8 16.35-30.79 35.32-43.86 46.91Z"/><path fill="#DFB195" d="M1434.41 1544.57c-14.13-3.56-27.92-10.87-40.62-21.97 9.48-2.92 19.2-3.82 28.56-3.82 7.73 0 15.21.61 22.13 1.24 6.92.61 13.27 1.24 18.72 1.24 3.66 0 6.91-.29 9.66-1.04-1.3 1.27-2.63 2.5-3.95 3.7-10.81 9.61-22.46 16.5-34.48 20.64-.01 0-.01 0-.02.01Zm48.24-34.98c4.87-13.35 17.05-32.78 27.9-48.69-2.41 6.25-5.1 12.33-8.09 18.22l-.02.02c-.01.02-.01.03-.02.05a170.21 170.21 0 0 1-9.08 15.79 150.37 150.37 0 0 1-10.69 14.61Z"/><path fill="#BDDBCF" d="M1413.15 1420.19c-.53-.4-1.05-.81-1.58-1.2 5.5-35.65 23.37-75.6 39.86-85.47 13-7.78 46.97-16.22 65.68-20.48 1 3.65 1.91 7.33 2.73 11.05-12.18 16.07-33.1 41.71-49.79 52.13-22.29 13.92-47.14 18.36-56.9 43.97Z"/><path fill="#AACCBC" d="M1411.58 1418.99c-.44-.32-.87-.66-1.3-.98.77-31.65 6.23-110.18 41.15-113.3 7.51-.68 14.75-.95 21.59-.95 17.41 0 32.26 1.79 42.43 3.5.58 1.91 1.13 3.84 1.66 5.78-18.71 4.26-52.67 12.7-65.68 20.48-16.49 9.87-34.36 49.82-39.85 85.47Z"/><path fill="#DEA896" d="M1393.79 1522.6c-.71-.61-1.41-1.24-2.1-1.87 19.33-11.11 39.5-16.86 57.62-16.86h.73c3.94 0 7.84-1.27 11.81-3.5 1.88 3.8 3.61 7.74 5.16 11.84 1.18 3.14 4.58 5.65 7.48 6.41-.55.54-1.09 1.08-1.63 1.6-2.75.75-6.01 1.04-9.66 1.04-5.46 0-11.8-.63-18.72-1.24-6.92-.63-14.41-1.24-22.14-1.24-9.36 0-19.07.9-28.55 3.82Zm85-8.55c-1.86-7.35-4.25-14.34-7.07-20.96 13.07-11.59 27.06-30.57 43.86-46.92-1.5 4.99-3.19 9.91-5.04 14.73-10.85 15.91-23.03 35.34-27.9 48.7a111.81 111.81 0 0 1-3.85 4.45Z"/><path fill="#AACCBC" d="M1474.49 1518.62c-2.9-.76-6.3-3.27-7.48-6.41-1.55-4.1-3.28-8.05-5.16-11.84-24.11-48.45-73.67-71.57-97-80.16-8.18-3.02-15.02-11.09-18.77-22.08l-3.74-10.98c-1.22-3.57.67-7.46 3.13-7.46.39 0 .8.1 1.21.32 14.19 7.33 43.72 23.2 63.51 37.94.03.02.06.05.09.06.43.32.86.66 1.29.98.53.39 1.05.8 1.58 1.2 20.31 15.64 44.56 39.77 58.57 72.89a144.64 144.64 0 0 1 7.08 20.97 157.4 157.4 0 0 1-4.31 4.57Z"/><path fill="#748DB0" d="M1434.42 1544.57h-.02c.01-.01.01-.01.02-.01 12.02-4.14 23.68-11.03 34.48-20.64-10.8 9.61-22.46 16.5-34.48 20.65Zm68-65.38c.01-.02.01-.03.02-.05 0 .02-.01.03-.02.05Zm.04-.07a198.65 198.65 0 0 0 8.08-18.22c1.85-4.82 3.54-9.74 5.04-14.73 2.95-9.75 5.24-19.81 6.87-30.04-3.56 22.27-10.22 43.75-19.99 62.99Zm-67.09-269.47c-2.66-.94-5.35-1.75-8.04-2.42v-.02c2.69.69 5.38 1.49 8.04 2.44Z"/><path fill="#95B3EF" d="M1157.22 1623.99c-102.36-100.75-94.02-239.32-94.02-239.32 39.94 32.76 79.53 110.27 91.84 169.78.88 16.63 1.62 31.05 2.05 41.17.17 4.17.21 14.36.13 28.37Z"/><path fill="#FFB27D" d="M1247.43 1573.01c6.83-2.3 11.41-9.8 12.37-11.1 0 0 2.9.28-.48 9.32-.29.74-.92 2.68-1.39 4.05-.19.57.08 1.21.5 1.26 3.95.44 7.91-1.83 15.49.47 1.04.32 1.35 3.97 1.31 5.51-.07 2.63.06 5.58-2.03 9.61-1.23 2.35-4.64 4.87-12.24 9.31-2.89 1.69-11.17.42-18.92-3.46l-6.2-4.16 1.93-16.74 1.56.48c2.47.74 5.52-3.63 8.1-4.55Z"/><path fill="#AFCDFB" d="M1093.23 1322.62s-86.96 24.06 25.58 207.08c18 29.26 115.24 67.38 115.24 67.38s9.86-12.21 4.89-22.07c0 0-66.95-70.67-81.68-81.91-6.63-5.05-25.73-112.78-36.53-138.73-10.8-25.94-27.5-31.75-27.5-31.75Z"/><path fill="#FFB27D" d="M1260.82 1390.87s2.85-7.89 3.4-12.07c.55-4.16 4.14-16.32 5.61-18.45.6-.86 2.53.25 2.77 3.93.1 1.6-.45 4.52-1.4 8-1.56 5.65-1.3 13.33-1.84 15.88-1.34 6.36-8.54 2.71-8.54 2.71Z"/><path fill="#82B378" d="M2909.95 2163.08h-71.91c-3.86-4.75 2.66-15.55 9.47-16.27 2.96-.32 6.71.57 10.98 1.89.99-19.11 6.63-104.99 27.94-101.53 23.95 3.86 0 37.82-6.77 57.93-5.01 14.88-10.31 36.24-12.73 46.31 1.95.62 3.96 1.21 6.02 1.77 3.17-14.17 14.98-61.82 30-59.05 17.63 3.26 10.54 22.37-1.95 33.71-9.17 8.33-20.43 20.19-25.78 25.91 4.54 1.08 9.27 1.79 14.06 1.63 12.32-.42 18.34 4.86 20.67 7.7ZM939.044 2163.08s-34.24-136.68-58.281-125.03c-24.042 11.65 58.281 125.03 58.281 125.03ZM925.937 2163.08c-2.914 0-57.553-82.42-61.195-60.85-3.643 21.59 61.195 60.85 61.195 60.85Z"/><path fill="#82B378" d="M984.215 2163.08s-22.596-30.12-51.207-22.28c-28.61 7.84-40.829 16.42-58.799 10.48-17.97-5.94-27.15 11.8-27.15 11.8h137.156Z"/><path fill="#C0D8FB" d="m1485.62 932.344-129.29-.146c-5.93 0-10.78-7.065-10.78-15.692l.09-181.372c.01-8.627 4.87-15.678 10.8-15.678l129.29.146c5.94 0 10.79 7.065 10.78 15.692l-.09 181.372c0 8.627-4.86 15.678-10.8 15.678Z"/><path fill="#DFEBFD" d="m1480.03 923.117-118.09-.131c-5.42 0-9.85-6.452-9.85-14.335l.09-165.651c0-7.882 4.44-14.319 9.86-14.319l118.09.131c5.42 0 9.86 6.452 9.85 14.334l-.08 165.651c0 7.883-4.44 14.32-9.87 14.32Z"/><path fill="#B7D3F3" d="M1417.96 748.155c0-2.497 1.39-4.54 3.12-4.54 1.73.014 3.12 2.044 3.12 4.554 0 2.511-1.4 4.54-3.12 4.54-1.73 0-3.12-2.044-3.12-4.554ZM1443.16 754.604c.84-2.189 2.74-2.977 4.25-1.751 1.52 1.211 2.06 3.985 1.21 6.174-.84 2.19-2.74 2.978-4.24 1.752-1.51-1.212-2.05-3.985-1.22-6.175ZM1464.76 779.583c1.45-1.358 3.38-.759 4.31 1.357.94 2.102.53 4.919-.93 6.277-1.45 1.358-3.38.744-4.32-1.358-.93-2.116-.51-4.919.94-6.276ZM1475.44 818.206c1.73 0 3.13 2.029 3.13 4.539 0 2.511-1.41 4.54-3.14 4.54-1.73 0-3.12-2.044-3.12-4.54 0-2.51 1.4-4.539 3.13-4.539ZM1469.95 863.005c1.22 1.781 1.22 4.656 0 6.423-1.23 1.781-3.21 1.766-4.42 0-1.22-1.781-1.22-4.657 0-6.423 1.22-1.781 3.2-1.781 4.42 0ZM1450.31 891.586c1.22 1.781 1.22 4.642 0 6.423-1.22 1.767-3.2 1.767-4.42 0-1.22-1.781-1.22-4.656 0-6.437 1.22-1.767 3.2-1.766 4.42.014ZM1417.87 906.285c0-2.51 1.4-4.539 3.12-4.539 1.73.014 3.13 2.043 3.13 4.554s-1.41 4.54-3.13 4.54-3.12-2.044-3.12-4.555ZM1398.88 754.562c-.84-2.19-2.74-2.993-4.25-1.767-1.51 1.212-2.06 3.971-1.21 6.175.83 2.19 2.73 2.978 4.25 1.766 1.5-1.211 2.04-3.985 1.21-6.174ZM1377.26 779.479c-1.45-1.358-3.38-.759-4.32 1.357-.93 2.102-.52 4.92.94 6.277 1.44 1.358 3.38.759 4.31-1.343.94-2.117.53-4.919-.93-6.291ZM1366.55 818.089c-1.73 0-3.13 2.029-3.13 4.539-.01 2.511 1.4 4.54 3.13 4.54 1.71 0 3.12-2.029 3.12-4.54 0-2.51-1.4-4.539-3.12-4.539ZM1371.99 862.904c-1.23 1.766-1.23 4.642-.01 6.422 1.22 1.781 3.2 1.781 4.42 0 1.22-1.766 1.22-4.642.01-6.422-1.23-1.767-3.21-1.781-4.42 0ZM1391.59 891.515c-1.21 1.781-1.21 4.657 0 6.438 1.22 1.766 3.19 1.766 4.42 0 1.23-1.781 1.23-4.657 0-6.423-1.22-1.781-3.19-1.781-4.42-.015ZM1420.19 822.687c0-2.511 1.41-4.54 3.13-4.54s3.13 2.029 3.13 4.54c-.01 2.511-1.41 4.54-3.14 4.54-1.72 0-3.12-2.029-3.12-4.54Z"/><path fill="#B7D3F3" d="M1423.74 822.688h-.85l.03-56.74h.85l-.03 56.74Z"/><path fill="#B7D3F3" d="m1423.72 824.074-1.58-2.934 20.71-23.589 1.58 2.934-20.71 23.589Z"/><path fill="#CDE3FD" d="M715.219 1683.95c-6.64 0-12.024-7.83-12.024-17.49v-110.37h24.049v110.37c0 9.66-5.383 17.49-12.025 17.49Z"/><path fill="#F1A34F" d="M715.219 1678.87c-4.934 0-8.934-5.81-8.934-12.98v-39.27h17.868v39.27c0 7.17-4 12.98-8.934 12.98Z"/><path fill="#CDE3FD" d="M751.127 1683.95c-6.642 0-12.025-7.83-12.025-17.49v-110.37h24.049v110.37c0 9.66-5.383 17.49-12.024 17.49Z"/><path fill="#ABDDDA" d="M751.118 1678.87c-4.934 0-8.934-5.81-8.934-12.98v-50.16h17.869v50.16c0 7.17-4 12.98-8.935 12.98Z"/><path fill="#CDE3FD" d="M682.731 1683.95c-6.641 0-12.024-7.83-12.024-17.49v-110.37h24.05v110.37c0 9.66-5.384 17.49-12.026 17.49Z"/><path fill="#FFB93E" d="M682.734 1678.87c-4.933 0-8.933-5.81-8.933-12.98v-50.16h17.868v50.16c0 7.17-3.999 12.98-8.935 12.98Z"/><path fill="#77A4E5" d="M662.489 1694.72h-6.762v-29.18h6.762v29.18ZM778.133 1694.72h-6.762v-29.18h6.762v29.18Z"/><path fill="#77A4E5" d="M778.14 1674.06H655.727v-8.52H778.14v8.52Z"/><path fill="#233862" d="M497.887 1288.23s-14.688-13.13-30.289-4.18c-15.602 8.95-15.602 61.41-32.009 76.91-16.408 15.51-32.594 54.63-22.245 78.87 10.349 24.26 30.663 28.53 39.857 11.97 9.194-16.55 20.602-2.89 18.551-26.27-2.051-23.39 2.689-113.93 16.077-109.53 13.39 4.41 10.058-27.77 10.058-27.77Z"/><path fill="#233862" d="M545.87 1329.99s-15.629-50.71-47.983-41.76c-32.355 8.95-28.145 94.75-15.483 108.49 12.663 13.73 63.466-66.73 63.466-66.73Z"/><path fill="#77A4E5" d="m494.181 2162.9.355-.02c2.894-.07 5.13-3.51 4.858-7.47l-19.314-280.34-16.853 2.19 27.732 281.84c.217 2.21 1.602 3.84 3.222 3.8ZM308.212 2162.9l-.354-.02c-2.895-.07-5.131-3.51-4.859-7.47l19.313-280.34 16.854 2.19-27.733 281.84c-.216 2.21-1.601 3.84-3.221 3.8ZM313.961 1834.29l-34.282-246.06c-4.4-33.31 14.593-63.77 39.256-62.96l66.117 2.19c22.808.76 42.639 22.95 48.978 54.8l50.157 252.03H313.961Z"/><path fill="#77A4E5" d="m334.7 1834.29-34.282-246.06c-4.4-33.31 14.593-63.77 39.255-62.96l66.117 2.19c22.808.76 42.639 22.95 48.978 54.8l50.157 252.03H334.7ZM323.516 1879.17h261.585c5.255 0 9.555-6.25 9.555-13.89v-17.1c0-7.63-4.3-13.89-9.555-13.89h-271.14v30.99c0 7.64 4.301 13.89 9.555 13.89Z"/><path fill="#77A4E5" d="M446.268 1879.17h166.754c4.233 0 7.697-5.03 7.697-11.19v-22.5c0-6.16-3.464-11.19-7.697-11.19H446.268c-4.234 0-7.698 5.03-7.698 11.19v22.5c0 6.16 3.464 11.19 7.698 11.19Z"/><path fill="#ABDDDA" d="m445.066 1581.49 27.786 102.18s26.773 45.86 48.291 31.08l-68.09-192.18-7.987 58.92Z"/><path fill="#FFB27D" d="M633.856 2142.93c-.8 11.28 10.006 14.2 22.539 15.31 12.532 1.1 8.715 4.78 25.866 9.56 17.151 4.79 24.088-1.92 25.356-5.28 1.13-2.98-6.825-7.8-15.3-13.21-1.067-.69-2.135-1.37-3.203-2.07-9.537-6.28-14.822-18.86-22.207-30.56-6.996-11.08-13.456-46.3-13.456-46.3l-23.299-7.62s6.324 31.72 8.501 45.25c1.281 7.96-.761 16.8-2.564 23.53-.972 3.65-1.954 7.41-2.233 11.39Z"/><path fill="#0F2549" d="M654.692 2160.71c12.532 1.09 10.42 2.31 27.57 7.09 17.151 4.79 24.088-1.92 25.356-5.28 1.13-2.98-6.825-7.8-15.3-13.21l-.134.2s-12.127 5.78-26.033.05c-11.334-4.66-22.253-14.7-30.061-18.02-.972 3.65-1.954 7.41-2.232 11.39-.801 11.28 8.301 16.67 20.834 17.78Z"/><path fill="#ED7D2B" d="M598.559 1750.61c-12.536-12.8-93.871-68.93-136.192-75.52l-48.371-25.7s-39.816 85.71-40.131 151.28c-.147 30.58 9.542 33.61 9.544 33.61 0 0 149.952 1.62 156.526 2.62 10.758 1.6 24.95 40.56 28.497 76.05 3.547 35.47 66.076 179.78 66.076 179.78s13.04 6.07 19.072 5.56c6.485-.55 9.487-3.71 9.487-3.71s-36.235-315.12-64.508-343.97Z"/><path fill="#FFB27D" d="M595.071 2142.93c-.8 11.28 10.006 14.2 22.539 15.31 12.533 1.1 8.715 4.78 25.866 9.56 17.15 4.79 24.087-1.92 25.357-5.28 1.13-2.98-6.826-7.8-15.301-13.21-1.067-.69-2.134-1.37-3.202-2.07-9.537-6.28-14.823-18.86-22.208-30.56-6.996-11.08-13.455-46.3-13.455-46.3l-23.3-7.62s6.324 31.72 8.501 45.25c1.28 7.96-.76 16.8-2.564 23.53-.972 3.65-1.954 7.41-2.233 11.39Z"/><path fill="#233862" d="M617.611 2158.24c12.534 1.1 8.716 4.78 25.867 9.56 17.15 4.79 24.784-1.65 26.053-5 1.13-2.98-5.759-8.47-15.997-13.49l-.135.2s-12.126 5.78-26.031.05c-11.335-4.66-22.255-14.7-30.062-18.02-.972 3.65-1.954 7.4-2.233 11.39-.8 11.28 10.006 14.2 22.538 15.31Z"/><path fill="#F99746" d="M559.432 1750.61c-10.886-11.11-29.164-17.25-68.999-36.11-9.593-4.54-102.855-71.73-102.855-71.73s-30.336 77.22-30.651 142.79c-.005.95.007 1.9.036 2.83.776 25.82 15.874 45.88 33.659 46.14 33.323.48 105.149 1.61 110.185 2.37 10.759 1.6 24.951 40.56 28.498 76.05 3.547 35.47 66.075 179.78 66.075 179.78s13.041 6.07 19.072 5.56c6.485-.55 9.487-3.71 9.487-3.71s-36.234-315.12-64.507-343.97Z"/><path fill="#FFB27D" d="M500.6 1478.31c.117.18-16.654 2.6-25.959-7.62-8.758-9.6-12.393-35.47-12.246-35.44 4.492 1.21 10.28-2.77 20.009-38.54l1.733 1.62 29.134 27.48s-4.698 14.05-8.465 27.67c-3.168 11.43-5.673 22.57-4.206 24.83Z"/><path fill="#ED975D" d="M513.267 1425.81s-.708 3.02-5.095 16.08c-16.479-15.51-22.395-28.14-25.672-40.86l30.767 24.78Z"/><path fill="#FFB27D" d="M519.637 1431.02s-44.484-10.86-39.4-51.02c5.083-40.17 2.765-68.61 31.381-63.37 28.617 5.24 32.18 22.03 32.727 36.04.546 14-13.005 80.14-24.708 78.35Z"/><path fill="#233862" d="M543.22 1330.47s-29.421 34.45-48.942 36.39c-19.521 1.96-26.68-7.47-26.68-7.47s11.783-13.29 19.194-35.3c2.184-6.48 6.583-10.79 11.544-11.17 13.933-1.08 40.287-.59 44.884 17.55Z"/><path fill="#233862" d="M525.414 1326.4s9.263 13.91 12.049 24.03c2.689 9.76 3.036 32.83.511 41.86 0 0 15.87-41.43 7.896-62.3-8.455-22.13-20.456-3.59-20.456-3.59Z"/><path fill="#F9DDBF" d="M518.78 1583.06c-25.313 126.3 13.565 103.66 1.742 111.88-2.848 1.97-21.173 36.99-71.398 35.06-27.8-1.07-65.033-19.53-65.461-27.43-1.464-27.34 16.503-87.15 18.562-127.27.23-4.27.395-8.92.519-14 .657-27.87-1.837-38.44 21.346-74.35 21.016-32.52 43.111-56.94 44.19-55.31 30.488 46.02 36.725 20.16 36.725 20.16s26.125 69.65 13.775 131.26Z"/><path fill="#AFCDFB" d="M505.006 1451.8s35.556 24.1 35.517 49.33c-.04 25.22 12.638 216.55 12.638 216.55s-49.5-13.08-55.882-29.4c-6.384-16.32 8.452-163.59 8.452-163.59l-.725-72.89Z"/><path fill="#95B3EF" d="m507.469 1444.24-2.465 7.56c.228 22.88-4.995 91.21-5.656 145.42l19.97-70.02-3.979-8.15 3.866-9.48-8.034-53.12-3.702-12.21Z"/><path fill="#AFCDFB" d="m467.334 1592.7-.779 32.96-.252 11.03-5.177 220.04c-62.832 4.97-117.2-13.5-117.2-13.5s27.006-181.01 29.938-202.26c3.86-27.9 20.885-143.36 20.885-143.36l8.173 52.71 35.837-82.46 19.171-7.9 9.404 132.74Z"/><path fill="#233862" d="m586.309 1587.79 26.187-17.54L568.672 1432l-26.188 17.53 43.825 138.26Z"/><path fill="#233862" d="m564.729 1489.83 12.513-8.38-20.94-66.07-12.513 8.38 20.94 66.07Z"/><path fill="#233862" d="m494.293 1672.69 22.881-5.12c-.064-.62-6.408-62.79 4.689-111.32 11.143-48.73 49.068-57.69 49.451-57.78l-3.5-33.25c-2.132.47-52.361 12.38-67.919 80.42-12.892 56.37-5.905 124.19-5.602 127.05Z"/><path fill="#233862" d="M458.465 1697.05h98.978v-8.14c0-16.64-9.282-30.13-20.73-30.13h-53.32c-13.767 0-24.928 16.22-24.928 36.23v2.04ZM507.953 1626.2h107.11v-11.23h-107.11v11.23Z"/><path fill="#233862" d="M540.777 1697.05h74.28v-19.13h-74.28v19.13Z"/><path fill="#233862" d="M569.719 1677.92h23.473v-7.8h-23.473v7.8Z"/><path fill="#FFB27D" d="M539.754 1663.3s5.737 10.75 7.617 12.03c1.881 1.29 3.095.97 3.095.97l-3.864-10.12-6.848-2.88ZM538.43 1652.23l16.677 11.76s-.709 1.69-2.763 1.56c-2.053-.14-7.233-2.89-7.233-2.89l-6.681-10.43Z"/><path fill="#FFB27D" d="M506.637 1657.55s27.377-8.86 31.794-5.32c4.417 3.53 15.213 16.39 16.565 20.86 1.352 4.48-9.834-3.39-13.474-4.82-2.355-.91-8.558 2.22-11.628 3.71-12.921 6.26-20.838 3.03-20.838 3.03l-2.419-17.46Z"/><path fill="#95B3EF" d="M383.668 1602.27s6.066 132.72 80.192 138.18l3.471-93.23-83.663-44.95Z"/><path fill="#1C468A" d="M803.825 1710.4H416.121v-15.9h387.704v15.9Z"/><path fill="#1C468A" d="M802.152 2171.35c-.801-1.65-2.469-5.09-12.94-236.01-5.156-113.73-9.957-228.07-10.005-229.21l4.097-.36c5.228 124.63 19.437 450.69 22.363 462.56-.003 0-.046-.18-.158-.41l-3.357 3.43ZM412.794 2168.84l-3.356-3.43c-.113.23-.156.41-.157.41 2.935-11.83 17.657-336.11 23.081-460.05l4.097.36c-.051 1.14-5.031 114.86-10.366 227.97-10.831 229.65-12.498 233.09-13.299 234.74Z"/><path fill="#95B3EF" d="m466.548 1625.66-.252 11.03c-3.252.81-11.223 1.14-25.998-7.34-20.329-11.65-5.888-88.42-4.318-60.4 1.982 35.37 24.006 52.4 30.568 56.71Z"/><path fill="#AFCDFB" d="M466.469 1428.74s-40.972 8.96-53.83 23.06c-24.54 26.92-38.316 169.83-22.448 197.59 17.871 31.26 118.86 25.62 118.86 25.62s-.409-7.41-2.42-17.46c-2.009-10.04-66.334-41.93-68.311-46.98-1.976-5.06-3.751-76.26-1.5-88.14 2.251-11.9 29.649-93.69 29.649-93.69Z"/><path fill="#95B3EF" d="m472.867 1425.19-5.54 167.51-21.878-83.69 4.796-8.46s-3.335-18.4-2.982-20.27c.353-1.85 11.555-50.78 11.555-50.78l14.049-4.31Z"/><path fill="#FFB27D" d="M2544.56 1443.94s-.6-1.92-2.76-3.81c-1.6-2.37-5.71-10.79-6.2-12.7-.93-3.64-3.53-.46-3.98 3.16-.15 1.21 1.65 4.72 1.9 5.97-5.23-.8-1.65-5.94-12.62-1.78 0 0-3.76 19.68 3.56 26.64 7.33 6.97 16.26 8.43 21.57 3.07l7.14-2.15.8-18.1-9.41-.3Z"/><path fill="#95B3EF" d="M2704.69 1260.75s60.49 81.24-25.39 173.87c-23.19 25.02-129.28 34.47-129.28 34.47s-3.75-18.91 3.08-27.43c0 0 74.86-38.32 88.99-42.7 7.82-2.42.79-103.03 16.38-126.22 15.58-23.2 46.22-11.99 46.22-11.99Z"/><path fill="#163560" d="M2771.9 2119.08s-1.92 45.09-7.92 45.73c-.8.09-30.44.09-30.44.09l-37.84-.32s.25-13.26 11.3-16.06c11.06-2.8 29.58-14.1 36.28-35.34 7.05-22.35 28.62 5.9 28.62 5.9Z"/><path fill="#F99746" d="M2774.08 2122.2s-11.51 5.59-20.49 5.59c-10.01 0-19.12-3.95-19.12-3.95s-2.16-30.44-14.08-97.52c-6.25-35.15-15.17-80.34-27.86-136.51-35.1-155.21-45.77-246.01-46.74-254.62-.06-.45-.08-.67-.08-.67l.12-.08 107.89-68.85s-13.33 213.92 3.69 296.03c2.38 11.48 4.42 24.85 6.18 39.34 10.73 89.19 10.49 221.24 10.49 221.24Z"/><path fill="#ED7D2B" d="m2763.59 1900.96-43.2 125.37c-6.25-35.15-15.16-80.35-27.86-136.52-35.1-155.21-45.77-246.01-46.74-254.62.01-.25.02-.5.04-.74l107.9-68.86s-13.34 213.92 3.68 296.03c2.38 11.48 4.42 24.85 6.18 39.34Z"/><path fill="#163560" d="M2687.62 2119.08s-1.92 45.09-7.93 45.73c-.79.09-30.44.09-30.44.09l-37.83-.32s.25-13.26 11.31-16.06c11.05-2.8 29.56-14.1 36.26-35.34 7.05-22.35 28.63 5.9 28.63 5.9Z"/><path fill="#F99746" d="M2626.44 1570.63s-1.4 138.63 15.1 308.83c16.51 170.21 10.92 242.45 10.92 242.45s11.33 5.34 15.9 5.88c11.67 1.39 23.62-3.97 23.62-3.97s23.62-170.26 16.84-255.45c-6.77-85.2 32.35-292.34 32.35-292.34l-114.73-5.4Z"/><path fill="#FFB27D" d="m2704.98 1243-13.26 31.11-29.98 11.18c-.67-3.5-3.14-18.14-5.37-31.43-.13-.77-.26-1.56-.39-2.33-1.89-11.3-3.5-21.01-3.5-21.01l20.48-33.95 7.64-12.67c.04.25 2.92 11.98 3.35 13.69 7.55 30.42 21.03 45.41 21.03 45.41Z"/><path fill="#AFCDFB" d="M2617.4 1580.62c.44 73.17 3.79 244.34 6.26 247.82 26.22 36.79 141.55-10.08 147.67-50.6 6.1-40.54-23.23-519.67-68.03-538.81-9.29-3.95-47.32 12.5-47.32 12.5s-19.44 36.52-24.56 74.27c-1.88 13.98-8.07 113.79-11.69 180.47-.94 17.78-1.72 33.19-2.19 44.01-.18 4.46-.23 15.35-.14 30.34Z"/><path fill="#FCA56B" d="M2682.19 1199.42c-1.21 17.76-18.44 44.07-25.82 54.45-.13-.78-.26-1.57-.39-2.34-1.89-11.3-3.5-21.01-3.5-21.01l20.48-33.95c5.66-3.97 9.72-4.47 9.23 2.85Z"/><path fill="#FFB27D" d="M2642.03 1234.81s47.55-9.25 43.13-52.2c-4.42-42.93-1.27-73.04-31.81-68.95-30.53 4.08-34.73 21.75-35.65 36.61-.93 14.86 11.86 85.84 24.33 84.54Z"/><path fill="#163560" d="M2618.16 1145.52s16.71 42.14 22.36 36.01c5.63-6.13 10.85-11.38 14.18 2.49 3.32 13.86 18.13 27.56 27.53 21.94 19.71-11.81 16.63-99.24 6.96-109.34-27.9-29.12-108.5 15.71-71.03 48.9Z"/><path fill="#95B3EF" d="M2656.15 1242.42c.59-.35 37.55-24.57 41.47-22.7 3.92 1.88 7.36 20.26 7.36 20.26s-14.11 3.14-26.25 9.26c-16.85 8.46-31.96 22.43-31.96 22.43s1.85-24.64 9.38-29.25ZM2620.16 1576.62c109.42-107.71 100.51-255.84 100.51-255.84-42.7 35-85.02 117.87-98.18 181.49-.95 17.78-1.73 33.19-2.19 44.01-.19 4.46-.23 15.35-.14 30.34Z"/><path fill="#CDE3FD" d="M2274.98 2107.68c-37.89 0-68.6-44.64-68.6-99.7V1378.3h137.19v629.68c0 55.06-30.71 99.7-68.59 99.7Z"/><path fill="#A8D29F" d="M2274.89 1794.32c-7.57-90.67-2.45-282.91-2.4-284.84l2 .1c-.06 1.94-5.15 193.96 2.38 284.39l-1.98.35Z"/><path fill="#82B378" d="M2273.56 1510.68c.73.7-12.06-26.8-23.69-21.96-11.63 4.85-24.8 22.99-24.8 22.99s16.94 1.24 24.5 3.67c7.55 2.43 19.36-9.2 23.99-4.7Z"/><path fill="#82B378" d="M2273.54 1510.38s-.93-12.42 8.48-20.36c0 0 2.6 7.84.83 13.98-1.77 6.13-9.31 6.38-9.31 6.38ZM2273.37 1520.62s8.36-6.13 14.01-5.71c5.65.41 12.46 20.39 12.46 20.39s-11.56 1.18-15.54-.57c-3.99-1.75-7.49-15.12-10.93-14.11Z"/><path fill="#A8D29F" d="M2272.58 1552.76s-15.98-14.47-27.76-10.53c-11.78 3.94-21.99 27.77-21.99 27.77s13.83 4.45 21.23 1.82c7.41-2.61 16.79-10.99 19.17-15.09 2.37-4.1 9.35-3.97 9.35-3.97Z"/><path fill="#82B378" d="M2269.97 1548.79s1.79-10.09-3.04-15.82c-4.83-5.74-6.3-7.46-6.3-7.46s-.85 7.46.83 13.18 8.51 10.1 8.51 10.1Z"/><path fill="#A8D29F" d="M2272.19 1590.16s23.13-21.55 39.77-10.56c16.66 11.01 23.68 40.98 23.68 40.98s-28.05 2.68-37.91-6.64c-9.85-9.32-10.01-24.51-14.18-24.83-4.18-.32-11.36 1.05-11.36 1.05Z"/><path fill="#82B378" d="M2271.13 1608.26s-3.4-18.7-15.63-19.64c-12.24-.92-22.83 24.48-22.83 24.48s11.58 4.05 17.93 3.26c6.34-.8 11.94-16.04 15.25-13.27 3.31 2.76 5.28 5.17 5.28 5.17Z"/><path fill="#95B3EF" d="M2274.98 2078.76c-28.15 0-50.96-33.17-50.96-74.07v-286.12h101.93v286.12c0 40.9-22.82 74.07-50.97 74.07ZM2351.09 1387.68h-150.42c-5.45 0-9.92-6.5-9.92-14.44 0-7.93 4.47-14.42 9.92-14.42h150.42c5.47 0 9.94 6.49 9.94 14.42 0 7.94-4.47 14.44-9.94 14.44Z"/><path fill="#F9DDBF" d="M2508.61 1407.93h-74.83c-7.16 0-13.02-8.51-13.02-18.94v-44.24c0-10.42 5.86-18.95 13.02-18.95h74.83c7.17 0 13.02 8.53 13.02 18.95v44.24c0 10.43-5.85 18.94-13.02 18.94Z"/><path fill="#CDE3FD" d="M2469.31 2107.68c-37.9 0-68.61-44.64-68.61-99.7V1378.3h137.2v629.68c0 55.06-30.71 99.7-68.59 99.7Z"/><path fill="#F1A34F" d="M2469.63 2078.76h-.66c-27.97 0-50.63-32.95-50.63-73.6v-419.6h101.93v419.6c0 40.65-22.67 73.6-50.64 73.6Z"/><path fill="#95B3EF" d="M2545.41 1387.68H2395c-5.46 0-9.93-6.5-9.93-14.44 0-7.93 4.47-14.42 9.93-14.42h150.41c5.47 0 9.94 6.49 9.94 14.42 0 7.94-4.47 14.44-9.94 14.44Z"/><path fill="#2E3552" d="M2179.09 2163.64h-5.15v-135.3h5.15v135.3ZM2566.7 2163.64h-5.14v-135.3h5.14v135.3Z"/><path fill="#2E3552" d="M2566.7 2045.77h-392.76v-17.43h392.76v17.43Z"/><path fill="#FFB27D" d="M2522.84 1530.1s-.88-1.64-3.28-2.78c-1.94-1.78-9.08-11.11-9.86-12.79 0 0-1.56.87-.92 4.61.21 1.2 1.71 6.31 2.15 7.43-4.69.86-8.03 1.3-15.96 6.98-2.44 1.74-4.26 4.96-4.77 8.85-.5 3.76.12 7.99 4.78 9.48 3.22 1.03 5.43-3.44 13.65.92 8.23 4.35 14.53 3.81 18.85-3.16l6.62-4.46-2.05-17.88-9.21 2.8Z"/><path fill="#AFCDFB" d="M2686.57 1255.25s92.96 25.72-27.35 221.38c-19.24 31.29-127.14 76.17-127.14 76.17s-6.59-17.18-1.28-27.73c0 0 75.69-73.35 87.76-81.92 7.19-5.11 27.07-126.21 38.62-153.95 11.55-27.73 29.39-33.95 29.39-33.95Z"/><path fill="#2E3552" d="M3136.91 2180.52H123.422c-2.303 0-4.188-2.75-4.188-6.09v-5.27c0-3.34 1.885-6.09 4.188-6.09H3136.91c2.31 0 4.2 2.75 4.2 6.09v5.27c0 3.34-1.89 6.09-4.2 6.09Z"/><path fill="#F7FAFD" d="M2097.36 1219.81h373.83V812.604h-373.83v407.206Z"/><path fill="#AFCDFB" d="M2153.94 977.273v99.377l-22.98 88.42c-.97 3.75-.63 7.81.94 11.11 1.57 3.31 4.06 5.21 6.83 5.21h52.6c2.73 0 5.21-1.87 6.77-5.11 1.58-3.24 1.96-7.26 1.05-10.99l-21.7-88.65v-99.367h-23.51Zm37.39 210.017h-52.6c-4.06 0-7.86-2.9-10.17-7.76-2.31-4.84-2.83-11.03-1.39-16.55l22.71-87.39V971.361h31.64v104.259l21.45 87.68c1.37 5.58.8 11.55-1.54 16.38-2.35 4.83-6.03 7.61-10.1 7.61Z"/><path fill="#AFCDFB" d="m2150.32 1125.48-8.12 31.25c-.63 2.47-.41 5.13.62 7.29 1.03 2.17 2.66 3.41 4.47 3.41h35.48c1.78 0 3.4-1.22 4.43-3.34 1.04-2.13 1.29-4.76.69-7.21l-7.39-30.2-.2.06c-1.8.58-3.4 1.25-4.95 1.89-4.99 2.11-9.3 3.92-14.77-.68-3.06-2.59-7.11-2.82-10.26-2.47Zm32.45 46.38h-35.48c-2.78 0-5.39-1.99-6.98-5.32-1.59-3.34-1.94-7.59-.95-11.37l8.79-33.83.93-.15c3.69-.57 8.94-.51 13.03 2.92 4.34 3.66 7.55 2.31 12.4.28 1.52-.65 3.23-1.36 5.13-1.97.39-.14.73-.31 1.03-.54l1.57-1.3 8.51 34.81c.94 3.83.55 7.93-1.05 11.26-1.62 3.31-4.14 5.21-6.93 5.21ZM2180.08 979.58h-28.96c-1.97 0-3.58-2.336-3.58-5.211 0-2.876 1.61-5.211 3.58-5.211h28.96c1.98 0 3.59 2.335 3.59 5.211 0 2.875-1.61 5.211-3.59 5.211ZM2404.5 1069.97h-87.29v-7.27h87.29v7.27ZM2350.87 1086.54h-33.66v-7.29h33.66v7.29ZM2395.01 1086.54h-39.44v-7.29h39.44v7.29ZM2382.43 1103.09h-65.22v-7.27h65.22v7.27ZM2304.64 924.737c-12.73 0-23.1 15.064-23.1 33.588 0 18.51 10.37 33.589 23.1 33.589 12.75 0 23.11-15.079 23.11-33.589 0-18.524-10.36-33.588-23.11-33.588Zm0 73.279c-15.05 0-27.31-17.809-27.31-39.691 0-21.881 12.26-39.69 27.31-39.69 15.07 0 27.31 17.809 27.31 39.69 0 21.882-12.24 39.691-27.31 39.691ZM2213.91 861.75c-8.13 0-14.74 9.605-14.74 21.429 0 11.809 6.61 21.414 14.74 21.414 8.13 0 14.74-9.605 14.74-21.414 0-11.824-6.61-21.429-14.74-21.429Zm0 46.916c-9.67 0-17.54-11.43-17.54-25.487 0-14.057 7.87-25.502 17.54-25.502 9.67 0 17.54 11.445 17.54 25.502 0 14.057-7.87 25.487-17.54 25.487ZM2283.33 861.751c-6.32 0-11.47 7.474-11.47 16.67 0 9.182 5.15 16.67 11.47 16.67 6.33 0 11.47-7.488 11.47-16.67 0-9.196-5.14-16.67-11.47-16.67Zm0 37.413c-7.86 0-14.27-9.313-14.27-20.743 0-11.444 6.41-20.743 14.27-20.743 7.87 0 14.27 9.299 14.27 20.743 0 11.43-6.4 20.743-14.27 20.743ZM2416.22 957.231c-11.55 0-20.94 13.649-20.94 30.436 0 16.773 9.39 30.423 20.94 30.423 11.54 0 20.93-13.65 20.93-30.423 0-16.787-9.39-30.436-20.93-30.436Zm0 64.929c-13.08 0-23.74-15.47-23.74-34.493 0-19.035 10.66-34.509 23.74-34.509 13.09 0 23.74 15.474 23.74 34.509 0 19.023-10.65 34.493-23.74 34.493ZM2253.05 1065.75c-8.82 0-16.01 10.44-16.01 23.27s7.19 23.28 16.01 23.28c8.83 0 16.01-10.45 16.01-23.28 0-12.83-7.18-23.27-16.01-23.27Zm0 50.61c-10.37 0-18.81-12.26-18.81-27.34s8.44-27.34 18.81-27.34c10.38 0 18.81 12.26 18.81 27.34s-8.43 27.34-18.81 27.34Z"/><path fill="#AFCDFB" d="m2281.64 942.969-54.16-47.106 1.16-2.788 54.16 47.106-1.16 2.788ZM2262.71 1067.88l-1.96-1.59 29.69-77.558 1.96 1.591-29.69 77.557ZM2393.72 989.273l-66.06-14.947.34-3.212 66.06 14.933-.34 3.226ZM2295.44 924.242l-7.86-28.143 1.54-.906 7.85 28.144-1.53.905ZM2333.29 1174.31h-101.67v4.88h101.67v-4.88ZM2333.29 1160.79h-101.67v4.88h101.67v-4.88ZM2333.29 1147.29h-101.67v4.88h101.67v-4.88ZM2453.43 1174.31h-101.67v4.88h101.67v-4.88ZM2453.43 1160.79h-101.67v4.88h101.67v-4.88ZM2453.43 1147.29h-101.67v4.88h101.67v-4.88ZM2384.14 888.07h17.43l8.72-21.94-8.72-21.954h-17.43l-8.72 21.954 8.72 21.94Zm18.07 1.576h-18.69l-9.34-23.516 9.34-23.531h18.69l9.34 23.531-9.34 23.516ZM2354.98 912.652h17.43l8.72-21.94-8.72-21.94h-17.43l-8.72 21.94 8.72 21.94Zm18.06 1.577h-18.68l-9.34-23.517 9.34-23.516h18.68l9.34 23.516-9.34 23.517ZM2412.56 912.652H2430l8.72-21.94-8.72-21.94h-17.44l-8.71 21.94 8.71 21.94Zm18.06 1.577h-18.68l-9.35-23.517 9.35-23.516h18.68l9.34 23.516-9.34 23.517ZM2168.5 853.854h-48.17v-4.672h48.17v4.672ZM2168.5 867.193h-48.17v-4.671h48.17v4.671ZM2168.5 880.756h-48.17v-4.671h48.17v4.671ZM2168.5 893.047h-48.17v-4.671h48.17v4.671Z"/></svg>