<svg xmlns="http://www.w3.org/2000/svg" width="2318" height="2115" fill="none"><g clip-path="url(#a)"><path fill="url(#b)" d="M390.67 1328.19c333.429 420.97 682.76 711.93 1225.79 452 543.02-259.94 711.53-723.69 701.09-989.034-10.44-265.346-100.64-500.164-554.89-391.858-454.27 108.306-579.58 21.66-788.436-113.72-208.854-135.38-643.575-182.905-767.847 196.697-102.268 312.39 65.849 696.375 184.293 845.915Z"/><path fill="url(#c)" d="M1501.85 420.807c-289.9-205.601-692.906-541.715-880.686-159.5C433.383 643.529-80.603 1898.79 547.273 1878.37c627.877-20.41 1140.277-327.91 1291.787-553.89 151.52-225.97 125.94-575.201-337.21-903.673Z"/><path fill="url(#d)" d="M1257.65 150.275C1003.26 364.419 687.741 573.665 365.801 626 79.688 672.507-31.113 902.636 7.393 1070c55.69 242.05 195.643 225.4 445.923 493.85 200.418 214.96 335.625 392.9 504.27 475.72 241.194 118.45 462.594 99.68 654.304-72.49 191.7-172.17 333.4-453.07 420.92-969.566 87.51-516.498 24.71-781.261-104.67-900.72-118.02-108.953-408.6-166.975-670.49 53.481Z"/><path fill="#93D2C7" d="M817.398 1057.68c-50.907-102.996-143.976-177.923-246.934-203.512-29.137-7.241-58.974-10.343-88.707-9.284-5.719.204-5.128 9.999.574 9.796 102.774-3.664 205.068 45.751 275.816 128.995 20.308 23.895 37.697 50.645 51.897 79.375 2.753 5.57 10.09.17 7.354-5.37Z"/><path fill="#93D2C7" d="M717.991 929.001c3.168-14.79 6.386-29.99 5.564-45.373-.456-8.524-2.105-23.408-12.364-23.739-23.96-.775-4.815 55.924-2.468 66.327 1.388 6.155 9.788 3.119 8.41-2.988-2.153-9.543-4.317-19.083-6.458-28.629-.946-4.22-2.14-8.521-2.442-12.864-.182-2.616-.371-16.119 5.079-8.224 1.856 2.688 1.437 10.497 1.487 13.768.076 4.896-.3 9.762-.898 14.597-1.051 8.476-2.841 16.804-4.62 25.11-1.314 6.134 7.4 8.129 8.71 2.015ZM678.03 901.621c.087-19.414.385-39.774-3.18-58.934-1.547-8.321-8.683-34.199-20.524-27.85-11.816 6.336-9.497 24.351-6.951 35.736 4.184 18.701 11.869 36.232 22.004 51.94 3.332 5.164 10.701-.176 7.354-5.363-6.59-10.212-12.138-21.073-16.186-32.787-2.063-5.97-12.002-36.414-2.84-36.678 13.726-.396 11.514 63.728 11.466 74.424-.026 6.324 8.829 5.791 8.857-.488ZM624.981 873.924c1.111-19.721-.65-39.471-5.481-58.613-2.962-11.736-8.565-37.397-24.284-32.987-13.033 3.657-10.774 28.743-8.84 39.468 3.655 20.279 14.666 37.451 26.586 53.006 3.673 4.795 11.071-.512 7.354-5.362-8.735-11.398-17.21-23.501-22.107-37.536-2.044-5.857-3.486-11.965-4.021-18.198-.289-3.373-.322-6.679-.053-10.043a37.68 37.68 0 0 1 .663-5.409c-.175-3.642 1.45-4.428 4.877-2.36 5.581.802 5.41 3.059 7.217 8.209 1.087 3.095 2.041 6.254 2.93 9.422 1.961 6.991 3.542 14.116 4.624 21.325 1.971 13.123 2.425 26.344 1.68 39.564-.355 6.288 8.505 5.726 8.855-.486ZM564.272 850.43c-10.621-18.724-12.819-41.803-24.883-59.684-5.767-8.547-23.372-26.96-33.259-16.524-10.13 10.694-5.264 30.467 2.517 41.159 12.681 17.424 33.825 22.731 47.779 38.535 4.012 4.545 9.775-2.82 5.772-7.353-9.799-11.098-22.405-16.887-33.966-25.22-6.855-4.94-13.765-11.164-16.944-19.756-1.919-5.184-4.042-16.796 1.715-19.278 5.693-2.454 13.968 6.966 17.416 11.51 4.386 5.779 7.525 12.503 10.107 19.42 5.36 14.362 8.845 29.247 16.393 42.552 3.055 5.387 10.406.02 7.353-5.361ZM491.154 845.846c-12.254-15.059-28.519-24.539-45.825-30.406-12.691-4.302-36.255-9.705-45.439 4.698-10.596 16.618 16.116 23.552 25.556 26.259 19.192 5.502 39.027 7.263 58.689 5.728 5.695-.444 5.123-10.24-.573-9.796-13.485 1.052-26.976.601-40.382-1.797a160.094 160.094 0 0 1-20.362-5.03c-4.794-1.525-22.461-6.932-11.906-12.455 12.061-6.311 29.547.19 41.176 5.277 12.726 5.567 24.089 13.562 33.294 24.872 3.832 4.713 9.581-2.67 5.772-7.35Z"/><path fill="#93D2C7" d="M554.504 853.856c-15.477 1.425-29.669 7.383-43.551 14.63-7.918 4.133-24.108 11.074-16.884 24.011 6.646 11.902 24.754 5.324 33.666 1.385 5.716-2.526 9.817-5.919 13.376-11.451 5.93-9.218 11.354-16.279 21.156-20.638 5.248-2.333 2.443-11.686-2.831-9.342-8.16 3.628-15.448 8.92-20.908 16.634-2.939 4.148-4.882 9.5-8.772 12.714-4.045 3.341-9.968 4.892-14.848 6.115-1.433.359-6.212 2.172-7.706 1.354-8.683-4.753.038-7.931 2.263-9.139 4.567-2.481 9.183-4.868 13.869-7.067 10.2-4.785 20.612-8.385 31.744-9.41 5.683-.522 5.117-10.32-.574-9.796ZM620.095 874.679c-12.533 3.914-25.496 8.037-35.999 16.828-4.966 4.156-16.489 14.11-9.537 21.711 6.222 6.803 22.227 2.678 29.106.112 10.995-4.101 16.101-16.286 21.365-26.781 2.752-5.486-5.248-9.863-7.997-4.383-3.352 6.683-6.909 16.116-13.013 20.314-5.498 3.782-19.438 6.47-25.133 2.32l2.505 4.144c-.646-6.593 15.955-15.163 20.404-17.272 6.813-3.228 14.001-5.424 21.131-7.649 5.483-1.714 2.631-11.051-2.832-9.344ZM675.631 904.562c-5.702 5.171-11.72 9.819-18.246 13.651-3.841 2.257-7.815 4.17-11.899 5.832-1.889.768-8.758 4.54-10.565 3.62-9.483-4.828 13.789-14.028 16.859-14.839 7.32-1.935 14.829-2.068 22.299-.899 5.643.882 7.369-8.709 1.69-9.598-14.762-2.31-55.489.752-52.789 26.117 2.818 26.486 49.737-8.532 57.614-15.675 4.338-3.933-.579-12.185-4.963-8.209ZM709.841 932.773c-6.539 3.681-13.256 6.913-20.199 9.577a142.945 142.945 0 0 1-7.903 2.756c-2.767.88-8.846 4.467-9.843.759-1.955-7.266 31.839-5.756 36.468-5.523 5.717.289 5.088-9.509-.574-9.796-11.253-.568-23.818-1.725-34.656 2.113-6.212 2.2-16.093 8.448-13.548 17.444 5.669 20.03 46.294-4.094 55.218-9.118 5.049-2.843.045-11.031-4.963-8.212Z"/><path fill="#AF95D1" d="M1941.8 1334.9c-16.15-2.45-1482.624 41.81-1636.876 35.26-284.318-12.08-328.745 280.51-19.121 314.1 217.188 23.57 481.761 104.04 976.037 102.72 899.51-2.4 1313.54-355.8 679.96-452.08Z"/><path fill="#51C6D4" d="M685.855 1443.92c87.326-25.63 175.065-86.88 197.827-181.98 6.65-27.78 6.972-58.66-5.949-83.5-12.92-24.84-41.527-41.06-66.56-31.82-21.665 7.99-37.592 32.66-60.398 33.7-15.936.72-30.404-11.07-38.871-25.67-8.467-14.59-12.159-31.77-16.347-48.44a677.969 677.969 0 0 0-19.451-63.93c-8.888-24.75-20.49-50.454-41.843-63.346-21.353-12.892-54.522-5.177-61.215 20.52-3.163 12.146.092 25.006-.182 37.596-.274 12.6-6.663 27.32-18.231 28.25-4.531.36-8.933-1.54-12.947-3.8-30.96-17.47-47.047-56.15-76.162-76.994-14.385-10.3-31.249-15.717-48.017-20.176-75.645-20.112-161.79-21.31-225.525 28.255-12.464 9.695-24.111 21.635-30.031 36.975-11.232 29.11 1.49 63.85 23.183 84.47 21.693 20.63 50.467 29.96 78.619 37.06 28.153 7.1 57.174 12.72 82.494 27.74-17.362 16.37-38.784 27.59-61.322 32.12-11.674 2.34-24.613 3.42-33.133 12.46-13.57 14.39-6.451 41.45 9.378 52.47 15.83 11.03 36.248 10.16 54.944 7.12 49.97-8.12 102.486-28.67 149.042-8 6.251 2.78 12.871 7.13 14.259 14.32.953 4.94-.859 10.04-3.174 14.45-11.538 21.98-34.51 33.13-52.445 49.29-4.155 3.74-8.175 7.95-10.349 13.31-8.601 21.19 14.91 40.22 34.8 48.14 75.007 29.85 150.11 47.77 237.606 29.41Z"/><path fill="#E9F4F6" d="M796.72 1369.71c-104.635-132.84-245.45-228.87-399.071-272.5-44.13-12.54-89.2-20.52-134.626-24.01-4.723-.37-4.292-8.57.451-8.2 161.158 12.39 317.243 82.84 442.588 196.19 34.575 31.26 66.736 65.7 96.113 103 3.128 3.97-2.325 9.49-5.455 5.52Z"/><path fill="#96CEDA" d="M550.045 1007.2c4.467 8.67.017 20.01-8.342 22.94-2.739.96-3.609-3.94-.883-4.89 5.741-2.01 8.128-10.18 5.233-15.8-1.434-2.79 2.561-5.03 3.992-2.25Z"/><path fill="#C0E2E8" d="M1616.93 1215.92c-69.13 12.19-148.43.69-190.99-55.29-12.43-16.36-21.23-36.91-18.94-57.88 2.28-20.96 18.1-41.42 38.44-43.65 17.6-1.93 35.76 9.22 52.24 2.25 11.52-4.87 18.52-17.62 20.49-30.23 1.96-12.61-.18-25.35-1.83-37.908a483.216 483.216 0 0 1-3.93-49.315c-.56-19.542.55-40.642 12.14-56.443 11.59-15.802 37.28-21.783 49.17-6.837 5.61 7.064 6.87 16.764 10.56 25.098 3.69 8.333 12.31 16.036 20.79 12.772 3.31-1.278 5.91-4.029 8.14-6.893 17.14-22.088 17.83-53.375 32.72-77.107 7.36-11.724 17.83-21.016 28.5-29.633 48.15-38.876 108.99-68.621 168.01-56.87 11.54 2.298 23.13 6.375 31.59 14.651 16.05 15.704 16.66 43.221 6.97 64.312-9.68 21.091-27.53 37.002-45.55 51.21-18.02 14.209-37.07 27.726-50.89 46.282 16.87 5.118 35.2 5.425 52.46.883 8.94-2.352 18.43-5.977 26.99-2.792 13.63 5.073 16.09 25.569 7.9 38.263-8.18 12.694-22.92 18.973-37.04 23.224-37.74 11.357-80.74 15.248-108.07 44.723-3.67 3.96-7.16 9.1-6.15 14.38.69 3.62 3.39 6.42 6.26 8.6 14.29 10.82 33.7 10.57 50.92 15.36 3.99 1.11 8.01 2.57 11.05 5.43 11.98 11.29.57 31.92-11.36 43.9-44.99 45.18-93.35 82.4-160.59 99.51Z"/><path fill="#fff" d="M1512.21 1201.65c37.99-125.82 112.73-239.21 211.48-320.726 27.65-22.825 57.13-43.065 88.07-60.47 3.27-1.836 5.86 3.502 2.6 5.334-109.6 61.651-199.62 159.751-256.79 276.012-16.05 32.65-29.39 66.71-39.96 101.71-1.12 3.71-6.53 1.86-5.4-1.86Z"/><path fill="#96CEDA" d="M1595.66 878.23c-.49 4.734 3.47 9.399 8.1 8.815 2.2-.277 2.95 3.29.73 3.569-6.75.85-13.05-5.242-12.29-12.548.25-2.335 3.71-2.185 3.46.164Z"/><path fill="#93D2C7" d="M1538.29 1412.03c-95.62-27.51-191-92.15-214.21-191.52-6.78-29.02-6.54-61.23 8.17-87.01 14.7-25.79 46.5-42.45 73.87-32.59 23.69 8.53 40.75 34.39 65.83 35.68 17.52.89 33.68-11.28 43.28-26.42 9.6-15.13 14-33.02 18.93-50.36a685.218 685.218 0 0 1 22.65-66.495c10.26-25.72 23.53-52.421 47.28-65.675 23.76-13.253 60.11-4.912 66.98 21.941 3.25 12.693-.58 26.077-.53 39.209.06 13.13 6.81 28.54 19.52 29.61 4.98.42 9.87-1.52 14.33-3.85 34.41-17.932 52.87-58.12 85.32-79.596 16.03-10.611 34.7-16.11 53.24-20.61 83.65-20.297 178.49-20.78 247.68 31.471 13.53 10.219 26.12 22.775 32.34 38.824 11.8 30.451-2.88 66.561-27.16 87.871-24.27 21.32-56.12 30.79-87.25 37.94-31.12 7.15-63.17 12.76-91.33 28.19 18.79 17.22 42.15 29.11 66.87 34.03 12.8 2.55 27.02 3.8 36.22 13.3 14.66 15.13 6.3 43.28-11.33 54.63-17.64 11.35-40.1 10.26-60.62 6.93-54.84-8.91-112.24-30.81-163.89-9.67-6.93 2.84-14.3 7.32-15.97 14.81-1.15 5.14.75 10.47 3.21 15.09 12.28 23.02 37.34 34.85 56.77 51.86 4.5 3.94 8.84 8.37 11.13 13.98 9.06 22.17-17.19 41.8-39.23 49.88-83.14 30.46-166.15 48.47-262.1 28.55Z"/><path fill="#ADE5F0" d="M1412.55 1328.74c61.95-72.45 133.44-135.89 210.84-189.08 79.27-54.47 165.53-98.8 256.31-126.49 49.35-15.055 100.05-25.019 151.23-28.339 3.76-.243 4.16 5.926.39 6.17C1846.36 1003 1668.97 1098.5 1527.07 1221.9c-39.18 34.08-76.08 71.06-110.11 110.86-2.54 2.97-6.96-1.03-4.41-4.02Z"/><path fill="#96CEDA" d="M1700.62 960.179c-3.26 5.854-.94 14.367 5.38 16.575 2.95 1.031 2.01 6.156-.98 5.109-9.13-3.184-13.87-14.856-8.81-23.945 1.61-2.881 6.03-.648 4.41 2.261ZM1999.7 1155.77c31.75 5.08 59.5 25.9 74.31 55.91 1.44 2.92-2.62 5.92-4.07 2.97-14.27-28.93-40.59-48.87-71.23-53.77-3.12-.5-2.14-5.61.99-5.11Z"/><path fill="#384955" d="M698.636 1130.88c1.845-2.9 5.164-4.12 8.259-5.13a417.582 417.582 0 0 1 60.098-14.68l682.997-34.8 61.8 314.98c2.08 10.61 4.16 21.58 2.23 32.23-4.45 24.38-27.53 38.23-48.36 48.05-233.91 110.28-506.666 128.5-744.638 29.22-5.709-2.39-11.701-5.08-15.336-10.46-3.151-4.67-4.045-10.67-4.846-16.41-11.677-83.72-5.056-338.51-2.204-343Z"/><path fill="#496374" d="M1119.03 872.159c17.78-3.411 35.63-6.612 53.64-7.675 21.83-1.289 44.12-2.511 65.47 2.627 235.69 56.739 481.31 139.519 462.11 149.399-68.63 35.31-434.34 138.84-732.808 201.85-16.144 3.41-32.391 6.79-48.829 7.08-17.933.32-35.734-3.04-53.39-6.48-101.729-19.85-182.975-62.91-280.941-98.93-109.542-40.27-167.734-67.32-127.671-78.11 266.768-64.761 394.19-118.278 662.419-169.761Z"/><path fill="#FB8967" d="M1546.65 1141.99c-4.48-16.89-7.55-34.74-13.74-51.02-1.83-4.8-4.22-11-8.29-14.05-6.2-4.65-16.45-3.19-23.66-3.84-36.72-3.34-73.35-7.75-109.92-12.63-70.69-9.42-141.13-20.88-211.87-29.77-32.99-4.14-66.07-7.76-99.26-9.09-6.73-.27-6.47-11.77.3-11.5 67.14 2.69 133.98 13.46 200.51 23.16 78.28 11.4 156.49 22.24 235.18 29.59 12.58 1.18 19.9 7.5 25.22 20.13 7.47 17.74 10.76 37.61 15.72 56.28 1.89 7.11-8.3 9.84-10.19 2.74Z"/><path fill="#CF4E2C" d="M1556.94 1360.16c-7.65-52.51-18.28-107.66-16.78-160.81l54.43-12.77c8.53 11.29 13.01 25.52 17.31 39.41 20.32 65.59 40.64 131.19 60.97 196.78 3.94 12.71 7.92 25.77 7.47 39.18-.17 5.28-2.34 11.85-7.15 11.96-2.32.05-4.47-1.56-6.78-1.54-5.76.07-7.72 9.11-12.99 11.64-5.73 2.75-12.27-3.38-18.37-1.81-6.36 1.64-10.22 11.15-16.7 10.18-3.72-.56-7.05-4.68-10.59-3.28-2.23.87-3.33 3.6-5.21 5.17-3.22 2.7-8.14 1.34-11.02-1.78-2.88-3.13-4.22-7.54-5.46-11.77-11.64-39.61-23.14-79.46-29.13-120.56Z"/><path fill="#384955" d="M1528.71 1187.39c1.54-10.86 3.13-21.9 7.51-31.78 4.36-9.83 13.28-18.92 23.1-17.03 5.09.98 9.33 4.72 13.23 8.43 11.46 10.9 22.18 22.74 32.07 35.35-3.8 6.39-10.43 10.07-16.9 12.97-13.55 6.09-27.8 10.32-42.3 12.56-4.76.74-10.17 1.06-13.77-2.43-4.37-4.24-3.83-11.74-2.94-18.07ZM1605.53 1183.5c-.3-.39-.61-.75-.91-1.14.1-.18.23-.34.34-.52l.57 1.66Z"/><path fill="#678293" d="M553.004 1047.99c-8.712 1.4-15.766 6.33-20.271 14.69-3.442 6.38-12.413.42-8.973-5.96 5.776-10.71 15.472-18.09 26.74-19.9 6.62-1.06 9.189 10.1 2.504 11.17ZM573.829 1083.09a2441.832 2441.832 0 0 1 189.136 59.38c6.401 2.29 3.46 13.34-2.98 11.03a2441.696 2441.696 0 0 0-189.136-59.38c-6.558-1.77-3.575-12.8 2.98-11.03ZM732.008 1230.7c2.644 38.72 5.288 77.44 7.93 116.16.503 7.36-9.986 7.01-10.487-.32l-7.93-116.16c-.502-7.36 9.987-7.01 10.487.32ZM733.163 1394.4c.295 23.51 7.227 45.09 19.988 63.92 4.021 5.93-5.184 11.48-9.156 5.62-13.861-20.45-21-44.43-21.319-69.86-.093-7.4 10.394-7.08 10.487.32Z"/><path fill="#496374" d="M1249.44 860.723c-25.8-11.846-53.46-15.335-81-9.7-6.61 1.351-9.15-9.809-2.5-11.17 29.29-5.993 58.97-2.789 86.48 9.838 6.16 2.827 3.26 13.894-2.98 11.032ZM652.188 1169.25l-50.499-16.53c-6.465-2.11-3.509-13.15 2.979-11.03l50.499 16.53c6.465 2.11 3.509 13.15-2.979 11.03Z"/><path fill="#384955" d="m682.449 1421.03.709 23.42c.233 7.68-1.035 18.96 1.787 26.09 2.664 6.74-6.473 12.41-9.157 5.62-3.068-7.76-2.627-15.87-2.881-24.22l-.946-31.23c-.225-7.39 10.263-7.06 10.488.32Z"/><path fill="#EEF5F6" d="M1429.69 606.981c33.9-107.048-18.04-224.083-116.02-261.405-97.98-37.321-204.89 19.204-238.8 126.253-33.9 107.049 18.04 224.084 116.02 261.405 97.98 37.321 204.89-19.204 238.8-126.253Z"/><path fill="#506673" d="M1188.42 742.284a190.725 190.725 0 0 1-22.01-10.046c-23.82-12.742-44.67-30.203-61.95-51.9-16.7-20.954-29.38-44.953-37.7-71.329-8.32-26.38-11.86-53.812-10.52-81.535 1.39-28.71 7.98-56.467 19.58-82.501 11.61-26.034 27.53-48.795 47.34-67.653 19.13-18.208 41.05-32.023 65.15-41.059 24.1-9.036 49.18-12.841 74.53-11.31 26.24 1.585 51.63 8.849 75.46 21.589 23.82 12.742 44.67 30.204 61.95 51.901 16.7 20.954 29.38 44.954 37.7 71.33 8.32 26.379 11.86 53.811 10.52 81.534-1.39 28.71-7.98 56.467-19.58 82.501-11.6 26.034-27.53 48.795-47.34 67.652-19.13 18.208-41.05 32.023-65.15 41.06-24.1 9.036-49.18 12.841-74.53 11.31-18.31-1.105-36.21-4.976-53.45-11.544Zm-97.13-289.023c-20.94 46.974-23.87 100.094-8.27 149.576 15.62 49.495 47.91 89.424 90.94 112.435a172.007 172.007 0 0 0 19.94 9.096c84.38 32.153 179.49-9.019 219.52-98.851 20.94-46.974 23.87-100.094 8.26-149.576-15.61-49.495-47.9-89.424-90.93-112.434-88.82-47.498-196.24-7.235-239.46 89.754Z"/><path fill="#506673" d="M1238.61 525.864c4.87-10.92 14.74-10.63 22.98-7.149 9.53 4.023 11.36 12.969 8.08 21.927-3.86 10.579-12.23 16.323-23.4 10.349-7.94-4.245-11.52-16.457-7.66-25.127ZM1315.14 384.966l-5.4 12.106c-1.26 2.828.78 6.785 3.39 7.638 3.14 1.025 5.63-.658 6.98-3.688 1.8-4.036 3.6-8.07 5.39-12.106 1.26-2.828-.78-6.785-3.38-7.638-3.14-1.026-5.63.657-6.98 3.688ZM1184.96 677.052l-5.4 12.106c-1.26 2.828.79 6.786 3.39 7.637 3.14 1.025 5.63-.658 6.98-3.689 1.8-4.035 3.59-8.07 5.39-12.106 1.26-2.828-.78-6.785-3.39-7.637-3.13-1.025-5.62.658-6.97 3.689ZM1393.57 607.836c-3.7-1.977-7.39-3.952-11.09-5.928-2.59-1.385-6.2.84-6.97 3.688-.93 3.424.61 6.153 3.38 7.638 3.7 1.976 7.39 3.951 11.09 5.927 2.59 1.385 6.2-.839 6.97-3.687.94-3.426-.61-6.155-3.38-7.638ZM1126.14 464.819c-3.69-1.976-7.39-3.951-11.08-5.928-2.59-1.385-6.21.84-6.98 3.688-.93 3.424.61 6.153 3.39 7.638 3.69 1.976 7.39 3.951 11.08 5.928 2.59 1.385 6.21-.84 6.98-3.688.93-3.424-.62-6.153-3.39-7.638ZM1404.76 511.003c-4.07.597-8.14 1.195-12.22 1.791-2.84.418-4.98 4.021-4.31 7.039.74 3.313 3.4 5.18 6.45 4.733l12.21-1.791c2.85-.418 4.99-4.021 4.32-7.039-.74-3.313-3.41-5.18-6.45-4.733ZM1110.06 554.228l-12.21 1.791c-2.85.418-4.99 4.021-4.31 7.039.73 3.312 3.4 5.179 6.44 4.733 4.07-.598 8.15-1.195 12.22-1.791 2.85-.418 4.99-4.022 4.31-7.04-.74-3.312-3.4-5.179-6.45-4.732ZM1374.55 435.677c-3.34 2.621-6.67 5.243-10 7.864-2.33 1.836-2.5 6.22-.6 8.456 2.18 2.547 5.25 2.63 7.74.67l9.99-7.864c2.34-1.836 2.51-6.22.6-8.456-2.17-2.546-5.24-2.629-7.73-.67ZM1133.38 625.405c-3.33 2.621-6.67 5.242-10 7.864-2.33 1.836-2.5 6.219-.59 8.456 2.17 2.546 5.24 2.629 7.73.67 3.33-2.622 6.67-5.243 10-7.864 2.33-1.836 2.5-6.22.59-8.456-2.17-2.545-5.24-2.629-7.73-.67Z"/><path fill="#506673" d="M1302.07 419.615c-17.69 30.203-34.79 62.937-47.68 95.927-1.68 4.305-3.34 8.726-3.65 13.398-.19 2.814.29 6.007 2.38 7.67 2.19 1.744 5.4 1.075 7.52-.753 2.12-1.828 3.41-4.552 4.61-7.198 14.96-32.907 27.01-73.887 36.82-109.044Z"/><path fill="#A1B7BF" d="M1404.32 419.58c5.77 8.324 10.59 17.345 14.45 26.898 1.22 3.035 5.45.792 4.23-2.235a143.436 143.436 0 0 0-15.11-27.999c-1.84-2.648-5.4.706-3.57 3.336ZM1402.41 408.386c-3.54-5.691-7.71-10.775-12.4-15.353-.96-.931-2.61-.379-3.27.655-.81 1.253-.34 2.655.6 3.576 4.38 4.264 8.21 9.165 11.5 14.459.72 1.158 2.42 1.107 3.32.287 1.06-.971.96-2.481.25-3.624ZM1067.03 594.131c2.82 15.907 8.95 30.939 17.82 43.924 1.82 2.66 5.37-.696 3.57-3.338-8.39-12.277-14.11-26.547-16.77-41.576-.58-3.248-5.19-2.269-4.62.99ZM1090.37 646.104c-2.18 2.131-.6 4.624.69 6.728 1.44 2.365 2.95 4.683 4.52 6.952 3.08 4.455 6.4 8.703 9.92 12.752 2.08 2.397 5.66-.932 3.57-3.338a144.584 144.584 0 0 1-8.15-10.252 139.022 139.022 0 0 1-5.32-7.88c-.29-.454-1.67-2.134-1.61-2.583-.27.595-.55 1.19-.82 1.785.09-.084.17-.167.26-.252 2.25-2.208-.81-6.12-3.06-3.912Z"/><path fill="#506673" d="M1240.74 368.793c.16 4.49.32 8.98.49 13.47.11 3.125 1.94 6.305 5.12 6.384 2.72.066 5.95-2.231 5.82-5.587l-.48-13.47c-.12-3.125-1.95-6.305-5.13-6.384-2.71-.066-5.94 2.231-5.82 5.587ZM1252.5 693.789c.17 4.489.33 8.98.49 13.469.11 3.125 1.95 6.305 5.12 6.384 2.72.066 5.95-2.231 5.83-5.587-.16-4.491-.32-8.98-.49-13.471-.11-3.124-1.94-6.305-5.12-6.383-2.72-.066-5.95 2.231-5.83 5.588ZM1348.94 671.388a6464.94 6464.94 0 0 0-7.34-10.845c-1.71-2.531-5.67-2.769-7.73-.67-2.3 2.345-2.43 5.756-.6 8.457 2.45 3.615 4.9 7.23 7.34 10.846 1.72 2.531 5.68 2.769 7.74.669 2.3-2.345 2.42-5.756.59-8.457ZM1171.76 409.724c-2.44-3.615-4.89-7.23-7.34-10.845-1.71-2.531-5.67-2.769-7.73-.67-2.3 2.345-2.43 5.756-.6 8.457l7.35 10.844c1.71 2.531 5.67 2.77 7.73.67 2.3-2.344 2.42-5.754.59-8.456Z"/><path fill="#FD8D65" d="M1166 454.721c23.38 25.08 49.19 51.435 75.03 73.611 12.01 10.304 14.32 10.412 16.49 7.623 1.73-2.231 1.22-6.157-5.79-12.675-25.65-23.862-57.99-48.13-85.73-68.559Z"/><path fill="#FDCDBD" d="M1376.25 1273.28c.1 2.44 47.52 113.48 40.43 127.59-7.1 14.11-106.33-23.96-106.33-23.96l65.9-103.63Z"/><path fill="#EE7051" d="M1180.46 1644.42c13.47-6.58 32.21-14.25 46.35-9.65 18.85 6.13 21.05 6.31 23.82 1.39 10.13-17.98-19.63-36.47-30.89-39.54-11.27-3.08-75.62 48.16-65.15 54.54 5.21 3.18 15.45-1.64 25.87-6.74Z"/><path fill="#FD8B67" d="M1228.6 1611.16c5.28-7.21 5.06-13.7 1.64-28.19-3.42-14.48 41.39-19 41.57-29.62.18-10.61-43.01-36.31-56.95-29.89-13.94 6.41-90.98 122.01-79.98 132.23 23.47 21.8 75.45-21.75 75.45-21.75s6.74-7.05 18.27-22.78Z"/><path fill="#fff" d="M1203.68 1636.84c6.56-12.66 2.77-26.32-7.73-34.68-3.1-2.47-.11-8.19 3.03-5.69 13.12 10.45 18.15 27.74 9.89 43.7-1.91 3.69-7.1.37-5.19-3.33ZM1183.15 1607.42c11.94 12.1 16.26 32.04 5.26 46.6-2.47 3.27-6.7-1.42-4.25-4.66 8.91-11.79 4.03-27.87-5.26-37.28-2.85-2.88 1.41-7.54 4.25-4.66ZM1164.51 1622.37c8.87 11.44 10.68 26.16 3.04 39.01-2.1 3.54-7.31.24-5.19-3.33 6.09-10.24 5.11-21.71-2.1-31.02-2.49-3.21 1.74-7.89 4.25-4.66Z"/><path fill="#FDCDBD" d="M1283.66 1214.62s-30.43-4.57-52.53 2.74c-22.09 7.32 34.49 48.01 34.49 48.01s23.46-6.4 25.13-6.86c1.67-.46 19.6-5.49 19.6-5.49l-26.69-38.4Z"/><path fill="#FDCDBD" d="M1252.5 1260.3c9.57.53 18.48-6.34 20.99-16.91l16.89-71.16c2.88-12.1-3.74-24.45-14.77-27.6-11.03-3.15-22.3 4.1-25.17 16.2l-16.89 71.16c-2.87 12.1 3.74 24.45 14.77 27.6 1.39.4 2.79.63 4.18.71Z"/><path fill="#FDCDBD" d="M1328.56 1138.44s-11.52 73.23-30.47 72.02c-18.96-1.22-47.23-25.5-48.81-53.46-1.59-27.96 66.77-83.19 79.28-18.56Z"/><path fill="#D24D2C" d="M1317.61 1093.21s15.41 2.82 22.51 15.35c7.1 12.52-13.81 13.5-13.81 13.5s23.56 21.03 14.69 29.24c-8.87 8.21-39.08-20.3-39.08-20.3s-4.44 7.25-14.06 5.84c-9.63-1.42-11.94-10.27-11.94-10.27s.43 8.77-10.89 10.63c0 0 .84 28.97-14.11 29.58-14.95.61-30.77-25.32-23.23-52.56 5.47-19.78 20.89-22.04 20.89-22.04s1.33-19.42 20.4-19.86c14.69-.34 22.43 13.4 22.43 13.4s16.59-17.31 26.2 7.49Z"/><path fill="#FBB89E" d="M1261.67 1184.71c6.04 7.38 13.35 13.63 21 18.89 1.7 1.16.13 4.13-1.58 2.96-7.86-5.4-15.42-11.85-21.63-19.42-1.35-1.64.86-4.07 2.21-2.43Z"/><path fill="#45403E" d="M1307.86 1186.51c-7.85 1.39-18.23-5.25-21.27-13.28-.39-1.02 1.13-1.46 1.51-.46 2.63 6.96 12.57 13.28 19.35 12.09.98-.17 1.4 1.48.41 1.65Z"/><path fill="#FBB89E" d="M1309.24 1169.54c-1.29 3.1-4.51 3.57-7.26 3.61-2.01.02-2.02-3.41 0-3.43 1.68-.02 3.75.03 4.56-1.91.83-2.01 3.53-.27 2.7 1.73Z"/><path fill="#E08D77" d="M1299.43 1146.69c-1.58-1.46-3.63-1.59-5.48-.74-1.86.85-2.67-2.47-.84-3.31 2.92-1.34 6.16-.58 8.53 1.62 1.53 1.43-.69 3.85-2.21 2.43ZM1319.57 1152.55c-1.57-1.46-3.62-1.59-5.48-.74-1.85.85-2.66-2.46-.83-3.31 2.92-1.33 6.15-.57 8.53 1.63 1.53 1.42-.69 3.84-2.22 2.42Z"/><path fill="#FDCDBD" d="M1274.9 1151.35s-4.71-13.99-10.61-12.24c-5.9 1.74-7.4 14.89-2.64 18.5 4.76 3.61 11.98-2.93 12.62-4.6l.63-1.66Z"/><path fill="#D24D2C" d="M1292.33 1087.79c-5.55-8.95-13.32-20.9-24.73-18.86-4.74.85-8.5 4.03-11.55 8.03-6.3 8.28-1.8 16.69 3.33 23.74.62.85-.48 2.07-1.1 1.21-3.42-4.7-8.61-10.51-7.77-17.08.83-6.42 6.67-12.87 11.64-15.81 13.47-7.96 24.81 7.08 31.53 17.91.57.91-.79 1.77-1.35.86ZM1315.66 1093.29c9.99 2.14 29.8 8.59 28.3 23.58-1.45 14.6-18.29 11.36-26.75 8.31-.95-.34-.54-2 .42-1.65 4.44 1.6 9.19 3.39 13.94 2.94 7.78-.75 13.51-8.75 9.29-16.93-4.67-9.06-16.99-12.75-25.62-14.6-.98-.21-.57-1.86.42-1.65Z"/><path fill="#D24D2C" d="M1247.01 1083.71c.22 6.57 4.4 11.17 8.45 15.47.72.77-.38 1.98-1.11 1.21-4.37-4.64-8.67-9.64-8.91-16.68-.03-1.1 1.53-1.1 1.57 0Z"/><path fill="#D24D2C" d="M1236.48 1091.75c7.31-2.26 14.84-.88 21.05 3.93.82.63.04 2.12-.79 1.48-5.9-4.57-12.89-5.91-19.85-3.75-.97.3-1.38-1.36-.41-1.66Z"/><path fill="#FBB89E" d="M1268.03 1161.71c-1.6 1.01-3.99-.5-5.28-1.46-2.67-1.98-4.46-5.09-5.12-8.53-.78-4.11-.92-9.85 2.35-12.69 3.52-3.06 7.98-1.43 10.26 2.4 1.11 1.85-1.6 3.57-2.7 1.73-1.39-2.65-2.96-2.94-4.69-.88-1.83.3-2.62 1.37-2.38 3.2-.06.99-.04 2.01-.01 2.99.08 2.22.46 4.35 1.59 6.23.72 1.18 1.67 2.2 2.76 2.94.74.5 2.23.75 1.64 1.11 1.75-1.09 3.33 1.87 1.58 2.96Z"/><path fill="#45403E" d="M1289.23 1153.55c3.22-2.23 9.59-.44 9.4 4.53-.03.91-1.34.92-1.3 0 .14-3.89-5.07-4.93-7.44-3.29-.72.49-1.37-.74-.66-1.24Z"/><path fill="#45403E" d="M1291.45 1155.61c-.45 1.44.17 2.98 1.4 3.44 1.23.46 2.58-.33 3.04-1.76.45-1.44-.18-2.98-1.41-3.44-1.22-.47-2.58.32-3.03 1.76ZM1309.83 1159.88c3.22-2.24 9.59-.44 9.4 4.52-.03.92-1.34.92-1.3 0 .15-3.88-5.07-4.93-7.44-3.29-.71.5-1.37-.74-.66-1.23Z"/><path fill="#45403E" d="M1312.04 1161.94c-.45 1.43.18 2.97 1.41 3.43 1.22.47 2.58-.32 3.03-1.76.46-1.44-.17-2.98-1.4-3.44-1.22-.46-2.58.33-3.04 1.77Z"/><path fill="#63A5D4" d="M1283.66 1214.62s23.77 31.55 0 37.03c-23.76 5.49-53.21-34.04-53.21-34.04s-65.37.9-76.76 118.13c-10.54 108.45-17.96 196.73-17.96 196.73s120 53.4 233.4 35.11c0 0-3.29-164.63-14.96-243.27 0 0 33.38-9.77 38.33-46.17 0 0-49.22-52.09-108.84-63.52Z"/><path fill="#506673" d="M1332.87 1494.26c-3.71.3-187.02-37.46-270.72 0-59.98 26.85-113.729 223.67 292.29 115.49l-21.57-115.49Z"/><path fill="#4AB0A2" d="M1369.13 1567.58s-65.56 16-95.16-26.52c-21.21-30.48 76.44-46.66 76.44-46.66l18.72 73.18Z"/><path fill="#FBB89E" d="M1281.18 1214.39c-1.01 6.24-3.57 12.12-4.36 18.4-.14 1.09-1.65.62-1.51-.46.8-6.28 3.35-12.16 4.37-18.39.17-1.09 1.68-.63 1.5.45Z"/><path fill="#FDCDBD" d="M1149.67 1270.02c-25.94 34.14-36.11 102.74-23.29 137.5-.01 0-.01 0 0 .01 2.81 7.66 6.89 14.76 12.36 20.88 26.59 29.75 66.15 53.27 87.02 64.49.05.02.07.02.07.02 8.6 4.64 14.01 7.15 14.01 7.15 17.23 13.33 28.17 12.35 40.31-6.55 12.15-18.9 29.82-14.5 11.02-24.97-33.96-18.92-70.01-61.2-94.7-87.76-5.7-6.13 1.65-72.45 13.65-83.49 15.55-14.3-60.45-27.28-60.45-27.28Z"/><path fill="#FD9D87" d="M1195.47 1381.88c-8.45-10.31-20.76-15.67-33.04-17.84-1.79-.31-1.03-3.29.74-2.97 12.74 2.24 25.54 7.95 34.29 18.62 1.21 1.48-.77 3.67-1.99 2.19Z"/><path fill="#FDDFD8" d="M1126.38 1407.52c-.01 0-.01 0 0 .01 2.81 7.66 6.89 14.76 12.36 20.88 26.59 29.75 66.15 53.27 87.02 64.49.05.02.07.02.07.02s6.8-15.2-10.31-31.28c-17.13-16.08-50.29-35.36-60.33-49.87-6.19-8.94-20.42-11.21-28.81-4.25Z" opacity=".6"/><path fill="#506673" d="M1373.86 1467.25s131.72-29.65 145.58 79.56c13.87 109.2-306.91 76.23-306.91 76.23l-17.42-122.89 178.75-32.9Z"/><path fill="#2B3B45" d="M1354.96 1503.33c-37.59 16.78-77.37 26.43-117.9 28.72-2.39.14-2.38-3.93 0-4.07 40.21-2.27 79.62-11.94 116.91-28.58 2.21-.99 3.18 2.95.99 3.93Z"/><path fill="#4AB0A2" d="M1226.96 1512.15h171.43c4.98 0 9.42-3.42 11.12-8.54l39.78-120.21c2.73-8.23-2.83-16.92-10.81-16.92H1289.4c-8.53 0-16.16 5.86-19.07 14.66l-43.37 131.01Z"/><path fill="#E7F2F4" d="M1359.53 1430.44c4.6 2.59 6.39 8.79 3.83 13.79-2.84 5.55-9.44 7.2-14.5 4.4-4.68-2.59-6.35-8.38-4.01-13.52 2.65-5.82 8.94-7.23 14.3-5.97 1.73.41 1 3.31-.72 2.9-3.4-.8-7.36-.43-9.9 2.48-2.8 3.21-2.73 8.51.84 10.99 3.36 2.34 8.16 1.89 10.8-1.48 2.85-3.65 1.77-8.87-2.03-10.99-1.56-.89-.18-3.48 1.39-2.6ZM1407.71 1376.93c-19.73.13-39.47.25-59.21.37-9.87.06-19.74.12-29.61.19-9.51.06-24.36-2.89-31.91 4.63-6.12 6.1-9.2 16.32-12.39 24.44-3.75 9.55-7.18 19.26-10.3 29.09-6.17 19.43-11.03 39.32-14.73 59.49-.35 1.89-2.99 1.09-2.64-.8 4.06-22.14 9.53-43.93 16.57-65.16 3.32-10.02 6.97-19.91 10.94-29.65 3.02-7.4 6.04-15.99 12.21-20.98 5.91-4.78 13.47-3.95 20.41-3.99l32.57-.21 68.09-.42c1.77-.01 1.77 2.99 0 3Z"/><path fill="#4AB0A2" d="M1226.96 1512.15h-87.66s-.74-10.79 21.91-10.76c8.24 0 69.32-.03 69.32-.03l-3.57 10.79Z"/><path fill="#63A5D4" d="M1227.65 1217.7s-80.21 18.05-105.92 85.44c0 0 47.58 55.63 108.45 48.32 60.87-7.32 9.29-102.09 9.29-102.09l-11.82-31.67Z"/><path fill="#fff" d="M1297.18 1217.69c-1.02 10.76 8.8 22.61 4.74 32.86-3.66 9.25-16.31 9.85-23.98 9.23-24.03-1.94-44.39-21.38-61.42-38.4-.75-.75.36-1.96 1.1-1.22 14.49 14.48 30.94 30.26 50.27 35.98 10.48 3.1 37.34 4.98 32.7-15.1-1.82-7.86-5.77-14.94-4.97-23.35.1-1.08 1.66-1.09 1.56 0Z"/><path fill="#4995C2" d="M1289.85 1215.75c3.42 9.16 9.95 18.85 7.44 29.32-2.32 9.67-12.4 11.4-20.36 9.9-2.81-.53-4.9-1.95-7.54-2.99-2.76-1.08-5.7-1.19-8.49-2.07-3.86-1.22-6.96-3.72-10.1-6.4-8.04-6.88-15.53-14.51-23.62-21.33-3.15-2.65-.04-8.61 3.15-5.92 5.1 4.29 9.99 8.87 14.91 13.4 5.93 5.46 11.76 12.05 19.44 14.15 6.76 1.85 27.15 11.23 26.83-4.05-.16-7.8-5.05-15.12-7.69-22.18-1.53-4.08 4.52-5.86 6.03-1.83Z"/><path fill="#FDCDBD" d="m1327.97 1540.94-90.93 4.71 13.59 90.51 82.47-3.36 30.78-38.59-9.44-35.9-26.47-17.37Z"/><path fill="#EE7051" d="M1392.49 1651.64c-12.25-9-29.53-20.05-44.17-18.16-19.53 2.53-21.73 2.29-23.69-3.07-7.19-19.61 25-32.28 36.57-33.21 11.58-.93 67.05 61.56 55.75 65.9-5.64 2.16-14.97-4.5-24.46-11.46Z"/><path fill="#FD8B67" d="M1350.22 1609.88c-4.09-8.08-2.87-14.45 2.75-28.08 5.62-13.64-37.84-26.44-36.37-36.94 1.47-10.49 48.01-27.76 60.75-18.84 12.75 8.92 70.74 137.2 58.31 145.22-26.5 17.1-70.97-35.51-70.97-35.51s-5.56-8.2-14.47-25.85Z"/><path fill="#fff" d="M1365.08 1641.87c-5.54-16.7 1.95-33.1 16.14-40.7 3.46-1.86 6.51 3.83 3.04 5.69-11.94 6.39-18.07 19.14-13.39 33.26 1.33 3.99-4.48 5.71-5.79 1.75ZM1398.83 1620.21c-10.74 7.59-17.55 22.66-10.61 35.84 1.94 3.68-3.25 7-5.18 3.32-8.66-16.42-.76-35.31 12.76-44.85 3.26-2.31 6.28 3.4 3.03 5.69ZM1415.49 1637.9c-8.38 7.62-11.96 18.75-7.49 30.03 1.53 3.85-3.65 7.21-5.19 3.33-5.51-13.92-2.22-28.34 8.43-38.02 2.96-2.68 7.23 1.95 4.25 4.66Z"/><path fill="#506673" d="M1186.44 1519.76s111.06 2.17 109.3 23.35c-1.76 21.17-17.6 29.62-13.64 49.01 3.96 19.39 2.68 43.86-10.29 50.09-12.98 6.22-141.25 9.17-190.74-9.41l105.37-113.04Z"/><path fill="#2B3B45" d="M1293.15 1542.81c-.05-11.55-21.14-12.11-28.02-12.48-8.47-.44-16.97-.07-25.44-.72-17.57-1.34-33.93-7.98-51.78-6.92-2.39.14-2.38-3.93 0-4.07 11.08-.66 21.58.87 32.38 3.45 11.87 2.83 23.36 3.79 35.48 3.95 10.64.14 41.02-1.31 41.1 16.79.01 2.62-3.7 2.63-3.72 0ZM1130.76 1516.2c-8.29-6.88-21.72-16.46-32.57-13.29-2.31.67-3.29-3.26-.98-3.93 11.97-3.5 26.28 6.12 35.42 13.7 1.88 1.56.04 5.1-1.87 3.52Z"/><path fill="#2B3B45" d="M1123.32 1496.69c1.86 2.96 2.85 6.32 3.06 9.9.15 2.62-3.56 2.61-3.72 0-.16-2.88-1.06-5.47-2.55-7.84-1.36-2.16 1.86-4.2 3.21-2.06ZM1447.3 1486.05c-8.53 3.32-16.84 7.18-24.95 11.6-2.13 1.16-4.02-2.35-1.87-3.52 8.39-4.57 17-8.57 25.84-12.01 2.25-.87 3.22 3.06.98 3.93Z"/><path fill="#2B3B45" d="m1432.82 1480.22-5.55 14.67c-.91 2.38-4.5 1.34-3.58-1.08l5.55-14.67c.9-2.39 4.5-1.34 3.58 1.08Z"/><path fill="#fff" d="M1326.11 1283.87c-3.91 16.29-11.25 30.84-21.74 43.15-.69.8-1.79-.41-1.11-1.22 10.32-12.1 17.5-26.38 21.35-42.39.25-1.06 1.76-.61 1.5.46ZM1313.68 1297.2c-5.67 9.72-13.19 17.68-22.26 23.53-.87.56-1.66-.92-.79-1.48 8.85-5.71 16.17-13.43 21.7-22.92.55-.92 1.9-.06 1.35.87Z"/><path fill="#63A5D4" d="M1384.36 1256.67c-7.59-7.35-16.1-13.16-25.49-17.35-2.18-.97-1.23-4.91.99-3.92 10 4.46 19.04 10.56 27.13 18.39 1.8 1.74-.84 4.61-2.63 2.88Z"/><path fill="#384955" d="M1032.47 1495.35c-7.72 7.13-13.52 16-16.92 26.44-1.6 4.9-8.78 2.79-7.16-2.16 3.82-11.75 10.11-21.99 18.83-30.04 3.63-3.35 8.91 2.38 5.25 5.76Z"/><path fill="#A1B7BF" d="M1033.45 1540.93s7.43-29.74 23.02-28.78c15.59.96 5.2 27.43 14.85 40.05 9.66 12.62 3.35 49.03-14.85 47.11-18.19-1.91-28.72-30.91-23.02-58.38Z"/><path fill="#74BEE9" d="M1135.73 1291.65s39.56-43.19 58.49-52.36c18.94-9.18 23.99-.63 15.89 9.56-8.09 10.17-34.45 22.8-40.39 39.09-5.94 16.28-9.65 25-15.22 20.44-5.57-4.56-21.19-6.5-18.77-16.73Z"/><path fill="#fff" d="M1386.92 1273.01c-3.35 21.14-19.36 35.48-35.24 46-.86.57-1.64-.91-.78-1.48 15.54-10.3 31.23-24.25 34.51-44.97.17-1.09 1.68-.63 1.51.45ZM1207.42 1342.62c-16.33-2.44-31.4-9.57-46.2-17.2-12.5-6.44-24.51-13.73-33.08-25.91-.61-.87.75-1.73 1.35-.87 8.9 12.65 21.76 19.83 34.69 26.41 14.03 7.13 28.24 13.61 43.66 15.91.99.15.57 1.8-.42 1.66Z"/><path fill="#FDCDBD" d="M1113.76 1393.01c1.31 15.37 7.97 28.72 15.82 41.22 2.04 3.24-2.79 6.3-4.81 3.08-8.47-13.49-15.17-27.79-16.58-44.3-.33-3.91 5.24-3.89 5.57 0ZM762.579 1244.65c-12.809 49.44-26.298 94.04-38.704 120.58-1.265 2.73-4.09 4.13-6.795 3.38l-86.287-23.99c-3.844-1.07-4.588-6.7-1.173-8.92 1.977-1.29 5.085-2.33 9.89-2.68 16.443-1.2 36.72-10.83 43.376-47.74 1.569-8.66 4.883-29.59 9.044-56.53.429-2.77.863-5.61 1.311-8.51 5.788-37.63 12.929-84.92 19.232-126.9l.002-.01c8.553-57 78.582-87.09 78.582-87.09l158.305 25.32s-142.434 19.49-159.13 95.95c-8.265 37.87-17.756 78.95-27.653 117.14Z"/><path fill="#FFDACF" d="M693.242 1220.24c5.788-37.63 12.929-84.92 19.231-126.9l.003-.01s23.343 11.31 18.024 47.01c-5.308 35.71-17.727 81.74-37.258 79.9Z"/><path fill="#FDCDBD" d="M867.73 1235.02c6.686 50.87 10.949 97.63 9.488 127.41-.14 3.06-2.199 5.6-4.95 6.12l-87.708 16.67c-3.908.74-6.68-4.06-4.388-7.62 1.326-2.06 3.778-4.4 8.036-6.86 14.565-8.46 29.503-26.31 21.857-63-1.787-8.6-6.539-29.19-12.757-55.65-.638-2.72-1.297-5.51-1.966-8.36-8.706-36.95-19.765-83.32-29.615-124.47l-.002-.01c-13.381-55.88 39.378-114.66 39.378-114.66s195.137.65 180.575 48.11c-19.478 63.48-140.26 44.33-132.09 85.28 7.59 38.04 8.981 57.74 14.142 97.04Z"/><path fill="#FFDACF" d="M795.344 1243.73c-8.706-36.95-19.765-83.32-29.615-124.47l-.002-.01s25.518-.12 33.934 34.86c8.427 34.98 14.198 82.56-4.317 89.62Z"/><path fill="#FD9D87" d="M770.836 1071.85c-5.62 3.1-7.256 10.36-7.866 16.7-1.034 10.74.457 21.82 2.17 32.39 3.173 19.58 8.452 38.54 13.49 57.61.435 1.64 2.784.94 2.346-.71-4.387-16.61-8.976-33.1-12.163-50.06-2.015-10.71-3.731-21.68-3.706-32.65.016-7.02.379-17.34 6.956-20.98 1.399-.77.169-3.07-1.227-2.3Z"/><path fill="#384955" d="M775.475 1382.37c4.19-7.65 10.948-13.02 17.516-18.16 2.34-1.84 4.752-3.71 7.519-4.47 2.77-.75 5.661-.33 8.49-.03 23.707 2.52 47.986-2.43 68.361-16.54 2.043 5.18 2.931 10.93 2.563 16.6-.193 2.98-.777 6.05-2.44 8.4-2.676 3.78-7.356 4.73-11.604 5.42l-72.78 11.76c-5.348.86-10.839 1.72-16.087.39-.873-.22-1.886-.69-2.022-1.68-.081-.59.2-1.17.484-1.69Z"/><path fill="#566F7E" d="M786.361 1375.21c2.881-5.04 8.127-7.93 13.208-10.48 1.107-1.15 2.287-2.25 3.741-2.78 1.672-.61 3.805-.23 4.692 1.34.628 1.12.489 2.59-.071 3.76-.56 1.18-1.484 2.12-2.423 2.99-4.421 4.11-9.711 7.34-15.483 8.59-.856.18-1.753.32-2.587.07-.834-.25-1.586-.99-1.605-1.9-.015-.57.248-1.1.528-1.59Z"/><path fill="#384955" d="M625 1337.31c6.625-5.18 14.775-7.14 22.67-8.99 2.813-.65 5.705-1.31 8.518-.8 2.816.52 5.314 2.17 7.799 3.68 20.819 12.69 44.879 18.79 68.697 14.77-.011 5.64-1.291 11.3-3.693 16.34-1.26 2.64-2.913 5.2-5.293 6.63-3.828 2.29-8.467 1.12-12.61-.11-23.671-7.03-47.343-14.05-71.013-21.07-5.218-1.55-10.566-3.17-14.893-6.69-.72-.58-1.48-1.45-1.243-2.42.143-.58.612-.99 1.061-1.34Z"/><path fill="#566F7E" d="M637.585 1335.5c4.474-3.35 10.335-3.71 15.924-3.82 1.431-.57 2.914-1.06 4.442-.91 1.755.17 3.573 1.45 3.812 3.28.169 1.3-.491 2.58-1.432 3.42-.942.83-2.131 1.29-3.311 1.68-5.55 1.83-11.576 2.48-17.322 1.09-.851-.2-1.725-.47-2.399-1.06-.674-.6-1.092-1.61-.78-2.45.195-.52.631-.9 1.066-1.23Z"/><path fill="#51C4D2" d="M817.38 881.438c2.46-25.012 13.636-48.198 31.482-64.005 13.928-12.338 33.643-22.207 61.072-22.207 73.145 0 109.716 30.079 137.146 100.265 27.43 70.186 20.17 173.669-2.55 210.949-34.66 56.85-83.902.98-179.726 50.38-23.404 12.06-12.956-47.61-50.649-46.93-27.489.49-41.366-23.89-59.653-13.87-18.286 10.03-80.605-.43-36.571-60.16 46.134-62.576 92.396-82.693 99.449-154.422Z"/><path fill="#384955" d="M839.143 703.424s-11.578 34.875 14.096 46.453c25.674 11.578 10.146-54.709 10.146-54.709l-24.242 8.256Z"/><path fill="#384955" d="M849.84 722.473s-27.752-29.388 1.804-50.433c29.556-21.044 44.567-3.39 53.066-2.49 8.5.899 60.319 41.763 12.963 88.051l-67.833-35.128Z"/><path fill="#FDCDBD" d="M919.86 814.466c-8.504 2.897-17.918-1.279-22.058-10.289l-16.433-35.758c-4.614-10.038-.932-22.276 8.221-27.335 9.152-5.06 20.313-1.023 24.927 9.015l16.433 35.758c4.614 10.038.932 22.276-8.221 27.334-.938.521-1.898.945-2.869 1.275Z"/><path fill="#FDCDBD" d="M849.836 722.473s1.875 64.858 29.637 66.539c17.05 1.032 28.733-16.096 39.943-42.661 9.649-22.861-53.451-80.607-69.58-23.878Z"/><path fill="#FBB89E" d="M869.668 753.611c.968 3.114 3.76 3.837 6.437 4.142 1.797.206 1.784-2.879 0-3.083-1.247-.143-3.238-.311-3.726-1.879-.579-1.868-3.297-1.065-2.711.82Z"/><path fill="#E08D77" d="M879.132 730.361c3.382-3.128 8.398-3.086 12.489-2.208 1.767.379 2.524-2.593.747-2.974-5.197-1.114-10.996-.908-15.224 3.001-1.385 1.28.612 3.453 1.988 2.181ZM856.817 737.05c2.04-3.487 7.141-3.52 10.401-3.192 1.801.181 1.79-2.904 0-3.085-4.409-.444-10.192.209-12.83 4.72-.979 1.676 1.454 3.225 2.429 1.557Z"/><path fill="#45403E" d="M890.453 735.884c-3.423-2.536-10.304-.773-10.254 4.572.01.991 1.416.994 1.407 0-.04-4.217 5.653-5.081 8.138-3.24.751.557 1.455-.78.709-1.332Z"/><path fill="#FD8B67" d="M870.98 767.13s2.367 5.698 9.059 3.02c6.692-2.678 5.146-9.527 5.146-9.527s-4.451-1.794-6.267-.174c-1.816 1.62-2.096.633-4.448 1.327-2.353.692-3.49 5.354-3.49 5.354Z"/><path fill="#45403E" d="M869.139 767.165c6.32 1.788 15.432-2.848 18.495-9.134.395-.811-.73-1.535-1.125-.721-2.75 5.645-11.317 10.092-17.023 8.477-.813-.23-1.16 1.148-.347 1.378ZM888.011 738.031c.443 1.565-.28 3.202-1.615 3.655-1.334.455-2.776-.445-3.219-2.009-.443-1.564.28-3.202 1.615-3.657 1.334-.454 2.776.446 3.219 2.011ZM868.062 741.956c-3.422-2.535-10.305-.773-10.253 4.571.01.992 1.415.994 1.406 0-.04-4.215 5.652-5.081 8.138-3.239.751.556 1.455-.779.709-1.332Z"/><path fill="#45403E" d="M865.621 744.104c.443 1.566-.279 3.202-1.615 3.657-1.335.455-2.776-.445-3.219-2.009-.443-1.566.279-3.202 1.614-3.657 1.336-.455 2.777.444 3.22 2.009Z"/><path fill="#384955" d="M894.047 670.946s-19.156-2.949-7.785-27.488c11.371-24.539 37.393-1.97 43.593 8.834 6.2 10.804-9.535 34.265-19.577 32.078-10.039-2.185-16.231-13.424-16.231-13.424ZM851.117 735.233s-3.818-22.319 14.697-26.256c11.428-2.431 21.099-1.518 30.781 6.524 7.845 6.516 11.88 16.46 14.567 25.312 2.687 8.853 6.661 16.407 6.661 16.407 2.782-1.686 4.473-31.798 4.314-32.362-.16-.564-32.428-38.657-32.428-38.657l-28.485 5.181-18.314 21.231 8.207 22.62Z"/><path fill="#384955" d="M868.373 708.737c6.834 1.181 11.832 5.557 17.473 9.544 7.069 4.998 14.575 7.927 22.907 9.296 1.77.291 2.534-2.679.747-2.974-9.116-1.497-16.848-5.033-24.448-10.606-5.057-3.706-9.793-7.174-15.931-8.235-1.77-.304-2.533 2.666-.748 2.975ZM884.743 660.655c-6.786-2.893-9.681-10.92-8.202-18.457 1.372-6.992 5.872-11.377 11.763-13.875 5.323-2.258 11.735-3.232 16.567.833 5.66 4.763 4.793 12.569 3.867 19.359-.265 1.942 2.445 2.78 2.712.82 1.084-7.949 1.869-17.106-4.646-22.602-6.049-5.101-14.285-3.883-20.827-.735-14.071 6.775-18.281 30.683-1.98 37.631 1.686.719 2.418-2.262.746-2.974Z"/><path fill="#384955" d="M887.566 671.144c-3.825-5.83-6.415-13.325-5.043-20.587 1.988-10.516 11.256-10.334 19.047-9.066 1.77.289 2.534-2.683.747-2.974-7.514-1.223-16.901-1.933-21.118 6.592-4.288 8.667-.929 20.171 3.939 27.59 1.047 1.597 3.488.059 2.428-1.555ZM920.63 649.267c7.192 6.781 11.147 14.558 8.337 25.069-2.195 8.215-7.94 14.734-13.128 20.824-1.235 1.449.75 3.635 1.988 2.181 6.533-7.67 13.509-16.03 14.78-26.894 1.175-10.038-3.307-17.062-9.988-23.36-1.366-1.289-3.364.883-1.989 2.18ZM919.691 755.729c5.853-1.234 11.604.759 15.82 5.361 1.284 1.401 3.274-.778 1.988-2.181-4.955-5.406-11.706-7.598-18.556-6.154-1.774.375-1.023 3.348.748 2.974Z"/><path fill="#FDCDBD" d="M898.695 736.085s5.284-12.1 10.433-9.994c5.148 2.104 5.487 14.019.95 16.815-4.537 2.796-10.508-3.728-10.945-5.274l-.438-1.547Z"/><path fill="#FBB89E" d="M904.168 746.071c1.3 1.003 3.699-.255 4.848-.97 2.66-1.653 4.501-4.485 5.263-7.711.928-3.928 1.382-9.078-2.06-11.671-3.029-2.281-6.586-.956-8.667 2.026-1.1 1.575 1.341 3.113 2.428 1.556 1.247-1.789 3.685-2.264 5.186-.553 1.261 1.436.902 3.926.72 5.689-.216 2.099-.699 4.079-1.914 5.76-.764 1.056-1.719 1.937-2.839 2.511-.598.306-1.879.446-1.546.702-1.484-1.145-2.891 1.527-1.419 2.661Z"/><path fill="#FB8E6A" d="M736.246 977.026c5.349 2.117 10.822 3.373 16.483 3.927 3.604.353 3.582-5.817 0-6.168-5.15-.503-10.128-1.783-14.987-3.707-3.411-1.349-4.88 4.609-1.496 5.948Z"/><path fill="#FBB89E" d="M906.611 770.944c-4.562 6.91-10.051 12.101-17.55 14.759-1.714.608-.981 3.586.748 2.974 8.226-2.917 14.22-8.589 19.229-16.177 1.064-1.609-1.375-3.149-2.427-1.556Z"/><path fill="#FDCDBD" d="M1033.2 889.177c16.68 35.649 21.68 79.314 4.14 107.124.01.001.01.001 0 .012-3.85 6.127-8.72 11.487-14.63 15.687-28.746 20.42-67.782 32.55-88.166 37.9-.043.01-.064.01-.064.01-8.396 2.22-13.61 3.26-13.61 3.26-17.558 7.99-27.001 4.76-34.281-14.49-7.291-19.26-23.621-19.21-5.199-24.35 33.28-9.29 64.513-32.202 91.019-50.227 6.116-4.152 7.048-44.052-1.519-56.358-11.106-15.948 62.31-18.568 62.31-18.568Z"/><path fill="#FD9D87" d="M974.403 964.125c9.955-8.778 21.456-13.505 34.247-12.608 1.64.114 1.63-2.671 0-2.785-13.507-.948-25.57 4.188-36.043 13.424-1.275 1.123.533 3.082 1.796 1.969Z"/><path fill="#FDDFD8" d="M1037.34 996.302c.01.002.01.002 0 .012-3.85 6.126-8.72 11.486-14.63 15.686-28.744 20.42-67.78 32.55-88.164 37.91h-.064s-3.241-14.84 14.708-25.28c17.959-10.44 50.597-20.23 62.04-30.823 7.05-6.524 19.99-5.439 26.11 2.495Z" opacity=".6"/><path fill="#51C4D2" d="M937.359 882.468s29.461 19.15 22.858 39.76c-6.604 20.61 13.654 20.61 28.161 10.583 14.502-10.026 60.322 2.697 63.782-3.725 3.45-6.422-23.37-67.018-37.59-74.816-14.23-7.798-77.211 28.198-77.211 28.198Z"/><path fill="#fff" d="M973.527 939.672c-3.722 0-6.79-1.124-8.845-3.29-2.533-2.668-3.519-6.727-2.928-12.062 1.262-11.379-9.774-27.222-9.887-27.38-.342-.487-.259-1.186.185-1.563.446-.374 1.083-.284 1.425.202.475.677 11.656 16.723 10.294 29.01-.51 4.602.27 8.029 2.318 10.186 2.245 2.366 6.114 3.2 10.895 2.346.557-.105 1.075.313 1.165.921.09.607-.286 1.18-.839 1.278a21.65 21.65 0 0 1-3.783.352ZM846.641 895.68c-.057 5.734-.931 11.066-2.987 16.337-1.443 3.702-3.738 7.185-4.72 11.1-1.489 5.936.554 9.974 4.378 14.108 1.165 1.26 2.962-.708 1.796-1.969-7.028-7.598-2.072-14.35.995-22.302 2.139-5.548 3.018-11.288 3.078-17.274.017-1.792-2.522-1.795-2.54 0ZM877.974 829.776c.94 12.47 4.473 24.066 10.631 34.604.879 1.505 3.078.11 2.193-1.405-5.917-10.125-9.38-21.204-10.284-33.199-.134-1.773-2.674-1.789-2.54 0ZM888.77 840.121c3.419 5.48 8.365 9.309 14.253 10.903 1.587.43 2.264-2.256.676-2.685-5.232-1.417-9.686-4.737-12.735-9.623-.919-1.472-3.12-.08-2.194 1.405Z"/><path fill="#384955" d="M896.237 1059.17H741.676c-4.487 0-8.493-3.08-10.024-7.7L695.78 943.09c-2.455-7.418 2.555-15.258 9.751-15.258H839.94c7.698 0 14.573 5.284 17.199 13.219l39.098 118.119Z"/><path fill="#E7F2F4" d="M776.716 985.503c-4.151 2.33-5.764 7.922-3.454 12.432 2.561 5.005 8.509 6.495 13.072 3.965 4.222-2.334 5.727-7.555 3.619-12.187-2.389-5.252-8.067-6.519-12.899-5.379-1.553.367-.895 2.979.657 2.612 3.064-.723 6.633-.385 8.922 2.237 2.522 2.889 2.464 7.672-.755 9.906-3.035 2.111-7.363 1.711-9.743-1.334-2.57-3.285-1.591-7.992 1.828-9.912 1.416-.796.168-3.133-1.247-2.34ZM733.271 937.263l53.388.331 26.694.166c8.58.054 21.968-2.606 28.774 4.176 5.519 5.499 8.292 14.717 11.167 22.036a417.139 417.139 0 0 1 9.287 26.227c5.563 17.521 9.946 35.451 13.282 53.641.313 1.7 2.694.98 2.381-.72-3.661-19.97-8.596-39.61-14.941-58.754a425.813 425.813 0 0 0-9.865-26.73c-2.72-6.672-5.442-14.421-11.007-18.917-5.328-4.306-12.142-3.561-18.402-3.6l-29.363-.183-61.395-.381c-1.59-.011-1.591 2.697 0 2.708Z"/><path fill="#384955" d="M896.234 1059.17h79.042s.658-9.72-19.761-9.7c-7.427.01-62.499-.02-62.499-.02l3.218 9.72Z"/><path fill="#51C4D2" d="M816.853 837.698c6.242-15.75 17.253-27.834 31.612-34.69 2.955-1.411.401-6.156-2.535-4.755-15.029 7.176-26.878 20.179-33.412 36.666-1.276 3.218 3.049 6.025 4.335 2.779Z"/><path fill="#384955" d="M703.743 920.624a678.283 678.283 0 0 1 41.066-.382c3.233.068 3.233-5.438 0-5.506a678.283 678.283 0 0 0-41.066.382c-3.222.127-3.238 5.634 0 5.506Z"/><path fill="#6DDAE3" d="M988.301 883.161s18.749 13.584 16.399 24.23c-2.34 10.647 2.01 12.85 12.39 12.483 10.38-.367 26.15 6.857 25.97-3.914-.19-10.771-34.67-86.765-60.45-91.171-25.777-4.405-4.687 12.34 0 24.893 4.687 12.554-2.837 25.938 5.691 33.479Z"/></g><defs><radialGradient id="b" cx="0" cy="0" r="1" gradientTransform="matrix(942.284 0 0 1006.43 1246.36 1032.62)" gradientUnits="userSpaceOnUse"><stop stop-color="#419CAC"/><stop offset=".165" stop-color="#52A5C9"/><stop offset=".344" stop-color="#5FADE1"/><stop offset=".534" stop-color="#69B2F2"/><stop offset=".741" stop-color="#6EB5FC"/><stop offset="1" stop-color="#70B6FF"/></radialGradient><radialGradient id="c" cx="0" cy="0" r="1" gradientTransform="matrix(838.674 0 0 895.764 1083.28 982.851)" gradientUnits="userSpaceOnUse"><stop stop-color="#D9FF51"/><stop offset=".152" stop-color="#BFFF68"/><stop offset=".334" stop-color="#A7FF7D"/><stop offset=".526" stop-color="#96FF8B"/><stop offset=".737" stop-color="#8CFF94"/><stop offset="1" stop-color="#89FF97"/></radialGradient><radialGradient id="d" cx="0" cy="0" r="1" gradientTransform="matrix(1013.67 0 0 1082.67 1036.69 1057.5)" gradientUnits="userSpaceOnUse"><stop stop-color="#006DCC"/><stop offset=".07" stop-color="#0077D4"/><stop offset=".269" stop-color="#008FE6"/><stop offset=".481" stop-color="#00A0F3"/><stop offset=".712" stop-color="#00AAFB"/><stop offset="1" stop-color="#00ADFD"/></radialGradient><clipPath id="a"><path fill="#fff" d="M0 0h2318v2115H0z"/></clipPath></defs></svg>