<svg xmlns="http://www.w3.org/2000/svg" width="2300" height="2300" fill="none"><path fill="#D5E4F7" d="M41.51 1903.78c8.403-.01 2177.14 2.73 2177.14 2.73-18.29-102.75-33.84-209.37-81.75-300.58-47.98-91.36-132.23-151.18-176.9-244.73-44.88-93.98-3.51-162.81 54.14-231.21 69.55-82.51 129.51-179.656 154.13-290.904 40.33-182.164-32.08-369.358-203.68-398.597-184.1-31.37-376.23 70.235-560.25 81.533-89.5 5.499-185.46-.462-267.42-45.848-75.35-41.726-135.46-113.584-215.265-145.835-151.189-61.102-392.924-27.401-484.99 140.332-64.464 117.44-63.9 255.565-54.245 388.806 7.678 106.008 86.204 230.893 59.825 335.673-20.595 81.8-119.701 137.56-178.577 190.53-60.852 54.76-125.006 122.75-163.126 200.65-46.457 94.95-63.895 209.81-59.033 317.45Z"/><path fill="#F1CBA9" d="M1732.89 1145.38s-2.24-6.41 8.91-62.88c0 0 48.59-80.78 32.61-138.442-3.59-7.976-7.98-15.699-12.72-23.083-7.35-11.441-16.8-24.928-29.98-30.542-2.7-1.152-5.81-2.069-8.71-1.143-3.15 1.001-5.23 4.017-5.98 7.148-.98 4.146-.5 8.812 1.17 12.745 6.91 16.267 11.47 34.323 11.21 51.943-.1 7.246-1.1 14.555-3.67 21.365-2.03 5.351-4.71 12.037-9.29 15.809-5.29 4.37-11.15-2.099-14.19-6.018-5.41-6.98-10.66-14.15-14.67-21.988-2.24-4.395-2.96-9.858-6.53-13.536-4.06-4.169-12.21-3.23-15.75 1.116-4.85 5.947 1.79 18.078 3.85 24.573a698.652 698.652 0 0 1 9.61 33.173c9.19 35.09 20.81 72.11 4.88 106.93 17.5 9.57 30.83 14.95 49.25 22.83Z"/><path fill="#FFB98A" d="M1107.98 1212.31v123.43h110.22l-2.98-123.43h-107.24Z"/><path fill="#777" d="m1215.5 1226.4.65 21.21c-32.2 16.27-55.32 13.95-55.32 13.95-32.42-.29-52.87-16.15-52.87-16.15l.19-12.62 107.35-6.39Z" opacity=".2"/><path fill="#FFCDAB" d="M1009.35 1076.93c15.62 0 28.27-14.36 28.27-32.07s-12.65-32.07-28.27-32.07c-15.614 0-28.272 14.36-28.272 32.07s12.658 32.07 28.272 32.07Z"/><path fill="#FFDFCA" d="M1013.49 1066.87c10.32 0 18.68-9.49 18.68-21.19 0-11.7-8.36-21.19-18.68-21.19-10.31 0-18.674 9.49-18.674 21.19 0 11.7 8.364 21.19 18.674 21.19Z"/><path fill="#FFCDAB" d="M1313.14 1076.93c15.62 0 28.28-14.36 28.28-32.07s-12.66-32.07-28.28-32.07c-15.61 0-28.27 14.36-28.27 32.07s12.66 32.07 28.27 32.07Z"/><path fill="#FFDFCA" d="M1309.04 1066.87c10.32 0 18.68-9.49 18.68-21.19 0-11.7-8.36-21.19-18.68-21.19-10.31 0-18.67 9.49-18.67 21.19 0 11.7 8.36 21.19 18.67 21.19Z"/><path fill="#FFCDAB" d="M1310.25 1012.04c3.72 31.71-2.48 84.56-2.48 84.56-16.94 79.22-81.78 155.53-153.09 150.71-65.78-4.44-117.02-74.83-138.72-146.18 0 0-9.08-66.44-4.13-90.6V885.197h298.42v126.843Z"/><path fill="#211D1E" d="M1021.43 1077.87s8.63-4.01 7.3-21.82c0 0-4.87-40.34-2.38-49.37 0 0 11.78-85.249 23.06-96.165 0 0 3.32-11.668 13.94-3.012 0 0 32.52 42.153 59.72 47.802 0 0 62.05 17.691 98.21 13.55 0 0-41.47-36.134-44.12-44.413 0 0-1.22-4.893 2.98-1.757 0 0 32.85 25.467 96.77 28.229 0 0-40.56-24.127-47.25-52.566-.03-.124-.05-.249-.08-.378 0 0-.17-2.758 2.32-.943 0 0 52.75 20.013 70.45 86.756 0 0 7.74 46.917 1.55 61.477-6.19 14.55 0 1 0 1l-.33 23.56s1.16 6.59 6.88 6.49c0 0 5.39.1 6.64-6.39 0 0 10.03-141.332 4.28-160.402 0 0-10.61-87.32-120.77-113.414 0 0-75.87-22.206-126.96 24.839 0 0-15.04-6.526-15.49-23.087 0 0-1.77-2.509-2.1 1.882l2.41 26.187s.74 1.975-2.74.943c0 0-7.71-9.693-22.97-5.458 0 0-7.89 1.41-11.29 4.235 0 0 19.83-1.601 25.97 8.563 0 0 3.32 2.918-.83 3.483 0 0-31.8-5.961-40.21 31.428 0 0-3.98 62.476 2.66 121.194l5.09 79.037c0-.01 2.65 8.28 7.29 8.52Z"/><path fill="#302C2D" d="M1048.73 858.374c.01 1.077.17 2.18.49 3.283.84 2.923 2.5 5.445 4.17 7.869 13.62 19.773 28.66 39.025 46.71 53.732 13.69 11.156 28.87 20.004 44.97 25.698 10.59 3.745 21.66 6.156 32.75 5.578-1.06 0-3.6-2.834-4.51-3.55a2479.6 2479.6 0 0 1-5.33-4.195c-3.36-2.642-6.67-5.395-10.1-7.922-6.28-4.631-12.43-9.533-18.52-14.515-12.51-10.253-24.67-21.125-35.91-33.145a239.57 239.57 0 0 1-5.31-5.845 270.342 270.342 0 0 1-20.35-26.151c-2.79-4.071-4.8-8.523-9.07-10.672-4.15-2.091-9.52-2.54-13.75-.534-3.85 1.833-6.3 5.89-6.24 10.369Z"/><path fill="#F1CBA9" d="M596.973 1175.42s-5.109-3.33-15.885-65.92c0 0-46.991-89.52-31.54-153.431 3.474-8.839 7.721-17.397 12.305-25.582 7.102-12.678 16.243-27.629 28.983-33.848 2.612-1.276 5.62-2.295 8.431-1.267 3.039 1.112 5.059 4.448 5.78 7.922.957 4.595.487 9.764-1.129 14.123-6.678 18.025-11.09 38.038-10.839 57.566.091 8.034 1.063 16.13 3.553 23.679 1.953 5.928 4.553 13.338 8.972 17.518 5.122 4.84 10.792-2.33 13.725-6.67 5.227-7.74 10.31-15.684 14.18-24.371 2.169-4.871 2.859-10.93 6.317-15.004 3.926-4.622 11.804-3.581 15.231 1.236 4.686 6.593-1.733 20.036-3.721 27.233a841.748 841.748 0 0 0-9.29 36.766c-8.882 38.88-20.129 79.91-4.718 118.5-16.932 10.62-22.544 12.81-40.355 21.55Z"/><path fill="#071B40" d="M1302.34 1298.46c4.38 1.26 8.71 2.73 12.99 4.43 18.56 7.35 35.83 18.3 54.6 25.12 27.77 10.1 57.14 16.21 86.34 12.66 59.72-7.27 107.14-59.71 137.47-107.49 26.76-42.15 72.54-91.1 99.67-132.38l49.76 5.59c2.27 9.89-1.36 19.78-2.79 29.48-4.22 28.69-11.37 57.6-22.41 84.73-11.42 28.1-27.65 53.03-45.49 77.49-.79 1.08-1.58 2.17-2.38 3.25-36.16 49.25-80.95 95.32-128.89 133.47-40.37 32.13-92.77 65.5-146.15 66.25-14.23.2-43.3-8.59-50.46 9.54-1.51 3.81-1.65 7.98-1.74 12.07-2.77 118.7 4.81 214.22 7.3 332.89.03 1.1.05 2.19.08 3.29-226.09 56.1-379.62-.29-379.62-.29 1.357-64.65 4.541-105.4 5.898-170.04.718-35.63 1.522-73.1 2.255-109.43.435-21.64 13.846-72.78-17.497-76.3-9.663-1.08-19.45-.8-29.148-1.37-48.633-2.88-94.686-24.15-133.99-52.64-52.119-37.78-100.086-87.63-138.947-138.59-37.21-48.8-60.119-115.48-75.989-175.18 0 0-7.023-19.38-4.894-28.65l52.382-12.69c27.136 41.27 71.483 97.36 98.243 139.51 30.328 47.78 77.753 100.23 137.472 107.49 32.975 4.01 64.582-4.62 95.781-15.41 15.583-5.38 29.975-14.23 45.064-21.06 16.2-7.34 31.85-9.64 49.15-10.44 14.64-.68 31.33-2.16 45.49 3.01 0 0 26.12 35.8 56.84 37.42 18.43.98 38.24-24.96 55.84-37.42 15.27-1.8 30.62-2.99 45.95-3.53 14.11-.49 28.18 1.3 41.82 5.22ZM1163.54 674.973 888.582 799.584l281.148 95.381 270.06-98.704-276.25-121.288Z"/><path fill="#0D42AA" d="M1320.1 794.398h-317.95v90.648h317.95v-90.648Z"/><path fill="#DC9626" d="M1394.03 639.395h-5.19v230.921h5.19V639.395Z"/><path fill="#DC9626" d="M1391.43 868.122c-8.04 0-14.56 7.398-14.56 16.521v42.041H1406v-42.041c0-9.123-6.53-16.521-14.57-16.521Z"/><path fill="#fff" d="m1097.68 1261.67 61.01 72.52-41.69 47.3-59.82-67.85 40.5-51.97ZM1219.71 1261.67l-61.02 72.52 41.7 47.3 59.81-67.85-40.49-51.97Z"/><path fill="#EAEAEA" d="M1287.47 1295.08c-8.91-1.52-17.81-2.58-26.86-2.26-5.18.18-10.7.62-15.89.95l15.49 19.87-59.82 67.85-41.69-47.3-41.7 47.3-59.81-67.85 16.03-20.58c-5.74.09-11.75.03-17.16.28-8.43.39-16.3 1.46-24.2 2.98l129.01 162.76 126.6-164Z"/><path fill="#0D42AA" d="M1315.65 1303.03c-4.27-1.7-8.96-3.31-13.35-4.57-4.89-1.41-9.84-2.53-14.83-3.38l-126.59 164.33-128.87-162.99c-8.32 1.59-16.64 4.09-24.95 7.85-10.593 4.8-20.699 10.52-31.263 15.41v191.53c4.274 5.9 5.855 14.37 6.121 23.6h360.702c.07-3.94.12-7.83.21-11.81.1-4.09.24-8.27 1.74-12.07 1.75-4.42 4.82-7.23 8.64-8.97l.2-180.96c-12.64-6.01-24.81-12.84-37.76-17.97Z"/><path fill="#0A2249" d="M944.686 1465.03c.514 17.95-3.349 38.35-3.596 50.52-.827 41.15-1.741 83.57-2.553 123.93-1.537 73.21-5.144 119.35-6.682 192.56 0 0 23.952 8.79 67.135 16.61v-383.62h-54.304Z"/><path fill="#071B40" d="M998.996 1465.03v383.62c26.434 4.78 60.084 9.19 99.884 11.01v-394.63h-99.884Z"/><path fill="#0A2249" d="M1098.91 1465.03v394.63c29.97 1.36 63.42 1.24 99.89-1.31v-393.32h-99.89Z"/><path fill="#071B40" d="M1198.79 1858.35c31.18-2.18 64.57-6.15 99.89-12.49v-380.83h-99.89v393.32Z"/><path fill="#0A2249" d="M1361.78 1832.37c-.03-1.24-.06-2.48-.08-3.72-2.74-129.88-10.81-235.36-8.52-363.62h-54.53v380.83c20.43-3.67 41.48-8.11 63.13-13.49Z"/><path fill="#5C8CE0" d="M2258.46 1903.77H41.532c-22.937 0-41.532 21.1-41.532 47.11C0 1976.9 18.595 1998 41.532 1998H2258.46c22.94 0 41.53-21.1 41.53-47.12 0-26.01-18.59-47.11-41.53-47.11Z"/><path fill="#A0CFF9" d="M2283.36 1913.25c.53 2.99.81 6.06.81 9.22 0 26.02-18.59 47.11-41.53 47.11H25.713c-9.356 0-17.96-3.55-24.9-9.47 3.78 21.6 20.571 37.89 40.723 37.89H2258.47c22.93 0 41.53-21.09 41.53-47.11-.01-15.41-6.55-29.04-16.64-37.64Z"/><path fill="#EFEFEF" d="M1450.29 1398.64H849.731c-27.45 0-49.704 25.24-49.704 56.38l20.427 448.75h659.106l20.43-448.75c0-31.13-22.25-56.38-49.7-56.38Z"/><path fill="#071B40" d="M819.406 1880.95h661.184l-1.04 22.83H820.445l-1.039-22.83ZM1150 1639.62c20.68 0 37.45-19.02 37.45-42.48 0-23.46-16.77-42.48-37.45-42.48-20.69 0-37.45 19.02-37.45 42.48 0 23.46 16.76 42.48 37.45 42.48Z"/><path fill="#fff" d="M1955.85 1784.06h-352.39v6.94h352.39v-6.94ZM1957 1791.01h-353.54v6.95H1957v-6.95Z"/><path fill="#F0E2D5" d="M1958.12 1797.96h-354.66v6.94h354.66v-6.94Z"/><path fill="#fff" d="M1957 1804.91h-353.54v6.94H1957v-6.94ZM1955.85 1811.86h-352.39v6.95h352.39v-6.95Z"/><path fill="#F0E2D5" d="M1958.12 1818.81h-354.66v6.95h354.66v-6.95Z"/><path fill="#F0E2D5" d="M1958.12 1825.75h-354.66v6.95h354.66v-6.95Z"/><path fill="#fff" d="M1955.85 1832.71h-352.39v6.95h352.39v-6.95ZM1957 1839.67h-353.54v6.95H1957v-6.95Z"/><path fill="#F0E2D5" d="M1957 1846.61h-353.54v6.95H1957v-6.95Z"/><path fill="#fff" d="M1955.85 1853.56h-352.39v6.95h352.39v-6.95ZM1955.85 1860.51h-352.39v6.94h352.39v-6.94Z"/><path fill="#F0E2D5" d="M1954.54 1867.46h-351.08v6.95h351.08v-6.95Z"/><path fill="#fff" d="M1954.54 1874.4h-351.08v6.95h351.08v-6.95ZM1955.85 1881.36h-352.39v6.94h352.39v-6.94Z"/><path fill="#F0E2D5" d="M1955.85 1888.3h-352.39v6.95h352.39v-6.95Z"/><path fill="#CCC" d="M1614.56 1786.5s83.57 96.57 286.25 103.25h-272.56s-7.48.44-13.69-2.44c-6.2-2.88 0-100.81 0-100.81Z" opacity=".29"/><path fill="#071B40" d="M1614.53 1786.5s28.08 45.53 0 100.81c0 0-60.23-3.64-25.6-89.68 0 0 19.36-25.01 25.6-11.13Z"/><path fill="#D6409A" d="M1967.36 1903.78h-339.15c-31.44 0-57.02-29.01-57.02-64.68v-4.38c0-35.66 25.58-64.68 57.02-64.68h339.15c3.42 0 6.19 3.14 6.19 7.01 0 3.88-2.77 7.02-6.19 7.02h-339.15c-24.62 0-44.65 22.72-44.65 50.66v4.37c0 27.93 20.03 50.66 44.65 50.66h339.15c3.42 0 6.19 3.14 6.19 7.02 0 3.86-2.77 7-6.19 7Z"/><path fill="#fff" d="M1854.43 1668.97h-303.5v5.99h303.5v-5.99Z"/><path fill="#fff" d="M1855.42 1674.95h-304.49v5.99h304.49v-5.99Z"/><path fill="#F0E2D5" d="M1856.38 1680.94h-305.45v5.99h305.45v-5.99Z"/><path fill="#fff" d="M1855.42 1686.92h-304.49v5.99h304.49v-5.99Z"/><path fill="#fff" d="M1854.43 1692.9h-303.5v5.99h303.5v-5.99Z"/><path fill="#F0E2D5" d="M1856.38 1698.89h-305.45v5.99h305.45v-5.99Z"/><path fill="#fff" d="M1856.38 1704.88h-305.45v5.99h305.45v-5.99Z"/><path fill="#fff" d="M1854.43 1710.87h-303.5v5.98h303.5v-5.98Z"/><path fill="#F0E2D5" d="M1855.42 1716.85h-304.49v5.99h304.49v-5.99Z"/><path fill="#F0E2D5" d="M1855.42 1722.83h-304.49v5.99h304.49v-5.99Z"/><path fill="#fff" d="M1854.43 1728.82h-303.5v5.98h303.5v-5.98ZM1854.43 1734.81h-303.5v5.99h303.5v-5.99Z"/><path fill="#F0E2D5" d="M1853.31 1740.79h-302.38v5.99h302.38v-5.99Z"/><path fill="#fff" d="M1853.31 1746.78h-302.38v5.99h302.38v-5.99ZM1854.43 1752.77h-303.5v5.99h303.5v-5.99Z"/><path fill="#F0E2D5" d="M1854.43 1758.75h-303.5v5.98h303.5v-5.98Z"/><path fill="#CCC" d="M1561.35 1662.34s80.07 92.53 274.26 98.93h-261.15s-7.17.43-13.12-2.33c-5.93-2.77.01-96.6.01-96.6Z" opacity=".28"/><path fill="#071B40" d="M1560.43 1671.07s24.19 39.21 0 86.82c0 0-51.88-3.13-22.05-77.24 0 0 16.67-21.54 22.05-9.58Z"/><path fill="#FFCA60" d="M1864.34 1772.07h-292.1c-27.08 0-49.12-24.99-49.12-55.71v-3.77c0-30.72 22.04-55.71 49.12-55.71h292.1c2.94 0 5.32 2.71 5.32 6.04 0 3.34-2.38 6.04-5.32 6.04h-292.1c-21.21 0-38.46 19.58-38.46 43.63v3.77c0 24.06 17.25 43.63 38.46 43.63h292.1c2.94 0 5.32 2.71 5.32 6.04 0 3.34-2.38 6.04-5.32 6.04Z"/><path fill="#fff" d="M1567.25 1444.57h303.51v-5.98h-303.51v5.98Z"/><path fill="#fff" d="M1566.28 1450.54h304.49v-5.98h-304.49v5.98Z"/><path fill="#F0E2D5" d="M1565.3 1456.54h305.46v-5.98H1565.3v5.98Z"/><path fill="#fff" d="M1566.28 1462.53h304.49v-5.99h-304.49v5.99Z"/><path fill="#fff" d="M1567.25 1468.51h303.51v-5.99h-303.51v5.99Z"/><path fill="#F0E2D5" d="M1565.31 1474.5h305.46v-5.99h-305.46v5.99Z"/><path fill="#fff" d="M1565.3 1480.48h305.46v-5.99H1565.3v5.99Z"/><path fill="#fff" d="M1567.26 1486.46h303.51v-5.99h-303.51v5.99Z"/><path fill="#F0E2D5" d="M1566.28 1492.46h304.49v-5.99h-304.49v5.99Z"/><path fill="#F0E2D5" d="M1566.28 1498.44h304.49v-5.99h-304.49v5.99Z"/><path fill="#fff" d="M1567.26 1504.42h303.51v-5.98h-303.51v5.98ZM1567.25 1510.41h303.51v-5.98h-303.51v5.98Z"/><path fill="#F0E2D5" d="M1568.38 1516.39h302.39v-5.99h-302.39v5.99Z"/><path fill="#fff" d="M1568.37 1522.38h302.39v-5.99h-302.39v5.99Z"/><path fill="#fff" d="M1567.26 1528.37h303.51v-5.99h-303.51v5.99Z"/><path fill="#F0E2D5" d="M1567.25 1534.35h303.51v-5.99h-303.51v5.99Z"/><path fill="#CCC" d="M1860.35 1431.96s-80.07 92.54-274.26 98.93h261.15s7.17.43 13.11-2.33c5.94-2.77 0-96.6 0-96.6Z" opacity=".28"/><path fill="#071B40" d="M1861.2 1440.69s-24.19 39.21 0 86.83c0 0 51.88-3.14 22.05-77.25 0 0-16.67-21.53-22.05-9.58Z"/><path fill="#D6409A" d="M1557.32 1541.69h292.1c27.08 0 49.11-24.99 49.11-55.71v-3.77c0-30.72-22.03-55.71-49.11-55.71h-292.1c-2.94 0-5.32 2.7-5.32 6.04s2.38 6.04 5.32 6.04h292.1c21.21 0 38.46 19.57 38.46 43.63v3.77c0 24.05-17.25 43.63-38.46 43.63h-292.1c-2.94 0-5.32 2.7-5.32 6.04 0 3.33 2.38 6.04 5.32 6.04Z"/><path fill="#fff" d="M1939.08 1553.78h-303.51v5.98h303.51v-5.98Z"/><path fill="#fff" d="M1940.06 1559.75h-304.49v5.99h304.49v-5.99Z"/><path fill="#F0E2D5" d="M1941.03 1565.74h-305.46v5.99h305.46v-5.99Z"/><path fill="#fff" d="M1940.06 1571.73h-304.49v5.99h304.49v-5.99Z"/><path fill="#F0E2D5" d="M1939.08 1577.71h-303.51v5.99h303.51v-5.99Z"/><path fill="#fff" d="M1941.03 1583.7h-305.46v5.99h305.46v-5.99Z"/><path fill="#F0E2D5" d="M1941.03 1589.69h-305.46v5.98h305.46v-5.98Z"/><path fill="#fff" d="M1939.08 1595.67h-303.51v5.99h303.51v-5.99Z"/><path fill="#F0E2D5" d="M1940.06 1601.66h-304.49v5.99h304.49v-5.99Z"/><path fill="#fff" d="M1940.06 1607.65h-304.49v5.99h304.49v-5.99Z"/><path fill="#F0E2D5" d="M1939.08 1613.63h-303.51v5.99h303.51v-5.99Z"/><path fill="#fff" d="M1939.08 1619.62h-303.51v5.98h303.51v-5.98Z"/><path fill="#F0E2D5" d="M1937.95 1625.61h-302.38v5.98h302.38v-5.98ZM1937.95 1631.59h-302.38v5.98h302.38v-5.98Z"/><path fill="#fff" d="M1939.08 1637.58h-303.51v5.98h303.51v-5.98Z"/><path fill="#F0E2D5" d="M1939.08 1643.56h-303.51v5.98h303.51v-5.98Z"/><path fill="#CCC" d="M1642.02 1552.18s76.36 88.25 261.56 94.35h-249.05s-6.84.4-12.51-2.23c-5.66-2.63 0-92.12 0-92.12Z" opacity=".28"/><path fill="#FFCA60" d="M1645.14 1555.87s24.18 39.22 0 86.83c0 0-51.88-3.13-22.06-77.24 0 0 16.67-21.54 22.06-9.59Z"/><path fill="#5C8CE0" d="M1949 1656.88h-292.1c-27.08 0-49.11-24.99-49.11-55.71v-3.77c0-30.72 22.03-55.71 49.11-55.71H1949c2.94 0 5.32 2.7 5.32 6.04s-2.38 6.04-5.32 6.04h-292.1c-21.21 0-38.46 19.57-38.46 43.63v3.77c0 24.05 17.25 43.63 38.46 43.63H1949c2.94 0 5.32 2.7 5.32 6.04 0 3.33-2.38 6.04-5.32 6.04Z"/><path fill="#0D42AA" d="m384.986 1864.56-108.591-354.45 223.755-230.49 11.18 13.97-215.615 222.11 104.984 342.67-15.713 6.19Z"/><path fill="#2A6BBF" d="M703.552 1300.11c-47.959-60.36-125.218-70.05-172.557-21.64-47.344 48.4-46.842 136.57 1.117 196.93l171.44-175.29Z"/><path fill="#8EB4FB" d="m690.32 1313.7 13.27-13.57c-47.959-60.36-125.218-70.04-172.557-21.64-2.275 2.33-4.404 4.77-6.459 7.27 47.665-41.03 120.007-29.6 165.746 27.94Z"/><path fill="#2A6BBF" d="M560.898 1256.51c-14.599-18.37-38.12-21.32-52.535-6.58-14.411 14.73-14.262 41.57.341 59.95l52.194-53.37Z"/><path fill="#8EB4FB" d="m558.359 1259.1 2.501-2.56c-14.599-18.38-38.119-21.33-52.535-6.59-.47.48-.882 1.01-1.321 1.51 14.486-13.45 37.132-10.24 51.355 7.64Z"/><path fill="#FAAA4B" d="M604.332 1401.09c9.855 12.4 25.728 14.39 35.453 4.44 9.726-9.94 9.624-28.06-.231-40.46l-35.222 36.02Z"/><path fill="#2A6BBF" d="M493.328 1903.78H284.745c-7.608 0-13.776-7-13.776-15.63v-15.4c0-8.63 6.168-15.62 13.776-15.62h208.583c7.608 0 13.776 6.99 13.776 15.62v15.4c0 8.64-6.168 15.63-13.776 15.63Z"/><path fill="#8EB4FB" d="M496.673 1857.23c.11.74.204 1.5.204 2.29v19.07c0 7.62-5.443 13.79-12.157 13.79H272.898c-.635 0-1.243-.1-1.851-.21.968 6.52 5.933 11.5 11.952 11.5h211.823c6.713 0 12.156-6.18 12.156-13.79v-19.08c.004-6.89-4.474-12.55-10.305-13.57Z"/><path fill="#2F54A4" d="m644.462 1521.83-15.595 2.18 19.796 182.08 15.595-2.18-19.796-182.08Z"/><path fill="#33334F" d="m664.158 1703.93-15.596 2.18 9.773 17.08 5.823-19.26Z"/><path fill="#071B40" d="m644.419 1521.84-17.892 2.5 1.035 9.52 17.892-2.5-1.035-9.52Z"/><path fill="#071B40" d="m626.55 1524.34-4.507.63 6.584 60.56 4.507-.63-6.584-60.56Z"/><path fill="#446FBC" d="m632.483 1533.19-2.635.37 18.745 172.57 2.635-.37-18.745-172.57Z"/><path fill="#2F54A4" d="m641.654 1513.68-12.396 1.73.915 8.42 12.396-1.73-.915-8.42Z"/><path fill="#33334F" d="m660.619 1702.41-15.541-2.63 5.38 19.42 10.161-16.79Z"/><path fill="#EF9737" d="m672.744 1532.34-13.795 173.16 15.649 1.6 13.795-173.16-15.649-1.6Z"/><path fill="#FAAA4B" d="m688.503 1533.87-5.288-.54-13.795 173.16 5.288.54 13.795-173.16ZM675.382 1532.59l-2.644-.27-13.795 173.16 2.644.27 13.795-173.16Z"/><path fill="#D6409A" d="M682.498 1510.22c-4.329-.44-8.152 3.18-8.544 8.09l-.142 1.75 15.674 1.61.142-1.76c.392-4.91-2.8-9.24-7.13-9.69Z"/><path fill="#FFDD9F" d="m689.496 1521.49-15.691-1.61-.987 12.38 15.692 1.61.986-12.38Z"/><path fill="#EF9737" d="m702.394 1537.56-16.07 172.91 15.627 1.87 16.07-172.91-15.627-1.87Z"/><path fill="#FAAA4B" d="m718.038 1539.47-5.28-.63-16.063 172.92 5.28.63 16.063-172.92ZM705.011 1537.95l-2.64-.31-16.079 172.91 2.641.32 16.078-172.92Z"/><path fill="#D6409A" d="M712.35 1515.62c-4.321-.52-8.195 3.04-8.65 7.94l-.165 1.76 15.65 1.87.165-1.76c.455-4.9-2.678-9.29-7-9.81Z"/><path fill="#FFDD9F" d="m719.259 1527.06-15.669-1.87-1.149 12.37 15.67 1.87 1.148-12.37Z"/><path fill="#D6409A" d="M724.607 1903.78H600.514l-10.713-257.23H735.32l-10.713 257.23Z"/><path fill="#FF6299" d="m589.801 1646.55 10.713 257.23h21.297l-10.713-257.23h-21.297Z"/><path fill="#fff" d="M1490.06 994.256h437.1V673.785h-437.1v320.471Z"/><path stroke="#2C478A" stroke-miterlimit="10" d="M1513.2 969.917H1904V698.119h-390.8v271.798Z"/><path fill="#FFCA60" d="M1541.07 890.265h339.54v-23.256h-339.54v23.256ZM1559.02 853.638h299.18v-60.934h-299.18v60.934ZM1678.61 746.926c0 17.158 12.26 31.068 27.39 31.068 15.12 0 27.38-13.91 27.38-31.068 0-17.157-12.26-31.067-27.38-31.067-15.13-.004-27.39 13.906-27.39 31.067Z"/><path stroke="#2C478A" stroke-miterlimit="10" d="M1859.76 924.613h-98.02M1660.36 924.613h-98.02"/><path fill="#D6409A" d="m1554.52 740.063-21.85 37.931-1.88-7.754-6.49 1.544 21.84-37.927 8.38 6.206Z"/><path fill="#D6409A" d="m1539.14 734.549 23.26 36.828-7.05-.819-1.08 7.429-23.25-36.828 8.12-6.61Z"/><path fill="#fff" stroke="#E2A32A" stroke-miterlimit="10" stroke-width=".75" d="M1540.48 713.294c-.56 2.553-3.38 3.412-4.99 1.517-2.15-2.509-5.82-.103-4.97 3.256.64 2.531-1.43 4.871-3.66 4.146-2.96-.961-5.08 3.207-2.87 5.636 1.67 1.828.92 5.026-1.33 5.667-2.99.849-2.99 5.663 0 6.508 2.25.64 3 3.834 1.33 5.667-2.21 2.429-.09 6.597 2.87 5.636 2.23-.725 4.3 1.619 3.66 4.146-.85 3.358 2.82 5.765 4.97 3.256 1.61-1.891 4.43-1.036 4.99 1.517.75 3.385 4.99 3.385 5.74 0 .56-2.553 3.38-3.412 4.99-1.517 2.15 2.509 5.82.102 4.97-3.256-.64-2.531 1.43-4.871 3.66-4.146 2.96.961 5.08-3.207 2.87-5.636-1.67-1.828-.92-5.027 1.34-5.667 2.98-.85 2.98-5.663 0-6.508-2.26-.641-3.01-3.835-1.34-5.667 2.21-2.429.09-6.597-2.87-5.636-2.23.725-4.3-1.615-3.66-4.146.85-3.359-2.82-5.765-4.97-3.256-1.61 1.89-4.43 1.036-4.99-1.517-.75-3.385-4.99-3.385-5.74 0Z"/><path fill="#fff" stroke="#E2A32A" stroke-miterlimit="10" stroke-width=".75" d="M1527.25 736.773c0 10.085 7.21 18.261 16.1 18.261s16.1-8.176 16.1-18.261c0-10.084-7.21-18.26-16.1-18.26s-16.1 8.176-16.1 18.26Z"/><path fill="#DC9626" d="m1543.05 729.949-2.11 4.849-4.71.778 3.41 3.773-.8 5.329 4.21-2.514 4.22 2.514-.8-5.329 3.41-3.773-4.72-.778-2.11-4.849Z"/><path fill="#F1CBA9" d="M1682.9 1030.71c-.64-2.32-1.27-4.64-1.9-6.94-3.4-12.55-7.11-24.999-11.06-37.352-2.35-7.304-9.5-20.8-4.95-27.829 3.33-5.138 11.4-6.623 15.62-2.073 3.73 4.013 5.3 10.312 7.73 15.209 4.34 8.737 10.95 16.054 16.65 23.741 2.03 2.74 3.57 7.074 6.94 8.184-10.91 7.27-20.67 16.42-29.03 27.06Z"/><path fill="#D6409A" d="m578.966 881.589-27.845-31.586-27.845 31.586 27.845 31.587 27.845-31.587ZM817.075 1172.64l-27.845-31.59-27.844 31.59 27.845 31.58 27.844-31.58ZM254.306 956.077l-27.845-31.587-27.845 31.587 27.845 31.586 27.845-31.586ZM384.467 1158.87l-37.201-14.64-12.913 42.2 37.201 14.64 12.913-42.2ZM276.16 1764.6l-45.414-17.88-15.763 51.52 45.414 17.88 15.763-51.52Z"/><path fill="#DC9626" d="m442.525 969.993 14.241 29.234 25.767-16.153-14.241-29.233-25.767 16.152ZM273.973 788.519l-44.02 37.776 33.301 49.935 44.02-37.775-33.301-49.936Z"/><path fill="#fff" d="m561.571 1115.91 8.718 17.89 15.774-9.88-8.718-17.9-15.774 9.89ZM477.196 699.304l8.718 17.895 15.775-9.889-8.717-17.895-15.776 9.889Z"/><path fill="#DC9626" d="m367.95 1449.06 8.718 17.89 15.775-9.89-8.717-17.89-15.776 9.89Z"/><path fill="#fff" d="m477.134 1544.6 8.718 17.89 15.773-9.89-8.717-17.89-15.774 9.89ZM134.716 1771.15l8.718 17.89 15.773-9.89-8.717-17.89-15.774 9.89Z"/><path fill="#D6409A" d="m1922.21 1142.71 39.09 5.42 4.78-44.34-39.09-5.42-4.78 44.34ZM1583.42 692.86l39.08 5.427 4.79-44.34-39.09-5.427-4.78 44.34ZM1741.49 472.873l39.08 5.423 4.78-44.34-39.08-5.423-4.78 44.34Z"/><path fill="#fff" d="m2099.83 839.049 39.08 5.423 4.78-44.34-39.08-5.423-4.78 44.34Z"/><path fill="#D6409A" d="m1414.16 369.46 36.68-16.26-14.34-41.606-36.68 16.26 14.34 41.606Z"/><path fill="#fff" d="m640.409 598.591 39.087 5.423 4.781-44.34-39.088-5.423-4.78 44.34Z"/><path fill="#D6409A" d="m1924.76 788.408 37.26-14.46-12.75-42.267-37.26 14.46 12.75 42.267ZM1924.73 1414.78l37.26-14.46-12.74-42.26-37.27 14.46 12.75 42.26Z"/><path fill="#DC9626" d="m1981.78 977.547-27.09-13.073-11.53 30.733 27.09 13.073 11.53-30.733ZM2191.51 981.177l7.56-32.275-28.46-8.57-7.55 32.275 28.45 8.57Z"/><path fill="#fff" d="m1808.74 945.911-16.58-8.004-7.06 18.813 16.58 8.004 7.06-18.813ZM1974.32 1572.91l-16.59-8-7.05 18.81 16.58 8.01 7.06-18.82ZM2036.25 1489.36l-16.59-8-7.05 18.81 16.58 8.01 7.06-18.82Z"/><path fill="#DC9626" d="m1780.36 548.029-16.58-8.004-7.06 18.813 16.59 8.005 7.05-18.814ZM696.167 832.189l-16.585-8.004-7.056 18.813 16.585 8.004 7.056-18.813Z"/><path fill="#D6409A" d="m707.987 718.319-16.585-8.004-7.056 18.814 16.585 8.004 7.056-18.814Z"/><path fill="#DC9626" d="m1377.03 516.429 7.08-30.241-26.66-8.029-7.08 30.241 26.66 8.029Z"/><path fill="#fff" d="m1642.48 549.159-16.59-8.004-7.06 18.813 16.59 8.004 7.06-18.813Z"/><path fill="#D6409A" d="m1775.34 744.509-16.58-8.004-7.06 18.813 16.59 8.004 7.05-18.813ZM989.326 419.42l-14.334-41.606-36.677 16.26 14.334 41.606 36.677-16.26Z"/><path fill="#DC9626" d="m1153.55 346.905-10.35 31.264 27.55 11.741 10.35-31.264-27.55-11.741Z"/><path fill="#fff" d="m1133.11 544.348-6.33 19.138 16.87 7.189 6.34-19.138-16.88-7.189Z"/><path fill="#DC9626" d="m783.927 593.588-6.337 19.138 16.871 7.188 6.337-19.138-16.871-7.188Z"/><path fill="#D6409A" d="m957.161 590.846-6.337 19.138 16.871 7.189 6.337-19.138-16.871-7.189Z"/><path fill="#DC9626" d="m2174.04 1840.1-29.25-29.9-26.36 33.19 29.26 29.9 26.35-33.19Z"/><path fill="#fff" d="m2003.42 1688.26-17.22 40.18 35.41 19.53 17.23-40.17-35.42-19.54Z"/><path fill="#DC9626" d="m728.512 1883.91 19.062-24-21.161-21.63-19.063 24.01 21.162 21.62Z"/><path fill="#fff" d="m752.758 1663.04 12.062-15.19-13.391-13.68-12.062 15.19 13.391 13.68Z"/><path fill="#D6409A" d="m1409.45 1247.66 12.07-15.19-13.4-13.69-12.06 15.19 13.39 13.69Z"/><path fill="#fff" d="m1581.05 1150.86 27.72-34.9-30.77-31.45-27.72 34.91 30.77 31.44Z"/><path fill="#DC9626" d="m1766.43 1348.05 14.97 11.38 10.04-16.98-14.97-11.39-10.04 16.99ZM1683.97 1860.64l12.07-15.19-13.4-13.68-12.06 15.19 13.39 13.68Z"/><path fill="#D6409A" d="M404.794 626.986 368.16 698.96h73.268l-36.634-71.974Z"/><path fill="#DC9626" d="m900.374 975.528-38.085 28.412 40.732 23.21-2.647-51.622ZM1426.12 1082.39l10.18 50.4 33.39-35.19-43.57-15.21ZM2018.46 583.389l-36.43 31.085 41.94 20.244-5.51-51.329ZM1219.74 583.389l-36.42 31.085 41.94 20.244-5.52-51.329ZM552.728 444.408l-9.486 50.578 43.355-15.97-33.869-34.608ZM146.875 1528.43l73.589 17.76-23.234-81.17-50.355 63.41ZM771.57 387.112l-23.285 15.249 23.285 15.249v-30.498Z"/></svg>