<svg xmlns="http://www.w3.org/2000/svg" width="2603" height="2603" fill="none"><path fill="#9BC1F9" d="M69.103 2042.39 2532.96 2046c163.04-156.37 8.3-642.27-127.89-737.66-146.6-102.67 9.3-575.723-216.53-690.983-147.44-75.254-495.56 91.407-600.17-64.668-187.06-279.093-439.99-150.699-666.107-47.87-278.117 126.475-361.135 8.949-610.425 187.882-377.318 270.827-6.672 741.879-178.613 881.279-252.127 204.42-70.065 464.65-64.122 468.41Z" opacity=".3"/><path fill="#fff" d="M1009 874.999c-3.84-19.216-18.787-33.553-36.657-33.553a33.04 33.04 0 0 0-9.496 1.394c-8.82-21.697-27.961-36.73-50.157-36.73a48.69 48.69 0 0 0-16.477 2.87C884.264 786.218 862.555 771 837.755 771c-29.506 0-54.638 21.542-64.16 51.7-6.952-4.465-14.793-6.805-22.766-6.795-25.863 0-46.829 24.117-46.829 53.868 0 1.765.079 3.506.223 5.227l304.777-.001Z" opacity=".5"/><path fill="#0E2E35" d="M2420.6 1700.87c-.27-2.16-3.05-3.83-4.25-1.92-1.18 1.9-1.25.62-2.18 4.73-2.67 11.8-7.2 23.22-12.79 33.2-10.73 19.12-22.29 28.76-35.55 38.32 4.35-15.01 6.65-31.02 5.52-47.18-.41-5.89-1.13-12-3.9-17.4-.77-1.51-3.12-1.2-3.19.48-.35 8.34 2.04 14.63 1.18 29.55-2.07 35.6-20.69 73.37-39.66 99.81-.38-44.77-3.51-95.65-15.5-140.8-1.97-7.41-4.62-14.45-7.15-21.69-.59-1.7-2.65-.97-2.22.72.62 2.41 7.3 33.48 7.73 35.62 6.91 34.39 10.08 72.49 10.92 107.23-19.4-25.82-33.69-56.03-42.14-87.57-2.5-9.32-3.88-18.95-6.99-28.1-.42-1.26-2.27-1.39-2.36 0-.85 13.71 6.08 37.96 10.68 51.14 9.32 26.7 22.32 50.64 38.95 72.02.65.83-2.01 209.79-1.1 212.43 1.53 4.46 8.69 7.6 8.95-.32.11-3.22.33-130.28.28-189.13 2.09-1.39 3.27-3.87 8.26-11.2 11.56-16.95 22.56-38.03 29.32-57.92 5.23-.34 41.12-21.35 55.14-69.19.41-1.38 2.2-7.86 2.4-9.3.18-1.24-.19-2.31-.35-3.53Z"/><path fill="#184655" d="M2296.34 1631c.44-6.52.66-13.19.66-19.98 0-75.67-27.76-137.02-62-137.02-34.24 0-62 61.35-62 137.02 0 6.79.22 13.46.66 19.98h122.68Z"/><path fill="#3C8F7C" d="M2366.34 1597c.43-9.22.66-18.65.66-28.25 0-107-27.98-193.75-62.5-193.75-34.52 0-62.5 86.75-62.5 193.75 0 9.6.23 19.03.66 28.25h123.68Z"/><path fill="#3C8F7C" d="M2343.66 1716c-.44-6.69-.66-13.39-.66-20.1 0-76.16 27.76-137.9 62-137.9 34.24 0 62 61.74 62 137.9 0 6.83-.22 13.54-.66 20.1h-122.68Z"/><path fill="#184655" d="M2243.83 1716c-.55-9.4-.83-18.82-.83-28.25 0-107 35.15-193.75 78.5-193.75s78.5 86.75 78.5 193.75c0 9.6-.28 19.03-.83 28.25h-155.34Z"/><path fill="#3C8F7C" d="M2305.24 1494c-21.69 0-41.08 27.52-53.87 70.68-6.52-3.96-13.44-6.1-20.61-6.1-38.53 0-69.76 61.51-69.76 137.39 0 6.8.25 13.49.74 20.03h212.52c.49-9.22.74-18.65.74-28.25 0-107-31.23-193.75-69.76-193.75Z"/><path fill="#fff" d="M1603.12 889c2.86-14.518 13.98-25.349 27.27-25.349 2.44 0 4.81.367 7.07 1.053 6.56-16.391 20.79-27.749 37.3-27.749 4.27 0 8.39.759 12.26 2.168 8.89-17.196 25.04-28.693 43.49-28.693 21.94 0 40.64 16.275 47.72 39.058 5.17-3.373 11-5.142 16.94-5.134 19.23 0 34.83 18.221 34.83 40.697 0 1.333-.06 2.649-.17 3.949h-226.71Zm-165.3-256.377c-2.6-13.234-12.74-23.107-24.86-23.107-2.22 0-4.38.335-6.44.959-5.98-14.942-18.96-25.295-34.01-25.295-3.89 0-7.64.692-11.17 1.977-8.1-15.675-22.83-26.157-39.64-26.157-20.01 0-37.05 14.836-43.51 35.605-4.71-3.075-10.03-4.687-15.44-4.68-17.53 0-31.75 16.61-31.75 37.1 0 1.215.05 2.414.15 3.599l206.67-.001Z" opacity=".5"/><path fill="#355389" d="M125 1901h5v76h-5v-76Z"/><path fill="#3C8F7C" d="m128 1766-19 152h38l-19-152Z"/><path fill="#50BFA5" d="m111 1909 32-12.16-.484-4.19-30.988 11.78L111 1909Zm5.634-48.75 21.205-8.06-.482-4.19-20.195 7.68-.528 4.57Z"/><path fill="#355389" d="M61 1889h7v107h-7v-107Z"/><path fill="#3C8F7C" d="m65 1681-27 254h54l-27-254Z"/><path fill="#50BFA5" d="M47 1842.82 86 1881l-1.5-13.83-36.288-35.52L47 1842.82Zm5.995-55.3 23.882 9.32-1.122-10.36-21.728-8.48-1.032 9.52Z"/><path fill="#B75742" d="m1017 974.246 249.79-111.29 242.05 111.29L1284.22 985l-261.9-5.039-5.32-5.715Zm1202-34.71L2113.47 709h-113.28l-102.95 230.536H2219Z"/><path fill="#F8C48B" d="M2219 2042h-324V957h324v1085Z"/><path fill="#FCF5EB" d="M2229 1403h-269v-27h269v27Z"/><path fill="#9B4234" d="M2219 2042h-272v-166h272v166Z"/><path fill="#FCF5EB" d="M2229 1876h-269v-25h269v25Z"/><path fill="#F8C48B" d="M2000 2042h-105V957h105v1085Z" opacity=".5"/><path fill="#B75742" d="M2148 1573c0 12.7 9.18 23 20.5 23s20.5-10.3 20.5-23-9.18-23-20.5-23-20.5 10.3-20.5 23Z"/><path fill="#FCF5EB" d="M2135 1469.24c0-17.25 15-31.24 33.5-31.24s33.5 13.99 33.5 31.24V1566h-67V1469.24Z"/><path fill="#3E6193" d="M2139 1470.32c0-15.09 12.98-27.32 29-27.32s29 12.23 29 27.32V1559h-58v-88.68Z"/><path fill="#FCF5EB" d="M2169 1565h-2v-127h2v127Z"/><path fill="#F2E3D1" d="M2210 1573h-84v-7h84v7Z"/><path fill="#FCF5EB" d="M2200 1484v3h-63v-3h63ZM2200 1521v3h-63v-3h63Z"/><path fill="#FCF5EB" d="M2139 1484.6v-14.17c0-11.58 7.66-21.46 18.47-25.43l39.53 68.3v45.7h-19.77c-10.89-21.25-26.11-50.92-38.23-74.4Z" opacity=".3"/><path fill="#B75742" d="M2037 1573c0 12.7 8.95 23 20 23s20-10.3 20-23-8.95-23-20-23-20 10.3-20 23Z"/><path fill="#FCF5EB" d="M2023 1469.24c0-17.25 15-31.24 33.5-31.24s33.5 13.99 33.5 31.24V1566h-67V1469.24Z"/><path fill="#3E6193" d="M2028 1470.32c0-15.09 12.76-27.32 28.5-27.32s28.5 12.23 28.5 27.32V1559h-57v-88.68Z"/><path fill="#FCF5EB" d="M2059 1565h-3v-127h3v127Z"/><path fill="#F2E3D1" d="M2099 1573h-84v-7h84v7Z"/><path fill="#FCF5EB" d="M2089 1484v3h-63v-3h63ZM2089 1521v3h-63v-3h63Z"/><path fill="#FCF5EB" d="M2028 1484.6v-14.17c0-11.58 7.53-21.46 18.15-25.43l38.85 68.3v45.7h-19.43c-10.7-21.25-25.66-50.92-37.57-74.4Z" opacity=".3"/><path fill="#B75742" d="M2148 1812.5c0 12.98 9.18 23.5 20.5 23.5s20.5-10.52 20.5-23.5-9.18-23.5-20.5-23.5-20.5 10.52-20.5 23.5Z"/><path fill="#FCF5EB" d="M2135 1706.24c0-17.25 15-31.24 33.5-31.24s33.5 13.99 33.5 31.24V1803h-67V1706.24Z"/><path fill="#3E6193" d="M2139 1709.32c0-15.09 12.98-27.32 29-27.32s29 12.23 29 27.32V1798h-58v-88.68Z"/><path fill="#FCF5EB" d="M2169 1803h-2v-126h2v126Z"/><path fill="#F2E3D1" d="M2210 1813h-84v-10h84v10Z"/><path fill="#FCF5EB" d="M2200 1722v2h-63v-2h63ZM2200 1760v3h-63v-3h63Z"/><path fill="#FCF5EB" d="M2139 1722.94v-14.29c0-11.68 7.66-21.65 18.47-25.65l39.53 68.9v46.1h-19.77c-10.89-21.44-26.11-51.36-38.23-75.06Z" opacity=".3"/><path fill="#B75742" d="M2037 1812.5c0 12.98 8.95 23.5 20 23.5s20-10.52 20-23.5-8.95-23.5-20-23.5-20 10.52-20 23.5Z"/><path fill="#FCF5EB" d="M2023 1706.24c0-17.25 15-31.24 33.5-31.24s33.5 13.99 33.5 31.24V1803h-67V1706.24Z"/><path fill="#3E6193" d="M2028 1709.32c0-15.09 12.76-27.32 28.5-27.32s28.5 12.23 28.5 27.32V1798h-57v-88.68Z"/><path fill="#FCF5EB" d="M2059 1803h-3v-126h3v126Z"/><path fill="#F2E3D1" d="M2099 1813h-84v-10h84v10Z"/><path fill="#FCF5EB" d="M2089 1722v2h-63v-2h63ZM2089 1760v3h-63v-3h63Z"/><path fill="#FCF5EB" d="M2028 1722.94v-14.29c0-11.68 7.53-21.65 18.15-25.65l38.85 68.9v46.1h-19.43c-10.7-21.44-25.66-51.36-37.57-75.06Z" opacity=".3"/><path fill="#FCF5EB" d="M2020.56 938H2240v21h-366v-21h146.56Z"/><path fill="#B75742" d="M2086 1231.5c0 16.29 11.42 29.5 25.5 29.5s25.5-13.21 25.5-29.5-11.42-29.5-25.5-29.5-25.5 13.21-25.5 29.5Z"/><path fill="#FCF5EB" d="M2068 1096.27c0-22.24 19.48-40.27 43.5-40.27s43.5 18.03 43.5 40.27V1221h-87v-124.73Z"/><path fill="#3E6193" d="M2076 1098.33c0-19.51 16.12-35.33 36-35.33s36 15.82 36 35.33V1213h-72v-114.67Z"/><path fill="#FCF5EB" d="M2113 1220h-2v-162h2v162Z"/><path fill="#F2E3D1" d="M2163 1231h-104v-10h104v10Z"/><path fill="#FCF5EB" d="M2151 1116v4h-79v-4h79ZM2151 1164v3h-79v-3h79Z"/><path fill="#FCF5EB" d="M2076 1117.71v-18.14c0-14.83 9.51-27.49 22.93-32.57l49.07 87.47V1213h-24.54c-13.52-27.22-32.42-65.21-47.46-95.29Z" opacity=".3"/><path fill="#F8C48B" d="M1999.39 938c-2.41.117 57.61-229 57.61-229h-57.61L1897 938h102.39Z" opacity=".5"/><path fill="#FCF5EB" d="M2043.26 692H2126v22h-138v-22h55.26Z"/><path fill="#B75742" d="m2056.56 430.173.01-.173L2119 692.605h-35.6l-28.65.072-.01.045h-60.59l62.41-262.549ZM312 938l105.497-230.185h113.24L633.655 938H312Z"/><path fill="#F8C48B" d="M312 957h325v1085H312V957Z"/><path fill="#FCF5EB" d="M301 1376h269v27H301v-27Z"/><path fill="#9B4234" d="M312 1876h271v166H312v-166Z"/><path fill="#FCF5EB" d="M301 1851h269v25H301v-25Z"/><path fill="#F8C48B" d="M530 957h107v1085H530V957Z" opacity=".5"/><path fill="#B75742" d="M383 1573c0 12.7-9.178 23-20.5 23-11.323 0-20.5-10.3-20.5-23s9.178-23 20.5-23 20.5 10.3 20.5 23Z"/><path fill="#FCF5EB" d="M396 1469.24c0-17.25-15.222-31.24-34-31.24s-34 13.99-34 31.24l.002.13H328V1566h68v-96.63h-.002l.002-.13Z"/><path fill="#3E6193" d="M390 1470.32c0-15.09-12.536-27.32-28-27.32s-28 12.23-28 27.32l.002.12H334V1559h56v-88.56h-.002l.002-.12Z"/><path fill="#FCF5EB" d="M361 1438h2v127h-2v-127Z"/><path fill="#F2E3D1" d="M321 1566h83v7h-83v-7Z"/><path fill="#FCF5EB" d="M394 1484v3h-63v-3h63ZM394 1521v3h-63v-3h63Z"/><path fill="#FCF5EB" d="M390 1484.6v-14.06h-.002l.002-.11c0-11.58-7.397-21.46-17.831-25.43L334 1513.3v45.7h19.088c10.518-21.25 25.213-50.92 36.912-74.4Z" opacity=".3"/><path fill="#B75742" d="M493 1573c0 12.7-8.954 23-20 23s-20-10.3-20-23 8.954-23 20-23 20 10.3 20 23Z"/><path fill="#FCF5EB" d="M507 1469.24c0-17.25-14.999-31.24-33.5-31.24-18.501 0-33.5 13.99-33.5 31.24l.002.13H440V1566h67v-96.63h-.002l.002-.13Z"/><path fill="#3E6193" d="M502 1470.32c0-15.09-12.76-27.32-28.5-27.32-15.739 0-28.5 12.23-28.5 27.32l.002.12H445V1559h57v-88.56h-.002l.002-.12Z"/><path fill="#FCF5EB" d="M473 1438h2v127h-2v-127Z"/><path fill="#F2E3D1" d="M433 1566h82v7h-82v-7Z"/><path fill="#FCF5EB" d="M504 1484v3h-63v-3h63ZM504 1521v3h-63v-3h63Z"/><path fill="#FCF5EB" d="M502 1484.6v-14.06h-.002l.002-.11c0-11.58-7.528-21.46-18.15-25.43L445 1513.3v45.7h19.429c10.704-21.25 25.662-50.92 37.571-74.4Z" opacity=".3"/><path fill="#B75742" d="M383 1812.5c0 12.98-9.178 23.5-20.5 23.5-11.323 0-20.5-10.52-20.5-23.5s9.178-23.5 20.5-23.5 20.5 10.52 20.5 23.5Z"/><path fill="#FCF5EB" d="M396 1706.24c0-17.25-15.222-31.24-34-31.24s-34 13.99-34 31.24l.002.13H328V1803h68v-96.63h-.002l.002-.13Z"/><path fill="#3E6193" d="M390 1709.32c0-15.09-12.536-27.32-28-27.32s-28 12.23-28 27.32l.002.12H334V1798h56v-88.56h-.002l.002-.12Z"/><path fill="#FCF5EB" d="M361 1677h2v126h-2v-126Z"/><path fill="#F2E3D1" d="M321 1803h83v10h-83v-10Z"/><path fill="#FCF5EB" d="M394 1722v2h-63v-2h63ZM394 1760v3h-63v-3h63Z"/><path fill="#FCF5EB" d="M390 1722.94v-14.17h-.002l.002-.12c0-11.68-7.397-21.65-17.831-25.65L334 1751.9v46.1h19.088c10.518-21.44 25.213-51.36 36.912-75.06Z" opacity=".3"/><path fill="#B75742" d="M493 1812.5c0 12.98-8.954 23.5-20 23.5s-20-10.52-20-23.5 8.954-23.5 20-23.5 20 10.52 20 23.5Z"/><path fill="#FCF5EB" d="M507 1706.24c0-17.25-14.999-31.24-33.5-31.24-18.501 0-33.5 13.99-33.5 31.24l.002.13H440V1803h67v-96.63h-.002l.002-.13Z"/><path fill="#3E6193" d="M502 1709.32c0-15.09-12.76-27.32-28.5-27.32-15.739 0-28.5 12.23-28.5 27.32l.002.12H445V1798h57v-88.56h-.002l.002-.12Z"/><path fill="#FCF5EB" d="M473 1677h2v126h-2v-126Z"/><path fill="#F2E3D1" d="M433 1803h82v10h-82v-10Z"/><path fill="#FCF5EB" d="M504 1722v2h-63v-2h63ZM504 1760v3h-63v-3h63Z"/><path fill="#FCF5EB" d="M502 1722.94v-14.17h-.002l.002-.12c0-11.68-7.528-21.65-18.15-25.65L445 1751.9v46.1h19.429c10.704-21.44 25.662-51.36 37.571-75.06Z" opacity=".3"/><path fill="#FCF5EB" d="M510.435 938H291v21h366v-21H510.435Z"/><path fill="#B75742" d="M445 1231.5c0 16.29-11.64 29.5-26 29.5s-26-13.21-26-29.5 11.64-29.5 26-29.5 26 13.21 26 29.5Z"/><path fill="#FCF5EB" d="M462 1096.27c0-22.24-19.028-40.27-42.5-40.27s-42.5 18.03-42.5 40.27c0 .06.002.12.003.17H377V1221h85v-124.56h-.003c.001-.05.003-.11.003-.17Z"/><path fill="#3E6193" d="M455 1098.33c0-19.51-16.118-35.33-36-35.33-19.881 0-36 15.82-36 35.33l.003.15H383V1213h72v-114.52h-.002l.002-.15Z"/><path fill="#FCF5EB" d="M417 1058h3v162h-3v-162Z"/><path fill="#F2E3D1" d="M366 1221h107v10H366v-10Z"/><path fill="#FCF5EB" d="M459 1116v4h-81v-4h81ZM459 1164v3h-81v-3h81Z"/><path fill="#FCF5EB" d="M455 1117.71v-18h-.003l.003-.14c0-14.83-9.51-27.49-22.926-32.57L383 1154.47V1213h24.542c13.521-27.22 32.416-65.21 47.458-95.29Z" opacity=".3"/><path fill="#F8C48B" d="M530.611 938c2.407.117-57.611-229-57.611-229h57.611L633 938H530.611Z" opacity=".5"/><path fill="#FCF5EB" d="M487.739 692H405v22h138v-22h-55.261Z"/><path fill="#B75742" d="m474.407 430.173-.014-.173L412 692.591h35.577l28.643.071v.046h60.567l-62.38-262.535ZM1656 1308v-213.4H624.592L570.644 1308H1656Z"/><path fill="#B75742" d="M1548 1308v-214h359.18l53.82 214h-413Z"/><path fill="#F2E3D1" d="M614 1078h1306v32H614v-32Z"/><path fill="#F8C48B" d="M1961 2046h-415v-730h415v730ZM570 1316h415v730H570v-730Z"/><path fill="#F8C48B" d="M985 1329h563v717H985v-717Z"/><path fill="#184655" d="M17 2042h2522v8H17v-8Z"/><path fill="#FCF5EB" d="M1407.16 1308H554v22h1423v-22h-569.84Z"/><path fill="#9B4234" d="M1546.56 1919v72.71H997.031V1919H570v124h1391v-124h-414.44Z"/><path fill="#FCF5EB" d="M1349 1329h61v653h-61v-653Z"/><path fill="#F2E3D1" d="M1334 1329h90v32.68h-90V1329Zm5.81 632.13h78.38V1982h-78.38v-20.87Zm4.35-496.11h69.68v13.28h-69.68v-13.28Zm0 53.66h69.68v13.29h-69.68v-13.29Zm0 279.48h69.68v13.28h-69.68v-13.28Zm0 53.67h69.68v13.28h-69.68v-13.28Z"/><path fill="#F8C48B" d="M876 1331h73.161v579H876v-579Zm708.84 0H1658v579h-73.16v-579Z" opacity=".5"/><path fill="#FCF5EB" d="M1120 1331h62v652h-62v-652Z"/><path fill="#F2E3D1" d="M1105.95 1331h90.07v32.62h-90.07V1331Zm5.81 631.06h78.45v20.83h-78.45v-20.83Zm4.36-495.27h69.73v13.26h-69.73v-13.26Zm0 53.57h69.73v13.26h-69.73v-13.26Zm0 279.01h69.73v13.26h-69.73v-13.26Zm0 53.57h69.73v13.26h-69.73v-13.26ZM881 2008.89h770V2043H881v-34.11Z"/><path fill="#FCF5EB" d="M912 1976h708v31H912v-31Z"/><path fill="#F2E3D1" d="M554 1910h399.04v28H554v-28Zm1023.96 0H1977v28h-399.04v-28Z"/><path fill="#B75742" d="M1291 1612.5c0 16.29-11.86 29.5-26.5 29.5s-26.5-13.21-26.5-29.5 11.86-29.5 26.5-29.5 26.5 13.21 26.5 29.5Z"/><path fill="#FCF5EB" d="M1307 1478.03c0-22.11-19.25-40.03-43-40.03s-43 17.92-43 40.03V1602h86v-123.97Z"/><path fill="#3E6193" d="M1300 1479.86c0-19.25-16.34-34.86-36.5-34.86s-36.5 15.61-36.5 34.86V1593h73v-113.14Z"/><path fill="#FCF5EB" d="M1263 1439h3v161h-3v-161Z"/><path fill="#F2E3D1" d="M1210 1602h108v11h-108v-11Z"/><path fill="#FCF5EB" d="M1304 1497v4h-80v-4h80ZM1304 1545v3h-80v-3h80Z"/><path fill="#B75742" d="M653 1573c0 12.7-9.178 23-20.5 23-11.323 0-20.5-10.3-20.5-23s9.178-23 20.5-23 20.5 10.3 20.5 23Z"/><path fill="#FCF5EB" d="M666 1469.24c0-17.25-14.999-31.24-33.5-31.24-18.502 0-33.5 13.99-33.5 31.24l.002.13H599V1566h67v-96.63h-.002l.002-.13Z"/><path fill="#3E6193" d="M661 1470.32c0-15.09-12.76-27.32-28.5-27.32s-28.5 12.23-28.5 27.32l.002.12H604V1559h57v-88.56h-.002l.002-.12Z"/><path fill="#FCF5EB" d="M631 1438h2v127h-2v-127Z"/><path fill="#F2E3D1" d="M591 1566h83v7h-83v-7Z"/><path fill="#FCF5EB" d="M664 1484v3h-63v-3h63ZM664 1521v3h-63v-3h63Z"/><path fill="#FCF5EB" d="M661 1484.6v-14.06h-.002l.002-.11c0-11.58-7.528-21.46-18.15-25.43L604 1513.3v45.7h19.429c10.704-21.25 25.662-50.92 37.571-74.4Z" opacity=".3"/><path fill="#B75742" d="M775 1573c0 12.7-9.178 23-20.5 23s-20.5-10.3-20.5-23 9.178-23 20.5-23 20.5 10.3 20.5 23Z"/><path fill="#FCF5EB" d="M788 1469.24c0-17.25-14.999-31.24-33.5-31.24-18.502 0-33.5 13.99-33.5 31.24l.002.13H721V1566h67v-96.63h-.002l.002-.13Z"/><path fill="#3E6193" d="M783 1470.32c0-15.09-12.76-27.32-28.5-27.32s-28.5 12.23-28.5 27.32l.002.12H726V1559h56.999v-88.56l.001-.12Z"/><path fill="#FCF5EB" d="M752 1438h4v127h-4v-127Z"/><path fill="#F2E3D1" d="M713 1566h83v7h-83v-7Z"/><path fill="#FCF5EB" d="M786 1484v3h-63v-3h63ZM786 1521v3h-63v-3h63Z"/><path fill="#FCF5EB" d="M783 1484.6v-14.17c0-11.58-7.528-21.46-18.15-25.43L726 1513.3v45.7h19.429c10.704-21.25 25.663-50.92 37.571-74.4Z" opacity=".3"/><path fill="#B75742" d="M897 1573c0 12.7-9.178 23-20.5 23s-20.5-10.3-20.5-23 9.178-23 20.5-23 20.5 10.3 20.5 23Z"/><path fill="#FCF5EB" d="M910 1469.24c0-17.25-15.222-31.24-34-31.24s-34 13.99-34 31.24l.002.13H842V1566h68v-96.63h-.002l.002-.13Z"/><path fill="#3E6193" d="M904 1470.32c0-15.09-12.536-27.32-28-27.32s-28 12.23-28 27.32l.002.12H848V1559h56v-88.56h-.002l.002-.12Z"/><path fill="#FCF5EB" d="M874 1438h3v127h-3v-127Z"/><path fill="#F2E3D1" d="M835 1566h84v7h-84v-7Z"/><path fill="#FCF5EB" d="M908 1484v3h-63v-3h63ZM908 1521v3h-63v-3h63Z"/><path fill="#FCF5EB" d="M904 1484.6v-14.06h-.002l.002-.11c0-11.58-7.397-21.46-17.831-25.43L848 1513.3v45.7h19.088c10.517-21.25 25.213-50.92 36.912-74.4Z" opacity=".3"/><path fill="#B75742" d="M653 1807.5c0 12.98-9.178 23.5-20.5 23.5-11.323 0-20.5-10.52-20.5-23.5s9.178-23.5 20.5-23.5 20.5 10.52 20.5 23.5Z"/><path fill="#FCF5EB" d="M666 1701.24c0-17.25-14.999-31.24-33.5-31.24-18.502 0-33.5 13.99-33.5 31.24l.002.13H599V1798h67v-96.63h-.002l.002-.13Z"/><path fill="#3E6193" d="M661 1704.32c0-15.09-12.76-27.32-28.5-27.32s-28.5 12.23-28.5 27.32l.002.12H604V1793h57v-88.56h-.002l.002-.12Z"/><path fill="#FCF5EB" d="M631 1671h2v126h-2v-126Z"/><path fill="#F2E3D1" d="M591 1798h83v8h-83v-8Z"/><path fill="#FCF5EB" d="M664 1716v3h-63v-3h63ZM664 1755v3h-63v-3h63Z"/><path fill="#FCF5EB" d="M661 1718.6v-14.06h-.002l.002-.11c0-11.58-7.528-21.46-18.15-25.43L604 1747.3v45.7h19.429c10.704-21.25 25.662-50.92 37.571-74.4Z" opacity=".3"/><path fill="#B75742" d="M775 1807.5c0 12.98-9.178 23.5-20.5 23.5s-20.5-10.52-20.5-23.5 9.178-23.5 20.5-23.5 20.5 10.52 20.5 23.5Z"/><path fill="#FCF5EB" d="M788 1701.24c0-17.25-14.999-31.24-33.5-31.24-18.502 0-33.5 13.99-33.5 31.24l.002.13H721V1798h67v-96.63h-.002l.002-.13Z"/><path fill="#3E6193" d="M783 1704.32c0-15.09-12.76-27.32-28.5-27.32s-28.5 12.23-28.5 27.32l.002.12H726V1793h56.999v-88.56l.001-.12Z"/><path fill="#FCF5EB" d="M752 1671h4v126h-4v-126Z"/><path fill="#F2E3D1" d="M713 1798h83v8h-83v-8Z"/><path fill="#FCF5EB" d="M786 1716v3h-63v-3h63ZM786 1755v3h-63v-3h63Z"/><path fill="#FCF5EB" d="M783 1718.6v-14.17c0-11.58-7.528-21.46-18.15-25.43L726 1747.3v45.7h19.429c10.704-21.25 25.663-50.92 37.571-74.4Z" opacity=".3"/><path fill="#B75742" d="M897 1807.5c0 12.98-9.178 23.5-20.5 23.5s-20.5-10.52-20.5-23.5 9.178-23.5 20.5-23.5 20.5 10.52 20.5 23.5Z"/><path fill="#FCF5EB" d="M910 1701.24c0-17.25-15.222-31.24-34-31.24s-34 13.99-34 31.24l.002.13H842V1798h68v-96.63h-.002l.002-.13Z"/><path fill="#3E6193" d="M904 1704.32c0-15.09-12.536-27.32-28-27.32s-28 12.23-28 27.32l.002.12H848V1793h56v-88.56h-.002l.002-.12Z"/><path fill="#FCF5EB" d="M874 1671h3v126h-3v-126Z"/><path fill="#F2E3D1" d="M835 1798h84v8h-84v-8Z"/><path fill="#FCF5EB" d="M908 1716v3h-63v-3h63ZM908 1755v3h-63v-3h63Z"/><path fill="#FCF5EB" d="M904 1718.6v-14.06h-.002l.002-.11c0-11.58-7.397-21.46-17.831-25.43L848 1747.3v45.7h19.088c10.517-21.25 25.213-50.92 36.912-74.4Z" opacity=".3"/><path fill="#B75742" d="M1677 1573c0 12.7-9.18 23-20.5 23s-20.5-10.3-20.5-23 9.18-23 20.5-23 20.5 10.3 20.5 23Z"/><path fill="#FCF5EB" d="M1690 1469.24c0-17.25-15.22-31.24-34-31.24s-34 13.99-34 31.24V1566h68V1469.24Z"/><path fill="#3E6193" d="M1686 1470.32c0-15.09-12.98-27.32-29-27.32s-29 12.23-29 27.32V1559h58v-88.68Z"/><path fill="#FCF5EB" d="M1655 1438h3v127h-3v-127Z"/><path fill="#F2E3D1" d="M1615 1566h84v7h-84v-7Z"/><path fill="#FCF5EB" d="M1688 1484v3h-63v-3h63ZM1688 1521v3h-63v-3h63Z"/><path fill="#FCF5EB" d="M1686 1484.6v-14.17c0-11.58-7.66-21.46-18.47-25.43l-39.53 68.3v45.7h19.77c10.89-21.25 26.11-50.92 38.23-74.4Z" opacity=".3"/><path fill="#B75742" d="M1486 1573c0 12.7-9.18 23-20.5 23s-20.5-10.3-20.5-23 9.18-23 20.5-23 20.5 10.3 20.5 23Z"/><path fill="#FCF5EB" d="M1500 1469.24c0-17.25-15.22-31.24-34-31.24s-34 13.99-34 31.24V1566h68V1469.24Z"/><path fill="#3E6193" d="M1494 1470.32c0-15.09-12.54-27.32-28-27.32s-28 12.23-28 27.32V1559h56v-88.68Z"/><path fill="#FCF5EB" d="M1464 1438h4v127h-4v-127Z"/><path fill="#F2E3D1" d="M1424 1566h83v7h-83v-7Z"/><path fill="#FCF5EB" d="M1497 1484v3h-63v-3h63ZM1497 1521v3h-63v-3h63Z"/><path fill="#FCF5EB" d="M1494 1484.6v-14.17c0-11.58-7.4-21.46-17.83-25.43l-38.17 68.3v45.7h19.09c10.52-21.25 25.21-50.92 36.91-74.4Z" opacity=".3"/><path fill="#B75742" d="M1486 1816.5c0 12.98-9.18 23.5-20.5 23.5s-20.5-10.52-20.5-23.5 9.18-23.5 20.5-23.5 20.5 10.52 20.5 23.5Z"/><path fill="#FCF5EB" d="M1500 1711.49c0-17.39-15.22-31.49-34-31.49s-34 14.1-34 31.49V1809h68V1711.49Z"/><path fill="#3E6193" d="M1494 1713.09c0-14.96-12.54-27.09-28-27.09s-28 12.13-28 27.09V1801h56v-87.91Z"/><path fill="#FCF5EB" d="M1464 1681h4v125h-4v-125Z"/><path fill="#F2E3D1" d="M1424 1809h83v9h-83v-9Z"/><path fill="#FCF5EB" d="M1497 1726v3h-63v-3h63ZM1497 1763v3h-63v-3h63Z"/><path fill="#FCF5EB" d="M1494 1727.25v-14.04c0-11.48-7.4-21.28-17.83-25.21l-38.17 67.7v45.3h19.09c10.52-21.07 25.21-50.47 36.91-73.75Z" opacity=".3"/><path fill="#B75742" d="M1085 1573c0 12.7-9.18 23-20.5 23s-20.5-10.3-20.5-23 9.18-23 20.5-23 20.5 10.3 20.5 23Z"/><path fill="#FCF5EB" d="M1097 1469.24c0-17.25-15-31.24-33.5-31.24s-33.5 13.99-33.5 31.24V1566h67V1469.24Z"/><path fill="#3E6193" d="M1092 1470.32c0-15.09-12.76-27.32-28.5-27.32s-28.5 12.23-28.5 27.32V1559h57v-88.68Z"/><path fill="#FCF5EB" d="M1062 1438h4v127h-4v-127Z"/><path fill="#F2E3D1" d="M1023 1566h83v7h-83v-7Z"/><path fill="#FCF5EB" d="M1096 1484v3h-63v-3h63ZM1096 1521v3h-63v-3h63Z"/><path fill="#FCF5EB" d="M1092 1484.6v-14.17c0-11.58-7.53-21.46-18.15-25.43l-38.85 68.3v45.7h19.43c10.7-21.25 25.66-50.92 37.57-74.4Z" opacity=".3"/><path fill="#B75742" d="M1085 1816.5c0 12.98-9.18 23.5-20.5 23.5s-20.5-10.52-20.5-23.5 9.18-23.5 20.5-23.5 20.5 10.52 20.5 23.5Z"/><path fill="#FCF5EB" d="M1097 1711.49c0-17.39-15-31.49-33.5-31.49s-33.5 14.1-33.5 31.49V1809h67V1711.49Z"/><path fill="#3E6193" d="M1092 1713.09c0-14.96-12.76-27.09-28.5-27.09s-28.5 12.13-28.5 27.09V1801h57v-87.91Z"/><path fill="#FCF5EB" d="M1062 1681h4v125h-4v-125Z"/><path fill="#F2E3D1" d="M1023 1809h83v9h-83v-9Z"/><path fill="#FCF5EB" d="M1096 1726v3h-63v-3h63ZM1096 1763v3h-63v-3h63Z"/><path fill="#FCF5EB" d="M1092 1727.25v-14.04c0-11.48-7.53-21.28-18.15-25.21l-38.85 67.7v45.3h19.43a30430.2 30430.2 0 0 1 37.57-73.75Z" opacity=".3"/><path fill="#B75742" d="M1799 1573c0 12.7-9.18 23-20.5 23s-20.5-10.3-20.5-23 9.18-23 20.5-23 20.5 10.3 20.5 23Z"/><path fill="#FCF5EB" d="M1812 1469.24c0-17.25-15.22-31.24-34-31.24s-34 13.99-34 31.24V1566h68V1469.24Z"/><path fill="#3E6193" d="M1807 1470.32c0-15.09-12.76-27.32-28.5-27.32s-28.5 12.23-28.5 27.32V1559h57v-88.68Z"/><path fill="#FCF5EB" d="M1778 1438h1v127h-1v-127Z"/><path fill="#F2E3D1" d="M1738 1566h82v7h-82v-7Z"/><path fill="#FCF5EB" d="M1809 1484v3h-63v-3h63ZM1809 1521v3h-63v-3h63Z"/><path fill="#FCF5EB" d="M1807 1484.6v-14.17c0-11.58-7.53-21.46-18.15-25.43l-38.85 68.3v45.7h19.43c10.7-21.25 25.66-50.92 37.57-74.4Z" opacity=".3"/><path fill="#B75742" d="M1920 1573c0 12.7-8.95 23-20 23s-20-10.3-20-23 8.95-23 20-23 20 10.3 20 23Z"/><path fill="#FCF5EB" d="M1935 1469.24c0-17.25-15.22-31.24-34-31.24s-34 13.99-34 31.24V1566h68V1469.24Z"/><path fill="#3E6193" d="M1929 1470.32c0-15.09-12.98-27.32-29-27.32s-29 12.23-29 27.32V1559h58v-88.68Z"/><path fill="#FCF5EB" d="M1899 1438h3v127h-3v-127Z"/><path fill="#F2E3D1" d="M1859 1566h83v7h-83v-7Z"/><path fill="#FCF5EB" d="M1931 1484v3h-62v-3h62ZM1931 1521v3h-62v-3h62Z"/><path fill="#FCF5EB" d="M1929 1484.6v-14.17c0-11.58-7.66-21.46-18.47-25.43l-39.53 68.3v45.7h19.77c10.89-21.25 26.11-50.92 38.23-74.4Z" opacity=".3"/><path fill="#B75742" d="M1677 1807.5c0 12.98-9.18 23.5-20.5 23.5s-20.5-10.52-20.5-23.5 9.18-23.5 20.5-23.5 20.5 10.52 20.5 23.5Z"/><path fill="#FCF5EB" d="M1690 1701.24c0-17.25-15.22-31.24-34-31.24s-34 13.99-34 31.24V1798h68V1701.24Z"/><path fill="#3E6193" d="M1686 1704.32c0-15.09-12.98-27.32-29-27.32s-29 12.23-29 27.32V1793h58v-88.68Z"/><path fill="#FCF5EB" d="M1655 1671h3v126h-3v-126Z"/><path fill="#F2E3D1" d="M1615 1798h84v8h-84v-8Z"/><path fill="#FCF5EB" d="M1688 1716v3h-63v-3h63ZM1688 1755v3h-63v-3h63Z"/><path fill="#FCF5EB" d="M1686 1718.6v-14.17c0-11.58-7.66-21.46-18.47-25.43l-39.53 68.3v45.7h19.77c10.89-21.25 26.11-50.92 38.23-74.4Z" opacity=".3"/><path fill="#B75742" d="M1799 1807.5c0 12.98-9.18 23.5-20.5 23.5s-20.5-10.52-20.5-23.5 9.18-23.5 20.5-23.5 20.5 10.52 20.5 23.5Z"/><path fill="#FCF5EB" d="M1812 1701.24c0-17.25-15.22-31.24-34-31.24s-34 13.99-34 31.24V1798h68V1701.24Z"/><path fill="#3E6193" d="M1807 1704.32c0-15.09-12.76-27.32-28.5-27.32s-28.5 12.23-28.5 27.32V1793h57v-88.68Z"/><path fill="#FCF5EB" d="M1778 1671h1v126h-1v-126Z"/><path fill="#F2E3D1" d="M1738 1798h82v8h-82v-8Z"/><path fill="#FCF5EB" d="M1809 1716v3h-63v-3h63ZM1809 1755v3h-63v-3h63Z"/><path fill="#FCF5EB" d="M1807 1718.6v-14.17c0-11.58-7.53-21.46-18.15-25.43l-38.85 68.3v45.7h19.43c10.7-21.25 25.66-50.92 37.57-74.4Z" opacity=".3"/><path fill="#B75742" d="M1920 1807.5c0 12.98-8.95 23.5-20 23.5s-20-10.52-20-23.5 8.95-23.5 20-23.5 20 10.52 20 23.5Z"/><path fill="#FCF5EB" d="M1935 1701.24c0-17.25-15.22-31.24-34-31.24s-34 13.99-34 31.24V1798h68V1701.24Z"/><path fill="#3E6193" d="M1929 1704.32c0-15.09-12.98-27.32-29-27.32s-29 12.23-29 27.32V1793h58v-88.68Z"/><path fill="#FCF5EB" d="M1899 1671h3v126h-3v-126Z"/><path fill="#F2E3D1" d="M1859 1798h83v8h-83v-8Z"/><path fill="#FCF5EB" d="M1931 1716v3h-62v-3h62ZM1931 1755v3h-62v-3h62Z"/><path fill="#FCF5EB" d="M1929 1718.6v-14.17c0-11.58-7.66-21.46-18.47-25.43l-39.53 68.3v45.7h19.77c10.89-21.25 26.11-50.92 38.23-74.4Z" opacity=".3"/><path fill="#FCF5EB" d="M1320 1800.29c0-33.3-24.62-60.29-55-60.29s-55 26.99-55 60.29V1987h110v-186.71Z"/><path fill="#3E6193" d="M1311 1804.76c0-29.14-20.37-52.76-45.5-52.76s-45.5 23.62-45.5 52.76V1976h91V1804.76Z"/><path fill="#FCF5EB" d="M1263 1747h6v237h-6v-237Z"/><path fill="#FCF5EB" d="M1220 1976h10.37l62.92-213.03c-7.95-7.13-17.72-10.99-27.77-10.97-.74 0-1.48.02-2.21.06L1220 1898.67V1976Zm91-170.78v-.23c0-9.53-2.18-18.46-5.99-26.18L1246.76 1976h24.04l40.2-136.08v-34.7Z" opacity=".3"/><path fill="#F8C48B" d="M1017 994h491v313h-491V994Z"/><path fill="#B75742" d="M1289 1223c0 16.02-11.64 29-26 29s-26-12.98-26-29 11.64-29 26-29 26 12.98 26 29Z"/><path fill="#FCF5EB" d="M1307 1086.76c0-22.51-19.25-40.76-43-40.76s-43 18.25-43 40.76V1213h86v-126.24Z"/><path fill="#3E6193" d="M1300 1089.8c0-19.77-16.34-35.8-36.5-35.8s-36.5 16.03-36.5 35.8V1206h73v-116.2Z"/><path fill="#FCF5EB" d="M1261 1047h4v165h-4v-165Z"/><path fill="#F2E3D1" d="M1210 1213h107v9h-107v-9Z"/><path fill="#FCF5EB" d="M1304 1105v4h-81v-4h81ZM1304 1156v3h-81v-3h81Z"/><path fill="#B75742" d="M1425 1223c0 16.02-11.64 29-26 29s-26-12.98-26-29 11.64-29 26-29 26 12.98 26 29Z"/><path fill="#FCF5EB" d="M1444 1086.76c0-22.51-19.48-40.76-43.5-40.76s-43.5 18.25-43.5 40.76V1213h87v-126.24Z"/><path fill="#3E6193" d="M1436 1089.8c0-19.77-16.34-35.8-36.5-35.8s-36.5 16.03-36.5 35.8V1206h73v-116.2Z"/><path fill="#FCF5EB" d="M1398 1047h3v165h-3v-165Z"/><path fill="#F2E3D1" d="M1347 1213h106v9h-106v-9Z"/><path fill="#FCF5EB" d="M1440 1105v4h-81v-4h81ZM1440 1156v3h-81v-3h81ZM1316.04 972h-303.88v21.142H1519V972h-202.96ZM947 1328.93h61.84V1982H947v-653.07Z"/><path fill="#F2E3D1" d="M932 1329h91v32.68h-91V1329Zm5.871 632.13h79.259V1982h-79.259v-20.87Zm4.403-496.11h70.456v13.28h-70.456v-13.28Zm0 53.66h70.456v13.29h-70.456v-13.29Zm0 279.48h70.456v13.28h-70.456v-13.28Zm0 53.67h70.456v13.28h-70.456v-13.28Z"/><path fill="#FCF5EB" d="M1523 1331h62v652h-62v-652Z"/><path fill="#F2E3D1" d="M1508 1331h90v32.63h-90V1331Zm5.81 631.16h78.38V1983h-78.38v-20.84Zm4.35-495.35h69.68v13.26h-69.68v-13.26Zm0 53.58h69.68v13.27h-69.68v-13.27Zm0 279.05h69.68v13.27h-69.68v-13.27Zm0 53.59h69.68v13.26h-69.68v-13.26Z"/><path fill="#B75742" d="M1153 1223c0 16.02-11.42 29-25.5 29s-25.5-12.98-25.5-29 11.42-29 25.5-29 25.5 12.98 25.5 29Z"/><path fill="#FCF5EB" d="M1171 1086.76c0-22.51-19.25-40.76-43-40.76s-43 18.25-43 40.76V1213h86v-126.24Z"/><path fill="#3E6193" d="M1164 1089.8c0-19.77-16.34-35.8-36.5-35.8s-36.5 16.03-36.5 35.8V1206h73v-116.2Z"/><path fill="#FCF5EB" d="M1125 1047h4v165h-4v-165Z"/><path fill="#F2E3D1" d="M1074 1213h107v9h-107v-9Z"/><path fill="#FCF5EB" d="M1168 1105v4h-80v-4h80ZM1168 1156v3h-80v-3h80Z"/><path fill="#FCF5EB" d="M1163.67 1108.04v-18.12h-.01l.01-.15c0-14.91-9.6-27.66-23.14-32.77l-49.53 88.03v58.9h24.77c13.65-27.39 32.72-65.62 47.9-95.89Zm136.16 0v-18.27c0-14.91-9.6-27.66-23.13-32.77l-49.53 88.03v58.9h24.77c13.64-27.39 32.71-65.62 47.89-95.89Zm0 389.06V1478.84c0-14.92-9.6-27.66-23.13-32.77l-49.53 88.03v58.9h24.77c13.64-27.39 32.71-65.63 47.89-95.9ZM1436 1108.04v-18.27c0-14.91-9.6-27.66-23.14-32.77l-49.53 88.03v58.9h24.77c13.65-27.39 32.72-65.62 47.9-95.89Z" opacity=".3"/><path fill="#F4B98C" d="M1614.78 2197.11c33.81 0 278.87-56.06 312.55-53.05 81.9 7.29 163.77 32.24 245.02 19.33 73.73-11.72 140.94-53.95 215.18-61.6 24.44-2.52 49.44-1.25 73.21-7.67 23.54-6.36 71.26-44.55 71.26-44.55L41 2049s17.69 54.34 64.5 66.01c220.285 54.94 646.436 8.09 872.153 29.09 60.557 5.63 149.557 46.89 210.067 53.01 64.45 6.51 393.92-.01 427.06 0Z" opacity=".3"/><path fill="#31535B" d="M1616 1988h2.36v41H1616v-41Zm116.64 0h2.36v41h-2.36v-41Z"/><path fill="#F7CC7F" d="M1741.54 1982h-132.08c-.23 0-.47.05-.69.16-.22.1-.41.25-.58.44-.17.19-.3.42-.39.67-.09.25-.14.52-.14.79v3.9c0 1.14.81 2.06 1.8 2.06h132.08c.23 0 .47-.05.69-.16.22-.1.41-.25.58-.44.17-.19.3-.42.39-.67.09-.25.14-.52.14-.79v-3.9c0-.27-.05-.54-.14-.79-.09-.25-.22-.48-.39-.67-.17-.19-.36-.34-.58-.44-.22-.11-.46-.16-.69-.16Zm0 11.39h-132.08c-.48 0-.93.22-1.27.6-.34.39-.53.91-.53 1.45v3.91c0 1.14.81 2.06 1.8 2.06h132.08c.48 0 .93-.22 1.27-.6.34-.39.53-.91.53-1.46v-3.91c0-.54-.19-1.06-.53-1.45-.34-.38-.79-.6-1.27-.6Zm0 11.39h-132.08c-.48 0-.93.21-1.27.6-.34.39-.53.91-.53 1.45v3.91c0 1.14.81 2.06 1.8 2.06h132.08c.48 0 .93-.22 1.27-.61.34-.38.53-.9.53-1.45v-3.91c0-.54-.19-1.06-.53-1.45-.34-.39-.79-.6-1.27-.6ZM1744 2031h-137v-.63c0-1.47.51-2.89 1.43-3.93.91-1.04 2.15-1.63 3.44-1.63h127.26c.64 0 1.27.14 1.86.42.59.28 1.13.69 1.58 1.21.46.52.81 1.13 1.06 1.8.24.68.37 1.4.37 2.13v.63Z"/><path fill="#31535B" d="M1743.89 2031h-137.78c-.61 0-1.11.6-1.11 1.35v.3c0 .75.5 1.35 1.11 1.35h137.78c.61 0 1.11-.6 1.11-1.35v-.3c0-.75-.5-1.35-1.11-1.35Z"/><path fill="#F8A492" d="M1695.46 2004.44c1.84-1.13 17.28-10.65 17.85-11.28.51-.57 7.69-13.51 7.69-13.51l-6.28-1.65-6.24 12.12c-.52.46-10.34 8.46-10.34 8.46s-1.77 1.52-2.86 2.35c-.33.02-.64.04-.9.04a7.02 7.02 0 0 1-1.51-.26c-.54-.15-1.66-.29-1.93-.24-.31.05-.94.18-1.33.26-.38.09-.83.17-1.03.24-.12.05-.4.02-.61 0-.3-.04-.49.36-.28.62.19.24.59.3.84.34.72.11 1.83-.19 1.81-.07-.02.12-1.65 1.3-1.83 1.45-.18.15-2.07 1.53-2.36 1.93-.29.41-.11.68.15.64.23-.02 2.97-1.71 2.97-1.71s.35-.22.3.02c-.04.23-2.53 1.77-2.86 2.08-.33.3-.43.69-.03.78.48.12 3.05-1.71 3.05-1.71s.32-.22.35-.04c.03.18-2.1 1.45-2.24 1.67-.15.22-.09.58.29.59.44 0 2.72-1.65 2.72-1.65s.2-.07.18.06c-.03.14-1.78 1.36-1.87 1.66-.01.03-.02.07-.02.1s0 .07.02.1c.01.03.02.06.05.08.02.02.04.04.07.05.39.28 1.94-1.18 2.83-1.6.89-.41 3.29-1.88 3.35-1.92Z"/><path fill="#355389" d="M1714.64 1974s-1.68.51-3.9 5.4c-2.06 4.57-3.74 9.61-3.74 9.61l5.64 3.99s2.04-10.38 2.29-10.74c.26-.36-.29-8.26-.29-8.26Z"/><path fill="#F7A491" d="m1704.49 2062 .18 4.16c.07.53.33 1.83.33 2.31 0 1.8-6.18-1.53-4.8-2.32.13-.08.79-.62.83-1.23.06-.95.22-2.86.22-2.86l3.24-.06Z"/><path fill="#466EB6" d="M1699.58 2066.08s1.87.56 2.82.7c.95.15 2.21-1.05 2.89-.72.74.35.71 3.55.71 3.55s-9.99.9-12.8-.04c-1.11-.37 2.58-2.17 6.38-3.49Z"/><path fill="#F7A491" d="m1691.49 2062.58.18 3.82c.07.48.33 1.68.33 2.12 0 1.65-6.18-1.41-4.8-2.14.13-.06 1.06-.27 1.11-.84.06-.86.18-3.54.18-3.54l3 .58Z"/><path fill="#466EB6" d="M1686.58 2066.08s1.87.56 2.82.7c.95.15 2.21-1.05 2.89-.72.74.35.71 3.55.71 3.55s-9.99.9-12.8-.04c-1.11-.37 2.57-2.17 6.38-3.49Z"/><path fill="#B75742" d="m1716.95 2015-18.1.1s-8.18-.27-9.47 3.2c-1.29 3.47-1.38 44.57-1.38 44.57s4.28.29 4.5 0l5.4-22.93c.52-2.24.7-4.57.53-6.89l-.47-6.13 7.47.47s8.46-.17 11.26-3.61c2.79-3.44.26-8.78.26-8.78Z"/><path fill="#F47458" d="m1730.25 2012-19.88 1.48s-8.56.84-9.88 4.35c-1.32 3.51.44 45.05.44 45.05s5.03.27 5.02 0c-.01-.31 2.37-17.1 3.51-23.52.36-2.03.49-4.12.38-6.2l-.3-5.43s20.42-.49 21.34-1.61c2.85-3.48-.63-14.12-.63-14.12Z"/><path fill="#466EB6" d="M1714.38 1972.99c2.82-.73 8.03-.83 8.03-.83s3.29-.35 4.33-.02c1.53.5 4.43.89 4.25 8.44-.13 5.41-.09 23.25-.08 32.3l-19.91.12c1.9-18.2.71-39.32 3.38-40.01Z"/><path fill="#F7A491" d="m1719.71 1965 2.29 7.18s-2.2 4.86-4.06 4.82c-1.57-.04-1.17-3.34-1.17-3.34s-.04-4.33-.7-6.33c-.66-2 3.64-2.33 3.64-2.33Z"/><path fill="#F47458" d="M1719.22 1967.57c-.6.79-1.59 1.82-2.65 2.43-.1-1.03-.26-2.09-.5-2.82-.3-.87.43-1.4 1.29-1.72.74-.19 1.48-.35 2.22-.46l.42 1.29c-.14.43-.58 1.02-.78 1.28Z"/><path fill="#F7A491" d="M1719.23 1951.63c.14-.1 2.86 9.26 1.28 12.42-1.58 3.16-5.38 5.02-7.15 3.29-1.96-1.91-3.65-12.28-.97-15.8 2.69-3.52 6.84.09 6.84.09Z"/><path fill="#13375B" d="M1712.2 1948c2.57-.01 4.48 1.29 5.2 1.86 1.14-.11 2.79.23 4.9 2.74 2.6 3.09 1.9 7.32.02 9.76-1.89 2.43-1.44 4.64-1.44 4.64l-.57-1.06c-.43-.81-.7-1.71-.79-2.64-.05-.56-.06-1.17.06-1.71.3-1.4-1.57-1.86-2.24-2.82-.52-.74-.89-2.61-1.73-3.84l-.88-.87s-1.86-1.01-3.34-.27c-1.49.75-2.48-5.78.81-5.79Z"/><path fill="#F7A491" d="M1717.08 1960.77c.25 1.37 1.1 2.36 1.89 2.22.79-.16 1.21-1.39.95-2.76-.25-1.37-1.1-2.36-1.89-2.22-.79.16-1.21 1.39-.95 2.76Z"/><path fill="#fff" d="m1715.99 1964-3.99.64s.33 1.57 2.09 1.34c2.15-.28 1.9-1.98 1.9-1.98Z"/><path fill="#F8A492" d="M1717.42 2001.95c-.2-.13-.49-.66-2.11-1.72-.47-.3-1.21-.22-1.21-.22s-.9.11-.94.41c-.04.3.14.59.31.65.17.07.53-.03.7.03.17.07.45.73.48 1 .04.28-2.64.48-2.64.48s-.77.01-1.02-.01c-.22-.02-.87-.15-.87-.15s-.94-.12-.95.28c0 .23.81.65 1.63.88.89.24 1.8.29 1.81.42.01.29-1.45.45-1.45.45s-.71-.14-1.02-.07c-.42-.18-1.16-.2-1.14.28 0 .09 1 .51 1 .51s.67.11.99.19c.56.14 1.39 0 1.78.05.32.04.21.17.23.21.01.03-.42.06-1 .12-.29.02-.62.14-.97.1-.32-.04-.76 0-1.03.03-.76.08-.58.72.14.8.27.03.57.06.87.08 1.17.11 2.25-.13 2.28.03.05.22-1.93.5-1.93.5s-1.04.57.02.68c1.23.13 2.18-.11 2.22-.13.28-.09 1.34-.03 2.27-.57.69-.41 1.67-1.02 2.13-1.32l-.58-3.99Z"/><path fill="#F8A492" d="m1733.69 1985-5.55 2.67s1.81 4.97 1.91 5.58c0 0-9.14 6.81-13.05 9.09l.63 3.66c.76-.42 1.37-.83 1.75-1.02.76-.38 12.86-6.16 12.86-6.16s4.73-2.53 4.76-3.53c.03-.99-3.31-10.29-3.31-10.29Z"/><path fill="#355389" d="M1735 1987.31s-3.86-11.4-5.55-14.21c-1.69-2.8-4.6-2.69-6.21-.32-1.62 2.38 5.6 17.22 5.6 17.22l6.16-2.69Z"/><path fill="#F7A491" d="m1654.51 2062-.18 4.16c-.07.53-.33 1.83-.33 2.31 0 1.8 6.18-1.53 4.8-2.32-.13-.08-.78-.62-.83-1.24-.06-.94-.22-2.85-.22-2.85l-3.24-.06Z"/><path fill="#B75742" d="M1658.92 2066.08s-1.72.56-2.6.7c-.88.15-2.04-1.05-2.66-.72-.69.35-.66 3.55-.66 3.55s9.22.9 11.81-.04c1.03-.37-2.37-2.17-5.89-3.49Z"/><path fill="#F7A491" d="m1665.51 2062.58-.18 3.82c-.07.48-.33 1.68-.33 2.12 0 1.65 6.18-1.41 4.8-2.14-.13-.06-1.06-.27-1.11-.84-.06-.86-.18-3.54-.18-3.54l-3 .58Z"/><path fill="#B75742" d="M1670.43 2066.08s-1.58.56-2.38.7c-.81.15-1.88-1.05-2.45-.72-.63.35-.6 3.55-.6 3.55s8.45.9 10.83-.04c.94-.37-2.18-2.17-5.4-3.49Z"/><path fill="#13375B" d="m1642.95 2015 16.5.09s7.45-.25 8.62 3.12c1.18 3.38.9 46.24.9 46.24s-3.98.77-4.18.49l-4.48-25.66c-.48-2.19-.64-4.46-.48-6.71l.43-5.96-7.12-.74s-7.4 1.03-9.94-2.32c-2.55-3.35-.25-8.55-.25-8.55Z"/><path fill="#355389" d="m1631.19 2012 18.32 1.44s7.88.82 9.1 4.24c1.21 3.41-.78 47.12-.78 47.12s-4.57.36-4.56.11c.01-.31-1.88-20.03-2.93-26.27-.33-1.99-.44-4.01-.34-6.03l.66-7s-17.01-.13-17.86-1.22c-2.62-3.39-1.61-12.39-1.61-12.39Z"/><path fill="#F48C7F" d="M1672.21 1992.49c.16-.52-2.11-.92-2.24-1.44-.12-.52 2.87-.57 2.98-1.03.19-.84-3.28-.17-3.21-.56.06-.39 3.62-1.29 3.23-1.96-.39-.68-3.6 1.35-3.7.89-.09-.46 3.14-1.59 3.08-2.59-.03-.54-5.31 2.7-5.92 2.41-.62-.29.65-2.82.16-3.19-.49-.37-1.88 5.13-2.21 5.32-.34.18-7.47 4.69-10.01 5.41-.31-.93-2.55-5.88-2.82-6.77-1.43 1.12-3.08 1.37-4.55 2.4 1.08 2.93 4.76 10.15 5.51 10.51 2.27 1.12 10.99-6.89 12.73-8.26 1.75-1.37 2.75-.94 3.93-1.37 1.18-.44 2.88.74 3.04.23Z"/><path fill="#13375B" d="M1648.98 1966.65c.11-3.03-.27-6.02-1.44-8.84-1.01-2.43-3.5-3.81-5.77-3.81-7.2-.01-8.12 11.03-12.7 15.29-1.4 1.3-2.97 2.36-4.3 3.76-4.89 5.18-2.69 14.77 1.81 19.32 3.12 3.15 8.02 4.94 11.87 2.48 2.01-1.29 3.53-3.43 4.61-5.77 1.55-3.33 2.54-7.16 3.63-10.71 1.17-3.77 2.15-7.69 2.29-11.72Z"/><path fill="#B75742" d="M1647.52 1995s-5.63-5.71-7.09-8.19c-1.45-2.48.99-.87 3.48-1.52.94-.25.71-5.71 2.49-3.94 2.92 2.92 6.6 8.01 6.6 8.01l-5.48 5.64Z"/><path fill="#F47458" d="M1639.27 1978.26s-4.94-1.01-7.2.95c-2.26 1.97.48 19.46.48 22.36 0 2.9-1.55 11.09-1.55 11.09s6.4-.05 17.96.34c0 0 .09-18.54-.01-20.62-.1-2.09-2.32-10.62-2.94-11.53-.61-.91-6.74-2.59-6.74-2.59Z"/><path fill="#F7A491" d="M1639.45 1969.12s-.02.16-.05.44c-.18 1.31-.86 5.68-1.32 6.88-.56 1.45 1.9 6.08 4.27 5.51.7-.17-.6-4.25-.53-4.68l.44-3.12.28-1.93.46-3.22-3.55.12Z"/><path fill="#F47458" d="M1639.12 1969.65c.04-.32.06-.51.06-.51l3.82-.14-.49 3.75-.3 2.25c-.59-.13-1.21-.56-1.83-1.37-.63-.82-1.11-1.88-1.38-3.07.05-.36.09-.67.12-.91Z"/><path fill="#F7A491" d="M1642.77 1958.01s-2.05-.27-3.34 1.65c-1.28 1.92-2.67 7.87.53 11.1 3.19 3.23 6.35-.43 6.81-4.31.47-3.87.65-8.58-4-8.44Z"/><path fill="#F7A491" d="M1647.6 1966.3c-.57.53-1.52.82-2.12.65-.61-.16-.64-.73-.08-1.25.57-.53 1.52-.82 2.12-.65.61.16.64.73.08 1.25Z"/><path fill="#13375B" d="M1642 1958.05s-2.38 4.9-4.08 5.12c-1.7.23-1.92 2.83-1.92 2.83s.61-5.99 2.29-7.15c1.68-1.15 3.71-.8 3.71-.8Z"/><path fill="#F7A491" d="M1637.98 1965.3c.08.83-.08 1.58-.34 1.69-.27.11-.54-.47-.62-1.29-.08-.83.08-1.58.34-1.69.27-.11.54.47.62 1.29Z"/><path fill="#fff" d="m1643 1968.25-3-.25s.01 1.82 1.33 1.98c1.6.21 1.67-1.73 1.67-1.73Z"/><path fill="#fff" d="m1643 1968.25-3-.25s.01 1.82 1.33 1.98c1.6.21 1.67-1.73 1.67-1.73Z"/><path fill="#F7A491" d="M1660.18 1995.49c.17-.52-2.19-.92-2.32-1.44-.13-.52 2.98-.57 3.09-1.03.2-.85-3.41-.17-3.34-.56.07-.39 3.76-1.29 3.36-1.96-.4-.67-3.74 1.35-3.84.89-.1-.46 3.26-1.59 3.2-2.59-.04-.54-5.52 2.7-6.16 2.41-.64-.29.68-2.82.17-3.19-.51-.37-1.95 5.13-2.29 5.32-.35.18-7.76 4.69-10.4 5.41-.32-.93-2.64-5.88-2.93-6.77-1.48 1.12-3.19 1.37-4.72 2.4 1.12 2.93 4.95 10.15 5.72 10.51 2.35 1.12 11.42-6.89 13.23-8.26 1.81-1.37 2.85-.93 4.07-1.37 1.23-.44 2.99.74 3.16.23Z"/><path fill="#B75742" d="M1634.25 1995s-3.63-7.61-4.18-10.57c-.55-2.95 2.13-6.66 4.93-6.42 2.8.24 7 13.38 7 13.38l-7.75 3.61Z"/><path fill="#31535B" d="M1611 2033.85h2.66V2074H1611v-40.15Zm128.18 0h2.66V2074h-2.66v-40.15Zm55.51-45.85h2.39v40.71h-2.39V1988Zm117.92 0h2.39v40.71h-2.39V1988Z"/><path fill="#F7CC7F" d="M1921.5 1982h-134c-.49 0-.95.22-1.29.6-.35.39-.54.91-.54 1.46v3.9c0 1.14.82 2.06 1.83 2.06h134c.24 0 .48-.05.7-.16.22-.1.42-.25.59-.44.17-.19.31-.42.4-.67.09-.25.14-.52.14-.79v-3.9c0-.27-.05-.54-.14-.79a2.06 2.06 0 0 0-.4-.67c-.17-.19-.37-.34-.59-.44a1.56 1.56 0 0 0-.7-.16Zm0 11.39h-134c-.24 0-.48.05-.7.16-.22.1-.42.25-.59.44-.17.19-.31.42-.4.67-.09.25-.14.51-.14.78v3.91c0 1.14.82 2.06 1.83 2.06h134c.24 0 .48-.06.7-.16.22-.1.42-.25.59-.44.17-.19.31-.42.4-.67.09-.25.14-.52.14-.79v-3.91c0-.27-.05-.53-.14-.78a2.06 2.06 0 0 0-.4-.67c-.17-.19-.37-.34-.59-.44a1.56 1.56 0 0 0-.7-.16Zm0 11.39h-134c-.24 0-.48.05-.7.15-.22.11-.42.26-.59.45-.17.19-.31.42-.4.67-.09.25-.14.51-.14.78v3.91c0 1.14.82 2.06 1.83 2.06h134c.24 0 .48-.06.7-.16.22-.1.42-.25.59-.45.17-.19.31-.41.4-.66.09-.25.14-.52.14-.79v-3.91c0-.27-.05-.53-.14-.78a2.06 2.06 0 0 0-.4-.67c-.17-.19-.37-.34-.59-.45-.22-.1-.46-.15-.7-.15Zm2.5 26.22h-139v-.63c0-1.47.52-2.89 1.45-3.93.92-1.04 2.18-1.63 3.49-1.63h129.12c1.31 0 2.56.59 3.49 1.63.93 1.04 1.45 2.46 1.45 3.93v.63Z"/><path fill="#31535B" d="M1923.89 2031.01h-138.44c-.61 0-1.11.57-1.11 1.28v.28c0 .71.5 1.28 1.11 1.28h138.44c.61 0 1.11-.57 1.11-1.28v-.28c0-.71-.5-1.28-1.11-1.28Zm-133.88 2.84h2.66V2074h-2.66v-40.15Zm128.08 0h2.66V2074h-2.66v-40.15ZM802 1988h2.388v40.71H802V1988Zm117.829 0h2.388v40.71h-2.388V1988Z"/><path fill="#F7CC7F" d="M928.537 1982H796.462c-.237 0-.471.05-.69.16-.218.1-.417.25-.584.44-.167.19-.3.42-.39.67a2.32 2.32 0 0 0-.137.79v3.9c0 1.14.806 2.06 1.801 2.06h132.075c.237 0 .471-.05.69-.16.218-.1.417-.25.584-.44.167-.19.3-.42.39-.67.091-.25.137-.52.137-.79v-3.9c0-.27-.046-.54-.137-.79-.09-.25-.223-.48-.39-.67a1.756 1.756 0 0 0-.584-.44 1.524 1.524 0 0 0-.69-.16Zm0 11.39H796.462c-.478 0-.936.22-1.274.6-.337.39-.527.91-.527 1.45v3.91c0 1.14.806 2.06 1.801 2.06h132.075c.478 0 .936-.22 1.274-.6.337-.39.527-.91.527-1.46v-3.91c0-.54-.19-1.06-.527-1.45-.338-.38-.796-.6-1.274-.6Zm0 11.39H796.462c-.478 0-.936.21-1.274.6-.337.39-.527.91-.527 1.45v3.91c0 1.14.806 2.06 1.801 2.06h132.075c.478 0 .936-.22 1.274-.61.337-.38.527-.9.527-1.45v-3.91c0-.54-.19-1.06-.527-1.45a1.68 1.68 0 0 0-1.274-.6Zm2.462 26.22H794v-.63c0-1.47.513-2.89 1.427-3.93.913-1.04 2.152-1.63 3.444-1.63h127.258c1.292 0 2.531.59 3.444 1.63.914 1.04 1.427 2.46 1.427 3.93l-.001.63Z"/><path fill="#31535B" d="M930.893 2031.01H793.135c-.611 0-1.107.57-1.107 1.28v.28c0 .71.496 1.28 1.107 1.28h137.758c.612 0 1.107-.57 1.107-1.28v-.28c0-.71-.495-1.28-1.107-1.28Zm-133.227 2.84h2.649V2074h-2.649v-40.15Zm127.456 0h2.649V2074h-2.649v-40.15ZM614 1988h2.376v40.71H614V1988Zm117.254 0h2.376v40.71h-2.376V1988Z"/><path fill="#F7CC7F" d="M738.538 1982H606.463c-.237 0-.471.05-.69.16-.218.1-.417.25-.584.44-.167.19-.3.42-.39.67a2.32 2.32 0 0 0-.137.79v3.9c0 1.14.806 2.06 1.801 2.06h132.075c.237 0 .471-.05.69-.16.218-.1.417-.25.584-.44.167-.19.3-.42.391-.67.09-.25.137-.52.137-.79v-3.9c0-.55-.19-1.07-.528-1.46-.338-.38-.796-.6-1.274-.6Zm0 11.39H606.463c-.478 0-.936.22-1.274.6-.337.39-.527.91-.527 1.45v3.91c0 1.14.806 2.06 1.801 2.06h132.075c.478 0 .936-.22 1.274-.6.338-.39.528-.91.528-1.46v-3.91c0-.54-.19-1.06-.528-1.45-.338-.38-.796-.6-1.274-.6Zm0 11.39H606.463c-.478 0-.936.21-1.274.6-.337.39-.527.91-.527 1.45v3.91c0 1.14.806 2.06 1.801 2.06h132.075c.478 0 .936-.22 1.274-.61.338-.38.528-.9.528-1.45v-3.91c0-.54-.19-1.06-.528-1.45a1.68 1.68 0 0 0-1.274-.6ZM741 2031H604v-.63c0-1.47.513-2.89 1.427-3.93.913-1.04 2.152-1.63 3.444-1.63h127.258c1.292 0 2.531.59 3.444 1.63.914 1.04 1.427 2.46 1.427 3.93v.63Z"/><path fill="#31535B" d="M741.884 2031H603.115c-.615 0-1.115.57-1.115 1.27v.29c0 .7.5 1.27 1.115 1.27h138.77c.615 0 1.115-.57 1.115-1.27v-.29c0-.33-.118-.66-.327-.9a1.043 1.043 0 0 0-.789-.37Zm-134.204 2.83h2.668V2074h-2.668v-40.17Zm128.391 0h2.668V2074h-2.668v-40.17Z"/><path fill="#8C716C" d="M1140.21 2020.51c.32-1.04 5.78-20.51 5.78-20.51l-8.4 2.15-3.83 15.13c-.32.76-6.24 19.06-8.29 24.96-.21.58-.53 1.09-.95 1.49-.42.4-.92.68-1.46.81h-.02c-.72.18-2.14.75-2.43.98-.35.27-1.05.86-1.47 1.22-.41.36-.91.76-1.11.98-.13.13-.48.29-.73.39-.38.16-.4.78-.03.96.35.17.87-.03 1.2-.15.91-.34 2.1-1.44 2.14-1.28.03.16-1.32 2.69-1.46 2.99-.14.3-1.7 3.25-1.84 3.94-.14.69.21.9.51.69.26-.19 2.68-4.08 2.68-4.08s.31-.5.38-.18c.06.32-2.13 3.86-2.37 4.46-.24.6-.16 1.13.37.98.64-.18 2.78-4.13 2.78-4.13s.27-.49.4-.28c.13.2-1.78 3.18-1.84 3.54-.05.37.2.77.66.52.53-.29 2.41-3.83 2.41-3.83s.21-.22.25-.04c.04.18-1.43 2.85-1.39 3.28.04.36.32.33.32.33.61.08 1.73-2.74 2.58-3.85.85-1.11 14.8-30.31 15.16-31.47Zm34.21 103.78s1.8 2.02 1.84 2.76c.04.73.16 8.65-.57 9.39-.74.74-2.89 1.26-2.2 2.09.53.63 4.55.5 7.22.33.78-.05 1.76-7.19 2.07-8.24.45-1.52 1.54-4.95 1.13-6.02-.2-.52-1.15-1.58-2.49-2.57-1.41-1.05-2.75-3.37-2.75-3.37l-4.25 5.63Zm-18.61 4.69s1.61 5.22 1.61 5.23c.12.83.59 2.87.59 3.62 0 2.82-11.09-2.39-8.6-3.65.22-.11.93-1.01 1-1.97.12-1.48-.93-3.34-.93-3.34l6.33.11Z"/><path fill="#13375B" d="M1138.07 2032s-.83 9.23-.83 9.36c0 14.93-2.69 44.08-2.18 46.88 1.25 6.85 14.68 41.76 14.68 41.76l7.26-.95-9.46-41.8 3.48-16.83 4.93-33.25-17.88-5.17Z"/><path fill="#355389" d="m1161.43 2039.95 1.32 8.88 3.59 36.53 13.66 35.71s-1.92 5.2-4.76 5.93l-21.74-36.66-13.5-46.92.47-10.42 20.96 6.95Z"/><path fill="#50BFA5" d="m1135 2008.93 10.52 1.07s.48-8.62.48-12.73c0-4.98-.42-11.41-1.03-11.27-1.69.39-3.97 1.32-5.32 3.18-4.7 6.45-4.65 19.75-4.65 19.75Z"/><path fill="#96D9C9" d="M1139.93 1997.25c-.2 1.59-3.93 44.94-3.93 44.94 17.65 9.7 27.39 1.73 27.39 1.73s-.57-30.44.12-34.58c.46-2.74 1.03-20.96-.53-21.47-2.01-.66-4.31-1.35-6.81-1.65-2.14-.25-10.45-.4-11.94.17 0 0-3.45 4.15-4.3 10.86Z"/><path fill="#13375B" d="M1180.48 2122s-4.1 13.34-5.71 13.99c-.43.17-2.47.6-2.86 1.64-.11.32 0 1.37 0 1.37h8.55s1.08-5.88 1.51-8.46c0 0 2.26-6.31 2.01-6.88-.25-.58-3.5-1.66-3.5-1.66Zm-22.47 16.72-1.26-4.58s-2.64 1.29-3.96 1.07c-1.32-.21-3.9-1.07-3.9-1.07-5.27 2-9.58 2.97-8.8 4.58h17.92Z"/><path fill="#8C716C" d="m1154.7 1977.55 1.3 8.96s-4.78 11.39-7.63 10.43c-2.39-.8-.92-10.59-.92-10.59s1.3-5.26.91-7.89 6.34-.91 6.34-.91Z"/><path fill="#8C716C" d="M1147.18 1978.34c-.42-2.4 6.71-.84 6.71-.84l.11.71c-.21.46-.46.87-.77 1.18-1.59 1.58-4.08 2.54-6.23 2.61.22-1.29.35-2.68.18-3.66Z"/><path fill="#8C716C" d="M1155.44 1963.16c.2-.08 1.65 11.52-1.09 14.72-2.74 3.19-8.08 4.23-10 1.72-2.12-2.78-2.01-15.25 2.25-18.54 4.26-3.28 8.84 2.1 8.84 2.1Z"/><path fill="#0E2E35" d="M1153.51 1959.4c1.2.19 2.83 1.05 4.52 4.66 2.07 4.43.54 9.35-1.87 11.77-2.42 2.41-2.38 5.17-2.38 5.17l-.39-1.42c-.28-1.09-.39-2.25-.3-3.39.06-.69.17-1.43.39-2.04.58-1.62-1.25-2.69-1.76-4.03-.39-1.03-.41-3.39-1.03-5.1l-.75-1.3s-1.71-1.72-3.38-1.24c-1.68.49.38-10.08 6.95-3.08Z"/><path fill="#8C716C" d="M1151.3 1971.41c-.02 1.34.54 2.44 1.24 2.45.71.01 1.3-1.07 1.32-2.41.02-1.34-.54-2.44-1.24-2.45-.71-.01-1.3 1.06-1.32 2.41Zm22.3 34.63-7.1 5.88 4.94 8.94c-3.94 4.5-13.4 11.71-13.4 11.71s-.88.69-2.07 1.48l-.91.6c-.56-.02-1.41-.02-1.92.18-.69.27-2 .39-2.29.63-.29.24-1.47 2.04-1.68 2.21-.21.17-.34.55-.42.74-.09.19-1.53 1.34-1.71 1.76-.18.42.29 1.46.62 1.61 0 0 .06.08-.01.3-.08.22-.01.79.16 1.03s.61.5.91.27c0 0 .17-.07.22-.02.05.05.15.48.4.75.24.27.6.31 1.09-.03 0 0 .31 1.44 1.35.72l1.41-.99s.88-.3 1.2-.57c.33-.27 2.39-1.84 2.49-2.05.11-.21.35-.7.43-.77.09-.07 1.01-1.04 1.12-1.25.06-.12.76-.8 1.28-1.3.66-.35 1.35-.72 2.07-1.11 9.96-5.36 19.71-10.28 19.2-14.41-.28-2.25-5.08-12.63-7.38-16.31Z"/><path fill="#96D9C9" d="m1175 2005.79-8 6.21s-4.51-7.76-6.92-10.52c-3.04-3.46 1.1-14.06 3.05-13.46 4.37 1.35 11.87 17.77 11.87 17.77Z"/><path fill="#fff" d="m1145 1974 3 .68s-.18 2.52-1.51 2.31c-1.61-.26-1.49-2.99-1.49-2.99Z"/><path fill="#F7A491" d="M1084.85 2122s-.48 6.26-.17 8.3c.05.28.14.62.25 1.01.33 1.14-.57 4.64-.57 4.64l-12.03.05c-.66 0-.22-.49.31-.94.88-.74 1.58-1.23 4.36-2.77.18-.1.84-.58 1.08-.75.6-.43 1.21-1.1 1.74-1.78.87-1.12 1.01-6.64 1.01-6.64l4.02-1.12Z"/><path fill="#B75742" d="M1078.23 2132.2c3.27.91 5.7.35 7.06-.2.34 1.03.97 4.51.59 4.51-3.11 0-5.74.61-14.65.47-.32-.01-.28-1.14-.07-1.39.58-.7 6.82-3.24 7.07-3.39Z"/><path fill="#50BFA5" d="M1102 2039.37s-.19 9.93-2.63 16.3c-2.36 6.19-13.7 21.47-16.72 30.39.94 5.03 3.5 12.1 3.31 17.68-.21 6.32.11 23.03.11 23.03l-6.09.23-7.98-43.14 12.03-46.56 5.46-11.3 12.51 13.37Z"/><path fill="#F7A491" d="M1129.44 2112s3.17 5.7 4.56 7.15c.75.77 2.78 1.8 3 3.08.21 1.28-9.2 12.57-9.2 12.57-.5.58-.45-.22-.29-1.07.24-1.39.5-2.42 1.75-6.16.08-.24.31-1.23.4-1.58.22-.89.31-1.99.33-3.03.03-1.71-2.99-6.48-2.99-6.48l2.44-4.48Z"/><path fill="#B75742" d="M1128.84 2126.16c3.7-1.92 5.49-4.5 6.32-6.16 1.1.67 4.09 2.1 3.82 2.5-2.06 3.15-4.19 7.06-12.47 14.47-.29.26-1.51-1.26-1.51-1.67-.01-1.13 3.73-8.79 3.84-9.14Z"/><path fill="#96D9C9" d="M1102.51 2033s4.83 8.22 5.98 15.01c1.12 6.63-.74 26.61 1.2 35.88 3.31 3.48 9.01 7.53 11.66 12.19 2.99 5.28 11.65 18.68 11.65 18.68l-5 4.24-28.37-29.81-11.49-39.76-3.14-13.31 17.51-3.12Z"/><path fill="#F8A492" d="M1088.05 2020.13c.18-1.13 2.95-22.13 2.95-22.13l-7.96 3.75-1.75 16.24c-.22.84-3.59 20.72-4.82 27.15-.12.64-.37 1.22-.73 1.71s-.82.87-1.32 1.09l-.02.01c-.69.32-2 1.16-2.26 1.46-.44.5-.86 1-1.28 1.51-.36.45-.8.95-.96 1.21-.11.16-.43.39-.67.55-.35.23-.29.86.1.98.37.11.86-.19 1.16-.37.85-.52 1.87-1.87 1.93-1.71.05.16-.94 3.01-1.04 3.34-.09.34-1.24 3.66-1.28 4.39-.04.73.33.89.59.61.23-.24 2.09-4.68 2.09-4.68s.24-.57.35-.26c.11.32-1.58 4.36-1.73 5.02-.16.66-.01 1.19.49.94.6-.3 2.18-4.75 2.18-4.75s.2-.55.36-.37c.15.19-1.33 3.6-1.33 3.98-.01.39.29.76.7.42.49-.4 1.87-4.38 1.87-4.38s.17-.27.24-.09c.06.18-1.03 3.2-.93 3.63.08.36.35.27.35.27.61-.02 1.34-3.13 2.02-4.42.7-1.3 10.5-33.85 10.7-35.1Z"/><path fill="#0E2E35" d="M1085.03 1977.97c-.16-4.54.41-9.03 2.14-13.26 1.49-3.64 5.17-5.71 8.53-5.71 10.68-.02 12.03 16.54 18.83 22.93 2.07 1.95 4.39 3.54 6.36 5.65 7.25 7.77 3.99 22.16-2.67 28.97-4.63 4.73-11.89 7.42-17.59 3.72-2.97-1.93-5.23-5.14-6.84-8.65-2.28-4.99-3.75-10.74-5.37-16.06-1.73-5.66-3.18-11.55-3.39-17.59Z"/><path fill="#F48C7F" d="M1119.14 2047.43c.02-.1-3.58-18.1-5.04-22.08-1.45-3.98-7.1-22.47-7.1-22.47l7.31-1.88s4.72 14.47 6.87 21c2.15 6.54 1.23 18.6 1.33 22 0 .05.32 2.88.32 2.93.07.38.14.69.17.75.09.17.34 1.31.35 1.41.01.09.23.48.31.65.09.16.29 2.47.33 2.85.04.37-.1 1.22-.1 1.22l.08 1.55c.06 1.13-.94.83-.94.83.02.54-.14.82-.39.92-.26.1-.56.02-.61.04-.05.02-.07.19-.07.19.03.34-.3.6-.51.65-.21.05-.59-.11-.69-.26-.11-.15-.18-.13-.18-.13-.22.21-1.03.21-1.22-.1-.19-.31-.36-1.95-.45-2.1-.08-.14-.27-.39-.29-.63-.03-.24-.7-1.91-.74-2.24-.04-.34.38-1.47.47-2.14.09-.68.65-1.73.79-2.03.05-.12.03-.5 0-.93Z"/><path fill="#13375B" d="M1082.7 2000.48c3.45-10.94 7.3-10.48 7.3-10.48l-2.98 23c-2.13-.61-4.9-1.96-7.02-2.59.7-3.46 1.86-7.24 2.7-9.93Z"/><path fill="#355389" d="M1098.88 1987.02s6.2-.46 8.65 2.69c2.45 3.14-5.44 28.03-5.89 32.04-.44 4 2.28 14.65 2.28 14.65s-14.56 3.45-18.72.21c0 0-.45-28.8 0-31.66.44-2.86 4.16-14.49 5.05-15.64.89-1.14 8.63-2.29 8.63-2.29Z"/><path fill="#F7A491" d="m1096.67 1978.15.1.54c.28 1.62 1.37 6.99 2.1 8.47.89 1.78-3.04 7.48-6.83 6.78-1.12-.21.96-5.23.86-5.76-.2-1.02-.46-2.41-.72-3.84l-.44-2.38-.74-3.96 5.67.15Z"/><path fill="#F47458" d="M1096.83 1978.65c-.06-.32-.1-.51-.1-.51l-5.73-.14.74 3.75.45 2.25c.88-.13 1.81-.56 2.74-1.37.95-.82 1.66-1.88 2.07-3.07-.07-.36-.13-.67-.17-.91Z"/><path fill="#F7A491" d="M1093.17 1963.02s2.51-.37 4.08 2.23c1.57 2.61 3.26 10.68-.64 15.06-3.9 4.39-7.76-.57-8.33-5.84-.57-5.26-.8-11.64 4.89-11.45Z"/><path fill="#F7A491" d="M1086.4 1973.6c.57 1.06 1.52 1.64 2.12 1.31.61-.34.64-1.46.08-2.51-.57-1.06-1.52-1.64-2.12-1.31-.61.34-.64 1.46-.08 2.51Z"/><path fill="#0E2E35" d="M1092 1962.08s3.56 7.34 6.11 7.68c2.55.34 2.89 4.24 2.89 4.24s-.91-8.99-3.44-10.72c-2.52-1.74-5.56-1.2-5.56-1.2Z"/><path fill="#fff" d="m1096 1975-6 .29s.23 2.74 2.87 2.71c3.22-.04 3.13-3 3.13-3Z"/><path fill="#355389" d="M1110.29 2013s-8.32-10.69-9.82-14.65c-1.5-3.95.75-9.88 4.25-10.34 3.51-.47 12.28 17.08 12.28 17.08l-6.71 7.91Z"/><path fill="#F7A491" d="M1921.46 1964.66c-.1-.78 2.83-.77 3.09-1.48.25-.71-3.5-1.56-3.55-2.25-.08-1.25 4.16.62 4.15.05-.01-.58-4.31-2.79-3.69-3.65.61-.86 4.26 2.87 4.47 2.24.21-.63-3.64-3.09-3.38-4.5.15-.76 6.17 5.23 7 4.98.82-.25-.29-4.19.4-4.6.69-.4 1.54 7.33 1.93 7.68.39.35 8.97 7.15 12.02 8.84.57-1.25 4.62-7.83 5.13-9.02 1.58 1.97 4.32 1.21 5.97 3.05-1.91 3.91-7.47 15.61-8.48 15.94-3.06 1-14.59-11.43-16.52-13.84-1.93-2.42-3.27-2.05-4.67-2.98-1.41-.93-3.76.31-3.87-.46Z"/><path fill="#96D9C9" d="M1948 1965.27s4.2-14.42 6.84-17.79c2.63-3.38 8.28-3.36 9.98.4 1.7 3.76-9.19 21.12-9.19 21.12l-7.63-3.73Z"/><path fill="#F7A491" d="M1962.8 1955c-4.26-.11-3.78-9.48-3.78-9.48 1.63-.16 2.94-1.58 3.2-3.41.19-1.35.32-2.82.18-3.83-.32-2.3 5.23-.8 5.23-.8l.73 5.48c.1.77.41 1.5.88 2.07.47.57 1.09.97 1.76 1.14 0 0-3.94 8.93-8.2 8.83Z"/><path fill="#F48C7F" d="M1983.9 2070.71s1.52 1.68 1.56 2.3c.03.62.13 7.23-.49 7.85-.62.62-2.44 1.06-1.86 1.75.45.53 3.85.41 6.11.27.66-.04 1.49-6.01 1.75-6.88.38-1.28 1.3-4.15.95-5.03-.16-.44-.97-1.32-2.1-2.15-1.19-.88-2.33-2.82-2.33-2.82l-3.59 4.71Z"/><path fill="#F7A491" d="M1967.79 2075.09s1.62 4.26 1.62 4.28c.12.67.59 2.34.59 2.96 0 2.3-11.13-1.96-8.64-2.99.23-.09.94-.83 1.01-1.61.12-1.21-.93-2.73-.93-2.73l6.35.09Z"/><path fill="#355389" d="M1951.73 1988s-1.78 8.13-1.78 8.25c0 13.56-1.3 40.28-.86 42.83 1.1 6.21 12.88 37.92 12.88 37.92l6.36-.87-4.4-34 6.07-23.42-2.59-26.02-15.68-4.69Z"/><path fill="#13375B" d="m1981.39 1994.79-2.46 30.25 10.07 42.73s-1.73 4.59-4.28 5.23l-19.57-32.37-12.15-41.43.43-9.2 27.96 4.79Z"/><path fill="#50BFA5" d="M1989.8 2069s-3.73 10.99-5.19 11.52c-.39.14-2.25.49-2.6 1.35-.1.26 0 1.13 0 1.13h7.77s.99-4.84 1.37-6.97c0 0 2.06-5.19 1.83-5.67-.23-.47-3.18-1.36-3.18-1.36Zm-20.43 13.77-1.14-3.78s-2.4 1.07-3.6.89c-1.2-.18-3.55-.89-3.55-.89-4.79 1.65-8.71 2.46-8 3.78h16.29Z"/><path fill="#F47458" d="M1963.1 1938.07c-.24-1.92 3.83-.67 3.83-.67l.07.56c-.12.38-.26.7-.44.95-.91 1.27-2.33 2.03-3.56 2.09.12-1.03.2-2.14.1-2.93Z" opacity=".5"/><path fill="#F7A491" d="M1968.49 1924.78c.15-.07 1.39 11.19-.64 14-2.02 2.8-6.57 2.87-7.99.66-1.57-2.44-1.06-13.62 2.09-16.51 3.15-2.88 6.54 1.85 6.54 1.85Z"/><path fill="#F7CC7F" d="M1962.87 1918.06c2.56.63 4.21 2.53 4.82 3.34 1.16.16 2.74.94 4.37 4.22 2 4.02.52 8.48-1.81 10.67-2.33 2.18-2.3 4.71-2.3 4.71l-.36-1.31c-.28-.99-.38-2.04-.3-3.07.06-.63.17-1.3.38-1.86.56-1.46-1.21-2.43-1.7-3.64-.38-.94-.4-3.08-1-4.63l-.72-1.18s-1.65-1.56-3.27-1.12c-1.62.44-1.39-6.94 1.89-6.13Z"/><path fill="#F7A491" d="M1966 1932.47c-.02 1.39.63 2.52 1.46 2.53.83.01 1.52-1.09 1.54-2.48.02-1.38-.63-2.51-1.46-2.52-.83-.01-1.52 1.09-1.54 2.47Z"/><path fill="#fff" d="m1963 1936.17-3-.17s-.01.88 1.3.99c1.61.12 1.7-.82 1.7-.82Z"/><path fill="#327F6B" d="M1955.41 1949.38c1.07-2.66 2.26-4.17 2.26-4.17.23-.09.63-.16 1.15-.21 0 0-.49 9.98 3.84 10.09 4.34.12 8.36-9.4 8.36-9.4 1.09.29 2.32.63 3.07.88 0 0 3.79.86 4.82 7.61 1.03 6.75 2.94 32.13 3.09 37.38.11 3.83-4.8 7.16-11.61 8.64-1.64.51-3.75.88-6.32.77-.64.03-1.29.04-1.95.03-7.56-.11-10.25-2.67-11.18-4.17a5.65 5.65 0 0 1-.48-.26l.05-.62c-.03-.12-.05-.19-.05-.19s-5.54-24.87 4.95-46.38Z"/><path fill="#F7A491" d="M1973 1963.03s9.6 15.02 11.87 18.52c2.26 3.49 8.51 17.51 8.74 18.06.22.56-3.13 7.47-2.26 7.66.86.19 1.55-3.63 2.49-3.22.94.41 4.22 9.41 4.7 8.93.91-.89-1.82-5.59-1.32-5.91.49-.33 2.44 5.19 3.45 4.98 1-.21-2.28-5.04-2.03-5.49.25-.45 3.63 4.09 4.11 3.07.27-.55-3.08-3.96-2.51-4.31.57-.36 3.5 1.8 3.75 1.13.24-.67-2.67-1.45-3.64-3.19-.98-1.74-2.49-2.44-3.31-5.7-.83-3.27-2.82-17.06-6.32-22.86-3.49-5.81-10.63-16.7-10.63-16.7l-7.09 5.03Z"/><path fill="#96D9C9" d="m1989 1968.5-9.5 7.5s-5.35-9.37-8.22-12.71c-3.6-4.18 1.31-16.98 3.63-16.26 5.18 1.62 14.09 21.47 14.09 21.47Z"/><path fill="#13375B" d="m1407.22 2005.3.52.51c.27.26.67.25.9-.02l9.21-11.12c.23-.27.19-.71-.07-.97l-.52-.51c-.27-.26-.67-.25-.9.02l-9.21 11.12c-.23.27-.19.71.07.97Z"/><path fill="#F7A491" d="M1378.89 1996.17c1.17-1.11 10.26 3.52 10.15 5.13-.12 1.61 6.34 17.21 6.34 17.21l11.16-10.32v.01c.1-.38 1.16-4.39 1.21-5.11.05-.75 1.94-2.07 2.82-1.87.87.19-.75 1.47-.86 1.7-.29.64.83.87.83.87s3.23-2.05 3.29-3.25c.07-1.21.74-3.74 1.43-3.21.36.27.36 2.07.25 2.92.2-.97.5-2.06.78-2.17.53-.19.79.57.69.95-.09.38-.94 4.48-1.19 4.95-.25.45-5.46 5.31-6.21 6.37 0 0-14.43 19.13-15.46 19.63-.9.44-4.12-6.16-7.16-10.53-3.03-4.38-11.74-19.82-8.07-23.28Z"/><path fill="#F48C7F" d="M1349.9 2133.37s-1.86 2.28-1.9 3.11c-.05.84-.17 9.79.59 10.62.76.84 2.99 1.43 2.27 2.37-.54.71-4.71.56-7.46.37-.81-.06-1.82-8.13-2.14-9.31-.46-1.73-1.59-5.61-1.17-6.81.21-.59 1.19-1.79 2.57-2.91 1.46-1.18 2.85-3.81 2.85-3.81l4.39 6.37Z"/><path fill="#F7A491" d="M1370.45 2139.13s-1.79 5.86-1.79 5.87c-.13.93-.66 3.23-.66 4.07 0 3.17 12.37-2.69 9.6-4.1-.26-.12-1.04-1.14-1.13-2.22-.12-1.66 1.05-3.75 1.05-3.75l-7.07.13Z"/><path fill="#355389" d="M1389.65 2033s.9 10.26.9 10.41c0 16.6 2.94 49.03 2.38 52.15-1.36 7.61-16.01 46.44-16.01 46.44l-7.92-1.06 10.32-46.49-3.8-18.71-5.37-36.99 19.5-5.75Z"/><path fill="#13375B" d="m1363.96 2042.47-1.42 9.53-3.86 39.26-14.68 38.37s2.07 5.59 5.11 6.37l23.37-39.39 14.52-50.41-.51-11.2-22.53 7.47Z"/><path fill="#E25A44" d="m1393 2007.79-10.52 1.21s-.48-9.69-.48-14.32c0-5.61.43-12.83 1.03-12.68 1.69.44 3.97 1.49 5.32 3.58 4.69 7.25 4.65 22.21 4.65 22.21Z"/><path fill="#F47458" d="M1386.79 1994.54c.22 1.78 4.21 50.1 4.21 50.1-18.91 10.81-29.35 1.93-29.35 1.93s.62-33.94-.12-38.56c-.49-3.05-1.11-23.36.57-23.93 2.15-.73 4.61-1.5 7.29-1.83 2.29-.28 11.2-.45 12.79.19 0 0 3.69 4.63 4.61 12.1Z"/><path fill="#F7CC7F" d="M1342.84 2131s4.48 14.91 6.23 15.63c.46.19 2.69.68 3.12 1.84.12.35 0 1.53 0 1.53h-9.33s-1.18-6.57-1.64-9.46c0 0-2.47-7.05-2.2-7.69.28-.64 3.82-1.85 3.82-1.85Zm24.52 18.69 1.37-5.13s2.88 1.45 4.32 1.21c1.44-.24 4.25-1.21 4.25-1.21 5.75 2.24 10.46 3.33 9.6 5.13h-19.54Z"/><path fill="#F7A491" d="M1393.5 2029.98c.04-.08.08-.16.11-.26-.13-4.87-.11-9.6.39-11.2-.01-.07-.12-.78-.23-1.52-.58 1.37-.85 5.02-.75 10.93.01.41.05.72.08 1.23.17.56.32.93.4.82Z"/><path fill="#F8A492" d="M1342.8 2045.47c-.01-.1-.01-.21 0-.32.28-3.38 2.64-31.82 3.04-33.02.36-1.1 10.95-19.13 10.95-19.13l5.21 8.44-10.19 16.18c-.23 1.03-3.9 20.22-3.9 20.22s-.76 3.5-1.1 5.59c.16.51.31.99.44 1.38.34.83.74 1.52 1.1 2.1.46.72 1.21 2.31 1.3 2.74.11.49.3 1.52.41 2.14.11.61.27 1.34.29 1.67.02.21.19.61.33.9.2.43-.14.94-.54.78-.37-.14-.65-.71-.83-1.07-.5-1-.77-2.83-.9-2.74-.12.1-.56 3.21-.63 3.56-.07.35-.6 3.96-.89 4.62-.3.66-.69.55-.8.13-.09-.35.33-5.4.33-5.4s.05-.64-.19-.44c-.23.2-.62 4.78-.78 5.45-.17.67-.55 1.03-.86.49-.39-.66.27-5.52.27-5.52s.08-.61-.14-.55c-.22.05-.49 3.96-.66 4.3-.18.34-.61.46-.81-.11-.24-.66.38-4.99.38-4.99s-.03-.35-.16-.23c-.14.11-.58 3.42-.86 3.73-.24.25-.43 0-.43 0-.52-.42.27-3.57.26-5.13 0-1.57.61-3.33.42-5.19-.01-.19-.04-.39-.06-.58Z"/><path fill="#F47458" d="m1348 2004.01 9.5 6.99s5.35-8.73 8.22-11.83c3.6-3.89-1.31-15.82-3.63-15.14-5.18 1.51-14.09 19.98-14.09 19.98Z"/><path fill="#F7A491" d="m1370.31 1972.6-1.31 10.22s4.78 12.17 7.63 11.12c2.39-.89.92-11.66.92-11.66s-1.3-5.78-.91-8.67c.39-2.89-6.33-1.01-6.33-1.01Z"/><path fill="#F47458" d="M1376.82 1973.6c.42-2.88-6.7-1-6.7-1l-.12.85c.21.56.46 1.04.77 1.41 1.59 1.91 4.08 3.05 6.23 3.14-.21-1.55-.35-3.22-.18-4.4Z"/><path fill="#F7A491" d="M1368.61 1956.46c-.22-.09-1.78 12.62 1.17 16.12 2.95 3.49 8.7 4.64 10.77 1.88 2.28-3.04 2.16-16.7-2.43-20.3-4.58-3.59-9.51 2.3-9.51 2.3Z"/><path fill="#184655" d="M1375.46 1948.08c-3.14.77-5.18 3.07-5.93 4.06-1.43.2-3.37 1.15-5.37 5.13-2.47 4.9-.65 10.33 2.22 12.99s2.83 5.74 2.83 5.74l.45-1.59c.35-1.21.47-2.48.36-3.75-.06-.76-.2-1.58-.46-2.25-.69-1.78 1.48-2.96 2.09-4.44.47-1.14.49-3.75 1.23-5.63l.89-1.44s2.03-1.9 4.02-1.36c2 .53 1.71-8.45-2.33-7.46Z"/><path fill="#F7A491" d="M1372 1966.48c.02 1.38-.63 2.51-1.46 2.52-.82.01-1.51-1.09-1.54-2.48-.02-1.38.63-2.51 1.46-2.52.82-.01 1.51 1.1 1.54 2.48Z"/><path fill="#fff" d="m1376 1969.37 4-.37s-.01 2.72-1.77 2.98c-2.14.3-2.23-2.61-2.23-2.61Z"/><path fill="#8C716C" d="M1479 1996.45s8.19 21.18 9.93 25.11c1.74 3.94 4.97 16.07 5.12 16.67.15.6-4.13 7.37-3.32 7.72.81.35 1.94-3.41 2.8-2.83.85.58 2.86 10.26 3.39 9.87.99-.74-1.04-5.98-.52-6.23.51-.24 1.69 5.69 2.68 5.66.99-.04-1.56-5.51-1.26-5.92.3-.41 2.97 4.77 3.57 3.82.32-.52-2.47-4.54-1.87-4.81.6-.26 3.13 2.44 3.45 1.8.33-.64-2.38-1.93-3.09-3.86-.72-1.93-2.08-2.91-2.46-6.36-.38-3.45-.53-15.77-3.16-22.25-2.63-6.49-8.4-20.84-8.4-20.84l-6.86 2.45Z"/><path fill="#13375B" d="M1480.97 1971.99c.19-5.27-.48-10.47-2.52-15.37-1.75-4.22-6.08-6.61-10.03-6.62-12.54-.02-14.13 19.17-22.12 26.57-2.43 2.26-5.16 4.1-7.47 6.54-8.52 9.01-4.68 25.68 3.14 33.58 5.43 5.47 13.97 8.59 20.66 4.3 3.5-2.23 6.15-5.95 8.04-10.02 2.68-5.78 4.41-12.45 6.32-18.61 2.03-6.55 3.73-13.38 3.98-20.37Z"/><path fill="#8C716C" d="M1436.19 1952.41c.59-.49 2.07 2.95 2.79 2.92.72-.04-.49-4.81.05-5.18.99-.68 1.6 5.14 2.08 4.86.47-.28.1-6.32 1.12-6 1.03.32-.19 6.3.44 6.26.63-.05.69-5.68 1.99-6.02.7-.19-1.18 9.61-.54 10.46.63.85 3.32-2.27 4-1.65.68.61-5.27 5.19-5.36 5.8-.09.62-1.32 13.77-1.16 18.12 1.33.09 8.83 1.77 10.07 1.82-.82 2.75 1.2 5.59.52 8.37-4.2-.42-16.7-1.5-17.49-2.52-2.38-3.11 1.99-22.32 3-25.68 1.01-3.38.02-4.77.08-6.84.05-2.07-2.18-4.24-1.59-4.72Zm19.48 196.48c1.06-.89 1.92-1.47 5.3-3.33.22-.12 1.03-.7 1.32-.9.73-.51 1.47-1.31 2.1-2.11.61-.77.9-3.22 1.04-5.18-.35-4.37-5.95-74.47-7.13-82.06-1.22-7.83.64-19.78.64-19.78l4.32-1.85 8.2 32.17-.65 24.49s1.93 7.06 2.18 11.28c.24 4.22-2.79 38.46-2.79 38.46 0 1.22.04 2.33.16 3.02.22 1.28 1.46 3.92.89 5.12-.56 1.21-1.21 1.51-1.21 1.51l-14.74.27c-.8.01-.27-.57.37-1.11Z"/><path fill="#8C716C" d="M1478.13 2033.68s5.07 8.62 6.28 15.76c1.21 7.15-.89 29.09 1.44 38.45 1.26 5.07 6.03 12.89 6.75 19.44.73 6.54 3.25 25.43 3.25 25.43.38 1.99.98 4.44 1.76 5.58.47.7 1.34 1.58 1.91 2.84.89 1.97.4 4.89-.26 6.5-.34.83.02.83-.74 1.09-2.26.79-4.67-.54-5.64-2.99-.53-1.36-1.01-3.19-1.1-5.49-.1-2.44-.44-4.37-.8-5.8l-16.23-44.85-11.74-38.71L1460 2031l18.13 2.68Z"/><path fill="#13375B" d="M1492.19 2145.22c3.4.73 5.67-1.61 6.85-3.37.87 1.99 1.29 4.95.65 6.59-.56 1.44-2.2 1.4-3.49 1.45-1.36.06-2.42-.83-3.1-2.23-.37-.77-.68-1.59-.91-2.44Zm-29.05-.57c3.75 1.13 6.52.36 8.07-.37.4 1.33.93 3 .65 3.97-.34 1.18-.83 1.45-1.27 1.46-3.42.11-12.55.25-15.16.29a.4.4 0 0 1-.23-.08.491.491 0 0 1-.16-.21.636.636 0 0 1-.04-.28.55.55 0 0 1 .1-.25c.65-.92 7.76-4.33 8.04-4.53Zm11.96-55.72c-.29.02-.59.05-.89.07h-.04l-.88.06h-.06c-.29.02-.59.04-.88.05h-.05c-.3.02-.6.03-.9.04-3.36.13-7.52.08-10.18-.45-1.36-15.96-1.87-30.52-2.37-33.75-1.22-7.81 1.06-20.15 1.06-20.15l-.18-2.93.58-1.87 18.29 2.71s5.12 8.72 6.34 15.93c1.22 7.22-.89 29.39 1.45 38.85.01 0-5.22.95-11.29 1.44Z"/><path fill="#EAB054" d="M1449 1982.76s14.17-1.65 18.35-.09c4.18 1.56 7.11 8.21 4.88 11.93-2.23 3.72-22.33-1.15-22.33-1.15l-.9-10.69Z"/><path fill="#F7CC7F" d="M1473.41 1982.03s7.2-.49 10.04 2.78c2.85 3.27-6.31 29.14-6.83 33.3-.51 4.17 2.64 15.23 2.64 15.23s-16.9 3.59-21.73.22c0 0-.89-30.22-.37-33.19.52-2.98 5.2-14.78 6.24-15.97 1.03-1.19 10.01-2.37 10.01-2.37Z"/><path fill="#8C716C" d="m1471.67 1971.17.1.6c.28 1.83 1.37 7.87 2.1 9.53.89 2.01-3.04 8.42-6.83 7.63-1.12-.23.96-5.88.86-6.48l-.72-4.31-.44-2.69-.74-4.45 5.67.17Z"/><path fill="#8C716C" d="m1471.83 1971.87-.1-.68-5.73-.19.74 5c.15.97.3 1.99.45 3 .88-.17 1.81-.74 2.74-1.82.94-1.09 1.66-2.51 2.07-4.1-.06-.4-.12-.81-.17-1.21Z"/><path fill="#8C716C" d="M1467.11 1954.02s2.96-.41 4.82 2.47c1.86 2.88 3.86 11.8-.75 16.65-4.62 4.84-9.18-.64-9.85-6.46-.68-5.82-.94-12.87 5.78-12.66Z"/><path fill="#8C716C" d="M1460.4 1966.6c.57 1.06 1.52 1.64 2.12 1.31.61-.34.64-1.46.08-2.51-.57-1.06-1.52-1.64-2.12-1.31-.61.34-.64 1.46-.08 2.51Z"/><path fill="#13375B" d="M1467 1953.09s3.56 8.57 6.12 8.96c2.55.4 2.88 4.95 2.88 4.95s-.91-10.49-3.44-12.51c-2.52-2.02-5.56-1.4-5.56-1.4Z"/><path fill="#8C716C" d="M1473.04 1964.74c-.15 1.09.15 2.1.68 2.24.53.15 1.09-.62 1.24-1.72.15-1.09-.15-2.1-.68-2.24-.53-.15-1.09.63-1.24 1.72Z"/><path fill="#fff" d="m1468.99 1968-2.99.6s.23 1.59 1.55 1.38c1.62-.26 1.44-1.98 1.44-1.98Z"/><path fill="#F7CC7F" d="M1482.66 2011s-7.87-12.99-8.58-17.76c-.7-4.77 3.19-10.67 7.16-10.22 3.97.46 10.76 22.19 10.76 22.19l-9.34 5.79Z"/><path fill="#00213D" d="M861.999 2007s-19.009 2.27-20.615 3.21c-1.606.95-5.853 3.28-6.371 9.9-.518 6.61 14.52-.13 15.366-.51.847-.38 11.724-7.5 11.62-7.81-.104-.32 0-4.79 0-4.79ZM813.001 2007s18.618 2.48 20.191 3.52c1.573 1.03 8.289-3.23 8.797 4 .507 7.24-16.778 6.68-17.607 6.27-.829-.42-11.483-8.21-11.381-8.55.101-.35 0-5.24 0-5.24Z"/><path fill="#001333" d="M839 2025.65c0-.63.363-1.15.824-1.17.443-.01.952-.11 1.213-.43.522-.64 2.297-1.35 3.865-.92 1.567.42 5.641-.57 6.894.85 1.254 1.42 3.029 3.83 1.776 4.97-1.254 1.14-6.163 2.34-7.312 1.99-.924-.29-4.909-.7-6.492-.85-.35-.04-.767-.45-.767-.92l-.001-3.52Z"/><path fill="#F8A492" d="m839.339 2024.92-3.708-2.92-.631 5.98 5 2.02s-.09-4-.194-4.22c-.104-.22-.467-.86-.467-.86Z"/><path fill="#223C56" d="M804.142 2013.34s-.74-4.38 1.161-5.59 5.914-1.02 9.611 1.02c3.696 2.03 26.086 15 26.086 15s-1.373 4.77-2.377 6.23c0 0-20.066-6.99-24.66-8.58-4.594-1.59-8.502-1.59-9.821-8.08Z"/><path fill="#001333" d="M830 2025.65c.001-.3-.084-.59-.238-.81-.154-.22-.364-.35-.586-.36-.443-.01-.952-.11-1.213-.43-.522-.64-2.298-1.35-3.865-.92-1.567.42-5.641-.57-6.894.85-1.254 1.42-3.029 3.83-1.776 4.97 1.254 1.14 6.162 2.34 7.312 1.99.924-.29 4.908-.7 6.491-.85.351-.04.768-.45.768-.93l.001-3.51Z"/><path fill="#F8A492" d="m829.754 2024.92 4.234-2.92 1.012 7.37-6 .63s.102-4 .221-4.22c.12-.22.533-.86.533-.86Z"/><path fill="#264160" d="M868.858 2013.34s.74-4.38-1.161-5.59-5.915-1.02-9.611 1.02c-3.696 2.03-26.086 15-26.086 15s1.372 4.77 2.377 6.23c0 0 20.065-6.99 24.66-8.58 4.594-1.59 8.502-1.59 9.821-8.08Z"/><path fill="#F47458" d="M847.463 1976.99c.43-4.72-1.886-9.08-5.698-10.37-.205-2.64-1.347-5.17-3.082-6.79-3.422-3.19-9.366-4.45-11.259.35-2.854 2.31-4.864 6.81-3.628 10.55-2.628 3.8-7.827 9.69-4.956 18.03.27 3.89 2.62 5.37 5.741 6.68.75.32 10.526 3.9 10.373-2.6-.204-.18 2.849 7.12 9.976 2.78 7.27-4.44 7.876-14.59 2.533-18.63Z"/><path fill="#F7A491" d="M802.195 1983.14c-.049-.54 2.337-.34 2.576-.82.24-.48-2.766-1.31-2.771-1.79-.009-.87 3.345.7 3.364.3.02-.41-3.362-2.21-2.823-2.77.54-.56 3.325 2.26 3.527 1.84.201-.42-2.811-2.37-2.526-3.34.153-.52 4.754 4.03 5.438 3.91.684-.13-.028-2.93.549-3.17.577-.24.744 5.52 1.042 5.79.297.27 6.907 6.39 9.307 7.76.523-.83 3.012-3.54 3.486-4.33 1.185 1.47 1.794 2.47 3.046 3.86-1.738 2.59-5.008 7.44-5.84 7.6-2.534.5-10.157-10.1-11.607-11.89-1.453-1.81-2.56-1.64-3.653-2.37-1.093-.74-3.067-.03-3.115-.58Zm63.61-2.51c.049-.55-2.337-.35-2.576-.83-.24-.48 2.766-1.31 2.771-1.79.009-.87-3.345.7-3.364.3-.02-.4 3.362-2.21 2.823-2.77-.54-.56-3.325 2.26-3.527 1.84-.201-.42 2.811-2.37 2.526-3.34-.153-.52-4.754 4.03-5.438 3.91-.684-.12.029-2.93-.549-3.17-.577-.23-.744 5.52-1.042 5.79-.298.27-6.908 6.4-9.307 7.77-.523-.84-3.012-3.55-3.486-4.34-1.185 1.47-1.793 2.47-3.046 3.86 1.738 2.59 5.008 7.44 5.84 7.6 2.533.5 10.156-10.09 11.607-11.89 1.451-1.8 2.56-1.64 3.652-2.37 1.094-.74 3.069-.03 3.116-.57Z"/><path fill="#50BFA5" d="m848 1985.9-3.838 5.1s-3.852-3.58-5.709-4.69c-2.327-1.4-1.451-8.28-.196-8.31 2.806-.07 9.743 7.9 9.743 7.9Z"/><path fill="#96D9C9" d="M826.752 1979.41c1.098-.7 7.357-.98 9.136-1.16.375-.04 1.106-.25 1.139-.25.896.31 4.083 1.18 5.986 5.35 2.305 5.04 1.196 8.19.909 14.01-.188 3.8 1.078 12.39 1.078 12.39-2.81 3.96-13.12 4.25-16.764 1.16l2.526-11.59c.006-2.99-2.391-8.68-2.644-9.53-.357.4-1.251 2.24-1.251 2.24-1.684.01-5.867-4.46-5.867-4.46s4.655-7.47 5.752-8.16Z"/><path fill="#F7A491" d="M832 1972.18s.624 4.19.499 5.83c-.125 1.65.476 6.97 3.169 6.99 2.693.02.511-6.76.258-8.38-.254-1.61-.314-6.62-.314-6.62l-3.612 2.18Z"/><path fill="#F47458" d="M837 1972.37c-.058-1.29-.075-2.37-.075-2.37l-4.925 2.06s.174.81.349 1.83c2.155.39 3.716-.32 4.651-1.52Z"/><path fill="#F7A491" d="M830.958 1960.59s-1.323 1.07-1.807 3.39c-.483 2.32.067 8.31 3.484 9.75 3.417 1.45 4.898-3.29 4.194-7-.704-3.71-2.235-8.4-5.871-6.14Z"/><path fill="#F7A491" d="M838.989 1965.63c-.076.85-.499 1.5-.946 1.45-.447-.05-.748-.78-.673-1.63.076-.85.499-1.5.946-1.45.446.05.747.78.673 1.63Zm-8.009 3.28c.452.74.45 1.62-.004 1.96-.453.33-1.187.01-1.638-.74-.452-.74-.45-1.62.003-1.96.453-.33 1.187-.01 1.639.74Z"/><path fill="#F47458" d="M836 1958s-3.651 10.45-6.514 9.98c-2.864-.47-.707-6.24-.707-6.39 0-.15 1.744-3.21 2.197-3.21.454 0 3.258-.38 3.258-.38H836Z"/><path fill="#0E2E35" d="M249.483 1902.9c-7.783-23.39-15.41-46.78-20.943-71.11-17.03-74.88-12.919-129.45-12.284-155.69.084-3.46-4.733-4.41-5.153-.84-1.448 12.32-1.77 24.83-1.84 37.26-.117 21.06.991 42.1 3.317 62.98-12.492 3.76-24.31-1.86-33.977-11.97-16.666-17.42-22.614-40.64-25.234-66.36-.268-2.63-.351-5.11-2.204-6.63-.412-1.35-2.118-1.77-2.542.25-2.641 3.13-1.361 9.42-.955 13.47 5.5 54.78 34.335 81.33 57.552 81.1 2.546-.03 5.642-.17 8.41-1.06 1.67 13.1 3.824 26.11 6.457 38.99 5.015 24.53 12.052 48.21 19.795 71.66 26.474 80.2 34.921 121.17 42.443 144.38 1.137 4.67 7.114 2.71 6.068-2.01-.372-1.68-21.028-80.7-38.91-134.42Zm106.078-210.84c-.251-1.73-1.124-2.87-1.456-4.49-.438-2.13-3.45-2.34-3.766 0-.18 1.35-.825 2.17-1.075 3.54-.808 4.44 1.144 29.39-3.951 67.58-1.354 10.15-2.85 20.24-5.777 29.93-4.731 15.66-13.353 32.54-24.074 43.21-.341-22.37-1.5-44.71-3.823-66.93a711.058 711.058 0 0 0-8.642-58.85c-1.267-6.68-2.46-13.09-5.229-19.14-.851-1.85-3.268-.99-3.271 1.07-.011 5.93 1.016 11.39 2.086 17.15a730.091 730.091 0 0 1 2.994 17.26c6.889 42.76 9.48 80.74 9.451 123.55-11.358-16.49-21.288-36.25-28.646-55.66-8.844-23.33-14.801-48.43-17.28-73.91a273.996 273.996 0 0 1-1.248-21.46c-.069-3.72-.134-7.43-.198-11.14-.034-1.92-.667-7.68-3.455-5.99-2.564 1.55-2.321 5.02-2.536 8.05-.234 3.3-.254 6.59-.218 9.9.068 6.34.362 12.68.871 18.99 3.686 45.75 18.636 90.97 41.366 128.03 3.464 5.65 7.042 11.7 11.249 16.63-.968 73.22-10.386 165.72-10.551 173.11-.036 1.63.283 3.3.491 4.91.43 3.33 4.211 2.55 4.983 0 1.461-4.82 1.311-6.7 3.489-33.41 3.883-47.64 8.235-156.76 8.218-161.19 13.496-11.19 23.052-28.42 29.296-46.41 3.314-9.54 5.258-19.36 6.717-29.53 4.961-34.58 4.806-69.15 3.985-74.8Z"/><path fill="#184655" d="M263.229 1631c.507-5.27.771-10.67.771-16.16 0-61.21-32.683-110.84-73-110.84s-73 49.63-73 110.84c0 5.49.265 10.89.771 16.16h144.458Z"/><path fill="#3C8F7C" d="M347.218 1604c.514-7.43.782-15.04.782-22.78 0-86.28-33.131-156.22-74-156.22s-74 69.94-74 156.22c0 7.74.268 15.35.783 22.78h146.435Z"/><path fill="#184655" d="M200.993 1701c-.663-7.61-.995-15.25-.993-22.9 0-86.76 42.085-157.1 94-157.1s94 70.34 94 157.1c0 7.78-.34 15.42-.993 22.9H200.993Z"/><path fill="#3C8F7C" d="M273.207 1521c-25.755 0-48.763 22.2-63.948 57-7.847-3.25-16.124-4.91-24.465-4.91-45.725 0-82.794 49.61-82.794 110.8 0 5.49.3 10.88.875 16.16h252.25c.585-7.58.877-15.18.875-22.79 0-86.3-37.068-156.26-82.793-156.26Zm-61.856 480a64.95 64.95 0 0 1-.685-9.42c0-35.69 29.045-64.61 64.874-64.61 35.828 0 64.873 28.92 64.873 64.61 0 3.2-.234 6.34-.685 9.42H211.351Z"/><path fill="#50BFA5" d="M137.682 1986a133.18 133.18 0 0 1-.682-13.49c0-51.09 28.878-92.51 64.5-92.51s64.5 41.42 64.5 92.51a133 133 0 0 1-.682 13.49H137.682Z"/><path fill="#50BFA5" d="M162.313 2042c.451-3.07.687-6.22.687-9.42 0-35.66-29.102-64.58-65-64.58-35.898 0-65 28.92-65 64.58 0 3.2.235 6.35.687 9.42h128.626Z"/><path fill="#3C8F7C" d="M265.133 2042c.578-4.42.867-8.89.867-13.36 0-50.61-36.713-91.64-82-91.64-45.288 0-82 41.03-82 91.64 0 4.54.296 9 .866 13.36h162.267Z"/><path fill="#50BFA5" d="M202.689 1937c22.611 0 42.811 13.02 56.143 33.43 6.789-1.88 14.002-2.89 21.479-2.89 40.145 0 72.689 29.1 72.689 64.99 0 3.21-.263 6.38-.769 9.47H130.769c-.513-4.43-.77-8.89-.769-13.36 0-50.61 32.544-91.64 72.689-91.64Z"/><path fill="#355389" d="M2488 1900h7v131h-7v-131Z"/><path fill="#3C8F7C" d="m2492 1665-32 264h64l-32-264Z"/><path fill="#50BFA5" d="m2462 1913 58-20.74-.88-7.13-56.16 20.08-.96 7.79Zm10.21-83.12 38.44-13.74-.88-7.14-36.6 13.09-.96 7.79Z"/><path fill="#355389" d="M2433 1909h5v71h-5v-71Z"/><path fill="#3C8F7C" d="m2435.5 1772-18.5 167h37l-18.5-167Z"/><path fill="#50BFA5" d="m2423 1878.8 26 25.2-1-9.13-24.19-23.45-.81 7.38Zm4-36.52 15.92 6.16-.75-6.84-14.49-5.6-.68 6.28Z"/><path fill="#3C8F7C" d="M2343.31 2001c.45-3.07.69-6.22.69-9.42 0-35.66-29.1-64.58-65-64.58s-65 28.92-65 64.58c0 3.2.23 6.35.69 9.42h128.62Z"/><path fill="#50BFA5" d="M2416.31 1986c.45-4.4.69-8.91.69-13.49 0-51.09-29.1-92.51-65-92.51s-65 41.42-65 92.51c0 4.58.24 9.09.69 13.49h128.62Z"/><path fill="#50BFA5" d="M2393.68 2042c-.45-3.11-.68-6.26-.68-9.42 0-35.66 28.88-64.58 64.5-64.58 35.62 0 64.5 28.92 64.5 64.58 0 3.2-.23 6.35-.68 9.42h-127.64Z"/><path fill="#3C8F7C" d="M2288.87 2042c-.58-4.42-.87-8.89-.87-13.36 0-50.61 36.71-91.64 82-91.64s82 41.03 82 91.64c0 4.54-.3 9-.87 13.36h-162.26Z"/><path fill="#50BFA5" d="M2351.31 1937c-22.61 0-42.81 13.02-56.14 33.43-6.79-1.88-14-2.89-21.48-2.89-40.15 0-72.69 29.1-72.69 64.99 0 3.21.26 6.38.77 9.47h221.46c.51-4.36.77-8.82.77-13.36 0-50.61-32.54-91.64-72.69-91.64Z"/><path fill="#F7A491" d="M1915.14 2063s.45 4.92.15 6.53c-.06.26-.13.53-.22.78-.31.9.52 3.65.52 3.65l11.11.04c.6 0 .2-.39-.3-.74-.8-.58-1.45-.96-4.01-2.18-.17-.07-.78-.45-1-.59-.56-.33-1.12-.86-1.61-1.39-.8-.88-.93-5.22-.93-5.22l-3.71-.88Z"/><path fill="#B75742" d="M1921.22 2070.2c-2.62.91-4.56.35-5.65-.2-.27 1.03-.78 4.51-.48 4.51 2.49 0 4.6.61 11.72.47.26-.01.23-1.14.06-1.39-.46-.7-5.46-3.24-5.65-3.39Z"/><path fill="#F7A491" d="M1927 2052.79s2.55 4.48 2.96 6.13c.05.22.09.52.12.85.1.98 2.07 3.23 2.07 3.23l10.61-4.82c.57-.26.02-.45-.6-.57-1.02-.21-1.8-.28-4.77-.31-.19 0-.94-.1-1.2-.13-.68-.07-1.44-.33-2.14-.62-1.15-.48-3.13-4.55-3.13-4.55l-3.92.79Z"/><path fill="#13375B" d="M1890.18 1961.71c-1.25-3-4.34-4.71-7.15-4.71-8.95-.01-10.09 13.65-15.79 18.92-1.71 1.58-3.61 2.87-5.24 4.56-.02 1.12.12 2.23.43 3.28.35 1.1.82 2.13 1.38 3.08l2.42-1.65-1.05 3.61c2.15 2.65 5.01 4.61 7.8 6.43 3.9 2.48 8.04 3.54 12.27 3.77 1.57-3.77 2.68-7.95 3.89-11.84 1.45-4.67 2.66-9.53 2.84-14.51.13-3.75-.35-7.45-1.8-10.94Z"/><path fill="#B75742" d="M1936.69 2058.11c-2.28 1.82-4.41 2.26-5.69 2.33.09.88.81 3.69 1.11 3.56 2.47-1.1 4.78-1.57 11.81-4.8.26-.12-.17-.95-.43-1.06-.7-.31-6.56-.01-6.8-.03Z"/><path fill="#F7A491" d="M1907.75 2027.11c-.68-.12-2.32-1.49-2.9-1.62-.61-.12-1.22-.23-1.84-.34-.5-2.21-3.08-14.25-3.37-17.78-.31-3.82-2.63-20.37-2.63-20.37l-6.01 1.27s2.49 12.73 3.18 18.9c.6 5.3 5.59 17.22 6.22 18.48v.09c.1 1.87.87 1.25.87 1.25l1.26.37s4.45.5 4.74.63c.29.12 1.15-.75.48-.88Z"/><path fill="#96D9C9" d="M1892.94 1979c4.25 1.62 6.06 13.69 6.06 13.69s-6.66 2.09-8.37.99c0 0-1.94-9.64-2.63-9.3l4.94-5.38Z"/><path fill="#96D9C9" d="M1887.83 1978.12c.11 0 .27-.04.43-.09.8-.16 2.89.37 4.24.98 1.64.75 2.64 7.34 2.48 14.51-.06 1.09-.82 17.96-.9 18.02-1.96 1.36-13.65 2.02-14.47.87-.81-1.16-1.44-21.17-1.83-21.87l-.78-12.23c1.37-.44 8.73-.2 10.83-.19Z"/><path fill="#F7A491" d="M1884 1972.47s.75 4.74.6 6.61c-.15 1.87.57 7.9 3.8 7.92 3.23.02.62-7.66.31-9.5-.3-1.83-.38-7.5-.38-7.5l-4.33 2.47Z"/><path fill="#F47458" d="M1888 1972.96c-.03-.98-.05-1.97-.06-2.96l-3.94 2.57s.14 1.01.28 2.3c1.72.48 2.97-.41 3.72-1.91Z" opacity=".5"/><path fill="#F7A491" d="M1881.69 1959.63s-1.82 1.15-2.48 3.64c-.67 2.48.09 8.9 4.79 10.45 4.7 1.54 6.73-3.54 5.76-7.51-.96-3.97-3.07-9-8.07-6.58Z"/><path fill="#F7A491" d="M1889.99 1965.59c-.1.82-.61 1.45-1.16 1.41-.54-.05-.91-.76-.82-1.58.1-.83.61-1.46 1.16-1.42.54.05.91.76.82 1.59Z"/><path fill="#13375B" d="M1882 1959s-.86 7.2-2.91 8.5c-2.05 1.31-1.19 4.5-1.19 4.5s-1.86-7.42-.24-9.8c1.62-2.39 4.34-3.2 4.34-3.2Z"/><path fill="#F7A491" d="M1880.56 1969.17c.59 1.01.59 2.19 0 2.65-.59.46-1.54.01-2.12-.99-.59-1.01-.59-2.19 0-2.65.59-.46 1.54-.01 2.12.99Z"/><path fill="#fff" d="m1886.98 1969-2.98.92s.36 1.38 1.68 1.02c1.6-.43 1.3-1.94 1.3-1.94Z"/><path fill="#F7A491" d="M1859.01 2027.18c.06-.16.18-.17.31-.18 1.25-.08 2.49-.19 3.73-.44.2-.04.4-.1.59-.19.34-.17.68-.18 1.03-.08.19.05.39.06.58.05.63-.03 2.4-.77 3.31-.98.11-.03.2-.08.27-.17.08-.08.13-.18.15-.3.79-4.03 2.48-13.06 2.65-16.02.22-3.78 2.07-20.87 2.07-20.87l6.3 1.72s-2.22 12.65-2.75 18.76c-.42 4.72-4.35 14.84-5.59 17.75-.58 2.16-2.02 2.27-2.36 2.32-.19.04-.36.15-.48.32-.22.3-.48.57-.77.79-.21.16-.39.37-.52.61-.26.45-.48.91-.7 1.37-.15.3-.31.4-.54.34-.25-.06-.37-.27-.38-.6-.01-.5.12-.96.34-1.39.19-.4.17-.63-.08-.99-.14-.21-.31-.4-.49-.57-.19-.16-.39-.28-.64-.23-.45.14-.9.25-1.36.33l-.37.1-.21.05c-.3.06-.61.1-.92.13-.18.01-.48.03-.73.05-.22.02-.71-.1-.73-.1a.815.815 0 0 1-.59-.24c-.07-.06-.13-.13-.1-.25.03-.11.1-.15.2-.18.15-.03.92-.17.91-.2-.23.01-.95.01-1.18.01-.15.01-.3-.02-.44-.08-.14-.07-.26-.16-.37-.28-.09-.1-.19-.19-.14-.36Z"/><path fill="#96D9C9" d="M1876.71 1978.02c-3-.62-5.71 14.65-5.71 14.65s6.66 2.12 8.37 1.01c0 0 1.94-9.77 2.63-9.43l-5.29-6.23Z"/><path fill="#B75742" d="M1894.45 2010.47v2.9l23.67 5.71 5.88 20.25-3.27-2.56.75 31.19-4.98.04s-8.63-26.17-5.8-39.33l-26.2.46s-11.87-5.26-5.74-21.13l15.69 2.47Z"/><path fill="#F47458" d="M1895 2013s23.88.19 25.58 1.77c1.69 1.57 14.42 40.73 14.42 40.73l-5.55 2.5s-11.04-22.21-11.63-23.8c-.58-1.58-4.86-13.17-6.49-14.35-1.63-1.18-16.33-6.85-16.33-6.85Z"/><path fill="#8C716C" d="M1849.71 2003.31c-2.12-.88-19.94-8.21-20.64-8.76-.63-.51-10.07-12.78-10.07-12.78l6.5-2.77 8.33 11.58c.61.38 12.22 7.07 12.22 7.07s2.09 1.29 3.37 1.97c.36-.04.7-.07.98-.11.54-.12 1.07-.3 1.57-.53.57-.24 1.74-.57 2.03-.57.34 0 1.04.03 1.47.06.42.02.91.03 1.13.07.14.03.44-.04.65-.1.32-.09.57.29.39.59-.17.29-.59.42-.86.5-.75.23-1.98.11-1.94.24.03.12 1.94 1.07 2.16 1.19.21.13 2.42 1.25 2.79 1.62.36.38.21.68-.08.69-.25.01-3.41-1.29-3.41-1.29s-.41-.16-.32.07c.08.24 2.95 1.43 3.35 1.69.39.26.55.65.13.81-.5.2-3.49-1.27-3.49-1.27s-.38-.18-.39.02c0 .19 2.45 1.16 2.64 1.36.18.21.17.59-.24.66-.47.08-3.13-1.26-3.13-1.26s-.23-.04-.19.09c.05.14 2.09 1.13 2.23 1.42.12.25-.09.37-.09.37-.37.35-2.24-.91-3.25-1.19-1-.29-3.78-1.42-3.84-1.44Z"/><path fill="#466EB6" d="M1826 1972s1.58.35 4.27 5.75c2.51 5.05 4.73 10.71 4.73 10.71l-4.5 5.54s-3.31-11.88-3.59-12.26c-.28-.38-.91-9.74-.91-9.74Z"/><path fill="#8C716C" d="m1841.63 2065.75-.23 4.91c-.08.62-.4 2.15-.4 2.72 0 2.12 7.58-1.8 5.88-2.74-.15-.09-.96-.73-1.01-1.46-.08-1.11-.27-3.36-.27-3.36l-3.97-.07Zm12.87 0s-.22 4.9-.23 4.91c-.08.62-.4 2.15-.4 2.72 0 2.12 7.58-1.8 5.88-2.74-.15-.09-1.3-.36-1.35-1.08-.08-1.12-.22-4.56-.22-4.56l-3.68.75Z"/><path fill="#13375B" d="m1829.08 2017 18.71.1s8.45-.27 9.78 3.34c1.34 3.61 1.43 46.42 1.43 46.42s-4.42.31-4.65 0l-5.58-23.88c-.54-2.33-.73-4.76-.54-7.17l.48-6.39-7.72.49s-8.75-.18-11.63-3.76c-2.89-3.59-.28-9.15-.28-9.15Z"/><path fill="#355389" d="m1815.23 2013 20.88 1.57s8.99.89 10.37 4.6c1.39 3.71-.46 47.71-.46 47.71s-5.28.27-5.27 0c.01-.34-2.49-18.11-3.69-24.9-.37-2.16-.51-4.37-.39-6.57l.54-7.15s-22.16-.25-23.12-1.43c-3-3.69 1.14-13.83 1.14-13.83Z"/><path fill="#FCF5EB" d="M1825.57 1972.07c-3.22-.3-8.99.49-8.99.49s-3.68.19-4.78.73c-1.62.8-4.77 1.73-3.51 9.89.91 5.84 2.94 25 4.2 34.82l22.51-2.71c-4.66-19.42-6.39-42.93-9.43-43.22Z"/><path fill="#8C716C" d="m1818.28 1966.06-2.28 7.18s3.87 4.14 6.55 3.73c2.25-.34 1.21-3.36 1.21-3.36s-.56-4.07.11-6.07-5.59-1.48-5.59-1.48Z"/><path fill="#8C716C" d="M1819.34 1968.29c1.01.6 2.64 1.35 4.29 1.71-.01-.95.06-1.94.32-2.64.31-.84-.85-1.19-2.18-1.32-1.75-.08-3.34-.02-3.34-.02l-.43 1.25c.28.36 1 .81 1.34 1.02Z"/><path fill="#8C716C" d="M1817.86 1951.49c-.17-.08-1.97 10.25.2 13.28 2.18 3.04 6.66 4.3 8.41 2.16 1.94-2.37 2.46-13.57-1-16.78-3.46-3.21-7.61 1.34-7.61 1.34Z"/><path fill="#13375B" d="M1825.21 1946.03c-2.7.43-4.53 2.15-5.21 2.89-1.22.08-2.91.72-4.79 3.79-2.31 3.77-1 8.22 1.31 10.53 2.32 2.3 2.15 4.76 2.15 4.76l.45-1.25c.34-.94.51-1.96.47-2.97-.02-.62-.1-1.28-.29-1.83-.51-1.47 1.39-2.28 1.97-3.43.45-.89.59-2.97 1.3-4.43l.81-1.1s1.81-1.4 3.48-.85c1.66.55 1.82-6.66-1.65-6.11Z"/><path fill="#8C716C" d="M1819.99 1960.12c-.05 1.15-.54 2.05-1.11 2.02-.56-.03-.99-.98-.94-2.12.04-1.15.54-2.05 1.1-2.02.57.03.99.98.95 2.12Zm-13.19 27.63 5.64 2.02s-1.06 5.68-1.08 6.36c0 0 9.62 5.94 13.64 7.8l-.11 4.07c-.79-.34-1.42-.69-1.81-.83-.77-.29-13.07-4.65-13.07-4.65s-4.84-1.99-5-3.07c-.16-1.08 1.79-11.7 1.79-11.7Z"/><path fill="#466EB6" d="M1805 1992.32s2.63-12.38 4.06-15.55c1.43-3.18 4.52-3.58 6.52-1.42 2 2.15-3.75 18.65-3.75 18.65l-6.83-1.68Z"/><path fill="#F7CC7F" d="M1846.55 2071.06s-1.9.42-2.88.53c-.97.11-2.25-.79-2.94-.55-.76.27-.73 2.66-.73 2.66s10.19.69 13.06-.02c1.13-.28-2.63-1.63-6.51-2.62Zm13.74 0s-1.91.42-2.88.53c-.97.11-2.26-.79-2.94-.55-.76.27-.73 2.66-.73 2.66s10.19.69 13.05-.02c1.14-.28-2.62-1.63-6.5-2.62Z"/><path fill="#fff" d="m1823 1964 3 .01s-.07.96-1.39.99c-1.61.03-1.61-1-1.61-1Z"/><path fill="#F7CC7F" d="M1833.01 1997.91c-.05.55.13 1.04.4 1.09.27.05.53-.36.58-.91.05-.55-.13-1.03-.4-1.09-.27-.05-.53.36-.58.91Zm.8-.35c-.01.13-.14.21-.29.19-.14-.03-.25-.16-.24-.28.01-.13.14-.21.29-.18.14.02.25.15.24.27Zm-.71.64c.02-.2.2-.33.41-.29.2.04.36.23.34.43-.02.19-.2.32-.41.28a.426.426 0 0 1-.34-.42Z"/><path fill="#7F1CA0" d="M1834.89 1998.86c.1.41.14.85.09 1.28l-.98 9c-.06.54-.48.92-.95.85l-4.32-.67a.801.801 0 0 1-.55-.37c-.14-.21-.2-.48-.17-.74l.98-9c.05-.43.17-.84.36-1.21l5.54.86Z"/><path fill="#7F1CA0" d="M1834.89 1998.86c.1.41.14.85.09 1.28l-.98 9c-.06.54-.48.92-.95.85l-4.32-.67a.801.801 0 0 1-.55-.37c-.14-.21-.2-.48-.17-.74l.98-9c.05-.43.17-.84.36-1.21l5.54.86Z"/><path fill="#50BFA5" d="m1828.99 1999.21-.98 9c-.06.54.26 1.04.72 1.11l4.32.67c.47.07.89-.31.95-.85l.98-9c.05-.43.01-.87-.09-1.28l-5.53-.86c-.2.37-.32.78-.37 1.21Z"/><path fill="#96D9C9" d="m1832.22 2008.99 1.27-8.74c.06-.42.02-.85-.12-1.25l1.48.17c.14.41.18.83.12 1.25l-1.27 8.74c-.07.53-.62.9-1.22.83l-1.48-.17c.14.02.28.01.42-.02.14-.04.27-.09.38-.17.12-.08.21-.17.28-.28a1 1 0 0 0 .14-.36Z"/><path fill="#3C8F7C" d="m1828.63 1999.25-.63 9.32c-.03.56.18 1.07.47 1.15l1.14.28c-.15-.03-.28-.17-.37-.39-.08-.22-.12-.49-.11-.76l.63-9.32c.03-.44.11-.87.24-1.25l-1.13-.28c-.12.38-.2.81-.24 1.25Z"/><path fill="#F7CC7F" d="m1829 1998.35 6 .65a.38.38 0 0 0-.1-.3.533.533 0 0 0-.32-.15l-5.04-.55c-.06 0-.13 0-.19.01-.06.02-.11.04-.16.07-.06.03-.1.07-.13.12-.03.04-.05.1-.06.15ZM1827.62 2008.63l.13-1.16 6.37.96-.13 1.15-6.37-.95Z"/><path fill="#8C716C" d="M1825.17 2004.32c.22-.15.48-.68 2.18-1.91.49-.35 1.33-.4 1.33-.4s1.04-.06 1.12.2c.08.26-.09.55-.28.64-.18.09-.59.06-.78.15-.18.09-.42.73-.43.98 0 .25 3.04-.02 3.04-.02s.87-.13 1.16-.19c.24-.06.96-.29.96-.29s1.04-.26 1.1.09c.03.21-.83.73-1.74 1.07-.97.38-1.99.58-1.98.69.01.27 1.69.16 1.69.16s.78-.25 1.14-.24c.45-.24 1.28-.38 1.32.05.01.08-1.07.64-1.07.64s-.74.21-1.09.34c-.62.22-1.57.23-2 .35-.36.09-.22.19-.23.23-.02.03.47-.02 1.13-.07.34-.03.72.02 1.11-.07.36-.09.86-.14 1.17-.16.86-.05.74.55-.06.74-.31.08-.64.16-.98.23-1.31.3-2.55.27-2.57.43-.02.2 2.25.11 2.25.11s1.23.33.05.61c-1.37.33-2.47.28-2.52.27-.33-.04-1.52.2-2.63-.13-.86-.25-1.71-.52-2.56-.81l.17-3.69Z"/><path fill="#3C8F7C" d="m1828.3 2001.32-.3 2.59s1.26.18 1.85.03l.15-1.28-.11-1.05-.41-.61-1.18.32Z"/><path fill="#F48C7F" d="m656.38 1991 2.506 8.19s-6.215 1.85-6.371 1.91c-.157.06-1.515-8.07-1.515-8.07l5.38-2.03Zm7.62 67.73s-4.583 6.47-4.614 7.04c-.03.56.182 6.71.727 7.28.546.56 2.147.96 1.632 1.59-.389.48-3.382.38-5.366.25-.579-.03-1.305-5.48-1.535-6.28-.333-1.16-1.143-3.78-.84-4.59.148-.4.853-1.21 1.849-1.97 1.046-.79 5.048-7.36 5.048-7.36l3.099 4.04Z"/><path fill="#50BFA5" d="M655.904 2063s3.377 9.42 4.7 9.87c.351.12 2.036.43 2.353 1.16.097.23 0 .97 0 .97h-7.041s-.891-4.15-1.243-5.97c0 0-1.864-4.46-1.657-4.86.208-.4 2.888-1.17 2.888-1.17Z"/><path fill="#F7A491" d="M692 2061.89s3.539 5.76 3.227 7.58c-.166.98-.909 2.26-.483 3.18.427.91.913 1.14.913 1.14l11.039.21c.602.01.204-.44-.281-.85-.793-.67-1.434-1.12-3.969-2.53-.165-.1-.768-.54-.984-.69-.551-.39-1.103-1-1.58-1.61-.793-1.02-4.278-9.32-4.278-9.32l-3.604 2.89Z"/><path fill="#E25A44" d="M677.698 2023.29s-4.624 6.3-5.804 7.3c-1.178 1-12.496 25.89-12.496 25.89l4.032 3.52s10.115-15.07 14.864-23.13c4.017-6.81 2.537-6.38 4.899-10.53 1.3-2.28 1.005-5.37-.709-7.22-.228-.24-.46-.49-.697-.72-3.496-3.48-27.459-7.4-27.459-7.4L639 2012.79s12.523 10.5 12.99 10.77c.467.28 17.294 3.22 17.644 3.22.351 0 8.064-3.49 8.064-3.49Z"/><path fill="#F47458" d="M638.836 2012.69s-2.559 9.47 1.279 13.89 26.637 3.92 34.142 3.92c0 0 3.071 10.38 3.412 12.07.342 1.68 15.237 23.43 15.237 23.43l4.094-3.23s-16.033-38.44-17.284-40.12c-1.251-1.69-19.104-8.42-23.539-9.96-4.435-1.55-17.341 0-17.341 0Z"/><path fill="#13375B" d="M655.108 1983.56c-2.411-9.98-5.108-9.56-5.108-9.56l2.085 21c1.489-.56 3.427-1.79 4.915-2.37-.493-3.15-1.299-6.6-1.892-9.07Z"/><path fill="#355389" d="M641.931 1972.02s-5.389-.39-7.521 2.26c-2.132 2.65 4.729 23.64 5.117 27.02.387 3.38-1.976 12.35-1.976 12.35s12.659 2.91 16.277.18c0 0 .387-24.28 0-26.69-.388-2.42-3.618-12.23-4.394-13.19-.774-.97-7.503-1.93-7.503-1.93Z"/><path fill="#3C8F7C" d="M675.404 1985h-17.789c-.45 0-.93.4-1.074.9l-7.501 26.2c-.143.5.106.9.557.9h17.788c.451 0 .931-.4 1.074-.9l7.501-26.2c.142-.5-.107-.9-.556-.9Z"/><path fill="#fff" d="M664.048 1993.19c-.169.81.121 1.6.646 1.78.526.17 1.089-.35 1.258-1.16.169-.81-.121-1.6-.646-1.78-.526-.17-1.089.35-1.258 1.16Z"/><path fill="#50BFA5" d="M702.313 2071.33c-3.542.98-6.161.31-7.625-.33-.378 1.17-.879 2.63-.613 3.47.325 1.03.787 1.26 1.197 1.28 3.235.09 11.853.21 14.32.25.344 0 .534-.43.313-.72-.612-.8-7.327-3.78-7.592-3.95Z"/><path fill="#F8A492" d="M651 2001.67c.19-.17.391-.71 1.842-2.1.419-.4 1.179-.53 1.179-.53s.935-.15 1.027.1a.624.624 0 0 1-.202.67c-.16.1-.537.11-.697.22-.161.1-.332.76-.318 1.01.016.26 2.758-.3 2.758-.3s.78-.2 1.035-.3c.217-.07.853-.37.853-.37s.923-.36 1.001-.01c.046.2-.699.79-1.493 1.22-.856.47-1.767.76-1.752.87.033.26 1.544 0 1.544 0s.689-.32 1.016-.34c.396-.28 1.137-.5 1.207-.07.013.08-.921.73-.921.73s-.661.28-.969.44c-.544.27-1.409.38-1.788.53-.316.13-.184.21-.196.25-.01.03.427-.06 1.028-.17.303-.06.653-.05.997-.18.318-.12.775-.21 1.051-.26.782-.13.713.48 0 .74l-.867.32c-1.167.42-2.298.5-2.305.66-.009.2 2.048-.1 2.048-.1s1.145.22.093.61c-1.221.45-2.222.5-2.266.5-.301-.01-1.367.34-2.405.12-.766-.17-1.86-.44-2.381-.57l-.119-3.69Z"/><path fill="#F7A491" d="m632.873 1990 5.357 1.26s-.592 5.03-.556 5.62c0 0 9.297 4.31 13.146 5.57l.18 3.55c-.753-.22-1.36-.47-1.732-.56-.73-.18-12.399-2.88-12.399-2.88s-4.615-1.31-4.838-2.23c-.223-.92.842-10.33.842-10.33Z"/><path fill="#13375B" d="M632.006 1995s-.131-13.54.846-16.8c.977-3.26 4.618-5.37 6.517-3.49s-1.096 20.29-1.096 20.29h-6.267Z"/><path fill="#184655" d="M654.999 1959.01c-.057-7.03-4.615-12.86-10.39-10.46-1.298.54-3.117 1.78-4.106 2.93-2.675 3.12-3.766 7.35-6.503 10.34.764.94 1.703 1.94 2.843 2.95l1.731-2.09-.847 2.84c3.364 2.71 8.26 5.32 15.241 6.48 1.443-4.62 2.061-9.25 2.031-12.99Z"/><path fill="#F7A491" d="m644.035 1964.14-.08.5c-.248 1.52-1.2 6.56-1.844 7.94-.778 1.68 2.664 7.02 5.976 6.37.987-.2-.833-4.91-.746-5.41l.627-3.59.388-2.24.644-3.71-4.965.14Z"/><path fill="#F47458" d="M643.174 1964.65c.06-.32.093-.51.093-.51L649 1964l-.743 3.75-.446 2.25c-.886-.13-1.811-.56-2.738-1.37a7.185 7.185 0 0 1-2.073-3.07c.07-.36.129-.67.174-.91Z"/><path fill="#F7A491" d="M649.108 1951.13s-2.139-.74-3.755 1.32c-1.617 2.07-3.87 8.97-.909 13.5 2.961 4.54 6.789.76 7.797-3.83 1.007-4.59 1.82-10.23-3.133-10.99Z"/><path fill="#F7A491" d="M652.609 1962.48c-.438 1.27-1.066 1.86-1.402 1.32-.336-.54-.254-2.01.184-3.28s1.066-1.86 1.402-1.32c.336.54.254 2.01-.184 3.28Z"/><path fill="#184655" d="M649 1950.36s-3.844 6.24-6.07 6.16c-2.226-.07-2.93 3.48-2.93 3.48s1.743-8.17 4.096-9.38c2.353-1.22 4.904-.26 4.904-.26Z"/><path fill="#F7A491" d="M642.997 1959.4c.05 1.38-.58 2.54-1.406 2.6-.827.05-1.538-1.02-1.588-2.4-.05-1.38.579-2.54 1.406-2.6.827-.05 1.538 1.02 1.588 2.4Z"/><path fill="#fff" d="m649 1965.15-3.949-1.15s-.442 1.26 1.278 1.81c2.096.67 2.671-.66 2.671-.66Z"/><path fill="#F7A491" d="m670 2000.18.37 3.82c.503-.36.947-.83 1.305-1.4l2.325-3.66-.392-3.16s-1.867-.91-2.146-.76c-.28.14.927 1.17.927 1.17s-.962-.47-1.063-.18c-.103.29.746 1.15.746 1.15l-2.072 3.02Z"/><path fill="#3C8F7C" d="M671.999 1997c.07.15-2.621 7-2.621 7s-2.272-3.34-2.375-3.5c-.104-.16 2.653-3.04 2.653-3.04l2.343-.46Z"/><path fill="#F48C7F" d="M881.584 1994.83c-.231-.4 1.554-1.33 1.556-1.8.001-.47-2.458.26-2.633-.1-.32-.66 2.653-.99 2.523-1.31-.13-.31-3.209-.15-3.022-.82.187-.67 3.202.21 3.195-.2-.007-.42-2.872-.53-3.014-1.4-.076-.46 4.863.91 5.31.5.447-.4-1.072-2.21-.743-2.66.329-.44 2.516 3.87 2.827 3.94.31.07 7.009 2.03 9.226 1.99.076-.87 1.367-5.15 1.424-5.97 1.378.58 2.369-.14 3.767.35-.319 2.76-1.955 9.83-2.495 10.34-1.641 1.53-10.314-2.99-12.002-3.7-1.69-.71-2.426-.08-3.475-.14-1.05-.07-2.213 1.37-2.444.98Z"/><path fill="#96D9C9" d="M902.199 1979c-2.27.81-4.75 8.42-4.839 8.95-.564 2.47-.792 4.47-.792 4.47-.04.24-.074.47-.101.7-2.315.05-9.238-2.22-9.586-2.3l-.881 3.35c.202.05 11.571 5.04 13.288 3.55.315-.27.986-2.54 1.577-4.95 1.411.02 2.793-.09 3.482-.5 0 0 1.954-9.12 2.653-8.8l-4.801-4.47Z"/><path fill="#50BFA5" d="M903.623 1967.27s-1.54-2.18.223-8.94c1.762-6.76 9.236-6.51 11.936-2.49 2.7 4.02 4.36 10.83 2.284 14.51-2.076 3.69-5.136 4.65-5.136 4.65l-9.307-7.73Z"/><path fill="#F7A491" d="M879.864 2058.3s-.43 5.68-.147 7.53c.038.25.122.56.219.91.291 1.04-.508 4.21-.508 4.21l-10.717.05c-.583 0-.193-.45.282-.86.778-.67 1.404-1.11 3.879-2.51.162-.09.75-.53.963-.68.538-.38 1.081-1 1.549-1.61.78-1.02.898-6.03.898-6.03l3.582-1.01Zm-12.13-9.43s-2.343 4.96-2.722 6.79c-.055.3-.093.62-.113.93-.091 1.09-1.908 3.58-1.908 3.58l-9.767-5.33c-.532-.29-.023-.5.55-.64.938-.22 1.659-.31 4.392-.34.178 0 .865-.11 1.11-.14.622-.08 1.326-.36 1.963-.68 1.061-.54 2.889-5.04 2.889-5.04l3.606.87Z"/><path fill="#50BFA5" d="M858.752 2054.14c2.104 2.44 4.07 3.02 5.248 3.11-.085 1.18-.744 4.92-1.023 4.74-2.282-1.45-4.412-2.08-10.906-6.39-.233-.15.162-1.26.397-1.41.645-.42 6.054-.01 6.284-.05Z"/><path fill="#00213D" d="M899.663 2008.39v2.8l-22.162 5.52-5.501 19.58 3.065-2.48-.707 30.15 4.662.04s8.076-25.3 5.427-38.02l24.528.45s11.117-5.09 5.381-20.43l-14.693 2.39Z"/><path fill="#223C56" d="M899 2012s-22.687.18-24.299 1.65c-1.611 1.47-13.701 38.02-13.701 38.02l5.274 2.33s10.491-20.73 11.046-22.21c.555-1.48 4.619-12.29 6.169-13.4 1.55-1.1 15.511-6.39 15.511-6.39Z"/><path fill="#50BFA5" d="M918.685 2016c-1.413-5.09-2.235-12.96-2.235-12.96.602-4.91 1.163-10.03 1.37-10.41l-.504-11.57s-.415-2.39-.856-2.49c-2.438-.58-7.843-1.58-9.603-1.57-.11 0-3.389 1.07-4.725 1.7-1.624.77-2.49 6.74-2.34 14.08.045.84.477 10.65.726 15.63-.173 1.01-23.745 4.87-25 5.75-1.255.88-1.518 2.13-1.518 2.13 4.92-1.99 12.433 19.71 12.433 19.71s23.776-7.19 26.916-8.24c3.138-1.06 6.748-6.67 5.336-11.76Z"/><path fill="#F7A491" d="m909 2000.84-1.124-2.41c-.312.03-2.425.08-2.471.05-.202-.1-2.059-1.14-2.807-1.38-.239-.08-.953-.18-1.014.01-.06.2.032.36.197.42.166.06.354.14.52.2.166.06.626.31.639.5.013.18-2.685.12-2.685.12s-.772-.05-1.027-.08c-.217-.03-.861-.17-.861-.17s-1.076-.15-1.112.12c-.044.33 3.502.97 3.499 1.13-.004.2-1.485.2-1.485.2s-.696-.15-1.014-.12c-.412-.16-1.235-.18-1.255.15-.004.06 1.053.37 1.053.37s.666.12.98.19c.553.14 1.397.11 1.778.17.317.05.199.13.216.16.013.02-.417.01-1.007 0-.298 0-.633.06-.978 0a7.656 7.656 0 0 0-1.039-.06c-.766 0-.633.45.081.55.272.04.569.08.869.12 1.169.16 2.265.08 2.289.2.03.14-1.979.18-1.979.18s-1.078.31-.023.47c1.224.18 2.205-.03 2.248-.03.288-.05 1.316.04 2.289-.26.973-.29 5.073-.8 5.223-.8Z"/><path fill="#50BFA5" d="M873.784 2066.2c2.614.91 4.558.35 5.648-.2.27 1.03.777 4.51.475 4.51-2.488 0-4.593.61-11.72.47-.255-.01-.224-1.14-.058-1.4.461-.69 5.458-3.23 5.655-3.38Z"/><path fill="#96D9C9" d="M912.888 1968.82s-.477 3.71 1.112 9.28c0 0-7.392 6.89-10-.56 0 0 1.078-2.82 1.919-8.89.841-6.06 6.969.17 6.969.17Z"/><path fill="#F7A491" d="M909.066 1958.03s1.766.46 2.907 2.67 2.058 8.84-1.423 12.13c-3.481 3.29-6.368-.97-6.526-5.27-.159-4.29.362-10.05 5.042-9.53Z"/><path fill="#fff" d="m905.919 1969.35 2.83.4s-.187 1.37-1.435 1.24c-1.522-.15-1.395-1.64-1.395-1.64Zm-1.919-6.22s1.717-4.27 4.447-3.89c2.73.38 4.553 4.96 4.553 4.96s-.067-5.65-4.251-6.16c-4.182-.51-4.641 4.59-4.749 5.09Z"/><path fill="#96D9C9" d="M922.446 1993.26c-.457-2.11-3.255-14.34-6.688-14.26 0 0-3.421.22-2.122 5.48l4.158 10.48c-1.653 1.17-10.743 2.31-10.794 2.31l.742 3.73s13.008.14 14.96-3.32c.527-.93.3-2.59-.256-4.42Z"/><path fill="#50BFA5" d="M899.131 2007.26s9.178-.4 13.869 1.74c0 0-6.419-4.18-14-3.99l.131 2.25Z" opacity=".5"/></svg>