<svg xmlns="http://www.w3.org/2000/svg" width="2600" height="2600" fill="none"><path fill="#67CAF4" fill-opacity=".99" d="M614.357 624.172c72.708 15.091 146.732 19.336 219.694 9.428 112.46-15.269 261.219-57.885 364.679-172.097 187.33-206.796 526.63-415.307 740.64-151.747 214.01 263.555 139.22 563.157 338.55 630.197 199.33 67.037 397.16 311.667 249.97 631.997-176.3 383.66-519.67 132.35-326.29 605.19 98.88 241.79-544.66 276.18-862.67 105.43-291.44-156.49-578.732 255.55-851.915-8.41-273.182-263.95 144.026-589.37-63.538-766.65-207.57-177.27-362.835-286.01-263.91-601.877 74.195-236.897 342.754-304.722 454.79-281.461Z"/><path fill="#258B07" d="M2441.01 2408.66c-18.53-31.29-64.63-148.47 136.08-329.81 6.46-5.85 16.83-2.2 18.13 6.41 9.1 59.98 22.2 243.96-139.77 327.51a10.905 10.905 0 0 1-8.04.81 10.92 10.92 0 0 1-6.4-4.92Z"/><path fill="#E1ECFA" d="M2579 2107s-22.76 86.28-68.21 154.93C2465.34 2330.59 2450 2409 2450 2409"/><path fill="#258B07" d="M2243.77 2149.32s42.38 76.23 102.09 130.3c59.72 54.07 93.14 124.63 93.14 124.63m-2245.97 1.26c22.498-38.05 78.473-180.54-165.217-401.05-7.846-7.1-20.437-2.67-22.016 7.79-11.043 72.94-26.95 296.66 169.714 398.26a13.267 13.267 0 0 0 9.753.98 13.28 13.28 0 0 0 7.766-5.98Z"/><path fill="#67BC4E" d="M26 2041s27.79 104.83 83.283 188.26c55.486 83.42 74.214 178.69 74.214 178.69m28.032-3.61c-10.047-34.2-25.566-156.66 208.745-280.72 7.543-3.99 16.51 1.96 15.671 10.45-5.827 59.2-37.755 237.21-211.706 277.65-2.66.62-5.459.2-7.822-1.17a10.688 10.688 0 0 1-4.888-6.21Z"/><path fill="#F36F56" d="M416.294 2144.98s-42.39 76.25-102.126 130.32C254.431 2329.38 221 2399.95 221 2399.95m1723.88-692.84 95.03-171.09 95.03-171.09c2.46-4.62 6.14-8.49 10.63-11.19 4.49-2.69 9.64-4.12 14.88-4.12s10.38 1.43 14.87 4.12c4.5 2.7 8.17 6.57 10.64 11.19l95.02 171.09 95.03 171.09c11.34 20.41-2.84 45.93-25.51 45.93h-78.22l-2.86 605.92-221.91-7.6v-598.32h-77.13c-22.66 0-36.83-25.52-25.5-45.93ZM505.375 818.853l95.027-164.564 95.033-164.564c11.338-19.633 39.68-19.633 51.019 0l95.033 164.564 95.026 164.564c11.338 19.634-2.836 44.17-25.506 44.17h-77.68l-.825 1356.627H608.555V863.023h-77.673c-22.67.007-36.845-24.536-25.507-44.17Zm490.678 684.707 95.027-171.09 95.03-171.08c2.47-4.63 6.14-8.49 10.64-11.19 4.49-2.7 9.63-4.12 14.87-4.12 5.24 0 10.38 1.42 14.88 4.12 4.49 2.7 8.17 6.56 10.63 11.19l95.03 171.08 95.03 171.09c11.34 20.42-2.84 45.93-25.51 45.93h-78.21l-4.01 848.31c0 19.27-42.24-21.22-60.78-21.22l-117.58-7.05c-18.54 0-42.41 41.84-42.41 22.57v-842.62h-77.12c-22.681 0-36.855-25.51-25.517-45.92Z"/><path fill="#F0C66C" d="M2194.05 848.405 2198.82 692l-8.56 11.931-5.97 144.716.19.146c-17.92 5.699-20.98 36.9-21.47 48.741a4.858 4.858 0 0 0 1.14 3.368c.8.936 1.92 1.535 3.14 1.676l14.63 1.685c1.2.138 2.41-.178 3.39-.887a4.896 4.896 0 0 0 1.9-2.942l1.74-8.35 4.1 10.818c.31.831.85 1.559 1.55 2.105.7.546 1.54.889 2.42.992l8.39.967c.66.078 1.32.021 1.95-.169a4.802 4.802 0 0 0 1.73-.934c.5-.426.91-.952 1.21-1.544.29-.593.46-1.24.49-1.9.68-13.528.72-49.409-16.74-54.014Z"/><path fill="#264256" d="m1774.94 332.158 408.1 52.303a18.539 18.539 0 0 1 14.49 10.656l165.74 360.546c6.16 13.4-4.99 28.291-19.57 26.126l-393.68-58.437a18.527 18.527 0 0 1-8.1-3.295 18.468 18.468 0 0 1-5.7-6.65l-180.17-354.405c-6.75-13.298 4.11-28.736 18.89-26.844Z"/><path fill="#F0C66C" d="M1739 1324h50v192h-50v-192Z"/><path fill="#E69724" d="M1894.97 1667h-260.94c-3.72 0-7.29-1.48-9.92-4.1a14.01 14.01 0 0 1-4.11-9.91v-130.98c0-7.74 6.28-14.01 14.03-14.01h260.94c7.75 0 14.03 6.27 14.03 14.01v130.98c0 1.84-.36 3.67-1.07 5.37-.7 1.69-1.73 3.24-3.04 4.54-1.3 1.3-2.85 2.33-4.55 3.04-1.7.7-3.52 1.06-5.37 1.06Z"/><path fill="#F0C66C" d="M2268.92 805.233c-46.51-79.189-134.45-50.937-175.22-32.05l13.23-89.967c4.29-29.12-18.07-55.343-47.52-55.736l-561.38-7.475c-30.66-.406-55.05 25.62-52.63 56.174l7.59 95.508c-42.04-18.792-126.61-43.589-171.91 33.546-57.79 98.406 84.43 376.677 258.46 306.277 17.41 19.7 37.35 37 59.31 51.45.49.32.91.58 1.42.87 4.52 2.65 30.11 17.53 45.03 24.01.86.37 1.59.73 2.39 1.21 44.96 26.71 103.41 70.61 93.29 113.95l49.64-.28s-16.18-62.83 80.69-102.85c6.36-2.07 19.44-7.18 22.32-8.3l1.15-.47a286.133 286.133 0 0 0 109.23-82.38c176.94 80.06 323.41-203.87 264.91-303.487Zm-931.03 34.275c30.53-51.983 85.12-41.49 118.2-28.689l10.23 128.87a292.974 292.974 0 0 0 43.98 132.741c-120 25.97-213.1-163.637-172.41-232.922Zm692.6 230.502a282.04 282.04 0 0 0 34.05-98.677l23.26-158.029c32.05-13.682 91.82-29.127 124.31 26.204 41.73 71.048-57.24 268.612-181.62 230.502Z"/><path fill="#E69724" d="M1449 708h652l-3.51 42.951H1452.4L1449 708Zm367.13 638h-102.46a6.246 6.246 0 0 1-6.24-6.26v-30.85c0-3.46 2.79-6.26 6.24-6.26h102.46c3.45 0 6.25 2.8 6.25 6.26v30.85c0 .82-.16 1.64-.48 2.4-.31.76-.77 1.45-1.35 2.03-.58.58-1.27 1.04-2.03 1.36-.76.31-1.57.47-2.39.47Z"/><path fill="#315782" d="M1900.41 458.851 1809.26 585.7a33.13 33.13 0 0 0-6.24 18.277 33.08 33.08 0 0 0 5.01 18.651c30.52 48.675 122.53 173.75 275.41 198.949 12.28 2.023 24.62-3.333 31.89-13.445l92.42-128.605a33.215 33.215 0 0 0 6.14-16.654 33.247 33.247 0 0 0-3.33-17.437c-23.9-48.166-102.64-174.926-278.84-200.113-12.11-1.73-24.17 3.587-31.31 13.528Z"/><path fill="#F3D6C1" d="m946 2067.24-1.101 35.76-45.899-.23.178-35.77 46.822.24Z"/><path fill="#2F526E" d="m899.179 2102 45.03.22a8.95 8.95 0 0 1 1.998.24c6.429 1.55 43.026 10.85 75.253 28.79 8.01 4.46 4.73 16.79-4.43 16.75l-109.189-.55a8.814 8.814 0 0 1-3.397-.69 8.896 8.896 0 0 1-2.873-1.96 8.88 8.88 0 0 1-1.912-2.91 9.004 9.004 0 0 1-.659-3.43l.179-36.46Z"/><path fill="#F3D6C1" d="m613 2141.22-1.095 34.78-45.905-.22.178-34.78 46.822.22Z"/><path fill="#2F526E" d="m566.182 2177 44.319.22c.673.01 1.314.08 1.967.23 6.327 1.52 42.346 10.61 74.062 28.16 7.885 4.37 4.656 16.43-4.36 16.39l-107.468-.53a8.737 8.737 0 0 1-3.344-.69 8.616 8.616 0 0 1-2.827-1.91 8.727 8.727 0 0 1-1.882-2.85 8.727 8.727 0 0 1-.649-3.35l.182-35.67Z"/><path fill="#F0C66C" d="m693.427 1668-44.165 231.13-88.47 249.8s-4.467 8.22 7.816 12.07h48.112s6.846-1.51 9.993-7.44l99.097-186.7 57.368-187.76 131.823 99.93-29.363 195.6s.336 5.58 8.108 5.58h53.479s5.685-1.65 7.043-7.36l51.472-215.62c.01-.08.05-.17.08-.25.26-.73 1.22-4.88-6.575-14.4L874.49 1690.09 693.427 1668Z"/><path fill="#F3D6C1" d="m1020.98 1432.99 34.09 18.09 103.19-77.66s-9.92-17.58-7.64-31.76c2.28-14.19 6.47-16.79 9.36-14.44 2.89 2.34 2.55 19.37 8.71 22.61 6.17 3.24 8.86-.27 16.16-19.52 7.3-19.24 10.5-28.09 16.57-28.31 6.06-.21 5.37 13.36 5.37 13.36s5.32-2.69 9.52-.08c4.19 2.61 2.48 8.01 2.48 8.01s3.49-1.31 7.91 2.24c4.42 3.56 1.69 9.73 1.69 9.73s7.58-3.1 7.61 8.02c.03 11.13-5.33 47.15-50.89 55.81 0 0-107.86 129.06-124.91 128.91-17.04-.15-66.2-16.85-66.2-16.85l26.98-78.16Z"/><path fill="#315780" d="M707.214 1706.27h-29.997c-1.296-11.03-5.462-28.24-18.476-41.91-12.854-13.51-30.987-20.36-53.877-20.36-39.244 0-58.139 21.09-67.081 38.78-4.243 8.41-6.593 16.78-7.914 23.49h-31.083c-4.452 0-8.721 1.76-11.869 4.9a16.725 16.725 0 0 0-4.917 11.84v127.25c0 4.44 1.769 8.7 4.917 11.84a16.803 16.803 0 0 0 11.869 4.9h208.428c4.452 0 8.721-1.76 11.869-4.9a16.725 16.725 0 0 0 4.917-11.84v-127.25c0-4.44-1.769-8.7-4.917-11.84a16.803 16.803 0 0 0-11.869-4.9Zm-102.356-39.73c16.373 0 28.949 4.44 37.364 13.22 7.869 8.19 10.968 18.85 12.182 26.51H552.81c3.988-16.15 15.992-39.73 52.048-39.73Z"/><path fill="#F3D6C1" d="m686 1481.44-37.804 7.84-29.508 125.75s18.889 7.2 26.233 19.58c7.343 12.39 7.324 23.47 3.732 20.61-2.196-1.74-5.351-3.39-9.762-5.45-5.973-2.8-9.134-6.64-13.082-5.81-6.817 1.44-13.71 5.59-5.966 18.98 7.515 12.99 27.16 14.04 22.894 18.35-10.854 10.97-21.466-.12-21.466-.12s-2.736 6.13-7.629 6.79c-4.894.67-8.112-7.62-8.112-7.62s-2.907 5.38-8.588 5.46c-5.674.08-8.112-7.61-8.112-7.61s-7.515 9.15-14.668.6c-7.154-8.55-22.051-30.61 7.413-66.38 0 0 .153-168.32 13.342-179.1 13.19-10.78 61.689-29.31 61.689-29.31L686 1481.44Z"/><path fill="#315782" d="M688.171 1676.6c24.759 9.78 119.277 43.79 196.3 26.65a7.482 7.482 0 0 0 4.125-2.59 7.43 7.43 0 0 0 1.645-4.58c.4-24.22 2.968-117.57 19.071-148.44 11.954-22.91 18.964-37.77 22.446-45.46a7.431 7.431 0 0 1 3.909-3.79 7.475 7.475 0 0 1 5.446-.11l55.421 20.27c.925.34 1.906.49 2.89.45a7.33 7.33 0 0 0 2.836-.7c.9-.41 1.7-1 2.36-1.73a7.54 7.54 0 0 0 1.51-2.5l26.42-73.23c.65-1.79.59-3.75-.16-5.5a7.468 7.468 0 0 0-3.89-3.89c-20.3-8.8-84.763-35.52-136.213-43.23-61.256-9.19-83.091-74.58-248.798 16.88-2.993 1.66-4.289 5.34-2.98 8.49l28.527 68.6c1.551 3.73 5.79 5.56 9.565 4.12l47.325-18.05c1.29-.49 2.69-.61 4.046-.36a7.486 7.486 0 0 1 5.789 5.25c.386 1.33.398 2.74.035 4.07l-52.048 190.47a7.46 7.46 0 0 0 .502 5.31 7.421 7.421 0 0 0 3.921 3.6Z"/><path fill="#F3D6C1" d="M939.002 1219s1.325 14.49 16.887 45.27c15.887 31.42 10.796 77.99-13.701 87.12-19.073 7.1-32.729 2.94-32.729 2.94l-9.833 49.67-61.133-23.83 6.704-42.18L833 1242.8l106.002-23.8Z"/><path fill="#2F5482" d="M954.961 1190.38c.501-4.68-3.962-8.47-8.464-7.09-9.34 2.85-27.492 5.49-60.228 1.13-62.53-8.34-94.733 45.63-94.264 84.74.4 33.53 36.35 52.44 47.687 66.5 2.447 3.03 7.063 3.1 9.796.32 6.461-6.56 15.483-16.38 15.781-20.25.469-6.06-17.265-6.99-18.197-25.15-.932-18.15 23.333-20.48 30.333-6.51s3.734-34.46 16.802-39.11c12.022-4.3 56.468-14.46 60.754-54.58Z"/><path fill="#F3D6C1" d="M840.975 1370s-15.019 37.21 22.43 51.28S902 1390.33 902 1390.33L840.975 1370Z"/><path fill="#315782" d="M1104 2138.13c0 5.45 4.08 9.87 9.12 9.87h876.21c64.99 0 117.67-47.16 117.67-105.33v-34.34c0-58.18-52.68-105.33-117.67-105.33h-876.21c-5.04 0-9.12 4.42-9.12 9.87v1.78c0 5.42 4.04 9.83 9.05 9.87l11.44.09.65 203.65h-12.02c-5.04 0-9.12 4.42-9.12 9.87Z"/><path fill="#F9ECDC" d="m1710.78 1924-586.78.84.65 203.16h592.2c30.46 0 55.15-26.7 55.15-59.64v-78.15c0-36.57-27.41-66.21-61.22-66.21Z"/><path fill="#E69724" d="M1923 2035.89v-20.78c0-6.14-4.9-11.11-10.96-11.11h-84.08c-6.06 0-10.96 4.97-10.96 11.11v20.78c0 6.14 4.9 11.11 10.96 11.11h84.08c6.06 0 10.96-4.97 10.96-11.11Z"/><path stroke="#F0C66C" stroke-linecap="round" stroke-miterlimit="10" d="M1741.34 1955H1125m571.89 30.92H1125m616.34 55.97H1125m626 58.11h-626"/><path fill="#E69724" d="M2351 2399.36c0 5.88-6.53 10.64-14.58 10.64H934.301C830.304 2410 746 2359.18 746 2296.51v-37.01c0-62.68 84.304-113.5 188.301-113.5H2336.42c8.05 0 14.58 4.76 14.58 10.64v1.92c0 5.84-6.47 10.59-14.48 10.64l-18.32.09-1.03 219.45 19.24-.01c8.06 0 14.59 4.76 14.59 10.63Z"/><path fill="#F9ECDC" d="m1371.9 2169 948.1.91-1.04 219.09h-942.28c-53.4 0-96.68-31.45-96.68-70.25v-82.97c0-36.88 41.15-66.78 91.9-66.78Z"/><path fill="#315780" d="M1141.75 2349.44h-31.08c-4.31 0-8.44-1.72-11.49-4.77a16.225 16.225 0 0 1-4.76-11.49v-92.91c0-4.32 1.71-8.46 4.76-11.51 3.05-3.05 7.18-4.76 11.49-4.76h31.08c4.31 0 8.44 1.71 11.49 4.76 3.05 3.05 4.76 7.19 4.76 11.51v92.91c0 2.13-.42 4.25-1.24 6.22-.81 1.97-2.01 3.77-3.52 5.28a16.3 16.3 0 0 1-5.27 3.52c-1.97.82-4.09 1.24-6.22 1.24Zm-97.42.56h-31.08c-4.31 0-8.44-1.71-11.49-4.76a16.28 16.28 0 0 1-4.76-11.51v-92.91c0-4.31 1.712-8.45 4.76-11.5 3.05-3.05 7.18-4.76 11.49-4.76h31.08c4.31 0 8.44 1.71 11.49 4.76 3.05 3.05 4.76 7.19 4.76 11.5v92.91c0 4.32-1.71 8.46-4.76 11.51a16.243 16.243 0 0 1-11.49 4.76Z"/><path stroke="#F0C66C" stroke-linecap="round" stroke-miterlimit="10" d="M1386.07 2203h932.36m-805.04 73.97H2319m-1008 27.7h1007.43M1352.47 2367h965.96"/><path fill="#F0C66C" d="M2172 1896.37c0 5.32-3.96 9.63-8.84 9.63h-850.01c-63.04 0-114.15-46-114.15-102.75v-33.5c0-56.75 51.11-102.75 114.15-102.75h850c4.88 0 8.84 4.31 8.84 9.63v1.74c0 5.29-3.92 9.59-8.77 9.63l-11.11.09-.62 198.67h11.66c4.89-.02 8.85 4.29 8.85 9.61Z"/><path fill="#F9ECDC" d="m1578.66 1687 574.34.82-.62 198.18h-570.82c-32.34 0-58.56-28.45-58.56-63.54v-75.05c-.01-33.37 24.92-60.41 55.66-60.41Z"/><path fill="#E69724" d="M1431.99 1849.5h-5.9c-4.24 0-8.31-1.68-11.31-4.67a15.891 15.891 0 0 1-4.69-11.28v-79.59c0-4.23 1.68-8.29 4.69-11.29 3-2.99 7.07-4.67 11.31-4.67h5.9c4.25 0 8.32 1.68 11.32 4.67 3 3 4.69 7.06 4.69 11.29v79.59c0 4.23-1.69 8.29-4.69 11.28-3 2.99-7.07 4.67-11.32 4.67Zm-58.08.5h-5.9c-4.25 0-8.32-1.68-11.32-4.67-3-3-4.69-7.06-4.69-11.29v-79.59c0-4.23 1.69-8.29 4.69-11.28 3-2.99 7.07-4.67 11.32-4.67h5.9c4.24 0 8.31 1.68 11.31 4.67 3.01 2.99 4.69 7.05 4.69 11.28v79.6c0 8.8-7.17 15.95-16 15.95Z"/><path stroke="#F0C66C" stroke-linecap="round" stroke-miterlimit="10" d="M1586.43 1718h564.23m-487.18 66.75H2151m-610 25h609.66M1566.09 1866h584.57"/><path fill="#F0C66C" d="M387 2405.27c0 4.27 3.921 7.73 8.762 7.73H1237.9c62.47 0 113.1-36.96 113.1-82.54v-26.92c0-45.59-50.64-82.54-113.1-82.54H395.762c-4.841 0-8.762 3.46-8.762 7.73v1.4c0 4.25 3.883 7.7 8.699 7.73l11.002.07.621 159.6h-11.553c-4.842 0-8.769 3.46-8.769 7.74Z"/><path fill="#F9ECDC" d="m970.233 2238-563.233.66.62 159.34h568.448c29.232 0 52.932-20.94 52.932-46.77v-61.3c0-28.68-26.31-51.93-58.767-51.93Z"/><path stroke="#F0C66C" stroke-linecap="round" stroke-miterlimit="10" d="M998.735 2263H408m548.134 23.89H408m590.735 43.23H408m600 44.88H408"/><path stroke="#315782" stroke-linecap="round" stroke-miterlimit="10" d="M56 2413h2511"/><path fill="#67BC4E" d="M2452.3 2403.36c10.04-34.12 25.54-156.31-208.59-280.09-7.53-3.99-16.49 1.96-15.66 10.43 5.83 59.06 37.73 236.67 211.55 277.02 2.65.62 5.45.2 7.81-1.17 2.36-1.36 4.11-3.58 4.89-6.19Z"/></svg>