<svg xmlns="http://www.w3.org/2000/svg" width="2603" height="2603" fill="none"><g clip-path="url(#a)"><path fill="#CADFC4" d="M2428.44 2244.59c74.72-165.38 116.11-349.85 115.19-544.29-3.37-705.937-562.45-1275.365-1248.74-1271.885C608.642 431.892 55.039 1006.96 58.435 1712.89c.91 189.96 42.109 370 115.151 531.7H2428.44Z"/><path fill="#fff" d="m2507.03 982.627-303.6-251.795L95.062 575.548H2507.03v407.079Zm-1218.8-24.633 915.19 91.776L95.05 943.653l1007.88-65.951 185.3 80.292Z"/><path fill="#fff" d="m1299.64 1018.36 922.68 136.32L127.314 938.625l990.796 20.984 181.53 58.751ZM95.037 1087.97l415.426-36.11 127.624 73.44 630.273 83.94-1173.323-78.42v-42.85Zm2448.603 295.86-801.88-36.11-246.33 73.44-1216.582 83.94 2264.792-78.42v-42.85Zm-2162.025 191.6c25.712 5.7 25.331 2.62 550.239-22.04l-331.843 72.4-218.396-50.36Zm1344.395-337.6c14.18 1.23 550.24-8.62 550.24-8.62l-331.84 28.33-218.4-19.71ZM231.291 737.385c14.18 1.235 550.242-8.618 550.242-8.618l-331.846 28.325-218.396-19.707Z"/><path fill="#85A456" d="M72.048 1992.29H2531.05v741H72.048v-741Z"/><path fill="#698444" d="M2531.05 2733.29H72.048v-741l2459.002 82.28v658.72Z"/><path fill="#416C6F" d="M72.048 2076.29H2531.05v657H72.048v-657Z"/><path fill="#3A5023" d="M879.048 1893.86c0-4.25-8.277-8.09-21.723-10.98 2.267-1.66 3.559-3.44 3.559-5.3 0-5.39-10.422-27.78-26.419-30.74 15.997-2.95 26.419-7.72 26.419-13.12 0-4.37-6.824-8.31-17.871-11.24 3.545-4.67 5.581-9.95 5.581-15.54 0-9.82-6.163-8.95-16.038-15.25 3.401-5.04 5.362-10.83 5.362-17.02 0-12.97-8.521-24.25-21.119-30.19 6.023-7.87 9.826-19.17 9.826-31.77 0-15.09-3.83-27.21-10.859-39.84.039-1.24.078-2.48.078-3.74 0-23.77-6.088-59.84-16.763-59.84-1.545 6.09-3.056 11.17-4.513 15.53.026.1.04.22.053.33-8.675 27.53-12.054 18.45-11.306 46.37 0 9.61-4.709 16.06-2.323 23.22-8.781 9.8-14.58 3.41-14.58 17.97 0 12.6 3.804 23.9 9.822 31.77-12.597 5.94-21.119 17.22-21.119 30.19 0 6.19 1.961 11.98 5.366 17.02-3.292 2.1-6.128 3.39-8.5 4.55-.271-.38-.517-.8-.783-1.19 1.53-6.67 2.308-13.63 2.307-20.63 0-17.68-4.889-33.77-12.895-45.82 2.19-6.88 3.319-14.32 3.313-21.84 0-2.66-.192-5.24-.45-7.8-.066-.56-.114-1.11-.179-1.66a75.609 75.609 0 0 0-1.279-7.24c-.074-.34-.179-.67-.271-1.02a65.565 65.565 0 0 0-1.869-6.22c-.14-.39-.258-.79-.411-1.17a58.655 58.655 0 0 0-2.749-6.22c-.189-.38-.386-.75-.59-1.11-1.02-1.88-2.088-3.69-3.274-5.38l-.232-.35c-1.252-1.77-2.618-3.38-4.036-4.89-.27-.29-.542-.57-.815-.85-1.458-1.48-2.963-2.84-4.565-4.03-.052-.04-.114-.07-.165-.11a33.738 33.738 0 0 0-4.889-2.97c-.166-.09-.333-.22-.499-.32a.36.36 0 0 0 .062.1c-4.075-1.99-8.417-3.13-12.982-3.13-21.648 0-39.183 24.34-39.183 54.37 0 7.77 1.187 15.16 3.3 21.84-8.309 12.47-12.914 28.84-12.894 45.82 0 7.19.81 14.12 2.319 20.63-7.94 10.88-13.836 24.58-16.991 39.86-2.477-2.2-5.533-4.22-9.091-5.97 3.401-3.88 5.362-8.35 5.362-13.12 0-10-8.521-18.7-21.119-23.29 6.023-6.07 9.827-14.78 9.827-24.5 0-11.63-3.817-27.07-10.859-36.81.053-.94.078-1.9.078-2.87 0-18.34-6.07-46.16-16.75-46.16-.716 2.19-1.481 4.35-2.293 6.47-.026.08-.053.14-.079.21-.678 1.8-1.396 3.56-2.153 5.29-9.862 22.67-17.382 18.22-17.382 34.19 0 7.41 1.431 14.22 3.803 19.74-8.78 7.56-14.579 8.71-14.579 19.94 0 9.72 3.804 18.43 9.822 24.5-12.597 4.59-21.119 13.29-21.119 23.29 0 4.77 1.961 9.24 5.366 13.12-9.878 4.87-16.041 11.69-16.041 19.27 0 4.31 2.039 8.38 5.572 11.99-11.039 2.26-17.858 5.3-17.858 8.66 0 4.17 10.417 7.84 26.419 10.13-11.363 1.62-19.82 3.96-23.815 6.65-1.047-11.37-3.948-21.93-8.395-30.96 5.612-11.38 8.886-25.16 8.886-39.99 0-3.97-.246-7.85-.683-11.63-.158-1.27-.464-2.46-.661-3.71-.399-2.47-.757-4.95-1.339-7.32-.351-1.43-.836-2.75-1.251-4.13-.604-2.07-1.174-4.16-1.922-6.13-.526-1.4-1.199-2.68-1.791-4.04-.801-1.79-1.563-3.62-2.464-5.3-.695-1.32-1.506-2.48-2.28-3.72-.953-1.55-1.882-3.14-2.928-4.57-.849-1.17-1.803-2.17-2.705-3.25-1.111-1.32-2.192-2.66-3.379-3.82-.98-.99-2.039-1.81-3.068-2.69-1.238-1.05-2.451-2.13-3.756-3.04-1.094-.76-2.241-1.36-3.375-2.02-1.033-.59-2.013-1.32-3.072-1.82.013.06.026.14.039.21-.682-.32-1.313-.79-1.995-1.07-6.693-28.39-25.93-48.91-48.636-48.91-28.263 0-51.175 31.77-51.175 70.97 0 20.35 6.188 38.68 16.067 51.63-7.905 1.87-15.165 6.29-21.39 12.57-1.947-1.43-4.167-2.75-6.617-3.96 3.405-3.88 5.366-8.35 5.366-13.12 0-10-8.522-18.7-21.119-23.29 6.018-6.07 9.822-14.79 9.822-24.51 0-11.23-5.8-12.37-14.58-19.93 2.386-5.52 3.804-12.33 3.804-19.75 0-15.96-7.506-11.51-17.381-34.18-1.458-3.35-2.967-7.28-4.512-11.97-10.679 0-16.764 27.82-16.764 46.15 0 .97.039 1.93.079 2.88-7.029 9.74-10.859 25.17-10.859 36.81 0 9.72 3.804 18.43 9.827 24.5-12.597 4.59-21.119 13.29-21.119 23.29 0 4.77 1.961 9.24 5.361 13.12-3.558 1.75-6.601 3.77-9.086 5.97-3.16-15.29-9.051-28.98-16.982-39.86 1.537-6.67 2.319-13.63 2.319-20.63 0-17.68-4.897-33.77-12.908-45.82 2.19-6.88 3.319-14.32 3.314-21.84 0-30.03-17.547-54.37-39.195-54.37-4.553 0-8.907 1.14-12.969 3.12.014-.02.04-.06.062-.09-.179.09-.333.23-.512.32a33.825 33.825 0 0 0-4.902 2.98c-.039.03-.088.06-.14.1-1.612 1.19-3.121 2.56-4.592 4.03-.258.28-.53.55-.788.83a46.291 46.291 0 0 0-4.048 4.92c-.074.1-.14.2-.206.31a56.488 56.488 0 0 0-3.314 5.43c-.192.36-.385.7-.578 1.07-1.014 2-1.932 4.08-2.748 6.25-.14.37-.271.76-.398 1.15a63.197 63.197 0 0 0-1.882 6.24c-.092.34-.193.67-.272 1.01a72.016 72.016 0 0 0-1.265 7.24c-.074.55-.126 1.1-.192 1.66-.258 2.56-.438 5.14-.438 7.8 0 7.77 1.186 15.16 3.299 21.84-8.006 12.05-12.894 28.14-12.894 45.82 0 7.19.814 14.12 2.307 20.63-.267.39-.512.81-.783 1.19-2.372-1.16-5.208-2.45-8.496-4.55 3.401-5.04 5.362-10.83 5.362-17.02 0-12.97-8.509-24.25-21.119-30.19 6.031-7.87 9.834-19.17 9.834-31.77 0-14.56-5.813-8.17-14.592-17.97 2.386-7.16-2.324-13.61-2.324-23.22.749-27.92-2.617-18.85-11.292-46.36.013-.11.026-.24.039-.34-1.458-4.36-2.967-9.44-4.512-15.53-10.675 0-16.764 36.07-16.764 59.84 0 1.27.039 2.5.092 3.74-7.042 12.63-10.868 24.75-10.868 39.84 0 1.48.219 2.87.32 4.32-9.152-11.94-21.443-19.3-34.993-19.3-22.704 0-41.94 20.52-48.632 48.91-.687.28-1.317.75-2 1.07.014-.07.026-.15.04-.21-1.06.5-2.04 1.24-3.069 1.83-1.133.65-2.284 1.25-3.379 2.01-1.304.91-2.512 1.99-3.751 3.04-1.033.88-2.088 1.7-3.082 2.69-1.173 1.16-2.258 2.5-3.366 3.82-.902 1.08-1.855 2.08-2.709 3.25-1.042 1.43-1.974 3.02-2.937 4.57-.762 1.24-1.575 2.4-2.27 3.72-.915 1.68-1.664 3.51-2.465 5.3-.59 1.36-1.26 2.64-1.79 4.04-.749 1.97-1.314 4.06-1.922 6.13-.411 1.38-.902 2.71-1.252 4.13-.578 2.37-.94 4.85-1.339 7.32-.192 1.25-.503 2.44-.656 3.71-.46 3.84-.693 7.73-.696 11.63-.014 14.27 3.087 28.21 8.894 39.99-5.807 11.78-8.908 25.72-8.894 39.99 0 39.19 22.908 70.97 51.175 70.97 11.498 0 22.086-5.32 30.634-14.2l-1.69 50.85h13.924l-1.467-44.2.538-1.89c5.777 3.14 12.006 5.04 18.593 5.04 2.552 0 5.029-.34 7.481-.84.516-.11 1.015-.2 1.531-.32a40.128 40.128 0 0 0 6.886-2.37c.376-.18.748-.39 1.125-.57a46.63 46.63 0 0 0 6.004-3.54c.285-.21.583-.38.867-.59a53.603 53.603 0 0 0 7.064-6.32c.451-.48.915-.92 1.366-1.42l-1.724 57.02h18.474l-1.947-58.62 4.486-15.9c12.689-.48 23.053-1.63 31.514-3.25 11.123 15.65 25.94 25.2 41.734 26.92l-1.69 50.85h13.928l-1.458-44.19 1.948-6.91c.206-.03.411-.09.617-.13a46.3 46.3 0 0 0 4.154-.88c.694-.18 1.385-.37 2.075-.58 1.366-.42 2.723-.91 4.048-1.45.595-.23 1.187-.43 1.768-.7a55.69 55.69 0 0 0 5.44-2.76c.359-.21.723-.47 1.081-.7a59.18 59.18 0 0 0 4.168-2.78c.63-.46 1.247-.96 1.869-1.45 1.079-.86 2.14-1.75 3.182-2.69.622-.56 1.251-1.12 1.86-1.72.306-.29.631-.55.928-.85-.067.04-.145.07-.207.11 3.664-3.66 7.05-7.82 10.107-12.42 12.199 3.41 30.997 5.82 60.034 5.82.849 0 1.637-.01 2.459-.02l-2.459 74.3h11.643l-1.226-36.93 10.675-37.84c2.775-.13 5.379-.31 7.905-.5.643 1.45 1.3 2.88 2.014 4.27.218.43.463.86.695 1.28 1.405 2.63 2.911 5.16 4.561 7.48.039.06.078.12.117.19 1.677 2.33 3.493 4.45 5.375 6.45.377.4.749.79 1.125 1.16a53.147 53.147 0 0 0 5.931 5.16c.294.21.591.38.875.59a46.683 46.683 0 0 0 6.009 3.54c.372.18.735.39 1.121.57a40.117 40.117 0 0 0 6.885 2.37c.503.12 1.02.21 1.523.32 2.447.5 4.937.84 7.489.84 6.579 0 12.817-1.9 18.594-5.04l.53 1.89-1.458 44.2h13.923l-1.685-50.85c8.548 8.88 19.131 14.2 30.634 14.2 21.636 0 40.084-18.65 47.577-44.97 9.104 3.22 22.874 5.81 43.761 6.85l10.675 37.84-1.226 36.93h11.643l-2.459-74.3c.822 0 1.611.02 2.459.02 29.05 0 47.835-2.41 60.034-5.83 3.057 4.61 6.443 8.77 10.107 12.43-.062-.04-.127-.07-.207-.11.311.3.635.56.928.85.622.6 1.238 1.16 1.874 1.72 1.035.94 2.092 1.84 3.168 2.68.622.5 1.239.99 1.883 1.46 1.362.99 2.747 1.92 4.154 2.78.372.23.722.49 1.094.7a53.373 53.373 0 0 0 5.428 2.76c.583.26 1.178.47 1.768.7 1.339.54 2.684 1.03 4.048 1.45.683.21 1.38.4 2.076.58 1.37.36 2.762.64 4.167.88.205.03.397.1.617.13l1.947 6.9-1.471 44.2h13.94l-1.689-50.85c15.789-1.72 30.601-11.28 41.72-26.92 8.474 1.62 18.825 2.77 31.514 3.24l4.486 15.91-1.947 58.62h18.479l-2.246-74.34c76.984-1.11 77.023-25.31 77.023-34.09Zm-343.702-.66c-.192.04-.35.06-.53.1-.015-.15-.023-.3-.025-.46.179.12.35.25.555.36Zm-228.667-15.16c1.843.34 3.791.66 5.839.95-2.058.29-4.112.63-6.163 1.01.106-.66.219-1.3.324-1.96Zm53.455 64.6-.49-14.73c2.722-.05 5.34-.13 7.865-.23l-7.375 14.96Zm226.362 0-7.375-14.96c2.525.1 5.129.18 7.864.23l-.489 14.73Zm47.603-63.65c1.953-.28 3.904-.59 5.852-.95.092.66.206 1.3.31 1.96-2.05-.38-4.105-.72-6.162-1.01Z"/><path fill="#1F482A" d="M1010.05 1893.86c0-4.25-8.28-8.09-21.725-10.98 2.267-1.66 3.559-3.44 3.559-5.3 0-5.39-10.422-27.78-26.419-30.74 15.997-2.95 26.419-7.72 26.419-13.12 0-4.37-6.824-8.31-17.871-11.24 3.545-4.67 5.58-9.95 5.58-15.54 0-9.82-6.163-8.95-16.038-15.25 3.401-5.04 5.362-10.83 5.362-17.02 0-12.97-8.521-24.25-21.119-30.19 6.023-7.87 9.827-19.17 9.827-31.77 0-15.09-3.83-27.21-10.859-39.84.039-1.24.078-2.48.078-3.74 0-23.77-6.088-59.84-16.763-59.84-1.545 6.09-3.056 11.17-4.512 15.53.025.1.039.22.052.33-8.675 27.53-12.054 18.45-11.305 46.37 0 9.61-4.71 16.06-2.324 23.22-8.781 9.8-14.58 3.41-14.58 17.97 0 12.6 3.804 23.9 9.822 31.77-12.596 5.94-21.119 17.22-21.119 30.19 0 6.19 1.961 11.98 5.366 17.02-3.292 2.1-6.128 3.39-8.5 4.55-.271-.38-.516-.8-.783-1.19 1.53-6.67 2.309-13.63 2.307-20.63 0-17.68-4.889-33.77-12.895-45.82 2.19-6.88 3.319-14.32 3.314-21.84 0-2.66-.193-5.24-.451-7.8-.066-.56-.114-1.11-.179-1.66a75.609 75.609 0 0 0-1.279-7.24c-.074-.34-.179-.67-.271-1.02a65.565 65.565 0 0 0-1.869-6.22c-.14-.39-.257-.79-.411-1.17a58.65 58.65 0 0 0-2.748-6.22c-.19-.38-.387-.75-.591-1.11-1.02-1.88-2.087-3.69-3.274-5.38l-.232-.35c-1.252-1.77-2.617-3.38-4.036-4.89-.27-.29-.542-.57-.815-.85-1.457-1.48-2.962-2.84-4.564-4.03-.053-.04-.115-.07-.166-.11a34.611 34.611 0 0 0-4.885-2.97c-.17-.09-.337-.22-.503-.32a.36.36 0 0 0 .062.1c-4.075-1.99-8.417-3.13-12.982-3.13-21.648 0-39.182 24.34-39.182 54.37 0 7.77 1.186 15.16 3.3 21.84-8.309 12.47-12.915 28.84-12.895 45.82 0 7.19.815 14.12 2.319 20.63-7.939 10.88-13.835 24.58-16.991 39.86-2.477-2.2-5.533-4.22-9.09-5.97 3.4-3.88 5.361-8.35 5.361-13.12 0-10-8.522-18.7-21.119-23.29 6.023-6.07 9.826-14.78 9.826-24.5 0-11.63-3.817-27.07-10.859-36.81.053-.94.079-1.9.079-2.87 0-18.34-6.071-46.16-16.751-46.16-.716 2.19-1.481 4.35-2.293 6.47-.026.08-.053.14-.079.21-.677 1.8-1.395 3.56-2.153 5.29-9.862 22.67-17.381 18.22-17.381 34.19 0 7.41 1.431 14.22 3.807 19.74-8.784 7.56-14.584 8.71-14.584 19.94 0 9.72 3.803 18.43 9.825 24.5-12.601 4.59-21.122 13.29-21.122 23.29 0 4.77 1.961 9.24 5.366 13.12-9.878 4.87-16.041 11.69-16.041 19.27 0 4.31 2.04 8.38 5.572 11.99-11.039 2.26-17.858 5.3-17.858 8.66 0 4.17 10.417 7.84 26.419 10.13-11.363 1.62-19.819 3.96-23.815 6.65-1.046-11.37-3.947-21.93-8.395-30.96 5.612-11.38 8.886-25.16 8.886-39.99 0-3.97-.245-7.85-.682-11.63-.158-1.27-.464-2.46-.662-3.71-.397-2.47-.757-4.95-1.339-7.32-.346-1.43-.835-2.75-1.251-4.13-.604-2.07-1.173-4.16-1.922-6.13-.525-1.4-1.199-2.68-1.79-4.04-.802-1.79-1.562-3.62-2.464-5.3-.696-1.32-1.506-2.48-2.28-3.72-.955-1.55-1.883-3.14-2.928-4.57-.85-1.17-1.803-2.17-2.705-3.25-1.112-1.32-2.193-2.66-3.38-3.82-.98-.99-2.039-1.81-3.067-2.69-1.239-1.05-2.452-2.13-3.756-3.04-1.095-.76-2.241-1.36-3.375-2.02-1.033-.59-2.014-1.32-3.073-1.82.014.06.026.14.04.21-.683-.32-1.314-.79-1.996-1.07-6.693-28.39-25.929-48.91-48.636-48.91-28.262 0-51.175 31.77-51.175 70.97 0 20.35 6.189 38.68 16.068 51.63-7.905 1.87-15.166 6.29-21.39 12.57-1.948-1.43-4.167-2.75-6.618-3.96 3.405-3.88 5.366-8.35 5.366-13.12 0-10-8.521-18.7-21.119-23.29 6.018-6.07 9.822-14.79 9.822-24.51 0-11.23-5.799-12.37-14.579-19.93 2.385-5.52 3.804-12.33 3.804-19.75 0-15.96-7.506-11.51-17.381-34.18-1.458-3.35-2.967-7.28-4.513-11.97-10.674 0-16.763 27.82-16.763 46.15 0 .97.039 1.93.078 2.88-7.029 9.74-10.858 25.17-10.858 36.81 0 9.72 3.804 18.43 9.826 24.5-12.596 4.59-21.119 13.29-21.119 23.29 0 4.77 1.961 9.24 5.362 13.12-3.559 1.75-6.601 3.77-9.086 5.97-3.16-15.29-9.052-28.98-16.982-39.86 1.537-6.67 2.319-13.63 2.319-20.63 0-17.68-4.898-33.77-12.908-45.82 2.19-6.88 3.318-14.32 3.313-21.84 0-30.03-17.547-54.37-39.194-54.37-4.553 0-8.907 1.14-12.969 3.12.014-.02.039-.06.062-.09-.18.09-.333.23-.512.32-1.682.83-3.32 1.83-4.903 2.98-.039.03-.087.06-.14.1-1.611 1.19-3.12 2.56-4.591 4.03-.258.28-.53.55-.788.83a46.291 46.291 0 0 0-4.048 4.92c-.074.1-.14.2-.207.31a56.48 56.48 0 0 0-3.313 5.43c-.193.36-.385.7-.578 1.07-1.014 2-1.932 4.08-2.749 6.25-.14.37-.271.76-.397 1.15a63.471 63.471 0 0 0-1.883 6.24c-.092.34-.192.67-.271 1.01a72.016 72.016 0 0 0-1.265 7.24c-.074.55-.127 1.1-.193 1.66-.257 2.56-.438 5.14-.438 7.8 0 7.77 1.187 15.16 3.3 21.84-8.006 12.05-12.895 28.14-12.895 45.82 0 7.19.815 14.12 2.312 20.63-.271.39-.516.81-.788 1.19-2.372-1.16-5.208-2.45-8.495-4.55 3.401-5.04 5.361-10.83 5.361-17.02 0-12.97-8.509-24.25-21.119-30.19 6.032-7.87 9.835-19.17 9.835-31.77 0-14.56-5.813-8.17-14.592-17.97 2.385-7.16-2.324-13.61-2.324-23.22.748-27.92-2.618-18.85-11.292-46.36.013-.11.025-.24.039-.34-1.458-4.36-2.967-9.44-4.512-15.53-10.675 0-16.764 36.07-16.764 59.84 0 1.27.039 2.5.092 3.74-7.042 12.63-10.868 24.75-10.868 39.84 0 1.48.219 2.87.32 4.32-9.153-11.94-21.443-19.3-34.993-19.3-22.704 0-41.94 20.52-48.632 48.91-.682.28-1.317.75-2 1.07.014-.07.026-.15.039-.21-1.058.5-2.039 1.24-3.068 1.83-1.133.65-2.284 1.25-3.379 2.01-1.304.91-2.512 1.99-3.751 3.04-1.033.88-2.088 1.7-3.082 2.69-1.173 1.16-2.259 2.5-3.366 3.82-.902 1.08-1.855 2.08-2.709 3.25-1.042 1.43-1.97 3.02-2.937 4.57-.762 1.24-1.575 2.4-2.271 3.72-.914 1.68-1.663 3.51-2.464 5.3-.59 1.36-1.26 2.64-1.79 4.04-.749 1.97-1.314 4.06-1.922 6.13-.411 1.38-.902 2.71-1.252 4.13-.578 2.37-.941 4.85-1.339 7.32-.192 1.25-.503 2.44-.656 3.71a98.286 98.286 0 0 0-.696 11.63c-.014 14.27 3.087 28.21 8.894 39.99-5.807 11.78-8.908 25.72-8.894 39.99 0 39.19 22.908 70.97 51.175 70.97 11.498 0 22.086-5.32 30.634-14.2l-1.69 50.85h13.924l-1.467-44.2.538-1.89c5.777 3.14 12.006 5.04 18.593 5.04 2.551 0 5.029-.34 7.48-.84.517-.11 1.016-.2 1.532-.32a40.128 40.128 0 0 0 6.886-2.37c.376-.18.748-.39 1.125-.57a46.63 46.63 0 0 0 6.004-3.54c.285-.21.583-.38.866-.59a53.547 53.547 0 0 0 7.065-6.32c.45-.48.914-.92 1.366-1.42l-1.725 57.02h18.475l-1.947-58.62 4.486-15.9c12.689-.48 23.053-1.63 31.514-3.25 11.122 15.65 25.94 25.2 41.734 26.92l-1.69 50.85h13.928l-1.458-44.19 1.947-6.91c.206-.03.411-.09.618-.13 1.391-.23 2.776-.52 4.153-.88.694-.18 1.386-.37 2.075-.58a48.78 48.78 0 0 0 4.049-1.45c.595-.23 1.186-.43 1.768-.7a55.69 55.69 0 0 0 5.44-2.76c.358-.21.723-.47 1.081-.7a59.162 59.162 0 0 0 4.167-2.78c.631-.46 1.247-.96 1.869-1.45a68.223 68.223 0 0 0 3.187-2.69c.617-.56 1.247-1.12 1.855-1.72.306-.29.631-.55.928-.85-.066.04-.144.07-.206.11 3.663-3.66 7.049-7.82 10.107-12.42 12.199 3.41 30.997 5.82 60.033 5.82.85 0 1.637-.01 2.464-.02l-2.464 74.3h11.643l-1.225-36.93 10.674-37.84c2.776-.13 5.38-.31 7.905-.5.638 1.45 1.31 2.88 2.014 4.27.218.43.464.86.696 1.28 1.405 2.63 2.911 5.16 4.56 7.48.039.06.079.12.118.19 1.676 2.33 3.492 4.45 5.375 6.45.376.4.748.79 1.125 1.16a53.058 53.058 0 0 0 5.931 5.16c.293.21.59.38.875.59a46.683 46.683 0 0 0 6.009 3.54c.372.18.735.39 1.12.57a40.117 40.117 0 0 0 6.885 2.37c.503.12 1.019.21 1.522.32 2.447.5 4.937.84 7.49.84 6.578 0 12.816-1.9 18.593-5.04l.53 1.89-1.458 44.2h13.924l-1.686-50.85c8.549 8.88 19.132 14.2 30.635 14.2 21.635 0 40.083-18.65 47.577-44.97 9.104 3.22 22.873 5.81 43.76 6.85l10.675 37.84-1.226 36.93h11.643l-2.459-74.3c.822 0 1.611.02 2.459.02 29.05 0 47.835-2.41 60.034-5.83 3.057 4.61 6.443 8.77 10.107 12.43-.062-.04-.127-.07-.207-.11.311.3.635.56.928.85.622.6 1.238 1.16 1.874 1.72 1.035.94 2.092 1.84 3.168 2.68.622.5 1.239.99 1.883 1.46 1.361.99 2.747 1.92 4.154 2.78.372.23.721.49 1.094.7a53.373 53.373 0 0 0 5.428 2.76c.581.26 1.178.47 1.768.7 1.339.54 2.684 1.03 4.048 1.45.683.21 1.38.4 2.076.58 1.37.36 2.762.64 4.167.88.206.03.398.1.617.13l1.947 6.9-1.471 44.2h13.94l-1.689-50.85c15.789-1.72 30.601-11.28 41.72-26.92 8.474 1.62 18.825 2.77 31.514 3.24l4.486 15.91-1.947 58.62h18.479l-2.246-74.34c76.987-1.11 77.027-25.31 77.027-34.09Zm-343.703-.66c-.193.04-.351.06-.53.1-.015-.15-.024-.3-.026-.46.179.12.35.25.556.36Zm-228.668-15.16c1.843.34 3.79.66 5.839.95-2.058.29-4.113.63-6.163 1.01.105-.66.219-1.3.324-1.96Zm53.455 64.6-.49-14.73c2.723-.05 5.34-.13 7.865-.23l-7.375 14.96Zm226.361 0-7.375-14.96c2.525.1 5.129.18 7.865.23l-.49 14.73Zm47.603-63.65a146.6 146.6 0 0 0 5.852-.95c.092.66.206 1.3.31 1.96-2.05-.38-4.104-.72-6.162-1.01Z"/><path fill="#85A456" d="M35.048 1815.16c0-32.44 15.471-59.83 36.672-68.58 6.698-28.61 25.95-49.29 48.674-49.29 28.27 0 51.201 32.02 51.201 71.53 0 20.5-6.181 38.98-16.08 52.03 24.144 5.75 42.533 35.11 42.533 70.48 0 39.51-22.931 71.53-51.202 71.53-10.398 0-20.066-4.33-28.13-11.77-8.84 10.12-20.14 16.2-32.453 16.2-28.284 0-51.215-32.03-51.215-71.52-.013-14.38 3.092-28.43 8.905-40.3-5.813-11.87-8.917-25.92-8.905-40.31Z"/><path fill="#678343" d="M35.049 1815.05c0-31.46 14.47-58.16 34.604-67.76-1.65 7.13-2.49 14.57-2.485 22.07 0 14.95 3.266 28.83 8.877 40.32-5.612 11.49-8.877 25.36-8.877 40.33 0 39.53 22.845 71.58 51.039 71.58 12.283 0 23.553-6.08 32.351-16.22 8.32 7.7 18.072 11.8 28.041 11.78 5.759 0 11.292-1.35 16.449-3.82-6.624 28.74-25.854 49.53-48.556 49.53-10.365 0-20.003-4.34-28.041-11.78-8.812 10.13-20.077 16.21-32.35 16.21-28.195 0-51.053-32.05-51.053-71.57-.013-14.39 3.082-28.46 8.876-40.33-5.793-11.88-8.887-25.95-8.875-40.34Z"/><path fill="#49393B" d="m76.048 1793.29 42.881 107.25 3.572-107.25 4.577 137.93 19.97-40.46-19.073 67.53 1.467 44h-13.89l2.055-61.79-41.56-147.21Z"/><path fill="#A1B67D" d="M160.768 1773.49c0-33.44-19.509-60.55-43.556-60.55-10.803 0-20.682 5.49-28.302 14.55 7.997-12.96 19.845-21.2 33.085-21.2 24.048 0 43.543 27.12 43.543 60.57 0 18.42-5.918 34.9-15.242 46.01 6.515-10.59 10.472-24.34 10.472-39.38Zm-51.65 29.4c0-14.93-8.706-27.04-19.434-27.04-4.636 0-9.119 2.31-12.636 6.51 3.572-5.8 8.859-9.46 14.764-9.46 10.741 0 19.446 12.09 19.446 27.03 0 8.21-2.643 15.57-6.81 20.53 3.021-4.89 4.678-11.13 4.67-17.57Zm69.018 66.78c-2.448-21.37-16.891-35.93-32.259-32.52-6.634 1.45-12.671 6.17-17.01 13.3 4.154-9.42 11.118-16.35 19.575-18.22 15.372-3.41 29.799 11.15 32.25 32.53 1.352 11.76-1.226 23.13-6.361 31.53 3.38-7.68 4.903-17.02 3.805-26.62Z"/><path fill="#A1B67D" d="M108.048 1742.3c0 9.39 5.598 16.99 12.5 16.99s12.5-7.6 12.5-16.99c0-9.39-5.598-17.01-12.5-17.01s-12.5 7.62-12.5 17.01Z"/><path fill="#A1B67D" d="M128.048 1760.29c-.001 1.05.153 2.09.454 3.06.301.97.742 1.86 1.299 2.6.557.74 1.218 1.33 1.946 1.74.727.4 1.507.6 2.295.6 3.31 0 6.006-3.58 6.006-8 0-4.41-2.696-8-6.006-8-.788.01-1.567.21-2.295.61-.727.41-1.388 1-1.945 1.74a8.51 8.51 0 0 0-1.299 2.59c-.301.97-.456 2.01-.455 3.06Z"/><path fill="#85A456" d="M230.774 1794.75c-1.543-6.66-2.327-13.61-2.323-20.6-.02-16.96 4.616-33.3 12.981-45.75-2.204-6.88-3.34-14.31-3.335-21.82 0-29.98 17.664-54.29 39.457-54.29 21.792 0 39.444 24.31 39.444 54.29 0 7.76-1.195 15.14-3.322 21.82 8.059 12.03 12.981 28.1 12.981 45.75 0 7.19-.819 14.1-2.335 20.6 12.188 16.59 19.726 39.6 19.726 65.04 0 50.55-29.772 91.5-66.493 91.5-36.734 0-66.507-40.96-66.507-91.5-.001-25.44 7.552-48.45 19.726-65.04Z"/><path fill="#678343" d="M230.699 1794.21c-1.537-6.68-2.317-13.66-2.313-20.67-.021-17.02 4.598-33.42 12.931-45.92-2.196-6.89-3.328-14.35-3.323-21.89 0-23.79 11.013-44.01 26.349-51.44-8.559 10-13.989 24.97-13.989 41.69 0 7.78 1.19 15.19 3.31 21.89-8.029 12.08-12.945 28.2-12.945 45.91 0 7.22.829 14.16 2.326 20.67-12.128 16.65-19.65 39.75-19.65 65.27 0 50.71 29.658 91.82 66.251 91.82 9.389 0 18.308-2.7 26.402-7.59-10.898 10.91-24.281 17.34-38.748 17.34-36.593 0-66.252-41.1-66.252-91.81 0-25.54 7.524-48.63 19.651-65.27Z"/><path fill="#49393B" d="m270.048 2002.29 7.064-209 4.65 137.93 20.286-40.46-19.373 67.53 1.489 44h-14.116Z"/><path fill="#A1B67D" d="M277.52 1660.29c19.617 0 35.528 20.88 35.528 46.64 0 10.24-2.529 19.67-6.79 27.36h-1.425c2.823-6.74 4.31-14.42 4.309-22.24 0-25.75-15.906-46.64-35.528-46.64-8.813 0-6.904-5.12 3.906-5.12Z"/><path fill="#A1B67D" d="M319.372 1776.41c0-24.54-15.014-44.44-33.526-44.44-8.331 0-15.935 4.02-21.798 10.67 6.144-9.5 15.271-15.54 25.473-15.54 18.508 0 33.527 19.89 33.527 44.44 0 13.5-4.559 25.61-11.738 33.75 5.016-7.77 8.062-17.85 8.062-28.88Zm-48.349-92.66c0 6.32 3.868 11.44 8.644 11.44 4.758 0 8.626-5.12 8.626-11.44 0-6.33-3.868-11.46-8.626-11.46-4.777 0-8.644 5.13-8.644 11.46Z"/><path fill="#A1B67D" d="M287.025 1776.02c0 8.63 5.383 15.63 12.015 15.63 6.634 0 12.008-7 12.008-15.63s-5.374-15.62-12.008-15.62c-6.632-.01-12.015 6.99-12.015 15.62Zm5.112 30.29c0 4.97 3.092 8.98 6.905 8.98 3.812 0 6.89-4.01 6.89-8.98 0-4.95-3.078-8.97-6.89-8.97-3.813 0-6.905 4.02-6.905 8.97Zm-8.089-110.37c0 3.13 1.945 5.66 4.342 5.66 2.409 0 4.355-2.53 4.355-5.66 0-3.12-1.945-5.65-4.355-5.65-2.396 0-4.342 2.53-4.342 5.65Z"/><path fill="#49393B" d="m177.048 2002.29 9.265-306 6.116 211.44 26.619-53.83-25.431 89.85 1.952 58.54h-18.521Z"/><path fill="#3C8E51" d="M124.761 1883.98c-2.266-1.67-3.557-3.45-3.557-5.32 0-5.41 10.412-27.88 26.407-30.86-15.995-2.97-26.407-7.75-26.407-13.18 0-4.38 6.821-8.34 17.862-11.27-3.543-4.7-5.577-10-5.577-15.62 0-9.85 6.16-8.98 16.029-15.3-3.404-5.06-5.359-10.88-5.359-17.09 0-13.02 8.517-24.35 21.109-30.31-6.02-7.91-9.822-19.25-9.822-31.9 0-15.15 3.828-27.32 10.854-40.01-.039-1.24-.079-2.48-.079-3.75 0-23.86 6.082-60.08 16.752-60.08 12.001 47.44 16.629 30.04 15.763 62.49 0 9.64 4.702 16.11 2.318 23.3 8.781 9.85 14.578 3.43 14.578 18.05 0 12.65-3.803 23.99-9.823 31.9 12.591 5.96 21.114 17.29 21.114 30.31 0 6.21-1.96 12.03-5.363 17.09 9.873 6.32 16.047 5.45 16.047 15.3 0 5.62-2.052 10.92-5.582 15.62 11.046 2.93 17.862 24.58 17.862 28.95 0 5.43-10.426-7.47-26.42-4.5 15.994 2.98 38.972 22.48 38.972 27.89 0 1.87-13.837 6.62-16.109 8.29 13.445 2.91 21.718 6.76 21.718 11.03 0 9.02 0 34.28-82.507 34.28-82.493 0-82.493-25.26-82.493-34.28 0-4.27 8.273-8.12 21.713-11.03Z"/><path fill="#3D6E46" d="M124.76 1883.99c-2.266-1.67-3.557-3.46-3.557-5.32 0-5.42 10.412-27.89 26.407-30.87-15.995-2.96-26.407-7.75-26.407-13.18 0-4.38 6.82-8.33 17.862-11.27-3.543-4.7-5.577-9.99-5.577-15.61 0-9.86 6.16-8.98 16.029-15.31-3.404-5.06-5.359-10.88-5.359-17.09 0-13.02 8.517-24.35 21.109-30.31-6.02-7.91-9.822-19.25-9.822-31.9 0-15.15 3.828-27.32 10.854-40.01-.039-1.24-.079-2.48-.079-3.75 0-23.86 6.082-60.08 16.752-60.08 1.549 6.12 3.057 11.22 4.51 15.59-2.074 12.04-3.167 27.06-3.167 38.98 0 1.27.025 2.51.052 3.76-5.106 12.68-7.888 24.85-7.888 40 0 12.65 2.77 23.98 7.14 31.9-9.152 5.96-15.338 17.3-15.338 30.3 0 6.22 1.43 12.04 3.894 17.1-7.165 6.33-11.65 15.21-11.65 25.08 0 5.62 1.483 1.14 4.06 5.83-8.028 2.94-12.98 6.91-12.98 11.29 0 5.42 7.568 10.2 19.179 13.18-11.611 2.96-19.179 25.43-19.179 30.85 0 1.87.94 3.65 2.581 5.32-9.756 2.91-15.776 6.77-15.776 11.02 0 9.03 0 34.29 59.941 34.29 59.928 0 59.928-25.26 59.928-34.29 0-.82-.284-1.62-.709-2.4 6.611 2.34 10.478 5.03 10.478 7.92 0 9.02 0 34.28-82.507 34.28-82.493 0-82.493-25.26-82.493-34.28-.001-4.26 8.272-8.12 21.712-11.02Z"/><path fill="#67944E" d="M194.111 1835.91c0 1.47 9.391 2.66 20.977 2.66 11.569 0 20.96-1.19 20.96-2.66 0-1.46-9.391-2.65-20.96-2.65-11.586 0-20.977 1.19-20.977 2.65Zm8.183-28.3c0 1.46 4.686 2.65 10.48 2.65 5.793 0 10.484-1.19 10.484-2.65s-4.691-2.65-10.484-2.65c-5.794 0-10.48 1.19-10.48 2.65Zm0-56.78c0 1.46 2.336 2.65 5.246 2.65 2.884 0 5.234-1.19 5.234-2.65 0-1.47-2.35-2.65-5.234-2.65-2.91 0-5.246 1.18-5.246 2.65Zm-6.481-42.38c0 2.3 1.843 4.17 4.117 4.17 2.258 0 4.105-1.87 4.105-4.17s-1.847-4.16-4.105-4.16c-2.274 0-4.117 1.87-4.117 4.16Zm-8.765 76.16c0 2.3 1.843 4.16 4.114 4.16 2.275 0 4.117-1.86 4.117-4.16 0-2.29-1.843-4.16-4.117-4.16-2.271 0-4.114 1.87-4.114 4.16Zm36.21 94.51c0 2.3 1.843 4.17 4.114 4.17 2.275 0 4.117-1.87 4.117-4.17 0-2.29-1.843-4.15-4.117-4.15-2.271 0-4.114 1.86-4.114 4.15Zm-10.484-28.31c0 2.3 1.847 4.16 4.117 4.16 2.275 0 4.105-1.86 4.105-4.16s-1.83-4.16-4.105-4.16c-2.27 0-4.117 1.86-4.117 4.16Zm-16.648-132.72c0 1.07.842 1.92 1.896 1.92a1.91 1.91 0 0 0 1.908-1.92c0-1.07-.86-1.92-1.908-1.92-1.054 0-1.896.85-1.896 1.92Z"/><path fill="#49393B" d="m631.048 2002.29-5.741-175-3.779 115.49-16.48-33.88 15.743 56.55-1.207 36.84h11.464Z"/><path fill="#3C8E51" d="M692.329 1894.46c2.27-1.28 3.557-2.65 3.557-4.08 0-4.17-10.427-7.85-26.409-10.13 15.983-2.29 26.409-5.98 26.409-10.14 0-3.37-6.817-6.41-17.86-8.67 3.544-3.61 5.578-7.68 5.578-12 0-7.59-6.16-14.42-16.035-19.28 3.391-3.89 5.364-8.36 5.364-13.14 0-10-8.518-18.71-21.111-23.3 6.016-6.08 9.819-14.8 9.819-24.53 0-11.64-3.824-27.08-10.864-36.83.053-.94.092-1.91.092-2.88 0-18.35-6.086-46.19-16.757-46.19-11.997 36.47-21.885 27.84-21.885 46.19 0 7.42 1.418 14.24 3.802 19.76-8.777 7.57-14.579 8.71-14.579 19.95 0 9.73 3.803 18.45 9.823 24.53-12.591 4.59-21.111 13.3-21.111 23.3 0 4.78 1.96 9.25 5.36 13.14-9.871 4.86-16.044 11.69-16.044 19.28 0 4.31 2.047 8.39 5.578 12-11.043 2.25-17.86 5.3-17.86 8.66 0 4.17 10.427 7.85 26.405 10.15-15.979 2.27-26.405 5.96-26.405 10.12 0 1.44 1.3 2.81 3.558 4.09-13.446 2.24-21.706 5.2-21.706 8.48 0 6.93 0 26.35 82.5 26.35s82.5-19.42 82.5-26.35c-.001-3.27-8.274-6.24-21.719-8.48Z"/><path fill="#3D6E46" d="M692.331 1894.46c2.27-1.28 3.557-2.65 3.557-4.09 0-4.16-10.427-7.85-26.409-10.12 15.983-2.3 26.409-5.98 26.409-10.15 0-3.36-6.817-6.41-17.859-8.66 3.543-3.61 5.578-7.68 5.578-12 0-7.59-6.161-14.42-16.035-19.28 3.39-3.89 5.364-8.36 5.364-13.14 0-10-8.518-18.71-21.111-23.3 6.015-6.08 9.818-14.8 9.818-24.53 0-11.64-3.824-27.08-10.864-36.83.053-.94.092-1.91.092-2.88 0-18.35-6.086-46.19-16.757-46.19-1.545 4.7-3.055 8.63-4.511 11.99 2.075 9.25 3.172 20.79 3.172 29.97 0 .97-.025 1.92-.052 2.88 5.106 9.75 7.888 25.19 7.888 36.84 0 9.72-2.769 18.44-7.14 24.51 9.149 4.6 15.335 13.3 15.335 23.31 0 4.77-1.43 9.25-3.89 13.13 7.166 4.87 11.651 11.7 11.651 19.29 0 4.31-1.483 8.38-4.06 12 8.028 2.25 12.977 5.3 12.977 8.66 0 4.17-7.565 7.85-19.177 10.13 11.612 2.29 19.177 5.97 19.177 10.13 0 1.44-.941 2.81-2.577 4.1 9.77 2.23 15.777 5.2 15.777 8.47 0 6.94 0 26.36-59.946 26.36-59.933 0-59.933-19.42-59.933-26.36 0-.63.284-1.25.709-1.85-6.611 1.8-10.466 3.87-10.466 6.09 0 6.93 0 26.35 82.5 26.35s82.5-19.42 82.5-26.35c.001-3.28-8.272-6.24-21.717-8.48Z"/><path fill="#67944E" d="M623.982 1855.92c0 1.47-9.386 2.66-20.958 2.66-11.586 0-20.976-1.19-20.976-2.66 0-1.47 9.39-2.65 20.976-2.65 11.571 0 20.958 1.18 20.958 2.65Zm-8.17-28.31c0 1.47-4.7 2.66-10.493 2.66s-10.479-1.19-10.479-2.66c0-1.46 4.686-2.65 10.479-2.65 5.793 0 10.493 1.19 10.493 2.65Zm0-56.78c0 1.47-2.35 2.66-5.246 2.66-2.896 0-5.246-1.19-5.246-2.66 0-1.46 2.35-2.65 5.246-2.65 2.896 0 5.246 1.19 5.246 2.65Zm6.468-42.37c0 2.3-1.843 4.16-4.1 4.16-2.276 0-4.119-1.86-4.119-4.16s1.843-4.17 4.119-4.17c2.257 0 4.1 1.86 4.1 4.17Zm8.768 76.16c0 2.3-1.843 4.17-4.117 4.17-2.271 0-4.105-1.87-4.105-4.17s1.834-4.16 4.105-4.16c2.275 0 4.117 1.86 4.117 4.16Zm-36.208 94.51c0 2.3-1.843 4.16-4.117 4.16-2.257 0-4.104-1.86-4.104-4.16 0-2.29 1.847-4.16 4.104-4.16 2.274 0 4.117 1.87 4.117 4.16Zm10.479-28.31c0 2.3-1.843 4.16-4.104 4.16-2.271 0-4.113-1.86-4.113-4.16s1.843-4.16 4.113-4.16c2.262 0 4.104 1.86 4.104 4.16Zm16.665-132.72c0 1.06-.86 1.93-1.908 1.93-1.054 0-1.896-.87-1.896-1.93s.842-1.93 1.896-1.93c1.048 0 1.908.87 1.908 1.93Z"/><path fill="#85A456" d="M570.048 1815.16c0-32.44-15.472-59.83-36.673-68.58-6.693-28.61-25.95-49.29-48.658-49.29-28.285 0-51.216 32.02-51.216 71.53 0 20.5 6.194 38.98 16.076 52.03-24.14 5.75-42.529 35.11-42.529 70.48 0 39.51 22.931 71.53 51.202 71.53 10.005.02 19.793-4.07 28.145-11.77 9.139 10.5 20.609 16.23 32.441 16.2 28.285 0 51.212-32.03 51.212-71.52.014-14.38-3.089-28.43-8.902-40.3 5.813-11.87 8.916-25.93 8.902-40.31Z"/><path fill="#678343" d="M570.046 1815.05c0-31.46-14.471-58.16-34.587-67.76 1.642 7.13 2.481 14.58 2.485 22.07.014 14.38-3.081 28.44-8.877 40.32 5.796 11.87 8.891 25.94 8.877 40.33 0 39.53-22.859 71.58-51.054 71.58-11.799.02-23.238-5.71-32.351-16.22-8.321 7.7-18.073 11.8-28.042 11.78-5.596.01-11.154-1.28-16.449-3.82 6.624 28.74 25.854 49.53 48.556 49.53 9.973.02 19.731-4.08 28.056-11.78 9.11 10.51 20.543 16.24 32.339 16.21 28.195 0 51.049-32.05 51.049-71.57.014-14.39-3.08-28.46-8.874-40.33 5.793-11.88 8.885-25.95 8.872-40.34Z"/><path fill="#49393B" d="m529.048 1793.29-42.281 107.25-3.51-107.25-4.52 137.93-19.689-40.46 18.803 67.53-1.445 44H490.1l-2.026-61.79 40.974-147.21Z"/><path fill="#A1B67D" d="M445.143 1773.49c0-33.44 19.307-60.55 43.123-60.55 10.283-.02 20.229 5.14 28.03 14.55-7.903-12.96-19.65-21.2-32.767-21.2-23.812 0-43.124 27.12-43.124 60.57 0 18.42 5.865 34.9 15.095 46.01-6.447-10.59-10.357-24.34-10.357-39.38Zm51.143 29.4c0-14.93 8.623-27.04 19.247-27.04 4.787 0 9.156 2.46 12.515 6.51-1.803-2.98-4.045-5.36-6.57-6.99-2.524-1.64-5.272-2.48-8.052-2.47-10.638 0-19.247 12.09-19.247 27.03 0 8.21 2.618 15.57 6.745 20.53-2.995-4.89-4.641-11.12-4.638-17.57Zm-68.344 66.78c2.415-21.37 16.728-35.93 31.939-32.52 6.845 1.52 12.692 6.43 16.854 13.3-4.11-9.42-11.02-16.35-19.395-18.22-15.211-3.41-29.512 11.15-31.939 32.53-1.34 11.76 1.214 23.13 6.307 31.53-3.354-7.68-4.864-17.02-3.766-26.62Z"/><path fill="#A1B67D" d="M497.048 1742.3c0 9.39-5.593 16.99-12.491 16.99-6.912 0-12.509-7.6-12.509-16.99 0-9.39 5.596-17.01 12.509-17.01 6.898 0 12.491 7.62 12.491 17.01Z"/><path fill="#A1B67D" d="M477.048 1760.29c0 2.12-.632 4.16-1.757 5.66-1.126 1.5-2.652 2.34-4.243 2.34-1.591 0-3.118-.84-4.243-2.34-1.125-1.5-1.757-3.54-1.757-5.66.002-2.12.635-4.15 1.76-5.65s2.65-2.35 4.24-2.35c3.307.01 6 3.59 6 8Z"/><path fill="#85A456" d="M786.467 1794.75c1.544-6.65 2.327-13.6 2.322-20.6 0-17.65-4.884-33.72-12.883-45.75 2.178-6.88 3.301-14.31 3.297-21.82 0-29.98-17.517-54.29-39.146-54.29-21.628 0-39.163 24.31-39.163 54.29 0 7.76 1.185 15.14 3.296 21.82-7.985 12.03-12.878 28.1-12.878 45.75 0 7.19.822 14.1 2.317 20.6-12.082 16.59-19.581 39.6-19.581 65.04 0 50.55 29.551 91.5 66.009 91.5 36.453 0 65.991-40.96 65.991-91.5.002-25.44-7.485-48.45-19.581-65.04Z"/><path fill="#678343" d="M786.578 1794.21c1.535-6.68 2.314-13.66 2.309-20.67 0-17.72-4.856-33.85-12.809-45.92 2.165-6.9 3.281-14.35 3.278-21.89 0-23.79-10.9-44.01-26.104-51.44 8.478 10 13.874 24.97 13.874 41.69 0 7.78-1.179 15.19-3.278 21.89 7.952 12.08 12.804 28.2 12.804 45.91 0 7.22-.804 14.16-2.304 20.67 12.027 16.65 19.47 39.75 19.47 65.27 0 50.71-29.383 91.82-65.618 91.82-9.295 0-18.135-2.7-26.152-7.59 10.795 10.91 24.052 17.34 38.387 17.34 36.244 0 65.613-41.1 65.613-91.81.001-25.54-7.443-48.63-19.47-65.27Z"/><path fill="#49393B" d="m747.048 2002.29-7.049-209-4.666 137.93-20.285-40.46 19.372 67.53-1.49 44h14.118Z"/><path fill="#A1B67D" d="M739.577 1660.29c-19.622 0-35.529 20.88-35.529 46.64 0 10.24 2.524 19.67 6.773 27.36h1.429c-2.742-6.61-4.314-14.19-4.314-22.24 0-25.75 15.912-46.64 35.543-46.64 8.818 0 6.904-5.12-3.902-5.12Z"/><path fill="#A1B67D" d="M697.793 1776.41c0-24.54 15.27-44.44 34.088-44.44 8.461 0 16.206 4.02 22.167 10.67-6.261-9.5-15.539-15.54-25.9-15.54-18.835 0-34.1 19.89-34.1 44.44 0 13.5 4.631 25.61 11.948 33.75-5.119-7.77-8.203-17.85-8.203-28.88Zm49.158-92.66c0 6.32-3.928 11.44-8.784 11.44-4.855 0-8.784-5.12-8.784-11.44 0-6.33 3.929-11.46 8.784-11.46 4.856 0 8.784 5.13 8.784 11.46Z"/><path fill="#A1B67D" d="M730.075 1776.02c0 8.63-5.386 15.63-12.016 15.63-6.631 0-12.011-7-12.011-15.63s5.381-15.62 12.011-15.62c6.631-.01 12.016 6.99 12.016 15.62Zm-5.128 30.29c0 4.97-3.077 8.98-6.888 8.98s-6.902-4.01-6.902-8.98c0-4.95 3.091-8.97 6.902-8.97s6.888 4.02 6.888 8.97Zm8.101-110.37c0 3.13-1.945 5.66-4.341 5.66-2.403 0-4.349-2.53-4.349-5.66 0-3.12 1.945-5.65 4.349-5.65 2.395 0 4.341 2.53 4.341 5.65Z"/><path fill="#49393B" d="m840.048 2002.29-9.262-306-6.109 211.44-26.629-53.83 25.428 89.85-1.953 58.54h18.525Z"/><path fill="#3C8E51" d="M892.333 1883.98c2.27-1.67 3.557-3.45 3.557-5.32 0-5.41-10.426-27.88-26.407-30.86 15.982-2.97 26.407-7.75 26.407-13.18 0-4.38-6.817-8.34-17.863-11.27 3.548-4.7 5.582-10 5.582-15.62 0-9.85-6.173-8.98-16.047-15.3 3.404-5.06 5.364-10.88 5.364-17.09 0-13.02-8.519-24.35-21.11-30.31 6.029-7.91 9.83-19.25 9.83-31.9 0-15.15-3.828-27.32-10.862-40.01.052-1.24.091-2.48.091-3.75 0-23.86-6.086-60.08-16.756-60.08-12 47.44-16.625 30.04-15.762 62.49 0 9.64-4.703 16.11-2.319 23.3-8.776 9.85-14.59 3.43-14.59 18.05 0 12.65 3.803 23.99 9.835 31.9-12.604 5.96-21.109 17.29-21.109 30.31 0 6.21 1.96 12.03 5.345 17.09-9.857 6.32-16.03 5.45-16.03 15.3 0 5.62 2.034 10.92 5.577 15.62-11.041 2.93-17.862 24.58-17.862 28.95 0 5.43 10.43-7.47 26.407-4.5-15.978 2.98-38.959 22.48-38.959 27.89 0 1.87 13.842 6.62 16.109 8.29-13.44 2.91-21.713 6.76-21.713 11.03 0 9.02 0 34.28 82.493 34.28 82.507 0 82.507-25.26 82.507-34.28.002-4.27-8.271-8.12-21.715-11.03Z"/><path fill="#3D6E46" d="M892.334 1883.99c2.27-1.67 3.557-3.46 3.557-5.32 0-5.42-10.426-27.89-26.407-30.87 15.982-2.96 26.407-7.75 26.407-13.18 0-4.38-6.816-8.33-17.863-11.27 3.548-4.7 5.582-9.99 5.582-15.61 0-9.86-6.173-8.98-16.047-15.31 3.404-5.06 5.364-10.88 5.364-17.09 0-13.02-8.519-24.35-21.11-30.31 6.029-7.91 9.83-19.25 9.83-31.9 0-15.15-3.828-27.32-10.862-40.01.052-1.24.091-2.48.091-3.75 0-23.86-6.085-60.08-16.756-60.08-1.544 6.12-3.053 11.22-4.51 15.59 2.061 12.04 3.172 27.06 3.172 38.98 0 1.27-.026 2.51-.066 3.76 5.114 12.68 7.888 24.85 7.888 40 0 12.65-2.761 23.98-7.126 31.9 9.134 5.96 15.333 17.3 15.333 30.3 0 6.22-1.43 12.04-3.889 17.1 7.165 6.33 11.65 15.21 11.65 25.08 0 5.62-1.483 1.14-4.06 5.83 8.028 2.94 12.976 6.91 12.976 11.29 0 5.42-7.578 10.2-19.189 13.18 11.611 2.96 19.189 25.43 19.189 30.85 0 1.87-.941 3.65-2.591 5.32 9.77 2.91 15.776 6.77 15.776 11.02 0 9.03 0 34.29-59.928 34.29-59.941 0-59.941-25.26-59.941-34.29 0-.82.293-1.62.722-2.4-6.614 2.34-10.478 5.03-10.478 7.92 0 9.02 0 34.28 82.493 34.28 82.507 0 82.507-25.26 82.507-34.28.003-4.26-8.27-8.12-21.714-11.02Z"/><path fill="#67944E" d="M823.138 1835.91c0 1.47-9.193 2.66-20.543 2.66-11.349 0-20.547-1.19-20.547-2.66 0-1.46 9.198-2.65 20.547-2.65 11.35 0 20.543 1.19 20.543 2.65Zm-8.01-28.3c0 1.46-4.608 2.65-10.27 2.65-5.674 0-10.278-1.19-10.278-2.65s4.604-2.65 10.278-2.65c5.662 0 10.27 1.19 10.27 2.65Zm0-56.78c0 1.46-2.307 2.65-5.143 2.65-2.837 0-5.127-1.19-5.127-2.65 0-1.47 2.289-2.65 5.127-2.65 2.838 0 5.143 1.18 5.143 2.65Zm6.343-42.38c0 2.3-1.805 4.17-4.03 4.17-2.228 0-4.033-1.87-4.033-4.17s1.806-4.16 4.033-4.16c2.225 0 4.03 1.87 4.03 4.16Zm8.577 76.16c0 2.3-1.806 4.16-4.021 4.16-2.224 0-4.033-1.86-4.033-4.16 0-2.29 1.81-4.16 4.033-4.16 2.215 0 4.021 1.87 4.021 4.16Zm-35.468 94.51c0 2.3-1.805 4.17-4.021 4.17-2.224 0-4.033-1.87-4.033-4.17 0-2.29 1.81-4.15 4.033-4.15 2.216 0 4.021 1.86 4.021 4.15Zm10.278-28.31c0 2.3-1.805 4.16-4.033 4.16-2.224 0-4.028-1.86-4.028-4.16s1.805-4.16 4.028-4.16c2.228 0 4.033 1.86 4.033 4.16Zm16.311-132.72c0 1.07-.842 1.92-1.857 1.92-1.033 0-1.869-.85-1.869-1.92 0-1.07.838-1.92 1.869-1.92 1.015 0 1.857.85 1.857 1.92Z"/><path fill="#49393B" d="m386.048 2002.29 5.726-175 3.786 115.49 16.488-33.88-15.739 56.55 1.208 36.84h-11.469Z"/><path fill="#3C8E51" d="M324.765 1894.46c-2.265-1.28-3.57-2.65-3.57-4.08 0-4.17 10.426-7.85 26.422-10.13-15.996-2.29-26.422-5.98-26.422-10.14 0-3.37 6.816-6.41 17.863-8.67-3.53-3.61-5.582-7.68-5.582-12 0-7.59 6.178-14.42 16.048-19.28-3.404-3.89-5.359-8.36-5.359-13.14 0-10 8.517-18.71 21.11-23.3-6.02-6.08-9.823-14.8-9.823-24.53 0-11.64 3.815-27.08 10.851-36.83-.049-.96-.073-1.92-.074-2.88 0-18.35 6.069-46.19 16.739-46.19 12.002 36.47 21.898 27.84 21.898 46.19 0 7.42-1.43 14.24-3.802 19.76 8.776 7.57 14.578 8.71 14.578 19.95 0 9.73-3.802 18.45-9.823 24.53 12.592 4.59 21.116 13.3 21.116 23.3 0 4.78-1.961 9.25-5.364 13.14 9.874 4.86 16.034 11.69 16.034 19.28 0 4.31-2.038 8.39-5.57 12 11.035 2.25 17.851 5.3 17.851 8.66 0 4.17-10.413 7.85-26.408 10.15 15.995 2.27 26.408 5.96 26.408 10.12 0 1.44-1.29 2.81-3.557 4.09 13.441 2.24 21.719 5.2 21.719 8.48 0 6.93 0 26.35-82.498 26.35-82.502 0-82.502-19.42-82.502-26.35-.001-3.27 8.264-6.24 21.717-8.48Z"/><path fill="#3D6E46" d="M324.763 1894.46c-2.266-1.28-3.57-2.65-3.57-4.09 0-4.16 10.426-7.85 26.421-10.12-15.995-2.3-26.421-5.98-26.421-10.15 0-3.36 6.816-6.41 17.863-8.66-3.53-3.61-5.582-7.68-5.582-12 0-7.59 6.178-14.42 16.048-19.28-3.404-3.89-5.36-8.36-5.36-13.14 0-10 8.518-18.71 21.111-23.3-6.02-6.08-9.823-14.8-9.823-24.53 0-11.64 3.815-27.08 10.851-36.83a56.49 56.49 0 0 1-.074-2.88c0-18.35 6.069-46.19 16.739-46.19 1.549 4.7 3.067 8.63 4.524 11.99-2.074 9.25-3.181 20.79-3.181 29.97 0 .97.026 1.92.062 2.88-5.102 9.75-7.884 25.19-7.884 36.84 0 9.72 2.756 18.44 7.14 24.51-9.153 4.6-15.339 13.3-15.339 23.31 0 4.77 1.418 9.25 3.894 13.13-7.179 4.87-11.65 11.7-11.65 19.29 0 4.31 1.483 8.38 4.046 12-8.019 2.25-12.981 5.3-12.981 8.66 0 4.17 7.578 7.85 19.194 10.13-11.616 2.29-19.194 5.97-19.194 10.13 0 1.44.941 2.81 2.591 4.1-9.77 2.23-15.773 5.2-15.773 8.47 0 6.94 0 26.36 59.945 26.36 59.931 0 59.931-19.42 59.931-26.36 0-.63-.284-1.25-.709-1.85 6.611 1.8 10.466 3.87 10.466 6.09 0 6.93 0 26.35-82.498 26.35-82.502 0-82.502-19.42-82.502-26.35-.004-3.28 8.261-6.24 21.715-8.48Z"/><path fill="#67944E" d="M393.954 1855.92c0 1.47 9.199 2.66 20.549 2.66 11.346 0 20.545-1.19 20.545-2.66 0-1.47-9.199-2.65-20.545-2.65-11.349 0-20.549 1.18-20.549 2.65Zm8.015-28.31c0 1.47 4.604 2.66 10.266 2.66 5.676 0 10.284-1.19 10.284-2.66 0-1.46-4.608-2.65-10.284-2.65-5.661 0-10.266 1.19-10.266 2.65Zm0-56.78c0 1.47 2.302 2.66 5.139 2.66 2.838 0 5.127-1.19 5.127-2.66 0-1.46-2.288-2.65-5.127-2.65-2.835 0-5.139 1.19-5.139 2.65Zm-6.348-42.37c0 2.3 1.805 4.16 4.033 4.16 2.225 0 4.021-1.86 4.021-4.16s-1.796-4.17-4.021-4.17c-2.228 0-4.033 1.86-4.033 4.17Zm-8.573 76.16c0 2.3 1.805 4.17 4.017 4.17 2.229 0 4.033-1.87 4.033-4.17s-1.806-4.16-4.033-4.16c-2.212 0-4.017 1.86-4.017 4.16Zm35.471 94.51c0 2.3 1.805 4.16 4.017 4.16 2.229 0 4.033-1.86 4.033-4.16 0-2.29-1.806-4.16-4.033-4.16-2.212 0-4.017 1.87-4.017 4.16Zm-10.283-28.31c0 2.3 1.81 4.16 4.034 4.16 2.229 0 4.033-1.86 4.033-4.16s-1.805-4.16-4.033-4.16c-2.225 0-4.034 1.86-4.034 4.16Zm-16.308-132.72c0 1.06.838 1.93 1.858 1.93 1.028 0 1.869-.87 1.869-1.93s-.842-1.93-1.869-1.93c-1.021 0-1.858.87-1.858 1.93Z"/><path fill="#3A5023" d="M2472.05 1893.86c0-4.25-8.28-8.09-21.73-10.98 2.27-1.66 3.56-3.44 3.56-5.3 0-5.39-10.42-27.78-26.42-30.74 16-2.95 26.42-7.72 26.42-13.12 0-4.37-6.82-8.31-17.87-11.24 3.55-4.67 5.58-9.95 5.58-15.54 0-9.82-6.16-8.95-16.03-15.25 3.4-5.04 5.36-10.83 5.36-17.02 0-12.97-8.52-24.25-21.12-30.19 6.02-7.87 9.82-19.17 9.82-31.77 0-15.09-3.83-27.21-10.85-39.84.03-1.24.07-2.48.07-3.74 0-23.77-6.09-59.84-16.76-59.84-1.55 6.09-3.06 11.17-4.51 15.53.02.1.04.22.05.33-8.68 27.53-12.05 18.45-11.31 46.37 0 9.61-4.71 16.06-2.32 23.22-8.78 9.8-14.58 3.41-14.58 17.97 0 12.6 3.8 23.9 9.82 31.77-12.59 5.94-21.12 17.22-21.12 30.19 0 6.19 1.96 11.98 5.37 17.02-3.29 2.1-6.13 3.39-8.5 4.55-.27-.38-.52-.8-.78-1.19a91.945 91.945 0 0 0 2.3-20.63c0-17.68-4.89-33.77-12.89-45.82 2.19-6.88 3.32-14.32 3.31-21.84 0-2.66-.19-5.24-.45-7.8l-.18-1.66c-.31-2.45-.74-4.87-1.28-7.24-.07-.34-.17-.67-.27-1.02-.53-2.12-1.15-4.2-1.87-6.22-.14-.39-.25-.79-.41-1.17-.81-2.16-1.73-4.24-2.75-6.22-.19-.38-.38-.75-.59-1.11-1.02-1.88-2.08-3.69-3.27-5.38-.08-.12-.16-.24-.23-.35-1.25-1.77-2.62-3.38-4.04-4.89-.27-.29-.54-.57-.81-.85a39.845 39.845 0 0 0-4.57-4.03c-.05-.04-.11-.07-.16-.11a35.061 35.061 0 0 0-4.89-2.97c-.17-.09-.34-.22-.5-.32.01.04.03.07.06.1-4.07-1.99-8.42-3.13-12.98-3.13-21.65 0-39.18 24.34-39.18 54.37 0 7.77 1.18 15.16 3.3 21.84-8.31 12.47-12.92 28.84-12.9 45.82 0 7.19.81 14.12 2.32 20.63-7.94 10.88-13.83 24.58-16.99 39.86-2.48-2.2-5.53-4.22-9.09-5.97 3.4-3.88 5.36-8.35 5.36-13.12 0-10-8.52-18.7-21.12-23.29 6.02-6.07 9.83-14.78 9.83-24.5 0-11.63-3.82-27.07-10.86-36.81.05-.94.08-1.9.08-2.87 0-18.34-6.08-46.16-16.75-46.16-.72 2.19-1.48 4.35-2.3 6.47-.02.08-.05.14-.07.21-.68 1.8-1.4 3.56-2.16 5.29-9.86 22.67-17.38 18.22-17.38 34.19 0 7.41 1.43 14.22 3.81 19.74-8.78 7.56-14.58 8.71-14.58 19.94 0 9.72 3.8 18.43 9.82 24.5-12.6 4.59-21.12 13.29-21.12 23.29 0 4.77 1.96 9.24 5.36 13.12-9.87 4.87-16.04 11.69-16.04 19.27 0 4.31 2.04 8.38 5.58 11.99-11.04 2.26-17.86 5.3-17.86 8.66 0 4.17 10.42 7.84 26.42 10.13-11.37 1.62-19.82 3.96-23.82 6.65-1.04-11.37-3.95-21.93-8.39-30.96 5.6-11.38 8.88-25.16 8.88-39.99 0-3.97-.24-7.85-.68-11.63-.16-1.27-.47-2.46-.66-3.71-.4-2.47-.76-4.95-1.34-7.32-.35-1.43-.84-2.75-1.25-4.13-.61-2.07-1.17-4.16-1.92-6.13-.53-1.4-1.2-2.68-1.79-4.04-.8-1.79-1.57-3.62-2.47-5.3-.69-1.32-1.51-2.48-2.28-3.72-.95-1.55-1.88-3.14-2.93-4.57-.84-1.17-1.8-2.17-2.7-3.25-1.11-1.32-2.19-2.66-3.38-3.82-.98-.99-2.04-1.81-3.07-2.69-1.24-1.05-2.45-2.13-3.75-3.04-1.1-.76-2.24-1.36-3.38-2.02-1.03-.59-2.01-1.32-3.07-1.82.01.06.02.14.04.21-.68-.32-1.32-.79-2-1.07-6.69-28.39-25.93-48.91-48.63-48.91-28.27 0-51.18 31.77-51.18 70.97 0 20.35 6.19 38.68 16.07 51.63-7.91 1.87-15.17 6.29-21.4 12.57-1.94-1.43-4.16-2.75-6.61-3.96 3.41-3.88 5.37-8.35 5.37-13.12 0-10-8.52-18.7-21.12-23.29 6.02-6.07 9.82-14.79 9.82-24.51 0-11.23-5.8-12.37-14.58-19.93 2.38-5.52 3.81-12.33 3.81-19.75 0-15.96-7.51-11.51-17.39-34.18-1.45-3.35-2.96-7.28-4.51-11.97-10.68 0-16.76 27.82-16.76 46.15 0 .97.04 1.93.08 2.88-7.03 9.74-10.86 25.17-10.86 36.81 0 9.72 3.8 18.43 9.82 24.5-12.59 4.59-21.11 13.29-21.11 23.29 0 4.77 1.96 9.24 5.36 13.12-3.56 1.75-6.6 3.77-9.09 5.97-3.16-15.29-9.05-28.98-16.98-39.86 1.54-6.67 2.32-13.63 2.32-20.63 0-17.68-4.9-33.77-12.91-45.82 2.19-6.88 3.32-14.32 3.31-21.84 0-30.03-17.54-54.37-39.19-54.37-4.55 0-8.91 1.14-12.97 3.12l.06-.09c-.18.09-.33.23-.51.32-1.68.83-3.32 1.83-4.9 2.98-.04.03-.09.06-.14.1-1.62 1.19-3.12 2.56-4.59 4.03-.26.28-.53.55-.79.83a46.923 46.923 0 0 0-4.05 4.92c-.07.1-.14.2-.21.31a57.278 57.278 0 0 0-3.31 5.43c-.19.36-.39.7-.58 1.07-1.01 2-1.93 4.08-2.75 6.25-.14.37-.27.76-.39 1.15-.73 2.02-1.36 4.11-1.89 6.24-.09.34-.19.67-.27 1.01-.54 2.37-.96 4.79-1.26 7.24-.08.55-.13 1.1-.2 1.66-.25 2.56-.43 5.14-.43 7.8 0 7.77 1.18 15.16 3.3 21.84-8.01 12.05-12.9 28.14-12.9 45.82 0 7.19.82 14.12 2.31 20.63-.27.39-.51.81-.78 1.19-2.38-1.16-5.21-2.45-8.5-4.55 3.4-5.04 5.36-10.83 5.36-17.02 0-12.97-8.51-24.25-21.12-30.19 6.03-7.87 9.84-19.17 9.84-31.77 0-14.56-5.82-8.17-14.6-17.97 2.39-7.16-2.32-13.61-2.32-23.22.75-27.92-2.62-18.85-11.29-46.36.01-.11.02-.24.04-.34-1.46-4.36-2.97-9.44-4.51-15.53-10.68 0-16.77 36.07-16.77 59.84 0 1.27.04 2.5.09 3.74-7.04 12.63-10.87 24.75-10.87 39.84 0 1.48.22 2.87.33 4.32-9.16-11.94-21.45-19.3-35-19.3-22.7 0-41.94 20.52-48.63 48.91-.69.28-1.32.75-2 1.07.01-.07.03-.15.04-.21-1.06.5-2.04 1.24-3.07 1.83-1.14.65-2.28 1.25-3.38 2.01-1.3.91-2.51 1.99-3.75 3.04-1.03.88-2.09 1.7-3.08 2.69-1.17 1.16-2.26 2.5-3.37 3.82-.9 1.08-1.85 2.08-2.7 3.25-1.05 1.43-1.98 3.02-2.95 4.57-.75 1.24-1.57 2.4-2.26 3.72-.92 1.68-1.67 3.51-2.47 5.3-.59 1.36-1.26 2.64-1.79 4.04-.75 1.97-1.32 4.06-1.92 6.13-.41 1.38-.9 2.71-1.25 4.13-.58 2.37-.94 4.85-1.34 7.32-.19 1.25-.5 2.44-.66 3.71a97.86 97.86 0 0 0-.69 11.63c-.02 14.27 3.08 28.21 8.89 39.99-5.81 11.78-8.91 25.72-8.89 39.99 0 39.19 22.91 70.97 51.17 70.97 11.5 0 22.09-5.32 30.64-14.2l-1.69 50.85h13.92l-1.47-44.2.54-1.89c5.78 3.14 12.01 5.04 18.6 5.04 2.55 0 5.02-.34 7.48-.84.51-.11 1.01-.2 1.53-.32 2.33-.57 4.63-1.36 6.88-2.37.38-.18.75-.39 1.13-.57 2.05-1.01 4.06-2.19 6-3.54.29-.21.59-.38.87-.59 2.47-1.84 4.84-3.95 7.06-6.32.45-.48.92-.92 1.37-1.42l-1.73 57.02h18.48l-1.95-58.62 4.49-15.9c12.69-.48 23.05-1.63 31.51-3.25 11.12 15.65 25.94 25.2 41.74 26.92l-1.69 50.85h13.92l-1.45-44.19 1.94-6.91c.21-.03.41-.09.62-.13 1.39-.23 2.78-.53 4.15-.88.7-.18 1.39-.37 2.08-.58a48.8 48.8 0 0 0 4.05-1.45c.59-.23 1.18-.43 1.77-.7 1.84-.81 3.65-1.73 5.44-2.76.35-.21.72-.47 1.08-.7 1.41-.86 2.8-1.78 4.16-2.78.64-.46 1.25-.96 1.87-1.45 1.08-.86 2.14-1.75 3.19-2.69.62-.56 1.25-1.12 1.86-1.72.3-.29.63-.55.92-.85-.06.04-.14.07-.2.11 3.66-3.66 7.05-7.82 10.1-12.42 12.2 3.41 31 5.82 60.04 5.82.85 0 1.63-.01 2.46-.02l-2.46 74.3h11.64l-1.22-36.93 10.67-37.84c2.64-.13 5.27-.3 7.91-.5.64 1.45 1.29 2.88 2 4.27.23.43.47.86.7 1.28 1.41 2.63 2.92 5.16 4.56 7.48.04.06.08.12.12.19 1.68 2.33 3.49 4.45 5.38 6.45.37.4.75.79 1.12 1.16 1.89 1.9 3.87 3.63 5.93 5.16.3.21.59.38.88.59 1.95 1.35 3.95 2.53 6.01 3.54.37.18.73.39 1.12.57 2.25 1.01 4.55 1.8 6.88 2.37.51.12 1.02.21 1.53.32 2.44.5 4.93.84 7.49.84 6.57 0 12.81-1.9 18.59-5.04l.53 1.89-1.46 44.2h13.92l-1.69-50.85c8.56 8.88 19.14 14.2 30.64 14.2 21.64 0 40.09-18.65 47.58-44.97 9.1 3.22 22.87 5.81 43.76 6.85l10.68 37.84-1.23 36.93h11.64l-2.46-74.3c.83 0 1.62.02 2.46.02 29.05 0 47.84-2.41 60.04-5.83 3.05 4.61 6.44 8.77 10.1 12.43-.06-.04-.12-.07-.2-.11.31.3.63.56.93.85.62.6 1.23 1.16 1.86 1.72 1.04.94 2.1 1.84 3.18 2.68.62.5 1.24.99 1.88 1.46 1.36.99 2.75 1.92 4.15 2.78.38.23.73.49 1.1.7 1.78 1.03 3.59 1.96 5.43 2.76.58.26 1.17.47 1.76.7 1.34.54 2.69 1.03 4.05 1.45.68.21 1.38.4 2.08.58 1.36.36 2.76.64 4.16.88.21.03.4.1.62.13l1.95 6.9-1.47 44.2h13.93l-1.68-50.85c15.79-1.72 30.6-11.28 41.72-26.92 8.47 1.62 18.83 2.77 31.51 3.24l4.49 15.91-1.95 58.62h18.48l-2.24-74.34c76.98-1.11 77.02-25.31 77.02-34.09Zm-343.7-.66c-.2.04-.36.06-.53.1-.02-.15-.03-.3-.03-.46.18.12.35.25.56.36Zm-228.67-15.16c1.84.34 3.79.66 5.84.95-2.06.29-4.12.63-6.17 1.01.11-.66.22-1.3.33-1.96Zm53.45 64.6-.49-14.73c2.73-.05 5.34-.13 7.87-.23l-7.38 14.96Zm226.36 0-7.37-14.96c2.53.1 5.13.18 7.87.23l-.5 14.73Zm47.61-63.65c1.95-.28 3.9-.59 5.85-.95.09.66.21 1.3.31 1.96-2.05-.38-4.1-.72-6.16-1.01Z"/><path fill="#1F482A" d="M2603.05 1893.86c0-4.25-8.28-8.09-21.73-10.98 2.27-1.66 3.56-3.44 3.56-5.3 0-5.39-10.42-27.78-26.42-30.74 16-2.95 26.42-7.72 26.42-13.12 0-4.37-6.82-8.31-17.87-11.24 3.55-4.67 5.58-9.95 5.58-15.54 0-9.82-6.16-8.95-16.03-15.25 3.4-5.04 5.36-10.83 5.36-17.02 0-12.97-8.52-24.25-21.12-30.19 6.02-7.87 9.82-19.17 9.82-31.77 0-15.09-3.83-27.21-10.85-39.84.04-1.24.07-2.48.07-3.74 0-23.77-6.08-59.84-16.76-59.84-1.54 6.09-3.05 11.17-4.51 15.53.02.1.04.22.05.33-8.68 27.53-12.05 18.45-11.3 46.37 0 9.61-4.71 16.06-2.33 23.22-8.78 9.8-14.58 3.41-14.58 17.97 0 12.6 3.81 23.9 9.82 31.77-12.59 5.94-21.12 17.22-21.12 30.19 0 6.19 1.97 11.98 5.37 17.02-3.29 2.1-6.13 3.39-8.5 4.55-.27-.38-.52-.8-.78-1.19a91.945 91.945 0 0 0 2.3-20.63c0-17.68-4.88-33.77-12.89-45.82 2.19-6.88 3.32-14.32 3.31-21.84 0-2.66-.19-5.24-.45-7.8-.06-.56-.11-1.11-.18-1.66-.31-2.45-.74-4.87-1.28-7.24-.07-.34-.17-.67-.27-1.02-.53-2.12-1.15-4.2-1.87-6.22-.14-.39-.25-.79-.41-1.17a60.29 60.29 0 0 0-2.74-6.22c-.19-.38-.39-.75-.6-1.11-1.01-1.88-2.08-3.69-3.27-5.38-.08-.12-.16-.24-.23-.35-1.25-1.77-2.62-3.38-4.04-4.89-.27-.29-.54-.57-.81-.85a39.845 39.845 0 0 0-4.57-4.03c-.05-.04-.11-.07-.16-.11a34.49 34.49 0 0 0-4.89-2.97c-.17-.09-.33-.22-.5-.32.01.04.03.07.06.1-4.07-1.99-8.42-3.13-12.98-3.13-21.65 0-39.18 24.34-39.18 54.37 0 7.77 1.18 15.16 3.3 21.84-8.31 12.47-12.92 28.84-12.9 45.82 0 7.19.81 14.12 2.32 20.63-7.94 10.88-13.83 24.58-16.99 39.86-2.48-2.2-5.53-4.22-9.09-5.97 3.4-3.88 5.36-8.35 5.36-13.12 0-10-8.52-18.7-21.12-23.29 6.03-6.07 9.83-14.78 9.83-24.5 0-11.63-3.82-27.07-10.86-36.81.05-.94.08-1.9.08-2.87 0-18.34-6.08-46.16-16.75-46.16-.72 2.19-1.48 4.35-2.29 6.47-.03.08-.06.14-.08.21-.68 1.8-1.4 3.56-2.16 5.29-9.86 22.67-17.38 18.22-17.38 34.19 0 7.41 1.43 14.22 3.81 19.74-8.78 7.56-14.58 8.71-14.58 19.94 0 9.72 3.8 18.43 9.82 24.5-12.6 4.59-21.12 13.29-21.12 23.29 0 4.77 1.96 9.24 5.37 13.12-9.88 4.87-16.05 11.69-16.05 19.27 0 4.31 2.04 8.38 5.58 11.99-11.04 2.26-17.86 5.3-17.86 8.66 0 4.17 10.42 7.84 26.42 10.13-11.37 1.62-19.82 3.96-23.82 6.65-1.04-11.37-3.94-21.93-8.39-30.96 5.6-11.38 8.88-25.16 8.88-39.99 0-3.97-.24-7.85-.68-11.63-.16-1.27-.46-2.46-.66-3.71-.4-2.47-.76-4.95-1.34-7.32-.35-1.43-.84-2.75-1.25-4.13-.6-2.07-1.17-4.16-1.92-6.13-.53-1.4-1.2-2.68-1.79-4.04-.8-1.79-1.57-3.62-2.47-5.3-.69-1.32-1.5-2.48-2.28-3.72-.95-1.55-1.88-3.14-2.92-4.57-.85-1.17-1.81-2.17-2.71-3.25-1.11-1.32-2.19-2.66-3.38-3.82-.98-.99-2.04-1.81-3.07-2.69-1.24-1.05-2.45-2.13-3.75-3.04-1.1-.76-2.24-1.36-3.38-2.02-1.03-.59-2.01-1.32-3.07-1.82.01.06.03.14.04.21-.68-.32-1.31-.79-2-1.07-6.69-28.39-25.93-48.91-48.63-48.91-28.27 0-51.18 31.77-51.18 70.97 0 20.35 6.19 38.68 16.07 51.63-7.91 1.87-15.17 6.29-21.39 12.57-1.95-1.43-4.17-2.75-6.62-3.96 3.41-3.88 5.37-8.35 5.37-13.12 0-10-8.52-18.7-21.12-23.29 6.02-6.07 9.82-14.79 9.82-24.51 0-11.23-5.8-12.37-14.58-19.93 2.39-5.52 3.81-12.33 3.81-19.75 0-15.96-7.51-11.51-17.39-34.18-1.45-3.35-2.96-7.28-4.51-11.97-10.68 0-16.76 27.82-16.76 46.15 0 .97.04 1.93.08 2.88-7.03 9.74-10.86 25.17-10.86 36.81 0 9.72 3.8 18.43 9.83 24.5-12.6 4.59-21.12 13.29-21.12 23.29 0 4.77 1.96 9.24 5.36 13.12-3.56 1.75-6.6 3.77-9.09 5.97-3.16-15.29-9.05-28.98-16.98-39.86 1.54-6.67 2.32-13.63 2.32-20.63 0-17.68-4.9-33.77-12.91-45.82 2.19-6.88 3.32-14.32 3.31-21.84 0-30.03-17.54-54.37-39.19-54.37-4.55 0-8.91 1.14-12.97 3.12l.06-.09c-.18.09-.33.23-.51.32-1.68.83-3.32 1.83-4.9 2.98-.04.03-.09.06-.14.1-1.62 1.19-3.12 2.56-4.59 4.03-.26.28-.53.55-.79.83a46.923 46.923 0 0 0-4.05 4.92c-.07.1-.14.2-.21.31a57.278 57.278 0 0 0-3.31 5.43c-.19.36-.38.7-.58 1.07-1.01 2-1.93 4.08-2.75 6.25-.14.37-.27.76-.39 1.15-.73 2.02-1.36 4.11-1.89 6.24-.09.34-.19.67-.27 1.01-.54 2.37-.96 4.79-1.26 7.24-.08.55-.13 1.1-.2 1.66-.25 2.56-.43 5.14-.43 7.8 0 7.77 1.18 15.16 3.3 21.84-8.01 12.05-12.9 28.14-12.9 45.82 0 7.19.82 14.12 2.31 20.63-.27.39-.51.81-.78 1.19-2.38-1.16-5.21-2.45-8.5-4.55 3.4-5.04 5.36-10.83 5.36-17.02 0-12.97-8.51-24.25-21.12-30.19 6.03-7.87 9.84-19.17 9.84-31.77 0-14.56-5.82-8.17-14.59-17.97 2.38-7.16-2.33-13.61-2.33-23.22.75-27.92-2.62-18.85-11.29-46.36.01-.11.02-.24.04-.34-1.46-4.36-2.97-9.44-4.51-15.53-10.68 0-16.77 36.07-16.77 59.84 0 1.27.04 2.5.09 3.74-7.04 12.63-10.87 24.75-10.87 39.84 0 1.48.22 2.87.33 4.32-9.16-11.94-21.45-19.3-35-19.3-22.7 0-41.94 20.52-48.63 48.91-.69.28-1.32.75-2 1.07.01-.07.03-.15.04-.21-1.06.5-2.04 1.24-3.07 1.83-1.14.65-2.28 1.25-3.38 2.01-1.3.91-2.51 1.99-3.75 3.04-1.03.88-2.09 1.7-3.08 2.69-1.17 1.16-2.26 2.5-3.37 3.82-.9 1.08-1.85 2.08-2.7 3.25-1.05 1.43-1.98 3.02-2.95 4.57-.75 1.24-1.57 2.4-2.26 3.72-.92 1.68-1.67 3.51-2.47 5.3-.59 1.36-1.26 2.64-1.79 4.04-.75 1.97-1.32 4.06-1.92 6.13-.41 1.38-.9 2.71-1.25 4.13-.58 2.37-.94 4.85-1.34 7.32-.19 1.25-.5 2.44-.66 3.71a97.86 97.86 0 0 0-.69 11.63c-.02 14.27 3.08 28.21 8.89 39.99-5.81 11.78-8.91 25.72-8.89 39.99 0 39.19 22.91 70.97 51.17 70.97 11.5 0 22.09-5.32 30.64-14.2l-1.69 50.85h13.92l-1.47-44.2.54-1.89c5.78 3.14 12.01 5.04 18.6 5.04 2.55 0 5.02-.34 7.48-.84.51-.11 1.01-.2 1.53-.32 2.33-.57 4.63-1.36 6.88-2.37.38-.18.75-.39 1.13-.57 2.05-1.01 4.06-2.19 6-3.54.29-.21.59-.38.87-.59 2.47-1.84 4.84-3.95 7.06-6.32.45-.48.92-.92 1.37-1.42l-1.73 57.02h18.48l-1.95-58.62 4.49-15.9c12.69-.48 23.05-1.63 31.51-3.25 11.12 15.65 25.94 25.2 41.74 26.92l-1.69 50.85h13.92l-1.45-44.19 1.94-6.91c.21-.03.42-.09.62-.13 1.39-.23 2.78-.53 4.15-.88.7-.18 1.39-.37 2.08-.58a48.8 48.8 0 0 0 4.05-1.45c.59-.23 1.19-.43 1.77-.7 1.84-.81 3.65-1.73 5.44-2.76.36-.21.72-.47 1.08-.7 1.41-.86 2.8-1.78 4.16-2.78.64-.46 1.25-.96 1.87-1.45 1.08-.86 2.14-1.75 3.19-2.69.62-.56 1.25-1.12 1.86-1.72.3-.29.63-.55.92-.85-.06.04-.14.07-.2.11 3.66-3.66 7.05-7.82 10.1-12.42 12.2 3.41 31 5.82 60.04 5.82.85 0 1.64-.01 2.46-.02l-2.46 74.3h11.64l-1.22-36.93 10.67-37.84c2.64-.13 5.27-.3 7.91-.5a92.9 92.9 0 0 0 2 4.27c.23.43.47.86.7 1.28 1.41 2.63 2.92 5.16 4.57 7.48.03.06.07.12.11.19 1.68 2.33 3.5 4.45 5.38 6.45.37.4.75.79 1.12 1.16 1.89 1.9 3.88 3.63 5.93 5.16.3.21.59.38.88.59 1.95 1.35 3.95 2.53 6.01 3.54.37.18.73.39 1.12.57 2.25 1.01 4.55 1.8 6.88 2.37.51.12 1.02.21 1.53.32 2.44.5 4.93.84 7.49.84 6.57 0 12.81-1.9 18.59-5.04l.53 1.89-1.46 44.2h13.92l-1.68-50.85c8.55 8.88 19.13 14.2 30.63 14.2 21.64 0 40.09-18.65 47.58-44.97 9.1 3.22 22.87 5.81 43.76 6.85l10.68 37.84-1.23 36.93h11.64l-2.46-74.3c.83 0 1.62.02 2.46.02 29.05 0 47.84-2.41 60.04-5.83 3.05 4.61 6.44 8.77 10.1 12.43-.06-.04-.12-.07-.2-.11.31.3.63.56.93.85.62.6 1.23 1.16 1.87 1.72 1.03.94 2.09 1.84 3.17 2.68.62.5 1.24.99 1.88 1.46 1.36.99 2.75 1.92 4.15 2.78.38.23.73.49 1.1.7 1.78 1.03 3.59 1.96 5.43 2.76.58.26 1.17.47 1.76.7 1.34.54 2.69 1.03 4.05 1.45.69.21 1.38.4 2.08.58 1.36.36 2.76.64 4.17.88.2.03.39.1.61.13l1.95 6.9-1.47 44.2h13.94l-1.69-50.85c15.79-1.72 30.6-11.28 41.72-26.92 8.47 1.62 18.83 2.77 31.51 3.24l4.49 15.91-1.95 58.62h18.48l-2.24-74.34c76.98-1.11 77.02-25.31 77.02-34.09Zm-343.7-.66c-.2.04-.35.06-.53.1-.02-.15-.03-.3-.03-.46.18.12.35.25.56.36Zm-228.67-15.16c1.84.34 3.79.66 5.84.95-2.06.29-4.12.63-6.17 1.01.11-.66.22-1.3.33-1.96Zm53.45 64.6-.49-14.73c2.73-.05 5.34-.13 7.87-.23l-7.38 14.96Zm226.36 0-7.37-14.96c2.52.1 5.13.18 7.87.23l-.5 14.73Zm47.61-63.65c1.95-.28 3.9-.59 5.85-.95.09.66.21 1.3.31 1.96-2.05-.38-4.1-.72-6.16-1.01Z"/><path fill="#85A456" d="M1628.05 1815.16c0-32.44 15.47-59.83 36.67-68.58 6.7-28.61 25.95-49.29 48.67-49.29 28.27 0 51.2 32.02 51.2 71.53 0 20.5-6.18 38.98-16.08 52.03 24.15 5.75 42.54 35.11 42.54 70.48 0 39.51-22.93 71.53-51.2 71.53-10.41 0-20.07-4.33-28.13-11.77-8.84 10.12-20.15 16.2-32.46 16.2-28.28 0-51.21-32.03-51.21-71.52-.02-14.38 3.09-28.43 8.9-40.3-5.81-11.87-8.92-25.92-8.9-40.31Z"/><path fill="#678343" d="M1628.05 1815.05c0-31.46 14.47-58.16 34.6-67.76-1.65 7.13-2.49 14.58-2.48 22.07 0 14.95 3.26 28.83 8.87 40.32-5.61 11.49-8.87 25.36-8.87 40.33 0 39.53 22.84 71.58 51.04 71.58 12.28 0 23.55-6.08 32.35-16.22 8.32 7.7 18.07 11.8 28.03 11.78 5.77 0 11.3-1.35 16.46-3.82-6.63 28.74-25.86 49.53-48.56 49.53-10.37 0-20-4.34-28.04-11.78-8.81 10.13-20.08 16.21-32.35 16.21-28.19 0-51.05-32.05-51.05-71.57-.02-14.4 3.08-28.46 8.87-40.33-5.79-11.88-8.89-25.94-8.87-40.34Z"/><path fill="#49393B" d="m1669.05 1793.29 43.48 107.25 3.63-107.25 4.64 137.93 20.25-40.46-19.34 67.53 1.48 44h-14.08l2.08-61.79-42.14-147.21Z"/><path fill="#A1B67D" d="M1753.77 1773.49c0-33.44-19.51-60.55-43.56-60.55-10.8 0-20.68 5.49-28.3 14.55 8-12.96 19.84-21.2 33.08-21.2 24.05 0 43.55 27.12 43.55 60.57 0 18.42-5.92 34.9-15.24 46.01 6.51-10.59 10.47-24.34 10.47-39.38Zm-51.66 29.4c0-14.93-8.7-27.04-19.43-27.04-4.63 0-9.11 2.31-12.63 6.51 3.57-5.8 8.86-9.46 14.76-9.46 10.74 0 19.45 12.09 19.45 27.03 0 8.21-2.64 15.57-6.81 20.53 3.02-4.89 4.67-11.13 4.66-17.57Zm69.03 66.78c-2.45-21.37-16.9-35.93-32.26-32.52-6.64 1.45-12.67 6.17-17.01 13.3 4.15-9.42 11.11-16.35 19.57-18.22 15.37-3.41 29.8 11.15 32.25 32.53 1.35 11.76-1.22 23.13-6.36 31.53 3.38-7.68 4.9-17.02 3.81-26.62Z"/><path fill="#A1B67D" d="M1701.05 1742.3c0 9.39 5.6 16.99 12.5 16.99s12.5-7.6 12.5-16.99c0-9.39-5.6-17.01-12.5-17.01s-12.5 7.62-12.5 17.01Z"/><path fill="#A1B67D" d="M1721.05 1760.29c0 1.05.15 2.09.45 3.06.3.97.74 1.86 1.3 2.6s1.22 1.33 1.95 1.74c.72.4 1.5.6 2.29.6 3.31 0 6.01-3.58 6.01-8 0-4.41-2.7-8-6.01-8-.79.01-1.57.21-2.29.61-.73.41-1.39 1-1.95 1.74-.55.74-1 1.62-1.3 2.59-.3.97-.45 2.01-.45 3.06Z"/><path fill="#85A456" d="M1823.78 1794.75c-1.55-6.66-2.33-13.61-2.32-20.6-.03-16.96 4.61-33.3 12.98-45.75-2.21-6.88-3.34-14.31-3.34-21.82 0-29.98 17.66-54.29 39.46-54.29 21.79 0 39.44 24.31 39.44 54.29 0 7.76-1.2 15.14-3.32 21.82 8.06 12.03 12.98 28.1 12.98 45.75 0 7.19-.82 14.1-2.34 20.6 12.19 16.59 19.73 39.6 19.73 65.04 0 50.55-29.77 91.5-66.49 91.5-36.74 0-66.51-40.96-66.51-91.5 0-25.44 7.55-48.45 19.73-65.04Z"/><path fill="#678343" d="M1823.7 1794.21c-1.53-6.68-2.31-13.66-2.31-20.67-.02-17.02 4.6-33.42 12.93-45.92-2.2-6.89-3.33-14.35-3.32-21.89 0-23.79 11.01-44.01 26.35-51.44-8.56 10-13.99 24.97-13.99 41.69 0 7.78 1.19 15.19 3.31 21.89-8.03 12.08-12.95 28.2-12.95 45.91 0 7.22.83 14.16 2.33 20.67-12.13 16.65-19.65 39.75-19.65 65.27 0 50.71 29.66 91.82 66.25 91.82 9.39 0 18.3-2.7 26.4-7.59-10.9 10.91-24.28 17.34-38.75 17.34-36.59 0-66.25-41.1-66.25-91.81 0-25.54 7.53-48.63 19.65-65.27Z"/><path fill="#49393B" d="m1863.05 2002.29 7.06-209 4.65 137.93 20.29-40.46-19.37 67.53 1.48 44h-14.11Z"/><path fill="#A1B67D" d="M1870.73 1660.29c20.05 0 36.32 20.88 36.32 46.64 0 10.24-2.59 19.67-6.94 27.36h-1.46c2.89-6.74 4.41-14.42 4.41-22.24 0-25.75-16.26-46.64-36.32-46.64-9.01 0-7.06-5.12 3.99-5.12Z"/><path fill="#A1B67D" d="M1912.37 1776.41c0-24.54-15.01-44.44-33.52-44.44-8.33 0-15.94 4.02-21.8 10.67 6.14-9.5 15.27-15.54 25.47-15.54 18.51 0 33.53 19.89 33.53 44.44 0 13.5-4.56 25.61-11.74 33.75 5.02-7.77 8.06-17.85 8.06-28.88Zm-48.35-92.66c0 6.32 3.87 11.44 8.64 11.44 4.77 0 8.63-5.12 8.63-11.44 0-6.33-3.86-11.46-8.63-11.46-4.77 0-8.64 5.13-8.64 11.46Z"/><path fill="#A1B67D" d="M1881.03 1776.02c0 8.63 5.38 15.63 12.01 15.63s12.01-7 12.01-15.63-5.38-15.62-12.01-15.62-12.01 6.99-12.01 15.62Zm5.11 30.29c0 4.97 3.09 8.98 6.9 8.98 3.81 0 6.89-4.01 6.89-8.98 0-4.95-3.08-8.97-6.89-8.97-3.81 0-6.9 4.02-6.9 8.97Zm-8.09-110.37c0 3.13 1.94 5.66 4.34 5.66 2.41 0 4.36-2.53 4.36-5.66 0-3.12-1.95-5.65-4.36-5.65-2.4 0-4.34 2.53-4.34 5.65Z"/><path fill="#49393B" d="m1771.05 2002.29 9.04-306 5.97 211.44 25.99-53.83-24.83 89.85 1.91 58.54h-18.08Z"/><path fill="#3C8E51" d="M1717.76 1883.98c-2.26-1.67-3.55-3.45-3.55-5.32 0-5.41 10.41-27.88 26.4-30.86-15.99-2.97-26.4-7.75-26.4-13.18 0-4.38 6.81-8.34 17.86-11.27-3.54-4.7-5.58-10-5.58-15.62 0-9.85 6.16-8.98 16.03-15.3-3.4-5.06-5.36-10.88-5.36-17.09 0-13.02 8.52-24.35 21.11-30.31-6.02-7.91-9.82-19.25-9.82-31.9 0-15.15 3.83-27.32 10.85-40.01-.04-1.24-.08-2.48-.08-3.75 0-23.86 6.09-60.08 16.76-60.08 12 47.44 16.62 30.04 15.76 62.49 0 9.64 4.7 16.11 2.32 23.3 8.77 9.85 14.57 3.43 14.57 18.05 0 12.65-3.8 23.99-9.82 31.9 12.59 5.96 21.11 17.29 21.11 30.31 0 6.21-1.96 12.03-5.36 17.09 9.87 6.32 16.05 5.45 16.05 15.3 0 5.62-2.05 10.92-5.58 15.62 11.04 2.93 17.86 24.58 17.86 28.95 0 5.43-10.43-7.47-26.42-4.5 15.99 2.98 38.97 22.48 38.97 27.89 0 1.87-13.84 6.62-16.11 8.29 13.44 2.91 21.72 6.76 21.72 11.03 0 9.02 0 34.28-82.51 34.28-82.49 0-82.49-25.26-82.49-34.28 0-4.27 8.27-8.12 21.71-11.03Z"/><path fill="#3D6E46" d="M1717.76 1883.99c-2.26-1.67-3.55-3.46-3.55-5.32 0-5.42 10.41-27.89 26.4-30.87-15.99-2.96-26.4-7.75-26.4-13.18 0-4.38 6.81-8.33 17.86-11.27-3.55-4.7-5.58-9.99-5.58-15.61 0-9.86 6.16-8.98 16.03-15.31-3.4-5.06-5.36-10.88-5.36-17.09 0-13.02 8.52-24.35 21.11-30.31-6.02-7.91-9.82-19.25-9.82-31.9 0-15.15 3.82-27.32 10.85-40.01-.04-1.24-.08-2.48-.08-3.75 0-23.86 6.08-60.08 16.75-60.08 1.55 6.12 3.06 11.22 4.51 15.59-2.07 12.04-3.16 27.06-3.16 38.98 0 1.27.02 2.51.05 3.76-5.11 12.68-7.89 24.85-7.89 40 0 12.65 2.77 23.98 7.14 31.9-9.15 5.96-15.34 17.3-15.34 30.3 0 6.22 1.43 12.04 3.9 17.1-7.17 6.33-11.65 15.21-11.65 25.08 0 5.62 1.48 1.14 4.06 5.83-8.03 2.94-12.98 6.91-12.98 11.29 0 5.42 7.56 10.2 19.18 13.18-11.62 2.96-19.18 25.43-19.18 30.85 0 1.87.94 3.65 2.57 5.32-9.75 2.91-15.77 6.77-15.77 11.02 0 9.03 0 34.29 59.94 34.29 59.93 0 59.93-25.26 59.93-34.29 0-.82-.28-1.62-.71-2.4 6.61 2.34 10.48 5.03 10.48 7.92 0 9.02 0 34.28-82.51 34.28-82.49 0-82.49-25.26-82.49-34.28 0-4.26 8.27-8.12 21.71-11.02Z"/><path fill="#67944E" d="M1787.11 1835.91c0 1.47 9.39 2.66 20.98 2.66 11.57 0 20.96-1.19 20.96-2.66 0-1.46-9.39-2.65-20.96-2.65-11.59 0-20.98 1.19-20.98 2.65Zm8.18-28.3c0 1.46 4.69 2.65 10.48 2.65 5.8 0 10.48-1.19 10.48-2.65s-4.68-2.65-10.48-2.65c-5.79 0-10.48 1.19-10.48 2.65Zm0-56.78c0 1.46 2.34 2.65 5.25 2.65 2.88 0 5.23-1.19 5.23-2.65 0-1.47-2.35-2.65-5.23-2.65-2.91 0-5.25 1.18-5.25 2.65Zm-6.48-42.38c0 2.3 1.85 4.17 4.12 4.17 2.26 0 4.11-1.87 4.11-4.17s-1.85-4.16-4.11-4.16c-2.27 0-4.12 1.87-4.12 4.16Zm-8.76 76.16c0 2.3 1.84 4.16 4.11 4.16 2.28 0 4.12-1.86 4.12-4.16 0-2.29-1.84-4.16-4.12-4.16-2.27 0-4.11 1.87-4.11 4.16Zm36.2 94.51c0 2.3 1.85 4.17 4.12 4.17 2.28 0 4.12-1.87 4.12-4.17 0-2.29-1.85-4.15-4.12-4.15s-4.12 1.86-4.12 4.15Zm-10.48-28.31c0 2.3 1.85 4.16 4.12 4.16 2.28 0 4.11-1.86 4.11-4.16s-1.83-4.16-4.11-4.16c-2.27 0-4.12 1.86-4.12 4.16Zm-16.64-132.72c0 1.07.84 1.92 1.89 1.92 1.05 0 1.91-.85 1.91-1.92 0-1.07-.86-1.92-1.91-1.92-1.05 0-1.89.85-1.89 1.92Z"/><path fill="#49393B" d="m2224.05 2002.29-5.74-175-3.78 115.49-16.48-33.88 15.74 56.55-1.21 36.84h11.47Z"/><path fill="#3C8E51" d="M2285.33 1894.46c2.27-1.28 3.56-2.65 3.56-4.08 0-4.17-10.43-7.85-26.41-10.13 15.98-2.29 26.41-5.98 26.41-10.14 0-3.37-6.82-6.41-17.87-8.67 3.55-3.61 5.58-7.68 5.58-12 0-7.59-6.16-14.42-16.03-19.28 3.39-3.89 5.36-8.36 5.36-13.14 0-10-8.51-18.71-21.11-23.3 6.02-6.08 9.82-14.8 9.82-24.53 0-11.64-3.83-27.08-10.86-36.83.05-.94.09-1.91.09-2.88 0-18.35-6.09-46.19-16.76-46.19-12 36.47-21.88 27.84-21.88 46.19 0 7.42 1.41 14.24 3.8 19.76-8.78 7.57-14.58 8.71-14.58 19.95 0 9.73 3.8 18.45 9.82 24.53-12.59 4.59-21.11 13.3-21.11 23.3 0 4.78 1.96 9.25 5.36 13.14-9.87 4.86-16.04 11.69-16.04 19.28 0 4.31 2.05 8.39 5.58 12-11.05 2.25-17.87 5.3-17.87 8.66 0 4.17 10.43 7.85 26.41 10.15-15.98 2.27-26.41 5.96-26.41 10.12 0 1.44 1.31 2.81 3.56 4.09-13.44 2.24-21.7 5.2-21.7 8.48 0 6.93 0 26.35 82.5 26.35s82.5-19.42 82.5-26.35c0-3.27-8.28-6.24-21.72-8.48Z"/><path fill="#3D6E46" d="M2285.33 1894.46c2.27-1.28 3.56-2.65 3.56-4.09 0-4.16-10.43-7.85-26.41-10.12 15.98-2.3 26.41-5.98 26.41-10.15 0-3.36-6.82-6.41-17.87-8.66 3.55-3.61 5.59-7.68 5.59-12 0-7.59-6.16-14.42-16.04-19.28 3.39-3.89 5.37-8.36 5.37-13.14 0-10-8.52-18.71-21.12-23.3 6.02-6.08 9.82-14.8 9.82-24.53 0-11.64-3.83-27.08-10.86-36.83.05-.94.09-1.91.09-2.88 0-18.35-6.09-46.19-16.76-46.19-1.54 4.7-3.05 8.63-4.51 11.99 2.08 9.25 3.18 20.79 3.18 29.97 0 .97-.03 1.92-.06 2.88 5.1 9.75 7.89 25.19 7.89 36.84 0 9.72-2.77 18.44-7.14 24.51 9.15 4.6 15.34 13.3 15.34 23.31 0 4.77-1.43 9.25-3.89 13.13 7.16 4.87 11.65 11.7 11.65 19.29 0 4.31-1.49 8.38-4.06 12 8.03 2.25 12.97 5.3 12.97 8.66 0 4.17-7.56 7.85-19.17 10.13 11.61 2.29 19.17 5.97 19.17 10.13 0 1.44-.94 2.81-2.57 4.1 9.77 2.23 15.77 5.2 15.77 8.47 0 6.94 0 26.36-59.94 26.36s-59.94-19.42-59.94-26.36c0-.63.29-1.25.71-1.85-6.61 1.8-10.46 3.87-10.46 6.09 0 6.93 0 26.35 82.5 26.35s82.5-19.42 82.5-26.35c0-3.28-8.27-6.24-21.72-8.48Z"/><path fill="#67944E" d="M2216.98 1855.92c0 1.47-9.39 2.66-20.96 2.66-11.58 0-20.97-1.19-20.97-2.66 0-1.47 9.39-2.65 20.97-2.65 11.57 0 20.96 1.18 20.96 2.65Zm-8.17-28.31c0 1.47-4.7 2.66-10.49 2.66s-10.48-1.19-10.48-2.66c0-1.46 4.69-2.65 10.48-2.65s10.49 1.19 10.49 2.65Zm0-56.78c0 1.47-2.35 2.66-5.24 2.66-2.9 0-5.25-1.19-5.25-2.66 0-1.46 2.35-2.65 5.25-2.65 2.89 0 5.24 1.19 5.24 2.65Zm6.47-42.37c0 2.3-1.84 4.16-4.1 4.16-2.28 0-4.12-1.86-4.12-4.16s1.84-4.17 4.12-4.17c2.26 0 4.1 1.86 4.1 4.17Zm8.77 76.16c0 2.3-1.85 4.17-4.12 4.17s-4.1-1.87-4.1-4.17 1.83-4.16 4.1-4.16c2.28 0 4.12 1.86 4.12 4.16Zm-36.21 94.51c0 2.3-1.84 4.16-4.12 4.16-2.25 0-4.1-1.86-4.1-4.16 0-2.29 1.85-4.16 4.1-4.16 2.28 0 4.12 1.87 4.12 4.16Zm10.48-28.31c0 2.3-1.84 4.16-4.1 4.16-2.28 0-4.12-1.86-4.12-4.16s1.85-4.16 4.12-4.16c2.26 0 4.1 1.86 4.1 4.16Zm16.66-132.72c0 1.06-.86 1.93-1.91 1.93-1.05 0-1.89-.87-1.89-1.93s.84-1.93 1.89-1.93c1.05 0 1.91.87 1.91 1.93Z"/><path fill="#85A456" d="M2163.05 1815.16c0-32.44-15.47-59.83-36.67-68.58-6.7-28.61-25.95-49.29-48.66-49.29-28.29 0-51.22 32.02-51.22 71.53 0 20.5 6.19 38.98 16.08 52.03-24.14 5.75-42.53 35.11-42.53 70.48 0 39.51 22.93 71.53 51.2 71.53 10.01.02 19.79-4.07 28.14-11.77 9.14 10.5 20.61 16.23 32.44 16.2 28.29 0 51.22-32.03 51.22-71.52.01-14.38-3.09-28.43-8.9-40.3 5.81-11.87 8.91-25.93 8.9-40.31Z"/><path fill="#678343" d="M2163.05 1815.05c0-31.46-14.47-58.16-34.59-67.76 1.64 7.13 2.48 14.58 2.49 22.07.01 14.38-3.09 28.44-8.88 40.32 5.79 11.88 8.89 25.94 8.88 40.33 0 39.53-22.86 71.58-51.06 71.58-11.8.02-23.23-5.71-32.35-16.22-8.32 7.7-18.07 11.8-28.04 11.78-5.6.01-11.16-1.28-16.45-3.82 6.63 28.74 25.86 49.53 48.56 49.53 9.97.02 19.73-4.08 28.05-11.78 9.11 10.5 20.54 16.24 32.34 16.21 28.19 0 51.05-32.05 51.05-71.57.01-14.39-3.08-28.46-8.88-40.33 5.8-11.88 8.89-25.95 8.88-40.34Z"/><path fill="#49393B" d="m2123.05 1793.29-42.89 107.25-3.56-107.25-4.58 137.93-19.97-40.46 19.07 67.53-1.47 44h13.9l-2.06-61.79 41.56-147.21Z"/><path fill="#A1B67D" d="M2038.14 1773.49c0-33.44 19.31-60.55 43.13-60.55 10.7 0 20.49 5.49 28.03 14.55-7.9-12.96-19.65-21.2-32.77-21.2-23.82 0-43.13 27.12-43.13 60.57 0 18.42 5.87 34.9 15.1 46.01-6.45-10.59-10.36-24.34-10.36-39.38Zm51.15 29.4c0-14.93 8.62-27.04 19.25-27.04 4.78 0 9.15 2.46 12.51 6.51-1.8-2.98-4.05-5.36-6.57-7-2.53-1.63-5.27-2.47-8.05-2.46-10.64 0-19.25 12.09-19.25 27.03 0 8.21 2.62 15.57 6.75 20.53-3-4.89-4.64-11.12-4.64-17.57Zm-68.35 66.78c2.41-21.37 16.73-35.93 31.94-32.52 6.85 1.52 12.7 6.43 16.86 13.3-4.11-9.42-11.02-16.35-19.4-18.22-15.21-3.41-29.51 11.15-31.94 32.53-1.34 11.76 1.21 23.13 6.31 31.53-3.36-7.68-4.87-17.02-3.77-26.62Z"/><path fill="#A1B67D" d="M2090.05 1742.3c0 9.39-5.59 16.99-12.49 16.99-6.92 0-12.51-7.6-12.51-16.99 0-9.39 5.59-17.01 12.51-17.01 6.9 0 12.49 7.62 12.49 17.01Z"/><path fill="#A1B67D" d="M2071.05 1760.29c0 2.12-.69 4.16-1.91 5.66-1.21 1.5-2.87 2.34-4.59 2.34-1.73 0-3.38-.84-4.6-2.34-1.22-1.5-1.9-3.54-1.9-5.66s.69-4.15 1.9-5.65c1.22-1.5 2.88-2.35 4.6-2.35 3.58.01 6.5 3.59 6.5 8Z"/><path fill="#85A456" d="M2380.32 1794.75c1.55-6.65 2.34-13.6 2.34-20.6 0-17.65-4.92-33.72-12.98-45.75 2.19-6.88 3.32-14.31 3.32-21.82 0-29.98-17.65-54.29-39.44-54.29-21.8 0-39.46 24.31-39.46 54.29 0 7.76 1.19 15.14 3.32 21.82-8.05 12.03-12.98 28.1-12.98 45.75 0 7.19.83 14.1 2.34 20.6-12.18 16.59-19.73 39.6-19.73 65.04 0 50.55 29.77 91.5 66.51 91.5 36.73 0 66.49-40.96 66.49-91.5 0-25.44-7.54-48.45-19.73-65.04Z"/><path fill="#678343" d="M2380.39 1794.21a91.166 91.166 0 0 0 2.33-20.67c0-17.72-4.9-33.85-12.93-45.92 2.19-6.9 3.31-14.35 3.31-21.89 0-23.79-11.01-44.01-26.36-51.44 8.56 10 14.01 24.97 14.01 41.69 0 7.78-1.19 15.19-3.31 21.89 8.03 12.08 12.93 28.2 12.93 45.91 0 7.22-.81 14.16-2.33 20.67 12.15 16.65 19.66 39.75 19.66 65.27 0 50.71-29.66 91.82-66.25 91.82-9.38 0-18.31-2.7-26.4-7.59 10.9 10.91 24.28 17.34 38.75 17.34 36.6 0 66.25-41.1 66.25-91.81 0-25.54-7.52-48.63-19.66-65.27Z"/><path fill="#49393B" d="m2340.05 2002.29-7.05-209-4.67 137.93-20.28-40.46 19.37 67.53-1.49 44h14.12Z"/><path fill="#A1B67D" d="M2333.37 1660.29c-20.06 0-36.32 20.88-36.32 46.64 0 10.24 2.58 19.67 6.92 27.36h1.46c-2.8-6.61-4.41-14.19-4.41-22.24 0-25.75 16.27-46.64 36.34-46.64 9.01 0 7.05-5.12-3.99-5.12Z"/><path fill="#A1B67D" d="M2291.73 1776.41c0-24.54 15.01-44.44 33.52-44.44 8.32 0 15.94 4.02 21.8 10.67-6.16-9.5-15.29-15.54-25.47-15.54-18.52 0-33.53 19.89-33.53 44.44 0 13.5 4.55 25.61 11.75 33.75-5.04-7.77-8.07-17.85-8.07-28.88Zm48.34-92.66c0 6.32-3.86 11.44-8.64 11.44-4.77 0-8.64-5.12-8.64-11.44 0-6.33 3.87-11.46 8.64-11.46 4.78 0 8.64 5.13 8.64 11.46Z"/><path fill="#A1B67D" d="M2323.08 1776.02c0 8.63-5.39 15.63-12.02 15.63s-12.01-7-12.01-15.63 5.38-15.62 12.01-15.62 12.02 6.99 12.02 15.62Zm-5.13 30.29c0 4.97-3.08 8.98-6.89 8.98-3.81 0-6.9-4.01-6.9-8.98 0-4.95 3.09-8.97 6.9-8.97 3.81 0 6.89 4.02 6.89 8.97Zm8.1-110.37c0 3.13-1.95 5.66-4.34 5.66-2.41 0-4.35-2.53-4.35-5.66 0-3.12 1.94-5.65 4.35-5.65 2.39 0 4.34 2.53 4.34 5.65Z"/><path fill="#49393B" d="m2433.05 2002.29-9.26-306-6.11 211.44-26.63-53.83 25.42 89.85-1.95 58.54h18.53Z"/><path fill="#3C8E51" d="M2486.33 1883.98c2.27-1.67 3.56-3.45 3.56-5.32 0-5.41-10.43-27.88-26.41-30.86 15.98-2.97 26.41-7.75 26.41-13.18 0-4.38-6.82-8.34-17.86-11.27 3.54-4.7 5.58-10 5.58-15.62 0-9.85-6.17-8.98-16.05-15.3 3.41-5.06 5.37-10.88 5.37-17.09 0-13.02-8.52-24.35-21.11-30.31 6.03-7.91 9.83-19.25 9.83-31.9 0-15.15-3.83-27.32-10.87-40.01.06-1.24.1-2.48.1-3.75 0-23.86-6.09-60.08-16.76-60.08-12 47.44-16.63 30.04-15.76 62.49 0 9.64-4.71 16.11-2.32 23.3-8.78 9.85-14.59 3.43-14.59 18.05 0 12.65 3.8 23.99 9.83 31.9-12.6 5.96-21.11 17.29-21.11 30.31 0 6.21 1.96 12.03 5.35 17.09-9.86 6.32-16.03 5.45-16.03 15.3 0 5.62 2.03 10.92 5.58 15.62-11.05 2.93-17.87 24.58-17.87 28.95 0 5.43 10.43-7.47 26.41-4.5-15.98 2.98-38.96 22.48-38.96 27.89 0 1.87 13.84 6.62 16.11 8.29-13.44 2.91-21.71 6.76-21.71 11.03 0 9.02 0 34.28 82.49 34.28 82.51 0 82.51-25.26 82.51-34.28 0-4.27-8.27-8.12-21.72-11.03Z"/><path fill="#3D6E46" d="M2486.33 1883.99c2.27-1.67 3.56-3.46 3.56-5.32 0-5.42-10.43-27.89-26.41-30.87 15.98-2.96 26.41-7.75 26.41-13.18 0-4.38-6.82-8.33-17.86-11.27 3.54-4.7 5.58-9.99 5.58-15.61 0-9.86-6.17-8.98-16.05-15.31 3.41-5.06 5.37-10.88 5.37-17.09 0-13.02-8.52-24.35-21.11-30.31 6.03-7.91 9.83-19.25 9.83-31.9 0-15.15-3.83-27.32-10.87-40.01.06-1.24.1-2.48.1-3.75 0-23.86-6.09-60.08-16.76-60.08-1.55 6.12-3.05 11.22-4.51 15.59 2.06 12.04 3.17 27.06 3.17 38.98 0 1.27-.02 2.51-.07 3.76 5.12 12.68 7.89 24.85 7.89 40 0 12.65-2.76 23.98-7.12 31.9 9.13 5.96 15.33 17.3 15.33 30.3 0 6.22-1.43 12.04-3.89 17.1 7.16 6.33 11.65 15.21 11.65 25.08 0 5.62-1.48 1.14-4.06 5.83 8.03 2.94 12.98 6.91 12.98 11.29 0 5.42-7.58 10.2-19.19 13.18 11.61 2.96 19.19 25.43 19.19 30.85 0 1.87-.94 3.65-2.59 5.32 9.77 2.91 15.77 6.77 15.77 11.02 0 9.03 0 34.29-59.93 34.29-59.94 0-59.94-25.26-59.94-34.29 0-.82.3-1.62.73-2.4-6.62 2.34-10.48 5.03-10.48 7.92 0 9.02 0 34.28 82.49 34.28 82.51 0 82.51-25.26 82.51-34.28 0-4.26-8.27-8.12-21.72-11.02Z"/><path fill="#67944E" d="M2416.14 1835.91c0 1.47-9.2 2.66-20.54 2.66-11.35 0-20.55-1.19-20.55-2.66 0-1.46 9.2-2.65 20.55-2.65 11.34 0 20.54 1.19 20.54 2.65Zm-8.02-28.3c0 1.46-4.6 2.65-10.26 2.65-5.68 0-10.28-1.19-10.28-2.65s4.6-2.65 10.28-2.65c5.66 0 10.26 1.19 10.26 2.65Zm0-56.78c0 1.46-2.3 2.65-5.14 2.65-2.83 0-5.12-1.19-5.12-2.65 0-1.47 2.29-2.65 5.12-2.65 2.84 0 5.14 1.18 5.14 2.65Zm6.35-42.38c0 2.3-1.8 4.17-4.03 4.17-2.23 0-4.03-1.87-4.03-4.17s1.8-4.16 4.03-4.16c2.23 0 4.03 1.87 4.03 4.16Zm8.58 76.16c0 2.3-1.81 4.16-4.02 4.16-2.23 0-4.04-1.86-4.04-4.16 0-2.29 1.81-4.16 4.04-4.16 2.21 0 4.02 1.87 4.02 4.16Zm-35.47 94.51c0 2.3-1.81 4.17-4.02 4.17-2.23 0-4.03-1.87-4.03-4.17 0-2.29 1.81-4.15 4.03-4.15 2.21 0 4.02 1.86 4.02 4.15Zm10.28-28.31c0 2.3-1.81 4.16-4.03 4.16-2.23 0-4.03-1.86-4.03-4.16s1.8-4.16 4.03-4.16c2.22 0 4.03 1.86 4.03 4.16Zm16.31-132.72c0 1.07-.84 1.92-1.86 1.92-1.03 0-1.87-.85-1.87-1.92 0-1.07.84-1.92 1.87-1.92 1.02 0 1.86.85 1.86 1.92Z"/><path fill="#49393B" d="m1979.05 2002.29 5.73-175 3.78 115.49 16.49-33.88-15.74 56.55 1.21 36.84h-11.47Z"/><path fill="#3C8E51" d="M1917.77 1894.46c-2.27-1.28-3.58-2.65-3.58-4.08 0-4.17 10.43-7.85 26.43-10.13-16-2.29-26.43-5.98-26.43-10.14 0-3.37 6.82-6.41 17.87-8.67-3.53-3.61-5.58-7.68-5.58-12 0-7.59 6.17-14.42 16.04-19.28-3.4-3.89-5.36-8.36-5.36-13.14 0-10 8.52-18.71 21.12-23.3-6.03-6.08-9.83-14.8-9.83-24.53 0-11.64 3.82-27.08 10.85-36.83-.05-.96-.07-1.92-.07-2.88 0-18.35 6.07-46.19 16.74-46.19 12 36.47 21.9 27.84 21.9 46.19 0 7.42-1.43 14.24-3.81 19.76 8.78 7.57 14.58 8.71 14.58 19.95 0 9.73-3.8 18.45-9.82 24.53 12.59 4.59 21.11 13.3 21.11 23.3 0 4.78-1.96 9.25-5.36 13.14 9.87 4.86 16.04 11.69 16.04 19.28 0 4.31-2.04 8.39-5.57 12 11.03 2.25 17.85 5.3 17.85 8.66 0 4.17-10.42 7.85-26.41 10.15 15.99 2.27 26.41 5.96 26.41 10.12 0 1.44-1.29 2.81-3.56 4.09 13.44 2.24 21.72 5.2 21.72 8.48 0 6.93 0 26.35-82.5 26.35s-82.5-19.42-82.5-26.35c0-3.27 8.26-6.24 21.72-8.48Z"/><path fill="#3D6E46" d="M1917.76 1894.46c-2.26-1.28-3.57-2.65-3.57-4.09 0-4.16 10.43-7.85 26.42-10.12-15.99-2.3-26.42-5.98-26.42-10.15 0-3.36 6.82-6.41 17.87-8.66-3.53-3.61-5.59-7.68-5.59-12 0-7.59 6.18-14.42 16.05-19.28-3.4-3.89-5.36-8.36-5.36-13.14 0-10 8.52-18.71 21.11-23.3-6.02-6.08-9.82-14.8-9.82-24.53 0-11.64 3.81-27.08 10.85-36.83-.05-.96-.07-1.92-.07-2.88 0-18.35 6.07-46.19 16.74-46.19 1.55 4.7 3.06 8.63 4.52 11.99-2.07 9.25-3.18 20.79-3.18 29.97 0 .97.02 1.92.06 2.88-5.1 9.75-7.88 25.19-7.88 36.84 0 9.72 2.75 18.44 7.14 24.51-9.16 4.6-15.34 13.3-15.34 23.31 0 4.77 1.42 9.25 3.89 13.13-7.18 4.87-11.65 11.7-11.65 19.29 0 4.31 1.48 8.38 4.05 12-8.02 2.25-12.98 5.3-12.98 8.66 0 4.17 7.58 7.85 19.19 10.13-11.61 2.29-19.19 5.97-19.19 10.13 0 1.44.94 2.81 2.59 4.1-9.77 2.23-15.77 5.2-15.77 8.47 0 6.94 0 26.36 59.94 26.36 59.93 0 59.93-19.42 59.93-26.36 0-.63-.28-1.25-.71-1.85 6.61 1.8 10.47 3.87 10.47 6.09 0 6.93 0 26.35-82.5 26.35s-82.5-19.42-82.5-26.35c0-3.28 8.26-6.24 21.71-8.48Z"/><path fill="#67944E" d="M1986.95 1855.92c0 1.47 9.2 2.66 20.55 2.66 11.35 0 20.55-1.19 20.55-2.66 0-1.47-9.2-2.65-20.55-2.65-11.35 0-20.55 1.18-20.55 2.65Zm8.02-28.31c0 1.47 4.6 2.66 10.27 2.66s10.27-1.19 10.27-2.66c0-1.46-4.6-2.65-10.27-2.65s-10.27 1.19-10.27 2.65Zm0-56.78c0 1.47 2.3 2.66 5.14 2.66s5.13-1.19 5.13-2.66c0-1.46-2.29-2.65-5.13-2.65s-5.14 1.19-5.14 2.65Zm-6.35-42.37c0 2.3 1.81 4.16 4.03 4.16 2.23 0 4.03-1.86 4.03-4.16s-1.8-4.17-4.03-4.17c-2.22 0-4.03 1.86-4.03 4.17Zm-8.57 76.16c0 2.3 1.8 4.17 4.01 4.17 2.23 0 4.04-1.87 4.04-4.17s-1.81-4.16-4.04-4.16c-2.21 0-4.01 1.86-4.01 4.16Zm35.46 94.51c0 2.3 1.81 4.16 4.03 4.16s4.03-1.86 4.03-4.16c0-2.29-1.81-4.16-4.03-4.16s-4.03 1.87-4.03 4.16Zm-10.27-28.31c0 2.3 1.81 4.16 4.03 4.16 2.23 0 4.03-1.86 4.03-4.16s-1.8-4.16-4.03-4.16c-2.22 0-4.03 1.86-4.03 4.16Zm-16.31-132.72c0 1.06.84 1.93 1.85 1.93 1.03 0 1.87-.87 1.87-1.93s-.84-1.93-1.87-1.93c-1.01 0-1.85.87-1.85 1.93Z"/><path fill="#F3F3C1" d="M557.048 1067.29h520.002v930H557.048v-930Z"/><path fill="#B2B391" d="M597.352 1723.76h17.507v273.53h-17.507v-273.53Zm184.934 0h17.529v273.53h-17.529v-273.53Zm-225.238-73.47h520.002v32.48H557.048v-32.48Z"/><path fill="#CA4338" d="M816.048 1751.29h-231l20.412-99h190.142l20.446 99Z"/><path fill="#4BA3DB" d="M846.048 1782.29h186.002v167H846.048v-167Z"/><path fill="#387BA5" d="M1032.05 1949.29H846.048l186.002-167v167Z"/><path fill="#CA4338" d="M655.048 1785.29h91v212h-91v-212Z"/><path fill="#4BA3DB" d="M666.048 1800.29h69v197h-69v-197Z"/><path fill="#387BA5" d="M691.048 1891.8c0 6.34-3.353 11.49-7.508 11.49-4.13 0-7.492-5.15-7.492-11.49 0-6.35 3.362-11.51 7.492-11.51.986 0 1.962.3 2.873.88.911.58 1.739 1.42 2.436 2.49.697 1.07 1.251 2.34 1.628 3.74.377 1.39.571 2.89.571 4.4Z"/><path fill="#4BA3DB" d="M903.048 1467.29h78v103h-78v-103Z"/><path fill="#387BA5" d="M981.048 1570.29h-78l78-103v103Z"/><path fill="#544A2E" d="M981.048 1467.29h37.002v103h-37.002v-103Z"/><path fill="#7A6C48" d="M986.048 1472.29h27.002v10.23h-27.002v-10.23Zm0 16.36h27.002v10.21h-27.002v-10.21Zm0 16.35h27.002v10.23h-27.002V1505Zm0 16.35h27.002v10.22h-27.002v-10.22Zm0 16.35h27.002v10.22h-27.002v-10.22Zm0 16.35h27.002v10.24h-27.002v-10.24Z"/><path fill="#544A2E" d="M867.048 1467.29h36v103h-36v-103Z"/><path fill="#7A6C48" d="M871.048 1472.29h28v10.23h-28v-10.23Zm0 16.36h28v10.21h-28v-10.21Zm0 16.35h28v10.23h-28V1505Zm0 16.35h28v10.22h-28v-10.22Zm0 16.35h28v10.22h-28v-10.22Zm0 16.35h28v10.24h-28v-10.24Z"/><path fill="#9A9C7E" d="M903.048 1569.29h78v11h-78v-11Z"/><path fill="#4BA3DB" d="M655.048 1467.29h79v103h-79v-103Z"/><path fill="#387BA5" d="M734.048 1570.29h-79l79-103v103Z"/><path fill="#544A2E" d="M734.048 1467.29h36v103h-36v-103Z"/><path fill="#7A6C48" d="M738.048 1472.29h28v10.23h-28v-10.23Zm0 16.36h28v10.21h-28v-10.21Zm0 16.35h28v10.23h-28V1505Zm0 16.35h28v10.22h-28v-10.22Zm0 16.35h28v10.22h-28v-10.22Zm0 16.35h28v10.24h-28v-10.24Z"/><path fill="#544A2E" d="M619.048 1467.29h36v103h-36v-103Z"/><path fill="#7A6C48" d="M624.048 1472.29h27v10.23h-27v-10.23Zm0 16.36h27v10.21h-27v-10.21Zm0 16.35h27v10.23h-27V1505Zm0 16.35h27v10.22h-27v-10.22Zm0 16.35h27v10.22h-27v-10.22Zm0 16.35h27v10.24h-27v-10.24Z"/><path fill="#9A9C7E" d="M655.048 1569.29h79v11h-79v-11Z"/><path fill="#4BA3DB" d="M903.048 1177.29h78v104h-78v-104Z"/><path fill="#387BA5" d="M981.048 1281.29h-78l78-104v104Z"/><path fill="#544A2E" d="M981.048 1177.29h37.002v104h-37.002v-104Z"/><path fill="#7A6C48" d="M986.048 1184.29h27.002v10.11h-27.002v-10.11Zm0 16.18h27.002v10.1h-27.002v-10.1Zm0 16.18h27.002v10.12h-27.002v-10.12Zm0 16.19h27.002v10.1h-27.002v-10.1Zm0 16.18h27.002v10.1h-27.002v-10.1Zm0 16.17h27.002v10.1h-27.002v-10.1Z"/><path fill="#544A2E" d="M867.048 1177.29h36v104h-36v-104Z"/><path fill="#7A6C48" d="M871.048 1184.29h28v10.11h-28v-10.11Zm0 16.18h28v10.1h-28v-10.1Zm0 16.18h28v10.12h-28v-10.12Zm0 16.19h28v10.1h-28v-10.1Zm0 16.18h28v10.1h-28v-10.1Zm0 16.17h28v10.1h-28v-10.1Z"/><path fill="#9A9C7E" d="M903.048 1281.29h78v11h-78v-11Z"/><path fill="#4BA3DB" d="M655.048 1177.29h79v104h-79v-104Z"/><path fill="#387BA5" d="M734.048 1281.29h-79l79-104v104Z"/><path fill="#544A2E" d="M734.048 1177.29h36v104h-36v-104Z"/><path fill="#7A6C48" d="M738.048 1184.29h28v10.11h-28v-10.11Zm0 16.18h28v10.1h-28v-10.1Zm0 16.18h28v10.12h-28v-10.12Zm0 16.19h28v10.1h-28v-10.1Zm0 16.18h28v10.1h-28v-10.1Zm0 16.17h28v10.1h-28v-10.1Z"/><path fill="#544A2E" d="M619.048 1177.29h36v104h-36v-104Z"/><path fill="#7A6C48" d="M624.048 1184.29h27v10.11h-27v-10.11Zm0 16.18h27v10.1h-27v-10.1Zm0 16.18h27v10.12h-27v-10.12Zm0 16.19h27v10.1h-27v-10.1Zm0 16.18h27v10.1h-27v-10.1Zm0 16.17h27v10.1h-27v-10.1Z"/><path fill="#9A9C7E" d="M655.048 1281.29h79v11h-79v-11Z"/><path fill="#CA4338" d="M531.048 1009.29h572.002v29H531.048v-29Z"/><path fill="#892A1F" d="M557.048 1038.29h520.002v29H557.048v-29Z"/><path fill="#876F63" d="M1140.05 729.295h520V1997.29h-520V729.295Z"/><path fill="#69564C" d="M1628.16 1975.05h24.89v12.24h-24.89v-12.24Zm12.47-15.79h12.42v12.22h-12.42v-12.22Zm-12.47-18.35h24.89v12.23h-24.89v-12.23Zm12.47-15.82h12.42v12.25h-12.42v-12.25Zm-12.47-18.33h24.89v12.23h-24.89v-12.23Zm12.47-15.78h12.42v12.21h-12.42v-12.21Zm-12.47-18.35h24.89v12.22h-24.89v-12.22Zm12.47-15.79h12.42v12.2h-12.42v-12.2Zm-12.47-18.36h24.89v12.23h-24.89v-12.23Zm12.47-15.79h12.42v12.22h-12.42v-12.22Zm-12.47-18.37h24.89v12.25h-24.89v-12.25Zm12.47-15.77h12.42v12.23h-12.42v-12.23Zm-12.47-18.35h24.89v12.22h-24.89v-12.22Zm12.47-15.8h12.42v12.25h-12.42v-12.25Zm-12.47-18.34h24.89v12.22h-24.89v-12.22Zm12.47-15.81h12.42v12.24h-12.42v-12.24Zm-12.47-18.33h24.89v12.21h-24.89v-12.21Zm12.47-15.8h12.42v12.23h-12.42v-12.23Zm-12.47-18.35h24.89V1680h-24.89v-12.23Zm12.47-15.81h12.42v12.24h-12.42v-12.24Zm-12.47-18.34h24.89v12.25h-24.89v-12.25Zm12.47-15.77h12.42v12.21h-12.42v-12.21Zm-12.47-18.37h24.89v12.25h-24.89v-12.25Zm12.47-15.79h12.42v12.24h-12.42v-12.24Zm-12.47-18.34h24.89v12.23h-24.89v-12.23Zm12.47-15.8h12.42v12.23h-12.42v-12.23Zm-12.47-18.32h24.89v12.2h-24.89v-12.2Zm12.47-15.81h12.42v12.21h-12.42v-12.21Zm-12.47-18.36h24.89v12.23h-24.89v-12.23Zm12.47-15.8h12.42v12.24h-12.42v-12.24Zm-12.47-18.35h24.89v12.25h-24.89v-12.25Zm12.47-15.78h12.42v12.23h-12.42v-12.23Zm-12.47-18.34h24.89v12.25h-24.89v-12.25Zm12.47-15.82h12.42v12.25h-12.42v-12.25Zm-12.47-18.33h24.89v12.23h-24.89v-12.23Zm12.47-15.8h12.42v12.23h-12.42v-12.23Zm-12.47-18.34h24.89v12.22h-24.89v-12.22Zm12.47-15.78h12.42v12.21h-12.42v-12.21Zm-12.47-18.37h24.89v12.24h-24.89v-12.24Zm12.47-15.78h12.42v12.21h-12.42v-12.21Zm-12.47-18.35h24.89v12.23h-24.89v-12.23Zm12.47-15.8h12.42v12.23h-12.42v-12.23Zm-12.47-18.35h24.89v12.25h-24.89v-12.25Zm12.47-15.79h12.42v12.23h-12.42v-12.23Zm-12.47-18.36h24.89v12.24h-24.89v-12.24Zm12.47-15.79h12.42v12.24h-12.42v-12.24Zm-12.47-18.33h24.89v12.21h-24.89v-12.21Zm12.47-15.8h12.42v12.23h-12.42V1174Zm-12.47-18.35h24.89v12.22h-24.89v-12.22Zm12.47-15.8h12.42v12.24h-12.42v-12.24Zm-12.47-18.34h24.89v12.22h-24.89v-12.22Zm12.47-15.8h12.42v12.23h-12.42v-12.23Zm-12.47-18.35h24.89v12.25h-24.89v-12.25Zm12.47-15.81h12.42v12.25h-12.42v-12.25Zm-494.58 903.5h24.87v12.24h-24.87v-12.24Zm0-15.79h12.44v12.22h-12.44v-12.22Zm0-18.35h24.87v12.23h-24.87v-12.23Zm0-15.82h12.44v12.25h-12.44v-12.25Zm0-18.33h24.87v12.23h-24.87v-12.23Zm0-15.78h12.44v12.21h-12.44v-12.21Zm0-18.35h24.87v12.22h-24.87v-12.22Zm0-15.79h12.44v12.2h-12.44v-12.2Zm0-18.36h24.87v12.23h-24.87v-12.23Zm0-15.79h12.44v12.22h-12.44v-12.22Zm0-18.37h24.87v12.25h-24.87v-12.25Zm0-15.77h12.44v12.23h-12.44v-12.23Zm0-18.35h24.87v12.22h-24.87v-12.22Zm0-15.8h12.44v12.25h-12.44v-12.25Zm0-18.34h24.87v12.22h-24.87v-12.22Zm0-15.81h12.44v12.24h-12.44v-12.24Zm0-18.33h24.87v12.21h-24.87v-12.21Zm0-15.8h12.44v12.23h-12.44v-12.23Zm0-18.35h24.87V1680h-24.87v-12.23Zm0-15.81h12.44v12.24h-12.44v-12.24Zm0-18.34h24.87v12.25h-24.87v-12.25Zm0-15.77h12.44v12.21h-12.44v-12.21Zm0-18.37h24.87v12.25h-24.87v-12.25Zm0-15.79h12.44v12.24h-12.44v-12.24Zm0-18.34h24.87v12.23h-24.87v-12.23Zm0-15.8h12.44v12.23h-12.44v-12.23Zm0-18.32h24.87v12.2h-24.87v-12.2Zm0-15.81h12.44v12.21h-12.44v-12.21Zm0-18.36h24.87v12.23h-24.87v-12.23Zm0-15.8h12.44v12.24h-12.44v-12.24Zm0-18.35h24.87v12.25h-24.87v-12.25Zm0-15.78h12.44v12.23h-12.44v-12.23Zm0-18.34h24.87v12.25h-24.87v-12.25Zm0-15.82h12.44v12.25h-12.44v-12.25Zm0-18.33h24.87v12.23h-24.87v-12.23Zm0-15.8h12.44v12.23h-12.44v-12.23Zm0-18.34h24.87v12.22h-24.87v-12.22Zm0-15.78h12.44v12.21h-12.44v-12.21Zm0-18.37h24.87v12.24h-24.87v-12.24Zm0-15.78h12.44v12.21h-12.44v-12.21Zm0-18.35h24.87v12.23h-24.87v-12.23Zm0-15.8h12.44v12.23h-12.44v-12.23Zm0-18.35h24.87v12.25h-24.87v-12.25Zm0-15.79h12.44v12.23h-12.44v-12.23Zm0-18.36h24.87v12.24h-24.87v-12.24Zm0-15.79h12.44v12.24h-12.44v-12.24Zm0-18.33h24.87v12.21h-24.87v-12.21Zm0-15.8h12.44v12.23h-12.44V1174Zm0-18.35h24.87v12.22h-24.87v-12.22Zm0-15.8h12.44v12.24h-12.44v-12.24Zm0-18.34h24.87v12.22h-24.87v-12.22Zm0-15.8h12.44v12.23h-12.44v-12.23Zm0-18.35h24.87v12.25h-24.87v-12.25Zm0-15.81h12.44v12.25h-12.44v-12.25Zm482.11-18.33h24.89v12.24h-24.89v-12.24Zm12.47-15.79h12.42v12.23h-12.42v-12.23Zm-12.47-18.35h24.89v12.24h-24.89v-12.24Zm12.47-15.79h12.42v12.22h-12.42v-12.22Zm-12.47-18.327h24.89v12.207h-24.89v-12.207Zm12.47-15.807h12.42v12.208h-12.42v-12.208Zm-12.47-18.363h24.89v12.239h-24.89v-12.239Zm12.47-15.795h12.42v12.244h-12.42v-12.244Zm-12.47-18.34h24.89v12.233h-24.89v-12.233Zm12.47-15.805h12.42v12.25h-12.42v-12.25Zm-12.47-18.333h24.89v12.226h-24.89V882.52Zm12.47-15.807h12.42v12.239h-12.42v-12.239Zm-12.47-18.332h24.89v12.233h-24.89v-12.233Zm12.47-15.794h12.42v12.226h-12.42v-12.226Zm-12.47-18.34h24.89v12.214h-24.89v-12.214Zm12.47-15.805h12.42v12.22h-12.42v-12.22Zm-12.47-18.353h24.89v12.227h-24.89v-12.227Zm12.47-15.794h12.42v12.226h-12.42v-12.226Zm-494.58 288.925h24.87v12.24h-24.87v-12.24Zm0-15.79h12.44v12.23h-12.44v-12.23Zm0-18.35h24.87v12.24h-24.87v-12.24Zm0-15.79h12.44v12.22h-12.44v-12.22Zm0-18.327h24.87v12.207h-24.87v-12.207Zm0-15.807h12.44v12.208h-12.44v-12.208Zm0-18.363h24.87v12.239h-24.87v-12.239Zm0-15.795h12.44v12.244h-12.44v-12.244Zm0-18.34h24.87v12.233h-24.87v-12.233Zm0-15.805h12.44v12.25h-12.44v-12.25Zm0-18.333h24.87v12.226h-24.87V882.52Zm0-15.807h12.44v12.239h-12.44v-12.239Zm0-18.332h24.87v12.233h-24.87v-12.233Zm0-15.794h12.44v12.226h-12.44v-12.226Zm0-18.34h24.87v12.214h-24.87v-12.214Zm0-15.805h12.44v12.22h-12.44v-12.22Zm0-18.353h24.87v12.227h-24.87v-12.227Zm0-15.794h12.44v12.226h-12.44v-12.226Z"/><path fill="#4BA3DB" d="M1499.05 1660.29h92v159h-92v-159Z"/><path fill="#387BA5" d="M1504.05 1670.29h15.56v139h-15.56v-139Zm66.46 0h15.54v139h-15.54v-139Z"/><path fill="#9BC4E9" d="M1535.37 1809.29h-10.32l30.69-139h10.31l-30.68 139Z"/><path fill="#4BA3DB" d="M1352.05 1660.29h94v159h-94v-159Z"/><path fill="#387BA5" d="M1359.05 1670.29h15.55v139h-15.55v-139Zm66.45 0h15.55v139h-15.55v-139Z"/><path fill="#9BC4E9" d="M1389.63 1809.29h-10.58l31.43-139h10.57l-31.42 139Z"/><path fill="#4BA3DB" d="M1207.05 1660.29h93v159h-93v-159Z"/><path fill="#387BA5" d="M1212.05 1670.29h15.58v139h-15.58v-139Zm66.44 0h15.56v139h-15.56v-139Z"/><path fill="#9BC4E9" d="M1244.35 1809.29h-10.3l30.67-139h10.33l-30.7 139Z"/><path fill="#F6D892" d="M1170.05 1849.29h459v20h-459v-20Z"/><path fill="#F6D892" d="M1190.93 1783.85v75.44h4.85v-66.13h41.01v66.13h4.84v-66.13h41.02v66.13h4.85v-66.13h41v66.13h4.85v-66.13h41.01v66.13h4.81v-66.13h41.02v66.13h4.86v-66.13h40.98v66.13h4.86v-66.13h41v66.13h4.86v-66.13h41v66.13h4.84v-66.13h41.01v66.13h4.85v-75.44h-417.52Zm-50.88-212.56h520v12.23h-520v-12.23Z"/><path fill="#A69465" d="M1140.05 1583.29h520v12h-520v-12Z"/><path fill="#4BA3DB" d="M1499.05 1244.29h92v159h-92v-159Z"/><path fill="#387BA5" d="M1504.05 1254.29h15.56v139h-15.56v-139Zm66.46 0h15.54v139h-15.54v-139Z"/><path fill="#9BC4E9" d="M1535.37 1393.29h-10.32l30.69-139h10.31l-30.68 139Z"/><path fill="#4BA3DB" d="M1352.05 1244.29h94v159h-94v-159Z"/><path fill="#387BA5" d="M1359.05 1254.29h15.55v139h-15.55v-139Zm66.45 0h15.55v139h-15.55v-139Z"/><path fill="#9BC4E9" d="M1389.63 1393.29h-10.58l31.43-139h10.57l-31.42 139Z"/><path fill="#4BA3DB" d="M1207.05 1244.29h93v159h-93v-159Z"/><path fill="#387BA5" d="M1212.05 1254.29h15.58v139h-15.58v-139Zm66.44 0h15.56v139h-15.56v-139Z"/><path fill="#9BC4E9" d="M1244.35 1393.29h-10.3l30.67-139h10.33l-30.7 139Z"/><path fill="#F6D892" d="M1170.05 1432.29h459v22h-459v-22Z"/><path fill="#F6D892" d="M1190.93 1368.12v75.17h4.85v-65.9h41.01v65.9h4.84v-65.9h41.02v65.9h4.85v-65.9h41v65.9h4.85v-65.9h41.01v65.9h4.81v-65.9h41.02v65.9h4.86v-65.9h40.98v65.9h4.86v-65.9h41v65.9h4.86v-65.9h41v65.9h4.84v-65.9h41.01v65.9h4.85v-75.17h-417.52Zm-50.88-211.83h520v12.22h-520v-12.22Z"/><path fill="#A69465" d="M1140.05 1167.29h520v12h-520v-12Z"/><path fill="#4BA3DB" d="M1499.05 827.295h92v159h-92v-159Z"/><path fill="#387BA5" d="M1504.05 837.295h15.56v139h-15.56v-139Zm66.46 0h15.54v139h-15.54v-139Z"/><path fill="#9BC4E9" d="M1535.37 976.295h-10.32l30.69-139h10.31l-30.68 139Z"/><path fill="#4BA3DB" d="M1352.05 827.295h94v159h-94v-159Z"/><path fill="#387BA5" d="M1359.05 837.295h15.55v139h-15.55v-139Zm66.45 0h15.55v139h-15.55v-139Z"/><path fill="#9BC4E9" d="M1389.63 976.295h-10.58l31.43-139h10.57l-31.42 139Z"/><path fill="#4BA3DB" d="M1207.05 827.295h93v159h-93v-159Z"/><path fill="#387BA5" d="M1212.05 837.295h15.58v139h-15.58v-139Zm66.44 0h15.56v139h-15.56v-139Z"/><path fill="#9BC4E9" d="M1244.35 976.295h-10.3l30.67-139h10.33l-30.7 139Z"/><path fill="#F6D892" d="M1170.05 1016.29h459v21h-459v-21Z"/><path fill="#F6D892" d="M1190.93 951.126v75.164h4.85v-65.914h41.01v65.914h4.84v-65.914h41.02v65.914h4.85v-65.914h41v65.914h4.85v-65.914h41.01v65.914h4.81v-65.914h41.02v65.914h4.86v-65.914h40.98v65.914h4.86v-65.914h41v65.914h4.86v-65.914h41v65.914h4.84v-65.914h41.01v65.914h4.85v-75.164h-417.52Zm-50.88-211.831h520v12.181h-520v-12.181Z"/><path fill="#A69465" d="M1140.05 751.295h520v12h-520v-12Z"/><path fill="#8C7D55" d="M1730.05 1535.29h331v462h-331v-462Z"/><path fill="#F6D892" d="M1742.05 1745.29h309v252h-309v-252Z"/><path fill="#544A2E" d="M1782.05 1554.29h90v127h-90v-127Z"/><path fill="#4BA3DB" d="M1788.05 1564.29h77v108h-77v-108Z"/><path fill="#387BA5" d="M1865.05 1672.29h-77l77-108v108Z"/><path fill="#544A2E" d="M1927.05 1554.29h91v127h-91v-127Z"/><path fill="#4BA3DB" d="M1934.05 1564.29h77v108h-77v-108Z"/><path fill="#387BA5" d="M2011.05 1672.29h-77l77-108v108Z"/><path fill="#B0B18F" d="M1730.05 1535.29h331v38h-331v-38Z"/><path fill="#544A2E" d="m1725.19 1514.29-5.14 20.8h352l-5.15-20.8h-341.71Zm27.54 274.69h148.86v179.31h-148.86v-179.31Z"/><path fill="#4BA3DB" d="M1760.05 1798.29h133v159h-133v-159Z"/><path fill="#544A2E" d="M1927.05 1785.29h91v212h-91v-212Z"/><path fill="#3F361E" d="M1939.05 1800.29h67v197h-67v-197Z"/><path fill="#544A2E" d="M1964.05 1891.8c0 6.34-3.59 11.49-8.02 11.49-4.4 0-7.98-5.15-7.98-11.49 0-6.35 3.58-11.51 7.98-11.51 4.43 0 8.02 5.16 8.02 11.51Z"/><path fill="#CA4338" d="M1906.05 1724.29h133v41h-133v-41Z"/><path fill="#544A2E" d="M1896.05 1820v-2.99h-21.64v-23.72h-2.36v23.72h-21.24v-23.72h-2.35v23.72h-21.24v-23.72h-2.35v23.72h-21.23v-23.72h-2.37v23.72h-21.22v-23.72h-2.35v23.72h-21.65v2.99h21.65v26.69h-21.65v2.93h21.65v26.68h-21.65v2.97h21.65v26.69h-21.65v2.95h21.65v26.69h-21.65v2.97h21.65v23.72h2.35v-23.72h21.22v23.72h2.37v-23.72h21.23v23.72h2.35v-23.72h21.24v23.72h2.35v-23.72h21.24v23.72h2.36v-23.72h21.64v-2.97h-21.64v-26.69h21.64v-2.95h-21.64v-26.69h21.64v-2.97h-21.64v-26.68h21.64v-2.93h-21.64V1820h21.64Zm-47.59 0v26.69h-21.24V1820h21.24Zm-23.59 59.27v26.69h-21.23v-26.69h21.23Zm-21.23-2.97v-26.68h21.23v26.68h-21.23Zm23.58 2.97h21.24v26.69h-21.24v-26.69Zm0-2.97v-26.68h21.24v26.68h-21.24Zm-2.35-56.3v26.69h-21.23V1820h21.23Zm-44.82 0h21.22v26.69h-21.22V1820Zm0 29.62h21.22v26.68h-21.22v-26.68Zm0 29.65h21.22v26.69h-21.22v-26.69Zm0 56.33v-26.69h21.22v26.69h-21.22Zm23.59 0v-26.69h21.23v26.69h-21.23Zm23.58 0v-26.69h21.24v26.69h-21.24Zm44.83 0h-21.24v-26.69h21.24v26.69Zm0-29.64h-21.24v-26.69h21.24v26.69Zm0-29.66h-21.24v-26.68h21.24v26.68Zm0-29.61h-21.24V1820h21.24v26.69Z"/></g><defs><clipPath id="a"><path fill="#fff" d="M0 364h2603v1920H0z"/></clipPath></defs></svg>